<svg width="400" height="400" xmlns="http://www.w3.org/2000/svg">

 <g>
  <title>background</title>
  <rect fill="none" id="canvas_background" height="402" width="402" y="-1" x="-1"/>
 </g>
 <g>
  <title>Layer 1</title>
  <g stroke="null" id="svg_1">
   <g stroke="null" id="svg_2" display="none">
    <g stroke="null" id="svg_3" display="inline">
     <path stroke="null" id="svg_4" d="m1191.07183,164.4818c0,0 17.48257,19.64076 46.22898,23.88023c28.74572,4.23968 -2.26974,30.28293 -36.14268,28.03308c-33.8734,-2.24965 -10.08629,-51.91331 -10.08629,-51.91331z" fill="#FECE00"/>
     <path stroke="null" id="svg_5" d="m1245.24739,202.49667c-7.20362,2.69333 -23.63552,7.68415 -26.93211,-1.36531c-2.22753,-6.11424 -5.53569,-15.03256 -8.18009,-22.13584c-12.19832,-6.80237 -19.06336,-14.51372 -19.06336,-14.51372s-23.7871,49.66366 10.08629,51.91331c18.85141,1.25184 36.81734,-6.25921 44.08927,-13.89843z" fill="#FCC000"/>
     <path stroke="null" id="svg_6" d="m1221.19931,187.6659c0,0 10.95407,3.34965 19.1185,4.66594c8.16466,1.31608 2.6149,9.69067 -5.63668,10.34864c-8.25203,0.65771 -11.97071,-1.6153 -12.95875,-3.28997c-0.98805,-1.67503 -6.55665,-13.43949 -0.52307,-11.7246z" fill="#FFDA3E"/>
    </g>
    <g stroke="null" id="svg_7" display="inline">
     <path stroke="null" id="svg_8" d="m1098.10113,332.86565c0,0 11.71598,21.81372 17.93076,23.70145c6.21478,1.88732 12.42922,-28.94497 12.42922,-28.94497l-30.35998,5.24353z" fill="#FF8B00"/>
     <path stroke="null" id="svg_9" d="m1116.03189,356.56709c1.93672,0.58809 3.87367,-2.00227 5.62261,-5.84688c-10.56954,-0.75427 -16.73155,-12.91707 -19.05621,-18.63128l-4.49716,0.77671c0,0 11.71598,21.81331 17.93076,23.70145z" fill="#FF7300"/>
     <path stroke="null" id="svg_10" d="m1112.81858,340.35129c0,0 7.76527,-2.8006 9.29726,-2.39273c1.53211,0.40767 -0.31668,8.64625 -2.53559,9.4079c-2.21868,0.76124 -10.1024,-5.89381 -6.76168,-7.01517z" fill="#FFA039"/>
    </g>
    <g stroke="null" id="svg_11" display="inline">
     <path stroke="null" id="svg_12" d="m1063.90879,336.76866c0,0 9.73331,22.82372 15.75485,25.28724c6.02121,2.46373 14.94381,-27.6562 14.94381,-27.6562l-30.69867,2.36896z" fill="#FF8B00"/>
     <path stroke="null" id="svg_13" d="m1079.66364,362.0559c1.87647,0.768 4.0349,-1.62964 6.11765,-5.29383c-10.45891,-1.7447 -15.51635,-14.43535 -17.32497,-20.34421l-4.54753,0.3508c0,0 9.73331,22.82321 15.75485,25.28724z" fill="#FF7300"/>
     <path stroke="null" id="svg_14" d="m1077.90132,345.60598c0,0 7.98153,-2.05934 9.47098,-1.50926c1.48933,0.55049 -1.08245,8.58037 -3.35911,9.13045c-2.27745,0.54957 -9.53758,-6.81815 -6.11187,-7.62119z" fill="#FFA039"/>
    </g>
    <path stroke="null" id="svg_15" d="m1091.45077,75.8531c0,0 3.22511,-26.50486 -13.73587,-29.74315c-16.96052,-3.23834 -26.53509,11.82711 -26.53509,11.82711s-12.58398,-37.59368 -44.86445,-28.16007c-32.28024,9.43382 -33.23766,39.28311 -29.27106,52.09598c0,0 -55.52601,5.52179 -28.18611,57.16442c0,0 -21.19161,1.68999 -24.33752,21.1199c-3.14568,19.43063 27.35624,35.83981 27.35624,35.83981l92.85099,-43.72436c0,0 21.21362,-23.79514 25.93793,-25.62575c4.72408,-1.8301 16.65996,-21.82386 16.50508,-23.65396c-0.15477,-1.83066 4.27987,-27.13993 4.27987,-27.13993z" fill="#CD2606"/>
    <path stroke="null" id="svg_16" d="m944.82089,191.5436l1.03513,-0.80944c0,0 -17.09396,-13.41413 -17.53987,-28.46047c-0.44546,-15.04603 20.54203,-23.2363 20.54157,-23.2363c0,0 -21.19115,1.68958 -24.33706,21.1199c-2.1565,13.31936 11.49745,25.21865 20.30023,31.38631z" fill="#BC1A04"/>
    <path stroke="null" id="svg_17" d="m948.85772,144.5244c0,0 -13.27328,5.08462 -16.28042,14.79138c-3.00771,9.7065 6.58966,19.53446 7.63047,18.66749c1.04058,-0.86754 13.97256,-35.49905 8.64995,-33.45887z" fill="#E22C14"/>
    <path stroke="null" id="svg_18" d="m1077.71489,46.10995c-16.96109,-3.23875 -26.53509,11.8267 -26.53509,11.8267s-12.58398,-37.59327 -44.86445,-28.15966c-32.28024,9.43341 -33.23766,39.28311 -29.27106,52.09598c0,0 -55.52601,5.52133 -28.18657,57.16442c0,0 -7.37722,-21.97765 2.79848,-36.48891c10.17548,-14.51132 32.83906,-8.48053 32.49571,-20.73016c-0.34323,-12.24927 1.3315,-39.58064 23.84259,-45.46435c22.51086,-5.88377 40.00489,28.85717 41.23292,27.79702c1.22734,-1.05979 13.30357,-14.36972 24.86059,-13.89854c11.55622,0.47124 17.36276,25.60065 17.36276,25.60065s3.22511,-26.50486 -13.73587,-29.74315z" fill="#BC1A04"/>
    <path stroke="null" id="svg_19" d="m1052.32749,68.24784c0,0 12.99881,-11.83715 21.832,-10.46451c8.83263,1.37207 11.9993,14.75321 9.8327,19.55695c-2.16671,4.80297 -12.41594,12.95175 -14.83239,13.72375c-2.41656,0.77205 -27.39561,-16.14265 -54.49598,-7.41603c-42.38276,13.64727 -53.82983,40.69724 -57.82933,48.7598c-3.99984,8.06313 -7.16606,-22.64463 4.49954,-31.05062c11.6656,-8.4062 27.58146,-11.06515 31.83127,-16.81199c4.24958,-5.74699 -0.75034,-33.02374 16.99842,-39.62853c17.74888,-6.60448 34.70384,28.98514 42.16378,23.33118z" fill="#E22C14"/>
    <g stroke="null" id="svg_20" display="inline">
     <path stroke="null" id="svg_21" d="m915.26583,257.19695c0,0 1.05737,-8.46306 -2.46422,-20.42679c-3.52182,-11.96348 -14.67921,-20.62627 -20.36275,-14.04003c-10.1816,11.79893 11.9083,33.53755 22.82697,34.46682z" fill="#CD2606"/>
     <path stroke="null" id="svg_22" d="m904.28487,245.08322c-2.40658,-0.96605 -7.49817,-3.34699 -11.17646,-5.0921c5.2703,8.77862 15.67997,16.65451 22.15742,17.20582c0,0 1.05737,-8.46347 -2.46422,-20.42679c-0.56278,-1.91139 -1.32095,-3.73826 -2.22061,-5.43245c-4.07643,5.87106 -2.29425,15.35232 -6.29613,13.74552z" fill="#BC1A04"/>
     <path stroke="null" id="svg_23" d="m915.26583,257.19695c0,0 -23.64879,-23.04338 -30.11172,-11.05219c-6.46292,11.9917 11.05596,26.50922 30.11172,11.05219z" fill="#CD2606"/>
     <path stroke="null" id="svg_24" d="m883.788,251.3137c-0.08952,10.34136 15.12808,19.14519 31.47782,5.88325c0,0 -0.98918,-0.96348 -2.61739,-2.39406c-13.51689,9.61783 -25.86089,4.50923 -28.86043,-3.4892z" fill="#BC1A04"/>
     <path stroke="null" id="svg_25" d="m907.20476,254.1189c0,0 -12.80592,-13.72831 -19.07085,-7.34098c-3.38158,3.44709 6.28774,13.77943 19.07085,7.34098z" fill="#E22C14"/>
     <path stroke="null" id="svg_26" d="m915.26583,257.19695c0,0 -6.27412,-6.61775 -6.37068,-16.70287c-0.09565,-10.08471 15.99234,-16.16555 18.82622,-7.81042c2.83354,8.35456 -7.33388,21.04623 -12.45554,24.5133z" fill="#CD2606"/>
     <path stroke="null" id="svg_27" d="m926.23499,230.33262c1.05692,7.97794 -5.01194,18.90421 -10.00789,20.30303c-2.22469,0.62292 -4.13237,-0.14958 -5.64553,-1.3523c1.88771,4.96259 4.68426,7.9136 4.68426,7.9136c5.12166,-3.46706 15.28908,-16.15874 12.45509,-24.5133c-0.33007,-0.97465 -0.84134,-1.75249 -1.48593,-2.35103z" fill="#BC1A04"/>
     <path stroke="null" id="svg_28" d="m913.93172,247.54439c0,0 -3.77745,-4.34418 -2.83298,-8.87073c0.94402,-4.52645 8.41065,-8.50635 11.27336,-6.74428c2.8627,1.76191 -4.51497,18.65279 -8.44038,15.61501z" fill="#E22C14"/>
     <path stroke="null" id="svg_29" d="m902.90696,240.70544c0,0 -6.96092,-0.53 -9.82033,-9.13332c-1.76596,-5.31473 3.76111,-8.91781 6.45271,-7.88598c2.69137,1.03146 6.45634,6.31776 6.85336,8.41936c0.3969,2.10206 -0.59535,8.68098 -3.48574,8.59994z" fill="#E22C14"/>
    </g>
    <path stroke="null" id="svg_30" d="m1068.78752,99.18223c0,0 -37.26825,-26.45379 -77.51845,0c-40.25031,26.45369 -52.39156,93.73381 -54.41474,127.89444c-2.02364,34.16068 -23.87742,27.91167 -23.87742,27.91167s36.01844,84.36033 142.45519,88.31795c106.43697,3.95793 163.70216,-66.33088 158.64347,-127.94044s-67.78764,-131.59746 -122.62481,-139.51275c0,0 -6.67783,12.08109 -22.66324,23.32913z" fill="#FECE00"/>
    <path stroke="null" id="svg_31" d="m975.18869,197.14377c0,0 6.52352,-55.28883 34.71326,-71.50402c28.18918,-16.21514 52.77813,-3.9549 64.49616,-5.93238c11.71802,-1.97763 28.23899,-22.74099 39.18908,-21.35647c10.94964,1.38432 77.80052,41.68055 85.29234,111.30867c7.49182,69.62823 -54.55702,90.98469 -104.50275,96.3235c-49.94618,5.33912 -106.80789,-13.84224 -112.18678,-23.72942c-5.379,-9.88698 25.74164,-12.85314 23.82035,-28.07974c-1.92072,-15.2265 -34.87529,-36.72415 -30.82166,-57.03015z" fill="#FFDA3E"/>
    <ellipse stroke="null" id="svg_32" ry="11.67133" rx="14.52694" cy="208.8151" cx="1024.4289" fill="#FF9999"/>
    <path stroke="null" id="svg_33" d="m1210.85319,169.0502c0.42163,6.43118 -5.72609,12.09554 -13.73099,12.6513c-8.00513,0.55602 -14.83613,-4.20638 -15.25777,-10.63756c-0.42141,-6.43179 5.72632,-12.09595 13.73145,-12.65197c8.00422,-0.55602 14.83545,4.20694 15.25731,10.63822z" fill="#FF9999"/>
    <g stroke="null" id="svg_34" display="inline">
     <path stroke="null" id="svg_35" d="m1047.80537,193.76866c-1.37167,0 -2.57938,-1.02286 -2.8079,-2.4607c-0.09985,-0.64751 -2.3705,-15.88093 8.2678,-19.26055c8.65982,-2.73277 14.90682,7.52775 17.22512,14.03572c0.5427,1.52084 -0.21456,3.20232 -1.68937,3.76121c-1.47481,0.55863 -3.1138,-0.21782 -3.65956,-1.73599c-0.04437,-0.12336 -4.67722,-12.22274 -10.19556,-10.45258c-5.91342,1.8762 -4.33842,12.60935 -4.32163,12.71831c0.24508,1.59824 -0.8124,3.10222 -2.36221,3.35739c-0.15318,0.02572 -0.30635,0.03719 -0.45669,0.03719z"/>
    </g>
    <g stroke="null" id="svg_36" display="inline">
     <path stroke="null" id="svg_37" d="m1153.46114,166.08439c-1.37201,0 -2.57972,-1.02296 -2.80801,-2.46076c-0.10007,-0.64741 -2.3705,-15.88078 8.26746,-19.26055c8.65982,-2.73282 14.90694,7.52786 17.22501,14.03577c0.54236,1.52073 -0.21399,3.20232 -1.68926,3.76116c-1.47504,0.55848 -3.11369,-0.21777 -3.65922,-1.73615c-0.0447,-0.12315 -4.67768,-12.22248 -10.19545,-10.45252c-5.91353,1.87635 -4.33865,12.60955 -4.32208,12.71836c0.24486,1.59839 -0.81195,3.10233 -2.36233,3.35739c-0.15272,0.02577 -0.30613,0.03729 -0.45613,0.03729z"/>
    </g>
    <path stroke="null" id="svg_38" d="m1134.39223,180.34818c0,0 -11.39499,5.22524 -12.18357,13.42048c0,0 7.02344,8.12117 16.48352,6.64562c0,0 -13.18693,13.1311 -25.94292,2.65568c-12.51205,-10.27415 3.08124,-37.03341 21.64297,-22.72178z" fill="#FF8B00"/>
    <path stroke="null" id="svg_39" d="m1135.38629,200.55925c-4.97223,2.95648 -13.1867,5.73756 -21.23075,-0.86784c-4.5043,-3.69923 -5.3655,-9.53479 -3.75748,-14.82135c-3.21751,5.99595 -3.14432,13.68733 2.35121,18.19989c12.75599,10.47542 25.94292,-2.65568 25.94292,-2.65568c-1.14032,0.17766 -2.245,0.21536 -3.30589,0.14497z" fill="#FF7300"/>
    <path stroke="null" id="svg_40" d="m1128.58773,180.5724c0,0 -8.64257,6.17904 -9.28535,14.03828c0,0 3.57798,4.7143 8.92249,5.82434c0,0 -10.34545,3.27599 -15.3061,-6.42186c-4.67666,-9.1431 10.08312,-18.33175 15.66896,-13.44077z" fill="#FFA039"/>
    <path stroke="null" id="svg_41" d="m969.29888,230.60669c0,0 1.08767,11.53332 -7.13248,19.93532c-8.22026,8.40241 6.01327,13.94131 6.01327,13.94131s-16.02683,-1.63139 -18.83632,-5.48737c-2.80926,-3.85619 7.49227,-12.60674 7.49227,-12.60674s9.07794,-7.38995 12.46326,-15.78252z" fill="#FCC000"/>
    <path stroke="null" id="svg_42" d="m969.29888,230.60669c0,0 -6.08804,9.53699 -20.38181,20.43622c-14.29423,10.89892 14.02918,24.38666 42.35201,8.99142c0,0 -29.96739,7.49999 -37.32294,-1.08991c-6.07057,-7.08914 12.04366,-10.08184 15.35274,-28.33772z" fill="#F99300"/>
    <path stroke="null" id="svg_43" d="m965.5954,252.73833c0,0 5.51845,-10.0217 7.09515,-15.82402c1.57647,-5.8019 14.85962,16.67613 13.4016,19.88143c-1.45858,3.2057 -18.44702,3.7733 -20.49675,2.02891c-2.04939,-1.7447 -1.73498,-2.79373 0,-6.08632z" fill="#FFDA3E"/>
    <path stroke="null" id="svg_44" d="m1185.47758,294.89022c-20.57493,9.84015 -51.32261,19.71186 -96.46426,24.79126c-109.76704,12.35142 -148.87409,-48.03309 -153.31837,-59.88648c-4.44405,-11.85349 12.88773,-18.11019 16.88734,-35.26468c3.9995,-17.15475 13.99865,-81.1991 45.3292,-105.673c31.32987,-24.47452 70.87602,-19.67508 70.87602,-19.67508s-37.26825,-26.45379 -77.51845,0c-40.25031,26.45369 -52.39156,93.73381 -54.41474,127.89444c-2.02364,34.16068 -23.87742,27.91167 -23.87742,27.91167s36.01844,84.36033 142.45519,88.31795c59.4563,2.21066 103.56837,-18.74602 130.04548,-48.41607z" fill="#FCC000"/>
    <g stroke="null" id="svg_45" display="inline">
     <path stroke="null" id="svg_46" d="m1266.35968,161.06222c-0.36195,0 -0.72957,-0.01439 -1.10514,-0.0416c-4.54379,-0.32796 -7.16254,-2.73569 -9.26368,-4.66932c-1.93093,-1.77595 -3.30022,-3.06483 -5.70135,-2.78574c-5.37911,0.62041 -9.54802,6.7618 -9.58932,6.82322c-0.44274,0.66862 -1.33321,0.83649 -1.98131,0.37678c-0.64833,-0.45854 -0.81263,-1.3692 -0.36717,-2.03664c0.19743,-0.29778 4.93638,-7.30753 11.62056,-8.07911c3.62564,-0.40674 5.81277,1.57965 7.91686,3.5145c1.96157,1.80469 3.99258,3.67223 7.56625,3.93164c2.84909,0.2064 5.05597,-0.51161 6.57798,-2.12419c1.85855,-1.97661 2.66278,-5.30213 2.26225,-9.36661c-0.08056,-0.80637 0.48948,-1.52673 1.27193,-1.60864c0.77065,-0.07874 1.48321,0.50264 1.56082,1.31065c0.48971,4.94093 -0.59546,9.09746 -3.04969,11.70555c-1.88918,2.0054 -4.54129,3.04951 -7.71897,3.04951z"/>
    </g>
    <g stroke="null" id="svg_47" display="inline">
     <path stroke="null" id="svg_48" d="m1211.06945,39.03372l-18.17902,-7.60746l0,31.78271c-1.4916,-0.81021 -3.24599,-1.29626 -5.14129,-1.29626c-5.32465,0 -9.63947,3.70189 -9.63947,8.26906c0,4.56753 4.31482,8.26906 9.63947,8.26906c4.95022,0 8.98183,-3.21165 9.52896,-7.3335l0.05537,-0.45464l0.05537,-23.09123l13.68061,-8.53775z" fill="#191919"/>
     <g stroke="null" id="svg_49">
      <path stroke="null" id="svg_50" d="m1196.95132,72.46621c-3.88819,5.18359 -12.04627,3.43658 -14.6648,-0.41115c-1.96543,-2.88861 -1.39538,-6.13662 -0.41165,-8.38765c-2.2745,1.51197 -3.7652,3.85322 -3.7652,6.51437c0,4.56753 4.31482,8.26906 9.63947,8.26906c4.39311,0 8.04825,-2.53493 9.20218,-5.98463z"/>
      <polygon stroke="null" id="svg_51" points="1192.890380859375,31.426246643066406 1192.890380859375,63.20895767211914 1195.4906005859375,32.51426315307617 "/>
     </g>
     <path stroke="null" id="svg_52" d="m1205.95607,39.44733l-9.31814,-3.41753l-2.67571,31.09124c0,0 -2.57314,-2.97815 -6.96398,-2.53606c-4.39039,0.44178 -5.35415,4.96126 -1.49841,7.27658c3.85597,2.31532 10.71171,1.10333 10.71171,-3.08675c0,-4.18983 0.10552,-23.37375 0.10552,-23.37375l9.63902,-5.95374z" fill="#2D2D2D"/>
    </g>
    <g stroke="null" id="svg_53" display="inline">
     <path stroke="null" id="svg_54" d="m1288.8104,175.9937l12.39143,32.84091c-1.85559,-0.22084 -3.85847,0.00169 -5.81686,0.78562c-5.50166,2.19888 -8.51527,7.80587 -6.73683,12.52687c1.78162,4.71932 7.68403,6.76057 13.18614,4.562c5.11474,-2.04546 8.02782,-7.0329 6.98713,-11.51626l-0.13253,-0.49147l-14.19915,-37.83261l-5.67934,-0.87507z" fill="#191919"/>
     <g stroke="null" id="svg_55">
      <path stroke="null" id="svg_56" d="m1291.59209,221.54376c-2.4354,-3.34294 -1.18094,-7.23263 -0.10756,-9.41143c-2.87337,2.71812 -4.12647,6.59132 -2.83638,10.01479c1.78162,4.71932 7.68403,6.76057 13.18614,4.562c2.93986,-1.17572 5.11588,-3.33367 6.26686,-5.79729c-6.2242,5.78853 -13.69491,4.493 -16.50905,0.63194z"/>
      <polygon stroke="null" id="svg_57" points="1288.810302734375,175.99371719360352 1301.2017822265625,208.8346290588379 1290.8421630859375,176.30656814575195 "/>
     </g>
     <path stroke="null" id="svg_58" d="m1293.31312,179.30155l10.55467,32.40441c0,0 -4.22291,-1.16358 -7.63773,0.55177c-3.4155,1.71571 -4.4916,6.16925 -1.03865,8.71561c3.45226,2.54625 13.79317,-0.57805 11.97774,-6.22443c-1.90938,-5.04225 -12.50649,-34.3847 -12.50649,-34.3847l-1.34954,-1.06266z" fill="#2D2D2D"/>
    </g>
    <g stroke="null" id="svg_59" display="inline">
     <path stroke="null" id="svg_60" d="m1330.26957,104.42473l-0.22216,0.06998l-35.79276,9.4895l3.96421,13.04878l0,0l4.87828,16.05239c-1.591,-0.30158 -3.3329,-0.23078 -5.06958,0.32847c-4.87511,1.56996 -7.79522,6.23037 -6.52488,10.41236c1.27012,4.18363 6.2512,6.29978 11.12676,4.73074c4.53312,-1.4586 7.33025,-5.5889 6.68395,-9.52285l-0.02678,-0.46151l-6.8925,-22.68802l27.50782,-7.56935l5.21641,17.16735c-1.59168,-0.3026 -3.33335,-0.23093 -5.07004,0.32801c-4.87488,1.57032 -7.795,6.23006 -6.52488,10.41231c1.27035,4.18327 6.25143,6.29983 11.12676,4.73069c4.53313,-1.45849 7.33093,-5.58875 6.68395,-9.52285l-0.12481,-0.64664l-7.13509,-23.61646l0.04107,-0.01096l-3.84576,-12.73194z" fill="#191919"/>
     <g stroke="null" id="svg_61">
      <path stroke="null" id="svg_62" d="m1309.18541,151.94181c-4.02435,4.26421 -10.02616,5.24096 -13.41533,2.50568c-2.67957,-2.16497 -2.93555,-5.49352 -2.82503,-7.44277c-1.51929,2.01446 -2.15264,4.48408 -1.44236,6.82148c1.27012,4.18363 6.2512,6.29978 11.12676,4.73074c3.41323,-1.09831 5.83978,-3.71127 6.55597,-6.61514z"/>
      <polygon stroke="null" id="svg_63" points="1294.254638671875,113.98419570922852 1298.21875,127.03300094604492 1303.09716796875,143.08539199829102 1296.737548828125,113.32619094848633 "/>
     </g>
     <g stroke="null" id="svg_64">
      <path stroke="null" id="svg_65" d="m1340.7464,145.65509c-5.24069,4.343 -12.01859,3.30637 -14.1558,0.59444c-1.7705,-2.24919 -1.70877,-5.2548 -1.46369,-7.05907c-1.63911,2.04914 -2.33827,4.61148 -1.60348,7.03244c1.27035,4.18327 6.25143,6.29983 11.12676,4.73069c2.88676,-0.92931 5.0571,-2.94362 6.09621,-5.29849z"/>
      <path stroke="null" id="svg_66" d="m1335.11835,135.48257c-0.84758,-0.16055 -1.73941,-0.20716 -2.6478,-0.13816l2.6478,0.13816z"/>
      <polygon stroke="null" id="svg_67" points="1335.118408203125,135.4825782775879 1330.860107421875,116.4880485534668 1302.39404296875,125.88457107543945 1329.90185546875,118.31521224975586 "/>
     </g>
     <path stroke="null" id="svg_68" d="m1304.0861,144.41585l-5.10521,-29.38128l30.64852,-8.37536l9.96148,33.00576c0,0 0.64947,4.89646 -3.62541,6.38205c-4.27533,1.48529 -8.09817,-1.42796 -8.44038,-3.73442c-0.34221,-2.30656 1.07292,-4.71763 3.86573,-5.1758c2.7919,-0.45797 5.51323,0.89299 5.51323,0.89299l-5.49008,-23.42144l-29.92756,10.75308l5.97548,21.22256c0,0 1.20136,4.43613 -2.62624,6.31208c-3.82738,1.87635 -8.33985,-0.15092 -8.88902,-2.88313c-0.54849,-2.73236 2.38343,-5.39024 4.69379,-5.77788c2.30922,-0.38774 3.44568,0.18078 3.44568,0.18078z" fill="#2D2D2D"/>
    </g>
   </g>
   <g stroke="null" id="svg_69" display="none">
    <g stroke="null" id="svg_70" display="inline">
     <path stroke="null" id="svg_71" d="m768.69053,182.59025c0,0 15.29339,-11.284 27.27125,-8.75173c11.97752,2.53186 8.28834,14.6901 -9.57173,15.53253c-17.85962,0.84279 -17.69952,-6.78081 -17.69952,-6.78081z" fill="#CD2606"/>
     <path stroke="null" id="svg_72" d="m768.69121,182.59025c0,0 -0.16078,7.6236 17.69884,6.78081c2.03407,-0.09564 3.85949,-0.35465 5.52401,-0.71319c-3.62541,-1.98439 -8.00876,-4.80149 -8.19768,-7.20579c-0.19119,-2.43022 2.04701,-5.40838 3.99746,-7.51054c-9.75532,1.83604 -19.02262,8.64871 -19.02262,8.64871z" fill="#BC1A04"/>
     <path stroke="null" id="svg_73" d="m751.19411,187.39132c0,0 33.69707,-2.63242 36.0872,-18.9496c1.44622,-9.87371 -28.81992,-4.96516 -36.0872,18.9496z" fill="#CD2606"/>
     <path stroke="null" id="svg_74" d="m751.19411,187.39132c0,0 0.28752,-0.023 0.80004,-0.0751c8.45105,-19.92415 33.43054,-24.54685 34.82808,-16.96306c0.19595,-0.61775 0.36206,-1.24913 0.45862,-1.91145c1.44667,-9.87371 -28.81993,-4.96516 -36.08674,18.9496z" fill="#BC1A04"/>
     <path stroke="null" id="svg_75" d="m751.19411,187.39132c0,0 15.23553,-8.83897 30.66905,-2.81079c15.43341,6.02823 11.68001,27.09664 -30.66905,2.81079z" fill="#CD2606"/>
     <path stroke="null" id="svg_76" d="m781.00753,187.00266c5.40135,2.10949 8.44038,6.0584 8.30967,9.26359c2.48589,-3.31287 -0.56369,-8.99449 -7.45403,-11.68572c-15.43284,-6.02818 -30.66905,2.81079 -30.66905,2.81079c0.65945,0.3778 1.28192,0.71278 1.92288,1.06958c5.08104,-2.21246 16.42497,-5.93679 27.89054,-1.45824z" fill="#BC1A04"/>
     <path stroke="null" id="svg_77" d="m759.71573,188.10569c0,0 13.11386,-3.40093 21.3803,1.26537c17.40576,9.82535 -9.83871,9.15427 -21.3803,-1.26537z" fill="#E22C14"/>
     <path stroke="null" id="svg_78" d="m757.62198,182.47621c0,0 20.90761,-2.99588 25.29243,-10.61958c4.38449,-7.62319 -16.84354,-2.73267 -25.29243,10.61958z" fill="#E22C14"/>
     <path stroke="null" id="svg_79" d="m787.33112,180.1134c0,0 2.04066,-4.59432 6.69632,-4.75067c4.65533,-0.15583 8.49439,2.69348 6.306,6.32616c-4.52552,7.5131 -14.67184,3.50349 -13.00233,-1.5755z" fill="#E22C14"/>
    </g>
    <path stroke="null" id="svg_80" d="m542.99024,58.92308c0,0 -5.66119,-30.40208 32.98009,-49.15005c38.64082,-18.74792 65.6586,-0.12669 54.17976,15.2012c0,0 45.12951,-18.24149 59.77366,0.25337c14.64438,18.4945 -9.23338,26.0952 -9.23338,26.0952s28.06153,-5.70022 39.9982,7.60029c11.93724,13.30107 -9.10596,24.57539 -9.10596,24.57539s17.7204,5.60826 16.24366,21.67894c-1.47662,16.07068 -25.60378,29.15593 -47.13589,27.55343c-21.53132,-1.60229 -137.70012,-73.80776 -137.70012,-73.80776z" fill="#CD2606"/>
    <path stroke="null" id="svg_81" d="m647.97601,53.04198c-43.80946,-27.9297 -90.79411,-11.71707 -80.33815,-27.79364c5.79246,-8.90633 20.63824,-17.22196 32.89011,-22.96536c-7.35044,0.8453 -15.63833,3.16242 -24.55764,7.49005c-38.64128,18.74797 -32.98009,49.15005 -32.98009,49.15005s116.1688,72.20547 137.70012,73.80776c10.49862,0.78127 21.59611,-1.94633 30.40275,-6.79192c-14.51356,-13.2082 -26.11845,-49.30942 -63.11711,-72.89694z" fill="#BC1A04"/>
    <path stroke="null" id="svg_82" d="m463.2884,152.01896c0,0 -5.29867,-2.41962 -7.65248,-15.39181c-1.88907,-10.4119 -28.03838,-3.82304 -28.64337,26.06677c-0.60465,29.88961 41.48061,32.55829 41.48061,32.55829l-5.18475,-43.23325z" fill="#FECE00"/>
    <path stroke="null" id="svg_83" d="m432.09242,156.53567c0.16509,-8.15544 2.26395,-14.51808 5.2206,-19.33186c-5.45264,4.84011 -10.07075,13.15067 -10.32048,25.48974c-0.60465,29.88996 41.48061,32.55824 41.48061,32.55824l-0.83124,-6.93213c-11.56768,-2.00642 -36.01174,-8.9466 -35.54949,-31.78399z" fill="#FCC000"/>
    <path stroke="null" id="svg_84" d="m751.19411,187.39132c0,0 -31.25952,-6.35075 -54.8863,-65.47415c-23.62678,-59.1235 -75.51546,-92.05002 -143.80462,-72.59357c-68.2896,19.45685 -101.73025,91.48385 -100.45797,150.78896c1.27216,59.30572 72.03722,120.66898 169.59981,115.24329c97.56237,-5.42508 137.18227,-103.64399 129.54908,-127.96452z" fill="#FECE00"/>
    <path stroke="null" id="svg_85" d="m732.58416,197.57777c0,0 -38.32358,-20.48145 -55.07465,-62.39944c-16.75084,-41.91763 -58.44147,-78.64844 -106.85747,-64.85369c-48.41645,13.79424 -69.14581,63.77945 -68.24377,105.82627c0.90204,42.04672 52.99621,100.01971 122.16664,96.17346c69.17043,-3.84676 113.42127,-57.50349 108.00925,-74.74661z" fill="#FFDA3E"/>
    <path stroke="null" id="svg_86" d="m651.9215,295.09492c-97.56282,5.42559 -168.32788,-55.93767 -169.60015,-115.24298c-0.91418,-42.60833 16.09071,-91.78261 51.06335,-123.31057c-55.39802,26.2956 -82.48648,90.09687 -81.33947,143.57118c1.27216,59.30572 72.03722,120.66857 169.59981,115.24329c34.91057,-1.94111 62.36337,-15.78795 82.92525,-33.85481c-15.19922,7.44856 -32.69167,12.48441 -52.64878,13.59389z" fill="#FCC000"/>
    <g stroke="null" id="svg_87" display="inline">
     <path stroke="null" id="svg_88" d="m691.39379,234.07437c0,0 -6.11459,-6.48353 -30.72227,-4.49525c-20.51593,1.65777 -23.67353,-36.47862 3.12753,-38.62458c26.80071,-2.14581 31.56542,17.77921 27.59474,43.11983z" fill="#FECE00"/>
     <path stroke="null" id="svg_89" d="m688.39209,222.3637c0,0 -5.64837,-3.20832 -22.84626,-1.92307c-14.33848,1.07209 -16.54513,-23.58368 2.18566,-24.97112c18.73057,-1.38718 21.39528,12.43246 20.6606,26.89419z" fill="#FFDA3E"/>
     <path stroke="null" id="svg_90" d="m664.31112,223.75099c-13.8339,0.27458 -18.78446,-16.92279 -12.38644,-28.38388c-13.15777,10.489 -7.97257,35.56303 8.74685,34.21201c24.60802,-1.98829 30.72227,4.49525 30.72227,4.49525c0.31044,-1.98055 0.54554,-3.91264 0.74285,-5.8185c-3.60453,-1.98875 -11.61034,-4.82689 -27.82552,-4.50488z" fill="#FCC000"/>
    </g>
    <g stroke="null" id="svg_91" display="inline">
     <path stroke="null" id="svg_92" d="m530.65259,102.72726c0,8.76858 -6.90544,15.87648 -15.42331,15.87648c-8.51901,0 -15.42388,-7.10789 -15.42388,-15.87648s6.90487,-15.87693 15.42388,-15.87693c8.51788,0 15.42331,7.10835 15.42331,15.87693z" fill="#FFFFFF"/>
     <path stroke="null" id="svg_93" d="m525.79723,102.72726c0,6.00789 -4.73157,10.87843 -10.56795,10.87843c-5.83683,0 -10.5684,-4.87054 -10.5684,-10.87843c0,-6.00825 4.73157,-10.87879 10.5684,-10.87879c5.83637,0 10.56795,4.87054 10.56795,10.87879z"/>
    </g>
    <path stroke="null" id="svg_94" d="m647.97601,170.87737c0,4.60559 -4.2877,8.33935 -9.57706,8.33935c-5.28925,0 -9.57729,-3.73375 -9.57729,-8.33935c0,-4.60523 4.28804,-8.33935 9.57729,-8.33935c5.28936,0 9.57706,3.73411 9.57706,8.33935z" fill="#FF9999"/>
    <path stroke="null" id="svg_95" d="m488.50629,121.06039c-1.78638,4.22221 -7.16629,5.88233 -12.01541,3.70768c-4.84901,-2.17429 -7.33149,-7.36014 -5.54489,-11.58229c1.78706,-4.22262 7.16674,-5.8829 12.01587,-3.7083c4.84901,2.17475 7.33138,7.36014 5.54443,11.58291z" fill="#FF9999"/>
    <g stroke="null" id="svg_96" display="inline">
     <path stroke="null" id="svg_97" d="m539.20814,168.24296c0,0 15.00202,-13.39205 11.48848,-29.00558c0,0 12.06091,0.8806 14.701,12.46284c2.63963,11.58234 -7.95271,28.56451 -26.18948,16.54274z" fill="#660000"/>
     <path stroke="null" id="svg_98" d="m548.10793,161.31262c5.65392,-9.31021 6.82295,-17.14194 7.01822,-21.00817c-2.48725,-0.91231 -4.42953,-1.06707 -4.42953,-1.06707c3.51354,15.61352 -11.48848,29.00558 -11.48848,29.00558c10.79873,7.1185 18.91506,4.06622 23.19312,-2.01159c-8.6217,2.10355 -19.35428,3.41548 -14.29332,-4.91875z" fill="#540000"/>
     <path stroke="null" id="svg_99" d="m542.49225,141.14596c0,0 16.04339,-3.55605 20.08318,10.5226c4.03978,14.07901 -12.11912,25.72221 -26.19992,12.11875c0,0 -0.17326,12.6531 11.3108,15.80158c11.48406,3.14828 29.02768,-9.5645 25.8534,-29.22719c-3.17371,-19.66279 -22.39092,-21.2828 -31.04746,-9.21574z" fill="#FF8B00"/>
     <path stroke="null" id="svg_100" d="m547.6863,179.58889c11.08183,3.03773 27.74905,-8.71449 26.0548,-27.20806c-2.18634,10.43859 -9.00033,23.301 -21.20704,23.91332c-16.04283,0.80432 -16.15856,-12.50725 -16.15856,-12.50725s-0.17326,12.65351 11.3108,15.80199z" fill="#FF7300"/>
     <path stroke="null" id="svg_101" d="m540.10269,168.68367c0,0 8.27483,7.45245 19.3713,0.33001c11.09681,-7.12265 5.90162,-29.2173 -7.50441,-29.25044c-13.40592,-0.03299 6.84587,-8.78175 13.54128,-0.92419c6.69553,7.85714 6.63142,19.5111 1.08302,26.60926c-5.54818,7.09785 -11.45785,9.76787 -19.5634,8.64963c-8.10577,-1.1184 -9.42922,-7.6592 -6.92779,-5.41427z" fill="#FFA039"/>
     <path stroke="null" id="svg_102" d="m550.80464,161.54565c0,0 4.73067,-7.4275 5.6655,-12.18964c0.93483,-4.7624 4.05101,2.12942 4.21894,6.44394c0.16759,4.31472 -2.2534,7.52253 -6.8554,9.10192c-4.60302,1.57883 -4.09901,-1.58374 -3.02904,-3.35621z" fill="#770101"/>
    </g>
    <g stroke="null" id="svg_103" display="inline">
     <g stroke="null" id="svg_104">
      <path stroke="null" id="svg_105" d="m647.3734,127.49065c-0.21172,0 -0.42617,-0.02449 -0.64187,-0.07448c-21.75666,-5.14778 -24.92719,-24.63594 -25.05257,-25.46392c-0.24054,-1.59968 0.82511,-3.0993 2.38059,-3.34724c1.54016,-0.24471 3.00397,0.84243 3.2503,2.43919c0.10575,0.67456 2.79791,16.41933 20.69917,20.65419c1.53324,0.36248 2.49031,1.93665 2.13835,3.51629c-0.3034,1.35778 -1.4764,2.27598 -2.77397,2.27598z"/>
     </g>
     <g stroke="null" id="svg_106">
      <path stroke="null" id="svg_107" d="m517.27027,75.68789c-5.64292,0 -9.17166,-1.41905 -9.44011,-1.53216c-1.45972,-0.60735 -2.16365,-2.31742 -1.57227,-3.81843c0.58718,-1.49676 2.23865,-2.22132 3.69406,-1.6256c0.42141,0.16874 10.25399,3.97268 23.75295,-3.40738c1.38869,-0.76047 3.11255,-0.21649 3.85268,1.21583c0.73774,1.42935 0.20866,3.20565 -1.17969,3.96582c-7.4925,4.09475 -14.12369,5.20193 -19.10761,5.20193z"/>
     </g>
    </g>
    <g stroke="null" id="svg_108" display="inline">
     <g stroke="null" id="svg_109">
      <path stroke="null" id="svg_110" d="m630.99903,132.73085c-0.46917,0 -0.84894,-0.39081 -0.84894,-0.87337l0,-66.1314c0,-0.48312 0.37977,-0.87379 0.84894,-0.87379c0.46906,0 0.84837,0.39066 0.84837,0.87379l0,66.1314c0,0.48256 -0.37931,0.87337 -0.84837,0.87337z" fill="#8A0000"/>
     </g>
     <g stroke="null" id="svg_111">
      <path stroke="null" id="svg_112" d="m643.16047,130.68703c-0.46883,0 -0.84837,-0.3903 -0.84837,-0.87327l0,-49.20015c0,-0.48307 0.37954,-0.87368 0.84837,-0.87368c0.46895,0 0.84849,0.39061 0.84849,0.87368l0,49.20015c0,0.48297 -0.37954,0.87327 -0.84849,0.87327z" fill="#8A0000"/>
     </g>
     <g stroke="null" id="svg_113">
      <path stroke="null" id="svg_114" d="m653.84222,122.72052c-0.46895,0 -0.8486,-0.39061 -0.8486,-0.87322l0,-31.08525c0,-0.48282 0.37965,-0.87358 0.8486,-0.87358c0.46883,0 0.84837,0.39076 0.84837,0.87358l0,31.08525c0,0.48261 -0.37954,0.87322 -0.84837,0.87322z" fill="#8A0000"/>
     </g>
     <g stroke="null" id="svg_115">
      <path stroke="null" id="svg_116" d="m661.56642,141.37141c-0.46895,0 -0.8486,-0.39066 -0.8486,-0.87337l0,-74.77196c0,-0.48312 0.37965,-0.87379 0.8486,-0.87379s0.84814,0.39066 0.84814,0.87379l0,74.77196c0,0.48271 -0.3792,0.87337 -0.84814,0.87337z" fill="#8A0000"/>
     </g>
     <g stroke="null" id="svg_117">
      <path stroke="null" id="svg_118" d="m673.89193,135.1123c-0.46781,0 -0.84769,-0.39076 -0.84849,-0.87179c-0.05469,-43.21926 -0.04879,-65.30418 0.01657,-65.64023c0.09088,-0.47416 0.53521,-0.78818 0.99769,-0.68542c0.43173,0.08837 0.72095,0.49947 0.67874,0.93971c-0.06059,1.39195 -0.02394,43.33037 0.00409,65.38251c0.00079,0.48277 -0.37897,0.87522 -0.84758,0.87522l-0.00102,0z" fill="#8A0000"/>
     </g>
     <g stroke="null" id="svg_119">
      <path stroke="null" id="svg_120" d="m685.06668,125.46902c-0.46929,0 -0.84837,-0.39076 -0.84837,-0.87379l0,-43.98163c0,-0.48307 0.37908,-0.87368 0.84837,-0.87368c0.46895,0 0.84849,0.39061 0.84849,0.87368l0,43.98163c0,0.48302 -0.37954,0.87379 -0.84849,0.87379z" fill="#8A0000"/>
     </g>
    </g>
    <g stroke="null" id="svg_121" display="inline">
     <path stroke="null" id="svg_122" d="m673.18153,81.73318c0,0 25.13154,40.70472 2.92102,46.28132c-21.96385,5.51457 -20.03257,-27.85593 -2.92102,-46.28132z" fill="#6EB8E5"/>
     <path stroke="null" id="svg_123" d="m672.89151,89.36559c0,0 14.49654,22.55534 3.96149,26.88973c-10.41772,4.28634 -11.30342,-15.29761 -3.96149,-26.88973z" fill="#7ECBF2"/>
     <path stroke="null" id="svg_124" d="m680.0679,121.8913c-18.46245,4.63546 -20.0387,-18.20599 -9.90895,-36.54946c-14.23716,18.82737 -14.65107,47.84273 5.9436,42.67267c5.00457,-1.2565 7.5995,-4.29946 8.62657,-8.25498c-1.24641,0.92998 -2.78021,1.65982 -4.66123,2.13177z" fill="#56ABD6"/>
    </g>
    <g stroke="null" id="svg_125" display="inline">
     <path stroke="null" id="svg_126" d="m632.33768,137.7941c0,8.76858 -6.90487,15.87663 -15.42331,15.87663c-8.51833,0 -15.42377,-7.10805 -15.42377,-15.87663c0,-8.76873 6.90544,-15.87694 15.42377,-15.87694c8.51844,0 15.42331,7.1082 15.42331,15.87694z" fill="#FFFFFF"/>
     <path stroke="null" id="svg_127" d="m627.48232,137.7941c0,6.00784 -4.73157,10.87843 -10.56795,10.87843c-5.83672,0 -10.5684,-4.87059 -10.5684,-10.87843c0,-6.00835 4.73169,-10.87889 10.5684,-10.87889c5.83637,0 10.56795,4.87054 10.56795,10.87889z"/>
    </g>
    <path stroke="null" id="svg_128" d="m453.18486,149.61158c0,0 -0.72946,-8.61357 -1.71626,-11.74965c-0.98691,-3.13629 -13.51689,-0.66237 -15.19048,12.2798c-1.67337,12.94212 5.96482,24.51509 10.64181,24.64767c4.67734,0.13222 6.58422,-21.95557 6.26493,-25.17782z" fill="#FFDA3E"/>
    <path stroke="null" id="svg_129" d="m626.3428,28.11292c0,0 0.89501,-13.46336 -5.62681,-18.92255c-6.52147,-5.45914 -33.61152,4.6477 -39.70308,12.83629c-6.09167,8.18894 21.79944,3.32009 54.2939,18.29563c32.4939,14.97569 59.79828,47.45474 67.25186,62.78979c7.45347,15.33454 19.56498,6.31003 20.0665,-1.60808c0.50185,-7.91867 -18.6331,-18.68906 -18.6331,-18.68906s14.90671,-11.80134 12.61314,-17.96266c-2.29368,-6.1609 -31.25555,-11.91496 -42.21597,-10.51318c0,0 18.36623,-17.73311 10.67744,-26.11559c-11.19336,-12.2023 -58.72389,-0.1106 -58.72389,-0.1106z" fill="#E22C14"/>
    <g stroke="null" id="svg_130" display="inline">
     <path stroke="null" id="svg_131" d="m783.50329,107.39781l-44.46234,0c-0.78767,0 -1.42477,-0.65597 -1.42477,-1.46659s0.6371,-1.46648 1.42477,-1.46648l44.46234,0c0.78722,0 1.42443,0.65586 1.42443,1.46648s-0.63722,1.46659 -1.42443,1.46659z"/>
    </g>
    <g stroke="null" id="svg_132" display="inline">
     <path stroke="null" id="svg_133" d="m866.73376,121.15439l-131.90834,0c-0.78767,0 -1.42488,-0.65592 -1.42488,-1.46664c0,-0.81062 0.63721,-1.46648 1.42488,-1.46648l131.90834,0c0.78767,0 1.42488,0.65586 1.42488,1.46648c0,0.81072 -0.63721,1.46664 -1.42488,1.46664z"/>
    </g>
    <g stroke="null" id="svg_134" display="inline">
     <path stroke="null" id="svg_135" d="m841.88973,235.53968l-77.86565,0c-0.78767,0 -1.42477,-0.65561 -1.42477,-1.46623c0,-0.81113 0.6371,-1.46695 1.42477,-1.46695l77.86565,0c0.78812,0 1.42522,0.65581 1.42522,1.46695c0,0.81062 -0.6371,1.46623 -1.42522,1.46623z"/>
    </g>
    <g stroke="null" id="svg_136" display="inline">
     <path stroke="null" id="svg_137" d="m870.06495,250.87335l-116.54267,0c-0.78722,0 -1.42443,-0.65581 -1.42443,-1.46654c0,-0.81062 0.63721,-1.46654 1.42443,-1.46654l116.54267,0c0.78733,0 1.42477,0.65591 1.42477,1.46654c0,0.81072 -0.63744,1.46654 -1.42477,1.46654z"/>
    </g>
    <g stroke="null" id="svg_138" display="inline">
     <path stroke="null" id="svg_139" d="m810.63997,275.39607l-84.01246,0c-0.78744,0 -1.42466,-0.65581 -1.42466,-1.46654c0,-0.81062 0.63722,-1.46664 1.42466,-1.46664l84.01246,0c0.78744,0 1.42488,0.65602 1.42488,1.46664c0,0.81072 -0.63744,1.46654 -1.42488,1.46654z"/>
    </g>
    <g stroke="null" id="svg_140" display="inline">
     <g stroke="null" id="svg_141">
      <path stroke="null" id="svg_142" d="m447.72768,266.47606c-0.27277,0 -0.54667,-0.07991 -0.79017,-0.2461c-31.46137,-21.64959 -30.763,-53.8435 -29.79867,-63.19356l0.03608,-0.36643c0.04743,-0.79039 0.69701,-1.3462 1.46675,-1.39492c0.76917,0.0228 1.38131,0.65028 1.38131,1.44353c0,0.08058 -0.0152,0.29251 -0.05004,0.62774c-0.9211,8.93686 -1.58487,39.70727 28.54784,60.44286c0.65389,0.45254 0.83056,1.3606 0.39236,2.03659c-0.27413,0.42119 -0.72492,0.65028 -1.18547,0.65028z" fill="#8A0000"/>
     </g>
     <g stroke="null" id="svg_143">
      <path stroke="null" id="svg_144" d="m432.97517,269.48946c-0.30488,0 -0.61225,-0.09989 -0.87243,-0.30941c-26.05854,-20.83302 -24.98869,-42.53738 -24.93026,-43.45117c0.05287,-0.80499 0.7264,-1.45501 1.51248,-1.36352c0.78324,0.04887 1.37882,0.74807 1.3315,1.55265c-0.01259,0.20926 -0.95026,21.13132 23.83396,40.94769c0.62167,0.49568 0.73457,1.41777 0.25189,2.05678c-0.28116,0.37211 -0.70132,0.56698 -1.12715,0.56698z" fill="#8A0000"/>
     </g>
     <g stroke="null" id="svg_145">
      <path stroke="null" id="svg_146" d="m737.04841,310.27952c-0.57583,0 -1.11842,-0.36064 -1.33298,-0.95109c-0.2781,-0.75601 0.09497,-1.60393 0.8326,-1.88732c0.16373,-0.06311 16.54842,-6.45659 26.63018,-14.45727c0.62598,-0.4925 1.51645,-0.37232 2.00117,0.26638c0.47837,0.64167 0.36399,1.56418 -0.25927,2.06006c-10.42669,8.26932 -26.68339,14.6086 -27.37065,14.87467c-0.16441,0.06608 -0.3337,0.09457 -0.50106,0.09457z" fill="#8A0000"/>
     </g>
     <g stroke="null" id="svg_147">
      <path stroke="null" id="svg_148" d="m737.92231,322.76311c-0.59274,0 -1.14338,-0.38103 -1.34682,-0.98828c-0.25597,-0.7678 0.13933,-1.60137 0.88218,-1.86488c0.30635,-0.10891 30.67688,-10.95957 41.18719,-22.27436c0.54531,-0.58133 1.44939,-0.60418 2.01456,-0.0457c0.56755,0.55858 0.58718,1.48713 0.04436,2.07389c-10.98618,11.82767 -41.04502,22.56912 -42.3165,23.0192c-0.1559,0.0542 -0.31157,0.08012 -0.46498,0.08012z" fill="#8A0000"/>
     </g>
    </g>
    <g stroke="null" id="svg_149" display="inline">
     <path stroke="null" id="svg_150" d="m571.64757,343.15988c0,9.49314 -7.47571,17.1883 -16.69752,17.1883s-16.69797,-7.69516 -16.69797,-17.1883c0,-9.49294 7.47616,-17.1881 16.69797,-17.1881s16.69752,7.69516 16.69752,17.1881z" fill="#FECE00"/>
     <path stroke="null" id="svg_151" d="m559.56669,354.48655c-9.22192,0 -16.69752,-7.69537 -16.69752,-17.188c0,-2.74251 0.63971,-5.32498 1.74917,-7.62498c-3.87242,3.14761 -6.36625,8.01257 -6.36625,13.48631c0,9.49263 7.47616,17.1883 16.69797,17.1883c6.55767,0 12.21658,-3.90096 14.94767,-9.56312c-2.84342,2.31158 -6.42662,3.70148 -10.33103,3.70148z" fill="#FCC000"/>
     <path stroke="null" id="svg_152" d="m565.72973,348.35689c-3.91418,3.72443 -10.60687,2.82437 -14.94846,-2.01067c-4.34171,-4.83514 -4.68857,-11.77358 -0.77405,-15.49842c3.91395,-3.72433 10.60675,-2.82396 14.94835,2.01108c4.34148,4.83494 4.68891,11.77388 0.77417,15.49801z" fill="#FFDA3E"/>
    </g>
    <g stroke="null" id="svg_153" display="inline">
     <path stroke="null" id="svg_154" d="m523.40653,322.41435c0,9.49273 -7.47559,17.188 -16.6974,17.188s-16.69786,-7.69527 -16.69786,-17.188c0,-9.49335 7.47605,-17.18851 16.69786,-17.18851s16.6974,7.69516 16.6974,17.18851z" fill="#FECE00"/>
     <path stroke="null" id="svg_155" d="m511.32588,333.74102c-9.2217,0 -16.69797,-7.69568 -16.69797,-17.1883c0,-2.7422 0.64005,-5.32487 1.74962,-7.62478c-3.87231,3.14741 -6.36625,8.01277 -6.36625,13.4859c0,9.49324 7.47605,17.18851 16.69786,17.18851c6.55778,0 12.2167,-3.90096 14.94812,-9.56322c-2.84387,2.31168 -6.42684,3.70189 -10.33138,3.70189z" fill="#FCC000"/>
     <path stroke="null" id="svg_156" d="m517.48915,327.61136c-3.9144,3.72443 -10.60698,2.82416 -14.94869,-2.01078c-4.3416,-4.83504 -4.68846,-11.77398 -0.77451,-15.49831c3.91474,-3.72464 10.60721,-2.82427 14.94903,2.01067c4.3416,4.83504 4.68823,11.77399 0.77417,15.49842z" fill="#FFDA3E"/>
    </g>
    <g stroke="null" id="svg_157" display="inline">
     <ellipse stroke="null" id="svg_158" ry="17.18882" rx="16.69763" cy="291.73912" cx="463.0145" fill="#FECE00"/>
     <path stroke="null" id="svg_159" d="m467.63147,303.0661c-9.22204,0 -16.69797,-7.69547 -16.69797,-17.18861c0,-2.74199 0.63994,-5.32477 1.7495,-7.62498c-3.87253,3.14771 -6.36614,8.01318 -6.36614,13.48662c0,9.49293 7.47571,17.18882 16.6974,17.18882c6.55801,0 12.2167,-3.90178 14.94801,-9.56342c-2.84376,2.31107 -6.42662,3.70158 -10.33081,3.70158z" fill="#FCC000"/>
     <path stroke="null" id="svg_160" d="m473.79417,296.93654c-3.91406,3.72423 -10.60687,2.82386 -14.94846,-2.01118c-4.34182,-4.83494 -4.68857,-11.77378 -0.77428,-15.49821c3.91418,-3.72433 10.60709,-2.82416 14.94869,2.01118c4.34182,4.83504 4.68857,11.77378 0.77405,15.49821z" fill="#FFDA3E"/>
    </g>
    <g stroke="null" id="svg_161" display="inline">
     <path stroke="null" id="svg_162" d="m625.44393,345.01082c0,9.49253 -7.47627,17.18851 -16.69808,17.18851c-9.2217,0 -16.69774,-7.69598 -16.69774,-17.18851c0,-9.49304 7.47605,-17.1881 16.69774,-17.1881c9.22181,0 16.69808,7.69506 16.69808,17.1881z" fill="#FECE00"/>
     <path stroke="null" id="svg_163" d="m613.3626,356.33739c-9.22181,0 -16.69751,-7.69516 -16.69751,-17.188c0,-2.7424 0.63971,-5.32477 1.74928,-7.62498c-3.87253,3.14761 -6.36625,8.01267 -6.36625,13.48641c0,9.49253 7.47605,17.18851 16.69774,17.18851c6.55778,0 12.2167,-3.90157 14.94812,-9.56332c-2.84387,2.31158 -6.42684,3.70138 -10.33138,3.70138z" fill="#FCC000"/>
     <path stroke="null" id="svg_164" d="m619.52598,350.20784c-3.91418,3.72443 -10.60709,2.82426 -14.94892,-2.01057c-4.3416,-4.83535 -4.68834,-11.77419 -0.77383,-15.49852c3.91395,-3.72453 10.60675,-2.82385 14.94846,2.01098c4.3416,4.83504 4.68823,11.77388 0.77428,15.49811z" fill="#FFDA3E"/>
    </g>
    <g stroke="null" id="svg_165" display="inline">
     <path stroke="null" id="svg_166" d="m675.7499,339.60235c0,9.49293 -7.47627,17.18851 -16.69808,17.18851c-9.2217,0 -16.69774,-7.69557 -16.69774,-17.18851c0,-9.49273 7.47605,-17.188 16.69774,-17.188c9.22181,0 16.69808,7.69527 16.69808,17.188z" fill="#FECE00"/>
     <path stroke="null" id="svg_167" d="m663.66857,350.92901c-9.22158,0 -16.6974,-7.69516 -16.6974,-17.1883c0,-2.7422 0.6396,-5.32477 1.74917,-7.62498c-3.87242,3.14802 -6.36625,8.01328 -6.36625,13.48662c0,9.49293 7.47605,17.18851 16.69774,17.18851c6.55778,0 12.2167,-3.90106 14.94812,-9.56312c-2.84387,2.31097 -6.42684,3.70128 -10.33138,3.70128z" fill="#FCC000"/>
     <path stroke="null" id="svg_168" d="m669.83172,344.79977c-3.91429,3.72412 -10.60687,2.82406 -14.94869,-2.01118c-4.34171,-4.83494 -4.68812,-11.77388 -0.77439,-15.49821c3.91463,-3.72443 10.60709,-2.82406 14.94903,2.01108c4.3416,4.83504 4.68812,11.77388 0.77405,15.49831z" fill="#FFDA3E"/>
    </g>
    <g stroke="null" id="svg_169" display="inline">
     <ellipse stroke="null" id="svg_170" ry="17.18841" rx="16.69774" cy="321.19606" cx="709.31956" fill="#FECE00"/>
     <path stroke="null" id="svg_171" d="m713.93676,332.52283c-9.22215,0 -16.69786,-7.69537 -16.69786,-17.1881c0,-2.7424 0.6396,-5.32518 1.74916,-7.62539c-3.87253,3.14802 -6.36625,8.01328 -6.36625,13.48672c0,9.49304 7.47605,17.18841 16.69786,17.18841c6.55778,0 12.2167,-3.90137 14.94767,-9.56312c-2.84353,2.31097 -6.42639,3.70148 -10.33058,3.70148z" fill="#FCC000"/>
     <path stroke="null" id="svg_172" d="m720.09957,326.39318c-3.91429,3.72443 -10.60721,2.82457 -14.94869,-2.01098c-4.34182,-4.83483 -4.68834,-11.77378 -0.77383,-15.49811c3.91395,-3.72443 10.60641,-2.82427 14.94801,2.01118c4.34239,4.83483 4.6888,11.77368 0.77451,15.4979z" fill="#FFDA3E"/>
    </g>
    <g stroke="null" id="svg_173" display="inline">
     <path stroke="null" id="svg_174" d="m748.1788,61.11346c0,0 9.39405,-0.89786 18.3179,10.36078c8.92453,11.25843 22.4109,-1.50613 8.52196,-13.12357c-15.56265,-13.0163 -26.83986,2.76279 -26.83986,2.76279z" fill="#6EB8E5"/>
     <path stroke="null" id="svg_175" d="m780.89395,67.81179c-1.93797,3.48914 -6.70574,4.68617 -14.32974,-1.86329c-5.12654,-4.40314 -11.35471,-6.41807 -16.11556,-7.34907c-1.46505,1.39405 -2.26985,2.51403 -2.26985,2.51403s9.39405,-0.89786 18.31767,10.36078c6.42491,8.10493 15.16087,3.74205 14.39748,-3.66245z" fill="#56ABD6"/>
     <path stroke="null" id="svg_176" d="m754.4637,57.96175c0,0 7.01187,1.02747 13.87532,6.79945c6.86357,5.77188 9.97453,2.60937 7.44643,-1.67585c-2.52764,-4.28547 -12.04866,-11.47482 -21.32175,-5.1236z" fill="#7ECBF2"/>
    </g>
    <g stroke="null" id="svg_177" display="inline">
     <path stroke="null" id="svg_178" d="m515.31154,33.44615c0,0 -5.36153,-6.28277 -20.21219,-6.22525c-14.8502,0.05768 -13.23754,-14.30149 -1.70798,-16.64611c11.52944,-2.34411 24.67201,9.50339 21.92016,22.87136z" fill="#6EB8E5"/>
     <path stroke="null" id="svg_179" d="m497.59614,24.31232c-9.90736,0.03811 -12.45645,-6.332 -9.65252,-11.27846c-6.0953,4.82433 -4.87306,14.23361 7.15574,14.18705c14.85066,-0.05753 20.21219,6.22525 20.21219,6.22525c0.32768,-1.59194 0.41573,-3.15991 0.32247,-4.68709c-2.77148,-1.85335 -8.39454,-4.48403 -18.03787,-4.44674z" fill="#56ABD6"/>
     <path stroke="null" id="svg_180" d="m512.2766,24.1445c0,0 -6.97975,-2.90228 -15.78458,-3.14884c-8.80437,-0.24707 -8.2282,-8.45343 0.83237,-8.61833c9.0608,-0.1648 14.95221,11.76717 14.95221,11.76717z" fill="#7ECBF2"/>
    </g>
    <g stroke="null" id="svg_181" display="inline">
     <path stroke="null" id="svg_182" d="m488.8376,65.70988c0,0 -6.98236,-4.2739 -21.09142,0.4967c-14.10917,4.77014 -16.87781,-9.40083 -6.61338,-15.29171c10.26477,-5.89109 26.3169,1.20507 27.7048,14.79501z" fill="#6EB8E5"/>
     <path stroke="null" id="svg_183" d="m469.24936,62.6467c-9.41288,3.18234 -13.74642,-2.06748 -12.56163,-7.66299c-4.35249,6.52441 -0.37035,15.0866 11.05845,11.22288c14.10906,-4.7706 21.09142,-0.4967 21.09142,-0.4967c-0.16509,-1.61827 -0.5511,-3.13732 -1.09765,-4.56072c-3.19118,-0.88316 -9.32846,-1.60014 -18.49059,1.49753z" fill="#56ABD6"/>
     <path stroke="null" id="svg_184" d="m483.16348,57.82574c0,0 -7.50918,-0.54419 -15.95818,2.01697c-8.44923,2.5608 -10.36031,-5.42815 -1.79103,-8.46219c8.56973,-3.03404 17.74922,6.44522 17.74922,6.44522z" fill="#7ECBF2"/>
    </g>
   </g>
   <g stroke="null" id="svg_185">
    <g stroke="null" id="svg_186">
     <g stroke="null" id="svg_187">
      <path stroke="null" id="svg_188" d="m334.35475,198.04804c0,0 9.65422,-16.62485 21.61937,-19.2189c11.96515,-2.59436 13.29098,10.06975 -2.76127,18.1732c-16.05213,8.10283 -18.8581,1.0457 -18.8581,1.0457z" fill="#CD2606"/>
      <path stroke="null" id="svg_189" d="m334.35475,198.04804c0,0 2.80597,7.05713 18.8581,-1.04616c1.82814,-0.92245 3.40223,-1.90904 4.78978,-2.92093c-4.09345,-0.33175 -9.20422,-1.11645 -10.30902,-3.24377c-1.11683,-2.15042 -0.21774,-5.79975 0.75658,-8.52832c-8.23524,5.68787 -14.09544,15.73919 -14.09544,15.73919z" fill="#BC1A04"/>
      <path stroke="null" id="svg_190" d="m320.16899,209.63248c0,0 29.88297,-16.24485 25.75423,-32.18946c-2.49837,-9.64877 -28.35313,7.2752 -25.75423,32.18946z" fill="#CD2606"/>
      <path stroke="null" id="svg_191" d="m320.16899,209.63248c0,0 0.2545,-0.13888 0.70427,-0.39701c0.03279,-21.74082 21.15031,-36.23267 25.3697,-29.85124c-0.0598,-0.64715 -0.15238,-1.29426 -0.31974,-1.94121c-2.49837,-9.64877 -28.35313,7.2752 -25.75423,32.18946z" fill="#BC1A04"/>
      <path stroke="null" id="svg_192" d="m320.16899,209.63248c0,0 10.54855,-14.35948 27.03683,-15.16549c16.4884,-0.80632 21.20727,20.05514 -27.03683,15.16549z" fill="#CD2606"/>
      <path stroke="null" id="svg_193" d="m347.35934,197.03917c5.77034,-0.28221 10.0872,2.09161 11.20857,5.08493c0.99644,-4.05818 -4.00052,-8.01718 -11.36208,-7.6571c-16.48806,0.80601 -27.03683,15.16549 -27.03683,15.16549c0.75125,0.07602 1.45166,0.12761 2.17738,0.19154c3.8031,-4.11458 12.76314,-12.18565 25.01297,-12.78485z" fill="#BC1A04"/>
      <path stroke="null" id="svg_194" d="m328.26047,206.79008c0,0 10.70921,-8.50174 20.0977,-7.61515c19.76763,1.86647 -5.47715,12.43359 -20.0977,7.61515z" fill="#E22C14"/>
      <path stroke="null" id="svg_195" d="m324.15987,202.48648c0,0 18.01313,-11.32867 19.08163,-20.11958c1.06804,-8.79102 -16.50542,4.40734 -19.08163,20.11958z" fill="#E22C14"/>
      <path stroke="null" id="svg_196" d="m350.49016,188.12602c0,0 0.09134,-5.05071 4.30052,-7.10497c4.20896,-2.05432 8.83331,-1.01661 8.23354,3.21288c-1.23982,8.74794 -12.09756,9.23516 -12.53406,3.8921z" fill="#E22C14"/>
     </g>
     <path stroke="null" id="svg_197" d="m163.36642,79.36857c0,0 -1.0622,-30.26362 34.07054,-39.97125c35.13262,-9.70773 55.73478,27.18132 57.91103,47.79105c0,0 51.79542,-2.38945 41.78447,51.07738c0,0 30.86035,25.33416 1.28453,42.46207c-29.57605,17.12791 -139.40549,-74.72166 -139.40549,-74.72166l4.35493,-26.63759z" fill="#CD2606"/>
     <path stroke="null" id="svg_198" d="m310.33981,167.94676c-21.30019,-13.0913 -59.04272,-84.15251 -88.33818,-90.37693c-31.76483,-6.74905 -46.95838,14.77806 -47.70367,-5.12027c-0.36921,-9.8567 6.14619,-20.70926 12.91218,-29.19814c-24.66328,12.10461 -23.84372,36.11716 -23.84372,36.11716l-4.35493,26.63759c0,0 109.82944,91.84956 139.40549,74.7212c6.83758,-3.95936 10.41738,-8.35789 11.92283,-12.7806z" fill="#BC1A04"/>
     <path stroke="null" id="svg_199" d="m163.36642,79.36857c0,0 2.90576,15.72494 16.90056,12.72138c13.99491,-3.00402 17.59933,-13.95822 45.57689,-4.59386c27.97779,9.36395 65.56714,70.86086 75.86562,90.99776c10.29847,20.13685 14.24635,27.50933 24.37326,25.05994c0,0 4.72567,39.16067 -78.26856,57.44668c-82.99435,18.28611 -184.00007,-24.18637 -184.00007,-24.18637s-20.25371,-110.80091 99.5523,-157.44554z" fill="#FECE00"/>
     <path stroke="null" id="svg_200" d="m157.00505,100.14366c0,0 11.1861,10.22123 35.52328,2.04412c24.33741,-8.1769 51.99801,5.69489 63.48785,26.57499c11.48973,20.88056 38.86673,69.56414 47.37769,74.79102c8.51107,5.22698 -18.72399,19.09842 -26.66773,18.66068c-7.94341,-0.43815 -58.35252,-26.26092 -64.56758,-26.41808c-6.21535,-0.15732 -22.00044,15.14766 -27.37087,18.0084c-5.37038,2.86074 -30.90001,-12.51033 -34.66061,-11.76077c-3.76077,0.75007 -7.02327,7.0287 -10.14405,7.61264c-3.12049,0.5844 -25.22589,-21.90475 -29.57945,-19.68482c-4.35357,2.22014 -14.053,7.84321 -16.24235,-4.45785c-3.61821,-20.33095 47.09862,-95.29957 62.84383,-85.37033z" fill="#FFDA3E"/>
     <path stroke="null" id="svg_201" d="m163.36642,79.36857c-119.80579,46.64494 -99.5523,157.44554 -99.5523,157.44554s65.45873,27.50221 134.28128,28.69683c10.76248,-19.39405 22.25885,-46.82966 10.23005,-40.84805c-17.28929,8.59697 -59.71244,-10.85809 -59.71244,-10.85809l-21.00615,22.86414l-33.44552,-27.91997c0,0 -22.99586,10.87597 -10.6691,-40.08138c12.80178,-52.92028 79.87419,-89.29901 79.87419,-89.29901z" fill="#FCC000"/>
     <g stroke="null" id="svg_202">
      <path stroke="null" id="svg_203" d="m44.72132,213.80479l31.0162,16.48511l33.79011,-25.43841l30.0075,18.17033l9.07788,-9.21703l32.52913,23.00932l31.01608,-33.26031l65.05843,33.26031l55.47631,-26.51168c0,0 30.60381,151.8969 -136.01671,151.8969c-166.62024,0 -151.95492,-148.39454 -151.95492,-148.39454z" fill="#FFC19A"/>
      <path stroke="null" id="svg_204" d="m214.26632,340.47096c-116.89566,0 -144.55989,-73.03582 -150.66228,-116.63011l-18.8825,-10.03605c0,0 -14.66554,148.39454 151.9547,148.39454c67.604,0 102.7381,-25.00631 120.62449,-54.72625c-20.62905,19.2333 -52.89205,32.99787 -103.03441,32.99787z" fill="#FFB48A"/>
      <path stroke="null" id="svg_205" d="m168.64671,275.39013l-18.51964,18.85667l11.67547,-5.59495c0,0 12.07827,13.15815 11.87676,12.64024c-0.20134,-0.51822 -8.04479,-14.91965 -8.04479,-14.91965l9.6553,-9.53187l-9.6553,-14.91955l46.52404,-58.36723l-31.01642,33.26031l-21.15133,25.52125l8.65591,13.05477z" fill="#FCA57A"/>
      <path stroke="null" id="svg_206" d="m84.71883,242.66202c0,0 12.29794,-13.78281 16.98152,-13.58195c4.68364,0.20076 23.36042,14.81243 27.54413,15.42777c4.18365,0.61483 15.38984,-17.02832 19.12514,-16.74263c3.73536,0.28518 12.84983,8.12967 15.24046,10.8979c2.39047,2.76843 -17.03348,18.91825 -15.53939,22.76327c1.49415,3.84502 13.29807,3.84502 9.86152,10.45857c-3.43655,6.61375 -19.12508,27.31431 -19.42389,29.42211c-0.29892,2.10821 18.37798,-9.1199 20.9181,-6.35127c2.53978,2.76843 19.68134,15.84184 21.42024,15.68796c1.73912,-0.15378 -8.7199,-22.76327 -6.47887,-24.30101c2.2412,-1.53815 13.59682,-8.76694 14.04512,-11.68946c0.4483,-2.92221 -12.84972,-14.91904 -10.75789,-17.84104c2.09177,-2.92272 32.42298,-41.05481 37.95142,-39.67643c5.52832,1.37894 50.35272,36.7576 57.0765,35.29434c6.72367,-1.46264 44.67497,-25.30246 49.90465,-22.07247c5.22945,3.22983 7.62003,104.27962 -99.8093,100.58848c-107.42933,-3.69154 -147.02433,-73.21142 -138.05947,-88.28414z" fill="#FFCBAE"/>
     </g>
     <g stroke="null" id="svg_207">
      <ellipse stroke="null" id="svg_208" ry="22.6184" rx="25.52487" cy="224.66289" cx="265.12515" fill="#FECE00"/>
      <path stroke="null" id="svg_209" d="m272.1828,239.56809c-14.09703,0 -25.52504,-10.12703 -25.52504,-22.61866c0,-3.60871 0.97818,-7.00703 2.67435,-10.034c-5.91977,4.14214 -9.73183,10.54463 -9.73183,17.74745c0,12.49158 11.42789,22.6184 25.52492,22.6184c10.02457,0 18.67463,-5.1337 22.85,-12.5842c-4.34693,3.04147 -9.82385,4.871 -15.79241,4.871z" fill="#FCC000"/>
      <path stroke="null" id="svg_210" d="m281.60374,231.50173c-5.98331,4.90102 -16.21404,3.71623 -22.85102,-2.64625c-6.63698,-6.36264 -7.16674,-15.49365 -1.18343,-20.39462c5.98342,-4.90097 16.21427,-3.71639 22.85102,2.6464c6.63721,6.36254 7.16697,15.49345 1.18343,20.39447z" fill="#FFDA3E"/>
     </g>
     <path stroke="null" id="svg_211" d="m134.55688,226.0177c-0.14773,0.45669 0.81343,-19.48447 -13.16095,-27.5522c-13.97443,-8.06774 -35.34282,3.34888 -30.01919,18.26654c5.32357,14.91796 27.73679,21.1386 36.23028,19.93691c6.52953,-0.92383 6.94986,-10.65124 6.94986,-10.65124z" fill="#FECE00"/>
     <path stroke="null" id="svg_212" d="m130.82515,220.41599c-0.09786,0.3108 0.53833,-13.26275 -8.70889,-18.75458c-9.24688,-5.49172 -23.3868,2.27977 -19.86408,12.43415c3.52278,10.15418 18.3537,14.38868 23.97426,13.57089c4.32066,-0.62892 4.59871,-7.25046 4.59871,-7.25046z" fill="#FFDA3E"/>
     <path stroke="null" id="svg_213" d="m97.80796,212.91697c-2.18379,-6.11977 0.16123,-11.62117 4.60807,-15.45912c-8.21986,3.17814 -14.12681,10.62214 -11.03945,19.27418c5.32386,14.91765 27.73696,21.1386 36.23028,19.93691c2.41588,-0.34189 3.9919,-1.89039 5.02306,-3.70394c-9.32245,0.42836 -29.76627,-5.88172 -34.82196,-20.04802z" fill="#FCC000"/>
     <g stroke="null" id="svg_214">
      <path stroke="null" id="svg_215" d="m183.04107,174.48854c0,0 0.96967,-3.71383 4.20998,-4.23834c3.24048,-0.52446 11.71042,0.28354 12.76921,2.42213c1.05879,2.13874 -0.42663,10.40473 -7.30103,11.28743c-6.8744,0.8828 -10.07024,-7.55378 -9.67816,-9.47121z" fill="#660000"/>
      <path stroke="null" id="svg_216" d="m194.34171,180.93601c-3.81558,0 -6.90873,-2.44892 -6.90873,-5.4699c0,-2.50353 2.13789,-4.5913 5.03815,-5.2405c-2.03163,-0.1814 -3.99791,-0.17325 -5.22009,0.02459c-3.24031,0.52452 -4.20986,4.23834 -4.20986,4.23834c-0.39219,1.91744 2.80365,10.35402 9.67805,9.47121c3.10404,-0.3988 5.10079,-2.30477 6.26924,-4.4701c-1.22876,0.88987 -2.84999,1.44635 -4.64676,1.44635z" fill="#540000"/>
      <path stroke="null" id="svg_217" d="m183.76843,171.36895c0,0 2.01297,12.43103 8.46642,11.7391c6.45356,-0.69193 7.95833,-11.7391 7.95833,-11.7391l2.71832,-0.13002c0,0 0.93506,17.85369 -10.44541,17.91947c-11.38058,0.06593 -12.17897,-18.19799 -12.17897,-18.19799l3.48131,0.40854z" fill="#FF8B00"/>
      <path stroke="null" id="svg_218" d="m193.77002,187.66129c-9.26084,0.05322 -11.51401,-12.02741 -12.0322,-16.5308l-1.4507,-0.17008c0,0 0.79839,18.26392 12.17897,18.19799c3.35922,-0.01962 5.62567,-1.60654 7.17957,-3.80921c-1.45739,1.37761 -3.34975,2.29724 -5.87563,2.31209z" fill="#FF7300"/>
      <path stroke="null" id="svg_219" d="m203.05827,170.7155c0,2.26158 -5.10169,4.09557 -11.39556,4.09557c-6.29358,0 -11.3955,-1.83399 -11.3955,-4.09557c0,-2.26184 5.10192,-8.1914 11.3955,-8.1914c6.29386,0 11.39556,5.92956 11.39556,8.1914z" fill="#FF8B00"/>
      <path stroke="null" id="svg_220" d="m199.68214,168.64806c0,1.19068 -3.33415,2.15595 -7.44728,2.15595c-4.11297,0 -7.44717,-0.96528 -7.44717,-2.15595c0,-1.19032 3.3342,-4.31165 7.44717,-4.31165c4.11314,0 7.44728,3.12133 7.44728,4.31165z" fill="#FFA039"/>
      <path stroke="null" id="svg_221" d="m193.82409,172.88692c-6.29375,0 -11.39573,-1.83409 -11.39573,-4.09568c0,-0.85299 0.72804,-2.22711 1.96906,-3.6082c-2.50359,1.87984 -4.13044,4.26852 -4.13044,5.53199c0,2.26204 5.10215,4.09603 11.39573,4.09603c5.7949,0 10.52676,-1.56028 11.24879,-3.57213c-2.07861,0.99494 -5.35863,1.64798 -9.08741,1.64798z" fill="#FF7300"/>
      <path stroke="null" id="svg_222" d="m184.37445,176.9913c0,0 1.99964,8.2144 8.74452,6.90232c6.74454,-1.31178 7.03864,-9.02277 7.96009,-9.08255c0.9215,-0.06014 0.47054,9.76869 -5.52889,11.50438c-5.99971,1.73609 -9.84263,-3.81428 -11.17572,-6.8618c-1.33338,-3.04767 -0.65293,-4.28916 0,-2.46234z" fill="#FFA039"/>
      <path stroke="null" id="svg_223" d="m189.9663,175.97516c0,0 3.87305,0.27294 6.37198,-0.57523c2.49888,-0.84735 0.39083,4.29685 -2.87587,4.22533c-3.26664,-0.07187 -5.26043,-3.69037 -3.49612,-3.6501z" fill="#770101"/>
     </g>
     <g stroke="null" id="svg_224">
      <path stroke="null" id="svg_225" d="m260.50233,174.81266c-1.57386,0 -2.84966,-1.31183 -2.84966,-2.93317c0,-1.33232 -0.857,-4.68361 -2.8399,-6.38503c-1.03502,-0.88813 -2.20518,-1.16578 -3.67579,-0.89658c-4.85729,0.9141 -5.0908,7.08971 -5.09931,7.35332c-0.04731,1.61233 -1.43181,2.87851 -2.91626,2.85264c-1.56808,-0.0398 -2.81062,-1.36613 -2.78135,-2.97897c0.07103,-3.87258 2.20393,-11.57502 9.77302,-12.99586c3.13729,-0.59034 6.01746,0.16014 8.34927,2.16241c3.56198,3.05648 4.8894,8.30103 4.8894,10.88806c0,1.62134 -1.27591,2.93317 -2.84943,2.93317z"/>
     </g>
     <path stroke="null" id="svg_226" d="m287.97521,185.51399c0,3.87693 -4.11626,7.01988 -9.19435,7.01988c-5.07775,0 -9.19446,-3.14295 -9.19446,-7.01988c0,-3.87729 4.11671,-7.02014 9.19446,-7.02014c5.07809,0 9.19435,3.14285 9.19435,7.02014z" fill="#FF9999"/>
     <g stroke="null" id="svg_227">
      <path stroke="null" id="svg_228" d="m141.592,174.81266c-1.57375,0 -2.84943,-1.31183 -2.84943,-2.93317c0,-1.33232 -0.85728,-4.68361 -2.84007,-6.38503c-1.03508,-0.88813 -2.20518,-1.16578 -3.67579,-0.89658c-4.85729,0.9141 -5.09097,7.08971 -5.09942,7.35332c-0.04731,1.61233 -1.43164,2.87851 -2.91609,2.85264c-1.56813,-0.0398 -2.81057,-1.36613 -2.78135,-2.97897c0.0708,-3.87258 2.20382,-11.57502 9.77279,-12.99586c3.13751,-0.59034 6.01752,0.16014 8.34961,2.16241c3.56181,3.05648 4.88923,8.30103 4.88923,10.88806c0,1.62134 -1.27602,2.93317 -2.84948,2.93317z"/>
     </g>
     <path stroke="null" id="svg_229" d="m112.54986,185.51399c0,3.87693 -4.11648,7.01988 -9.19424,7.01988c-5.07798,0 -9.19441,-3.14295 -9.19441,-7.01988c0,-3.87729 4.11643,-7.02014 9.19441,-7.02014c5.07775,0 9.19424,3.14285 9.19424,7.02014z" fill="#FF9999"/>
     <path stroke="null" id="svg_230" d="m253.68892,89.73811c0,0 -20.69441,-44.50374 -42.19101,-45.08168c-21.49632,-0.57805 -30.56001,21.13732 -29.6776,25.43083c0.88218,4.29341 19.03147,-0.74331 33.65901,0c14.62764,0.74321 46.95237,30.13693 59.70586,49.70562c12.75338,19.56817 24.46426,38.06308 28.71554,37.98101c4.25105,-0.08283 -11.71065,-19.98137 -11.71065,-19.98137s3.6093,-21.7982 -4.49182,-34.18307c-8.10123,-12.38523 -34.00933,-13.87133 -34.00933,-13.87133z" fill="#E22C14"/>
    </g>
    <polygon stroke="null" id="svg_231" points="73.9218521118164,65.87689208984375 89.53546142578125,57.61464309692383 102.07001495361328,83.53355026245117 91.86890411376953,89.53424453735352 " fill="#F98E00"/>
    <polygon stroke="null" id="svg_232" points="22.75615882873535,85.15829849243164 36.587459564208984,75.07307052612305 53.6843147277832,96.82535934448242 46.3845329284668,101.76874923706055 " fill="#F98E00"/>
    <polygon stroke="null" id="svg_233" points="17.18524169921875,133.41142654418945 29.671810150146484,124.50973892211914 53.6843147277832,134.79217910766602 43.118751525878906,148.8322639465332 " fill="#F98E00"/>
    <polygon stroke="null" id="svg_234" points="302.65203857421875,76.95444107055664 323.4348449707031,51.54957580566406 335.68194580078125,58.80786895751953 317.3113098144531,84.02176284790039 " fill="#F98E00"/>
    <polygon stroke="null" id="svg_235" points="348.3000793457031,121.65191268920898 378.9181823730469,118.21355056762695 382.81475830078125,133.41142654418945 351.2691955566406,138.2700080871582 " fill="#F98E00"/>
   </g>
   <g stroke="null" id="svg_236" display="none">
    <path stroke="null" id="svg_237" d="m-118.63092,100.137c0,0 17.00875,-29.95907 5.09835,-47.36074c-11.91029,-17.40151 -60.89588,-15.62187 -71.46139,7.51433c0,0 -14.6003,-24.718 -40.05311,-15.81977c-25.45333,8.89865 -25.26112,45.87709 -12.9667,61.30118c0,0 -20.93909,-5.57148 -35.3465,13.33063c-14.40744,18.90165 5.04513,36.89663 5.04513,36.89663s-13.52701,5.47646 -15.80285,18.98346c-2.27564,13.50685 15.80285,36.30496 15.80285,36.30496l150.55636,-80.99521l-0.87214,-30.15548z" fill="#CD2606"/>
    <path stroke="null" id="svg_238" d="m-184.99396,60.2906c0,0 -14.6003,-24.718 -40.0534,-15.81977c-25.45304,8.89865 -25.26083,45.87709 -12.96641,61.30118c0,0 -20.93909,-5.57148 -35.3465,13.33063c-14.40744,18.90165 5.04513,36.89663 5.04513,36.89663s-13.52701,5.47646 -15.80274,18.98346c-2.27575,13.50685 15.80274,36.30496 15.80274,36.30496l4.88886,-2.63027c-0.97154,-1.69158 -2.22047,-3.52295 -3.78681,-5.50622c-20.23479,-25.61837 0.64034,-42.93372 3.32981,-45.30652c2.68939,-2.37259 -14.77498,-24.25578 -1.28059,-36.12126c13.49416,-11.86573 29.71138,-9.09649 32.0167,-11.33732c2.30503,-2.24125 -15.88035,-46.8 10.75766,-53.52313c26.63784,-6.72369 34.70611,13.97389 37.90762,12.12838c3.20168,-1.84572 14.47169,-18.85206 45.80955,-16.34679c14.70877,1.17556 23.80004,9.37916 29.3072,17.75467c0.34641,-6.23934 -0.64714,-12.4799 -4.16743,-17.62297c-11.91029,-17.40151 -60.89565,-15.62187 -71.46139,7.51433z" fill="#B51702"/>
    <g stroke="null" id="svg_239" display="inline">
     <path stroke="null" id="svg_240" d="m-307.12384,256.31266c0,0 3.34073,-29.5785 -8.97134,-33.02948c-12.31212,-3.45108 -29.32671,14.50988 8.97134,33.02948z" fill="#CD2606"/>
     <path stroke="null" id="svg_241" d="m-306.89475,253.52426c-2.44856,-4.32256 -15.47199,-12.03391 -19.20661,-18.16009c-1.70622,-2.79824 -2.28789,-5.83326 -2.42206,-8.31169c-4.9256,5.96885 -2.92596,17.49736 21.39959,29.26018c0,0 0.11874,-1.05549 0.22908,-2.78841z" fill="#BC1A04"/>
     <path stroke="null" id="svg_242" d="m-307.12384,256.31266c0,0 20.91047,-20.57259 11.0424,-31.37484c-9.86816,-10.80251 -28.38655,2.80275 -11.0424,31.37484z" fill="#CD2606"/>
     <path stroke="null" id="svg_243" d="m-302.82082,246.18123c0,0 11.01684,-13.29759 5.75899,-19.2542c-5.25759,-5.95661 -15.02715,3.06826 -5.75899,19.2542z" fill="#E22C14"/>
     <path stroke="null" id="svg_244" d="m-305.04886,221.34955c-8.26355,1.19841 -14.75608,14.0723 -2.07498,34.96311c0,0 1.66157,-1.65126 3.80877,-4.2155c-8.71088,-15.41041 -6.79878,-26.18649 -1.73379,-30.74761z" fill="#BC1A04"/>
     <path stroke="null" id="svg_245" d="m-307.12384,256.31266c0,0 -15.35047,-18.3945 -24.13578,-15.75506c-8.78531,2.63954 -9.45821,29.20265 24.13578,15.75506z" fill="#CD2606"/>
     <path stroke="null" id="svg_246" d="m-332.07514,240.8832c-7.97716,3.97124 -7.5696,28.44735 24.9513,15.42946c0,0 -0.50696,-0.60428 -1.36236,-1.55383c-23.53328,7.64558 -27.40661,-6.74234 -23.58894,-13.87564z" fill="#BC1A04"/>
     <path stroke="null" id="svg_247" d="m-313.72428,252.55821c0,0 -8.94184,-10.72495 -14.84555,-9.8673c-5.90355,0.85765 -1.71422,17.24138 14.84555,9.8673z" fill="#E22C14"/>
     <path stroke="null" id="svg_248" d="m-314.89047,241.8057c0,0 -1.35459,-7.99023 -0.81825,-12.71938c0.53646,-4.729 -7.32367,-3.33874 -9.64991,-1.57375c-2.32624,1.76458 2.07101,10.1093 6.2394,13.1353c4.16839,3.0261 4.46499,2.71167 4.22876,1.15784z" fill="#E22C14"/>
    </g>
    <path stroke="null" id="svg_249" d="m-41.28086,220.23019c0,0 8.64978,-0.33605 24.10174,-8.06497c15.45208,-7.72902 14.58135,37.74885 -13.49328,52.42241c0,0 -14.7971,-22.96306 -10.60846,-44.35743z" fill="#FECE00"/>
    <path stroke="null" id="svg_250" d="m-9.7691,238.87376c-13.4353,-4.09224 -17.72891,-14.23249 -19.01139,-21.70666c-8.11031,2.89183 -12.50036,3.06309 -12.50036,3.06309c-4.18865,21.39437 10.60846,44.35743 10.60846,44.35743c10.75914,-5.62322 17.52263,-15.77095 20.9033,-25.71386z" fill="#FCC000"/>
    <path stroke="null" id="svg_251" d="m-308.94749,253.94053c0,0 24.24944,-7.27284 35.78893,-55.40419c11.53946,-48.13104 53.34889,-95.98914 81.94642,-103.21952c28.59776,-7.23043 55.523,24.78962 55.523,24.78962s12.04105,-8.95156 17.05822,-19.96944c0,0 50.50573,10.35888 78.26714,98.39934c27.7617,88.04081 18.56349,134.17716 -88.63579,158.79517c-107.1994,24.6177 -186.97176,-49.43508 -179.94792,-103.39098z" fill="#FECE00"/>
    <path stroke="null" id="svg_252" d="m-241.60997,221.0009c0,0 27.02129,-76.5891 56.46243,-95.68618c29.4412,-19.09698 40.79006,11.76282 46.47519,13.56156c5.6853,1.79931 25.57002,-18.26643 34.58295,-16.88243c9.01286,1.38345 44.20591,31.49543 58.47024,96.07976c14.2645,64.58423 -6.16956,96.68911 -45.6932,105.96105c-39.52375,9.27163 -98.13718,3.04423 -107.8163,-5.53521c-9.67918,-8.58027 17.50799,-39.85281 19.30685,-57.77428c1.79937,-17.92198 -20.51672,-27.05469 -24.41541,-37.22638c-3.89858,-10.17159 -16.53532,-10.17159 -22.31598,-7.68072c-5.78061,2.49103 -21.22287,21.10894 -15.05677,5.18282z" fill="#FFDA3E"/>
    <path stroke="null" id="svg_253" d="m-185.57377,337.07643c-77.60721,-11.82644 -110.901,-66.37217 -99.4124,-79.6464c11.4888,-13.27484 26.16007,-30.68563 42.67227,-74.99239c13.08731,-35.11643 51.38036,-71.46304 74.87535,-85.27203c-7.3779,-2.74881 -15.5058,-3.93959 -23.7736,-1.84925c-28.59753,7.23084 -70.40696,55.08894 -81.94642,103.21998c-11.53949,48.13135 -35.78893,55.40419 -35.78893,55.40419c-7.02384,53.95538 72.74852,128.00868 179.94792,103.39098c36.46651,-8.37444 61.59209,-19.23904 77.78027,-33.39581c-23.63665,7.85202 -76.8034,21.91075 -134.35446,13.14073z" fill="#FCC000"/>
    <path stroke="null" id="svg_254" d="m-254.18476,247.48046c0,0 9.75702,6.165 19.43189,2.7713c9.67481,-3.3934 11.53824,-14.09059 13.90329,-12.98367c2.36499,1.10651 0.14336,9.2954 2.57989,10.77034c2.43676,1.47555 19.1349,-1.62278 22.35995,5.9021c0,0 -2.29328,-14.60706 -16.05327,-14.45922c0,0 -5.81663,-15.85793 -10.89325,-14.01672c-5.07656,1.8407 -5.32397,20.20344 -31.32851,22.01586z" fill="#FCC000"/>
    <path stroke="null" id="svg_255" d="m-214.42858,203.1512l0,-10.30084c0,0 -11.73845,-10.84487 -33.38743,-10.39956l0,11.68746c0,0 19.53208,1.38652 33.38743,9.01294z" fill="#231F20"/>
    <path stroke="null" id="svg_256" d="m-104.0894,209.40237l0,-10.30038c0,0 11.73845,-10.84539 33.3872,-10.39976l0,11.68757c0,0 -19.53202,1.38652 -33.3872,9.01258z" fill="#231F20"/>
    <ellipse stroke="null" id="svg_257" ry="8.67079" rx="9.48899" cy="218.07362" cx="-55.10815" fill="#FF9999"/>
    <ellipse stroke="null" id="svg_258" ry="8.67079" rx="9.48905" cy="218.07362" cx="-258.8261" fill="#FF9999"/>
    <path stroke="null" id="svg_259" d="m-254.18476,247.48046c0,0 14.86076,0.9974 21.53733,-4.87746c6.67641,-5.87516 6.56873,-13.08028 10.12232,-14.63226c3.55353,-1.55178 7.68573,7.20543 8.09653,14.18864c0,0 13.33285,-4.10146 16.24059,12.63717c2.90724,16.73832 -27.99839,44.11799 -27.99839,44.11799s24.12165,-10.7521 31.65954,-34.585c7.538,-23.833 -12.96431,-28.03805 -16.58354,-26.38207c0,0 -3.62513,-16.96019 -12.41963,-15.2974c-8.79456,1.66274 1.75887,16.73802 -30.65476,24.8304z" fill="#F99300"/>
    <g stroke="null" id="svg_260" display="inline">
     <ellipse stroke="null" id="svg_261" ry="11.78695" rx="14.72778" cy="222.43742" cx="-158.42006" fill="#660000"/>
     <path stroke="null" id="svg_262" d="m-153.40006,229.36345c-8.1338,0 -14.72766,-5.27682 -14.72766,-11.78689c0,-1.71063 0.45618,-3.33623 1.27505,-4.80318c-3.80593,2.13095 -6.29517,5.66472 -6.29517,9.66403c0,6.50997 6.59364,11.78695 14.72789,11.78695c5.9963,0 11.15513,-2.86842 13.45278,-6.98382c-2.38876,1.33775 -5.29606,2.12291 -8.43289,2.12291z" fill="#540000"/>
     <path stroke="null" id="svg_263" d="m-172.97838,217.50402c0,0 6.56782,16.43388 16.41953,15.14428c9.85148,-1.2898 11.52054,-18.05835 11.52054,-18.05835l5.15797,3.73626c0,0 1.51452,25.70879 -16.05088,28.0214c-17.56569,2.31291 -22.75061,-27.66557 -22.75061,-27.66557l5.70345,-1.17802z" fill="#FF8B00"/>
     <g stroke="null" id="svg_264">
      <g stroke="null" id="svg_265">
       <g stroke="null" id="svg_266">
        <path stroke="null" id="svg_267" d="m-154.11642,242.62349c-13.98884,1.84203 -20.12578,-16.79534 -22.04492,-24.46217l-2.5205,0.52072c0,0 5.18492,29.97849 22.75038,27.66557c7.35419,-0.96861 11.36345,-6.03745 13.54009,-11.60422c-2.38678,3.96038 -6.06557,7.13463 -11.72506,7.88009z" fill="#FF7300"/>
       </g>
       <path stroke="null" id="svg_268" d="m-170.88888,225.34728c0,0 4.763,10.82843 14.21248,9.59611c9.4497,-1.23222 11.2581,-11.85093 13.55036,-11.06454c2.29232,0.7866 -0.38192,15.1284 -11.46182,16.09875c-11.07967,0.96994 -16.68299,-11.56272 -17.47265,-14.89265c-0.78954,-3.32988 0.4302,-1.15185 1.17163,0.26234z" fill="#FFA039"/>
      </g>
     </g>
     <path stroke="null" id="svg_269" d="m-138.67235,219.3647c0,4.15315 -9.2116,-0.90969 -20.57465,-0.90969c-11.36322,0 -20.57482,5.06285 -20.57482,0.90969c0,-4.15264 9.2116,-20.82836 20.57482,-20.82836c11.36305,0 20.57465,16.67572 20.57465,20.82836z" fill="#FF8B00"/>
     <path stroke="null" id="svg_270" d="m-138.67235,219.3647c0,-0.46509 -0.11636,-1.08853 -0.33778,-1.82764c-12.8306,-6.76892 -32.17716,0.42888 -32.48805,-4.53454c-0.20656,-3.30211 2.62454,-8.53637 5.11293,-12.33995c-7.84441,4.62957 -13.43655,15.46681 -13.43655,18.70212c0,4.15279 9.21182,-0.90969 20.57482,-0.90969c11.36294,0 20.57465,5.06249 20.57465,0.90969z" fill="#FF7300"/>
     <path stroke="null" id="svg_271" d="m-166.69552,209.1343c0,0 2.27326,-7.63297 7.7942,-7.74439c5.52083,-0.11157 13.63982,7.9952 13.8562,9.80634c0.21655,1.81053 -4.89842,-0.11188 -11.69113,0.50121c-6.79288,0.61283 -10.87958,0.66877 -9.95927,-2.56316z" fill="#FFA039"/>
     <path stroke="null" id="svg_272" d="m-162.42433,220.07876c0,0 9.77489,-0.41791 11.37025,1.13479c1.59514,1.5526 2.07379,5.16494 -3.53872,6.21039c-5.61245,1.04509 -13.05242,-7.18074 -7.83153,-7.34518z" fill="#770101"/>
    </g>
    <path stroke="null" id="svg_273" d="m-258.8261,263.94471c0,0 20.10652,-7.64824 32.66418,-10.00418c12.55794,-2.35615 20.34902,2.26701 20.16566,8.68334c-0.18313,6.41633 -20.34885,28.40084 -32.6317,34.53418c-12.28273,6.13293 -37.55455,-27.23982 -20.19814,-33.21334z" fill="#FFDA3E"/>
    <g stroke="null" id="svg_274" display="inline">
     <path stroke="null" id="svg_275" d="m-256.35862,320.16988c0,0 11.53035,-8.64082 21.46148,-0.40162c9.93107,8.2395 5.23331,33.90163 -5.02198,36.77558c-10.2553,2.87426 -32.17203,-23.99631 -16.4395,-36.37396z" fill="#FF8B00"/>
     <path stroke="null" id="svg_276" d="m-247.55011,324.19696c0,0 5.20574,-4.19419 11.69794,2.17757c6.49197,6.37196 1.64807,23.89816 -3.98418,25.17065c-5.00491,1.131 -19.44213,-19.62006 -7.71376,-27.34822z" fill="#FFA039"/>
     <path stroke="null" id="svg_277" d="m-250.88652,321.56644c0,0 5.77879,-4.32902 12.67782,-3.93487c-9.0123,-4.30894 -18.14992,2.5378 -18.14992,2.5378c-15.16759,11.93371 4.65816,37.33591 15.29135,36.56996c-10.4892,-5.42487 -22.62373,-25.09883 -9.81925,-35.17288z" fill="#FF7300"/>
    </g>
    <g stroke="null" id="svg_278" display="inline">
     <path stroke="null" id="svg_279" d="m-63.57681,303.27613c0,0 13.64777,-4.26191 20.39844,6.87829c6.75061,11.1403 -5.87558,33.78975 -16.4787,33.03681c-10.60335,-0.75376 -22.72922,-33.54406 -3.91974,-39.9151z" fill="#FF8B00"/>
     <path stroke="null" id="svg_280" d="m-56.54231,310.05863c0,0 6.25529,-2.20124 10.35373,6.01224c4.09861,8.21348 -6.06943,23.12934 -11.79541,22.42671c-5.08779,-0.62405 -12.1021,-25.10569 1.44168,-28.43895z" fill="#FFA039"/>
     <path stroke="null" id="svg_281" d="m-58.85443,306.44628c0,0 6.83968,-2.13485 13.23016,0.56996c-7.13702,-7.11691 -17.95254,-3.74011 -17.95254,-3.74011c-18.13414,6.14236 -7.51457,36.8389 2.7729,39.71111c-8.17607,-8.67104 -13.359,-31.35614 1.94949,-36.54096z" fill="#FF7300"/>
    </g>
    <path stroke="null" id="svg_282" d="m-23.16901,218.37063c0,0 6.18942,-4.13917 9.90305,-2.96079c3.71357,1.179 3.61843,10.9921 1.20613,14.25451c-2.41225,3.26149 -16.12412,-6.71595 -11.10917,-11.29373z" fill="#FFDA3E"/>
    <path stroke="null" id="svg_283" d="m-314.25263,186.32723c0,0 16.34379,-4.64207 16.34379,-16.82413c0,0 3.79549,16.82413 16.34371,16.82413c0,0 -16.34371,5.51088 -16.34371,16.82397c0,0 -3.0165,-16.82397 -16.34379,-16.82397z" fill="#F98E00"/>
    <path stroke="null" id="svg_284" d="m-173.65792,69.47192c0,0 15.86287,-11.48527 34.81765,-10.23988c18.95472,1.24544 21.50908,17.57415 20.5679,24.21644c-0.94096,6.64229 -13.77916,23.38625 -15.45951,24.63199c-1.68041,1.24544 -29.17144,-22.9713 -55.38543,-18.26649c-26.21405,4.70482 -64.86281,53.8996 -69.23187,63.37829c-4.36888,9.47921 -10.01515,-22.00229 -0.94104,-29.3365c9.07422,-7.33427 25.00421,-7.68 29.57478,-12.03904c4.57074,-4.35914 -10.01515,-35.63306 6.58705,-47.18784c16.60232,-11.55473 32.59959,9.68647 36.0274,10.10177c3.42798,0.41484 10.29393,-3.26579 13.44308,-5.25874z" fill="#E22C14"/>
    <path stroke="null" id="svg_285" d="m-264.79423,165.61617c-0.12348,0.35793 -6.34089,19.5758 -7.31158,20.71105c-0.97049,1.13509 -2.78217,-7.39021 0.32357,-14.58324c3.10574,-7.19319 9.01749,-12.01281 6.98801,-6.12781z" fill="#E22C14"/>
   </g>
  </g>
 </g>
</svg>