<svg width="400" height="400" xmlns="http://www.w3.org/2000/svg">

 <g>
  <title>background</title>
  <rect fill="none" id="canvas_background" height="402" width="402" y="-1" x="-1"/>
 </g>
 <g>
  <title>Layer 1</title>
  <g stroke="null" id="svg_1">
   <g stroke="null" id="svg_2" display="none">
    <path stroke="null" id="svg_3" d="m65.68334,161.97414c0,0 -12.17725,-18.19284 -7.88045,-27.16439c4.29707,-8.97134 34.34542,-6.46885 41.79744,6.13849c7.45174,12.60748 -17.44307,18.91467 -33.91699,21.0259z" fill="#CD2606"/>
    <path stroke="null" id="svg_4" d="m65.68334,161.97414c8.48711,-1.08772 19.20966,-3.28922 26.59243,-6.89219c-2.44442,-0.52631 -5.46542,-0.94474 -8.41248,-0.74328c-6.61555,0.45272 -11.80054,1.71948 -14.72761,0c-2.92775,-1.71927 -7.17738,-7.20469 -7.36636,-14.99569c-0.09283,-3.82415 1.6801,-6.96495 3.50958,-9.17253c-3.62642,0.82019 -6.38354,2.35869 -7.47602,4.6393c-4.2968,8.97155 7.88045,27.16439 7.88045,27.16439z" fill="#BC1A04"/>
    <path stroke="null" id="svg_5" d="m65.68334,161.97414c0,0 -3.88546,-20.78485 -19.12731,-20.16702c-15.24198,0.61776 -13.95887,31.78638 19.12731,20.16702z" fill="#CD2606"/>
    <path stroke="null" id="svg_6" d="m40.61665,144.1109c-8.09633,7.11834 -2.77657,27.64125 25.06668,17.86323c0,0 -0.20691,-1.10593 -0.7119,-2.79926c-21.05969,5.93013 -27.56034,-6.86019 -24.35478,-15.06397z" fill="#BC1A04"/>
    <g stroke="null" id="svg_7" display="inline">
     <path stroke="null" id="svg_8" d="m60.06991,313.05158c0,0 23.49239,15.09825 23.06974,21.13722c-0.42278,6.03924 -15.88312,5.61632 -21.01666,4.22755c-5.13326,-1.38904 -19.20455,-15.58103 -19.20455,-15.58103l17.15147,-9.78374z" fill="#FF8B00"/>
    </g>
    <path stroke="null" id="svg_9" d="m83.13965,334.1888c0.02924,-0.41492 -0.05559,-0.8726 -0.23684,-1.36532c-3.41454,1.43567 -7.79424,2.94251 -10.32073,2.50828c-4.57281,-0.78598 -17.61205,-11.32451 -17.57646,-11.64619c0,0 -7.07324,-2.07184 -9.28798,-0.78598c-0.68169,0.39588 -0.98668,0.9744 -1.07054,1.64147c3.91788,3.81374 13.44808,12.78529 17.4759,13.87528c5.13354,1.38877 20.59387,1.81169 21.01666,-4.22755z" fill="#FF7300"/>
    <g stroke="null" id="svg_10" display="inline">
     <path stroke="null" id="svg_11" d="m51.31078,324.49859c0,0 23.49266,15.09825 23.07002,21.13722c-0.42265,6.03952 -15.8834,5.6166 -21.01638,4.22755c-5.13326,-1.38905 -19.20469,-15.58131 -19.20469,-15.58131l17.15105,-9.78346z" fill="#FF8B00"/>
     <path stroke="null" id="svg_12" d="m53.98115,346.00796c-3.85733,-1.04392 -12.76046,-9.31612 -16.94898,-13.36463l-2.87244,1.63871c0,0 14.07143,14.19226 19.20469,15.58131c5.13298,1.38904 20.59374,1.81197 21.01638,-4.22755c0.03531,-0.50486 -0.09738,-1.07372 -0.36885,-1.69141c-3.54834,3.73815 -15.61304,3.25867 -20.03081,2.06357z" fill="#FF7300"/>
     <path stroke="null" id="svg_13" d="m49.5202,337.6152c0,0 5.02774,-6.42547 6.59431,-6.39292c1.56726,0.03283 13.58092,9.4673 12.9933,10.9038c-0.58748,1.4365 -8.87954,2.18743 -12.79715,1.37111c-3.91733,-0.81605 -7.76693,-4.67779 -6.79046,-5.88199z" fill="#FFA039"/>
    </g>
    <path stroke="null" id="svg_14" d="m-128.53266,325.96101c0,0 -17.44362,14.68747 -17.13078,18.75391c0.31271,4.06672 37.44891,0 37.44891,0l-20.31813,-18.75391z" fill="#FF8B00"/>
    <path stroke="null" id="svg_15" d="m-124.39753,346.09679c0.92474,-1.36449 -0.89205,-2.08233 -0.89205,-2.08233l0,-8.36738c0,0 -7.54485,9.08521 -8.87623,9.34619c-1.33166,0.26098 -8.40628,0.13049 -9.29378,-0.97881c-0.37492,-0.46817 -0.50734,-1.63182 -0.53562,-2.8203c-1.0802,1.46436 -1.73086,2.70581 -1.66879,3.52048c0.17049,2.21033 11.21568,2.01805 21.26646,1.38215z" fill="#FF7300"/>
    <path stroke="null" id="svg_16" d="m-121.78027,333.83871c-0.31257,0.37519 -16.69337,16.31818 -13.87969,20.38214c2.8134,4.06396 46.45343,-2.18826 46.14114,-2.37586c-0.31271,-0.18732 -32.26144,-18.00628 -32.26144,-18.00628z" fill="#FF8B00"/>
    <path stroke="null" id="svg_17" d="m-132.87939,350.61402c-0.87274,-1.30159 0.10263,-3.78367 1.87197,-6.59955c-3.29619,4.1401 -5.91937,8.37676 -4.65254,10.20638c2.8134,4.06396 46.45343,-2.18826 46.14114,-2.37586c-0.07269,-0.04359 -1.85252,-1.03868 -4.54178,-2.54056c-12.48361,1.70713 -36.7446,4.40136 -38.81878,1.30959z" fill="#FF7300"/>
    <path stroke="null" id="svg_18" d="m-148.74265,233.57446c0,0 -26.63022,97.55954 56.22254,122.67657c82.85304,25.1162 139.13876,-9.19501 158.20344,-43.63451c19.06427,-34.4395 18.45913,-129.76222 0,-150.64239c0,0 -39.64228,5.74964 -69.60055,-5.44693c-29.95869,-11.19658 -94.16321,-17.18333 -144.82543,77.04726z" fill="#FECE00"/>
    <path stroke="null" id="svg_19" d="m-111.14683,256.47316c0,0 9.81863,2.45283 20.64767,-6.21029c10.82917,-8.66367 2.74333,-29.0225 6.93074,-32.34352c4.18755,-3.32088 16.75034,-17.32665 18.98771,-25.41243c2.23778,-8.08591 16.38798,-16.17183 29.23837,-23.96883c12.85081,-7.79707 57.03418,6.53044 78.2594,4.92573c21.2255,-1.60478 22.52474,16.44377 24.54652,37.88576c2.02108,21.44192 -4.7651,86.70609 -23.10257,103.88832s-35.51997,1.29966 -53.71274,4.33184c-18.19332,3.03217 -13.28407,11.33389 -40.14065,12.74197c-26.8563,1.40836 -51.83581,-14.18592 -62.08757,-38.44331c-10.25149,-24.25767 -6.77901,-37.82838 0.43313,-37.39525z" fill="#FFDA3E"/>
    <path stroke="null" id="svg_20" d="m-72.94077,342.31947c-82.85277,-25.11675 -56.22213,-122.6763 -56.22213,-122.6763c13.63223,-25.35622 28.24507,-43.4554 42.90771,-56.14957c-21.00245,11.91482 -42.77032,33.40778 -62.48746,70.08086c0,0 -26.63022,97.55927 56.22254,122.6763c64.52826,19.56168 112.94029,3.07549 140.20517,-21.44372c-28.39405,15.86408 -69.43972,23.02946 -120.62583,7.51243z" fill="#FCC000"/>
    <g stroke="null" id="svg_21" display="inline">
     <path stroke="null" id="svg_22" d="m-148.74265,233.57446c0,0 9.03114,-5.85772 18.06214,3.06721c9.03128,8.92465 19.97467,9.45599 31.44926,2.54994c11.47473,-6.90619 8.07508,-25.39318 0,-29.11188c0,0 14.23737,-1.91239 19.54981,-13.38705c5.31217,-11.4748 0,-20.61215 0,-20.61215s18.062,1.38105 21.03693,-10.19983c2.97479,-11.58087 -11.47473,-29.21803 -43.98639,-16.14948c-32.5118,13.06827 -54.5052,43.05827 -46.11176,83.84324z" fill="#CD2606"/>
     <g stroke="null" id="svg_23">
      <path stroke="null" id="svg_24" d="m-92.52011,208.1501c-8.94148,-0.77094 -15.31716,-6.03566 -15.31716,-6.03566c3.23012,5.89855 8.60656,7.96529 8.60656,7.96529s2.97424,-0.40044 6.71059,-1.92963z" fill="#9B0D02"/>
      <path stroke="null" id="svg_25" d="m-81.85549,170.79609c-0.28098,2.80864 2.17378,5.28444 2.17378,5.28444s1.87459,0.14304 4.51516,-0.04959c-5.11064,-2.0455 -6.68894,-5.23485 -6.68894,-5.23485z" fill="#9B0D02"/>
     </g>
     <path stroke="null" id="svg_26" d="m-130.0664,178.69655c12.0749,-16.85559 30.97737,-27.56607 44.07785,-33.34681c-4.89297,0.51313 -10.43853,1.88763 -16.64234,4.38122c-32.5118,13.06875 -54.5052,43.05854 -46.11176,83.84351c0,0 9.03114,-5.85772 18.06214,3.06721c9.03128,8.92465 19.97467,9.45599 31.44981,2.54994c-36.90143,-3.7147 -50.59132,-32.91776 -30.8357,-60.49507z" fill="#BC1A04"/>
     <path stroke="null" id="svg_27" d="m-110.75495,195.27467c0,0 9.41337,9.09756 20.21661,4.29604c10.80324,-4.80138 5.94075,-21.72822 4.54978,-28.77462c-1.3907,-7.04661 10.36005,1.22952 17.94131,-1.29752c7.58099,-2.52697 2.77975,-20.46918 -14.90982,-20.46918c-17.68971,0 -44.91872,30.83012 -49.27801,43.97094s3.53813,30.4512 14.78319,36.38989c11.24561,5.93869 22.42777,0.75811 19.33215,-6.82315s-10.99236,-14.15157 -14.90955,-22.23811c-3.91705,-8.08681 0.2745,-6.66114 2.27434,-5.05429z" fill="#E22C14"/>
    </g>
    <g stroke="null" id="svg_28" display="inline">
     <g stroke="null" id="svg_29">
      <path stroke="null" id="svg_30" d="m-93.99674,312.61652c-0.01214,0 -0.02441,0 -0.03821,0c-7.84542,-0.02179 -13.48822,-7.00813 -13.72355,-7.30525c-0.72115,-0.90681 -0.57038,-2.22413 0.33492,-2.94803c0.90585,-0.71783 2.22854,-0.573 2.95107,0.32829c0.04635,0.05766 4.65668,5.7195 10.4704,5.72226c0.00165,0 0.00414,0 0.00538,0c3.3613,0 6.61611,-1.9259 9.672,-5.7275c0.72763,-0.90295 2.05046,-1.04365 2.95465,-0.32002c0.90419,0.72777 1.04792,2.04922 0.32016,2.95493c-3.89333,4.83973 -8.24916,7.29532 -12.94681,7.29532z"/>
     </g>
    </g>
    <ellipse stroke="null" id="svg_31" ry="71.55964" rx="79.69286" cy="180.03606" cx="-1016.64921" fill="#FF9999" transform="matrix(0.14037803497242515,-0.01566622239375387,0.01566622239375387,0.14037803497242515,72.61623941761033,280.65233972929303) "/>
    <g stroke="null" id="svg_32" display="inline">
     <path stroke="null" id="svg_33" d="m32.93152,361.21242c0,0 -19.30139,-20.52146 -29.10016,-25.72838c-9.79863,-5.20692 -24.60252,-5.51314 -30.3194,10.82214c-5.71798,16.33528 11.53653,34.20224 59.41956,14.90624z" fill="#FECE00"/>
     <path stroke="null" id="svg_34" d="m21.52618,355.16821c0,0 -14.68471,-14.11667 -20.37552,-17.14057c-5.69081,-3.02417 -14.28882,-3.20184 -17.60929,6.28505c-3.3206,9.48744 10.17548,22.06196 37.9848,10.85552z" fill="#FFDA3E"/>
     <path stroke="null" id="svg_35" d="m-20.36272,339.86443c0.63907,-1.82548 1.39194,-3.44268 2.23806,-4.86925c-3.46255,2.17254 -6.43182,5.79151 -8.36338,11.31072c-5.71798,16.33556 11.53653,34.20252 59.41956,14.90651c0,0 -1.12779,-1.19897 -2.97617,-3.09066c-40.96208,13.58644 -55.65699,-3.00238 -50.31807,-18.25733z" fill="#FCC000"/>
    </g>
    <path stroke="null" id="svg_36" d="m-130.67927,348.27981c0,0 4.18327,-6.46354 5.74543,-6.679c1.56202,-0.21574 10.48529,6.44561 10.41356,7.39711c-0.07187,0.9515 -18.19029,2.1982 -16.159,-0.71811z" fill="#FFA039"/>
    <path stroke="null" id="svg_37" d="m-141.52279,340.43136c0,0 6.42189,-7.01971 7.42912,-7.14551c1.00709,-0.12635 5.17823,3.06914 5.0996,3.84022c-0.0789,0.77136 -4.74772,5.39893 -5.90751,6.04393c-1.15979,0.64555 -8.74602,0.15753 -6.62121,-2.73864z" fill="#FFA039"/>
    <path stroke="null" id="svg_38" d="m60.9581,324.29637c0.084,-0.13297 2.83437,-4.70924 3.96768,-5.05795c1.13386,-0.34871 14.6287,10.24942 14.30165,11.64315c-0.32691,1.39401 -5.27575,2.37503 -6.93281,2.04784c-1.65678,-0.32719 -12.16346,-7.32401 -11.33651,-8.63305z" fill="#FFA039"/>
    <path stroke="null" id="svg_39" d="m60.36455,155.78619c0,0 -4.66813,-11.39728 -13.97253,-11.07526c-9.30467,0.32195 -3.47717,17.64308 13.97253,11.07526z" fill="#E22C14"/>
    <path stroke="null" id="svg_40" d="m65.68334,161.97414c0,0 10.97139,-7.761 24.35933,-4.70262c13.38753,3.05838 16.49584,26.02212 8.05164,29.31769c-8.44462,3.29536 -12.45037,-2.6167 -15.60821,-9.00162c-3.15825,-6.38492 -8.55097,-14.93045 -16.80276,-15.61345z" fill="#CD2606"/>
    <path stroke="null" id="svg_41" d="m92.30114,182.85409c-5.36252,-2.63319 -5.44569,-6.67818 -12.54555,-15.38902c-2.47421,-3.03514 -5.16664,-6.7548 -6.54755,-9.11563c-4.62951,1.57706 -7.52471,3.62469 -7.52471,3.62469c8.25179,0.683 13.64451,9.22853 16.80276,15.61345c3.15784,6.38492 7.16358,12.29678 15.60793,9.00162c1.89114,-0.73818 3.20239,-2.46311 3.94905,-4.72931c-2.94762,1.28118 -6.82646,2.42621 -9.74194,0.99419z" fill="#BC1A04"/>
    <path stroke="null" id="svg_42" d="m79.07252,160.08168c0,0 9.35047,-1.79059 14.72223,1.98956c5.37162,3.77987 6.79722,13.85983 5.17257,17.10926c-1.62478,3.24964 -8.85347,-0.86219 -11.53915,-5.37155c-2.68553,-4.50936 -10.92463,-13.40849 -8.35565,-13.72727z" fill="#E22C14"/>
    <path stroke="null" id="svg_43" d="m65.98777,141.10114c-0.01586,-0.22691 -0.30305,-6.47941 3.03135,-8.1844c3.33399,-1.70527 22.93166,-0.31098 28.60772,8.87686c2.42497,3.9254 -2.69036,7.63285 -4.35763,8.62325c-1.66713,0.99068 -7.65396,1.29359 -13.11013,1.52105c-5.45645,0.22739 -13.33801,1.02302 -14.1713,-10.83676z" fill="#E22C14"/>
    <g stroke="null" id="svg_44" display="inline">
     <path stroke="null" id="svg_45" d="m-15.60617,36.56603l-23.15912,23.36907l18.66162,3.32461l-1.64299,10.36218l-32.00363,-3.30067l0.58803,-14.18861l26.31393,-22.07175l-21.43406,-0.67432l1.92384,-14.36021l31.96115,4.60564l-1.20876,12.93405z"/>
     <path stroke="null" id="svg_46" d="m-3.87708,71.18174c-0.10276,0.71425 -0.33671,1.36015 -0.70142,1.93721c-0.36499,0.57693 -0.81232,1.06365 -1.34159,1.4596c-0.52927,0.39602 -1.12158,0.68342 -1.77721,0.86239c-0.65535,0.17898 -1.33221,0.21815 -2.03005,0.11759c-0.71439,-0.10304 -1.36077,-0.33278 -1.93887,-0.68963c-0.57824,-0.35671 -1.06558,-0.79963 -1.46133,-1.32904c-0.39616,-0.52927 -0.68376,-1.12172 -0.86253,-1.77727c-0.17918,-0.65535 -0.21698,-1.34035 -0.11421,-2.0546c0.10056,-0.69811 0.3305,-1.34408 0.68956,-1.93873c0.35905,-0.59445 0.80322,-1.08986 1.33291,-1.48574c0.52886,-0.39595 1.12186,-0.68749 1.77858,-0.8746c0.65673,-0.18718 1.34215,-0.22919 2.05653,-0.12635c0.69797,0.10076 1.33566,0.33347 1.91294,0.69832c0.57714,0.36485 1.06351,0.81198 1.45939,1.34125c0.39616,0.52934 0.68652,1.13048 0.87122,1.80335c0.18443,0.67294 0.22663,1.35835 0.12608,2.05626z"/>
     <path stroke="null" id="svg_47" d="m14.60274,73.84486c-0.10304,0.71425 -0.33685,1.3598 -0.7017,1.93701c-0.36499,0.57714 -0.81177,1.06365 -1.34104,1.45967c-0.52941,0.39595 -1.122,0.68356 -1.77721,0.86233c-0.65562,0.17904 -1.33249,0.21829 -2.0306,0.11773c-0.71438,-0.10297 -1.36063,-0.33292 -1.93873,-0.68956c-0.57838,-0.35671 -1.06558,-0.79991 -1.46133,-1.32918c-0.39616,-0.52927 -0.68335,-1.12158 -0.86267,-1.77721c-0.17877,-0.65549 -0.21684,-1.34035 -0.11408,-2.05467c0.10083,-0.69804 0.33092,-1.34428 0.68956,-1.9388c0.35905,-0.59445 0.80363,-1.08972 1.3329,-1.48581c0.52927,-0.39588 1.12227,-0.68735 1.779,-0.87446c0.65659,-0.18711 1.34215,-0.22926 2.05639,-0.12635c0.69783,0.10056 1.33539,0.3334 1.91252,0.69825c0.57728,0.36485 1.06351,0.81198 1.45995,1.34125c0.39575,0.52941 0.68611,1.13048 0.87081,1.80335c0.18484,0.67294 0.22691,1.35835 0.12621,2.05646z"/>
     <path stroke="null" id="svg_48" d="m33.57404,76.57847c-0.10318,0.71439 -0.33698,1.36008 -0.70183,1.93721c-0.36499,0.577 -0.81177,1.06344 -1.34146,1.45974c-0.52927,0.39568 -1.12158,0.68328 -1.77721,0.86226c-0.65521,0.17898 -1.33208,0.21822 -2.03019,0.11752c-0.71438,-0.1029 -1.36063,-0.33264 -1.93873,-0.68949c-0.57838,-0.35671 -1.06558,-0.7997 -1.46133,-1.32897c-0.39616,-0.52948 -0.68362,-1.12186 -0.86267,-1.77721c-0.17877,-0.65549 -0.21684,-1.34042 -0.1138,-2.05467c0.10056,-0.69811 0.33009,-1.34442 0.68928,-1.93901c0.35905,-0.59438 0.80363,-1.08951 1.3329,-1.48574c0.52927,-0.39582 1.12227,-0.68742 1.779,-0.87446c0.65631,-0.18698 1.34173,-0.22919 2.05612,-0.12621c0.69811,0.10056 1.33566,0.33333 1.9128,0.69811c0.57728,0.36485 1.06379,0.81212 1.45953,1.34139c0.39616,0.52927 0.68652,1.1302 0.87122,1.80335c0.18484,0.67266 0.22691,1.35822 0.12635,2.05619z"/>
    </g>
    <g stroke="null" id="svg_49" display="inline">
     <path stroke="null" id="svg_50" d="m-99.89087,72.24401l-15.84698,22.50178l15.85608,0.14263l0.08814,8.77595l-26.85727,1.73582l-1.49167,-11.78495l18.62949,-21.87147l-17.77344,2.43l-0.41368,-12.11276l27.00417,-0.65383l0.80515,10.83683z"/>
     <path stroke="null" id="svg_51" d="m-85.39418,99.16204c0.0149,0.60341 -0.08842,1.16876 -0.30898,1.69554c-0.22029,0.52679 -0.52155,0.9904 -0.90281,1.39077c-0.38154,0.40051 -0.83025,0.72004 -1.34573,0.95902c-0.51575,0.23891 -1.06861,0.36554 -1.65816,0.37982c-0.60348,0.01455 -1.16889,-0.08497 -1.69527,-0.29857c-0.52679,-0.21367 -0.99026,-0.51134 -1.3907,-0.89267c-0.40044,-0.38147 -0.72004,-0.83019 -0.95895,-1.3458c-0.23905,-0.51562 -0.36568,-1.07537 -0.3803,-1.67879c-0.01407,-0.58976 0.08525,-1.15496 0.2985,-1.69541c0.21339,-0.54031 0.51079,-1.01082 0.89205,-1.41105c0.38195,-0.40037 0.83025,-0.72349 1.34573,-0.9693c0.51575,-0.24574 1.07537,-0.37595 1.67872,-0.39051c0.58983,-0.01421 1.14779,0.08883 1.67458,0.3094c0.52734,0.22056 0.99054,0.52162 1.39125,0.90309c0.40002,0.38133 0.72363,0.83653 0.96971,1.36587c0.24622,0.52927 0.37616,1.08889 0.39037,1.67858z"/>
     <path stroke="null" id="svg_52" d="m-69.78059,98.78409c0.0149,0.60362 -0.08814,1.16876 -0.30871,1.69554s-0.52182,0.9904 -0.90309,1.39077c-0.38154,0.40037 -0.82984,0.72004 -1.34587,0.95888c-0.51562,0.23898 -1.06847,0.36568 -1.65803,0.37988c-0.60348,0.01469 -1.16848,-0.08497 -1.69527,-0.29878c-0.52679,-0.21339 -0.99026,-0.51106 -1.3907,-0.89253c-0.4003,-0.3814 -0.72004,-0.82984 -0.95895,-1.34566c-0.23905,-0.51589 -0.36568,-1.07544 -0.38016,-1.67885c-0.01421,-0.58983 0.08552,-1.15496 0.29836,-1.6952c0.21339,-0.54045 0.51093,-1.01075 0.89247,-1.41132c0.3814,-0.40023 0.82984,-0.72342 1.34532,-0.96916c0.51575,-0.24581 1.07523,-0.37609 1.67872,-0.39064c0.58983,-0.01414 1.1482,0.0889 1.67499,0.30954c0.52693,0.22056 0.9904,0.52155 1.39084,0.90281c0.40044,0.38161 0.72363,0.83701 0.96971,1.36629c0.24608,0.52913 0.3763,1.08868 0.39037,1.67844z"/>
     <path stroke="null" id="svg_53" d="m-53.75167,98.39593c0.01462,0.60362 -0.08814,1.16889 -0.30871,1.69568s-0.52182,0.9904 -0.90336,1.39063c-0.3814,0.40057 -0.82984,0.72004 -1.34573,0.95902c-0.51548,0.23884 -1.06834,0.36554 -1.65816,0.38002c-0.60334,0.01455 -1.16862,-0.08497 -1.69513,-0.29864c-0.52679,-0.21381 -0.99013,-0.51134 -1.39084,-0.89281c-0.40002,-0.3814 -0.72004,-0.82998 -0.95895,-1.3458c-0.23877,-0.51562 -0.36554,-1.0753 -0.3803,-1.67886c-0.01407,-0.58969 0.08538,-1.15482 0.29878,-1.69513c0.21339,-0.54051 0.51093,-1.01089 0.89219,-1.41125c0.38154,-0.40037 0.82984,-0.72342 1.3456,-0.96916c0.51548,-0.24581 1.0751,-0.37609 1.67844,-0.39064c0.58983,-0.01428 1.14834,0.08883 1.67513,0.30947c0.52679,0.22056 0.99026,0.52148 1.3907,0.90302c0.4003,0.38133 0.72377,0.83674 0.96985,1.36587c0.24608,0.52927 0.37644,1.08889 0.39051,1.67858z"/>
    </g>
    <g stroke="null" id="svg_54" display="inline">
     <path stroke="null" id="svg_55" d="m-8.4161,107.42231l-16.52978,16.67903l13.31952,2.37289l-1.17276,7.39608l-22.84173,-2.35613l0.41989,-10.12672l18.7808,-15.75325l-15.29798,-0.48113l1.37263,-10.24935l22.81179,3.28715l-0.86239,9.23143z"/>
     <path stroke="null" id="svg_56" d="m-0.04513,132.12842c-0.07338,0.50996 -0.24043,0.97068 -0.50072,1.38277c-0.26043,0.41175 -0.57948,0.75901 -0.9573,1.04158c-0.37768,0.28278 -0.80046,0.48782 -1.26835,0.61555c-0.46775,0.1278 -0.95095,0.15566 -1.44905,0.08407c-0.50982,-0.07359 -0.97137,-0.23753 -1.38394,-0.49223c-0.41271,-0.25457 -0.76032,-0.57079 -1.04323,-0.94854c-0.2825,-0.37781 -0.48748,-0.80067 -0.61521,-1.26849c-0.12787,-0.46789 -0.15477,-0.95674 -0.08139,-1.4665c0.07173,-0.49817 0.23574,-0.95943 0.49175,-1.38374c0.25684,-0.42444 0.57369,-0.77791 0.95123,-1.06041c0.37768,-0.28271 0.80143,-0.49086 1.26987,-0.62431c0.46872,-0.13352 0.95785,-0.16346 1.46767,-0.08994c0.4981,0.07152 0.9533,0.23788 1.36518,0.49824c0.41175,0.26036 0.75894,0.57941 1.04185,0.9573c0.2825,0.37774 0.48982,0.80667 0.62169,1.28718c0.13187,0.4801 0.1618,0.9693 0.08994,1.46746z"/>
     <path stroke="null" id="svg_57" d="m13.14473,134.02915c-0.07394,0.50989 -0.24057,0.97068 -0.50113,1.38263c-0.26029,0.41182 -0.57962,0.75901 -0.9573,1.04178c-0.37781,0.28257 -0.8006,0.48768 -1.26849,0.61548c-0.46775,0.12766 -0.95081,0.15559 -1.44905,0.08394c-0.50982,-0.07359 -0.97095,-0.23739 -1.38353,-0.49224c-0.41313,-0.25457 -0.76073,-0.57072 -1.04323,-0.94847c-0.2825,-0.37788 -0.48789,-0.80074 -0.61562,-1.26842c-0.12773,-0.46803 -0.15477,-0.95688 -0.08138,-1.46657c0.07214,-0.4981 0.23615,-0.9595 0.4923,-1.38367c0.25629,-0.42444 0.57328,-0.77798 0.95095,-1.06048c0.37782,-0.28264 0.80115,-0.49079 1.26987,-0.62431c0.46844,-0.13346 0.95799,-0.16353 1.46739,-0.08994c0.49851,0.07159 0.9533,0.23781 1.36518,0.49817c0.41202,0.26036 0.75935,0.57948 1.04185,0.9573c0.28277,0.37788 0.48996,0.80681 0.62169,1.28697c0.13228,0.48037 0.16208,0.96964 0.09049,1.46781z"/>
     <path stroke="null" id="svg_58" d="m26.68454,135.9803c-0.07352,0.50996 -0.24043,0.97068 -0.50058,1.38249c-0.26057,0.41202 -0.57976,0.75929 -0.95757,1.04178c-0.37782,0.28257 -0.80046,0.48789 -1.26835,0.61555c-0.46775,0.1278 -0.95068,0.15573 -1.44905,0.08387c-0.50982,-0.07332 -0.97081,-0.23739 -1.38394,-0.49196c-0.41244,-0.25464 -0.76032,-0.571 -1.04282,-0.94874c-0.28291,-0.37788 -0.48789,-0.80074 -0.61562,-1.26842c-0.12787,-0.46782 -0.15477,-0.95661 -0.08125,-1.46636c0.07187,-0.4983 0.23574,-0.95943 0.49217,-1.38387c0.25629,-0.4243 0.57314,-0.77777 0.95095,-1.06048c0.37795,-0.2825 0.80101,-0.49065 1.26945,-0.6241c0.46899,-0.13366 0.9584,-0.1636 1.46781,-0.09014c0.49837,0.07173 0.9533,0.23781 1.36532,0.49831c0.41188,0.26036 0.75935,0.57934 1.04185,0.95723c0.28264,0.37782 0.48996,0.80687 0.62169,1.28711c0.13201,0.48037 0.1618,0.9695 0.08994,1.46774z"/>
    </g>
   </g>
   <g stroke="null" id="svg_59" display="none">
    <g stroke="null" id="svg_60" display="inline">
     <polygon stroke="null" id="svg_61" points="-321.41165351867676,274.5483989715576 -254.03698921203613,353.6218852996826 -258.3401508331299,357.06881523132324 -321.7962055206299,274.95724296569824 "/>
     <polygon stroke="null" id="svg_62" points="-477.15933418273926,153.54382133483887 -531.7790546417236,65.1776065826416 -527.0032978057861,62.42227363586426 -476.717134475708,153.19816398620605 "/>
     <polygon stroke="null" id="svg_63" points="-453.71133613586426,175.1601848602295 -500.4042377471924,82.36067771911621 -495.40625190734863,80.03327751159668 -453.24075508117676,174.85430717468262 "/>
     <polygon stroke="null" id="svg_64" points="-433.5696430206299,170.6298656463623 -466.3639850616455,72.05758476257324 -461.0818500518799,70.47661018371582 -433.0596332550049,170.39513969421387 "/>
     <polygon stroke="null" id="svg_65" points="-421.7783832550049,162.77271842956543 -445.090913772583,61.538015365600586 -439.68298530578613,60.46444129943848 -421.24853706359863,162.58747673034668 "/>
     <polygon stroke="null" id="svg_66" points="-415.37243843078613,178.262357711792 -415.3664264678955,74.37821006774902 -409.85547065734863,74.54588508605957 -414.81482124328613,178.20094108581543 "/>
     <polygon stroke="null" id="svg_67" points="-399.47000312805176,169.225492477417 -388.0885944366455,65.9666576385498 -382.62893867492676,66.73670768737793 -398.90881538391113,169.2254467010498 "/>
     <polygon stroke="null" id="svg_68" points="-388.9703998565674,162.23380851745605 -360.1677875518799,62.42227363586426 -354.91922187805176,64.11100959777832 -388.41739082336426,162.3293285369873 "/>
     <polygon stroke="null" id="svg_69" points="-375.37832832336426,157.45930290222168 -324.9529438018799,66.63436698913574 -320.2157917022705,69.45558738708496 -374.8610553741455,157.6761302947998 "/>
     <polygon stroke="null" id="svg_70" points="-369.10583686828613,164.07873344421387 -304.56653022766113,82.67448234558105 -300.35220527648926,86.22929191589355 -368.63076972961426,164.3768138885498 "/>
     <polygon stroke="null" id="svg_71" points="-350.3102741241455,163.3979320526123 -271.8203754425049,95.34457206726074 -268.33645820617676,99.61800956726074 -349.8985004425049,163.77892875671387 "/>
     <polygon stroke="null" id="svg_72" points="-346.3324909210205,173.905424118042 -261.78601264953613,113.54149436950684 -258.71985054016113,118.12383079528809 -345.95828437805176,174.3235149383545 "/>
     <polygon stroke="null" id="svg_73" points="-333.2883014678955,179.84907341003418 -237.75177192687988,139.04800987243652 -235.74102973937988,144.1816463470459 -333.0121479034424,180.337797164917 "/>
     <polygon stroke="null" id="svg_74" points="-310.72207832336426,186.9043254852295 -208.47050666809082,168.55746269226074 -207.66189765930176,174.01130485534668 -310.56289863586426,187.44233512878418 "/>
     <polygon stroke="null" id="svg_75" points="-315.24441719055176,209.36478996276855 -211.36210823059082,209.99102592468262 -211.56225776672363,215.50085258483887 -315.18615913391113,209.92289543151855 "/>
     <polygon stroke="null" id="svg_76" points="-317.98193550109863,224.55958366394043 -217.07141304016113,249.2374095916748 -218.54280281066895,254.55084037780762 -318.05459785461426,225.11604118347168 "/>
     <polygon stroke="null" id="svg_77" points="-313.3488178253174,246.4083080291748 -215.8203296661377,282.18746757507324 -217.87573432922363,287.303861618042 -313.48315620422363,246.9531536102295 "/>
     <polygon stroke="null" id="svg_78" points="-313.4394245147705,274.17931938171387 -223.69124031066895,326.49789237976074 -226.61139106750488,331.1745891571045 -313.66723823547363,274.69210624694824 "/>
     <polygon stroke="null" id="svg_79" points="-334.9995746612549,270.5136547088623 -298.63089179992676,367.82382011413574 -303.85159492492676,369.59664726257324 -335.50061225891113,270.76661491394043 "/>
     <polygon stroke="null" id="svg_80" points="-487.6647357940674,283.8772563934326 -585.1641864776611,319.7352886199951 -586.9093647003174,314.5051555633545 -487.91516304016113,283.37508964538574 "/>
     <polygon stroke="null" id="svg_81" points="-497.4424457550049,267.3753032684326 -598.4755878448486,291.54601860046387 -599.5949115753174,286.1473979949951 -497.63195991516113,266.8469829559326 "/>
     <polygon stroke="null" id="svg_82" points="-497.3344135284424,245.39098930358887 -599.3608417510986,264.9508647918701 -600.2340106964111,259.50695610046387 -497.50012397766113,244.85482597351074 "/>
     <polygon stroke="null" id="svg_83" points="-499.85717964172363,238.09554862976074 -603.5928363800049,232.54098320007324 -603.1309833526611,227.046781539917 -499.88903999328613,237.53524589538574 "/>
     <polygon stroke="null" id="svg_84" points="-498.36401557922363,226.86164665222168 -599.0841083526611,201.41700553894043 -597.5720844268799,196.114896774292 -498.28686714172363,226.30561637878418 "/>
     <polygon stroke="null" id="svg_85" points="-497.3405170440674,214.34493827819824 -592.6427631378174,172.99909782409668 -590.2957782745361,168.00993156433105 -497.17517280578613,213.80889701843262 "/>
     <polygon stroke="null" id="svg_86" points="-496.6519184112549,201.5196361541748 -578.7481098175049,137.86373710632324 -575.2389545440674,133.6109676361084 -496.3584613800049,201.04127311706543 "/>
     <polygon stroke="null" id="svg_87" points="-503.55102729797363,177.6644115447998 -575.3878192901611,102.6216869354248 -571.2913837432861,98.93169975280762 -503.19079780578613,177.23425102233887 "/>
     <polygon stroke="null" id="svg_88" points="-496.7677631378174,158.64918327331543 -559.1409320831299,75.5740795135498 -554.6334857940674,72.3989086151123 -496.3584613800049,158.2649974822998 "/>
     <polygon stroke="null" id="svg_89" points="-450.2103900909424,167.08636283874512 -487.5451374053955,70.14293479919434 -482.3422260284424,68.3185977935791 -449.7122211456299,166.82841300964355 "/>
    </g>
    <path stroke="null" id="svg_90" d="m-373.45806,75.38047c0,0 18.18725,28.91732 61.94094,9.30364c0,0 3.64587,29.42045 28.91711,40.73614c0,0 -29.54625,18.48189 -20.61939,44.25606c0,0 -29.46183,-5.10029 -38.74485,12.57286c0,0 -43.45284,-35.91476 -62.79409,-32.48973c0,0 8.20295,-21.27246 -5.60432,-36.57314c0,0 28.02147,-8.63698 36.9046,-37.80583z" fill="#DD0000"/>
    <path stroke="null" id="svg_91" d="m-359.72458,96.31022c0,0 17.83371,5.39928 37.14076,-0.81812c0,0 7.52636,21.35185 23.39679,29.12361c0,0 -15.78891,18.81557 -13.58023,35.17699c0,0 -14.01763,1.22717 -19.64803,4.25418c0,0 -33.44482,-24.50093 -50.70609,-30.45265c0,0 0.16346,-9.53269 -1.79983,-17.84558c0,0 16.36163,-6.43113 25.19662,-19.43843z" fill="#FF2C2C"/>
    <path stroke="null" id="svg_92" d="m-393.99468,115.74865c15.24612,-5.77737 24.2974,-20.75844 29.1174,-31.88873c-5.85275,-4.16555 -8.58077,-8.47966 -8.58077,-8.47966c-8.88313,29.16885 -36.9046,37.80604 -36.9046,37.80604c13.80728,15.30047 5.60432,36.57293 5.60432,36.57293c19.34125,-3.42475 62.79409,32.48994 62.79409,32.48994c2.02067,-3.84698 4.99808,-6.61314 8.41869,-8.58946c-17.9071,-18.06945 -59.69502,-35.92751 -59.69502,-35.92751c2.3891,-5.54128 -0.75411,-21.98354 -0.75411,-21.98354z" fill="#C40000"/>
    <g stroke="null" id="svg_93" display="inline">
     <path stroke="null" id="svg_94" d="m-540.36752,284.40607c0,0 -5.09367,-24.76832 -16.23211,-24.18042c-11.13857,0.58762 -20.48601,19.73051 16.23211,24.18042z" fill="#CD2606"/>
     <path stroke="null" id="svg_95" d="m-540.91872,282.09449c-3.18239,-2.81561 -16.04492,-5.46873 -20.77457,-9.38675c-2.1604,-1.7899 -3.45041,-4.07803 -4.22093,-6.03979c-2.50152,6.16201 2.22454,14.91175 25.54671,17.73812c0,0 -0.18194,-0.88419 -0.5512,-2.31158z" fill="#BC1A04"/>
     <path stroke="null" id="svg_96" d="m-540.36752,284.40607c0,0 11.88717,-22.31549 0.82198,-28.32549c-11.06491,-6.01 -22.81938,10.03175 -0.82198,28.32549z" fill="#CD2606"/>
     <path stroke="null" id="svg_97" d="m-539.49009,275.0574c0,0 5.60915,-13.7401 -0.34002,-17.10416c-5.94876,-3.36433 -11.6586,6.58824 0.34002,17.10416z" fill="#E22C14"/>
     <path stroke="null" id="svg_98" d="m-547.94395,255.64194c-6.5412,3.22887 -8.50697,15.38847 7.57644,28.76414c0,0 0.93992,-1.78686 2.04081,-4.44274c-11.33003,-10.04278 -12.60872,-19.25628 -9.61724,-24.3214z" fill="#BC1A04"/>
     <path stroke="null" id="svg_99" d="m-540.36752,284.40607c0,0 -17.63522,-10.63151 -24.22608,-6.09801c-6.59155,4.53378 -0.08497,26.13943 24.22608,6.09801z" fill="#CD2606"/>
     <path stroke="null" id="svg_100" d="m-565.18453,278.79389c-5.5657,5.38679 1.28256,25.01358 24.81701,5.61218c0,0 -0.58141,-0.34871 -1.54423,-0.8806c-17.50239,12.60928 -24.54431,2.06605 -23.27279,-4.73158z" fill="#BC1A04"/>
     <path stroke="null" id="svg_101" d="m-546.84513,283.18531c0,0 -10.2759,-6.20119 -14.94831,-3.89347c-4.67282,2.308 3.16239,14.37379 14.94831,3.89347z" fill="#E22C14"/>
     <path stroke="null" id="svg_102" d="m-550.67307,274.83311c0,0 -3.24998,-6.0729 -4.06203,-10.03341c-0.8126,-3.96078 -6.96757,-0.68721 -8.42973,1.37249c-1.46188,2.05998 4.40811,7.58582 8.67333,8.8852c4.26549,1.29883 4.4277,0.96419 3.81843,-0.22429z" fill="#E22C14"/>
    </g>
    <path stroke="null" id="svg_103" d="m-419.51132,137.73233c0,0 -4.40894,-40.29687 -29.43369,-45.69994c-25.02434,-5.403 -41.09133,17.91544 -35.26148,37.82107c0,0 -15.0719,-5.97172 -30.42782,3.98133c-15.35619,9.95285 -12.37023,36.39926 0,46.06775c0,0 -16.49336,2.70167 -15.64049,19.05289c0.85315,16.35122 27.86836,31.29718 27.86836,31.29718l79.09517,-42.056l19.32718,-23.64998l-15.52724,-26.8143z" fill="#CD2606"/>
    <g stroke="null" id="svg_104" display="inline">
     <g stroke="null" id="svg_105">
      <path stroke="null" id="svg_106" d="m-448.94502,92.03239c-25.02434,-5.403 -41.09133,17.91544 -35.26148,37.82107c0,0 2.3302,-22.78165 21.24081,-30.20181c11.4688,-4.49984 25.01399,2.40621 33.89795,8.48366c-4.42688,-7.56754 -10.78628,-14.14026 -19.87728,-16.10293z" fill="#BC1A04"/>
      <path stroke="null" id="svg_107" d="m-530.2748,198.95543c0.85357,16.35122 27.86836,31.29718 27.86836,31.29718l0.67673,-0.35988c0.8944,-4.67034 -1.16227,-9.84043 -9.11763,-14.97948c-25.16131,-16.25411 -3.78698,-35.0107 -3.78698,-35.0107s-16.49336,2.70147 -15.64049,19.05289z" fill="#BC1A04"/>
      <path stroke="null" id="svg_108" d="m-514.63431,133.83459c-15.35619,9.95306 -12.37023,36.39947 0,46.06796c0,0 -12.26388,-19.08144 -2.27944,-33.99471c9.9843,-14.9132 32.70726,-16.05437 32.70726,-16.05437s-15.07218,-5.97172 -30.42782,3.98113z" fill="#BC1A04"/>
     </g>
    </g>
    <path stroke="null" id="svg_109" d="m-426.58387,157.21083c0,0 -28.59861,-11.75433 -54.85778,5.03781c-26.2593,16.79179 -33.31171,55.87473 -35.15857,79.4045c-1.84755,23.53004 -12.09049,38.47463 -24.85246,41.49714c0,0 3.72504,63.80946 92.37124,79.92984c88.64592,16.11982 148.92898,-33.40854 156.82116,-88.15403c7.89232,-54.74549 -53.16692,-118.38681 -127.25104,-137.19375c0,0 0.32788,8.73174 -7.07254,19.4785z" fill="#FECE00"/>
    <path stroke="null" id="svg_110" d="m-301.60868,248.63464c-1.18186,-29.59646 -78.81515,-89.76171 -96.00593,-92.04426c-17.19037,-2.28275 -16.89201,6.84798 -36.36264,13.04378c-19.46995,6.19601 -42.52245,27.19736 -47.46439,48.7357c-4.94194,21.53848 -8.85472,50.07198 -12.44196,60.83343c-3.58724,10.76117 3.73966,26.53697 12.44196,32.14723c0,0 34.71331,28.3437 92.25206,16.76703c57.53972,-11.57639 88.76207,-49.88618 87.5809,-79.48292zm-48.79218,29.59012c-10.76117,4.23914 -35.54425,-12.06552 -40.85628,-11.41335c-5.31189,0.65218 -7.89521,16.46798 -20.2133,24.78377c-12.3185,8.31524 -37.61127,-2.60898 -37.61127,-2.60898c-10.96022,-5.54377 -18.87695,-18.58783 -15.45303,-26.90693c3.42378,-8.31938 27.71828,-14.83368 33.07004,-22.63565c4.89007,-7.12882 -9.1019,-31.81907 4.88083,-37.52574s32.32324,14.67436 37.39429,18.76287c5.07202,4.08851 19.54899,-2.62112 32.59305,0.7988c13.04392,3.4202 16.95725,52.50605 6.19567,56.74519z" fill="#FFDA3E"/>
    <path stroke="null" id="svg_111" d="m-368.07375,231.16715c0,0 -12.41009,3.54282 -15.00969,11.01691c-2.59987,7.47422 6.28229,17.50694 6.28229,17.50694s-13.48588,-8.08157 -14.40635,-15.47537c-0.92088,-7.39353 11.1714,-12.04193 23.13374,-13.04848z" fill="#FCC000"/>
    <path stroke="null" id="svg_112" d="m-481.44164,188.19661c14.72581,-25.64541 54.85778,-30.98578 54.85778,-30.98578s-28.59861,-11.75433 -54.85778,5.0376c-26.2593,16.792 -33.31171,55.87494 -35.15857,79.4047c-1.84755,23.53004 -12.09049,38.4749 -24.85246,41.49714c0,0 3.72504,63.80919 92.37097,79.92984c72.56183,13.19524 126.0976,-17.60405 147.47303,-59.23817c-19.63989,15.18487 -50.43766,32.87306 -91.32884,37.64713c-75.34902,8.7972 -129.66332,-35.02877 -115.94184,-61.05896c13.72093,-26.02991 12.71232,-66.58838 27.43772,-92.23351z" fill="#FCC000"/>
    <g stroke="null" id="svg_113" display="inline">
     <path stroke="null" id="svg_114" d="m-423.10394,227.20996c0,0 1.98191,-5.19561 9.58414,-6.25112c7.60237,-1.05551 11.8124,0.86543 13.72589,6.25112c1.91377,5.38596 1.27207,14.08081 -7.33628,14.43586c-8.60794,0.35492 -17.67357,-11.95269 -15.97375,-14.43586z" fill="#660000"/>
     <path stroke="null" id="svg_115" d="m-409.55586,235.22904c-6.38906,-1.00654 -10.88145,-6.57638 -12.76432,-9.36371c-0.2625,0.37547 -0.4541,0.68611 -0.57438,0.91812c-0.03752,0.85964 0.32567,2.81451 0.77908,4.5353c2.5596,4.46522 8.87748,10.57895 14.98528,10.3268c7.91273,-0.32609 9.08728,-7.69341 7.74017,-13.06558c-2.08219,3.58366 -5.44721,7.39215 -10.16583,6.64907z" fill="#540000"/>
     <g stroke="null" id="svg_116">
      <path stroke="null" id="svg_117" d="m-422.77248,228.4423c0,0 11.34727,13.39153 17.76102,10.2199c6.41375,-3.17177 0.77535,-17.18237 0.77535,-17.18237l7.59368,4.88897c0,0 4.10658,18.56603 -6.53651,21.87864c-10.64282,3.3126 -21.28509,-15.71718 -21.28509,-15.71718l1.69155,-4.08796z" fill="#FF8B00"/>
      <path stroke="null" id="svg_118" d="m-402.51242,245.49804c-9.69007,3.01604 -19.3516,-12.44513 -21.00893,-15.24543l-0.94268,2.27765c0,0 10.64227,19.02978 21.28495,15.71718c4.33639,-1.34946 6.20353,-5.23575 6.91805,-9.36206c-1.01509,3.01204 -2.90017,5.56942 -6.25139,6.61266z" fill="#FF7300"/>
      <path stroke="null" id="svg_119" d="m-417.52638,235.66189c0,0 7.06054,7.27118 12.9664,5.14471c5.90613,-2.12605 3.35992,-12.56983 4.61999,-12.87329c1.2598,-0.30319 3.25481,6.47237 1.83735,11.51032c-1.4176,5.03794 -8.35538,6.56024 -13.86356,2.25571c-5.50776,-4.30494 -10.4166,-10.57826 -5.56018,-6.03745z" fill="#FFA039"/>
     </g>
     <path stroke="null" id="svg_120" d="m-423.68025,232.29977c0,0 4.79724,-8.38131 10.37908,-9.27129c5.58198,-0.88971 14.17295,3.82008 16.65875,3.34033c2.48621,-0.47961 -11.94855,-18.18518 -22.50254,-15.08914c-10.55357,3.09645 -7.71782,25.42022 -4.5353,21.02011z" fill="#FF8B00"/>
     <path stroke="null" id="svg_121" d="m-415.30777,221.89434c-7.85176,2.83465 -8.37248,10.40529 -9.28936,2.87879c-0.51506,-4.22659 1.26876,-8.92493 3.01024,-12.27877c-7.61202,5.55453 -5.00015,23.82454 -2.09336,19.80528c0,0 4.79724,-8.38117 10.37908,-9.27115c5.58225,-0.88971 14.1735,3.82008 16.65875,3.34033c0.46913,-0.09076 0.33285,-0.79701 -0.26374,-1.85914c-5.63205,-2.06329 -13.6612,-4.32687 -18.40161,-2.61532z" fill="#FF7300"/>
     <path stroke="null" id="svg_122" d="m-423.44548,222.50913c0,0 0.06538,-6.97268 4.72082,-9.48468c4.65544,-2.51187 18.5361,8.03853 18.23291,8.86989c-0.30319,0.83122 -6.75597,-3.67276 -15.30667,-1.71072c-4.32039,0.99178 -7.64706,6.61307 -7.64706,2.32551z" fill="#FFA039"/>
     <path stroke="null" id="svg_123" d="m-416.73475,227.09961c0,0 1.96811,-1.55857 4.18769,-1.92066c2.21971,-0.36209 7.38346,-0.01573 8.31206,1.76314c0.92916,1.77914 -0.76887,6.09249 -4.32797,6.45472c-3.55882,0.36195 -10.78503,-4.31363 -8.17178,-6.29719z" fill="#770101"/>
    </g>
    <path stroke="null" id="svg_124" d="m-368.07375,231.16715c0,0 -20.12985,3.20198 -20.12985,13.755c0,10.55316 29.7275,23.49542 29.7275,23.49542s-27.23495,-7.10496 -32.78133,-18.62535c-9.32192,-19.36153 23.18368,-18.62507 23.18368,-18.62507z" fill="#F99300"/>
    <g stroke="null" id="svg_125" display="inline">
     <path stroke="null" id="svg_126" d="m-458.72172,231.16715c0,7.44594 -6.03593,13.48202 -13.48147,13.48202c-7.44663,0 -13.48229,-6.03607 -13.48229,-13.48202c0,-7.44622 6.03566,-13.48215 13.48229,-13.48215c7.44553,0 13.48147,6.03593 13.48147,13.48215z" fill="#FFFFFF"/>
     <path stroke="null" id="svg_127" d="m-462.96569,231.16715c0,5.10181 -4.13596,9.23777 -9.2375,9.23777c-5.10264,0 -9.23846,-4.13596 -9.23846,-9.23777c0,-5.10209 4.13582,-9.23791 9.23846,-9.23791c5.10154,0 9.2375,4.13582 9.2375,9.23791z"/>
    </g>
    <g stroke="null" id="svg_128" display="inline">
     <path stroke="null" id="svg_129" d="m-362.225,197.43459c0,7.44581 -6.0358,13.48188 -13.48243,13.48188c-7.44553,0 -13.48174,-6.03607 -13.48174,-13.48188c0,-7.44622 6.03621,-13.48229 13.48174,-13.48229c7.44663,0 13.48243,6.03607 13.48243,13.48229z" fill="#FFFFFF"/>
     <path stroke="null" id="svg_130" d="m-366.4691,197.43459c0,5.10167 -4.13596,9.23764 -9.23832,9.23764c-5.10154,0 -9.2375,-4.13596 -9.2375,-9.23764c0,-5.10209 4.13596,-9.23798 9.2375,-9.23798c5.10236,0 9.23832,4.13589 9.23832,9.23798z"/>
    </g>
    <ellipse stroke="null" id="svg_131" ry="53.00671" rx="59.03116" cy="-313.43586" cx="-4021.44045" fill="#FF9999" transform="matrix(0.1403781338470765,-0.015665332521891107,0.015665332521891107,0.1403781338470765,77.73218877708769,233.1508494773585) "/>
    <path stroke="null" id="svg_132" d="m-335.68595,202.49267c0.45865,4.10975 -2.87961,7.85507 -7.45643,8.366c-4.57613,0.51065 -8.65829,-2.40676 -9.11708,-6.51651c-0.45878,-4.10962 2.87989,-7.85514 7.45629,-8.366c4.57709,-0.51051 8.65857,2.40683 9.11721,6.51651z" fill="#FF9999"/>
    <g stroke="null" id="svg_133" display="inline">
     <path stroke="null" id="svg_134" d="m-466.41637,321.90202c0,0 4.14341,-11.41969 14.96872,-10.49853c10.82559,0.92143 19.38346,20.76257 13.47181,27.61924c-5.91137,6.85667 -33.82194,-1.13579 -28.44053,-17.12071z" fill="#FF8B00"/>
     <path stroke="null" id="svg_135" d="m-458.33273,320.46856c0,0 1.73472,-5.35672 9.26757,-4.07858c7.53312,1.27869 12.22263,15.60835 8.83458,19.16441c-3.01024,3.15963 -22.80766,-4.19748 -18.10214,-15.08583z" fill="#FFA039"/>
     <path stroke="null" id="svg_136" d="m-461.90618,320.25365c0,0 2.0775,-5.72226 7.13103,-8.73843c-8.35731,1.33718 -11.64122,10.3868 -11.64122,10.3868c-5.18816,15.41082 20.5667,23.39224 27.72008,17.80157c-9.91685,1.27511 -27.58945,-6.43982 -23.20989,-19.44994z" fill="#FF7300"/>
    </g>
    <g stroke="null" id="svg_137" display="inline">
     <path stroke="null" id="svg_138" d="m-328.15669,271.70162c0,0 9.81712,-7.15545 18.28036,-0.34264s4.47419,28.04961 -4.25983,30.43292c-8.73333,2.38331 -27.41495,-19.84031 -14.02053,-30.09028z" fill="#FF8B00"/>
     <path stroke="null" id="svg_139" d="m-320.65157,275.02953c0,0 4.43198,-3.47303 9.96485,1.79624c5.53273,5.26899 1.41567,19.7741 -3.38088,20.82989c-4.26273,0.93826 -16.57047,-16.22521 -6.58396,-22.62613z" fill="#FFA039"/>
     <path stroke="null" id="svg_140" d="m-323.49504,272.85506c0,0 4.92042,-3.58531 10.7969,-3.26281c-7.67865,-3.56076 -15.45854,2.10936 -15.45854,2.10936c-12.91329,9.88195 3.98644,30.89171 13.04296,30.2525c-8.9372,-4.48384 -19.2829,-20.75678 -8.38131,-29.09905z" fill="#FF7300"/>
    </g>
    <path stroke="null" id="svg_141" d="m-451.82077,259.30449c0,0 5.62736,5.97662 18.14794,0.3865c12.52072,-5.59011 20.01881,-6.51155 22.56447,-3.10087c0,0 -3.77194,-10.39701 -10.42225,-8.63981c-6.65059,1.75748 -19.95577,11.50618 -30.29016,11.35417z" fill="#FCC000"/>
    <path stroke="null" id="svg_142" d="m-451.82077,259.30449c0,0 9.50193,0.64693 16.61627,-3.18391s13.08875,-8.0595 17.91262,-5.373c4.82317,2.6865 7.56954,18.35774 5.32569,24.17849c0,0 4.07527,-6.91516 3.40323,-14.925c-0.6719,-8.00956 -7.99867,-16.36784 -14.88251,-13.83059c-6.88315,2.53752 -11.65957,8.70643 -28.37529,13.134z" fill="#F99300"/>
    <path stroke="null" id="svg_143" d="m-451.82077,265.77548c0.40168,-0.00662 15.26736,0.20608 27.35675,-5.45852c12.08897,-5.66433 14.8992,15.45716 2.93341,24.6279c-11.96593,9.17046 -40.864,-18.99199 -30.29016,-19.16938z" fill="#FFDA3E"/>
    <path stroke="null" id="svg_144" d="m-363.07429,233.41652c0,0 -10.48046,0.681 -15.21191,8.90617s15.87553,23.12754 22.46419,21.49158c6.58934,-1.63623 -0.83991,-30.5921 -7.25228,-30.39775z" fill="#FFDA3E"/>
    <path stroke="null" id="svg_145" d="m-429.40748,139.86224c0,0 3.06473,-26.97155 -15.24694,-33.59104c-18.31126,-6.61955 -35.36369,17.17968 -34.99374,24.73866c0.37009,7.55933 -15.22405,2.85465 -29.17892,12.68666c-13.95529,9.83215 -3.64738,31.92797 -1.79721,34.99394c1.85004,3.06583 -9.19791,9.40916 -9.62083,15.85808c-0.42278,6.44913 3.80601,9.77925 5.60294,10.04354c1.79776,0.26429 3.33067,-25.21448 26.21902,-43.24c22.88904,-18.02559 53.12512,-11.62936 55.39822,-12.26374s3.61745,-9.22612 3.61745,-9.22612z" fill="#E22C14"/>
    <g stroke="null" id="svg_146" display="inline">
     <path stroke="null" id="svg_147" d="m-358.89873,106.37404l-8.02763,28.04251l-10.02196,-2.04233l4.77752,-28.70489l13.27207,2.70471zm-9.29447,36.47355c-0.16194,0.79453 -0.4661,1.5036 -0.91288,2.1273c-0.44651,0.62369 -0.97992,1.14041 -1.59954,1.55002c-0.61948,0.40982 -1.30242,0.69376 -2.04963,0.85191c-0.7468,0.15815 -1.5085,0.15815 -2.28496,-0.00014c-0.79439,-0.16194 -1.50464,-0.46168 -2.13005,-0.89971c-0.62555,-0.43761 -1.14324,-0.96619 -1.55319,-1.58568c-0.40926,-0.61969 -0.69356,-1.30297 -0.85164,-2.04991c-0.15794,-0.7468 -0.15615,-1.51754 0.00566,-2.312c0.15794,-0.77653 0.45809,-1.4865 0.89978,-2.13005c0.44127,-0.64362 0.97178,-1.17021 1.5914,-1.58002c0.61962,-0.40975 1.30339,-0.69832 2.05253,-0.86543c0.74846,-0.16718 1.51995,-0.16966 2.31489,-0.00772c0.77604,0.15808 1.47636,0.46072 2.1004,0.9075c0.62307,0.44692 1.13993,0.98006 1.54961,1.59947c0.40995,0.61955 0.69632,1.31256 0.85964,2.0795c0.16387,0.7668 0.16635,1.53843 0.008,2.31496z" fill="#FFDD4D"/>
     <path stroke="null" id="svg_148" d="m-372.81829,146.64546c-0.79481,-0.16194 -1.50436,-0.46168 -2.13019,-0.89943c-0.62528,-0.43789 -1.1431,-0.96675 -1.55264,-1.58616c-0.40996,-0.61948 -0.6937,-1.30256 -0.85191,-2.04943c-0.15794,-0.74708 -0.15615,-1.51781 0.00565,-2.31227c0.15835,-0.77653 0.45851,-1.4865 0.89964,-2.13005c0.4414,-0.64362 0.97219,-1.17021 1.59099,-1.57988c0.1218,-0.08035 0.24636,-0.1547 0.37299,-0.2256c-0.18222,0.02124 -0.36278,0.05111 -0.54196,0.09125c-0.74915,0.16711 -1.43291,0.45568 -2.05253,0.86543c-0.61962,0.40982 -1.15014,0.9364 -1.59195,1.58002c-0.44113,0.64355 -0.74128,1.35353 -0.89922,2.12978c-0.1618,0.79474 -0.1636,1.56547 -0.00566,2.31227c0.15808,0.74694 0.44237,1.43022 0.85164,2.0497c0.40995,0.61941 0.92764,1.14827 1.55319,1.58588c0.62542,0.43802 1.33566,0.73777 2.13005,0.89971c0.77632,0.15808 1.53816,0.15828 2.28496,0.00014c0.61686,-0.13042 1.18903,-0.34816 1.71858,-0.65011c-0.585,0.06794 -1.17883,0.04159 -1.78162,-0.08125z" fill="#FFBF3E"/>
     <ellipse stroke="null" id="svg_149" ry="20.11287" rx="30.10836" cy="2916.89156" cx="-5982.55869" fill="#FFEA83" transform="matrix(0.0643689094424957,0.1257301367385708,-0.1257301367385708,0.0643689094424957,379.6956225087803,705.4200423354496) "/>
     <path stroke="null" id="svg_150" d="m-366.92637,134.41655l0.50927,-1.77803c-2.75023,-0.79232 -6.61017,-2.09598 -6.99075,-3.26081c-0.45975,-1.40767 2.40138,-17.76068 3.7398,-25.19842l-2.50276,-0.50996l-4.77752,28.70489l10.02196,2.04233z" fill="#FFBF3E"/>
     <path stroke="null" id="svg_151" d="m-367.18059,106.39163c0,0 5.14278,0.8255 5.38776,1.82921c0.24498,1.00378 -5.01712,21.31702 -5.60874,21.79636c-0.59162,0.47886 -3.67497,-0.63011 -3.9834,-1.37408c-0.58514,-1.41236 2.09364,-22.03437 4.20438,-22.25149z" fill="#FFEA83"/>
     <path stroke="null" id="svg_152" d="m-332.41528,106.06802l-13.71858,32.83961l-11.85434,-3.90105l9.87436,-34.10493l15.69856,5.16637zm-16.45336,42.87605c-0.3094,0.93964 -0.77949,1.75562 -1.40946,2.44773c-0.63011,0.69211 -1.34973,1.24255 -2.15875,1.65092c-0.80929,0.40823 -1.67761,0.65528 -2.60512,0.74059c-0.92764,0.08531 -1.85059,-0.02317 -2.76926,-0.32547c-0.9395,-0.30926 -1.75734,-0.7737 -2.45297,-1.39311c-0.69563,-0.61969 -1.24752,-1.33373 -1.6561,-2.14302c-0.40844,-0.80887 -0.65521,-1.6772 -0.74087,-2.60484c-0.08497,-0.92771 0.0269,-1.86142 0.33616,-2.80106c0.30236,-0.9186 0.7668,-1.73624 1.39318,-2.45318c0.62652,-0.71701 1.34449,-1.27987 2.15323,-1.68823c0.80929,-0.40837 1.67941,-0.66045 2.61036,-0.75653c0.93123,-0.09614 1.86673,0.01062 2.80664,0.31995c0.9184,0.30222 1.72355,0.76839 2.416,1.39863c0.69176,0.63011 1.24214,1.34966 1.65044,2.15888c0.40844,0.80901 0.657,1.68982 0.74611,2.64243c0.08925,0.95247 -0.01738,1.88783 -0.31961,2.8063z" fill="#FFDD4D"/>
     <path stroke="null" id="svg_153" d="m-355.01437,152.88803c-0.9395,-0.30926 -1.75734,-0.77349 -2.45297,-1.39304c-0.69576,-0.61969 -1.24793,-1.33394 -1.65623,-2.14302c-0.40844,-0.80894 -0.65521,-1.6772 -0.7406,-2.60491c-0.08525,-0.92757 0.02662,-1.86121 0.33574,-2.80113c0.30222,-0.9184 0.76735,-1.73617 1.39332,-2.4529c0.62693,-0.71721 1.34449,-1.27994 2.15323,-1.68844c0.15863,-0.08001 0.32029,-0.15222 0.48361,-0.22008c-0.22387,-0.00048 -0.44692,0.01035 -0.66956,0.03338c-0.93136,0.09607 -1.80148,0.3483 -2.61077,0.75653c-0.80874,0.40837 -1.52671,0.97102 -2.15323,1.68823c-0.62638,0.71708 -1.09082,1.53457 -1.39318,2.4529c-0.30926,0.93992 -0.42113,1.87363 -0.33616,2.80133c0.08566,0.9275 0.33243,1.79596 0.74087,2.60484c0.40858,0.80908 0.96047,1.52333 1.6561,2.14302c0.69563,0.61941 1.51347,1.08386 2.45297,1.39311c0.91867,0.30229 1.84162,0.41078 2.76926,0.32519c0.7657,-0.07014 1.49043,-0.25243 2.1753,-0.54293c-0.71866,-0.00104 -1.43443,-0.11752 -2.14771,-0.35209z" fill="#FFBF3E"/>
     <path stroke="null" id="svg_154" d="m-351.57307,150.99406c-1.79417,0.66783 -4.05913,-0.96812 -5.05877,-3.65414c-0.99951,-2.68581 -0.35547,-5.40431 1.4387,-6.07221c1.79417,-0.66783 4.05885,0.96813 5.0585,3.65407c1.00006,2.68588 0.35575,5.40459 -1.43843,6.07228z" fill="#FFEA83"/>
     <path stroke="null" id="svg_155" d="m-346.13386,138.90764l0.86957,-2.08226c-3.21963,-1.35173 -7.71175,-3.48061 -8.00694,-4.94608c-0.35657,-1.77127 5.43742,-21.18094 8.11757,-30.00338l-2.96017,-0.97406l-9.87436,34.10472l11.85434,3.90105z" fill="#FFBF3E"/>
     <path stroke="null" id="svg_156" d="m-342.4542,104.91079c0,0 6.11456,1.73231 6.26864,2.98341c0.15394,1.25111 -9.11349,25.11786 -9.89877,25.61437c-0.78515,0.4963 -4.36329,-1.28635 -4.63089,-2.23178c-0.5083,-1.79472 5.67219,-26.40338 8.26103,-26.366z" fill="#FFEA83"/>
     <path stroke="null" id="svg_157" d="m-316.39767,121.54857l-14.54056,25.82066l-9.42261,-4.37956l11.48466,-27.24101l12.47851,5.79992zm-17.77854,33.85374c-0.34733,0.74701 -0.81522,1.37608 -1.40367,1.88707c-0.58845,0.51106 -1.23731,0.89605 -1.94591,1.15503c-0.70859,0.25905 -1.45057,0.37857 -2.2262,0.35892c-0.77494,-0.01979 -1.52767,-0.19912 -2.2582,-0.53844c-0.74708,-0.34726 -1.37787,-0.81101 -1.89294,-1.39098c-0.51479,-0.5799 -0.90171,-1.22435 -1.16062,-1.93321c-0.25905,-0.70866 -0.37864,-1.45064 -0.35919,-2.22613c0.02014,-0.77529 0.20346,-1.53643 0.55051,-2.28344c0.33947,-0.73018 0.80322,-1.36104 1.39084,-1.89321c0.58803,-0.53175 1.23593,-0.92723 1.94494,-1.18614c0.70887,-0.25905 1.45291,-0.38278 2.2324,-0.37175c0.77936,0.01117 1.54216,0.19043 2.28923,0.53769c0.72997,0.33933 1.35084,0.80329 1.86176,1.39174c0.51092,0.58838 0.89605,1.23711 1.1551,1.94584c0.25877,0.70873 0.3785,1.46132 0.35975,2.25758c-0.01945,0.79639 -0.19863,1.55961 -0.53782,2.28944z" fill="#FFDD4D"/>
     <path stroke="null" id="svg_158" d="m-339.64177,158.0657c-0.74708,-0.34705 -1.37829,-0.8108 -1.89307,-1.39056c-0.51506,-0.58017 -0.90171,-1.22455 -1.16103,-1.93342c-0.2585,-0.70846 -0.3785,-1.45064 -0.35864,-2.22592c0.01945,-0.77549 0.20305,-1.53664 0.55051,-2.28365c0.33905,-0.73025 0.80281,-1.36111 1.39042,-1.89294c0.58803,-0.53203 1.23635,-0.9275 1.94535,-1.18641c0.1389,-0.05097 0.27905,-0.09476 0.42099,-0.13525c-0.18511,-0.022 -0.37064,-0.03476 -0.557,-0.03752c-0.77949,-0.01103 -1.52354,0.1127 -2.2324,0.37154c-0.70901,0.25912 -1.3569,0.65438 -1.94494,1.18634c-0.58762,0.53217 -1.05137,1.16289 -1.39084,1.89294c-0.34692,0.74728 -0.53065,1.50843 -0.55051,2.28372c-0.01945,0.77529 0.10014,1.51747 0.35919,2.22627c0.25891,0.70873 0.64583,1.35318 1.16062,1.93328c0.51548,0.57976 1.14627,1.0433 1.89294,1.39077c0.73052,0.33912 1.48326,0.51865 2.2582,0.53831c0.64018,0.01648 1.25745,-0.06373 1.85183,-0.23739c-0.59438,-0.07062 -1.17455,-0.2365 -1.74162,-0.5001z" fill="#FFBF3E"/>
     <path stroke="null" id="svg_159" d="m-336.61207,156.83446c-1.54864,0.37775 -3.26212,-1.19565 -3.82712,-3.51386c-0.56569,-2.31827 0.23188,-4.50378 1.78051,-4.88138c1.5485,-0.37747 3.26226,1.19572 3.82753,3.514c0.56514,2.31834 -0.23215,4.50384 -1.78093,4.88125z" fill="#FFEA83"/>
     <path stroke="null" id="svg_160" d="m-330.93823,147.36923l0.92185,-1.63699c-2.53063,-1.43112 -6.03786,-3.62897 -6.13939,-4.86932c-0.12263,-1.49947 6.55776,-16.9858 9.63242,-24.02055l-2.35283,-1.09351l-11.48466,27.24081l9.42261,4.37956z" fill="#FFBF3E"/>
     <path stroke="null" id="svg_161" d="m-324.58642,119.61473c0,0 4.88759,2.02743 4.89311,3.07707c0.00579,1.04958 -9.98044,19.88363 -10.67758,20.21765c-0.69797,0.33409 -3.48337,-1.48829 -3.61276,-2.29613c-0.24553,-1.5334 7.26028,-21.28143 9.39723,-20.99859z" fill="#FFEA83"/>
    </g>
   </g>
   <g stroke="null" id="svg_162">
    <path stroke="null" id="svg_163" d="m136.40975,205.45229c0,0 -43.84804,-10.09969 -66.91461,-4.90428c-23.0674,5.19506 -31.58733,-17.23651 -25.76893,-29.71123c5.81896,-12.47437 -11.22175,-42.81488 6.23457,-57.56931c17.4559,-14.75457 39.97926,-17.87172 63.52614,-41.56211c23.54618,-23.6904 39.75553,-43.84804 55.34139,-44.05584c15.58559,-0.2078 27.84657,23.06698 47.38038,24.93723c19.53436,1.87031 43.84583,-9.97492 54.96482,2.07826c11.11912,12.05283 14.76788,27.69656 35.90634,45.01976c21.13887,17.32334 42.73115,44.0057 41.18264,57.36813c-1.5485,13.36249 -21.3593,35.4059 -64.02989,39.65828c-42.67059,4.25231 -147.82285,8.74112 -147.82285,8.74112z" fill="#0E1E63"/>
    <path stroke="null" id="svg_164" d="m129.97531,142.45722c0,0 -22.2508,23.4799 -26.59036,28.37956c-4.33956,4.8998 -28.48384,1.3796 -34.79497,-8.88513c-6.31071,-10.26438 0.63438,-32.0964 9.10135,-40.28342c8.46683,-8.18709 51.53717,-39.57069 62.15309,-49.80445c10.6162,-10.2339 13.3329,-16.37404 23.65791,-19.78534c10.32501,-3.41137 28.10244,14.09633 51.02376,12.33574c22.92146,-1.76086 50.4618,-1.07868 56.6474,4.03816c6.18587,5.11691 15.39606,25.41408 28.70013,35.47721c13.30394,10.0632 38.14619,35.33727 39.40599,46.67986c1.25938,11.34224 -9.07031,22.47626 -18.01248,22.0961c-8.94245,-0.38009 -14.74154,-20.98997 -20.36986,-33.6258c-5.62874,-12.63576 -17.73881,-21.50517 -22.85566,-31.05648c-5.11698,-9.55172 -14.82278,-23.19671 -26.77023,-24.56127c-11.94772,-1.36442 -22.4235,-4.29514 -29.80723,-8.62898c-7.38387,-4.3339 -30.23898,-5.52763 -37.57347,-1.94577c-7.33421,3.58179 -11.42769,11.08664 -14.66843,11.93931c-3.2406,0.85288 -28.86042,4.98491 -39.24695,14.85823c-10.3868,9.8734 5.72957,36.71501 0,42.77246z" fill="#162B75"/>
    <path stroke="null" id="svg_165" d="m271.1735,54.66486c-11.11898,-12.05304 -35.43045,-0.20781 -54.96482,-2.07812c-19.53381,-1.87038 -31.79479,-25.14517 -47.38038,-24.93737c-15.58586,0.20794 -31.79521,20.36558 -55.34139,44.05598c-23.54687,23.6904 -46.07024,26.8074 -63.52614,41.56211c-17.45604,14.75444 -0.41561,45.09494 -6.23457,57.56931c-5.8184,12.47472 2.70154,34.90628 25.76893,29.71095c22.33232,-5.03001 64.14176,4.27625 66.78108,4.87407c-0.22898,-5.22858 -0.85605,-9.71525 -0.85605,-9.71525s-57.72884,-8.7276 -69.48965,-13.57533c-11.76081,-4.84807 -12.80087,-16.89311 -11.78495,-39.67401c1.0162,-22.7811 22.75703,-38.58167 45.12756,-51.17908c22.37039,-12.59748 51.79263,-49.57761 68.65719,-52.01589c16.86414,-2.43828 20.11536,16.45833 42.16808,19.50588c16.07265,2.22144 46.72531,-0.95219 62.17682,-2.83761c-0.36554,-0.42257 -0.71963,-0.85143 -1.10172,-1.26566z" fill="#061251"/>
    <g stroke="null" id="svg_166">
     <g stroke="null" id="svg_167">
      <path stroke="null" id="svg_168" d="m326.95781,265.34401c0,0 7.18676,0.92447 17.34582,-2.15405c10.15921,-3.07852 17.51522,-12.83136 11.92262,-17.79937c-10.01934,-8.89982 -28.47943,10.40943 -29.26844,19.95342z" fill="#CD2606"/>
      <path stroke="null" id="svg_169" d="m337.24419,255.74567c0.8206,-2.10357 2.84237,-6.55458 4.32411,-9.76966c-7.45477,4.60688 -14.14247,13.70589 -14.6105,19.36801c0,0 7.18676,0.92419 17.34582,-2.15405c1.62299,-0.49189 3.17398,-1.15482 4.61296,-1.9408c-4.98539,-3.56324 -13.03716,-2.00536 -11.6724,-5.50349z" fill="#BC1A04"/>
      <path stroke="null" id="svg_170" d="m326.95781,265.34401c0,0 19.56802,-20.67181 9.38523,-26.3211c-10.18265,-5.64929 -22.51123,9.66414 -9.38523,26.3211z" fill="#CD2606"/>
      <path stroke="null" id="svg_171" d="m333.94249,238.07651c-9.54496,-2.31407 -19.09034,11.90524 -6.98468,27.2675c0,0 0.93274,-0.98516 2.28482,-2.58443c-7.75741,-12.10304 -2.53697,-22.9278 4.69986,-24.68307z" fill="#BC1A04"/>
      <path stroke="null" id="svg_172" d="m329.57175,258.29781c0,0 11.65708,-11.19388 6.2336,-16.6702c-2.92748,-2.95603 -11.70109,5.49604 -6.2336,16.6702z" fill="#E22C14"/>
      <path stroke="null" id="svg_173" d="m326.95781,265.34401c0,0 5.6195,-5.48445 14.1833,-5.56832c8.56394,-0.08414 13.72755,13.97929 6.6328,16.45612c-7.09448,2.47683 -17.87206,-6.41058 -20.81609,-10.8878z" fill="#CD2606"/>
      <path stroke="null" id="svg_174" d="m349.77015,274.9327c-6.77446,0.92392 -16.05278,-4.38122 -17.24058,-8.74809c-0.52913,-1.94494 0.12704,-3.61235 1.14779,-4.93518c-4.21362,1.65003 -6.71956,4.09458 -6.71956,4.09458c2.94403,4.47722 13.72162,13.36463 20.81609,10.88752c0.82763,-0.28857 1.48809,-0.73549 1.99625,-1.29883z" fill="#BC1A04"/>
      <path stroke="null" id="svg_175" d="m335.15442,264.17815c0,0 3.68904,-3.30198 7.53285,-2.47656s7.22331,7.35215 5.72667,9.85436c-1.49636,2.50221 -15.83926,-3.94699 -13.25952,-7.3778z" fill="#E22C14"/>
      <path stroke="null" id="svg_176" d="m340.96192,254.54091c0,0 0.44968,-6.08476 7.75548,-8.58394c4.51336,-1.54381 7.57257,3.28791 6.69694,5.64032c-0.87591,2.35241 -5.365,5.64391 -7.14965,5.99069c-1.78493,0.34705 -7.37201,-0.52058 -7.30276,-3.04707z" fill="#E22C14"/>
     </g>
     <path stroke="null" id="svg_177" d="m96.64236,306.12815c0,0 -22.62572,2.42276 -27.67759,7.94694c-5.05271,5.5239 3.1846,11.40397 -1.09868,14.06536c-4.28342,2.66139 -11.97186,7.38415 -7.24897,11.44811c4.72289,4.06368 30.64355,2.04591 34.48736,4.86704c3.84436,2.82113 6.08697,7.76348 10.23755,8.97183c4.15058,1.20807 10.88504,-3.95416 14.21737,-3.29509c3.33274,0.65907 43.42153,9.55558 48.91343,-2.85561c5.49149,-12.41092 58.43081,-2.52318 58.43081,-2.52318s-6.1507,16.80152 3.29481,20.31648c9.44551,3.51441 35.35762,2.30634 56.44959,3.95361c21.09252,1.64727 29.32982,-0.4392 32.07564,-3.95361c2.74595,-3.51496 -4.17362,-7.13917 -3.07549,-9.66566c1.09827,-2.52594 14.38841,-7.71906 14.93741,-13.14062c0.54914,-5.421 -0.98875,-13.0653 -30.53334,-12.6479c-29.54529,0.4174 -203.4099,-23.4877 -203.4099,-23.4877z" fill="#6EB8E5"/>
     <path stroke="null" id="svg_178" d="m236.78876,356.72223c-8.23785,-7.24897 -4.39653,-23.96745 -4.39653,-23.96745s-51.61828,2.98941 -65.89634,11.95683c-14.27861,8.96686 -34.26818,0.4781 -41.73633,-0.25601c-7.46898,-0.73466 -12.96019,0.84419 -16.69475,0c-3.73428,-0.84446 -8.2373,-5.19671 -12.30112,-6.59348c-4.0641,-1.39649 -30.31388,0.9573 -25.48147,-4.63999c4.83269,-5.59729 2.9621,-6.21608 2.9621,-14.08302c0,-4.07582 13.82852,-10.26128 20.05191,-12.58307c-6.47996,0.91012 -20.48573,3.31384 -24.33202,7.51905c-5.05215,5.52363 3.18515,11.40397 -1.09813,14.06536c-4.28342,2.66139 -11.97186,7.38415 -7.24897,11.44783c4.72289,4.06396 30.64314,2.04591 34.48736,4.86731c3.84436,2.82113 6.08697,7.76348 10.23755,8.97183c4.15058,1.20807 10.88504,-3.95416 14.21737,-3.29509c3.33274,0.65907 43.42153,9.55558 48.91343,-2.85561c5.49177,-12.41092 58.43081,-2.52318 58.43081,-2.52318s-6.1507,16.80152 3.29481,20.31648c9.44592,3.51441 35.35762,2.30634 56.44959,3.95361c21.09252,1.64727 29.32982,-0.4392 32.07564,-3.95361c0.13863,-0.17794 0.23643,-0.35643 0.32816,-0.5341c-19.95466,-0.63424 -75.20998,-1.60644 -82.26308,-7.81369z" fill="#56ABD6"/>
     <path stroke="null" id="svg_179" d="m149.79838,151.97632c-0.92681,-1.32918 -24.66487,-24.30767 -13.08061,-46.33653c11.58411,-22.02872 40.99063,-7.97584 40.99063,-7.97584s1.25828,-18.80046 20.39359,-22.40853c19.13517,-3.60828 30.62935,17.09119 30.62935,17.09119s16.48591,-5.69702 31.93108,6.45672c15.44475,12.15401 10.51109,28.52674 10.51109,28.52674s20.27579,5.65598 23.80896,17.80978c3.53331,12.1538 0,17.85103 0,17.85103s14.92789,10.4446 15.30736,22.40867c0.37961,11.96372 -13.67292,29.54694 -13.67292,29.54694l-146.81851,-62.97017z" fill="#CD2606"/>
     <path stroke="null" id="svg_180" d="m296.61689,214.94649c0,0 7.32139,-9.18646 11.24851,-18.79577c-4.32604,-3.07838 -9.34247,-8.97983 -14.80747,-19.7859c-17.75647,-35.10933 -42.37347,-53.00029 -59.18809,-54.07635c-16.81504,-1.07627 -31.74679,8.87803 -38.47242,10.22328c-6.72604,1.34518 -35.91641,1.34518 -45.59904,-11.03063c-4.99215,-6.38085 -7.47229,-14.96369 -8.7136,-21.79636c-1.6234,1.60789 -3.10542,3.55641 -4.36701,5.95524c-11.58425,22.02865 12.15408,45.00714 13.08061,46.33632l146.81851,62.97017z" fill="#BC1A04"/>
     <path stroke="null" id="svg_181" d="m196.32064,141.21515c0,0 -36.9064,-6.70494 -53.89234,3.12915c-16.9858,9.83395 -74.64871,76.59661 -64.81476,130.26811s65.74737,79.5974 136.91256,77.5857c71.16533,-2.01143 122.12261,-50.03267 114.30023,-89.27189c0,0 -7.93853,0.02097 -20.11716,-35.88096c-12.17822,-35.902 -46.73345,-136.22976 -112.38853,-85.83011z" fill="#FECE00"/>
     <path stroke="null" id="svg_182" d="m251.27139,148.16244c-26.56553,-19.13613 -51.82629,5.84716 -51.82629,5.84716s-29.69178,-7.44188 -41.91786,-1.59471c-12.22567,5.84703 -35.43721,46.06844 -39.73125,76.43364c-4.29445,30.3652 19.53202,82.50281 103.66817,88.11886c84.13601,5.6166 98.72044,-49.38132 98.72044,-49.38132c-29.41286,-13.99777 -42.3474,-100.28756 -68.9132,-119.42363zm-27.49951,152.96073c-13.68561,1.71789 -14.0215,-10.95291 -36.60652,-7.74334c-22.5853,3.20984 -32.55732,-22.60406 -32.55732,-22.60406c-3.23646,-6.26905 2.5836,-13.26587 16.43708,-17.12788c13.85335,-3.86202 55.1611,-4.61778 68.93279,11.75433c13.77155,16.37198 -2.52097,34.00361 -16.20604,35.72095z" fill="#FFDA3E"/>
     <path stroke="null" id="svg_183" d="m205.66242,262.92622c0,0 4.1961,27.12873 23.06891,25.17276c0,0 -11.81006,7.14689 -18.99061,0.55534c-7.18014,-6.59183 -5.37079,-21.32288 -4.0783,-25.7281z" fill="#FCC000"/>
     <path stroke="null" id="svg_184" d="m159.71978,269.67557c0,0 17.02222,16.15403 34.56171,7.20786c0,0 -11.7615,29.51121 -34.56171,-7.20786z" fill="#FCC000"/>
     <path stroke="null" id="svg_185" d="m101.99411,259.91749c-12.08097,-41.7904 22.32156,-91.23118 44.4569,-117.46027c-1.42905,0.55031 -2.78389,1.16972 -4.02272,1.88707c-16.9858,9.83395 -74.64871,76.59661 -64.81476,130.26784c9.83394,53.67178 65.74737,79.59768 136.91256,77.58598c37.39415,-1.05689 69.19074,-14.82513 89.83027,-33.33957c-87.75898,35.95903 -186.15953,-2.89258 -202.36226,-58.94104z" fill="#FCC000"/>
     <g stroke="null" id="svg_186">
      <path stroke="null" id="svg_187" d="m285.72123,294.9264c-3.36626,-6.37885 -9.75849,-13.75445 -8.28324,-18.42534c1.47512,-4.67144 4.67117,-10.08003 2.45862,-15.48862c-2.21268,-5.40859 -10.32597,-9.95671 -8.11302,-16.71751c2.21268,-6.76108 0.98309,-21.86677 0.98309,-21.86677l-14.99631,-9.93381c0,0 5.28555,11.44066 1.47484,19.28497c-3.81056,7.84431 -8.11302,16.20314 -3.6878,21.61172c4.42536,5.40886 4.3626,14.66153 -1.87514,21.22108c-6.2376,6.55983 7.70982,15.5071 6.94371,20.31427s-17.23796,12.4283 -14.65643,23.86041c2.43035,10.76283 10.51371,13.03799 2.83616,28.65296c13.17717,-3.34695 25.20104,-8.27027 35.70205,-14.31255c-1.59292,-4.63861 -2.76995,-8.96327 -2.64429,-11.39017c0.3683,-7.12951 7.22386,-20.43152 3.85774,-26.81065z" fill="#6EB8E5"/>
      <path stroke="null" id="svg_188" d="m151.56386,318.04911c-1.35235,-6.26877 -11.30893,-16.22576 -9.58827,-20.65112c1.7212,-4.42536 8.72574,-8.11633 9.77132,-14.9981c1.04613,-6.88233 -8.41897,-16.2081 -7.80445,-19.47367c0.61466,-3.26584 11.80082,-12.11656 10.57164,-17.1563c-1.22945,-5.04001 -11.06326,-11.50011 -10.81731,-17.30499c0.24567,-5.80489 8.60477,-23.01263 8.60477,-23.01263l-15.48875,7.04206c-0.12304,-0.15987 -10.94008,9.71973 -8.60477,19.28497c2.33558,9.56524 2.70443,18.43858 -4.42522,28.13817c-7.12924,9.69959 1.96673,12.52679 1.47498,19.77934c-0.49148,7.25255 -20.15937,13.52188 -19.91356,38.59836c0.01517,1.52974 0.18553,2.99769 0.48389,4.40908c11.44466,9.56496 25.76645,16.82221 42.24712,21.75132c1.84121,-8.77154 4.37722,-22.28376 3.48861,-26.40648z" fill="#6EB8E5"/>
      <path stroke="null" id="svg_189" d="m259.24523,231.77932c-3.81056,7.84431 -8.11302,16.20314 -3.6878,21.61172c4.42536,5.40886 4.3626,14.66153 -1.87514,21.22108c-6.2376,6.55983 7.70982,15.5071 6.94371,20.31427s-17.23796,12.4283 -14.65643,23.86041c2.43035,10.76283 10.51371,13.03799 2.83616,28.65296c13.17717,-3.34695 25.20104,-8.27027 35.70205,-14.31255c-0.63866,-1.85942 -1.20421,-3.6609 -1.65196,-5.31755c-10.21935,5.40583 -17.51218,5.82378 -20.69126,3.2675c-3.81498,-3.06831 -5.9671,-6.45499 -6.54796,-14.10978c-0.58031,-7.65423 12.19449,-17.60543 12.13546,-23.58756c-0.05959,-5.98158 -9.66732,-12.59962 -8.65112,-15.22681c1.0162,-2.62691 7.54899,-16.39046 3.48406,-22.92325c-4.06479,-6.53279 -2.32234,-14.95286 1.45167,-23.45045c1.71265,-3.85526 1.38767,-9.62414 0.52734,-14.78471l-6.79363,-4.50026c0,0 5.28555,11.44066 1.47484,19.28497z" fill="#56ABD6"/>
      <path stroke="null" id="svg_190" d="m149.79838,335.71192c-9.72883,-0.60252 -22.79538,-7.90556 -21.93326,-12.83191c1.01606,-5.80695 -2.03239,-17.71109 -2.03239,-24.09821c0,-6.38795 4.2099,-9.4364 5.80682,-13.93708c1.59678,-4.50012 -5.08084,-16.11375 -2.45118,-21.9185c2.62967,-5.80502 7.82238,-20.47166 5.06401,-31.14689c-1.83528,-7.10358 1.80217,-15.39854 4.66192,-20.24047l-2.1015,0.9555c-0.12304,-0.15987 -10.94008,9.71973 -8.60477,19.28497c2.33558,9.56524 2.70443,18.43858 -4.42522,28.13817c-7.12924,9.69959 1.96673,12.52679 1.47498,19.77934c-0.49148,7.25255 -20.15937,13.52188 -19.91356,38.59836c0.01517,1.52974 0.18553,2.99769 0.48389,4.40908c11.44466,9.56496 25.76645,16.82221 42.24712,21.75132c0.54941,-2.61725 1.15979,-5.6577 1.72313,-8.74367z" fill="#56ABD6"/>
      <path stroke="null" id="svg_191" d="m131.63154,319.8688c0,0 -2.27282,-18.0049 -1.65623,-22.65675c0.61631,-4.65158 5.97952,-10.72613 6.25305,-13.90038c0.2734,-3.17398 -4.38936,-14.22868 -3.17936,-18.71639c1.20931,-4.48743 5.86103,-16.199 5.69688,-21.78098c-0.16428,-5.58198 -3.11935,-12.82032 -2.95534,-16.39777c0.16429,-3.57731 3.44778,-10.74903 5.6915,-11.43169c2.24385,-0.68294 -2.3531,7.90914 0,15.02335c2.35324,7.11448 7.7672,12.86088 8.31634,16.74634c0.54927,3.88546 -9.91616,10.23397 -9.96457,16.85587c-0.04814,6.62162 7.23035,12.69618 7.44953,17.84075c0.21877,5.14402 -9.24881,10.89056 -9.41296,16.85559c-0.16456,5.96503 7.27849,15.37799 8.0995,19.04468c0.82074,3.66669 0.8755,8.60794 -0.87605,10.78903c-1.75114,2.18109 -12.77246,-2.29834 -13.46229,-8.27165z" fill="#7ECBF2"/>
      <path stroke="null" id="svg_192" d="m261.7015,312.42037c0,0 10.90656,-11.52756 10.21631,-18.36161c-0.69039,-6.83377 -7.59313,-12.21781 -7.45533,-17.11905c0.13808,-4.90097 3.41413,-15.32447 2.36276,-20.01826c-1.0511,-4.69406 -2.94845,-11.56453 -1.72369,-17.10305c1.2249,-5.53853 1.98411,-11.81985 3.50296,-11.85447c1.51843,-0.03448 1.03537,5.65274 0.55217,11.61032c-0.48348,5.95745 1.58782,13.06723 5.52211,19.00385c3.93485,5.93634 -1.03551,14.56497 -1.1042,18.49982c-0.06911,3.93457 6.76453,16.01444 8.00722,19.32801c1.24242,3.31329 -9.11183,26.71409 -10.76862,29.40611c-1.65651,2.69202 -6.55776,3.10639 -8.0075,0c-1.44933,-3.10639 -3.36213,-10.80945 -1.1042,-13.39167z" fill="#7ECBF2"/>
     </g>
     <g stroke="null" id="svg_193">
      <path stroke="null" id="svg_194" d="m214.5261,223.72465c0,3.34543 -7.35353,8.05467 -16.42412,8.05467c-9.07128,0 -16.42467,-4.70924 -16.42467,-8.05467c0,-3.34557 7.35339,-13.39636 16.42467,-13.39636c9.07059,0 16.42412,10.05078 16.42412,13.39636z" fill="#FF8B00"/>
      <path stroke="null" id="svg_195" d="m198.10199,231.77932c6.74329,0 12.53148,-2.60305 15.06073,-5.31327c-3.43551,-3.20405 -9.28109,-7.43367 -15.60628,-6.99088c-9.9494,0.69659 -10.38087,5.37286 -12.73577,3.4493c-0.89564,-0.73163 -1.51981,-1.65416 -1.95308,-2.51794c-0.7606,1.33428 -1.19028,2.51959 -1.19028,3.31812c0,3.34543 7.35339,8.05467 16.42467,8.05467z" fill="#FF7300"/>
      <path stroke="null" id="svg_196" d="m186.51208,218.4558c0,0 4.30563,-5.07864 10.9078,-5.90627c6.60231,-0.8275 15.69649,7.89273 15.45468,9.55724c-0.24153,1.66437 -6.49637,-3.65097 -13.85252,-4.18783c-7.35573,-0.53713 -11.22134,3.30198 -12.50996,3.38226c-1.28863,0.08083 -1.16917,-1.67085 0,-2.8454z" fill="#FFA039"/>
      <path stroke="null" id="svg_197" d="m198.10199,231.77932c5.13078,0 9.70939,-1.5074 12.72142,-3.42199c-2.56346,-4.3648 -7.29366,-7.30359 -12.72142,-7.30359s-10.15851,2.93893 -12.7217,7.30387c3.01176,1.91432 7.59051,3.42171 12.7217,3.42171z" fill="#FF8B00"/>
      <path stroke="null" id="svg_198" d="m200.73248,229.95218c-6.32105,0 -11.43707,-2.58222 -11.65446,-5.80364c-1.48298,1.15289 -2.74154,2.58084 -3.69773,4.20907c3.01176,1.91432 7.59051,3.42171 12.7217,3.42171c5.13078,0 9.70939,-1.5074 12.72142,-3.42199c-0.18705,-0.31836 -0.4094,-0.6119 -0.61893,-0.91481c-2.12329,1.51443 -5.56266,2.50966 -9.47199,2.50966z" fill="#FF7300"/>
      <path stroke="null" id="svg_199" d="m206.75145,226.67489c-0.21284,1.46202 -3.65662,2.17102 -7.69189,1.58368c-4.03541,-0.58748 -7.1342,-2.24896 -6.92109,-3.71097c0.21256,-1.46201 3.8954,-2.70678 7.93052,-2.11943c4.03568,0.58734 6.89516,2.78471 6.68245,4.24673z" fill="#FFA039"/>
     </g>
     <g stroke="null" id="svg_200">
      <path stroke="null" id="svg_201" d="m131.67651,214.98484c-1.24793,0 -2.32317,-0.93426 -2.47145,-2.20385c-0.15821,-1.36463 0.81963,-2.60139 2.18675,-2.76085c0.17739,-0.02055 17.82489,-2.20385 27.76601,-13.2749c0.92185,-1.02413 2.50083,-1.10448 3.51731,-0.18973c1.02406,0.91943 1.10944,2.49449 0.18967,3.51717c-11.22065,12.49672 -30.10339,14.80389 -30.9015,14.89631c-0.09711,0.01103 -0.19201,0.01586 -0.28678,0.01586z"/>
     </g>
     <g stroke="null" id="svg_202">
      <path stroke="null" id="svg_203" d="m251.68727,209.32051c-0.69163,-1.03868 -0.50982,-2.45131 0.46499,-3.2784c1.0482,-0.88778 2.6196,-0.75935 3.50972,0.29022c0.11559,0.13642 11.71226,13.61651 26.43724,15.75663c1.36311,0.20015 2.30468,1.46946 2.10716,2.82265c-0.19794,1.36215 -1.46215,2.30579 -2.82292,2.10716c-16.6204,-2.41531 -29.00498,-16.85531 -29.52432,-17.46831c-0.06276,-0.07476 -0.11932,-0.15091 -0.17187,-0.22994z"/>
     </g>
     <ellipse stroke="null" id="svg_204" ry="7.79479" rx="9.26143" cy="228.84853" cx="108.53456" fill="#FF9999"/>
     <ellipse stroke="null" id="svg_205" ry="7.79466" rx="9.26136" cy="239.57425" cx="294.98259" fill="#FF9999"/>
     <path stroke="null" id="svg_206" d="m205.66242,262.92622c0,0 -2.933,21.01749 8.86368,26.02467c10.89263,4.62289 25.45181,-11.16671 25.45181,-11.16671s-5.05629,16.61502 -24.3923,15.54655c-20.45842,-1.13027 -9.92319,-30.40451 -9.92319,-30.40451z" fill="#F99300"/>
     <path stroke="null" id="svg_207" d="m159.71978,269.67557c0,0 13.58423,17.44873 25.03647,15.36585c11.45252,-2.08315 9.71918,-25.12365 9.71918,-25.12365s6.79763,20.11868 -5.70116,27.6289c-12.49893,7.5105 -28.83517,-11.01884 -29.0545,-17.8711z" fill="#F99300"/>
     <g stroke="null" id="svg_208">
      <path stroke="null" id="svg_209" d="m94.66031,300.1096c0,0 10.32487,-9.49213 20.92355,-2.78499c10.59937,6.70714 8.8023,31.58885 -0.90378,35.46549c-9.70621,3.87664 -34.04279,-19.17048 -20.01977,-32.6805z" fill="#FF8B00"/>
      <path stroke="null" id="svg_210" d="m103.70442,302.94507c0,0 4.62951,-4.56385 11.6655,0.75618c7.03585,5.32003 4.21114,22.49674 -1.15289,24.33547c-4.76662,1.63375 -21.12977,-16.44315 -10.5126,-25.09165z" fill="#FFA039"/>
      <path stroke="null" id="svg_211" d="m100.15856,300.82247c0,0 5.17492,-4.75586 11.95765,-5.15505c-9.2735,-3.0799 -17.45535,4.44219 -17.45535,4.44219c-13.51981,13.02475 8.61401,34.9129 18.91888,32.99445c-10.83828,-3.97347 -24.83439,-21.28591 -13.42118,-32.28158z" fill="#FF7300"/>
     </g>
     <g stroke="null" id="svg_212">
      <path stroke="null" id="svg_213" d="m292.33016,308.50208c0,0 13.97487,1.18434 16.20342,13.5274c2.22882,12.34361 -17.31341,27.8496 -26.73381,23.32245c-9.42068,-4.52743 -8.9052,-38.04108 10.5304,-36.84984z" fill="#FF8B00"/>
      <path stroke="null" id="svg_214" d="m296.35908,317.08133c0,0 6.49237,0.32278 7.33284,9.1037c0.84019,8.78064 -13.72217,18.31774 -18.70452,15.61055c-4.42729,-2.40566 -2.17971,-26.68512 11.37169,-24.71425z" fill="#FFA039"/>
      <path stroke="null" id="svg_215" d="m295.52414,313.03393c0,0 7.00275,0.59452 11.88468,5.32058c-4.00395,-8.91362 -15.07866,-9.85243 -15.07866,-9.85243c-18.7379,-1.14848 -19.88914,29.95896 -11.50604,36.25146c-4.40356,-10.67041 -1.11868,-32.68933 14.70002,-31.71962z" fill="#FF7300"/>
     </g>
     <path stroke="null" id="svg_216" d="m166.33174,267.44179c0.24553,-0.14759 18.03055,-8.77706 21.84333,-6.91019c3.81277,1.86659 1.50919,13.52602 -3.9714,15.77829s-23.15388,-5.69081 -17.87192,-8.8681z" fill="#FFDA3E"/>
     <path stroke="null" id="svg_217" d="m212.16321,264.58231c0,0 21.6051,7.30773 22.47881,11.04091c0.87384,3.73346 -6.55293,8.41952 -12.54996,7.62527c-5.99703,-0.79398 -16.44232,-20.49304 -9.92885,-18.66618z" fill="#FFDA3E"/>
     <path stroke="null" id="svg_218" d="m181.27591,103.82376c0,0 9.88415,-21.37316 22.33577,-21.56558c12.45175,-0.19277 23.23444,17.42659 23.23444,17.42659s20.55084,-3.01148 32.0915,4.78076c11.54066,7.79217 8.60063,25.4165 8.60063,25.4165s15.45316,7.44657 22.07892,14.24868c6.6259,6.80212 2.56732,19.89687 2.56732,19.89687s15.21122,14.05612 14.89079,20.66691c-0.32112,6.61093 -11.29637,-7.57354 -17.71467,-19.12641c-6.41844,-11.55322 -28.43363,-46.8538 -56.35303,-47.88082c-27.91981,-1.02696 -33.31116,7.57368 -50.83313,8.21558c-17.52197,0.64176 -29.65274,-8.02301 -32.21992,-20.15357c-2.56718,-12.1307 22.7849,-6.73942 31.32139,-1.92549z" fill="#E22C14"/>
     <path stroke="null" id="svg_219" d="m87.4359,314.97417c0,0 5.24472,13.84438 15.34806,18.89626c10.10375,5.0516 14.27641,0.16773 17.33741,1.74438c5.41921,2.79133 27.57096,10.0563 25.21842,11.0205c-2.35213,0.96419 -16.37115,-5.16774 -20.26613,-4.82069c-3.89498,0.34678 -11.60756,0.73245 -14.42262,0.53989c-2.81492,-0.19311 -11.49197,-7.67437 -15.96533,-8.09867c-4.47308,-0.42403 -17.93206,-0.21629 -18.74177,-1.03371c-0.80998,-0.81715 0.65563,-8.76133 1.00254,-12.00069c0.34733,-3.23908 8.88713,-9.7647 10.48943,-6.24726z" fill="#7ECBF2"/>
     <path stroke="null" id="svg_220" d="m243.7213,352.30681c0,0 20.13412,-6.4263 25.85542,-8.35165c5.72116,-1.92535 6.49155,7.75659 16.50357,6.27126s21.45448,-16.11844 25.30532,-16.39349c3.85098,-0.27505 16.22852,1.81528 16.06341,6.82136c-0.16525,5.00608 -16.72331,10.67234 -17.71357,12.65287c-0.99026,1.98025 4.73075,4.4008 3.19011,6.27098c-1.53995,1.87018 -54.07608,-0.38513 -62.16261,-1.98025c-8.08709,-1.5954 -10.16886,-4.29156 -7.04165,-5.29106z" fill="#7ECBF2"/>
    </g>
    <g stroke="null" id="svg_221">
     <path stroke="null" id="svg_222" d="m79.55917,212.19585c-1.03123,0 -1.86783,-0.83674 -1.86783,-1.86797l0,-73.65989c0,-1.0313 0.8366,-1.86804 1.86783,-1.86804c1.03137,0 1.86825,0.83674 1.86825,1.86804l0,73.65989c0,1.03123 -0.83688,1.86797 -1.86825,1.86797z"/>
    </g>
    <g stroke="null" id="svg_223">
     <path stroke="null" id="svg_224" d="m97.17742,203.7384c-1.03165,0 -1.86825,-0.83688 -1.86825,-1.86811l0,-80.81968c0,-1.03144 0.8366,-1.86811 1.86825,-1.86811c1.03123,0 1.86797,0.83667 1.86797,1.86811l0,80.81968c0,1.03123 -0.83674,1.86811 -1.86797,1.86811z"/>
    </g>
    <g stroke="null" id="svg_225">
     <path stroke="null" id="svg_226" d="m111.61853,208.99236c-1.03123,0 -1.86825,-0.83674 -1.86825,-1.86811l0,-72.57493c0,-1.03137 0.83701,-1.86811 1.86825,-1.86811c1.03151,0 1.86838,0.83674 1.86838,1.86811l0,72.57493c0,1.03137 -0.83688,1.86811 -1.86838,1.86811z"/>
    </g>
    <g stroke="null" id="svg_227">
     <path stroke="null" id="svg_228" d="m125.19407,195.70656c-1.03165,0 -1.86825,-0.83688 -1.86825,-1.86811l0,-51.38123c0,-1.03158 0.8366,-1.86818 1.86825,-1.86818c1.03123,0 1.86783,0.8366 1.86783,1.86818l0,51.38123c0,1.03123 -0.8366,1.86811 -1.86783,1.86811z"/>
    </g>
    <g stroke="null" id="svg_229">
     <path stroke="null" id="svg_230" d="m139.84443,182.13123c-1.03137,0 -1.86797,-0.83688 -1.86797,-1.86811l0,-46.42039c0,-1.03144 0.8366,-1.86811 1.86797,-1.86811c1.03123,0 1.86811,0.83667 1.86811,1.86811l0,46.42039c0,1.03123 -0.83688,1.86811 -1.86811,1.86811z"/>
    </g>
    <g stroke="null" id="svg_231">
     <path stroke="null" id="svg_232" d="m153.73612,172.70551c-1.03123,0 -1.86825,-0.83674 -1.86825,-1.86804l0,-29.88972c0,-1.03116 0.83701,-1.86804 1.86825,-1.86804s1.86783,0.83688 1.86783,1.86804l0,29.88972c0,1.0313 -0.8366,1.86804 -1.86783,1.86804z"/>
    </g>
    <g stroke="null" id="svg_233">
     <path stroke="null" id="svg_234" d="m293.24277,212.19585c-0.00221,0 -0.00221,0 -0.00469,0c-1.03178,-0.00221 -1.86562,-0.84032 -1.86314,-1.87156c0.03407,-15.50061 0.10208,-56.08564 0.00455,-57.7227c-0.06042,-1.02178 0.71052,-1.91452 1.73196,-1.98729c0.9973,-0.0729 1.90963,0.67114 1.99239,1.69168c0.12884,1.51167 0.01945,52.24611 0.00717,58.02534c-0.00248,1.03165 -0.83908,1.86452 -1.86825,1.86452z"/>
    </g>
    <g stroke="null" id="svg_235">
     <path stroke="null" id="svg_236" d="m307.08094,206.59884c-1.03123,0 -1.86783,-0.83674 -1.86783,-1.86797l0,-57.77994c0,-1.03123 0.8366,-1.8679 1.86783,-1.8679s1.86825,0.83667 1.86825,1.8679l0,57.77994c0,1.03123 -0.83701,1.86797 -1.86825,1.86797z"/>
    </g>
    <g stroke="null" id="svg_237">
     <path stroke="null" id="svg_238" d="m317.27035,212.19585c-1.02875,0 -1.86328,-0.83177 -1.86825,-1.86066c-0.19436,-52.46005 -0.01448,-53.19361 0.05628,-53.46956c0.24553,-1.00344 1.26959,-1.61023 2.2622,-1.36339c0.93371,0.23229 1.5274,1.12986 1.40063,2.06377c-0.12359,1.95335 -0.05821,32.54235 0.01738,52.75469c0.00455,1.03247 -0.82984,1.87156 -1.86107,1.87514c-0.00221,0 -0.00469,0 -0.00717,0z"/>
    </g>
    <g stroke="null" id="svg_239">
     <path stroke="null" id="svg_240" d="m330.27414,229.83218c-1.03151,0 -1.86811,-0.83674 -1.86811,-1.86797l0,-77.91062c0,-1.03144 0.8366,-1.86811 1.86811,-1.86811c1.03123,0 1.86811,0.83667 1.86811,1.86811l0,77.91062c0,1.03123 -0.83688,1.86797 -1.86811,1.86797z"/>
    </g>
    <g stroke="null" id="svg_241">
     <path stroke="null" id="svg_242" d="m340.539,196.71117c-1.03165,0 -1.86825,-0.83681 -1.86825,-1.86804l0,-31.02316c0,-1.03144 0.8366,-1.86831 1.86825,-1.86831c1.03123,0 1.86797,0.83688 1.86797,1.86831l0,31.02316c0,1.03123 -0.83674,1.86804 -1.86797,1.86804z"/>
    </g>
   </g>
   <g stroke="null" id="svg_243" display="none">
    <g stroke="null" id="svg_244" display="inline">
     <path stroke="null" id="svg_245" d="m-901.99962,305.96952c0,0 -11.49776,-22.52102 -22.07899,-18.99171c-10.58109,3.52931 -14.50042,24.46872 22.07899,18.99171z" fill="#CD2606"/>
     <path stroke="null" id="svg_246" d="m-903.1461,303.88774c-3.81643,-1.86742 -16.92118,-1.00392 -22.52261,-3.52268c-2.5587,-1.15069 -4.41074,-3.01342 -5.67543,-4.6993c-0.77239,6.60507 6.1107,13.78259 29.34451,10.30376c0,0 -0.41078,-0.80363 -1.14648,-2.08177z" fill="#BC1A04"/>
     <path stroke="null" id="svg_247" d="m-901.99962,305.96952c0,0 5.52342,-24.67314 -6.74156,-27.52379c-12.26477,-2.8501 -19.32904,15.74021 6.74156,27.52379z" fill="#CD2606"/>
     <path stroke="null" id="svg_248" d="m-903.64027,296.7243c0,0 1.75217,-14.73685 -4.87718,-16.39763c-6.62948,-1.66051 -9.48648,9.45241 4.87718,16.39763z" fill="#E22C14"/>
     <path stroke="null" id="svg_249" d="m-916.95386,280.25687c-5.44659,4.85242 -4.10727,17.09698 14.95424,25.71265c0,0 0.43106,-1.97197 0.78556,-4.8251c-13.5932,-6.66742 -17.27624,-15.20915 -15.7398,-20.88755z" fill="#BC1A04"/>
     <path stroke="null" id="svg_250" d="m-901.99962,305.96952c0,0 -19.82783,-5.55784 -24.97557,0.56555c-5.14781,6.12366 6.87088,25.22076 24.97557,-0.56555z" fill="#CD2606"/>
     <path stroke="null" id="svg_251" d="m-927.41529,307.16048c-3.93243,6.67321 7.88914,23.77185 25.41567,-1.19096c0,0 -0.65349,-0.18098 -1.72293,-0.43782c-13.51823,16.81035 -23.11092,8.51994 -23.69274,1.62878z" fill="#BC1A04"/>
     <path stroke="null" id="svg_252" d="m-908.56876,306.51603c0,0 -11.5548,-3.24488 -15.44544,0.22291c-3.8905,3.46751 6.87184,13.01454 15.44544,-0.22291z" fill="#E22C14"/>
     <path stroke="null" id="svg_253" d="m-914.48034,299.4828c0,0 -4.74786,-4.9898 -6.58438,-8.59167c-1.83666,-3.60186 -6.8995,1.19069 -7.76079,3.56517s6.26698,6.14021 10.72406,6.25801c4.45715,0.11808 4.52454,-0.24801 3.6211,-1.23152z" fill="#E22C14"/>
    </g>
    <path stroke="null" id="svg_254" d="m-770.68911,111.76918c0,0 -6.35023,-26.12516 -44.02736,-24.67314c-37.67713,1.45236 -38.56449,38.24213 -38.56449,38.24213s-24.28457,-0.16132 -41.46907,19.20172c-17.18485,19.36277 5.72812,43.00199 10.00409,43.72789c0,0 -16.00326,5.13485 -16.31163,23.3021c-0.30829,18.16725 28.73627,30.91447 28.73627,30.91447s113.9189,-87.61766 113.59626,-88.10169c-0.32271,-0.48403 -11.96407,-42.61348 -11.96407,-42.61348z" fill="#CD2606"/>
    <path stroke="null" id="svg_255" d="m-770.68911,111.76918c0,0 -6.35023,-26.12516 -44.02736,-24.67314c-37.677,1.45236 -38.56449,38.24213 -38.56449,38.24213s-24.28457,-0.16132 -41.46907,19.20172c-17.18485,19.36304 5.72812,43.00178 10.00409,43.72789c0,0 -17.53473,-27.85436 -1.24724,-42.80315c16.28756,-14.94893 37.26069,-13.83328 39.49186,-14.56235c2.23137,-0.72915 4.68558,-28.16472 32.12881,-33.40806c19.75493,-3.77442 37.0551,11.11209 45.19825,19.74948c-0.92171,-3.32854 -1.51485,-5.47452 -1.51485,-5.47452z" fill="#BC1A04"/>
    <path stroke="null" id="svg_256" d="m-785.17677,348.72508c0,0 11.78454,23.70481 23.02726,20.58932c11.24279,-3.11549 15.7707,-31.63492 15.7707,-31.63492s29.47114,23.32355 38.14033,21.45116c8.66884,-1.87211 12.1907,-33.97464 12.1907,-33.97464s-58.78731,0 -89.12899,23.56908z" fill="#FF8B00"/>
    <g stroke="null" id="svg_257" display="inline">
     <g stroke="null" id="svg_258">
      <g stroke="null" id="svg_259">
       <path stroke="null" id="svg_260" d="m-760.04691,365.69737c-9.51448,2.63684 -19.41677,-13.9346 -22.23631,-19.09158c-0.98985,0.68445 -1.95556,1.3907 -2.89355,2.11929c0,0 11.78475,23.70426 23.02732,20.58905c3.68987,-1.0224 6.65618,-4.78124 8.97686,-9.37047c-1.93577,2.86196 -4.21748,5.01767 -6.87433,5.75371z" fill="#FF7300"/>
      </g>
      <g stroke="null" id="svg_261">
       <path stroke="null" id="svg_262" d="m-706.13636,355.51416c-8.66864,1.87183 -38.13999,-21.45144 -38.13999,-21.45144s-0.28685,1.80562 -0.89474,4.5575c5.6246,4.33846 29.31293,22.15576 36.93261,20.51042c2.20075,-0.47506 4.06968,-2.90003 5.63405,-6.2525c-1.06723,1.41056 -2.24234,2.35765 -3.53193,2.63601z" fill="#FF7300"/>
      </g>
     </g>
    </g>
    <path stroke="null" id="svg_263" d="m-774.48843,132.81501c0,0 -45.59738,-16.63254 -84.07007,32.17088c-38.47276,48.80329 -11.93372,120.76177 -46.3097,138.92916c0,0 16.88807,55.21559 113.70971,55.21559s168.22223,-36.14084 144.20043,-129.23819c-16.26962,-63.05038 -92.49263,-119.5755 -123.73105,-118.12328c0,0 1.25656,7.45401 -3.79932,21.04583z" fill="#FECE00"/>
    <path stroke="null" id="svg_264" d="m-830.74856,275.21989c0,0 23.66522,18.46837 38.67498,0.82294c0,0 -0.95185,14.78982 -17.13312,14.78982c-13.63182,0 -21.54186,-15.61276 -21.54186,-15.61276z" fill="#FCC000"/>
    <path stroke="null" id="svg_265" d="m-695.73797,249.5042c0,0 4.23224,22.15383 27.90781,16.2448c0,0 -3.41744,6.92481 -15.01148,5.62267c-11.59377,-1.30187 -15.81057,-12.92157 -12.89633,-21.86747z" fill="#FCC000"/>
    <path stroke="null" id="svg_266" d="m-683.34829,235.43608c18.40768,-2.02963 18.45568,-11.27017 17.73481,-14.8941c-16.20935,-59.61081 -81.46544,-91.06041 -88.76938,-89.59032c-7.3607,1.4814 -8.73057,18.58245 -13.1011,21.76111c-4.37039,3.17839 -23.24258,-5.95972 -36.94985,0c-13.7072,5.95958 -29.00353,40.32701 -32.1822,66.74832c-3.17839,26.42097 -16.41039,60.93564 -16.41039,60.93564c-7.05082,20.21192 14.89899,42.92826 88.80414,43.12689c36.86274,0.09876 65.44756,-10.12417 82.91063,-27.90423c0.0967,-0.11835 0.21739,-0.2436 0.3643,-0.3763c0.00455,-0.00414 0.00924,-0.00828 0.01352,-0.01214c0.60997,-0.63121 1.20586,-1.27125 1.7881,-1.92066c4.52357,-5.93772 0.03848,-12.21119 -15.00472,-17.61426c-16.68655,-5.9929 -12.22125,-37.72107 10.80214,-40.25997zm-117.73808,65.878c-30.45975,3.89346 -40.07175,-15.2566 -35.25334,-23.36024c0,0 9.04838,-23.29237 37.13372,-25.29001s28.57985,44.75595 -1.88038,48.65025z" fill="#FFDA3E"/>
    <path stroke="null" id="svg_267" d="m-791.15849,359.13065c62.26089,0 114.00945,-14.94514 136.63296,-50.36979c-16.65199,11.73502 -49.5823,28.68468 -106.2928,29.49659c-89.24175,1.27732 -110.2131,-26.09529 -109.84825,-43.06648c0.36512,-16.97091 10.58419,-42.33595 12.77397,-91.24166c1.3798,-30.81563 27.51613,-56.71568 46.66289,-71.66033c-14.54608,3.65821 -31.53761,12.66549 -47.32879,32.69691c-38.47276,48.80315 -11.93372,120.76177 -46.3097,138.92916c0,0 16.88807,55.21559 113.70971,55.21559z" fill="#FCC000"/>
    <g stroke="null" id="svg_268" display="inline">
     <circle stroke="null" id="svg_269" r="47.75087" cy="94.46329" cx="-588.17247" fill="#EFEFEF"/>
     <path stroke="null" id="svg_270" d="m-588.7634,124.75172c-25.59416,-6.36064 -41.1854,-32.26489 -34.82504,-57.85829c0.58155,-2.34006 1.3278,-4.59557 2.22165,-6.75984c-6.23043,6.01331 -10.9038,13.7899 -13.14669,22.8129c-6.35995,25.59333 9.23101,51.49772 34.82462,57.85815c23.25265,5.77854 46.76034,-6.56452 55.63672,-28.06458c-11.44287,11.04257 -28.14052,16.12955 -44.71126,12.01166z" fill="#DDDDDD"/>
     <path stroke="null" id="svg_271" d="m-551.02992,101.67515c-7.54016,13.58195 -27.27219,17.03098 -44.07412,7.70368c-16.80124,-9.32702 -24.30954,-27.89829 -16.77007,-41.48025c7.53961,-13.58175 27.27219,-17.03077 44.07398,-7.70362c16.80193,9.32723 24.30967,27.89843 16.77021,41.48018z" fill="#FFFFFF"/>
    </g>
    <g stroke="null" id="svg_272" display="inline">
     <ellipse stroke="null" id="svg_273" ry="45.16998" rx="52.48764" cy="55.21855" cx="-709.82588" fill="#EFEFEF"/>
     <path stroke="null" id="svg_274" d="m-702.42663,83.15898c-28.98905,0 -52.48792,-20.22392 -52.48792,-45.17032c0,-2.28082 0.19822,-4.52171 0.57755,-6.71252c-5.05215,6.94192 -7.97591,15.14722 -7.97591,23.94207c0,24.94661 23.49908,45.1706 52.48654,45.1706c26.3371,0 48.14153,-16.69455 51.91071,-38.45731c-9.27888,12.74784 -25.74272,21.2275 -44.51097,21.2275z" fill="#DDDDDD"/>
     <path stroke="null" id="svg_275" d="m-668.2928,53.36561c-4.44205,14.18868 -24.57741,21.85664 -44.97321,17.1274c-20.39559,-4.72931 -33.32792,-20.06543 -28.886,-34.25411c4.4426,-14.18854 24.57769,-21.8567 44.97369,-17.1274c20.39566,4.72944 33.32799,20.06543 28.88552,34.25411z" fill="#FFFFFF"/>
    </g>
    <circle stroke="null" id="svg_276" r="8.89713" cy="217.41201" cx="-821.8515"/>
    <circle stroke="null" id="svg_277" r="2.88464" cy="214.45446" cx="-819.38391" fill="#FFFFFF"/>
    <ellipse stroke="null" id="svg_278" ry="7.47215" rx="8.27151" cy="233.78137" cx="-839.99323" fill="#FF9999"/>
    <circle stroke="null" id="svg_279" r="8.89699" cy="201.04266" cx="-712.14408"/>
    <path stroke="null" id="svg_280" d="m-706.79212,198.08511c0,1.59306 -1.29111,2.88472 -2.88458,2.88472c-1.59326,0 -2.88417,-1.29166 -2.88417,-2.88472c0,-1.59313 1.2909,-2.88458 2.88417,-2.88458c1.59347,0 2.88458,1.29145 2.88458,2.88458z" fill="#FFFFFF"/>
    <path stroke="null" id="svg_281" d="m-675.07637,214.45446c0,4.12686 -3.70339,7.47215 -8.27192,7.47215c-4.56799,0 -8.27096,-3.3453 -8.27096,-7.47215s3.70297,-7.47215 8.27096,-7.47215c4.56854,0 8.27192,3.3453 8.27192,7.47215z" fill="#FF9999"/>
    <g stroke="null" id="svg_282" display="inline">
     <circle stroke="null" id="svg_283" r="9.55026" cy="223.48285" cx="-759.88228" fill="#FF8B00"/>
     <path stroke="null" id="svg_284" d="m-757.76174,230.94534c-5.27424,0 -9.55021,-4.27583 -9.55021,-9.55034c0,-2.1273 0.69604,-4.0921 1.87225,-5.6795c-2.41759,1.73265 -3.99285,4.56606 -3.99285,7.76734c0,5.27451 4.27569,9.55034 9.55007,9.55034c3.14715,0 5.93841,-1.52243 7.67823,-3.87084c-1.56547,1.12227 -3.48434,1.783 -5.55749,1.783z" fill="#FF7300"/>
     <path stroke="null" id="svg_285" d="m-771.83069,223.33553c0,0 0.83005,-13.12517 11.35307,-14.00853c10.81373,-0.90778 12.54355,13.36767 12.54355,13.36767s-9.70518,5.53922 -23.89662,0.64086z" fill="#FF8B00"/>
     <path stroke="null" id="svg_286" d="m-765.52874,219.52455c-1.51436,-3.51606 -0.27581,-6.86219 1.21531,-9.19363c-6.90033,3.26281 -7.51754,13.00461 -7.51754,13.00461c14.19171,4.89835 23.89689,-0.64086 23.89689,-0.64086s-0.10311,-0.85164 -0.41678,-2.12536c-5.56197,2.0117 -15.16156,3.63717 -17.17788,-1.04475z" fill="#FF7300"/>
     <path stroke="null" id="svg_287" d="m-752.21239,219.03321c-1.30097,1.9928 -6.2496,2.90306 -9.20674,0.97233c-2.95693,-1.93046 -2.80264,-5.97096 -1.50174,-7.96363c1.30118,-1.99294 4.75303,-2.04343 7.71017,-0.11256c2.95693,1.93059 4.29935,5.11119 2.99831,7.10386z" fill="#FFA039"/>
     <path stroke="null" id="svg_288" d="m-763.28468,225.99196c0,0 5.63177,0.84391 9.62152,-0.50679c3.98961,-1.35097 -0.42885,5.0956 -4.81855,4.34673c-4.38991,-0.74901 -7.34015,-4.06589 -4.80297,-3.83995z" fill="#FFA039"/>
    </g>
    <path stroke="null" id="svg_289" d="m-830.74856,275.21989c0,0 12.27326,18.64245 26.85748,13.3158c14.58415,-5.32637 9.63814,-25.99763 9.63814,-25.99763s10.71627,20.48118 -7.73582,29.04139c-18.45217,8.56022 -28.75979,-16.35956 -28.75979,-16.35956z" fill="#F99300"/>
    <path stroke="null" id="svg_290" d="m-695.73797,249.5042c0,0 -2.79051,14.13874 11.73116,19.6323c14.52249,5.49328 24.28029,-13.38946 24.28029,-13.38946s-5.26444,22.50805 -24.82791,16.9367c-19.56306,-5.57163 -11.18354,-23.17954 -11.18354,-23.17954z" fill="#F99300"/>
    <g stroke="null" id="svg_291" display="inline">
     <circle stroke="null" id="svg_292" r="7.93051" cy="119.22319" cx="-754.383" fill="#EFEFEF"/>
     <path stroke="null" id="svg_293" d="m-753.26486,124.12879c-4.38011,0 -7.93066,-3.55082 -7.93066,-7.93073c0,-0.40023 0.03,-0.79384 0.08738,-1.17848c-0.76342,1.21883 -1.20538,2.65953 -1.20538,4.20362c0,4.37991 3.55076,7.93053 7.93066,7.93053c3.97919,0 7.27387,-2.93093 7.84362,-6.75184c-1.40208,2.23813 -3.88995,3.7269 -6.72563,3.7269z" fill="#DDDDDD"/>
     <ellipse stroke="null" id="svg_294" ry="33.07286" rx="40.91135" cy="-437.34207" cx="-7249.77493" fill="#FFFFFF" transform="matrix(0.13638513754937964,0.03674936319016914,-0.03674936319016914,0.13638513754937964,219.0021057763089,443.4659266385848) "/>
    </g>
    <g stroke="null" id="svg_295" display="inline">
     <circle stroke="null" id="svg_296" r="7.93043" cy="130.95166" cx="-676.83571" fill="#EFEFEF"/>
     <path stroke="null" id="svg_297" d="m-675.71751,135.85705c-4.38011,0 -7.93094,-3.55062 -7.93094,-7.93053c0,-0.40051 0.03035,-0.79384 0.08718,-1.17848c-0.76335,1.21883 -1.20476,2.65939 -1.20476,4.20341c0,4.37991 3.55027,7.93073 7.93011,7.93073c3.97968,0 7.27407,-2.93106 7.84376,-6.75204c-1.40201,2.23813 -3.88988,3.7269 -6.72535,3.7269z" fill="#DDDDDD"/>
     <ellipse stroke="null" id="svg_298" ry="33.07323" rx="40.91188" cy="-354.30269" cx="-6700.77552" fill="#FFFFFF" transform="matrix(0.13638503867472823,0.0367497163139242,-0.0367497163139242,0.13638503867472823,224.72471071539786,423.69580698824024) "/>
    </g>
    <g stroke="null" id="svg_299" display="inline">
     <circle stroke="null" id="svg_300" r="11.41099" cy="92.22626" cx="-742.54459" fill="#EFEFEF"/>
     <path stroke="null" id="svg_301" d="m-740.93595,99.28481c-6.30229,0 -11.41114,-5.10912 -11.41114,-11.41135c0,-0.57603 0.04318,-1.14227 0.12552,-1.69561c-1.0982,1.75382 -1.73382,3.8267 -1.73382,6.04842c0,6.30202 5.10871,11.41107 11.41079,11.41107c5.72585,0 10.46633,-4.21741 11.28555,-9.71518c-2.01722,3.22032 -5.59653,5.36265 -9.6769,5.36265z" fill="#DDDDDD"/>
     <ellipse stroke="null" id="svg_302" ry="47.58572" rx="58.86882" cy="-634.21233" cx="-7163.73532" fill="#FFFFFF" transform="matrix(0.13638588617174038,0.03674658057497924,-0.03674658057497924,0.13638588617174038,212.18371367066618,439.3352753138155) "/>
    </g>
    <g stroke="null" id="svg_303" display="inline">
     <circle stroke="null" id="svg_304" r="11.41085" cy="117.39433" cx="-629.11207" fill="#EFEFEF"/>
     <path stroke="null" id="svg_305" d="m-627.50342,124.45287c-6.30215,0 -11.41114,-5.10912 -11.41114,-11.41135c0,-0.57603 0.04331,-1.14207 0.12525,-1.69548c-1.09827,1.75369 -1.73362,3.8265 -1.73362,6.04828c0,6.30202 5.10898,11.41107 11.41086,11.41107c5.72557,0 10.46598,-4.21741 11.2852,-9.71518c-2.01722,3.22032 -5.59632,5.36265 -9.67656,5.36265z" fill="#DDDDDD"/>
     <ellipse stroke="null" id="svg_306" ry="47.5849" rx="58.86813" cy="-455.97097" cx="-6360.73782" fill="#FFFFFF" transform="matrix(0.13638513754937964,0.03674936319016914,-0.03674936319016914,0.13638513754937964,222.64214269098866,410.7037667509107) "/>
    </g>
    <g stroke="null" id="svg_307" display="inline">
     <path stroke="null" id="svg_308" d="m-702.82362,63.6511l-11.48556,0c-0.15863,-2.40131 -0.02262,-4.41191 0.40768,-6.03173c0.43051,-1.61982 1.01385,-2.96776 1.7501,-4.04361c0.73611,-1.07606 1.56299,-1.94825 2.48056,-2.61663c0.9175,-0.66831 1.81203,-1.2458 2.68436,-1.73307c0.87233,-0.48706 1.64244,-0.95709 2.31103,-1.41008c0.66804,-0.45313 1.12682,-1.01951 1.37594,-1.69906c0.15891,-0.40782 0.20401,-0.87777 0.13601,-1.41029c-0.06787,-0.53224 -0.30016,-1.03634 -0.69659,-1.51202c-0.39644,-0.47575 -0.9853,-0.87791 -1.76672,-1.20641c-0.78156,-0.32857 -1.79583,-0.49279 -3.04155,-0.49279c-0.81536,0 -1.78396,0.0738 -2.90534,0.22091c-1.12117,0.14718 -2.29344,0.37395 -3.51696,0.67969c-1.22352,0.30581 -2.42945,0.67956 -3.6191,1.12131c-1.18917,0.44168 -2.25992,0.94578 -3.21136,1.51222l-1.49498,-13.32049c0.83819,-0.49844 1.78403,-1.01392 2.8374,-1.54623c1.05358,-0.53238 2.21427,-1.00806 3.48303,-1.42705c1.26869,-0.41927 2.65043,-0.76466 4.14562,-1.03654s3.10363,-0.40768 4.82545,-0.40768c2.78609,0 5.42031,0.38492 7.90059,1.15517c2.48069,0.77039 4.64992,1.90294 6.50755,3.39813c1.85735,1.49533 3.32971,3.33585 4.41722,5.5219c1.08751,2.18613 1.63127,4.69503 1.63127,7.52671c0,2.15219 -0.30595,3.8796 -0.91757,5.18223c-0.61162,1.30249 -1.39346,2.37296 -2.34496,3.21115c-0.95123,0.83819 -2.01584,1.54036 -3.19411,2.10681c-1.178,0.56638 -2.32731,1.18366 -3.44903,1.85204c-1.12144,0.66818 -2.15212,1.48933 -3.09204,2.46345c-0.94047,0.97426 -1.65941,2.2882 -2.15792,3.94195z" fill="#DD0000"/>
     <g stroke="null" id="svg_309">
      <path stroke="null" id="svg_310" d="m-703.03204,77.08325c0,3.92305 -3.18018,7.10324 -7.10303,7.10324c-3.92326,0 -7.10393,-3.18018 -7.10393,-7.10324c0,-3.92326 3.18067,-7.10372 7.10393,-7.10372c3.92285,0 7.10303,3.18046 7.10303,7.10372z" fill="#DD0000"/>
      <path stroke="null" id="svg_311" d="m-709.13391,81.47716c-3.92278,0 -7.10344,-3.18053 -7.10344,-7.10372c0,-0.35878 0.0269,-0.71101 0.07814,-1.05551c-0.68383,1.09165 -1.07979,2.38214 -1.07979,3.76511c0,3.92298 3.18067,7.10344 7.10393,7.10344c3.56421,0 6.51527,-2.62539 7.02551,-6.04773c-1.2558,2.00481 -3.48392,3.3384 -6.02435,3.3384z" fill="#C40000"/>
      <path stroke="null" id="svg_312" d="m-704.51447,76.79172c-0.60086,2.23137 -3.32626,3.43737 -6.08614,2.69353c-2.76071,-0.74377 -4.51088,-3.15556 -3.90926,-5.38686c0.60093,-2.23137 3.32599,-3.43737 6.08628,-2.69353c2.7605,0.74377 4.51081,3.15563 3.90912,5.38686z" fill="#FF2C2C"/>
     </g>
     <g stroke="null" id="svg_313">
      <path stroke="null" id="svg_314" d="m-709.96513,57.38695c-0.36699,-5.31955 12.84019,-7.27635 10.45564,-14.43021c-2.38441,-7.15386 -16.20355,-2.93479 -18.22174,-6.72584c-0.92019,-1.73072 -1.56161,-4.251 -1.98577,-6.47955c-0.29471,0.13325 -0.58217,0.27022 -0.86171,0.41147c-1.05337,0.53231 -1.99922,1.04778 -2.8372,1.54623l1.49478,13.32049c0.95143,-0.56658 2.02219,-1.07054 3.21136,-1.51222c1.18965,-0.44182 2.39559,-0.8155 3.6191,-1.12138c1.22352,-0.30595 2.39579,-0.53244 3.51696,-0.67962c1.12138,-0.14732 2.08998,-0.22091 2.90534,-0.22091c1.24573,0 2.25999,0.16422 3.04155,0.49279c0.78142,0.32836 1.37029,0.73046 1.76672,1.20641c0.39644,0.47568 0.62873,0.97957 0.69659,1.51202c0.06814,0.53231 0.0229,1.00247 -0.13601,1.41015c-0.24912,0.67969 -0.70749,1.24607 -1.37594,1.6992c-0.66859,0.45299 -1.4387,0.92302 -2.31103,1.41008c-0.87191,0.48699 -1.76686,1.06475 -2.68436,1.73307c-0.91757,0.66838 -1.74445,1.54037 -2.48056,2.61643c-0.73625,1.07606 -1.31932,2.424 -1.7501,4.04382c-0.4303,1.61982 -0.56631,3.63021 -0.40768,6.03159l11.48556,0c0.34733,-1.15276 0.80253,-2.13978 1.36408,-2.96231c-4.0783,0.01773 -8.3171,-0.56858 -8.50559,-3.30171z" fill="#C40000"/>
     </g>
     <path stroke="null" id="svg_315" d="m-711.31879,35.61728c0,0 9.14818,0.13766 12.96633,5.64094c3.81815,5.50335 -3.16446,9.73408 -5.70957,11.83213c-2.54525,2.09826 -2.40786,3.81808 0.27519,4.33404c2.68305,0.51582 13.27649,-6.15691 13.34546,-13.55195c0.06869,-7.39525 -6.77846,-13.75576 -16.71641,-14.44628c-9.93788,-0.69039 -7.9537,5.72467 -4.161,6.19111z" fill="#FF2C2C"/>
    </g>
    <g stroke="null" id="svg_316" display="inline">
     <path stroke="null" id="svg_317" d="m-579.92469,105.50109l-11.17719,2.64346c-0.70708,-2.30013 -1.03771,-4.28811 -0.99178,-5.96345c0.04607,-1.67527 0.30374,-3.12121 0.77246,-4.33784c0.46913,-1.21655 1.07289,-2.25578 1.81197,-3.11728c0.73908,-0.86157 1.47677,-1.62961 2.21337,-2.30434c0.73659,-0.6748 1.37773,-1.30966 1.92425,-1.90425c0.54596,-0.59479 0.86184,-1.25145 0.94792,-1.97025c0.06083,-0.4332 -0.00359,-0.90122 -0.19229,-1.40353c-0.18898,-0.50251 -0.53051,-0.93957 -1.02571,-1.31118c-0.49575,-0.37182 -1.16117,-0.62762 -1.99763,-0.76729c-0.83563,-0.1398 -1.86038,-0.06635 -3.07287,0.22049c-0.79343,0.18767 -1.71886,0.48237 -2.7763,0.88371c-1.05772,0.4014 -2.14605,0.89171 -3.26639,1.47077c-1.1202,0.57934 -2.20785,1.22062 -3.26364,1.92446c-1.05578,0.70342 -1.98122,1.44043 -2.77699,2.21061l-4.52123,-12.61879c0.70114,-0.67797 1.50312,-1.39712 2.40552,-2.15757c0.90281,-0.76073 1.92301,-1.49078 3.06114,-2.19068c1.13827,-0.6999 2.40345,-1.35408 3.79553,-1.96287c1.39263,-0.60852 2.92679,-1.11124 4.6022,-1.5074c2.71188,-0.64142 5.36307,-0.87281 7.95411,-0.69418c2.59132,0.17856 4.96332,0.78163 7.11517,1.809c2.15185,1.02751 4.00851,2.47973 5.56942,4.35687c1.56174,1.87721 2.66815,4.19341 3.31992,6.94923c0.49548,2.0944 0.59548,3.84574 0.30016,5.25417c-0.2956,1.40836 -0.8097,2.63001 -1.54271,3.66469c-0.73301,1.03475 -1.60726,1.96315 -2.6236,2.78533c-1.0162,0.82239 -1.99267,1.68782 -2.92996,2.59622c-0.93743,0.9086 -1.75141,1.94494 -2.44235,3.10935c-0.69094,1.16421 -1.0882,2.60843 -1.19248,4.33252z" fill="#DD0000"/>
     <g stroke="null" id="svg_318">
      <circle stroke="null" id="svg_319" r="7.10343" cy="120.25539" cx="-583.94837" fill="#DD0000"/>
      <path stroke="null" id="svg_320" d="m-581.96232,124.30087c-3.81788,0.90322 -7.64472,-1.45995 -8.54808,-5.27775c-0.08276,-0.34905 -0.13739,-0.69825 -0.16677,-1.04523c-0.41396,1.21979 -0.50237,2.56663 -0.18387,3.91243c0.90295,3.81781 4.72993,6.18084 8.5478,5.27789c3.46875,-0.82053 5.73578,-4.05451 5.44459,-7.50236c-0.76046,2.23972 -2.62222,4.05037 -5.09367,4.63503z" fill="#C40000"/>
      <path stroke="null" id="svg_321" d="m-578.54502,118.67799c-0.07214,2.30979 -2.44621,4.11065 -5.3032,4.02216c-2.85754,-0.08835 -5.11643,-2.0326 -5.04443,-4.34239c0.07145,-2.30979 2.44566,-4.11051 5.3032,-4.02216c2.85741,0.08849 5.1156,2.03274 5.04443,4.34239z" fill="#FF2C2C"/>
     </g>
     <g stroke="null" id="svg_322">
      <path stroke="null" id="svg_323" d="m-588.31689,101.04905c-1.58106,-5.09236 10.82104,-10.03651 6.85391,-16.44943c-3.96699,-6.41299 -16.44426,0.87371 -19.28028,-2.35138c-1.2947,-1.47202 -2.4978,-3.77718 -3.42392,-5.84841c-0.25629,0.1976 -0.50472,0.39706 -0.74363,0.59879c-0.90281,0.76066 -1.70479,1.47981 -2.40593,2.15778l4.52123,12.61879c0.79577,-0.77018 1.7212,-1.50719 2.77699,-2.21082s2.14343,-1.3449 3.26364,-1.92425c1.12034,-0.57907 2.20868,-1.06937 3.26584,-1.47077c1.05799,-0.40133 1.98342,-0.69604 2.77685,-0.88371c1.21248,-0.28657 2.23668,-0.3603 3.07287,-0.22049c0.83646,0.13966 1.50188,0.3954 1.99763,0.76729c0.4952,0.37161 0.83674,0.80846 1.02571,1.31097c0.1887,0.50251 0.25312,0.97033 0.19229,1.40373c-0.08607,0.7188 -0.40196,1.37546 -0.94792,1.97011c-0.54651,0.59493 -1.18765,1.22966 -1.92425,1.90425c-0.73659,0.67487 -1.47429,1.44291 -2.21337,2.30448c-0.73908,0.8615 -1.34325,1.90073 -1.81169,3.11728c-0.46899,1.21662 -0.72666,2.66243 -0.77273,4.33797c-0.04593,1.6752 0.28471,3.66318 0.99178,5.96331l11.17719,-2.64367c0.07269,-1.20159 0.28829,-2.26696 0.64555,-3.19667c-3.96464,0.95606 -8.22502,1.36111 -9.03776,-1.25518z" fill="#C40000"/>
     </g>
     <path stroke="null" id="svg_324" d="m-594.64429,80.17543c0,0 8.93403,-1.97191 13.91625,2.50504c4.98236,4.4766 -0.83881,10.20107 -2.83271,12.8286c-1.99404,2.62767 -1.46436,4.26962 1.26545,4.15424c2.7294,-0.11545 11.50328,-9.04749 9.86774,-16.25997c-1.63527,-7.21235 -9.76263,-11.82613 -19.59244,-10.21072c-9.83008,1.61554 -6.42327,7.40201 -2.62429,6.98281z" fill="#FF2C2C"/>
    </g>
    <path stroke="null" id="svg_325" d="m-767.11,360.02421c0,0 10.98856,-1.67651 11.62191,-1.0431c0.63321,0.63342 -3.09176,5.25244 -6.25802,5.28941c-3.16625,0.03724 -8.19799,-3.8405 -5.36389,-4.24631z" fill="#FFA039"/>
    <path stroke="null" id="svg_326" d="m-712.40224,350.52187c0,0 8.43317,-3.26777 9.2746,-3.14556c0.84088,0.12221 -1.25042,5.8053 -3.86477,6.37361c-2.61401,0.56831 -7.52381,-2.42441 -5.40983,-3.22805z" fill="#FFA039"/>
    <path stroke="null" id="svg_327" d="m-690.62485,248.69147c0,0 24.04042,-1.98687 27.25922,0c3.21839,1.98715 -2.93865,15.72835 -14.44124,15.05686c-11.50232,-0.67176 -16.69241,-14.77299 -12.81798,-15.05686z" fill="#FFDA3E"/>
    <path stroke="null" id="svg_328" d="m-824.8147,270.90323c0.12925,-0.08304 16.98905,-11.64205 23.7584,-10.53605c6.76922,1.10655 7.15876,17.19575 -4.58295,19.86018c-10.5713,2.39876 -24.25202,-6.05442 -19.17545,-9.32412z" fill="#FFDA3E"/>
    <path stroke="null" id="svg_329" d="m-883.96762,190.98525c-1.10875,0.88985 -10.76324,8.04129 -11.56866,17.5297c-0.80536,9.48827 9.0061,17.46928 10.69013,16.88332c1.68396,-0.58541 -0.73225,-17.71895 16.10837,-51.98582c16.84056,-34.26687 48.32499,-42.98013 60.91881,-45.24991c12.59376,-2.26978 25.272,0.03255 28.12203,-1.00882c2.84989,-1.0413 2.19089,-22.20176 -24.02173,-24.76446c-26.21268,-2.56277 -37.56181,26.70409 -38.07426,29.89972c-0.51258,3.1957 -25.18765,4.07417 -39.97788,15.35019c-14.79051,11.27568 -1.02523,31.63085 0.14642,35.14526c1.17145,3.51468 -0.01697,6.33367 -2.34324,8.20082z" fill="#E22C14"/>
   </g>
  </g>
 </g>
</svg>