<svg width="400" height="400" xmlns="http://www.w3.org/2000/svg">

 <g>
  <title>background</title>
  <rect fill="none" id="canvas_background" height="402" width="402" y="-1" x="-1"/>
 </g>
 <g>
  <title>Layer 1</title>
  <g stroke="null" id="svg_330">
   <g stroke="null" id="svg_331" display="none">
    <g stroke="null" id="svg_332" display="inline">
     <path stroke="null" id="svg_333" d="m733.67068,252.42757c0,0 7.66872,0.98637 18.50946,-2.29835c10.84001,-3.2852 18.68922,-13.69203 12.72128,-18.99362c-10.69074,-9.49632 -30.38877,11.10782 -31.23074,21.29197z" fill="#CD2606"/>
     <path stroke="null" id="svg_334" d="m744.6468,242.18513c0.87563,-2.24469 3.033,-6.99431 4.61426,-10.42464c-7.95507,4.91597 -15.0906,14.62498 -15.59037,20.66708c0,0 7.66872,0.98637 18.50873,-2.29883c1.73272,-0.52465 3.3874,-1.23198 4.9228,-2.07103c-5.31964,-3.8018 -13.91131,-2.13981 -12.45542,-5.87258z" fill="#BC1A04"/>
     <path stroke="null" id="svg_335" d="m733.67068,252.42757c0,0 20.88025,-22.05833 10.01487,-28.08676c-10.86611,-6.0277 -24.02081,10.31268 -10.01487,28.08676z" fill="#CD2606"/>
     <path stroke="null" id="svg_336" d="m741.12379,223.33127c-10.18512,-2.46933 -20.37097,12.70372 -7.4531,29.0963c0,0 0.9949,-1.05149 2.43786,-2.75787c-8.27751,-12.91494 -2.70714,-24.4657 5.01524,-26.33843z" fill="#BC1A04"/>
     <path stroke="null" id="svg_337" d="m736.45953,244.90837c0,0 12.43932,-11.94394 6.65211,-17.78774c-3.12398,-3.15422 -12.48615,5.86453 -6.65211,17.78774z" fill="#E22C14"/>
     <path stroke="null" id="svg_338" d="m733.67068,252.42757c0,0 5.99648,-5.85258 15.13426,-5.94185c9.13851,-0.09 14.6484,14.9167 7.07797,17.55944c-7.57018,2.64299 -19.0707,-6.84016 -22.21224,-11.61759z" fill="#CD2606"/>
     <path stroke="null" id="svg_339" d="m758.01272,262.65879c-7.22871,0.98636 -17.12919,-4.6745 -18.39653,-9.33437c-0.56514,-2.07493 0.13561,-3.85448 1.22515,-5.26622c-4.49669,1.76077 -7.17066,4.36937 -7.17066,4.36937c3.14154,4.77743 14.64206,14.26058 22.21224,11.61759c0.88295,-0.3083 1.58784,-0.78465 2.12981,-1.38637z" fill="#BC1A04"/>
     <path stroke="null" id="svg_340" d="m742.41748,251.18315c0,0 3.93595,-3.5235 8.03726,-2.6425c4.10205,0.88051 7.70799,7.84506 6.11136,10.51513c-1.59638,2.67006 -16.90186,-4.21132 -14.14863,-7.87263z" fill="#E22C14"/>
     <path stroke="null" id="svg_341" d="m748.61348,240.89974c0,0 0.48074,-6.49259 8.27605,-9.15973c4.81597,-1.64711 8.08092,3.50838 7.14578,6.01868c-0.93441,2.5103 -5.72477,6.02234 -7.62872,6.39259c-1.90444,0.3705 -7.86604,-0.55538 -7.79311,-3.25154z" fill="#E22C14"/>
     <path stroke="null" id="svg_342" d="m500.6349,308.45402c-1.63297,0.57319 -22.98274,16.04843 -20.83342,22.92615c2.14932,6.87846 34.24594,4.58547 55.59571,-6.59089c21.35002,-11.17636 94.14028,11.89321 93.99687,13.18227c-0.14269,1.29003 24.07252,7.02114 38.68799,7.45091c14.61498,0.42977 -4.36327,-24.23984 -4.36327,-24.23984l-163.08387,-12.7286z" fill="#FF8B00"/>
     <path stroke="null" id="svg_343" d="m673.14046,338.00156c-17.95067,6.25186 -38.83946,-4.40523 -38.83946,-4.40523s-1.19174,2.29445 -2.63299,5.50794c6.34381,2.12371 24.54497,5.96941 36.41404,6.3182c5.4555,0.16025 6.22966,-3.17617 5.05841,-7.42091z" fill="#FF7300"/>
     <path stroke="null" id="svg_344" d="m523.92375,325.60297c-9.20119,3.88936 -33.20152,8.72679 -37.56577,1.33784c-0.91563,-1.54906 -1.26296,-3.56813 -1.24027,-5.79111c-3.57618,3.79253 -6.1299,7.62726 -5.31622,10.23049c1.90663,6.10039 27.37406,4.98622 48.00431,-3.143c0.16903,-2.50103 -0.73782,-3.96351 -3.88204,-2.63421z" fill="#FF7300"/>
     <path stroke="null" id="svg_345" d="m506.5287,141.73104c0,0 -30.70975,-21.05965 -35.50743,-53.58085c0,0 27.31211,-3.70503 49.74728,11.1149c0,0 -12.06492,-50.01686 6.11136,-70.39405c0,0 31.35001,14.40803 44.11129,44.04775c0,0 14.94645,-33.34457 34.95181,-45.69438c0,0 19.59315,19.55382 17.74091,53.10413c0,0 29.999,-8.64484 50.71072,-1.23491c0,0 1.30076,16.40954 -12.04663,36.81514c0,0 27.61285,4.3509 37.08137,17.93579c0,0 -10.23415,22.22949 -63.77883,34.99114c-53.54469,12.7614 -118.04524,-0.89917 -129.12185,-27.10467z" fill="#CD2606"/>
     <path stroke="null" id="svg_346" d="m623.68392,80.32855c1.85224,-33.55031 -17.74091,-53.10413 -17.74091,-53.10413c-20.00535,12.3498 -34.95181,45.69438 -34.95181,45.69438c-12.76201,-29.63973 -44.11129,-44.04775 -44.11129,-44.04775c-18.17629,20.37719 -6.11136,70.39405 -6.11136,70.39405c-22.43517,-14.81993 -49.74728,-11.1149 -49.74728,-11.1149c4.79768,32.5212 35.50743,53.58085 35.50743,53.58085c4.12522,9.76084 15.66452,17.78042 31.2866,23.34324c8.47727,-7.11925 23.89837,-21.66442 6.38039,-20.12779c-23.10006,2.02627 -64.16787,-41.33738 -57.00745,-46.87587c7.15968,-5.53885 44.71448,12.29291 42.41808,5.94398c-2.29664,-6.3493 -8.37605,-54.17116 3.51204,-55.65711c11.88784,-1.48601 37.82553,41.33757 43.22908,33.77245c5.40305,-7.56512 21.88467,-39.31099 27.28821,-39.71649c5.40354,-0.40513 6.07868,8.10556 11.61784,23.23555c5.53818,15.13005 -0.40586,26.74783 13.40861,20.5336c13.81374,-6.21417 45.73255,-7.08895 45.73255,-7.08895c-20.71171,-7.40993 -50.71072,1.23491 -50.71072,1.23491z" fill="#BC1A04"/>
     <path stroke="null" id="svg_347" d="m465.54993,224.58252c0,0 -17.43871,12.4381 -39.058,23.93423c-21.62003,11.49613 39.97875,31.74319 55.59278,35.00327l-16.53478,-58.9375z" fill="#FECE00"/>
     <path stroke="null" id="svg_348" d="m431.92401,245.56326c-1.77516,0.98539 -3.58862,1.97297 -5.43208,2.95348c-21.62003,11.49613 39.97875,31.74319 55.59278,35.00327l-3.37276,-12.02443c-23.44982,-4.03327 -58.05772,-13.50544 -46.78794,-25.93232z" fill="#FCC000"/>
     <path stroke="null" id="svg_349" d="m528.23044,154.85355c0,0 39.70265,-42.52077 85.79131,-38.40146c46.08792,4.11937 82.50293,70.67711 92.01657,99.64731c9.5134,28.97044 24.76864,33.89154 29.52534,35.20352c0,0 -10.94172,56.75427 -82.72855,85.29495c-71.78756,28.54165 -159.49013,-0.16391 -191.66601,-55.44156c-32.17686,-55.2779 29.56265,-131.55172 45.35961,-139.42508c0,0 15.96087,10.00579 21.70173,13.12232z" fill="#FECE00"/>
     <path stroke="null" id="svg_350" d="m653.23414,274.51371c0,0 37.81407,10.92294 49.07287,1.5554c0,0 3.86741,8.07849 -9.79779,11.85955c-13.66423,3.78155 -32.40101,-6.28991 -39.27508,-13.41495z" fill="#FCC000"/>
     <path stroke="null" id="svg_351" d="m648.74989,296.33886c-0.5827,-0.82441 -15.88745,-17.56847 -12.08321,-31.90612c3.80399,-14.33766 35.36304,-31.06952 42.90736,-29.26655c7.54408,1.80272 14.84645,21.99662 26.34038,23.61202c11.49466,1.6154 -10.51659,-24.02935 -15.56476,-41.29562c-5.04866,-17.26651 -46.51476,-93.60283 -96.56132,-87.0381c-50.04655,6.56491 -90.54727,78.85888 -87.25963,107.332c3.28764,28.47385 27.11186,63.20687 73.762,73.50565c46.64964,10.29951 77.27208,-2.47981 68.45919,-14.94328z" fill="#FFDA3E"/>
     <path stroke="null" id="svg_352" d="m710.40184,297.24425c-91.80535,67.07208 -207.9825,15.18085 -220.9272,-40.88585c-13.31715,-57.67722 38.7558,-101.50503 38.7558,-101.50503c-5.74087,-3.11635 -21.70173,-13.12232 -21.70173,-13.12232c-15.79696,7.87354 -77.53648,84.14736 -45.35961,139.42526c32.17589,55.27765 119.87846,83.98321 191.66601,55.44156c26.80795,-10.65781 45.1301,-25.25084 57.56673,-39.35362z" fill="#FCC000"/>
     <path stroke="null" id="svg_353" d="m471.02128,217.4826c0,4.83987 -4.41157,8.76387 -9.85219,8.76387c-5.44159,0 -9.85243,-3.92399 -9.85243,-8.76387c0,-4.84011 4.41084,-8.76387 9.85243,-8.76387c5.44062,0 9.85219,3.92375 9.85219,8.76387z" fill="#FF9999"/>
     <path stroke="null" id="svg_354" d="m656.37104,223.21615c0,4.84036 -4.41084,8.76435 -9.85219,8.76435s-9.85219,-3.92399 -9.85219,-8.76435c0,-4.83963 4.41084,-8.76338 9.85219,-8.76338s9.85219,3.92375 9.85219,8.76338z" fill="#FF9999"/>
     <g stroke="null" id="svg_355">
      <path stroke="null" id="svg_356" d="m632.66438,182.64592l-46.31964,22.67664c0,0 11.72272,15.6111 30.3434,10.12634c18.62093,-5.48452 15.97623,-32.80297 15.97623,-32.80297z" fill="#720000"/>
      <path stroke="null" id="svg_357" d="m616.68815,215.44889c12.66664,-3.73106 15.49329,-17.56493 16.00599,-26.03062c-1.97663,5.3611 -6.66943,13.98216 -17.13846,18.0897c-11.43222,4.48499 -19.57925,-1.47113 -23.21811,-5.11902l-5.99283,2.93361c0,0 11.72272,15.6111 30.3434,10.12634z" fill="#590000"/>
      <path stroke="null" id="svg_358" d="m626.15886,189.93145l-25.95159,12.24627c0,0 17.00309,8.89302 25.95159,-12.24627z" fill="#8A0000"/>
      <path stroke="null" id="svg_359" d="m610.02311,213.67129c17.02796,-3.74741 19.29607,-21.86613 20.82123,-30.13437l1.82004,-0.891c0,0 2.6447,27.31845 -15.97623,32.80297c-8.89655,2.62055 -16.21795,0.42562 -21.4388,-2.58152c3.28862,1.00319 8.23117,2.2442 14.77377,0.80392z"/>
     </g>
     <g stroke="null" id="svg_360">
      <path stroke="null" id="svg_361" d="m476.04895,180.65928l40.54609,30.81146c0,0 -14.33668,12.8864 -31.32952,4.01814c-16.99309,-8.86802 -9.21656,-34.82961 -9.21656,-34.82961z" fill="#720000"/>
      <path stroke="null" id="svg_362" d="m511.18198,215.07034c-4.35035,-0.15854 -9.87048,-1.23174 -15.96379,-4.46669c-10.14878,-5.38842 -10.45756,-16.57088 -9.73486,-22.77481l-9.43437,-7.16956c0,0 -7.77653,25.96159 9.21656,34.82961c10.6322,5.54891 20.22463,2.58079 25.91647,-0.41855z" fill="#590000"/>
      <path stroke="null" id="svg_363" d="m492.06177,215.03912c-15.78111,-6.88114 -14.52034,-24.86742 -14.41985,-33.1692l-1.59296,-1.21064c0,0 -7.77653,25.96159 9.21656,34.82961c8.11873,4.23717 15.63013,3.50813 21.26319,1.5915c-3.37813,0.34415 -8.40288,0.6027 -14.46693,-2.04127z"/>
      <path stroke="null" id="svg_364" d="m489.47464,194.43839l22.32077,17.02528c0,0 -20.44317,1.8176 -22.32077,-17.02528z" fill="#8A0000"/>
     </g>
     <g stroke="null" id="svg_365">
      <path stroke="null" id="svg_366" d="m533.47666,226.20329c0,0 10.88148,-9.99999 15.07963,-10.10317c4.19815,-0.10293 13.5791,10.92782 13.5791,10.92782s-7.11285,12.11273 -14.32936,12.79445c-4.84573,0.45733 -14.32936,-13.6191 -14.32936,-13.6191z" fill="#FF8B00"/>
      <path stroke="null" id="svg_367" d="m541.67637,223.0881c-0.31318,-1.27686 1.27808,-3.63887 2.57762,-5.26086c-4.80353,2.88641 -10.77733,8.37605 -10.77733,8.37605s1.48516,2.20469 3.58057,4.84011c0.01585,0.00024 13.46032,0.44904 22.15321,0.23854c1.80395,-2.34493 2.92568,-4.254 2.92568,-4.254s-0.72831,-0.85612 -1.86882,-2.08834c-8.19824,-0.17049 -18.29092,-0.62928 -18.59093,-1.85151z" fill="#FF7300"/>
      <path stroke="null" id="svg_368" d="m547.80603,239.82239c7.21651,-0.68172 14.3301,-12.79445 14.3301,-12.79445c-14.43278,-1.54662 -28.65946,-0.82465 -28.65946,-0.82465s9.48364,14.07643 14.32936,13.6191z" fill="#FF8B00"/>
      <path stroke="null" id="svg_369" d="m548.7819,237.08452c-3.31179,0.09195 -8.31971,-6.67674 -11.18149,-11.00953c-2.58274,0.05 -4.12376,0.1283 -4.12376,0.1283s9.48364,14.07643 14.32936,13.6191c5.00524,-0.47269 9.95999,-6.4443 12.52737,-10.05975c-2.97373,3.29179 -7.37139,7.20627 -11.55149,7.32188z" fill="#FF7300"/>
      <path stroke="null" id="svg_370" d="m544.88327,221.38854c0,0 1.5876,-3.27642 3.21178,-3.5613c1.62443,-0.28513 7.35627,3.29983 7.4314,4.68133c0.07439,1.38174 -11.12831,0.70977 -10.64318,-1.12003z" fill="#FFA039"/>
      <path stroke="null" id="svg_371" d="m544.73888,227.96602c0,0 11.94053,-0.05439 12.82396,0.77221c0.88343,0.82587 -5.41452,7.01065 -8.4641,6.38357c-3.04885,-0.62709 -7.83677,-7.17676 -4.35986,-7.15578z" fill="#FFA039"/>
     </g>
     <path stroke="null" id="svg_372" d="m653.23414,274.51371c0,0 20.11755,10.69025 35.18474,11.61589c15.06719,0.92612 13.80423,-10.18512 6.39698,-15.31939c-7.40725,-5.13451 -16.16112,-19.7812 -16.66649,-25.75744c0,0 8.83119,14.73059 22.00833,25.08401s2.57104,25.33645 -19.98804,19.86511c-22.55883,-5.47159 -26.93552,-15.48817 -26.93552,-15.48817z" fill="#F99300"/>
     <path stroke="null" id="svg_373" d="m657.77327,269.90652c0,0 11.80711,-16.49771 15.74232,-16.66332c3.93595,-0.16561 10.77587,13.09738 16.26746,17.98799c10.28488,9.15924 -36.12281,4.12059 -32.00979,-1.32467z" fill="#FFDA3E"/>
     <path stroke="null" id="svg_374" d="m436.26338,247.5016c0,0 6.44723,-4.02058 8.52728,-4.22864c2.07956,-0.20805 4.4284,13.1769 3.04958,14.21131c-2.65031,1.98883 -18.54337,-5.71916 -11.57686,-9.98268z" fill="#FFDA3E"/>
     <path stroke="null" id="svg_375" d="m537.45554,100.4497c0,0 -5.20476,-32.2318 0,-36.74953c5.20549,-4.51755 30.93561,32.21235 39.67631,29.26618c8.74094,-2.94629 18.85606,-36.53361 24.94498,-37.71205s10.80294,26.71265 12.76713,35.55145c1.96444,8.83881 35.08059,-4.91048 43.95836,-3.73204c8.87777,1.17869 -2.10127,24.25765 0,30.44469c2.10127,6.1871 28.91239,11.19569 30.2873,15.51695c1.37442,4.32108 -11.21124,8.11227 -14.69498,10.01725c-3.4835,1.9048 -31.56124,-38.59592 -75.65716,-33.19451c-44.09519,5.40153 -54.60374,20.32926 -61.67439,22.78432c-7.0709,2.45524 -37.02454,-20.0345 -36.53379,-25.53402c0.49099,-5.4997 25.43597,7.26743 31.62319,5.69599c6.18722,-1.57138 5.88795,-8.34752 5.30305,-12.35468z" fill="#E22C14"/>
     <g stroke="null" id="svg_376">
      <path stroke="null" id="svg_377" d="m635.01175,119.82796c0,0 5.03719,-6.63918 11.71686,-2.63512c1.89663,8.05367 7.10212,20.66945 24.14301,18.27958c1.43857,2.78933 1.95273,10.60208 -0.52221,11.99888c-8.87265,2.14749 -17.25578,4.76206 -13.60252,22.48529c-7.09968,2.65543 -14.13912,1.78809 -14.94914,0.51221c-0.96002,-6.36857 0.45367,-21.25605 -18.32214,-16.71631c-2.7225,-2.83049 -3.20251,-11.18021 -1.59882,-11.92784c8.00019,-1.49802 11.10368,-2.97891 12.83933,-5.12866c1.73565,-2.14969 0.40781,-13.51014 0.29562,-16.86802z" fill="#FFFFFF"/>
      <g stroke="null" id="svg_378">
       <path stroke="null" id="svg_379" d="m620.96142,144.43647c-1.38979,0.02915 -2.5464,-1.06777 -2.58567,-2.46018c-0.03927,-1.39985 1.05978,-2.56628 2.45957,-2.60543c5.60452,-0.1597 9.43657,-1.7451 11.38832,-4.71365c3.67448,-5.58843 0.14366,-14.6459 0.10634,-14.73657c-0.51709,-1.29845 0.11586,-2.7719 1.41076,-3.29136c1.31613,-0.50764 2.77446,0.11019 3.29154,1.40589c0.18781,0.46849 4.55938,11.57497 -0.56318,19.38625c-2.91031,4.44401 -8.12239,6.80272 -15.48744,7.01468c-0.00488,0 -0.01512,0 -0.02024,0.00037z"/>
      </g>
      <g stroke="null" id="svg_380">
       <path stroke="null" id="svg_381" d="m667.28911,137.71314c-4.28205,0.57373 -8.16336,-0.19171 -11.58515,-2.2892c-8.87704,-5.44068 -11.1188,-17.9239 -11.20905,-18.45343c-0.23464,-1.37656 0.68831,-2.68342 2.06395,-2.92245c1.53028,-0.28263 2.68836,0.68532 2.93178,2.05846c0.01951,0.10726 1.96419,10.78251 8.87606,15.00871c3.22447,1.96474 6.96163,2.24987 11.49637,0.84362c1.32101,-0.38452 2.75519,0.33214 3.16959,1.67193c0.41367,1.33521 -0.33415,2.75586 -1.67224,3.16989c-1.39467,0.43141 -2.7525,0.73563 -4.07132,0.91246z"/>
      </g>
      <g stroke="null" id="svg_382">
       <path stroke="null" id="svg_383" d="m642.18022,172.48214c-0.07366,0.00988 -0.1422,0.01695 -0.21708,0.01915c-1.39857,0.07025 -2.5864,-1.00893 -2.65348,-2.40518c-0.29708,-6.0138 -1.98688,-10.16805 -5.02475,-12.34718c-4.17473,-2.9855 -9.77731,-1.42833 -9.83487,-1.41064c-1.30369,0.36708 -2.74275,-0.38635 -3.13251,-1.72943c-0.38903,-1.3407 0.37147,-2.74092 1.71224,-3.13532c0.31611,-0.09708 7.96238,-2.27499 14.15912,2.12438c4.38596,3.11654 6.80626,8.58362 7.17993,16.2499c0.06707,1.32393 -0.8988,2.46152 -2.18859,2.63433z"/>
      </g>
      <g stroke="null" id="svg_384">
       <path stroke="null" id="svg_385" d="m657.22545,172.5208c-1.20173,0.16098 -2.38225,-0.56709 -2.75299,-1.76785c-2.6025,-8.46362 -2.10127,-15.08328 1.48711,-19.67565c5.14427,-6.57784 14.55522,-6.13411 14.95158,-6.1199c1.39247,0.07555 2.45591,1.26607 2.38298,2.66116c-0.07195,1.39515 -1.28393,2.4489 -2.65323,2.4003c-0.07586,-0.00494 -7.20993,-0.29958 -10.70586,4.20034c-2.49542,3.21014 -2.7008,8.27282 -0.62002,15.04591c0.41464,1.33723 -0.33928,2.75385 -1.67736,3.16532c-0.1339,0.04305 -0.27513,0.07195 -0.4122,0.09037z"/>
      </g>
     </g>
     <path stroke="null" id="svg_386" d="m488.12485,322.74778c0,0 1.68833,-2.7647 3.42545,-3.32715c1.73711,-0.56294 16.57283,7.0387 14.58303,8.02507c-5.7255,2.83812 -20.69976,0.6605 -18.00848,-4.69792z" fill="#FFA039"/>
     <path stroke="null" id="svg_387" d="m657.0696,336.31322c0,0 8.87923,-4.21571 10.31634,-4.33303c1.43613,-0.11805 3.86229,3.86253 2.44933,4.9928c-1.41369,1.13052 -16.76942,1.62492 -12.76567,-0.65977z" fill="#FFA039"/>
    </g>
    <g stroke="null" id="svg_388" display="inline">
     <g stroke="null" id="svg_389">
      <g stroke="null" id="svg_390">
       <path stroke="null" id="svg_391" d="m382.27356,194.78352c-0.71587,0 -1.29564,-0.57953 -1.29564,-1.29564l0,-98.09324c0,-0.71611 0.57977,-1.2957 1.29564,-1.2957s1.29564,0.57959 1.29564,1.2957l0,98.09324c0,0.71611 -0.57977,1.29564 -1.29564,1.29564z" fill="#8A0000"/>
      </g>
      <g stroke="null" id="svg_392">
       <path stroke="null" id="svg_393" d="m400.84253,191.75211c-0.71587,0 -1.29491,-0.5794 -1.29491,-1.29552l0,-72.97917c0,-0.71612 0.57904,-1.2957 1.29491,-1.2957c0.71685,0 1.29589,0.57959 1.29589,1.2957l0,72.97917c0,0.71611 -0.57904,1.29552 -1.29589,1.29552z" fill="#8A0000"/>
      </g>
      <g stroke="null" id="svg_394">
       <path stroke="null" id="svg_395" d="m417.15243,179.93512c-0.71612,0 -1.29588,-0.5794 -1.29588,-1.29564l0,-46.10884c0,-0.71599 0.57977,-1.29558 1.29588,-1.29558c0.71587,0 1.29564,0.57959 1.29564,1.29558l0,46.10884c0,0.71624 -0.57977,1.29564 -1.29564,1.29564z" fill="#8A0000"/>
      </g>
      <g stroke="null" id="svg_396">
       <path stroke="null" id="svg_397" d="m428.94637,207.59992c-0.71587,0 -1.29491,-0.57953 -1.29491,-1.29564l0,-110.90965c0,-0.71611 0.57904,-1.2957 1.29491,-1.2957c0.71685,0 1.29588,0.57959 1.29588,1.2957l0,110.90965c0,0.71612 -0.57904,1.29564 -1.29588,1.29564z" fill="#8A0000"/>
      </g>
      <g stroke="null" id="svg_398">
       <path stroke="null" id="svg_399" d="m447.76682,198.31592c-0.71538,0 -1.29442,-0.5794 -1.29589,-1.29308c-0.08366,-64.1075 -0.07488,-96.86608 0.02561,-97.36445c0.13903,-0.70361 0.81709,-1.16917 1.52296,-1.01734c0.65904,0.13165 1.10051,0.74148 1.03637,1.39424c-0.09244,2.06487 -0.03707,64.27214 0.00659,96.98242c0.00073,0.71624 -0.57831,1.2982 -1.29491,1.2982l-0.00073,0z" fill="#8A0000"/>
      </g>
      <g stroke="null" id="svg_400">
       <path stroke="null" id="svg_401" d="m464.82893,184.01156c-0.71587,0 -1.29564,-0.57928 -1.29564,-1.2954l0,-65.23874c0,-0.71612 0.57977,-1.2957 1.29564,-1.2957s1.29564,0.57959 1.29564,1.2957l0,65.23874c0,0.71611 -0.57977,1.2954 -1.29564,1.2954z" fill="#8A0000"/>
      </g>
     </g>
     <g stroke="null" id="svg_402">
      <path stroke="null" id="svg_403" d="m709.5045,203.07945c-0.71099,0 -1.29076,-0.57453 -1.29588,-1.28552c-0.79392,-99.0929 -0.08293,-99.94817 0.30171,-100.4061c0.46026,-0.5466 1.27735,-0.62258 1.82443,-0.16445c0.42245,0.35184 0.5644,0.9185 0.39684,1.41192c-0.50611,3.47929 -0.23732,61.03822 0.06854,99.13839c0.00512,0.71612 -0.56953,1.30064 -1.28564,1.30576c-0.0022,0 -0.00707,0 -0.01,0z" fill="#8A0000"/>
     </g>
     <g stroke="null" id="svg_404">
      <path stroke="null" id="svg_405" d="m726.56442,221.34366c-0.71612,0 -1.29589,-0.57928 -1.29589,-1.29564l0,-128.92599c0,-0.71618 0.57977,-1.29552 1.29589,-1.29552c0.71587,0 1.29564,0.57934 1.29564,1.29552l0,128.92599c0,0.71636 -0.57977,1.29564 -1.29564,1.29564z" fill="#8A0000"/>
     </g>
     <g stroke="null" id="svg_406">
      <path stroke="null" id="svg_407" d="m744.57558,206.09306c-0.71612,0 -1.29515,-0.57928 -1.29515,-1.2954l0,-100.4619c0,-0.71611 0.57904,-1.29552 1.29515,-1.29552c0.7166,0 1.29564,0.5794 1.29564,1.29552l0,100.4619c0,0.71611 -0.57904,1.2954 -1.29564,1.2954z" fill="#8A0000"/>
     </g>
     <g stroke="null" id="svg_408">
      <path stroke="null" id="svg_409" d="m763.21748,203.07945c-0.71611,0 -1.29588,-0.57965 -1.29588,-1.29552l0,-89.5331c0,-0.71611 0.57977,-1.29552 1.29588,-1.29552c0.71587,0 1.29564,0.5794 1.29564,1.29552l0,89.5331c0,0.71587 -0.57977,1.29552 -1.29564,1.29552z" fill="#8A0000"/>
     </g>
     <g stroke="null" id="svg_410">
      <path stroke="null" id="svg_411" d="m783.12161,196.09038c-0.71612,0 -1.29588,-0.57928 -1.29588,-1.2954l0,-70.34258c0,-0.71612 0.57977,-1.29552 1.29588,-1.29552c0.71587,0 1.29564,0.5794 1.29564,1.29552l0,70.34258c0,0.71612 -0.57977,1.2954 -1.29564,1.2954z" fill="#8A0000"/>
     </g>
     <g stroke="null" id="svg_412">
      <path stroke="null" id="svg_413" d="m799.31614,216.94332c-0.7166,0 -1.29564,-0.57928 -1.29564,-1.2954l0,-105.09243c0,-0.71618 0.57904,-1.29558 1.29564,-1.29558c0.71611,0 1.29515,0.5794 1.29515,1.29558l0,105.09243c0,0.71612 -0.57904,1.2954 -1.29515,1.2954z" fill="#8A0000"/>
     </g>
     <g stroke="null" id="svg_414">
      <path stroke="null" id="svg_415" d="m677.85423,45.25308c0,0 8.68265,0.5641 11.13856,-8.36934c2.45664,-8.93332 -5.25134,-10.32957 -6.31259,-11.88858c-1.06027,-1.55882 8.12117,-18.11128 -4.91548,-25.14291c-13.03665,-7.03139 -20.06218,0.36239 -22.91006,4.85896c-2.84836,4.49663 -1.34223,8.53234 -3.40862,8.96424c-2.06542,0.43178 -8.24337,-0.51562 -11.06343,7.84409c-2.82007,8.35953 -1.59662,14.38418 4.71523,18.0439c3.72253,2.15828 6.71089,0.87837 7.31847,2.07852c0.60733,1.19997 -1.87761,5.13354 -1.14491,8.06946c0.73197,2.93617 18.93679,4.4198 19.63973,3.65374c0.7027,-0.76606 1.07051,-5.97551 1.62053,-7.23407c0.54977,-1.25857 3.56594,-0.77953 5.32256,-0.87801z" fill="#EFEFEF"/>
      <path stroke="null" id="svg_416" d="m664.60148,-2.68379c-9.47144,7.1545 -7.08456,18.78715 -10.6405,19.2604c-3.9818,0.53007 -11.52076,4.52505 -10.08609,12.25804c1.43491,7.73299 10.44391,7.91671 12.48322,10.42909c2.03932,2.51244 -0.21049,6.30326 1.81346,8.43874c1.17783,1.24223 7.83482,3.0219 13.25739,4.17236c-0.15439,0.7174 -0.32269,1.27783 -0.51782,1.49034c-0.70294,0.76606 -18.90777,-0.71776 -19.63973,-3.65374c-0.7327,-2.93592 1.75224,-6.86949 1.14491,-8.06946c-0.60684,-1.20015 -3.59594,0.07976 -7.31847,-2.07852c-6.31186,-3.65972 -7.5353,-9.68419 -4.71523,-18.0439s8.99802,-7.41219 11.06416,-7.84409c2.06566,-0.4319 0.55953,-4.46761 3.40789,-8.96424c1.67516,-2.64439 4.80938,-6.2699 9.74682,-7.39499z" fill="#E2E2E2"/>
      <path stroke="null" id="svg_417" d="m674.41367,40.99286c0,0 11.0649,0.07025 11.81809,-6.45131c0.75294,-6.52137 -7.24334,-6.24027 -7.77506,-9.902c-0.53245,-3.66192 3.63667,-12.48212 0.81051,-17.83634c-2.82665,-5.35403 -9.91121,-6.64668 -14.43498,-4.0851c-4.52352,2.56159 -3.68521,11.81351 -5.93307,14.17223c-2.24688,2.35878 -8.39776,2.56945 -9.93365,8.00178c-1.53613,5.43232 9.13119,7.75957 10.71367,10.75763c1.58272,2.998 0.91709,7.01572 1.90907,8.78234c0.99271,1.76657 6.7387,3.06044 7.87628,2.45683s0.91709,-5.48294 4.94914,-5.89605z" fill="#FFFFFF"/>
     </g>
     <g stroke="null" id="svg_418">
      <path stroke="null" id="svg_419" d="m439.96249,131.52116c0,0 3.86912,-6.75961 -2.34811,-12.24907c-6.21698,-5.48952 -10.37147,0.15897 -12.04248,0.39855c-1.6715,0.23982 -11.36929,-13.65496 -22.15175,-5.93849c-10.78221,7.71622 -7.60091,16.27441 -5.10622,20.33365c2.49518,4.05942 6.33356,4.43578 5.86746,6.26716c-0.46538,1.83145 -3.65789,6.42582 1.95492,11.98254c5.61257,5.55647 10.93806,6.94254 16.36429,3.30666c3.19959,-2.14389 3.34667,-5.05073 4.5506,-5.06689c1.20393,-0.01622 3.38911,3.52935 6.03795,4.09565c2.64909,0.56648 11.00392,-13.48855 10.6644,-14.3551c-0.33928,-0.86636 -4.38303,-3.21197 -5.17915,-4.14937c-0.79538,-0.93734 0.77636,-3.17373 1.38808,-4.62529z" fill="#EFEFEF"/>
      <path stroke="null" id="svg_420" d="m396.20242,123.3189c2.02688,10.43061 12.31981,13.08793 11.301,16.13349c-1.14003,3.41033 -0.89368,11.04404 5.88917,12.93244c6.78236,1.88858 10.4744,-5.28336 13.29666,-5.93453c2.82226,-0.6513 4.98622,2.64884 7.49969,1.86132c1.46199,-0.458 5.51135,-5.11079 8.57045,-9.01869c0.51562,0.4066 0.90027,0.76252 0.99417,1.00289c0.33952,0.86636 -8.01531,14.92157 -10.6644,14.3551c-2.64884,-0.56629 -4.83402,-4.11187 -6.03795,-4.09565c-1.20393,0.01616 -1.35101,2.923 -4.5506,5.06689c-5.42623,3.6357 -10.75172,2.24981 -16.36429,-3.30666c-5.61282,-5.55672 -2.4203,-10.15128 -1.95492,-11.98254c0.46611,-1.83138 -3.37227,-2.20774 -5.86672,-6.26716c-1.4676,-2.38713 -3.15007,-6.33424 -2.11225,-10.7469z" fill="#E2E2E2"/>
      <path stroke="null" id="svg_421" d="m435.18311,132.6118c0,0 4.40937,-8.86954 -0.53806,-12.04071c-4.94768,-3.17123 -7.8675,3.3691 -11.02124,2.35634c-3.15373,-1.01259 -8.6063,-7.83494 -14.0235,-7.66872c-5.41671,0.16628 -9.24339,5.35439 -8.96314,9.99981c0.27976,4.64517 8.04897,7.61097 9.06144,10.3461c1.01222,2.73525 -1.23759,7.76372 2.52665,11.13612c3.76326,3.3724 9.83097,-4.28992 12.8647,-4.38315c3.03349,-0.09305 6.00209,2.02298 7.81287,1.91992c1.81126,-0.10287 5.11232,-4.214 5.07427,-5.36622c-0.03781,-1.15228 -4.04815,-2.89446 -2.79397,-6.29948z" fill="#FFFFFF"/>
     </g>
     <g stroke="null" id="svg_422">
      <path stroke="null" id="svg_423" d="m755.03095,174.38328c0,0 6.48064,5.93221 14.06131,0.45001c7.58067,-5.48208 2.39396,-11.45356 2.54396,-13.35178c0.15025,-1.89809 17.84237,-9.12924 12.02126,-22.90621c-5.8216,-13.7771 -16.02697,-12.39566 -21.11221,-10.65507c-5.08549,1.74053 -6.44966,5.87081 -8.34971,4.90463c-1.90029,-0.96594 -6.16551,-5.6166 -13.67106,-0.8163c-7.50481,4.80018 -10.34903,10.31787 -7.6914,17.18962c1.56687,4.05229 4.72914,4.93359 4.44889,6.26265c-0.28049,1.32869 -4.72328,2.85543 -6.00234,5.63019c-1.27979,2.77494 12.11809,15.45037 13.15592,15.29134c1.03807,-0.15891 4.6206,-4.02863 5.84941,-4.67182c1.22808,-0.64355 3.30008,1.6398 4.74597,2.67275z" fill="#EFEFEF"/>
      <path stroke="null" id="svg_424" d="m774.89483,128.25779c-11.98029,-0.35269 -17.45383,10.31622 -20.55293,8.44112c-3.47057,-2.09944 -11.93248,-3.71893 -15.69062,3.2777c-3.75838,6.99632 3.21983,12.83561 3.23812,16.10276c0.01756,3.26733 -4.1501,4.83066 -3.90619,7.79159c0.1422,1.7226 4.25937,7.33176 7.80214,11.66528c-0.57465,0.46733 -1.06198,0.80221 -1.34979,0.84612c-1.03783,0.15903 -14.43571,-12.5164 -13.15592,-15.29134c1.27906,-2.77476 5.72184,-4.30132 6.00234,-5.63038c0.28025,-1.32869 -2.88202,-2.21017 -4.44889,-6.26247c-2.65762,-6.87175 0.18659,-12.38944 7.6914,-17.18962c7.50554,-4.80011 11.77077,-0.14945 13.67106,0.81648c1.90005,0.966 3.26422,-3.1641 8.34971,-4.90481c2.99056,-1.0235 7.75092,-1.89718 12.34956,0.33757z" fill="#E2E2E2"/>
      <path stroke="null" id="svg_425" d="m755.01412,168.85364c0,0 8.66874,7.04919 13.38398,2.38981s-1.75882,-9.49218 0.1361,-12.71195c1.8959,-3.22001 10.75416,-7.53067 11.91297,-13.53313c1.15881,-6.00264 -3.60326,-11.4985 -8.7846,-12.34084c-5.18134,-0.84215 -10.36951,6.97334 -13.63032,7.41018c-3.26057,0.43678 -8.23751,-3.28502 -12.88055,0.02183c-4.64328,3.30666 2.28615,11.88199 1.63736,15.24329c-0.64904,3.3613 -3.71253,6.10405 -4.04815,8.12263c-0.33513,2.01834 3.3713,6.66906 4.64889,6.91285c1.27759,0.24366 4.1879,-3.73814 7.62433,-1.51467z" fill="#FFFFFF"/>
     </g>
    </g>
   </g>
   <g stroke="null" id="svg_426" display="none">
    <path stroke="null" id="svg_427" d="m973.62955,316.09738c-0.17927,0.44782 -16.82772,11.99419 -10.92002,21.66076c5.90746,9.6673 22.28858,-1.07344 22.28858,-1.07344s-0.89661,13.51569 13.6935,10.74074c14.58962,-2.77494 9.48754,-13.96301 9.48754,-13.96301s5.72843,9.39778 17.36431,4.29571c11.63686,-5.10134 -3.57984,-27.56846 -3.57984,-27.56846l-48.33408,5.9077z" fill="#CD2606"/>
    <g stroke="null" id="svg_428" display="inline">
     <g stroke="null" id="svg_429">
      <path stroke="null" id="svg_430" d="m967.27989,332.7807c-1.54491,-8.90533 6.68235,-14.7445 6.68235,-14.7445s-0.32245,-0.60099 -0.90734,-1.43052c-2.9047,2.38542 -15.62232,12.51883 -10.34537,21.15245c5.90746,9.6673 22.28858,-1.07344 22.28858,-1.07344s-16.17355,5.00134 -17.71823,-3.904z" fill="#BC1A04"/>
      <path stroke="null" id="svg_431" d="m993.90442,343.49388c-4.78816,-3.93156 -4.17059,-14.49839 -4.17059,-14.49839l-4.73572,7.68921c0,0 -0.89661,13.51496 13.6935,10.74074c3.76131,-0.71514 6.21356,-1.9898 7.78238,-3.4874c-3.95326,1.06051 -9.63291,1.96736 -12.56957,-0.44416z" fill="#BC1A04"/>
      <path stroke="null" id="svg_432" d="m1025.54347,337.75813c2.67226,-1.17125 3.9279,-3.25861 4.27693,-5.7794c-10.00024,2.93885 -23.64861,-2.98324 -23.64861,-2.98324l5.23378,6.55576l-0.10634,1.17052c2.81885,2.11078 7.5553,3.96936 14.24424,1.03637z" fill="#BC1A04"/>
     </g>
    </g>
    <path stroke="null" id="svg_433" d="m1096.85687,199.39802c0,0 15.8072,-1.95273 26.96552,-6.13673c11.15734,-4.18449 19.88657,31.49026 -22.68859,55.41815c0,0 -9.62072,-38.83263 -4.27693,-49.28141z" fill="#FECE00"/>
    <path stroke="null" id="svg_434" d="m1127.25052,224.8157c-14.92596,-4.64499 -17.57627,-19.95096 -17.94921,-27.54297c-6.86748,1.4365 -12.44444,2.1253 -12.44444,2.1253c-5.34379,10.44854 4.27693,49.28141 4.27693,49.28141c13.06934,-7.34505 21.30319,-15.79745 26.11672,-23.86374z" fill="#FCC000"/>
    <path stroke="null" id="svg_435" d="m873.83645,192.86274c0,0 -11.94906,-2.27005 -23.09347,-9.99877c-11.14368,-7.72896 -25.64354,24.3596 16.64844,52.82296l6.44503,-42.82419z" fill="#FECE00"/>
    <path stroke="null" id="svg_436" d="m845.24479,182.08663c-8.87704,3.49594 -13.19617,29.81388 22.14662,53.6003l0.99417,-6.60528c-25.51451,-18.61117 -27.72066,-38.25359 -23.14079,-46.99502z" fill="#FCC000"/>
    <path stroke="null" id="svg_437" d="m953.82372,90.60361c0,0 -8.76704,-20.32634 9.64169,-30.86689c18.40897,-10.54056 28.5036,1.48455 29.69168,6.53211c0,0 8.90753,-11.80985 27.61285,-10.72977c18.70605,1.08015 24.4657,20.08261 22.92176,28.24787c0,0 40.61584,-5.39958 32.60199,35.92671c0,0 27.46797,14.44357 7.71969,37.93261c-19.74827,23.48891 -125.2981,-48.02779 -125.2981,-48.02779l-4.89158,-19.01484z" fill="#CD2606"/>
    <path stroke="null" id="svg_438" d="m1090.82624,144.51092c-3.64033,0.18354 -8.23824,-1.25948 -12.20931,-7.93074c-8.05239,-13.52892 -38.33189,-47.51229 -66.35621,-51.37756c-28.02432,-3.8657 -44.64008,13.98344 -50.7334,0c-3.65619,-8.39123 -0.60441,-18.77447 2.42103,-25.73799c-0.16025,0.08927 -0.32123,0.17958 -0.48294,0.27208c-18.40873,10.54037 -9.64169,30.86689 -9.64169,30.86689l4.89158,19.01484c0,0 105.54982,71.5167 125.2981,48.02779c4.00644,-4.76591 6.0699,-9.1593 6.81285,-13.13531z" fill="#BC1A04"/>
    <path stroke="null" id="svg_439" d="m965.02496,101.14599c0,0 18.94338,-16.80192 50.73535,-11.20112c31.79149,5.60056 76.43157,57.92936 88.29185,105.64379c11.86028,47.71406 -0.13683,113.45172 -99.16382,124.9698c-100.38068,11.67515 -141.33311,-60.28924 -142.6507,-95.86959c-1.31832,-35.58036 28.66166,-102.62286 91.58608,-134.08526c0,0 2.11956,5.92105 11.20124,10.54238z" fill="#FECE00"/>
    <path stroke="null" id="svg_440" d="m956.80696,117.96889c0,0 3.39545,4.73182 10.01609,6.42521c6.61991,1.69358 16.16575,-17.55121 43.41664,-18.1672c27.25089,-0.61581 68.60236,49.26702 76.79402,96.37875c8.19093,47.11136 -20.51805,85.6013 -92.45781,80.05898s-97.1084,-65.08691 -84.93714,-107.26767c8.36142,-28.9752 38.29628,-65.43039 47.16819,-57.42807z" fill="#FFDA3E"/>
    <path stroke="null" id="svg_441" d="m953.82372,90.60361c-62.92442,31.46239 -92.9044,98.5049 -91.58681,134.08526c1.31832,35.58036 42.27076,107.54475 142.65144,95.86959c33.28762,-3.87204 56.74086,-13.86984 72.76002,-27.25089c-64.87715,15.98916 -145.93273,19.09338 -184.50365,-60.52022c-30.76293,-63.49882 60.679,-142.18374 60.679,-142.18374z" fill="#FCC000"/>
    <g stroke="null" id="svg_442" display="inline">
     <path stroke="null" id="svg_443" d="m891.17906,258.46357c0,0 1.7137,-12.17492 12.62493,-13.52739c10.91221,-1.35247 23.53788,16.50356 19.11899,24.52912c-4.41864,8.02629 -33.72787,5.95185 -31.74392,-11.00172z" fill="#FF8B00"/>
     <path stroke="null" id="svg_444" d="m898.88339,255.35276c0,0 0.59733,-5.66721 8.32361,-5.97746s15.36866,12.89762 12.75762,17.12772c-2.31981,3.75863 -23.46202,0.61538 -21.08123,-11.15026z" fill="#FFA039"/>
     <path stroke="null" id="svg_445" d="m895.29989,255.88741c0,0 0.86026,-6.10063 5.23329,-10.14463c-7.9958,3.07275 -9.35412,12.72054 -9.35412,12.72054c-1.91273,16.34527 25.25889,18.85972 31.17294,11.82711c-9.55291,3.33764 -28.66678,-0.60416 -27.05211,-14.40302z" fill="#FF7300"/>
    </g>
    <g stroke="null" id="svg_446" display="inline">
     <path stroke="null" id="svg_447" d="m1067.25421,244.0125c0,0 12.132,1.99127 13.23544,12.93104c1.10271,10.94002 -17.03675,23.1547 -24.95962,18.55386c-7.9236,-4.60108 -5.18061,-33.85519 11.72418,-31.48489z" fill="#FF8B00"/>
     <path stroke="null" id="svg_448" d="m1070.18794,251.78609c0,0 5.65184,0.72636 5.78599,8.45801c0.13317,7.7314 -13.24568,15.07011 -17.4148,12.36322c-3.70497,-2.40542 -0.08,-23.47007 11.62881,-20.82123z" fill="#FFA039"/>
     <path stroke="null" id="svg_449" d="m1069.735,248.19186c0,0 6.07941,0.99856 10.02268,5.4633c-2.88934,-8.06434 -12.50347,-9.64267 -12.50347,-9.64267c-16.29746,-2.28518 -19.43144,24.8223 -12.53615,30.89537c-3.11885,-9.62706 1.25857,-28.64531 15.01694,-26.716z" fill="#FF7300"/>
    </g>
    <g stroke="null" id="svg_450" display="inline">
     <path stroke="null" id="svg_451" d="m936.08354,162.92447c-9.74243,-8.89869 -15.98062,5.7066 -15.98062,5.7066s-8.62435,-13.33556 -16.71625,-2.91361c-8.09166,10.4222 9.25363,24.21045 18.95094,29.07093c8.73192,-6.43479 23.48812,-22.96518 13.74594,-31.86393z" fill="#FF5A5A"/>
     <path stroke="null" id="svg_452" d="m909.63876,175.39696c-3.93961,-8.31325 0.24708,-12.05955 2.44372,-13.36812c-2.66714,-0.75343 -5.71599,-0.14927 -8.69582,3.68862c-8.09166,10.42208 9.25363,24.21045 18.95094,29.07093c1.8637,-1.3732 3.99912,-3.22349 6.11429,-5.34379c-6.99504,-0.82978 -15.15451,-6.32869 -18.81313,-14.04765z" fill="#FF2E2E"/>
     <path stroke="null" id="svg_453" d="m920.88366,173.95083c0,0 -3.66277,-7.04724 -6.346,-6.89102c-2.6825,0.15647 -3.41959,2.62409 -1.28759,7.1059c2.13176,4.48169 11.20905,12.30517 14.7045,9.45608c3.4952,-2.84909 9.05534,-11.12148 7.25042,-15.19378c-1.80541,-4.07253 -7.26725,-9.1443 -14.32132,5.52281z" fill="#FF7D7D"/>
    </g>
    <g stroke="null" id="svg_454" display="inline">
     <path stroke="null" id="svg_455" d="m1068.2796,161.03991c-8.95485,-9.69096 -16.40576,4.33413 -16.40576,4.33413s-7.46554,-14.01741 -16.41039,-4.31718c-8.9446,9.70023 7.17285,24.90645 16.42332,30.56999c9.24559,-5.67306 25.34719,-20.89598 16.39283,-30.58695z" fill="#FF5A5A"/>
     <path stroke="null" id="svg_456" d="m1040.87432,171.23052c-3.22203,-8.61679 1.26588,-11.99547 3.56594,-13.11342c-2.59348,-0.97636 -5.68257,-0.63258 -8.9768,2.93976c-8.9446,9.69999 7.17285,24.90645 16.42332,30.56975c1.97322,-1.21027 4.25791,-2.87373 6.54503,-4.80707c-6.90041,-1.41869 -14.56547,-7.58835 -17.55749,-15.58903z" fill="#FF2E2E"/>
     <path stroke="null" id="svg_457" d="m1052.20068,170.74088c0,0 -3.053,-7.33176 -5.73916,-7.40298c-2.68689,-0.07122 -3.62935,2.32518 -1.88419,6.97126c1.74492,4.64609 10.12756,13.20946 13.85155,10.66623c3.72326,-2.54323 9.96365,-10.31561 8.50923,-14.52608c-1.45369,-4.21047 -6.46698,-9.72609 -14.73742,4.29156z" fill="#FF7D7D"/>
    </g>
    <path stroke="null" id="svg_458" d="m900.42098,194.22985c0,3.13629 -3.25715,5.67867 -7.27627,5.67867c-4.01815,0 -7.2753,-2.54238 -7.2753,-5.67867c0,-3.13642 3.25715,-5.67892 7.2753,-5.67892c4.01912,0 7.27627,2.5425 7.27627,5.67892z" fill="#FF9999"/>
    <path stroke="null" id="svg_459" d="m1087.03371,189.90975c0,3.13617 -3.25788,5.67892 -7.27603,5.67892c-4.01839,0 -7.27627,-2.54274 -7.27627,-5.67892s3.25788,-5.67867 7.27627,-5.67867c4.01814,0 7.27603,2.5425 7.27603,5.67867z" fill="#FF9999"/>
    <g stroke="null" id="svg_460" display="inline">
     <path stroke="null" id="svg_461" d="m979.24285,181.86712c0,0 -0.19513,-2.7175 0.4705,-3.61716c0.66489,-0.8999 17.63457,-1.40198 18.42336,-0.14708s0.16098,9.84109 -6.41747,11.65174c-6.5782,1.81053 -11.30588,-1.45223 -12.16907,-7.74384" fill="#660000"/>
     <path stroke="null" id="svg_462" d="m981.93926,177.7536c-1.2493,0.14013 -2.08834,0.30964 -2.22591,0.49611c-0.66563,0.8999 -0.4705,3.6174 -0.4705,3.6174l0.30732,0.14342c0.86246,6.29186 5.59086,9.55437 12.16907,7.74384c1.61418,-0.44403 2.86909,-1.29662 3.83326,-2.3481c-0.51562,0.01195 -1.11783,0.05366 -1.81638,0.12964c-8.75752,0.95319 -11.27832,-7.117 -11.79687,-9.78231z" fill="#540000"/>
     <path stroke="null" id="svg_463" d="m979.71335,178.24996c0,0 2.13542,10.92611 8.77801,10.82001c6.64162,-0.1061 8.42825,-8.92948 8.55581,-10.82001c0.12732,-1.89065 2.44494,-0.87075 2.44494,-0.87075s7.22017,20.5822 -10.38171,20.7722c-16.55308,0.17878 -11.56393,-21.23197 -11.56393,-21.23197l2.16688,1.33052z" fill="#FF8B00"/>
     <path stroke="null" id="svg_464" d="m990.45702,196.10428c-12.94543,0.13976 -12.71542,-12.92445 -12.00004,-18.62581l-0.91051,-0.55904c0,0 -4.98914,21.41075 11.56393,21.23197c5.9199,-0.06403 9.03217,-2.43445 10.55586,-5.55306c-1.78809,2.05468 -4.67523,3.45715 -9.20924,3.50594z" fill="#FF7300"/>
     <path stroke="null" id="svg_465" d="m988.41551,168.09228c0,0 5.71819,-0.39989 9.35705,4.07876c3.63887,4.4784 2.74372,8.17885 -7.97239,8.17885c-10.71684,0 -13.76789,-1.20552 -13.66228,-4.62316c0.07781,-2.52762 4.20034,-7.63445 12.27761,-7.63445z" fill="#FF8B00"/>
     <path stroke="null" id="svg_466" d="m988.9865,169.46951c0,0 3.974,-0.11781 6.41308,2.66592c2.43933,2.78373 1.74882,4.99939 -5.68404,4.76719c-7.43335,-0.23196 -9.52657,-1.02612 -9.389,-3.08788c0.10122,-1.52516 3.0569,-4.52011 8.65996,-4.34522z" fill="#FFA039"/>
     <path stroke="null" id="svg_467" d="m991.73535,178.5596c-10.71684,0 -13.76716,-1.20552 -13.66228,-4.62316c0.02707,-0.86636 0.52879,-2.03541 1.50199,-3.19837c-2.24566,1.63443 -3.39642,3.66497 -3.43716,4.98866c-0.10561,3.4174 2.94544,4.62316 13.66228,4.62316c6.00356,0 8.92363,-1.16149 9.69194,-2.97068c-1.57906,0.74794 -4.094,1.18039 -7.75677,1.18039z" fill="#FF7300"/>
     <path stroke="null" id="svg_468" d="m980.96387,184.73548c0,0 1.66053,5.71818 7.93604,5.73599c6.27527,0.01805 8.55581,-6.77577 9.129,-8.31752c0.57392,-1.5415 2.49177,0.94075 1.82882,5.38208c-0.66343,4.44132 -5.53891,7.5653 -11.11441,7.09431c-5.57477,-0.47123 -8.71167,-6.43527 -9.10583,-9.24961c-0.39464,-2.81433 0.63587,-2.4514 1.32637,-0.64526z" fill="#FFA039"/>
     <path stroke="null" id="svg_469" d="m986.32302,181.45699c0,0 5.79185,0.20842 7.60457,0c1.81297,-0.20866 -0.49733,3.88241 -2.95202,4.55608c-2.45445,0.67392 -7.65189,-4.63231 -4.65255,-4.55608z" fill="#770101"/>
    </g>
    <path stroke="null" id="svg_470" d="m993.38148,70.79674c0,0 -9.54364,-14.03131 -21.56344,-10.11085c-12.0198,3.92052 -6.73284,20.68604 -1.8959,23.00744c4.83621,2.3214 18.76435,-3.66265 42.02978,-2.88879c23.26543,0.77368 55.09399,34.40777 60.04582,40.54657c4.9528,6.13868 10.98782,17.95183 13.10299,18.36458c2.11517,0.41263 2.6825,-5.72599 -10.8327,-19.70583c0,0 -1.13539,-23.678 -12.17419,-30.33267c-11.03953,-6.65449 -22.28516,-2.88879 -22.28516,-2.88879s-1.49589,-23.59263 -17.43627,-27.32376c-15.93989,-3.73088 -28.99093,11.3321 -28.99093,11.3321z" fill="#E22C14"/>
    <path stroke="null" id="svg_471" d="m861.78324,193.36105c0,0 -5.41159,-1.37979 -10.99807,-6.13649c-5.5855,-4.75682 -6.69479,15.81403 4.08156,23.84423c4.60035,3.42813 10.19171,-16.48125 6.91651,-17.70774z" fill="#FFDA3E"/>
    <path stroke="null" id="svg_472" d="m1115.83756,200.01986c0,0 6.91919,-3.2924 10.4022,-1.9087c3.4835,1.38369 3.0408,16.03916 -0.95417,18.03677c-5.7255,2.86299 -14.88743,-13.36056 -9.44803,-16.12807z" fill="#FFDA3E"/>
    <g stroke="null" id="svg_473" display="inline">
     <g stroke="null" id="svg_474">
      <path stroke="null" id="svg_475" d="m985.9174,342.10702c0.23732,-6.73992 3.81643,-13.11153 3.81643,-13.11153c-3.22227,3.2513 -4.73572,7.68921 -4.73572,7.68921s-0.1783,2.68884 0.91929,5.42232z" fill="#990E00"/>
      <path stroke="null" id="svg_476" d="m1006.17179,328.99549l2.00736,4.4662c0,0 4.67157,7.66287 14.14424,5.3933c-8.17702,-3.4013 -16.1516,-9.8595 -16.1516,-9.8595z" fill="#990E00"/>
     </g>
    </g>
    <path stroke="null" id="svg_477" d="m977.29525,324.87393c0.23952,0 31.94003,-1.75102 40.22852,-3.35862c8.28922,-1.60809 8.96802,5.2572 7.07431,7.68408s-20.43585,-1.96785 -20.43585,-1.96785s5.50208,13.11738 -3.35837,14.56156c-8.86021,1.44443 -10.7183,-14.9906 -10.7183,-14.9906s-4.17985,6.32405 -8.71752,7.7175c-4.53742,1.3932 -9.53901,-0.25049 -10.50342,-3.57252c-0.9649,-3.32276 1.53174,-6.07356 6.43064,-6.07356z" fill="#E22C14"/>
    <path stroke="null" id="svg_478" d="m839.02099,243.87639c0,0 1.87614,25.08694 23.74398,39.32069c0,0 -30.51316,-5.3872 -23.74398,-39.32069z" fill="#F98E00"/>
    <path stroke="null" id="svg_479" d="m832.17692,227.00477c0.60953,-0.76368 -8.71264,31.00659 8.34971,47.90309c0,0 -32.672,-17.40919 -8.34971,-47.90309z" fill="#F98E00"/>
    <path stroke="null" id="svg_480" d="m1116.80246,284.00027c0,0 10.31707,-9.31656 9.129,-29.88778c0,0 13.75618,12.50566 -9.129,29.88778z" fill="#F98E00"/>
    <path stroke="null" id="svg_481" d="m1127.25052,285.12591c0,0 12.06224,-14.06863 10.18585,-28.51238c0,0 12.39273,10.25439 -10.18585,28.51238z" fill="#F98E00"/>
    <g stroke="null" id="svg_482" display="inline">
     <path stroke="null" id="svg_483" d="m891.46882,96.20258c-8.49898,-6.34966 -12.33517,5.83002 -12.33517,5.83002s-7.95555,-9.98847 -13.60618,-1.00929c-5.65038,8.97936 9.31925,18.64026 17.46285,21.76247c6.47845,-5.83929 16.97845,-20.23335 8.47849,-26.58319z" fill="#FF5A5A"/>
     <path stroke="null" id="svg_484" d="m871.29615,108.27391c-3.81009,-6.3404 -0.75685,-9.66889 0.89783,-10.88995c-2.19371,-0.39184 -4.58547,0.33269 -6.6665,3.63935c-5.65038,8.97918 9.31925,18.64026 17.46285,21.76247c1.38247,-1.24601 2.94543,-2.89568 4.46986,-4.75932c-5.66282,-0.11073 -12.62664,-3.86552 -16.16404,-9.75255z" fill="#FF2E2E"/>
     <path stroke="null" id="svg_485" d="m880.17879,106.22745c0,0 -3.48789,-5.34909 -5.62208,-5.01189c-2.13468,0.3372 -2.5286,2.37006 -0.4683,5.78758c2.0598,3.4174 9.94194,8.95954 12.51298,6.40338c2.57177,-2.5561 6.36649,-9.61498 4.60011,-12.73085c-1.76687,-3.11562 -6.53747,-6.74187 -11.0227,5.55178z" fill="#FF7D7D"/>
    </g>
    <g stroke="null" id="svg_486" display="inline">
     <path stroke="null" id="svg_487" d="m940.80902,17.69791c-9.8917,-7.39048 -14.35644,6.78522 -14.35644,6.78522s-9.25949,-11.62521 -15.83623,-1.1746c-6.57625,10.4508 10.84635,21.69491 20.32512,25.32877c7.53896,-6.79632 19.75974,-23.5491 9.86755,-30.93939z" fill="#FF5A5A"/>
     <path stroke="null" id="svg_488" d="m917.33016,31.74727c-4.43425,-7.37938 -0.88051,-11.25344 1.04515,-12.67445c-2.55274,-0.45611 -5.33647,0.38714 -7.75823,4.23571c-6.57699,10.45061 10.84562,21.69491 20.32365,25.32859c1.60955,-1.4501 3.4274,-3.37002 5.20256,-5.53922c-6.59089,-0.12872 -14.69596,-4.49895 -18.81313,-11.35064z" fill="#FF2E2E"/>
     <path stroke="null" id="svg_489" d="m927.66895,29.36557c0,0 -4.05985,-6.22588 -6.54406,-5.83325c-2.48372,0.39239 -2.94251,2.75836 -0.54489,6.73583s11.57125,10.42787 14.564,7.45298c2.99275,-2.97513 7.41018,-11.19081 5.35403,-14.81706c-2.05615,-3.62637 -7.60896,-7.84695 -12.82909,6.46149z" fill="#FF7D7D"/>
    </g>
    <g stroke="null" id="svg_490" display="inline">
     <path stroke="null" id="svg_491" d="m1113.08579,37.07032c-8.54264,-10.05073 -16.56625,3.64899 -16.56625,3.64899s-6.87553,-14.31028 -16.21136,-4.99237c-9.33656,9.31803 6.13112,25.1742 15.13719,31.21452c9.46925,-5.28305 26.18233,-19.82053 17.64042,-29.87114z" fill="#FF5A5A"/>
     <path stroke="null" id="svg_492" d="m1085.29074,46.11286c-2.86153,-8.74027 1.76199,-11.92876 4.10571,-12.95025c-2.55055,-1.08271 -5.65038,-0.86709 -9.08826,2.56433c-9.33656,9.31784 6.13112,25.17438 15.13646,31.21434c2.02102,-1.12728 4.37157,-2.69378 6.7365,-4.53029c-6.83333,-1.70285 -14.23326,-8.18294 -16.8904,-16.29813z" fill="#FF2E2E"/>
     <path stroke="null" id="svg_493" d="m1096.62442,46.09322c0,0 -2.74568,-7.44969 -5.42598,-7.63213c-2.68104,-0.18263 -3.7218,2.17212 -2.17127,6.88486c1.55004,4.71292 9.56828,13.61362 13.39276,11.22777c3.82521,-2.38591 10.38025,-9.89017 9.10217,-14.15607c-1.27832,-4.26571 -6.05624,-9.98268 -14.89767,3.67557z" fill="#FF7D7D"/>
    </g>
    <g stroke="null" id="svg_494" display="inline">
     <path stroke="null" id="svg_495" d="m1150.06813,120.2209c-6.76479,-11.32368 -16.94138,0.8624 -16.94138,0.8624s-4.41742,-15.24951 -15.16402,-7.60189c-10.74733,7.64756 1.88858,25.84116 9.77218,33.2861c10.21219,-3.64606 29.09728,-15.22268 22.33321,-26.54661z" fill="#FF5A5A"/>
     <path stroke="null" id="svg_496" d="m1121.16086,124.54765c-1.37808,-9.09284 3.70814,-11.47375 6.18868,-12.09395c-2.3364,-1.48912 -5.42891,-1.78864 -9.38681,1.02771c-10.74733,7.64738 1.88858,25.84135 9.77218,33.28591c2.17932,-0.77788 4.7567,-1.93462 7.39188,-3.35508c-6.4582,-2.8083 -12.68616,-10.42183 -13.96594,-18.86459z" fill="#FF2E2E"/>
     <path stroke="null" id="svg_497" d="m1132.34234,126.40056c0,0 -1.47784,-7.80092 -4.09107,-8.42368c-2.61323,-0.6227 -4.02912,1.52754 -3.27813,6.4318c0.75002,4.90414 7.18724,15.00713 11.35393,13.28586c4.1662,-1.72126 11.87126,-8.03958 11.3149,-12.45792c-0.55562,-4.41828 -4.32352,-10.84611 -15.29963,1.16393z" fill="#FF7D7D"/>
    </g>
   </g>
   <g stroke="null" id="svg_498">
    <g stroke="null" id="svg_499">
     <path stroke="null" id="svg_500" d="m340.70355,184.50767c0,0 7.2731,0.93551 17.55505,-2.18017c10.28146,-3.11544 17.72652,-12.98592 12.0659,-18.01384c-10.14,-9.00704 -28.82215,10.53476 -29.62095,20.19402z" fill="#CD2606"/>
     <path stroke="null" id="svg_501" d="m351.11355,174.79329c0.83051,-2.12883 2.87714,-6.63345 4.37669,-9.88719c-7.54481,4.66243 -14.31253,13.87118 -14.78669,19.60156c0,0 7.2731,0.93551 17.55505,-2.18017c1.64248,-0.49782 3.21203,-1.16881 4.66865,-1.96407c-5.04573,-3.60643 -13.19446,-2.02956 -11.8137,-5.57013z" fill="#BC1A04"/>
     <path stroke="null" id="svg_502" d="m340.70355,184.50767c0,0 19.80364,-20.92098 9.49828,-26.63838c-10.30537,-5.71751 -22.78249,9.78042 -9.49828,26.63838z" fill="#CD2606"/>
     <path stroke="null" id="svg_503" d="m345.75952,156.6606c-8.88777,-0.07903 -16.45307,13.38331 -5.05597,27.84706c0,0 0.82807,-0.87514 2.05737,-2.31566c-8.26507,-11.95736 -3.87546,-22.87792 2.99861,-25.5314z" fill="#BC1A04"/>
     <path stroke="null" id="svg_504" d="m342.48432,176.73224c0,0 11.79833,-11.32868 6.30966,-16.87113c-2.963,-2.99166 -11.84296,5.56233 -6.30966,16.87113z" fill="#E22C14"/>
     <path stroke="null" id="svg_505" d="m340.70355,184.50767c0,0 5.68745,-5.55062 14.354,-5.6355c8.66728,-0.08512 13.89326,14.14765 6.71309,16.6543c-7.17993,2.50665 -18.0875,-6.48784 -21.06709,-11.0188z" fill="#CD2606"/>
     <path stroke="null" id="svg_506" d="m363.79117,194.21168c-6.8565,0.93527 -16.24721,-4.43376 -17.44895,-8.8535c-0.53538,-1.96822 0.1283,-3.6557 1.16173,-4.99451c-4.26449,1.67004 -6.80041,4.144 -6.80041,4.144c2.97958,4.53096 13.88716,13.52544 21.06709,11.01868c0.83782,-0.29232 1.50638,-0.74429 2.02053,-1.31467z" fill="#BC1A04"/>
     <path stroke="null" id="svg_507" d="m348.99935,183.32752c0,0 3.7335,-3.34179 7.6236,-2.5064c3.88985,0.83551 7.30944,7.44079 5.79526,9.97316c-1.51418,2.5325 -16.03014,-3.99461 -13.41885,-7.46676z" fill="#E22C14"/>
     <path stroke="null" id="svg_508" d="m354.87632,173.57424c0,0 0.45513,-6.15795 7.84921,-8.6874c4.56743,-1.56235 7.6636,3.3274 6.77723,5.70831c-0.88636,2.38079 -5.42891,5.71172 -7.23529,6.06295c-1.80638,0.35135 -7.46115,-0.52696 -7.39115,-3.08385z" fill="#E22C14"/>
    </g>
    <path stroke="null" id="svg_509" d="m290.38967,156.99506c0,0 12.22444,-6.84224 23.17226,-16.42118c10.94684,-9.57876 27.00308,23.50989 15.32573,47.01459c0,0 -30.19633,0.42416 -38.49799,-30.59341z" fill="#FECE00"/>
    <path stroke="null" id="svg_510" d="m328.88766,187.58847c2.79177,-5.61843 3.99717,-11.78467 4.06766,-17.78481c-14.31327,-1.70931 -24.06155,-13.75996 -28.98288,-21.63484c-7.45969,5.39866 -13.58276,8.82625 -13.58276,8.82625c8.30166,31.01732 38.49799,30.59341 38.49799,30.59341z" fill="#FCC000"/>
    <path stroke="null" id="svg_511" d="m152.64634,317.774c-0.52294,1.22052 -16.48234,19.27339 -10.11585,26.59892c8.15593,9.38461 57.73192,-14.73864 57.73192,-14.73864l-47.61607,-11.86028z" fill="#FF8B00"/>
    <path stroke="null" id="svg_512" d="m144.84798,340.1777c-2.60153,-2.99349 -1.47406,-7.77945 0.8049,-12.47566c-3.57106,5.8238 -6.51357,12.76835 -3.12239,16.67015c8.15593,9.38535 57.73192,-14.73791 57.73192,-14.73791l-4.38596,-1.09247c-13.82618,6.18795 -44.73917,18.87264 -51.02847,11.63589z" fill="#FF7300"/>
    <path stroke="null" id="svg_513" d="m92.81528,229.65776c0,0 -26.68063,-11.89565 -36.78856,-3.12349c-11.24771,9.76145 19.70608,55.31131 50.8267,58.43724l-14.03814,-55.31375z" fill="#FECE00"/>
    <path stroke="null" id="svg_514" d="m57.68591,225.35693c-0.59136,0.3422 -1.1471,0.7327 -1.65919,1.17734c-11.24771,9.76145 19.70608,55.31131 50.8267,58.43724l-1.38467,-5.45598c-26.5349,-6.43406 -51.26719,-40.87048 -47.78284,-54.1586z" fill="#FCC000"/>
    <path stroke="null" id="svg_515" d="m126.60523,124.93253c0,0 -33.0703,-30.05699 -8.70069,-56.44006c24.36887,-26.38331 52.96784,-7.25048 64.85014,4.0279c0,0 8.86167,-22.55657 35.44621,-20.13975c26.58429,2.41664 22.55663,26.58447 22.55663,26.58447s58.00211,-0.60416 35.8489,58.40553c-22.15394,59.00975 -146.13292,26.88314 -150.00118,-12.4381z" fill="#CD2606"/>
    <path stroke="null" id="svg_516" d="m201.52756,93.89411c-32.36827,0.27074 -49.70417,16.25203 -55.25711,18.96069c-5.55281,2.70872 -19.9084,1.08344 -24.91949,-21.94034c-2.68897,-12.35523 4.37157,-24.55388 11.49332,-33.20658c-5.03732,2.06359 -10.07304,5.51556 -14.93975,10.78459c-24.3696,26.38306 8.70069,56.43988 8.70069,56.43988c3.86826,39.32118 127.84724,71.44804 150.00045,12.4381c1.69638,-4.51645 2.92153,-8.68313 3.74009,-12.52822c-16.47942,-12.02035 -52.90077,-31.16519 -78.81821,-30.94811z" fill="#BC1A04"/>
    <path stroke="null" id="svg_517" d="m342.52725,182.46847c0,0 -10.50488,9.0507 -34.90937,-20.3639c-24.40473,-29.41442 -75.47594,-66.74817 -113.77929,-62.70765c-38.30365,4.04028 -49.13184,32.00021 -49.13184,32.00021s-9.21205,1.29302 -18.10153,-6.46461c0,0 -53.98031,42.34375 -41.69684,116.04184c12.28285,73.6976 72.24281,112.16266 160.32484,85.0108c88.08185,-27.15186 108.93064,-102.30414 97.29402,-143.5167z" fill="#FECE00"/>
    <path stroke="null" id="svg_518" d="m332.59482,195.77623c0,0 -23.76495,84.18444 -104.32394,93.04587c-80.55978,8.86119 -106.09392,-51.3261 -106.62418,-78.23259c-0.92283,-46.83575 31.30123,-87.92099 78.83059,-89.73365c47.53015,-1.81248 90.02531,67.87119 132.11753,74.92038z" fill="#FFDA3E"/>
    <path stroke="null" id="svg_519" d="m262.90707,299.4743c-88.08112,27.15186 -148.04199,-11.31319 -160.32472,-85.01129c-5.29134,-31.7488 1.71455,-57.67826 11.40515,-76.91085c-15.12036,17.65298 -37.43601,53.28053 -29.0791,103.42172c12.28285,73.69809 72.24281,112.16315 160.32484,85.01129c46.16744,-14.23107 73.86395,-41.65001 88.09356,-70.45606c-15.89672,18.30141 -38.8358,34.20959 -70.41972,43.94519z" fill="#FCC000"/>
    <g stroke="null" id="svg_520">
     <path stroke="null" id="svg_521" d="m120.36557,200.36731c-0.25488,0 -0.51355,-0.05171 -0.76038,-0.16013c-0.95636,-0.42086 -1.38967,-1.53723 -0.96868,-2.49262c1.74285,-3.95595 5.28122,-6.83614 8.23898,-8.6763c-3.984,-0.19439 -8.63301,0.64758 -10.6505,1.14478c-1.01027,0.25598 -2.03798,-0.36818 -2.2892,-1.38113c-0.24988,-1.01295 0.36635,-2.03822 1.37942,-2.28932c1.21125,-0.30049 12.01626,-2.84946 17.91433,0.15025c0.66721,0.3383 1.0699,1.03881 1.0299,1.7859c-0.03939,0.74709 -0.51648,1.40077 -1.21564,1.66663c-0.08378,0.03195 -8.3541,3.23959 -10.94624,9.12314c-0.31245,0.70782 -1.00588,1.12881 -1.73199,1.12881z"/>
    </g>
    <g stroke="null" id="svg_522">
     <path stroke="null" id="svg_523" d="m231.70779,160.711c-0.48635,0 -0.9649,-0.18708 -1.3254,-0.54172c-0.56318,-0.55257 -0.72563,-1.39558 -0.40513,-2.11578c4.64548,-10.45 17.45846,-14.72724 18.00116,-14.90328c0.9949,-0.3261 2.0581,0.21903 2.38152,1.20997c0.32562,0.99197 -0.21635,2.0592 -1.20832,2.3842c-0.0961,0.03207 -8.04165,2.69921 -13.03885,8.62594c3.81741,-0.92191 9.27486,-1.55955 14.84962,0.10708c1.00076,0.30025 1.56882,1.354 1.27003,2.35341c-0.30074,1.00076 -1.35393,1.56559 -2.35323,1.27027c-8.60679,-2.57506 -17.28504,1.39455 -17.3731,1.43284c-0.25562,0.11927 -0.52879,0.17708 -0.79831,0.17708z"/>
    </g>
    <path stroke="null" id="svg_524" d="m121.6467,210.58951c0.33354,3.59667 -3.13117,6.85894 -7.74006,7.28651c-4.60828,0.42757 -8.61411,-2.14176 -8.94765,-5.73867c-0.33367,-3.59667 3.13105,-6.85894 7.74006,-7.28639c4.60816,-0.42745 8.61411,2.14188 8.94765,5.73855z" fill="#FF9999"/>
    <path stroke="null" id="svg_525" d="m277.04716,159.93708c0.33367,3.59667 -3.13105,6.85919 -7.74018,7.28651c-4.60816,0.42745 -8.61411,-2.14176 -8.94753,-5.73843c-0.33367,-3.59698 3.13105,-6.85919 7.73994,-7.28657c4.6084,-0.42751 8.61411,2.1417 8.94777,5.73849z" fill="#FF9999"/>
    <g stroke="null" id="svg_526">
     <path stroke="null" id="svg_527" d="m174.72668,201.21245c0,0 -4.54614,-7.47774 2.54933,-14.87047c7.0948,-7.39274 27.27626,-12.87348 34.32886,-5.2683c7.05334,7.60518 4.12181,33.60714 -5.94843,37.81334c-10.06926,4.2062 -27.87066,-9.81462 -30.92976,-17.67457z" fill="#660000"/>
     <path stroke="null" id="svg_528" d="m212.51245,207.22747c-23.75495,5.59208 -32.69444,-12.21224 -35.52792,-20.57451c-6.67656,7.28981 -2.25859,14.55937 -2.25859,14.55937c3.05983,7.86031 20.86123,21.88088 30.93049,17.67469c3.81302,-1.59272 6.60186,-6.31039 8.21361,-11.97077c-0.44221,0.09878 -0.89441,0.2022 -1.35759,0.31123z" fill="#540000"/>
     <path stroke="null" id="svg_529" d="m173.49665,194.55937c0,0 13.4591,25.87866 27.76798,21.15636c14.30912,-4.7228 5.47794,-37.30698 5.47794,-37.30698s5.8799,1.28296 7.2609,2.48323c0,0 12.19517,40.11266 -6.31625,46.15719c-18.51239,6.04478 -36.23507,-27.10345 -36.23507,-27.10345l2.0445,-5.38635z" fill="#FF8B00"/>
     <path stroke="null" id="svg_530" d="m171.45215,199.94584c0,0 15.68482,-25.9133 42.55132,-19.05387c0,0 -14.10009,-13.71886 -28.19994,-7.43115c-14.4926,6.4632 -14.35138,26.48502 -14.35138,26.48502z" fill="#FF8B00"/>
     <path stroke="null" id="svg_531" d="m193.59444,180.07659c-14.59083,5.39866 -17.83701,12.91275 -18.60337,8.68143c-0.37074,-2.04737 1.20613,-5.76843 2.93178,-9.06412c-6.55448,8.40935 -6.4707,20.25182 -6.4707,20.25182s15.68482,-25.9133 42.55132,-19.05375c0,0 -1.25588,-1.22149 -3.39203,-2.76824c-5.0728,-0.48208 -11.09929,-0.23671 -17.01699,1.95285z" fill="#FF7300"/>
     <path stroke="null" id="svg_532" d="m177.80626,184.6423c0,0 2.34225,-6.2249 8.80558,-9.76023c6.46406,-3.53557 18.39361,0.49879 18.30629,1.30125c-0.08683,0.80246 -6.55016,0.47879 -13.3608,2.86397c-6.81065,2.38494 -12.75323,7.89433 -13.75106,8.45825s-0.44001,-1.89053 0,-2.86324z" fill="#FFA039"/>
     <path stroke="null" id="svg_533" d="m207.68722,224.40496c-16.51381,5.39232 -32.39955,-20.40439 -35.63639,-26.0355l-0.59867,1.57626c0,0 17.72268,33.14823 36.23507,27.10345c8.37142,-2.73324 10.46269,-12.4342 10.24268,-22.24126c-0.2083,8.85509 -2.62567,17.10967 -10.24268,19.59705z" fill="#FF7300"/>
     <path stroke="null" id="svg_534" d="m177.97749,204.41277c0,0 10.43196,16.30892 24.97693,14.17863c14.54571,-2.13078 6.8326,-33.57287 7.49384,-34.38094c0.66075,-0.80807 4.43937,2.59628 5.36281,16.08831c0.92295,13.49203 -2.6447,21.26782 -12.19541,22.77371c-9.54998,1.50589 -19.06362,-9.03607 -23.50787,-14.61913c-4.44425,-5.5833 -3.58131,-6.04331 -2.1303,-4.04058z" fill="#FFA039"/>
     <path stroke="null" id="svg_535" d="m187.15892,189.96743c0,0 12.46615,-6.37991 15.49769,-5.52428c3.03056,0.85551 5.04231,17.34663 -0.14732,19.65278c-4.61987,2.05346 -22.43931,-9.50852 -15.35036,-14.12851z" fill="#770101"/>
    </g>
    <g stroke="null" id="svg_536">
     <path stroke="null" id="svg_537" d="m277.87962,267.96404c0,0 5.60818,-13.37081 18.45995,-11.63857c12.85153,1.73248 21.89174,25.8872 14.44278,33.7147c-7.44945,7.82775 -40.25388,-3.3352 -32.90273,-22.07613z" fill="#FF8B00"/>
     <path stroke="null" id="svg_538" d="m287.60082,266.72889c0,0 2.38176,-6.28429 11.2871,-4.31913s13.65715,19.3229 9.40949,23.36373c-3.77424,3.59082 -26.9443,-6.34015 -20.69659,-19.0446z" fill="#FFA039"/>
     <path stroke="null" id="svg_539" d="m283.35316,266.26351c0,0 2.81202,-6.70016 9.01314,-9.99975c-10.0417,1.10442 -14.48669,11.70028 -14.48669,11.70028c-7.08749,18.06799 23.14811,29.09142 32.00417,22.84591c-11.8976,0.9388 -32.51394,-9.29364 -26.53063,-24.54644z" fill="#FF7300"/>
    </g>
    <path stroke="null" id="svg_540" d="m182.94102,77.97544c0,0 -23.53708,-20.0534 -41.04128,-14.78511c-17.50432,5.26824 -13.17068,34.07361 -4.92878,38.40707c8.24276,4.33364 19.28875,-10.1964 61.00968,-12.23578c41.72148,-2.03938 71.46121,23.96191 76.13498,21.92253c4.67304,-2.03919 -4.33376,-26.00123 -38.06749,-29.40003c0,0 -1.18954,-21.07294 -21.07318,-23.45226c-19.88291,-2.37914 -32.03393,19.54357 -32.03393,19.54357z" fill="#E22C14"/>
    <path stroke="null" id="svg_541" d="m84.75399,259.81263c0,0 -3.42386,-18.20653 -4.6767,-25.80598c-1.25271,-7.59994 -18.16409,-7.55798 -19.12472,-4.59328c-2.82238,8.71289 25.97269,42.42491 23.80142,30.39926z" fill="#FFDA3E"/>
    <path stroke="null" id="svg_542" d="m150.0681,329.76526c0,0 11.26307,4.43352 19.2646,5.14719c8.00086,0.71392 -15.39134,6.67601 -20.18231,4.28132c-4.79036,-2.39567 -1.94834,-10.48244 0.9177,-9.42852z" fill="#FFA039"/>
    <path stroke="null" id="svg_543" d="m311.67261,148.63773c0,0 3.42813,-4.74097 7.26139,-5.51428s10.79343,13.55044 9.41461,18.89661c-1.37808,5.34598 -19.90267,-8.37245 -16.67601,-13.38233z" fill="#FFDA3E"/>
    <g stroke="null" id="svg_544">
     <g stroke="null" id="svg_545">
      <path stroke="null" id="svg_546" d="m37.73373,176.73699c-0.0211,0 -0.0422,0 -0.06195,-0.00134c-0.65477,-0.03207 -1.16893,-0.55745 -1.19881,-1.20015l-0.04293,-0.31489c-1.58638,-11.27856 -3.37154,-50.44717 40.3173,-80.94211c0.57099,-0.39641 1.35759,-0.25732 1.75529,0.31263c0.39769,0.57117 0.25866,1.3565 -0.31245,1.75529c-42.51113,29.67138 -40.80024,67.60429 -39.26337,78.52321c0.0539,0.38172 0.06695,0.60928 0.06476,0.66721c-0.03354,0.67453 -0.58916,1.20015 -1.25784,1.20015z" fill="#F98E00"/>
     </g>
     <g stroke="null" id="svg_547">
      <path stroke="null" id="svg_548" d="m77.46845,116.16952c-0.15952,0 -0.32123,-0.02951 -0.47708,-0.0936c-17.33822,-7.09712 -23.49995,-19.68888 -23.75337,-20.2206c-0.2994,-0.62782 -0.03354,-1.37857 0.59282,-1.679c0.62782,-0.30153 1.37881,-0.03439 1.68175,0.59215c0.05756,0.12183 6.04307,12.26566 22.4337,18.97387c0.6438,0.26458 0.95258,1.00057 0.68892,1.64443c-0.20025,0.48739 -0.67075,0.78276 -1.16674,0.78276z" fill="#F98E00"/>
     </g>
     <g stroke="null" id="svg_549">
      <path stroke="null" id="svg_550" d="m56.01953,153.3812c-0.21927,0 -0.44074,-0.05659 -0.64245,-0.17604c-12.24346,-7.26834 -27.8292,-8.13105 -27.98359,-8.13849c-0.69563,-0.03573 -1.23088,-0.62764 -1.19661,-1.32198c0.03561,-0.69538 0.64014,-1.26655 1.32186,-1.19625c0.66209,0.03311 16.35197,0.89472 29.14606,8.48788c0.59794,0.3558 0.79465,1.12875 0.44062,1.72815c-0.23671,0.39641 -0.6555,0.61672 -1.08588,0.61672z" fill="#F98E00"/>
     </g>
     <g stroke="null" id="svg_551">
      <path stroke="null" id="svg_552" d="m52.1309,163.80547c-0.18208,0 -0.36635,-0.03939 -0.5427,-0.12317c-13.09848,-6.26387 -28.99666,-3.10178 -29.15545,-3.06971c-0.68685,0.13159 -1.34893,-0.29793 -1.48943,-0.98112c-0.13988,-0.68063 0.29781,-1.34778 0.97954,-1.48796c0.68245,-0.14171 16.86918,-3.37514 30.75353,3.26422c0.62782,0.30025 0.89368,1.05356 0.59355,1.68138c-0.21696,0.45172 -0.66855,0.71636 -1.13905,0.71636z" fill="#F98E00"/>
     </g>
     <g stroke="null" id="svg_553">
      <path stroke="null" id="svg_554" d="m60.75586,332.56362c-0.2483,0 -0.49818,-0.0722 -0.71733,-0.22513c-26.75783,-18.59239 -30.79439,-51.12048 -30.83073,-51.44634c-0.08012,-0.69075 0.41586,-1.31613 1.10637,-1.39613c0.6999,-0.0761 1.31832,0.41733 1.39699,1.10661c0.03707,0.31513 3.96436,31.73783 29.7651,49.66606c0.57172,0.39684 0.7138,1.18271 0.31611,1.7537c-0.24476,0.35342 -0.63806,0.54123 -1.03649,0.54123z" fill="#F98E00"/>
     </g>
     <g stroke="null" id="svg_555">
      <path stroke="null" id="svg_556" d="m29.37243,321.87239c-0.52953,0 -1.02185,-0.3344 -1.19674,-0.86392c-0.21854,-0.66123 0.14061,-1.37515 0.80051,-1.59296c0.21622,-0.07122 21.81601,-7.33725 36.2772,-22.15175c0.48867,-0.49733 1.28625,-0.50611 1.78224,-0.0222c0.49891,0.48611 0.50843,1.28515 0.02256,1.78224c-14.90109,15.265 -36.38355,22.4859 -37.29101,22.78444c-0.13037,0.04439 -0.2644,0.06415 -0.39477,0.06415z" fill="#F98E00"/>
     </g>
     <g stroke="null" id="svg_557">
      <path stroke="null" id="svg_558" d="m105.11411,347.80057c-0.11951,0 -0.2411,-0.01683 -0.36342,-0.05244c-37.19576,-11.17051 -55.70291,-54.66057 -55.88498,-55.09911c-0.26806,-0.64245 0.03573,-1.37955 0.67806,-1.64809c0.64172,-0.2644 1.38028,0.03561 1.64833,0.67831c0.17842,0.42733 18.24421,42.83199 54.28397,53.65371c0.66721,0.20025 1.04441,0.90319 0.84563,1.56955c-0.16391,0.54635 -0.66502,0.89807 -1.20759,0.89807z" fill="#F98E00"/>
     </g>
     <g stroke="null" id="svg_559">
      <path stroke="null" id="svg_560" d="m76.84856,347.80057c-0.36928,0 -0.73416,-0.16098 -0.98246,-0.46977c-0.43708,-0.54196 -0.35184,-1.33588 0.19086,-1.77126c0.11427,-0.09415 11.58125,-9.39998 15.39415,-18.35141c0.27318,-0.64099 1.01539,-0.94173 1.65333,-0.66563c0.64099,0.27318 0.9388,1.01295 0.66575,1.65321c-4.06193,9.53559 -15.64184,18.93045 -16.13282,19.32656c-0.23305,0.18732 -0.51196,0.2783 -0.7888,0.2783z" fill="#F98E00"/>
     </g>
     <g stroke="null" id="svg_561">
      <path stroke="null" id="svg_562" d="m373.26261,293.83075c-0.10561,0 -0.21269,-0.01341 -0.3183,-0.04049c-16.1677,-4.21473 -21.62661,-16.21795 -21.85101,-16.72771c-0.2805,-0.63611 0.00732,-1.37735 0.64245,-1.65906c0.63782,-0.28415 1.37857,0.0061 1.66345,0.64002c0.05024,0.11293 5.23964,11.41247 20.18023,15.30695c0.67441,0.17635 1.07783,0.86417 0.90148,1.5376c-0.14708,0.56733 -0.65831,0.94271 -1.21832,0.94271z" fill="#F98E00"/>
     </g>
     <g stroke="null" id="svg_563">
      <path stroke="null" id="svg_564" d="m339.15863,308.34988c-0.39977,0 -0.79392,-0.19074 -1.03856,-0.54465c-0.39489,-0.5727 -0.25123,-1.35784 0.32269,-1.75321c0.31757,-0.21927 31.87295,-22.31931 38.1409,-54.91765c0.13269,-0.68319 0.79612,-1.12393 1.47565,-1.00076c0.68465,0.13171 1.13125,0.7927 1.00076,1.47589c-6.46698,33.6286 -38.86141,56.29256 -39.18703,56.51744c-0.2183,0.15098 -0.4683,0.22293 -0.71441,0.22293z" fill="#F98E00"/>
     </g>
     <g stroke="null" id="svg_565">
      <path stroke="null" id="svg_566" d="m295.91346,94.86444c-0.45391,0 -0.89075,-0.24488 -1.11734,-0.67447c-0.32269,-0.61672 -0.08512,-1.37875 0.53026,-1.7023c0.2483,-0.13055 24.94718,-13.32922 30.86927,-36.22464c0.17342,-0.67569 0.8588,-1.08429 1.53467,-0.90459c0.67441,0.17354 1.07929,0.86167 0.90466,1.53479c-6.20478,23.99472 -31.0822,37.27326 -32.13808,37.82718c-0.18586,0.0972 -0.38611,0.14403 -0.58343,0.14403z" fill="#F98E00"/>
     </g>
     <g stroke="null" id="svg_567">
      <path stroke="null" id="svg_568" d="m347.46395,108.98008c-0.4544,0 -0.89295,-0.24494 -1.11808,-0.67575c-21.65051,-41.30677 -55.92206,-50.4165 -56.26573,-50.50394c-0.67441,-0.17098 -1.0832,-0.85673 -0.91197,-1.53113c0.16976,-0.67575 0.85441,-1.08326 1.52882,-0.91337c0.35464,0.09 35.68133,9.4237 57.88211,51.7791c0.32342,0.61672 0.08439,1.37729 -0.53172,1.70108c-0.18659,0.0972 -0.38684,0.14403 -0.58343,0.14403z" fill="#F98E00"/>
     </g>
     <g stroke="null" id="svg_569">
      <path stroke="null" id="svg_570" d="m348.68691,136.80013c-0.48001,0 -0.93758,-0.2744 -1.14783,-0.73977c-19.29826,-42.48345 -55.03497,-58.12278 -55.39351,-58.27553c-0.64002,-0.27312 -0.93734,-1.01295 -0.66563,-1.65297s1.00807,-0.94051 1.65345,-0.66587c0.36635,0.15622 36.98064,16.1391 56.69988,59.55318c0.28757,0.63258 0.00732,1.37967 -0.62636,1.66772c-0.16903,0.07756 -0.34611,0.11323 -0.52001,0.11323z" fill="#F98E00"/>
     </g>
    </g>
   </g>
   <g stroke="null" id="svg_571" display="none">
    <path stroke="null" id="svg_572" d="m-594.1106,-19.98883l0,0c-143.16267,41.24946 -140.55011,206.02105 -140.55011,206.02105s-0.03421,0.03549 -0.09909,0.10195c-0.17842,15.19097 -0.61178,30.96281 -1.4443,46.17658c-2.25853,41.28537 5.12902,69.83776 51.86922,84.78031l139.8571,-31.05488l-47.81858,-306.18581c-0.60526,0.05207 -1.20972,0.10561 -1.81425,0.1608z" fill="#9E9E9E"/>
    <path stroke="null" id="svg_573" d="m-697.2611,312.17631c25.0473,11.30881 64.99319,17.07894 127.63004,17.07967l33.5161,-0.39196c73.30107,-1.81346 105.96563,-9.67096 122.15894,-18.06799l-180.15458,-37.18771l-103.1505,38.56799z" fill="#7C7C7C"/>
    <g stroke="null" id="svg_574" display="inline">
     <path stroke="null" id="svg_575" d="m-556.65203,-21.59302c-12.43639,-0.02165 -25.02364,0.47196 -37.45857,1.60419l0,293.59715l180.15458,37.18771c10.145,-5.26086 13.82606,-10.73416 16.98492,-15.06572c8.91192,-12.22005 17.75335,-36.45867 16.25295,-83.63028c-1.2732,-40.02729 -89.11626,-233.54158 -175.93387,-233.69305z" fill="#BABABA"/>
    </g>
    <g stroke="null" id="svg_576" display="inline">
     <g stroke="null" id="svg_577">
      <path stroke="null" id="svg_578" d="m-648.20219,81.82584c-0.49343,0 -0.96143,-0.2919 -1.16314,-0.77551c-0.26805,-0.64258 0.03567,-1.38113 0.67843,-1.64821l87.59202,-36.47428c0.64386,-0.26836 1.38015,0.03567 1.64821,0.67825c0.26879,0.64245 -0.03567,1.38095 -0.67806,1.64809l-87.59239,36.4744c-0.15878,0.06646 -0.32263,0.09726 -0.48507,0.09726z"/>
     </g>
     <g stroke="null" id="svg_579">
      <path stroke="null" id="svg_580" d="m-670.74657,107.53011c-0.49379,0 -0.96283,-0.29062 -1.16314,-0.77551c-0.26842,-0.64258 0.03567,-1.38113 0.67807,-1.64931l114.40552,-47.62119c0.64532,-0.26708 1.38241,0.03573 1.64827,0.67831c0.26799,0.64367 -0.03567,1.38089 -0.67807,1.64803l-114.40558,47.62351c-0.15878,0.06415 -0.32263,0.09616 -0.48507,0.09616z"/>
     </g>
     <g stroke="null" id="svg_581">
      <path stroke="null" id="svg_582" d="m-696.43736,132.3296c-0.49379,0 -0.96246,-0.29043 -1.16314,-0.77551c-0.26842,-0.64239 0.03567,-1.38095 0.67807,-1.64931l114.40552,-47.62119c0.64532,-0.26586 1.38241,0.03567 1.64827,0.67831c0.26799,0.64367 -0.03567,1.38089 -0.67807,1.64803l-114.40558,47.62369c-0.15878,0.0639 -0.32263,0.09598 -0.48507,0.09598z"/>
     </g>
     <g stroke="null" id="svg_583">
      <path stroke="null" id="svg_584" d="m-696.8853,147.23782c-0.49379,0 -0.96283,-0.29043 -1.16314,-0.77551c-0.26842,-0.64239 0.03567,-1.38089 0.67806,-1.64931l114.40558,-47.62223c0.6402,-0.2586 1.38089,0.03439 1.64821,0.67935c0.26805,0.64258 -0.03567,1.38113 -0.67807,1.64949l-114.40558,47.62229c-0.15872,0.06409 -0.32263,0.09592 -0.48507,0.09592z"/>
     </g>
     <g stroke="null" id="svg_585">
      <path stroke="null" id="svg_586" d="m-704.25828,163.53961c-0.49379,0 -0.96252,-0.29062 -1.16314,-0.77551c-0.26842,-0.64258 0.03567,-1.38113 0.67807,-1.64943l114.40552,-47.62235c0.64239,-0.25604 1.38241,0.03439 1.64827,0.67953c0.26799,0.64239 -0.03573,1.38095 -0.67813,1.64937l-114.40552,47.62229c-0.15878,0.06403 -0.32263,0.0961 -0.48507,0.0961z"/>
     </g>
     <g stroke="null" id="svg_587">
      <path stroke="null" id="svg_588" d="m-711.18046,177.95288c-0.49379,0 -0.96283,-0.29037 -1.16314,-0.77526c-0.26879,-0.64258 0.03567,-1.38113 0.67807,-1.64943l114.40552,-47.62235c0.64099,-0.25854 1.38095,0.03439 1.64827,0.67935c0.26806,0.64258 -0.03567,1.38113 -0.67807,1.64955l-114.40595,47.62229c-0.15878,0.06403 -0.32226,0.09586 -0.48471,0.09586z"/>
     </g>
     <g stroke="null" id="svg_589">
      <path stroke="null" id="svg_590" d="m-718.81198,192.84396c-0.49385,0 -0.96289,-0.29293 -1.1632,-0.77538c-0.26836,-0.64245 0.03573,-1.38101 0.67953,-1.64931l114.40558,-47.61997c0.63727,-0.25598 1.38095,0.03951 1.64675,0.67959c0.26806,0.64239 -0.03567,1.38095 -0.67953,1.64931l-114.40406,47.61991c-0.15878,0.0639 -0.32269,0.09586 -0.48507,0.09586z"/>
     </g>
     <g stroke="null" id="svg_591">
      <path stroke="null" id="svg_592" d="m-721.08551,212.34369c-0.49349,0 -0.96252,-0.29049 -1.1632,-0.77563c-0.26836,-0.64245 0.03573,-1.38101 0.67849,-1.64931l114.40552,-47.62247c0.64093,-0.25842 1.38095,0.03463 1.64821,0.67965c0.26805,0.64233 -0.03567,1.38076 -0.6788,1.64931l-114.40552,47.62235c-0.15878,0.06415 -0.32196,0.0961 -0.48471,0.0961z"/>
     </g>
     <g stroke="null" id="svg_593">
      <path stroke="null" id="svg_594" d="m-721.08551,229.31751c-0.49349,0 -0.96252,-0.29049 -1.1632,-0.77563c-0.26836,-0.64245 0.03573,-1.38101 0.67849,-1.64979l114.40552,-47.62198c0.64093,-0.25623 1.38095,0.03451 1.64821,0.67941c0.26805,0.64258 -0.03567,1.38101 -0.6788,1.64931l-114.40552,47.62259c-0.15878,0.06415 -0.32196,0.0961 -0.48471,0.0961z"/>
     </g>
     <g stroke="null" id="svg_595">
      <path stroke="null" id="svg_596" d="m-718.81198,242.56149c-0.49385,0 -0.96289,-0.29074 -1.1632,-0.77587c-0.26836,-0.64221 0.03573,-1.38077 0.67813,-1.64882l114.40552,-47.62272c0.64386,-0.25842 1.38241,0.03464 1.64821,0.67965c0.26806,0.64245 -0.03567,1.38101 -0.67807,1.64931l-114.40552,47.62211c-0.15878,0.06415 -0.32269,0.09634 -0.48507,0.09634z"/>
     </g>
     <g stroke="null" id="svg_597">
      <path stroke="null" id="svg_598" d="m-718.81198,257.38086c-0.49385,0 -0.96289,-0.29049 -1.1632,-0.77563c-0.26836,-0.64245 0.03573,-1.38101 0.67813,-1.64906l114.40552,-47.62235c0.64386,-0.2583 1.38241,0.03439 1.64821,0.67929c0.26806,0.6427 -0.03567,1.38125 -0.67807,1.64955l-114.40552,47.62211c-0.15878,0.06415 -0.32269,0.0961 -0.48507,0.0961z"/>
     </g>
     <g stroke="null" id="svg_599">
      <path stroke="null" id="svg_600" d="m-702.10823,266.37156c-0.49306,0 -0.9621,-0.2905 -1.16314,-0.77563c-0.26806,-0.64245 0.03567,-1.38101 0.67843,-1.6498l114.40589,-47.62211c0.64459,-0.25854 1.38168,0.03463 1.64754,0.67928c0.26873,0.6427 -0.03567,1.38101 -0.67806,1.6498l-114.40558,47.62235c-0.15878,0.06415 -0.32226,0.0961 -0.48507,0.0961z"/>
     </g>
     <g stroke="null" id="svg_601">
      <path stroke="null" id="svg_602" d="m-690.17069,274.24638c-0.49379,0 -0.96289,-0.29049 -1.16314,-0.77563c-0.26879,-0.64245 0.03567,-1.38101 0.67807,-1.64906l114.40552,-47.62211c0.64093,-0.25635 1.38095,0.03415 1.64827,0.67953c0.26799,0.64245 -0.03573,1.38076 -0.67886,1.64882l-114.40516,47.62235c-0.15915,0.06415 -0.32226,0.0961 -0.48471,0.0961z"/>
     </g>
     <g stroke="null" id="svg_603">
      <path stroke="null" id="svg_604" d="m-696.43736,290.18335c-0.49379,0 -0.96246,-0.29001 -1.16314,-0.77514c-0.26842,-0.64221 0.03567,-1.38077 0.67807,-1.64955l114.40552,-47.62186c0.64532,-0.25854 1.38241,0.03415 1.64827,0.67953c0.26799,0.64245 -0.03567,1.38076 -0.67807,1.64882l-114.40558,47.62259c-0.15878,0.06342 -0.32263,0.09561 -0.48507,0.09561z"/>
     </g>
     <g stroke="null" id="svg_605">
      <path stroke="null" id="svg_606" d="m-669.98978,298.05597c-0.49349,0 -0.96216,-0.29001 -1.1632,-0.77514c-0.26799,-0.64221 0.03573,-1.38076 0.67849,-1.64955l114.40516,-47.62186c0.64312,-0.25854 1.38241,0.03415 1.64821,0.6788c0.26879,0.64319 -0.03567,1.38174 -0.67807,1.64955l-114.40552,47.62284c-0.15878,0.06317 -0.32269,0.09537 -0.48507,0.09537z"/>
     </g>
     <g stroke="null" id="svg_607">
      <path stroke="null" id="svg_608" d="m-668.87543,312.74071c-0.49385,0 -0.96289,-0.29342 -1.1632,-0.77563c-0.26873,-0.64245 0.03573,-1.38101 0.67922,-1.6498l114.40589,-47.61967c0.63581,-0.25854 1.38095,0.03707 1.64675,0.67953c0.26805,0.64246 -0.03567,1.38101 -0.67953,1.6498l-114.40442,47.61967c-0.15878,0.06415 -0.32232,0.0961 -0.48471,0.0961z"/>
     </g>
     <g stroke="null" id="svg_609">
      <path stroke="null" id="svg_610" d="m-644.90425,313.99343c-0.49385,0 -0.96289,-0.2905 -1.1632,-0.77563c-0.26873,-0.64245 0.03573,-1.38101 0.67813,-1.64906l114.40552,-47.62259c0.64246,-0.25562 1.38089,0.03732 1.64821,0.67953c0.26805,0.64245 -0.03561,1.38101 -0.67807,1.64979l-114.40589,47.62186c-0.15878,0.06415 -0.32233,0.0961 -0.48471,0.0961z"/>
     </g>
     <g stroke="null" id="svg_611">
      <path stroke="null" id="svg_612" d="m-613.50856,312.74071c-0.49379,0 -0.96283,-0.29342 -1.16332,-0.77563c-0.26842,-0.64245 0.03567,-1.38101 0.67898,-1.6498l114.4057,-47.61967c0.64538,-0.25562 1.38174,0.03927 1.64967,0.67953c0.26586,0.64246 -0.03707,1.38101 -0.67953,1.6498l-114.4079,47.61967c-0.15805,0.06415 -0.32117,0.0961 -0.48361,0.0961z"/>
     </g>
     <g stroke="null" id="svg_613">
      <path stroke="null" id="svg_614" d="m-604.40646,321.86825c-0.49385,0 -0.96289,-0.28976 -1.1632,-0.7749c-0.26873,-0.64245 0.03573,-1.38101 0.67813,-1.6498l114.40576,-47.62186c0.64453,-0.25854 1.38089,0.03439 1.64967,0.67953c0.26586,0.64245 -0.0372,1.38101 -0.67953,1.64906l-114.40577,47.62259c-0.15878,0.06342 -0.32269,0.09537 -0.48507,0.09537z"/>
     </g>
     <g stroke="null" id="svg_615">
      <path stroke="null" id="svg_616" d="m-575.76517,321.86825c-0.49379,0 -0.96289,-0.28976 -1.16314,-0.7749c-0.26879,-0.64245 0.03567,-1.38101 0.67807,-1.6498l114.4043,-47.62186c0.64526,-0.25854 1.38089,0.03439 1.64967,0.67953c0.26586,0.64245 -0.0372,1.38101 -0.67953,1.64906l-114.40503,47.62259c-0.15878,0.06342 -0.3219,0.09537 -0.48434,0.09537z"/>
     </g>
     <g stroke="null" id="svg_617">
      <path stroke="null" id="svg_618" d="m-534.39315,318.76695c-0.49379,0 -0.96289,-0.2905 -1.1632,-0.77563c-0.26873,-0.64245 0.03573,-1.38101 0.6788,-1.6498l85.45849,-35.57133c0.64465,-0.25854 1.38101,0.03415 1.64906,0.67953c0.26574,0.64245 -0.03646,1.38101 -0.67892,1.64906l-85.45922,35.57206c-0.15952,0.06415 -0.32257,0.0961 -0.48501,0.0961z"/>
     </g>
     <g stroke="null" id="svg_619">
      <path stroke="null" id="svg_620" d="m-508.61424,323.1734c-0.49233,0 -0.9621,-0.29049 -1.16466,-0.77563c-0.26586,-0.64245 0.0372,-1.38101 0.67953,-1.64882l85.45935,-35.57524c0.64745,-0.25562 1.38162,0.03488 1.64967,0.67953c0.26586,0.64245 -0.0372,1.38101 -0.67953,1.6498l-85.45922,35.57426c-0.16025,0.06415 -0.32269,0.0961 -0.48513,0.0961z"/>
     </g>
     <g stroke="null" id="svg_621">
      <path stroke="null" id="svg_622" d="m-456.46715,312.74071c-0.49233,0 -0.96222,-0.2905 -1.16466,-0.77563c-0.26586,-0.64245 0.0372,-1.38101 0.67953,-1.6498l37.83736,-15.74964c0.64465,-0.25635 1.38101,0.03439 1.64894,0.6788c0.26586,0.64319 -0.03634,1.38174 -0.67953,1.6498l-37.83663,15.75037c-0.16025,0.06415 -0.32257,0.0961 -0.48501,0.0961z"/>
     </g>
    </g>
    <g stroke="null" id="svg_623" display="inline">
     <path stroke="null" id="svg_624" d="m-608.24917,270.12629c0,0 -2.42689,28.06872 18.57197,29.3346c20.99879,1.26662 31.52697,-29.3346 31.52697,-29.3346s6.56601,32.92249 31.7863,30.60121c25.22023,-2.32127 21.9493,-36.08866 21.9493,-36.08866s-73.12765,-11.39637 -103.83454,5.48745z" fill="#FF8B00"/>
     <g stroke="null" id="svg_625">
      <g stroke="null" id="svg_626">
       <g stroke="null" id="svg_627">
        <path stroke="null" id="svg_628" d="m-586.48414,296.26788c-17.91939,-1.081 -18.77959,-21.67832 -18.64703,-27.69675c-1.08088,0.48952 -2.12163,1.00734 -3.118,1.55443c0,0 -2.42689,28.06945 18.57197,29.33533c8.3366,0.50245 15.0228,-4.01766 20.0556,-9.6512c-4.55944,4.03717 -10.18073,6.86089 -16.86253,6.4582z" fill="#FF7300"/>
       </g>
       <g stroke="null" id="svg_629">
        <path stroke="null" id="svg_630" d="m-523.17093,297.53377c-25.2195,2.32176 -31.78551,-30.60146 -31.78551,-30.60146s-0.83758,2.4342 -2.51134,5.90185c2.22072,7.82604 10.33957,29.80437 31.10385,27.89334c6.96516,-0.64099 11.75613,-3.68106 15.04389,-7.74531c-3.003,2.40859 -6.87041,4.09327 -11.85089,4.55157z" fill="#FF7300"/>
       </g>
      </g>
     </g>
     <path stroke="null" id="svg_631" d="m-667.7618,179.38681c-0.52952,0.17647 -16.86003,20.39097 -16.94851,46.07866c-0.08811,25.68744 29.44027,2.64811 29.44027,2.64811l-12.49176,-48.72677z" fill="#FECE00"/>
     <path stroke="null" id="svg_632" d="m-682.2427,219.47338c0.02988,-8.75191 1.94541,-16.86821 4.47931,-23.77374c-3.64972,7.98104 -6.9076,18.33141 -6.94693,29.76583c-0.08811,25.68744 29.44027,2.64811 29.44027,2.64811l-0.92027,-3.58911c-7.75354,5.14988 -26.12233,15.2167 -26.05239,-5.05109z" fill="#FCC000"/>
     <path stroke="null" id="svg_633" d="m-422.57086,194.83913c0,0 7.13188,-10.16829 15.06499,-10.14c7.93385,0.02829 15.05633,9.48303 6.97102,14.16192c-8.08605,4.67889 -22.03601,-4.02192 -22.03601,-4.02192z" fill="#CD2606"/>
     <path stroke="null" id="svg_634" d="m-422.57086,194.83889c0,0 13.94996,8.70106 22.03601,4.02217c1.97444,-1.14295 3.04227,-2.57116 3.41228,-4.07705c-3.02995,1.67919 -7.25505,-1.03661 -11.78394,-2.91983c-3.36996,-1.4015 -8.06275,-0.92258 -10.78745,-0.45562c-1.79309,1.88468 -2.8769,3.43033 -2.8769,3.43033z" fill="#BC1A04"/>
     <path stroke="null" id="svg_635" d="m-418.72089,193.63935c0,0 9.98194,-3.84595 19.70096,5.76501s-1.98407,14.11668 -9.85011,12.62152c-7.86604,-1.4954 -13.03726,-16.17404 -9.85084,-18.38653z" fill="#CD2606"/>
     <path stroke="null" id="svg_636" d="m-395.35204,206.43916c-2.07432,2.46933 -6.17856,3.71984 -7.74518,2.79519c-1.88785,-1.11393 -2.16603,-5.1672 -7.11663,-10.51976c-2.97019,-3.21117 -4.87036,-4.86304 -5.91563,-5.67111c-1.62418,0.22342 -2.5914,0.59575 -2.5914,0.59575c-3.18642,2.21261 1.9848,16.89101 9.85084,18.38666c5.59147,1.06295 13.12251,-0.90636 13.518,-5.58672z" fill="#BC1A04"/>
     <path stroke="null" id="svg_637" d="m-421.52278,195.17804c0,0 8.01104,-1.70907 13.67166,9.82645c5.66148,11.53564 -1.22796,19.22558 -8.65118,17.30358c-7.42335,-1.92297 -5.02048,-27.13003 -5.02048,-27.13003z" fill="#CD2606"/>
     <path stroke="null" id="svg_638" d="m-414.5453,218.79897c-5.70867,-1.47882 -5.60599,-16.72381 -5.25427,-23.69032c-1.06771,-0.07 -1.72321,0.06939 -1.72321,0.06939s-2.40286,25.20706 5.02048,27.13003c4.51718,1.16954 8.83692,-1.22076 10.25061,-5.87136c-2.03932,2.24566 -5.11732,3.18447 -8.29361,2.36225z" fill="#BC1A04"/>
     <path stroke="null" id="svg_639" d="m-599.48579,73.68717c0,0 13.50056,-35.7492 47.08295,-42.18698c33.58238,-6.43765 33.7819,28.06829 33.7819,28.06829s35.55401,-3.84765 45.30937,29.73888c0,0 40.80097,20.6039 13.18153,50.6795c-27.6187,30.07559 -153.78786,-25.47634 -153.78786,-25.47634l14.43211,-40.82335z" fill="#CD2606"/>
     <path stroke="null" id="svg_640" d="m-527.29042,68.85425c-39.31801,-7.85098 -64.5194,14.75968 -60.67662,-1.70614c1.61254,-6.90888 6.82748,-16.43155 12.46042,-25.17822c-16.83052,12.79061 -23.97917,31.71728 -23.97917,31.71728l-14.43211,40.82335c0,0 126.16916,55.55193 153.78786,25.47634c2.98702,-3.25209 5.17268,-6.39338 6.69711,-9.40986c-22.09199,-35.13461 -38.81763,-54.72612 -73.85749,-61.72275z" fill="#BC1A04"/>
     <path stroke="null" id="svg_641" d="m-598.091,94.60895c0,0 25.54439,-28.45372 64.51873,-23.71129c38.97495,4.74219 58.36273,24.5482 79.4242,71.13437c21.06135,46.58598 25.66378,51.74684 35.42718,51.60732c0,0 -7.11297,62.20782 -54.3969,81.17656c-47.2832,18.96972 -109.11284,27.35504 -162.49136,-3.62643c-61.19017,-35.51523 -38.21902,-172.11707 36.12336,-197.50231c0,0 -2.23164,10.8794 1.39479,20.92178z" fill="#FECE00"/>
     <path stroke="null" id="svg_642" d="m-521.81834,223.27883c0,0 4.87182,31.15367 26.5116,25.94184c21.63905,-5.21134 26.62453,-37.27381 31.72295,-40.78585c5.09768,-3.51252 29.22984,-8.49752 31.94869,-4.53218c2.71958,3.96534 -5.47855,36.81758 -43.85494,49.88106c-38.37628,13.06421 -111.18642,10.1078 -139.24849,-39.09727c-24.30479,-42.61809 21.23605,-124.31222 58.47907,-132.68962c37.24229,-8.37721 69.90331,21.75283 83.38497,45.09162c13.48227,23.33879 19.03374,50.43345 15.86184,55.07015c-3.17276,4.63657 -30.02376,6.67577 -34.21532,11.09441c-4.19242,4.41852 0.66489,26.1716 -5.89892,28.77678c-6.56381,2.60592 -27.18528,-14.04302 -24.69144,1.24905z" fill="#FFDA3E"/>
     <path stroke="null" id="svg_643" d="m-473.11779,274.81591c11.35124,-4.55352 20.38634,-11.59954 27.5648,-19.67754c-62.44148,22.19248 -163.80474,26.93113 -186.76114,-40.65438c-28.45122,-83.76132 32.82834,-140.79682 32.82834,-140.79682c-74.34238,25.38505 -97.31353,161.98635 -36.12336,197.50231c53.37852,30.98147 115.20816,22.59541 162.49136,3.62643z" fill="#FCC000"/>
     <path stroke="null" id="svg_644" d="m-511.01845,225.7145c0,0 12.78018,12.67493 25.12706,1.64809c0,0 -1.47784,11.08002 -10.44744,13.19007c-8.96948,2.11078 -14.7445,-9.78633 -14.67962,-14.83816z" fill="#FCC000"/>
     <path stroke="null" id="svg_645" d="m-595.60228,164.1556l6.77065,17.04919l7.76781,-5.40976c0,0 1.50912,-0.90783 1.08228,-2.69372c-0.42605,-1.78614 -0.74654,-4.86097 -1.38601,-5.45598c-0.63947,-0.59514 -0.18427,-1.41174 -3.42392,-1.7098c-3.24038,-0.29806 -10.8108,-1.77992 -10.8108,-1.77992z" fill="#660000"/>
     <path stroke="null" id="svg_646" d="m-588.83164,181.20466l6.7998,-4.73548c-0.31464,-0.01281 -0.66715,0 -1.06405,0.04317c-6.15307,0.67246 -9.53108,-9.64925 -10.19756,-11.91955c-1.36418,-0.2522 -2.30884,-0.43721 -2.30884,-0.43721l6.77065,17.04906z" fill="#540000"/>
     <circle stroke="null" id="svg_647" r="11.75362" cy="156.22248" cx="-533.57197"/>
     <g stroke="null" id="svg_648">
      <path stroke="null" id="svg_649" d="m-512.90715,156.25035c-0.12598,0 -0.25415,-0.01238 -0.3794,-0.03695c-18.87423,-3.84527 -26.3616,-19.22625 -26.67185,-19.87864c-0.44647,-0.94264 -0.04518,-2.06541 0.89655,-2.51585c0.94246,-0.44306 2.06999,-0.04683 2.51933,0.89362c0.06775,0.14281 7.04157,14.33723 24.00905,17.79341c1.02405,0.20939 1.68394,1.20887 1.47711,2.23036c-0.18427,0.89606 -0.97234,1.51406 -1.85078,1.51406z"/>
     </g>
     <g stroke="null" id="svg_650">
      <path stroke="null" id="svg_651" d="m-652.09009,148.90444c-0.98838,0 -1.81791,-0.76801 -1.88346,-1.76748c-0.06921,-1.04137 0.72032,-1.93992 1.76108,-2.00877c0.14208,-0.00982 14.28827,-1.09795 23.42129,-13.3008c0.62422,-0.83941 1.80925,-1.00435 2.6461,-0.38166c0.83612,0.62532 1.00728,1.81193 0.38166,2.64646c-10.20847,13.64057 -25.5575,14.76803 -26.20501,14.80736c-0.04189,0.00488 -0.08232,0.00488 -0.12165,0.00488z"/>
     </g>
     <circle stroke="null" id="svg_652" r="2.27456" cy="151.86848" cx="-530.27732" fill="#FFFFFF"/>
     <circle stroke="null" id="svg_653" r="4.73572" cy="158.8784" cx="-535.66708" fill="#FFFFFF"/>
     <circle stroke="null" id="svg_654" r="11.75327" cy="154.14268" cx="-635.60921"/>
     <path stroke="null" id="svg_655" d="m-630.03993,149.78885c0,1.25601 -1.01856,2.27426 -2.2742,2.27426c-1.25643,0 -2.27463,-1.01826 -2.27463,-2.27426s1.01819,-2.27444 2.27463,-2.27444c1.25564,0 2.2742,1.01844 2.2742,2.27444z" fill="#FFFFFF"/>
     <circle stroke="null" id="svg_656" r="4.73548" cy="156.79878" cx="-637.70402" fill="#FFFFFF"/>
     <g stroke="null" id="svg_657">
      <path stroke="null" id="svg_658" d="m-518.35947,166.76188c0,2.94019 -2.98324,5.32354 -6.66431,5.32354c-3.68033,0 -6.6643,-2.38335 -6.6643,-5.32354c0,-2.93983 2.98397,-5.32318 6.6643,-5.32318c3.68106,0 6.66431,2.38335 6.66431,5.32318z" fill="#6EB8E5"/>
      <path stroke="null" id="svg_659" d="m-523.84753,170.26099c-3.68106,0 -6.66431,-2.38347 -6.66431,-5.32354c0,-0.51221 0.09244,-1.00685 0.26147,-1.47577c-0.8988,0.90722 -1.43772,2.0531 -1.43772,3.3002c0,2.94019 2.98397,5.3233 6.6643,5.3233c3.03934,0 5.60172,-1.62589 6.40284,-3.84765c-1.21991,1.23186 -3.10715,2.02346 -5.22659,2.02346z" fill="#56ABD6"/>
      <path stroke="null" id="svg_660" d="m-519.63841,167.33555c-0.63075,1.52247 -3.04007,1.96992 -5.38098,0.99954c-2.34018,-0.97051 -3.72619,-2.99129 -3.09471,-4.51377c0.63075,-1.52247 3.04007,-1.97005 5.38098,-0.99954c2.34018,0.97027 3.72619,2.99129 3.09471,4.51377z" fill="#7ECBF2"/>
     </g>
     <g stroke="null" id="svg_661">
      <path stroke="null" id="svg_662" d="m-641.53789,165.57844c0,2.93983 -2.98397,5.3233 -6.6643,5.3233c-3.68106,0 -6.6643,-2.38347 -6.6643,-5.3233c0,-2.94007 2.98324,-5.3233 6.6643,-5.3233c3.68033,0 6.6643,2.38323 6.6643,5.3233z" fill="#6EB8E5"/>
      <path stroke="null" id="svg_663" d="m-647.02668,169.0773c-3.68064,0 -6.66431,-2.38323 -6.66431,-5.32342c0,-0.51221 0.0925,-1.00697 0.26147,-1.47577c-0.89874,0.90734 -1.43698,2.05322 -1.43698,3.30032c0,2.93983 2.98324,5.3233 6.66394,5.3233c3.03971,0 5.60202,-1.62589 6.4032,-3.84765c-1.2207,1.23174 -3.10782,2.02322 -5.22732,2.02322z" fill="#56ABD6"/>
      <ellipse stroke="null" id="svg_664" ry="23.89772" rx="36.73792" cy="1172.75699" cx="-6617.63595" fill="#7ECBF2" transform="matrix(0.11535837475410216,0.047830027845329325,-0.047830027845329325,0.11535837475410216,172.4375429124256,345.6291611903743) "/>
     </g>
     <g stroke="null" id="svg_665">
      <path stroke="null" id="svg_666" d="m-601.3037,167.97581c0,0 14.39491,-3.39923 16.9543,4.64474c2.55866,8.04385 -11.72924,9.53657 -11.72924,9.53657s17.37681,2.70689 21.01709,-8.92424c4.10491,-13.11543 -22.34992,-24.1835 -26.24215,-5.25708z" fill="#FF8B00"/>
      <path stroke="null" id="svg_667" d="m-596.07864,182.15712c10.01762,0.1161 17.61932,-6.86358 11.84138,-13.12641c-5.77788,-6.26259 -11.06496,-1.76077 -11.79766,-5.25256c-0.38092,-1.81053 0.87185,-3.78546 2.16609,-5.26756c-3.4727,1.2043 -6.34241,4.15315 -7.43487,9.46523c0,0 14.39491,-3.39923 16.9543,4.6445c2.55866,8.04409 -11.72924,9.53681 -11.72924,9.53681z" fill="#FF7300"/>
      <path stroke="null" id="svg_668" d="m-591.41938,164.04633c0,0 4.94908,-0.85417 9.18217,4.93085c4.23242,5.78514 -0.58197,9.55108 -2.65915,10.83245c-2.07724,1.28113 4.87262,1.22283 8.11446,-6.40637c3.24184,-7.62933 -7.16328,-14.57913 -12.11382,-14.17143s-5.90173,4.93085 -2.52366,4.8145z" fill="#FFA039"/>
     </g>
     <path stroke="null" id="svg_669" d="m-589.67141,168.90839c0,0 3.9804,1.32137 4.67017,5.05902c0.68971,3.73789 -8.02269,-5.92697 -4.67017,-5.05902z" fill="#770101"/>
     <path stroke="null" id="svg_670" d="m-511.01845,225.7145c0,0 4.37437,15.92843 15.65049,12.40981c11.27624,-3.51935 10.14292,-35.60243 10.14292,-35.60243s8.15739,28.95056 -6.39771,38.8669c-14.55522,9.91633 -21.19697,-10.87611 -19.3957,-15.67427z" fill="#F99300"/>
     <path stroke="null" id="svg_671" d="m-580.01429,62.9221c0,0 5.33147,-21.32544 26.16202,-25.55329c20.83062,-4.22766 26.46575,14.60193 28.89983,21.59874c2.43347,6.99663 22.88164,3.55088 34.83156,11.39692c11.9498,7.84586 10.7233,18.18708 16.12331,21.91363c5.39915,3.72655 18.478,14.05137 19.31704,21.59881c0.83612,7.52902 -3.42252,0.68422 -22.51163,-20.38195c-19.08911,-21.06635 -44.48996,-28.97563 -60.68906,-30.11639c-16.19904,-1.14076 -44.43685,5.53416 -42.13307,-0.45647z" fill="#E22C14"/>
     <path stroke="null" id="svg_672" d="m-416.73609,210.53048c-0.0372,-0.13659 -2.63445,-8.63874 -0.79319,-10.64977c1.84053,-2.0109 7.44871,2.54921 9.40364,9.85658c1.95407,7.30749 -6.11807,9.99829 -8.61045,0.79319z" fill="#E22C14"/>
     <path stroke="null" id="svg_673" d="m-403.65151,205.94744c0,0 -5.70428,-8.45703 -8.54703,-10.85855c-2.84275,-2.40128 5.51355,-0.30257 9.99719,3.57033c4.48364,3.87326 4.76987,6.75406 3.70143,7.89872c-1.06844,1.14491 -3.55216,1.69248 -5.15159,-0.6105z" fill="#E22C14"/>
     <path stroke="null" id="svg_674" d="m-414.24298,189.41949c0,0 7.34383,0.99283 10.74367,3.0669c3.39996,2.07395 5.64757,-0.70002 3.94546,-3.0491c-1.70285,-2.34932 -5.76623,-3.98888 -9.6884,-3.20837c-3.92131,0.78039 -7.11444,2.91165 -5.00073,3.19056z" fill="#E22C14"/>
     <path stroke="null" id="svg_675" d="m-671.37219,223.53445c0,0 -1.95267,-19.73218 -2.03426,-25.79415c-0.08122,-6.06197 -7.20115,7.16054 -6.18362,20.91208c1.01673,13.75081 8.65704,9.46852 8.21788,4.88207z" fill="#FFDA3E"/>
     <path stroke="null" id="svg_676" d="m-594.82586,288.96259c0,0 15.58507,2.47128 15.73653,3.83326c0.15153,1.36125 -4.1923,2.69787 -9.88865,1.46247c-5.69636,-1.23588 -9.94115,-5.99575 -5.84788,-5.29574z" fill="#FFA039"/>
     <path stroke="null" id="svg_677" d="m-533.04714,292.06754c0,0 18.98484,-3.68838 20.4678,-3.18227c1.48223,0.50635 -1.88053,5.56745 -10.99355,6.6543c-9.11375,1.08588 -13.14586,-2.77641 -9.47425,-3.47203z" fill="#FFA039"/>
    </g>
    <path stroke="null" id="svg_678" d="m-499.78745,172.08542c0,4.11546 -3.75826,7.45188 -8.39422,7.45188c-4.63657,0 -8.39483,-3.33642 -8.39483,-7.45188c0,-4.11571 3.75826,-7.45188 8.39483,-7.45188c4.63596,0 8.39422,3.33618 8.39422,7.45188z" fill="#FF9999"/>
    <ellipse stroke="null" id="svg_679" ry="7.45164" rx="8.39453" cy="172.68031" cx="-663.88269" fill="#FF9999"/>
   </g>
  </g>
 </g>
</svg>