<svg width="400" height="400" xmlns="http://www.w3.org/2000/svg">

 <g>
  <title>background</title>
  <rect fill="none" id="canvas_background" height="402" width="402" y="-1" x="-1"/>
 </g>
 <g>
  <title>Layer 1</title>
  <g stroke="null" id="svg_1">
   <g stroke="null" id="svg_2" display="none">
    <g stroke="null" id="svg_3" display="inline">
     <path stroke="null" id="svg_4" d="m1731.88592,160.81864c0,0 19.65108,20.69587 51.96332,25.16324c32.31117,4.46732 -2.55132,31.90985 -40.62567,29.53912c-38.07516,-2.3704 -11.33765,-54.70235 -11.33765,-54.70235z" fill="#FECE00"/>
     <path stroke="null" id="svg_5" d="m1792.78138,200.87585c-8.09699,2.83799 -26.56718,8.09704 -30.27273,-1.43871c-2.5036,-6.44267 -6.22248,-15.84016 -9.19471,-23.32502c-13.71116,-7.16784 -21.42802,-15.29348 -21.42802,-15.29348s-26.73751,52.33196 11.33765,54.70235c21.18971,1.31912 41.38379,-6.59537 49.55782,-14.64514z" fill="#FCC000"/>
     <path stroke="null" id="svg_6" d="m1765.75065,185.24825c0,0 12.31275,3.52965 21.48987,4.91669c9.17738,1.38676 2.93917,10.21122 -6.33577,10.90468c-9.27575,0.69301 -13.45579,-1.70221 -14.56631,-3.46681c-1.11052,-1.76494 -7.36979,-14.16153 -0.58778,-12.35456z" fill="#FFDA3E"/>
    </g>
    <g stroke="null" id="svg_7" display="inline">
     <path stroke="null" id="svg_8" d="m1627.38323,338.24913c0,0 13.16923,22.98565 20.15489,24.97483c6.98567,1.98861 13.97107,-30.50008 13.97107,-30.50008l-34.12596,5.52525z" fill="#FF8B00"/>
     <path stroke="null" id="svg_9" d="m1647.53813,363.22395c2.17679,0.61962 4.35411,-2.10978 6.31978,-6.16112c-11.88038,-0.79472 -18.8066,-13.61112 -21.41949,-19.63235l-5.05518,0.81864c0,0 13.16923,22.98532 20.15489,24.97483z" fill="#FF7300"/>
     <path stroke="null" id="svg_10" d="m1643.92641,346.13677c0,0 8.72822,-2.95087 10.45051,-2.52102c1.72202,0.42929 -0.35613,9.11064 -2.85041,9.91326c-2.49374,0.80194 -11.35551,-6.21042 -7.6001,-7.39224z" fill="#FFA039"/>
    </g>
    <g stroke="null" id="svg_11" display="inline">
     <path stroke="null" id="svg_12" d="m1588.94981,342.36173c0,0 10.94046,24.04991 17.70887,26.64584c6.76815,2.59616 16.79748,-29.14215 16.79748,-29.14215l-34.50635,2.49631z" fill="#FF8B00"/>
     <path stroke="null" id="svg_13" d="m1606.65868,369.00757c2.10935,0.80916 4.53564,-1.71716 6.87637,-5.57828c-11.75589,-1.83856 -17.44071,-15.21083 -19.47382,-21.43717l-5.11143,0.36961c0,0 10.94046,24.04957 17.70887,26.64584z" fill="#FF7300"/>
     <path stroke="null" id="svg_14" d="m1604.67782,351.67387c0,0 8.97159,-2.16991 10.64564,-1.59046c1.67431,0.58036 -1.21661,9.04137 -3.77566,9.62105c-2.56011,0.57934 -10.72054,-7.18442 -6.86998,-8.03059z" fill="#FFA039"/>
    </g>
    <path stroke="null" id="svg_15" d="m1619.90815,67.42828c0,0 3.62505,-27.92886 -15.43958,-31.34117s-29.82676,12.46248 -29.82676,12.46248s-14.14487,-39.61343 -50.42949,-29.67292c-36.28436,9.9405 -37.36049,41.39354 -32.90188,54.89489c0,0 -62.41356,5.81837 -31.68234,60.23562c0,0 -23.8202,1.78085 -27.35648,22.25462c-3.53575,20.47445 30.74962,37.76528 30.74962,37.76528l104.36834,-46.07341c0,0 23.84472,-25.07372 29.15528,-27.00258c5.31002,-1.92847 18.72663,-22.99643 18.55229,-24.92479c-0.1738,-1.92904 4.81101,-28.59801 4.81101,-28.59801z" fill="#CD2606"/>
    <path stroke="null" id="svg_16" d="m1455.09005,189.33434l1.16383,-0.85288c0,0 -19.21445,-14.1349 -19.71586,-29.98956c-0.50088,-15.85443 23.09007,-24.48473 23.08954,-24.48473c0,0 -23.81966,1.78034 -27.35595,22.25462c-2.4239,14.03489 12.92372,26.57352 22.81844,33.07254z" fill="#BC1A04"/>
    <path stroke="null" id="svg_17" d="m1459.62756,139.78899c0,0 -14.91978,5.35788 -18.29985,15.58602c-3.38088,10.22809 7.40711,20.584 8.57707,19.67048c1.1697,-0.91426 15.70562,-37.40634 9.72278,-35.2565z" fill="#E22C14"/>
    <path stroke="null" id="svg_18" d="m1604.46856,36.08711c-19.06517,-3.41265 -29.82676,12.46214 -29.82676,12.46214s-14.14487,-39.61309 -50.42949,-29.67258c-36.28436,9.94017 -37.36049,41.39354 -32.90188,54.89489c0,0 -62.41356,5.81786 -31.68287,60.23562c0,0 -8.29211,-23.15844 3.14549,-38.44938c11.43788,-15.29083 36.91266,-8.9361 36.52667,-21.84395c-0.38572,-12.90734 1.49651,-41.70713 26.80015,-47.90683c25.30285,-6.19993 44.96699,30.40756 46.34728,29.2904c1.37975,-1.11683 14.9539,-15.14167 27.94453,-14.64525c12.98956,0.49642 19.51647,26.97613 19.51647,26.97613s3.62505,-27.92886 -15.43958,-31.34117z" fill="#BC1A04"/>
    <path stroke="null" id="svg_19" d="m1575.93199,59.41434c0,0 14.61109,-12.47314 24.53993,-11.0267c9.9283,1.44571 13.48778,15.5458 11.05242,20.60764c-2.43563,5.06105 -13.95614,13.64768 -16.67246,14.46118c-2.71632,0.81339 -30.79387,-17.01001 -61.25533,-7.81459c-47.64013,14.38046 -60.50707,42.88381 -65.00273,51.37951c-4.49593,8.49632 -8.05487,-23.86127 5.05785,-32.71896c13.11245,-8.85763 31.00259,-11.65947 35.77921,-17.71504c4.77689,-6.0558 -0.84315,-34.79805 19.10729,-41.75767c19.95017,-6.95934 39.00841,30.54233 47.39382,24.58463z" fill="#E22C14"/>
    <g stroke="null" id="svg_20" display="inline">
     <path stroke="null" id="svg_21" d="m1421.86908,258.51503c0,0 1.18836,-8.91782 -2.7699,-21.52438c-3.95853,-12.6061 -16.50026,-21.73434 -22.88881,-14.79429c-11.44454,12.43292 13.38542,35.33949 25.65871,36.31867z" fill="#CD2606"/>
     <path stroke="null" id="svg_22" d="m1409.52621,245.75041c-2.70539,-1.01788 -8.4286,-3.52683 -12.56305,-5.36561c5.92419,9.25009 17.6249,17.54919 24.90593,18.13023c0,0 1.18836,-8.91828 -2.7699,-21.52438c-0.63257,-2.01399 -1.48505,-3.93886 -2.49614,-5.72416c-4.58203,6.18639 -2.57877,16.17693 -7.07683,14.48392z" fill="#BC1A04"/>
     <path stroke="null" id="svg_23" d="m1421.86908,258.51503c0,0 -26.58237,-24.28153 -33.84686,-11.6461c-7.26476,12.636 12.42737,27.93348 33.84686,11.6461z" fill="#CD2606"/>
     <path stroke="null" id="svg_24" d="m1386.48679,252.31577c-0.10076,10.89684 17.0046,20.17378 35.38229,6.19925c0,0 -1.11185,-1.01529 -2.94237,-2.5226c-15.19328,10.13461 -29.06838,4.7514 -32.43992,-3.67666z" fill="#BC1A04"/>
     <path stroke="null" id="svg_25" d="m1412.80792,255.2715c0,0 -14.39437,-14.46587 -21.43629,-7.73533c-3.80072,3.63221 7.0675,14.51968 21.43629,7.73533z" fill="#E22C14"/>
     <path stroke="null" id="svg_26" d="m1421.86908,258.51503c0,0 -7.05257,-6.97322 -7.16107,-17.60019c-0.10716,-10.62663 17.97624,-17.03416 21.16172,-8.23017c3.18495,8.80342 -8.24386,22.17683 -14.00065,25.83036z" fill="#CD2606"/>
     <path stroke="null" id="svg_27" d="m1434.19862,230.20731c1.18809,8.40663 -5.63337,19.91982 -11.24914,21.39384c-2.50067,0.6564 -4.64494,-0.15761 -6.34564,-1.42495c2.12188,5.22909 5.26524,8.33882 5.26524,8.33882c5.75679,-3.65353 17.1856,-17.02694 13.99985,-25.83036c-0.37106,-1.02691 -0.94578,-1.84668 -1.67031,-2.47736z" fill="#BC1A04"/>
     <path stroke="null" id="svg_28" d="m1420.36937,248.34386c0,0 -4.24589,-4.57766 -3.18415,-9.34734c1.06067,-4.76957 9.45381,-8.96329 12.67155,-7.1068c3.21774,1.85672 -5.07491,19.65514 -9.4874,16.45414z" fill="#E22C14"/>
     <path stroke="null" id="svg_29" d="m1407.97719,241.13733c0,0 -7.82429,-0.55825 -11.03856,-9.62376c-1.98513,-5.60051 4.22776,-9.39698 7.2533,-8.30982c3.02527,1.08693 7.25703,6.6572 7.70327,8.87168c0.44623,2.21504 -0.66909,9.14742 -3.91801,9.0619z" fill="#E22C14"/>
    </g>
    <path stroke="null" id="svg_30" d="m1594.43363,92.01066c0,0 -41.89134,-27.87487 -87.13369,0c-45.24316,27.87498 -58.89034,98.7699 -61.16469,134.76584c-2.27462,35.996 -26.83934,29.41123 -26.83934,29.41123s40.48653,88.89246 160.12572,93.06283c119.63919,4.17048 184.00776,-69.8944 178.32161,-134.81413c-5.68615,-64.91955 -76.1959,-138.66769 -137.83508,-147.00815c0,0 -7.50627,12.73004 -25.47452,24.58237z" fill="#FECE00"/>
    <path stroke="null" id="svg_31" d="m1489.22454,195.23535c0,0 7.333,-58.25925 39.01907,-75.34559c31.68607,-17.08628 59.32485,-4.16749 72.49648,-6.25115c13.17163,-2.08389 31.74178,-23.9627 44.05027,-22.50396c12.30795,1.45879 87.45091,43.91991 95.87177,117.28902c8.42113,73.369 -61.3241,95.87279 -117.46507,101.49856c-56.14176,5.62589 -120.05663,-14.58591 -126.10238,-25.00439c-6.04655,-10.41802 28.93456,-13.54366 26.77483,-29.58836c-2.1592,-16.04448 -39.20114,-38.69719 -34.64497,-60.09414z" fill="#FFDA3E"/>
    <path stroke="null" id="svg_32" d="m1560.90132,207.53373c0,6.79202 -7.31088,12.29844 -16.32859,12.29844c-9.01851,0 -16.32912,-5.50641 -16.32912,-12.29844c0,-6.79231 7.31061,-12.29838 16.32912,-12.29838c9.01771,0 16.32859,5.50607 16.32859,12.29838z" fill="#FF9999"/>
    <path stroke="null" id="svg_33" d="m1754.12111,165.63249c0.47396,6.77674 -6.43654,12.74533 -15.43425,13.33099c-8.99825,0.58589 -16.67646,-4.43234 -17.15015,-11.20908c-0.47396,-6.77736 6.43654,-12.74572 15.43452,-13.33178c8.99718,-0.58594 16.67592,4.43308 17.14988,11.20987z" fill="#FF9999"/>
    <g stroke="null" id="svg_34" display="inline">
     <path stroke="null" id="svg_35" d="m1570.84855,191.67896c-1.54156,0 -2.89919,-1.07774 -3.15616,-2.59288c-0.11222,-0.68241 -2.66434,-16.73416 9.29361,-20.2954c9.73398,-2.87957 16.75563,7.93215 19.36186,14.78978c0.60991,1.60259 -0.24151,3.37452 -1.89929,3.96334c-1.65752,0.58865 -3.49976,-0.22959 -4.1134,-1.82925c-0.04958,-0.13008 -5.25724,-12.87947 -11.46027,-11.01423c-6.64686,1.97716 -4.87632,13.28687 -4.85766,13.40167c0.27563,1.68416 -0.91299,3.26886 -2.65528,3.53789c-0.1722,0.02696 -0.3444,0.03909 -0.51341,0.03909z"/>
    </g>
    <g stroke="null" id="svg_36" display="inline">
     <path stroke="null" id="svg_37" d="m1689.60993,162.50736c-1.54236,0 -2.89972,-1.07791 -3.15616,-2.59305c-0.11249,-0.68207 -2.66434,-16.73394 9.29281,-20.29529c9.73398,-2.87957 16.75616,7.93221 19.36212,14.78984c0.60937,1.60242 -0.24098,3.37441 -1.89929,3.96323c-1.65778,0.58848 -3.49976,-0.22942 -4.11314,-1.82942c-0.05012,-0.1298 -5.25751,-12.87913 -11.46,-11.01412c-6.64739,1.9771 -4.87658,13.2871 -4.85792,13.40161c0.2751,1.68427 -0.91299,3.26909 -2.65581,3.53789c-0.17167,0.02719 -0.34387,0.03932 -0.51261,0.03932z"/>
    </g>
    <path stroke="null" id="svg_38" d="m1668.17578,177.53751c0,0 -12.8083,5.5059 -13.6949,14.14145c0,0 7.89493,8.55753 18.5283,7.00266c0,0 -14.82248,13.83649 -29.16088,2.79833c-14.06383,-10.8261 3.46351,-39.02314 24.32748,-23.94245z" fill="#FF8B00"/>
    <path stroke="null" id="svg_39" d="m1669.29323,198.83427c-5.58885,3.11537 -14.82221,6.04604 -23.86418,-0.91437c-5.06291,-3.89796 -6.03109,-10.04706 -4.22349,-15.61761c-3.61679,6.31811 -3.53442,14.4226 2.64275,19.17767c14.33839,11.03815 29.16088,-2.79833 29.16088,-2.79833c-1.28166,0.18717 -2.52359,0.22683 -3.71595,0.15265z" fill="#FF7300"/>
    <path stroke="null" id="svg_40" d="m1661.65127,177.77376c0,0 -9.71425,6.51093 -10.43691,14.79243c0,0 4.0217,4.96757 10.02933,6.13726c0,0 -11.62874,3.45208 -17.20506,-6.76686c-5.25644,-9.6343 11.33391,-19.31661 17.61264,-14.16283z" fill="#FFA039"/>
    <path stroke="null" id="svg_41" d="m1482.60434,230.49614c0,0 1.22248,12.1529 -8.01728,21.00641c-9.23976,8.85374 6.75935,14.69016 6.75935,14.69016s-18.01489,-1.71896 -21.17292,-5.78215c-3.15776,-4.0633 8.4214,-13.28394 8.4214,-13.28394s10.20393,-7.787 14.00945,-16.63048z" fill="#FCC000"/>
    <path stroke="null" id="svg_42" d="m1482.60434,230.49614c0,0 -6.84332,10.04932 -22.90987,21.53419c-16.06762,11.4842 15.76933,25.69689 47.60548,9.47449c0,0 -33.68479,7.90287 -41.95265,-1.14853c-6.82359,-7.46986 13.53763,-10.62347 17.25704,-29.86015z" fill="#F99300"/>
    <path stroke="null" id="svg_43" d="m1478.44135,253.81676c0,0 6.20302,-10.56007 7.97543,-16.67403c1.77187,-6.11362 16.70285,17.57209 15.06372,20.94955c-1.63939,3.3779 -20.73495,3.97586 -23.03916,2.13799c-2.30367,-1.83855 -1.94994,-2.94399 0,-6.4135z" fill="#FFDA3E"/>
    <path stroke="null" id="svg_44" d="m1725.59786,298.23338c-23.12712,10.36895 -57.68892,20.77106 -108.42976,26.12325c-123.38259,13.01486 -167.34063,-50.61384 -172.33584,-63.10407c-4.99547,-12.49023 14.48634,-19.08313 18.982,-37.1592c4.49539,-18.07652 15.73494,-85.5616 50.95196,-111.3505c35.21569,-25.78952 79.66741,-20.7322 79.66741,-20.7322s-41.89134,-27.87487 -87.13369,0c-45.24316,27.87498 -58.89034,98.7699 -61.16469,134.76584c-2.27462,35.996 -26.83934,29.41123 -26.83934,29.41123s40.48653,88.89246 160.12572,93.06283c66.83138,2.32944 116.41479,-19.75295 146.17624,-51.01718z" fill="#FCC000"/>
    <g stroke="null" id="svg_45" display="inline">
     <path stroke="null" id="svg_46" d="m1816.51281,157.21537c-0.40731,0 -0.82023,-0.01523 -1.24247,-0.04383c-5.10716,-0.34558 -8.05114,-2.88273 -10.41266,-4.92036c-2.17039,-1.87122 -3.70982,-3.22937 -6.40855,-2.93525c-6.04628,0.65375 -10.73254,7.12496 -10.77892,7.18972c-0.49768,0.70458 -1.49864,0.88137 -2.2269,0.39702c-0.72853,-0.48316 -0.91353,-1.44272 -0.41265,-2.14605c0.22178,-0.31382 5.5486,-7.70024 13.0618,-8.51313c4.07555,-0.42856 6.53383,1.66441 8.89882,3.70323c2.20478,1.90162 4.48793,3.86964 8.50483,4.14301c3.20254,0.21735 5.68322,-0.53918 7.39405,-2.23834c2.08882,-2.08293 2.99302,-5.58708 2.54279,-9.86982c-0.09063,-0.84978 0.54993,-1.60879 1.4296,-1.69521c0.86634,-0.08287 1.66711,0.5297 1.75455,1.38117c0.55046,5.20636 -0.66935,9.58613 -3.42806,12.33437c-2.12374,2.11328 -5.10423,3.21346 -8.67624,3.21346z"/>
    </g>
    <g stroke="null" id="svg_47" display="inline">
     <path stroke="null" id="svg_48" d="m1754.36396,28.63068l-20.43373,-8.01609l0,33.49016c-1.67644,-0.85361 -3.64851,-1.36583 -5.77918,-1.36583c-5.98497,0 -10.8349,3.90067 -10.8349,8.71328c0,4.81289 4.84993,8.71328 10.8349,8.71328c5.56433,0 10.09597,-3.38411 10.71121,-7.72738l0.06211,-0.4791l0.06238,-24.33185l15.37721,-8.99646z" fill="#191919"/>
     <g stroke="null" id="svg_49">
      <path stroke="null" id="svg_50" d="m1738.49493,63.85937c-4.37064,5.46207 -13.54083,3.62121 -16.484,-0.43335c-2.20931,-3.04367 -1.56848,-6.46619 -0.46276,-8.83817c-2.55638,1.59322 -4.23202,4.0602 -4.23202,6.86434c0,4.81289 4.84993,8.71328 10.8349,8.71328c4.93816,0 9.04677,-2.67107 10.34388,-6.3061z"/>
      <polygon stroke="null" id="svg_51" points="1733.9302978515625,20.614646911621094 1733.9302978515625,54.104698181152344 1736.8529052734375,21.761016845703125 "/>
     </g>
     <path stroke="null" id="svg_52" d="m1748.61649,29.06645l-10.47397,-3.60107l-3.00741,32.76155c0,0 -2.89226,-3.13816 -7.82802,-2.67237c-4.9347,0.46562 -6.01829,5.22791 -1.68417,7.6677c4.33439,2.43967 12.04005,1.16252 12.04005,-3.25261c0,-4.41508 0.11889,-24.62942 0.11889,-24.62942l10.83463,-6.27377z" fill="#2D2D2D"/>
    </g>
    <g stroke="null" id="svg_53" display="inline">
     <path stroke="null" id="svg_54" d="m1841.74822,172.94891l13.92841,34.60546c-2.08589,-0.23264 -4.33705,0.00169 -6.53837,0.82778c-6.1841,2.31703 -9.57164,8.22521 -7.57238,13.19989c2.00272,4.97276 8.63678,7.12383 14.82168,4.80714c5.74906,-2.15536 9.02357,-7.41074 7.85361,-12.13496l-0.14874,-0.51786l-15.96046,-39.8653l-6.38376,-0.92215z" fill="#191919"/>
     <g stroke="null" id="svg_55">
      <path stroke="null" id="svg_56" d="m1844.87479,220.9464c-2.73765,-3.52265 -1.32724,-7.62138 -0.12075,-9.91721c-3.23,2.86422 -4.63827,6.94546 -3.18815,10.55285c2.00272,4.97276 8.63678,7.12383 14.82168,4.80714c3.30437,-1.2389 5.75039,-3.51284 7.04404,-6.10888c-6.99606,6.09963 -15.39347,4.73448 -18.55683,0.6661z"/>
      <polygon stroke="null" id="svg_57" points="1841.748291015625,172.9489288330078 1855.6763916015625,207.55438232421875 1844.031982421875,173.278564453125 "/>
     </g>
     <path stroke="null" id="svg_58" d="m1846.80927,176.43462l11.86385,34.14543c0,0 -4.7465,-1.22627 -8.5848,0.58126c-3.8391,1.80798 -5.04879,6.50072 -1.16756,9.18397c3.88042,2.68292 15.50383,-0.60913 13.46352,-6.55882c-2.1464,-5.31315 -14.05797,-36.23219 -14.05797,-36.23219l-1.51704,-1.11965z" fill="#2D2D2D"/>
    </g>
    <g stroke="null" id="svg_59" display="inline">
     <path stroke="null" id="svg_60" d="m1888.35007,97.53495l-0.25004,0.07373l-40.23222,9.99928l4.45568,13.74984l0,0l5.48356,16.9149c-1.7884,-0.31788 -3.74634,-0.2433 -5.69841,0.34597c-5.47983,1.65431 -8.76207,6.56519 -7.33407,10.97181c1.42747,4.40848 7.02645,6.6383 12.50681,4.98495c5.09544,-1.53687 8.23933,-5.88916 7.51294,-10.03448l-0.03012,-0.48621l-7.74725,-23.90707l30.91969,-7.97604l5.86368,18.08967c-1.7892,-0.31878 -3.74714,-0.24325 -5.69921,0.34569c-5.47956,1.65471 -8.76154,6.56474 -7.33407,10.9717c1.428,4.40797 7.02672,6.63842 12.50681,4.98483c5.0957,-1.53687 8.24067,-5.88894 7.5132,-10.03448l-0.14048,-0.68128l-8.02021,-24.88536l0.04638,-0.01156l-4.32266,-13.41589z" fill="#191919"/>
     <g stroke="null" id="svg_61">
      <path stroke="null" id="svg_62" d="m1864.65036,147.60487c-4.52338,4.49332 -11.26967,5.5226 -15.07945,2.64027c-3.01168,-2.28121 -3.29957,-5.78864 -3.17535,-7.84257c-1.70763,2.12259 -2.41963,4.72495 -1.621,7.18792c1.42747,4.40848 7.02645,6.6383 12.50681,4.98495c3.83671,-1.15739 6.56396,-3.91071 7.36899,-6.97057z"/>
      <polygon stroke="null" id="svg_63" points="1847.867919921875,107.6080093383789 1852.3236083984375,121.35786437988281 1857.80712890625,138.27272033691406 1850.6583251953125,106.9146499633789 "/>
     </g>
     <g stroke="null" id="svg_64">
      <path stroke="null" id="svg_65" d="m1900.12595,140.98039c-5.89034,4.5763 -13.5091,3.48396 -15.91114,0.62639c-1.99019,-2.37 -1.92115,-5.5371 -1.64552,-7.43822c-1.84225,2.15925 -2.62835,4.85909 -1.80226,7.41012c1.428,4.40797 7.02672,6.63842 12.50681,4.98483c3.24519,-0.97924 5.68428,-3.10177 6.85212,-5.58313z"/>
      <path stroke="null" id="svg_66" d="m1893.80031,130.2613c-0.95298,-0.16912 -1.955,-0.2182 -2.97623,-0.1456l2.97623,0.1456z"/>
      <polygon stroke="null" id="svg_67" points="1893.8001708984375,130.26129150390625 1889.013671875,110.24647521972656 1857.0167236328125,120.14763641357422 1887.9366455078125,112.17168426513672 "/>
     </g>
     <path stroke="null" id="svg_68" d="m1858.91863,139.67453l-5.7384,-30.95972l34.44984,-8.82537l11.19743,34.77898c0,0 0.73013,5.15954 -4.07528,6.72495c-4.80568,1.56507 -9.10274,-1.5046 -9.4874,-3.93508s1.20595,-4.97113 4.34558,-5.45378c3.13803,-0.48266 6.19689,0.94094 6.19689,0.94094l-6.17104,-24.67991l-33.63974,11.33098l6.7167,22.36276c0,0 1.35016,4.67435 -2.9517,6.65105c-4.3024,1.97721 -9.37464,-0.15902 -9.99201,-3.03791c-0.6163,-2.87923 2.679,-5.67993 5.27617,-6.08835c2.59557,-0.40864 3.87296,0.19044 3.87296,0.19044z" fill="#2D2D2D"/>
    </g>
   </g>
   <g stroke="null" id="svg_69" display="none">
    <g stroke="null" id="svg_70" display="inline">
     <path stroke="null" id="svg_71" d="m1257.11216,179.89984c0,0 17.19053,-11.89019 30.65419,-9.22194c13.46339,2.66808 9.31627,15.47941 -10.75893,16.36721c-20.07493,0.88791 -19.89526,-7.14527 -19.89526,-7.14527z" fill="#CD2606"/>
     <path stroke="null" id="svg_72" d="m1257.11322,179.89984c0,0 -0.18073,8.03318 19.89419,7.14527c2.28635,-0.10081 4.33812,-0.37378 6.20915,-0.75157c-4.07502,-2.09099 -9.00185,-5.05941 -9.21457,-7.59295c-0.21459,-2.56073 2.30128,-5.69889 4.49326,-7.91393c-10.96512,1.93462 -21.38204,9.11318 -21.38204,9.11318z" fill="#BC1A04"/>
     <path stroke="null" id="svg_73" d="m1237.44575,184.95903c0,0 37.87696,-2.77391 40.56356,-19.96765c1.62553,-10.4042 -32.39474,-5.23203 -40.56356,19.96765z" fill="#CD2606"/>
     <path stroke="null" id="svg_74" d="m1237.44575,184.95903c0,0 0.32308,-0.02431 0.89926,-0.0792c9.4994,-20.99456 37.57721,-25.86562 39.14836,-17.87446c0.22005,-0.65087 0.40692,-1.31619 0.51541,-2.01399c1.62606,-10.4042 -32.39474,-5.23203 -40.56303,19.96765z" fill="#BC1A04"/>
     <path stroke="null" id="svg_75" d="m1237.44575,184.95903c0,0 17.12536,-9.31394 34.47343,-2.96187c17.34781,6.35213 13.12858,28.55243 -34.47343,2.96187z" fill="#CD2606"/>
     <path stroke="null" id="svg_76" d="m1270.95714,184.54943c6.07147,2.22283 9.4874,6.38389 9.34079,9.76134c2.79416,-3.49101 -0.63403,-9.47776 -8.37875,-12.31361c-17.34741,-6.35207 -34.47343,2.96187 -34.47343,2.96187c0.74132,0.39804 1.44093,0.75106 2.16146,1.12704c5.71121,-2.33136 18.46246,-6.25578 31.34993,-1.53664z" fill="#BC1A04"/>
     <path stroke="null" id="svg_77" d="m1247.02445,185.71167c0,0 14.74065,-3.58364 24.03225,1.33345c19.56472,10.35315 -11.05908,9.64598 -24.03225,-1.33345z" fill="#E22C14"/>
     <path stroke="null" id="svg_78" d="m1244.67079,179.7798c0,0 23.50112,-3.15683 28.42995,-11.19024c4.9283,-8.03268 -18.93282,-2.87934 -28.42995,11.19024z" fill="#E22C14"/>
     <path stroke="null" id="svg_79" d="m1278.06529,177.29009c0,0 2.29355,-4.84121 7.52693,-5.00593c5.23258,-0.16421 9.54804,2.83811 7.08816,6.66606c-5.08677,7.91675 -16.49146,3.69166 -14.61509,-1.66013z" fill="#E22C14"/>
    </g>
    <path stroke="null" id="svg_80" d="m1003.41648,49.58863c0,0 -6.3635,-32.03554 37.07086,-51.79075c43.43383,-19.7551 73.80279,-0.13347 60.89999,16.01797c0,0 50.72738,-19.22156 67.18818,0.26694c16.46067,19.48816 -10.37894,27.49725 -10.37894,27.49725s31.54252,-6.0065 44.95953,8.00859c13.41807,14.01571 -10.23539,25.89568 -10.23539,25.89568s19.91832,5.90958 18.25854,22.84372c-1.65952,16.93408 -28.77955,30.7224 -52.98267,29.03378c-24.20206,-1.68839 -154.78011,-77.77319 -154.78011,-77.77319z" fill="#CD2606"/>
    <path stroke="null" id="svg_81" d="m1121.42454,43.39158c-49.24367,-29.43024 -102.05627,-12.34655 -90.30358,-29.2869c6.51118,-9.38485 23.1983,-18.14726 36.96983,-24.19917c-8.26212,0.89073 -17.57799,3.33221 -27.60346,7.89238c-43.43436,19.75521 -37.07086,51.79075 -37.07086,51.79075s130.57805,76.0848 154.78011,77.77319c11.80107,0.82315 24.27509,-2.05094 34.17408,-7.15695c-16.31393,-13.91778 -29.35814,-51.95857 -70.94612,-76.8133z" fill="#BC1A04"/>
    <path stroke="null" id="svg_82" d="m913.82797,147.68627c0,0 -5.95605,-2.54962 -8.60173,-16.21873c-2.12308,-10.97136 -31.51613,-4.02855 -32.19615,27.46713c-0.67961,31.4954 46.62611,34.30761 46.62611,34.30761l-5.82823,-45.55601z" fill="#FECE00"/>
    <path stroke="null" id="svg_83" d="m878.76249,152.44558c0.18553,-8.59363 2.54492,-15.29816 5.86821,-20.37049c-6.12892,5.10008 -11.31979,13.85725 -11.60061,26.85924c-0.67961,31.49574 46.62611,34.30744 46.62611,34.30744l-0.93472,-7.30452c-13.00236,-2.11429 -40.47853,-9.42733 -39.95899,-33.49168z" fill="#FCC000"/>
    <path stroke="null" id="svg_84" d="m1237.44575,184.95903c0,0 -35.13692,-6.69195 -61.69423,-68.99188c-26.55745,-62.29993 -84.8824,-96.99565 -161.64248,-76.49373c-76.76009,20.50221 -114.34876,96.39893 -112.91876,158.89021c1.43,62.49212 80.97292,127.15224 190.63689,121.43485c109.66437,-5.71649 154.19886,-109.21235 145.61858,-134.83946z" fill="#FECE00"/>
    <path stroke="null" id="svg_85" d="m1216.52727,195.69262c0,0 -43.07716,-21.58175 -61.90588,-65.75179c-18.82886,-44.16976 -65.69061,-82.87395 -120.11208,-68.33807c-54.422,14.53537 -77.72266,67.20601 -76.70864,111.51195c1.01362,44.30577 59.56955,105.39348 137.31994,101.34044c77.75039,-4.05337 127.49013,-60.59287 121.40666,-78.76253z" fill="#FFDA3E"/>
    <path stroke="null" id="svg_86" d="m1125.85929,298.44921c-109.66464,5.71683 -189.20729,-58.94318 -190.63729,-121.43463c-1.02775,-44.89752 18.08647,-96.71382 57.39716,-129.93563c-62.26962,27.70835 -92.71815,94.93743 -91.42889,151.28468c1.43,62.49212 80.97292,127.15168 190.63689,121.43485c39.24099,-2.04536 70.0991,-16.63612 93.21143,-35.67378c-17.08431,7.84906 -36.74658,13.15532 -59.1793,14.3245z" fill="#FCC000"/>
    <g stroke="null" id="svg_87" display="inline">
     <path stroke="null" id="svg_88" d="m1170.22784,234.15001c0,0 -6.87304,-6.83185 -34.53314,-4.73674c-23.06075,1.74694 -26.60996,-38.43838 3.51562,-40.69968c30.12492,-2.26096 35.48052,18.73451 31.01752,45.43642z" fill="#FECE00"/>
     <path stroke="null" id="svg_89" d="m1166.85376,221.81028c0,0 -6.34884,-3.38072 -25.68017,-2.0264c-16.11707,1.12958 -18.59734,-24.85078 2.45682,-26.31273c21.05376,-1.46173 24.04905,13.10049 23.22335,28.33914z" fill="#FFDA3E"/>
     <path stroke="null" id="svg_90" d="m1139.78597,223.27212c-15.54994,0.28939 -21.11481,-17.83198 -13.92295,-29.90889c-14.78996,11.05259 -8.96146,37.47363 9.83167,36.05004c27.66037,-2.09511 34.53314,4.73674 34.53314,4.73674c0.3488,-2.08676 0.61311,-4.12276 0.83489,-6.131c-4.05169,-2.09556 -13.05047,-5.08626 -31.27676,-4.74689z" fill="#FCC000"/>
    </g>
    <g stroke="null" id="svg_91" display="inline">
     <path stroke="null" id="svg_92" d="m989.54818,95.74626c0,9.23965 -7.76191,16.72937 -17.33621,16.72937c-9.5759,0 -17.33701,-7.48972 -17.33701,-16.72937c0,-9.23971 7.76111,-16.72999 17.33701,-16.72999c9.5743,0 17.33621,7.49028 17.33621,16.72999z" fill="#FFFFFF"/>
     <path stroke="null" id="svg_93" d="m984.09034,95.74626c0,6.33058 -5.31802,11.46282 -11.87838,11.46282c-6.56089,0 -11.87944,-5.13224 -11.87944,-11.46282c0,-6.33109 5.31855,-11.46332 11.87944,-11.46332c6.56036,0 11.87838,5.13224 11.87838,11.46332z"/>
    </g>
    <path stroke="null" id="svg_94" d="m1121.42454,167.55775c0,4.85311 -4.81954,8.78746 -10.76506,8.78746c-5.94525,0 -10.76532,-3.93434 -10.76532,-8.78746c0,-4.85266 4.82007,-8.78735 10.76532,-8.78735c5.94552,0 10.76506,3.93468 10.76506,8.78735z" fill="#FF9999"/>
    <path stroke="null" id="svg_95" d="m942.17395,115.06434c-2.00792,4.44904 -8.055,6.1983 -13.50591,3.90687c-5.45037,-2.29114 -8.24066,-7.75553 -6.23248,-12.20457c2.00872,-4.44949 8.05567,-6.19892 13.50657,-3.90744c5.45024,2.29148 8.2408,7.75547 6.23181,12.20513z" fill="#FF9999"/>
    <g stroke="null" id="svg_96" display="inline">
     <path stroke="null" id="svg_97" d="m999.165,164.78181c0,0 16.86292,-14.1116 12.91359,-30.56388c0,0 13.55669,0.92791 16.52425,13.13242c2.96743,12.20457 -8.93894,30.09911 -29.43784,17.43146z" fill="#660000"/>
     <path stroke="null" id="svg_98" d="m1009.1686,157.47909c6.3555,-9.81047 7.66941,-18.06276 7.88906,-22.13678c-2.79603,-0.96136 -4.97908,-1.12439 -4.97908,-1.12439c3.94933,16.45228 -12.91359,30.56388 -12.91359,30.56388c12.13828,7.50111 21.26142,4.28466 26.06989,-2.11965c-9.69106,2.21651 -21.7547,3.59904 -16.06628,-5.18306z" fill="#540000"/>
     <path stroke="null" id="svg_99" d="m1002.85642,136.2291c0,0 18.03355,-3.74723 22.57466,11.0878c4.54031,14.83542 -13.62279,27.10424 -29.4501,12.76992c0,0 -0.19473,13.3329 12.71393,16.65045c12.90853,3.31749 32.62799,-10.07826 29.06011,-30.79742c-3.56721,-20.71916 -25.1685,-22.42628 -34.89861,-9.71074z" fill="#FF8B00"/>
     <path stroke="null" id="svg_100" d="m1008.69491,176.73726c12.45616,3.201 31.19065,-9.18262 29.28643,-28.6697c-2.45735,10.99929 -10.11663,24.55281 -23.83766,25.19805c-18.03262,0.84758 -18.1627,-13.17924 -18.1627,-13.17924s-0.19473,13.33336 12.71393,16.6509z" fill="#FF7300"/>
     <path stroke="null" id="svg_101" d="m1000.17062,165.2463c0,0 9.30107,7.85272 21.77429,0.34766c12.47296,-7.50529 6.6334,-30.78704 -8.43553,-30.82196c-15.06866,-0.03475 7.69514,-9.25364 15.22087,-0.97383c7.52587,8.27936 7.45389,20.55929 1.21755,28.03891c-6.23674,7.47917 -12.8792,10.29257 -21.99035,9.11431c-9.11114,-1.17854 -10.59872,-8.07075 -7.78683,-5.70509z" fill="#FFA039"/>
     <path stroke="null" id="svg_102" d="m1012.19988,157.72471c0,0 5.31735,-7.82649 6.36829,-12.84455c1.05094,-5.01817 4.55337,2.24381 4.74237,6.79011c0.18833,4.54657 -2.53319,7.92674 -7.70593,9.59098c-5.17407,1.66374 -4.60748,-1.66881 -3.40473,-3.53653z" fill="#770101"/>
    </g>
    <g stroke="null" id="svg_103" display="inline">
     <g stroke="null" id="svg_104">
      <path stroke="null" id="svg_105" d="m1120.74706,121.84006c-0.23791,0 -0.47915,-0.02584 -0.72146,-0.07847c-24.45543,-5.42433 -28.0193,-25.9596 -28.16018,-26.83194c-0.2703,-1.68579 0.92739,-3.26593 2.6762,-3.52717c1.73096,-0.25786 3.37634,0.8878 3.65291,2.57021c0.11942,0.71089 3.14536,17.30155 23.26707,21.7639c1.72349,0.38185 2.79936,2.04068 2.40337,3.70526c-0.34107,1.4307 -1.65925,2.39821 -3.11791,2.39821z"/>
     </g>
     <g stroke="null" id="svg_106">
      <path stroke="null" id="svg_107" d="m974.50591,67.2542c-6.34271,0 -10.30923,-1.49535 -10.61112,-1.61443c-1.64086,-0.64016 -2.43203,-2.44204 -1.76734,-4.02364c0.66002,-1.5772 2.51626,-2.34067 4.15259,-1.71293c0.47329,0.17769 11.52557,4.18611 26.69886,-3.59046c1.56129,-0.80132 3.49896,-0.22818 4.33065,1.28104c0.82942,1.50618 0.23471,3.37796 -1.32577,4.179c-8.42206,4.31467 -15.87582,5.48142 -21.47787,5.48142z"/>
     </g>
    </g>
    <g stroke="null" id="svg_108" display="inline">
     <g stroke="null" id="svg_109">
      <path stroke="null" id="svg_110" d="m1102.34165,127.36182c-0.5274,0 -0.95431,-0.41174 -0.95431,-0.92029l0,-69.68444c0,-0.50905 0.42691,-0.92069 0.95431,-0.92069c0.52714,0 0.95378,0.41163 0.95378,0.92069l0,69.68444c0,0.50855 -0.42664,0.92029 -0.95378,0.92029z" fill="#8A0000"/>
     </g>
     <g stroke="null" id="svg_111">
      <path stroke="null" id="svg_112" d="m1116.01176,125.20821c-0.52714,0 -0.95391,-0.41129 -0.95391,-0.92018l0,-51.84355c0,-0.50894 0.42678,-0.92057 0.95391,-0.92057c0.52687,0 0.95365,0.41163 0.95365,0.92057l0,51.84355c0,0.50889 -0.42678,0.92018 -0.95365,0.92018z" fill="#8A0000"/>
     </g>
     <g stroke="null" id="svg_113">
      <path stroke="null" id="svg_114" d="m1128.01849,116.81354c-0.52727,0 -0.95405,-0.41146 -0.95405,-0.91995l0,-32.7554c0,-0.50877 0.42678,-0.92052 0.95405,-0.92052c0.52674,0 0.95324,0.41174 0.95324,0.92052l0,32.7554c0,0.50849 -0.42651,0.91995 -0.95324,0.91995z" fill="#8A0000"/>
     </g>
     <g stroke="null" id="svg_115">
      <path stroke="null" id="svg_116" d="m1136.70059,136.46653c-0.52714,0 -0.95391,-0.41163 -0.95391,-0.92024l0,-78.78921c0,-0.50905 0.42677,-0.92069 0.95391,-0.92069s0.95338,0.41163 0.95338,0.92069l0,78.78921c0,0.5086 -0.42624,0.92024 -0.95338,0.92024z" fill="#8A0000"/>
     </g>
     <g stroke="null" id="svg_117">
      <path stroke="null" id="svg_118" d="m1150.55503,129.87116c-0.52594,0 -0.95284,-0.41169 -0.95378,-0.9186c-0.06158,-45.54123 -0.05478,-68.81272 0.01866,-69.16681c0.10209,-0.49958 0.60178,-0.8306 1.12145,-0.72229c0.48515,0.09314 0.81036,0.52637 0.76318,0.99019c-0.06824,1.4668 -0.02706,45.65834 0.00453,68.89542c0.0008,0.5086 -0.42611,0.9221 -0.95298,0.9221l-0.00107,0z" fill="#8A0000"/>
     </g>
     <g stroke="null" id="svg_119">
      <path stroke="null" id="svg_120" d="m1163.11569,119.70981c-0.52727,0 -0.95338,-0.4118 -0.95338,-0.92074l0,-46.34458c0,-0.50894 0.42611,-0.92057 0.95338,-0.92057c0.52714,0 0.95404,0.41163 0.95404,0.92057l0,46.34458c0,0.50894 -0.42691,0.92074 -0.95404,0.92074z" fill="#8A0000"/>
     </g>
    </g>
    <g stroke="null" id="svg_121" display="inline">
     <path stroke="null" id="svg_122" d="m1149.75653,73.62427c0,0 28.24882,42.89159 3.28344,48.76778c-24.68827,5.81081 -22.51748,-29.35256 -3.28344,-48.76778z" fill="#6EB8E5"/>
     <path stroke="null" id="svg_123" d="m1149.43038,81.6667c0,0 16.295,23.76718 4.45314,28.33434c-11.71017,4.51662 -12.70594,-16.11945 -4.45314,-28.33434z" fill="#7ECBF2"/>
     <path stroke="null" id="svg_124" d="m1157.49685,115.9399c-20.75241,4.88448 -22.52401,-19.1841 -11.13799,-38.51318c-16.00298,19.83898 -16.4684,50.41318 6.68111,44.96533c5.62524,-1.32397 8.54189,-4.53044 9.69666,-8.69844c-1.40108,0.97981 -3.12537,1.74897 -5.23978,2.24629z" fill="#56ABD6"/>
    </g>
    <g stroke="null" id="svg_125" display="inline">
     <path stroke="null" id="svg_126" d="m1103.84629,132.69702c0,9.23982 -7.76111,16.72965 -17.33648,16.72965c-9.57484,0 -17.33675,-7.48983 -17.33675,-16.72965c0,-9.23976 7.76191,-16.72988 17.33675,-16.72988c9.57537,0 17.33648,7.49011 17.33648,16.72988z" fill="#FFFFFF"/>
     <path stroke="null" id="svg_127" d="m1098.38872,132.69702c0,6.33064 -5.31869,11.46293 -11.87891,11.46293c-6.56049,0 -11.87918,-5.13229 -11.87918,-11.46293c0,-6.33114 5.31869,-11.46332 11.87918,-11.46332c6.56022,0 11.87891,5.13218 11.87891,11.46332z"/>
    </g>
    <path stroke="null" id="svg_128" d="m902.4714,145.14946c0,0 -0.81996,-9.07634 -1.92902,-12.38091c-1.10959,-3.30474 -15.19368,-0.69792 -17.07498,12.93955c-1.88103,13.63741 6.70457,25.83222 11.96168,25.97184c5.25778,0.13945 7.40098,-23.13509 7.04231,-26.53048z" fill="#FFDA3E"/>
    <path stroke="null" id="svg_129" d="m1097.10773,17.12318c0,0 1.00616,-14.18669 -6.32485,-19.93922c-7.33007,-5.75236 -37.7806,4.89734 -44.62778,13.52594c-6.84705,8.62889 24.50368,3.4984 61.02861,19.27853c36.5244,15.78036 67.21551,50.00426 75.59386,66.16331c8.37808,16.15843 21.99181,6.64908 22.55547,-1.69448c0.56419,-8.34407 -20.94434,-19.69316 -20.94434,-19.69316s16.75589,-12.4354 14.17779,-18.92771c-2.57824,-6.49186 -35.13265,-12.55505 -47.45233,-11.07798c0,0 20.64431,-18.68588 12.00153,-27.51875c-12.58158,-12.85781 -66.00796,-0.11649 -66.00796,-0.11649z" fill="#E22C14"/>
    <g stroke="null" id="svg_130" display="inline">
     <path stroke="null" id="svg_131" d="m1273.76262,100.66769l-49.97739,0c-0.88554,0 -1.6014,-0.69126 -1.6014,-1.54533c0,-0.85423 0.71587,-1.54527 1.6014,-1.54527l49.97739,0c0.88474,0 1.60114,0.69104 1.60114,1.54527c0,0.85407 -0.7164,1.54533 -1.60114,1.54533z"/>
    </g>
    <g stroke="null" id="svg_132" display="inline">
     <path stroke="null" id="svg_133" d="m1367.31686,115.16346l-148.27,0c-0.88554,0 -1.6018,-0.69121 -1.6018,-1.54561c0,-0.85407 0.71627,-1.54516 1.6018,-1.54516l148.27,0c0.88554,0 1.6018,0.69109 1.6018,1.54516c0,0.8544 -0.71627,1.54561 -1.6018,1.54561z"/>
    </g>
    <g stroke="null" id="svg_134" display="inline">
     <path stroke="null" id="svg_135" d="m1339.39126,235.6941l-87.52421,0c-0.88527,0 -1.6014,-0.69081 -1.6014,-1.54499c0,-0.85452 0.71613,-1.54567 1.6014,-1.54567l87.52421,0c0.88607,0 1.60207,0.69115 1.60207,1.54567c0,0.85418 -0.716,1.54499 -1.60207,1.54499z"/>
    </g>
    <g stroke="null" id="svg_136" display="inline">
     <path stroke="null" id="svg_137" d="m1371.06133,251.85162l-130.99856,0c-0.88487,0 -1.60114,-0.69092 -1.60114,-1.54533c0,-0.85418 0.71627,-1.54522 1.60114,-1.54522l130.99856,0c0.885,0 1.60154,0.69104 1.60154,1.54522c0,0.8544 -0.71653,1.54533 -1.60154,1.54533z"/>
    </g>
    <g stroke="null" id="svg_138" display="inline">
     <path stroke="null" id="svg_139" d="m1304.2654,277.6918l-94.43351,0c-0.88514,0 -1.60127,-0.69104 -1.60127,-1.54522c0,-0.85407 0.71613,-1.54567 1.60127,-1.54567l94.43351,0c0.88514,0 1.60154,0.6916 1.60154,1.54567c0,0.85418 -0.7164,1.54522 -1.60154,1.54522z"/>
    </g>
    <g stroke="null" id="svg_140" display="inline">
     <g stroke="null" id="svg_141">
      <path stroke="null" id="svg_142" d="m896.33715,268.29256c-0.30655,0 -0.61431,-0.08416 -0.88834,-0.25927c-35.36337,-22.81281 -34.57873,-56.73626 -33.4946,-66.58876l0.04052,-0.38608c0.05331,-0.8328 0.78344,-1.41852 1.64872,-1.46979c0.86461,0.02403 1.55276,0.68517 1.55276,1.52113c0,0.08484 -0.01706,0.30812 -0.05638,0.66137c-1.03535,9.41701 -1.78174,41.8406 32.08899,63.69013c0.73506,0.47713 0.93365,1.43386 0.44104,2.14599c-0.30829,0.44396 -0.81476,0.68528 -1.3327,0.68528z" fill="#8A0000"/>
     </g>
     <g stroke="null" id="svg_143">
      <path stroke="null" id="svg_144" d="m879.75479,271.46795c-0.34281,0 -0.68814,-0.10526 -0.9807,-0.32606c-29.29083,-21.9522 -28.08821,-44.82266 -28.02263,-45.78571c0.05958,-0.8482 0.81663,-1.53326 1.70043,-1.43679c0.88007,0.05156 1.54969,0.78829 1.49624,1.63604c-0.01386,0.22068 -1.068,22.26686 26.79043,43.14759c0.69894,0.52259 0.82569,1.49411 0.28323,2.16743c-0.31588,0.39228 -0.78824,0.59751 -1.26699,0.59751z" fill="#8A0000"/>
     </g>
     <g stroke="null" id="svg_145">
      <path stroke="null" id="svg_146" d="m1221.5454,314.44935c-0.64709,0 -1.25713,-0.37987 -1.49851,-1.00209c-0.31228,-0.79653 0.10689,-1.69008 0.93592,-1.98883c0.1842,-0.06645 18.60121,-6.80319 29.93352,-15.23396c0.70374,-0.51887 1.70443,-0.3924 2.24956,0.28081c0.53753,0.67614 0.40891,1.64822 -0.29162,2.1707c-11.7199,8.7135 -29.99337,15.39349 -30.76561,15.67386c-0.18473,0.0695 -0.37533,0.09951 -0.56326,0.09951z" fill="#8A0000"/>
     </g>
     <g stroke="null" id="svg_147">
      <path stroke="null" id="svg_148" d="m1222.52783,327.60388c-0.66655,0 -1.28525,-0.40165 -1.51397,-1.04135c-0.28749,-0.80916 0.15674,-1.6876 0.99176,-1.96514c0.34414,-0.11485 34.48196,-11.54839 46.29583,-23.47124c0.61297,-0.61251 1.62926,-0.63643 2.26449,-0.04817c0.6379,0.58882 0.66002,1.5671 0.04998,2.18537c-12.349,12.46316 -46.13642,23.78162 -47.56562,24.25603c-0.17527,0.0572 -0.35027,0.0845 -0.52247,0.0845z" fill="#8A0000"/>
     </g>
    </g>
    <g stroke="null" id="svg_149" display="inline">
     <path stroke="null" id="svg_150" d="m1035.62822,349.09622c0,10.0034 -8.40314,18.11195 -18.76861,18.11195c-10.36601,0 -18.76928,-8.10855 -18.76928,-18.11195c0,-10.00273 8.40327,-18.1115 18.76928,-18.1115c10.36547,0 18.76861,8.10877 18.76861,18.1115z" fill="#FECE00"/>
     <path stroke="null" id="svg_151" d="m1022.04887,361.03159c-10.36587,0 -18.76861,-8.10889 -18.76861,-18.1115c0,-2.88972 0.71893,-5.611 1.96594,-8.03442c-4.35251,3.31653 -7.15587,8.44295 -7.15587,14.21055c0,10.00272 8.40327,18.11195 18.76928,18.11195c7.37099,0 13.73182,-4.11057 16.80161,-10.07674c-3.19588,2.43539 -7.22371,3.90016 -11.61234,3.90016z" fill="#FCC000"/>
     <path stroke="null" id="svg_152" d="m1028.97616,354.57262c-4.3993,3.92442 -11.92223,2.97592 -16.80254,-2.11892c-4.88005,-5.09461 -5.27004,-12.40596 -0.87008,-16.33082c4.39943,-3.92453 11.92249,-2.97569 16.80268,2.11914c4.88005,5.09461 5.2703,12.40641 0.86994,16.3306z" fill="#FFDA3E"/>
    </g>
    <g stroke="null" id="svg_153" display="inline">
     <ellipse stroke="null" id="svg_154" ry="18.11172" rx="18.76881" cy="327.23608" cx="962.63466" fill="#FECE00"/>
     <path stroke="null" id="svg_155" d="m967.82413,339.17156c-10.36534,0 -18.76901,-8.10923 -18.76901,-18.11184c0,-2.88961 0.71933,-5.61111 1.9666,-8.03431c-4.35278,3.31653 -7.15587,8.44307 -7.15587,14.21033c0,10.00329 8.40327,18.11206 18.76901,18.11206c7.37099,0 13.73209,-4.11069 16.80214,-10.07719c-3.19641,2.43572 -7.22411,3.90095 -11.61288,3.90095z" fill="#FCC000"/>
     <path stroke="null" id="svg_156" d="m974.75195,332.71237c-4.39983,3.92453 -11.92276,2.9758 -16.80281,-2.11858c-4.88032,-5.09495 -5.26991,-12.40663 -0.87074,-16.33094c4.40023,-3.92498 11.92303,-2.97614 16.80348,2.11858c4.88005,5.09484 5.26964,12.40663 0.87008,16.33094z" fill="#FFDA3E"/>
    </g>
    <g stroke="null" id="svg_157" display="inline">
     <path stroke="null" id="svg_158" d="m932.28896,294.91279c0,10.00318 -8.40327,18.11263 -18.76888,18.11263c-10.36547,0 -18.76861,-8.10945 -18.76861,-18.11263c0,-10.00261 8.40314,-18.11184 18.76861,-18.11184c10.36561,0 18.76888,8.10922 18.76888,18.11184z" fill="#FECE00"/>
     <path stroke="null" id="svg_159" d="m918.70988,306.8485c-10.36574,0 -18.76928,-8.109 -18.76928,-18.11184c0,-2.88938 0.71933,-5.61111 1.96673,-8.03488c-4.35291,3.31664 -7.15587,8.44374 -7.15587,14.211c0,10.00318 8.40314,18.11263 18.76861,18.11263c7.37152,0 13.73195,-4.11159 16.80214,-10.07741c-3.19654,2.43516 -7.22384,3.9005 -11.61234,3.9005z" fill="#FCC000"/>
     <path stroke="null" id="svg_160" d="m925.63717,300.38964c-4.39983,3.92419 -11.92249,2.97558 -16.80281,-2.11926c-4.88045,-5.09461 -5.27004,-12.40629 -0.87008,-16.33105c4.39956,-3.9243 11.92249,-2.97569 16.80268,2.11926c4.88018,5.09506 5.27004,12.40652 0.87021,16.33105z" fill="#FFDA3E"/>
    </g>
    <g stroke="null" id="svg_161" display="inline">
     <path stroke="null" id="svg_162" d="m1096.09757,351.0468c0,10.0025 -8.40367,18.11195 -18.76941,18.11195s-18.76901,-8.10945 -18.76901,-18.11195c0,-10.00318 8.40327,-18.1115 18.76901,-18.1115s18.76941,8.10832 18.76941,18.1115z" fill="#FECE00"/>
     <path stroke="null" id="svg_163" d="m1082.51769,362.98206c-10.36601,0 -18.76861,-8.10877 -18.76861,-18.11172c0,-2.88972 0.71893,-5.61055 1.96594,-8.03454c-4.35251,3.31675 -7.15587,8.44329 -7.15587,14.211c0,10.0025 8.40327,18.11195 18.76901,18.11195c7.37126,0 13.73209,-4.11114 16.80214,-10.07719c-3.19614,2.43572 -7.22398,3.9005 -11.61261,3.9005z" fill="#FCC000"/>
     <path stroke="null" id="svg_164" d="m1089.44538,356.52287c-4.39956,3.92453 -11.92276,2.97592 -16.80294,-2.11858c-4.88005,-5.09517 -5.2699,-12.40663 -0.86994,-16.33105c4.3993,-3.92464 11.92249,-2.97569 16.80268,2.11892c4.88032,5.09484 5.26991,12.40652 0.87021,16.33071z" fill="#FFDA3E"/>
    </g>
    <g stroke="null" id="svg_165" display="inline">
     <ellipse stroke="null" id="svg_166" ry="18.11195" rx="18.76915" cy="345.3478" cx="1133.87444" fill="#FECE00"/>
     <path stroke="null" id="svg_167" d="m1139.06344,357.28284c-10.36534,0 -18.76835,-8.10855 -18.76835,-18.11184c0,-2.88938 0.7188,-5.61088 1.96607,-8.03442c-4.35291,3.31687 -7.15587,8.44352 -7.15587,14.21123c0,10.00272 8.40327,18.11195 18.76888,18.11195c7.37099,0 13.73182,-4.1108 16.80228,-10.07719c-3.19681,2.43527 -7.22398,3.90027 -11.61301,3.90027z" fill="#FCC000"/>
     <path stroke="null" id="svg_168" d="m1145.99113,350.82443c-4.3997,3.92419 -11.92249,2.97569 -16.80268,-2.11948c-4.88032,-5.0945 -5.2699,-12.40629 -0.87061,-16.33082c4.39996,-3.92419 11.92289,-2.97558 16.80294,2.11926c4.88018,5.09484 5.27004,12.40629 0.87034,16.33105z" fill="#FFDA3E"/>
    </g>
    <g stroke="null" id="svg_169" display="inline">
     <ellipse stroke="null" id="svg_170" ry="18.11184" rx="18.76895" cy="325.9525" cx="1190.37687" fill="#FECE00"/>
     <path stroke="null" id="svg_171" d="m1195.56694,337.88787c-10.36587,0 -18.76915,-8.10877 -18.76915,-18.11161c0,-2.88972 0.71906,-5.61134 1.96633,-8.0351c-4.35291,3.31721 -7.15613,8.44386 -7.15613,14.21134c0,10.00318 8.40354,18.11184 18.76928,18.11184c7.37126,0 13.73195,-4.1108 16.80188,-10.07685c-3.19641,2.43505 -7.22358,3.90038 -11.61221,3.90038z" fill="#FCC000"/>
     <path stroke="null" id="svg_172" d="m1202.49422,331.42879c-4.39996,3.92453 -11.92289,2.97637 -16.80294,-2.11892c-4.88045,-5.09461 -5.26977,-12.40629 -0.86968,-16.33071c4.39929,-3.92453 11.92209,-2.97614 16.80214,2.11926c4.88098,5.0945 5.27044,12.40629 0.87048,16.33037z" fill="#FFDA3E"/>
    </g>
    <g stroke="null" id="svg_173" display="inline">
     <path stroke="null" id="svg_174" d="m1234.05621,51.8967c0,0 10.55954,-0.94613 20.5902,10.91738c10.0316,11.86334 25.19062,-1.58707 9.57923,-13.82853c-17.49309,-13.7156 -30.16943,2.91116 -30.16943,2.91116z" fill="#6EB8E5"/>
     <path stroke="null" id="svg_175" d="m1270.82958,58.95492c-2.17839,3.6766 -7.53746,4.93784 -16.1072,-1.9635c-5.76252,-4.63965 -12.76285,-6.76286 -18.11472,-7.74391c-1.64659,1.46889 -2.55145,2.64918 -2.55145,2.64918s10.55954,-0.94613 20.5898,10.91738c7.22211,8.54038 17.04152,3.9432 16.18357,-3.85915z" fill="#56ABD6"/>
     <path stroke="null" id="svg_176" d="m1241.12078,48.57565c0,0 7.88173,1.08259 15.59659,7.16485c7.71513,6.08186 11.21183,2.74943 8.37022,-1.76601c-2.84148,-4.51555 -13.54322,-12.09129 -23.96681,-5.39884z" fill="#7ECBF2"/>
    </g>
    <g stroke="null" id="svg_177" display="inline">
     <path stroke="null" id="svg_178" d="m972.30446,22.74293c0,0 -6.02669,-6.62031 -22.71954,-6.55978c-16.69218,0.06081 -14.87953,-15.06986 -1.91969,-17.54045c12.95931,-2.47002 27.73234,10.01412 24.63923,24.10023z" fill="#6EB8E5"/>
     <path stroke="null" id="svg_179" d="m952.39148,13.11833c-11.13625,0.04017 -14.00185,-6.67221 -10.84983,-11.88432c-6.85132,5.08344 -5.47783,14.99828 8.04327,14.94914c16.69285,-0.06053 22.71954,6.55978 22.71954,6.55978c0.36813,-1.67756 0.46689,-3.32979 0.36227,-4.93892c-3.11524,-1.95296 -9.43595,-4.725 -20.27525,-4.68569z" fill="#56ABD6"/>
     <path stroke="null" id="svg_180" d="m968.89307,12.94142c0,0 -7.84561,-3.05816 -17.74246,-3.31788c-9.89658,-0.26039 -9.24909,-8.90761 0.93525,-9.08147c10.18487,-0.17352 16.80721,12.39935 16.80721,12.39935z" fill="#7ECBF2"/>
    </g>
    <g stroke="null" id="svg_181" display="inline">
     <path stroke="null" id="svg_182" d="m942.54648,56.74005c0,0 -7.84841,-4.50359 -23.70771,0.52344c-15.85916,5.02635 -18.9712,-9.90592 -7.43363,-16.11341c11.5381,-6.20749 29.58125,1.26993 31.14134,15.58997z" fill="#6EB8E5"/>
     <path stroke="null" id="svg_183" d="m920.52867,53.51226c-10.58086,3.35342 -15.45171,-2.17854 -14.11994,-8.0747c-4.89258,6.87489 -0.41638,15.89713 12.43004,11.82594c15.85929,-5.02703 23.70771,-0.52344 23.70771,-0.52344c-0.1858,-1.70525 -0.6195,-3.30598 -1.23394,-4.80584c-3.58693,-0.9305 -10.48543,-1.68608 -20.78386,1.57805z" fill="#56ABD6"/>
     <path stroke="null" id="svg_184" d="m936.16832,48.43237c0,0 -8.44019,-0.57336 -17.93732,2.12529c-9.4974,2.69832 -11.64566,-5.71982 -2.01312,-8.91681s19.95044,6.79152 19.95044,6.79152z" fill="#7ECBF2"/>
    </g>
   </g>
   <g stroke="null" id="svg_185">
    <path stroke="null" id="svg_186" d="m259.72737,93.01681c0,0 19.11862,-31.56857 5.7308,-49.9052c-13.38755,-18.33647 -68.44952,-16.46125 -80.32563,7.91805c0,0 -16.41122,-26.04608 -45.0211,-16.66968c-28.61068,9.37679 -28.39456,48.34182 -14.57517,64.59451c0,0 -23.53644,-5.87072 -39.73087,14.04684c-16.19464,19.91722 5.67096,38.87906 5.67096,38.87906s-15.20501,5.7707 -17.76312,20.00336c-2.55791,14.23249 17.76312,38.25538 17.76312,38.25538l169.23133,-85.34668l-0.9803,-31.77565z" fill="#CD2606"/>
    <path stroke="null" id="svg_187" d="m185.13254,51.02966c0,0 -16.41122,-26.04608 -45.0215,-16.66968c-28.61028,9.37679 -28.39416,48.34182 -14.57477,64.59451c0,0 -23.53644,-5.87072 -39.73087,14.04684c-16.19464,19.91722 5.67096,38.87906 5.67096,38.87906s-15.20501,5.7707 -17.76305,20.00336c-2.55798,14.23249 17.76305,38.25538 17.76305,38.25538l5.49515,-2.77137c-1.09206,-1.78265 -2.49587,-3.71237 -4.25648,-5.80218c-22.74473,-26.99474 0.71987,-45.24033 3.74294,-47.74065c3.02287,-2.50015 -16.60775,-25.55908 -1.43946,-38.062c15.16789,-12.50321 33.3967,-9.58517 35.98793,-11.94643c2.59104,-2.3616 -17.85009,-49.31435 12.0921,-56.39864c29.94212,-7.08497 39.01094,14.72457 42.6096,12.77985c3.59893,-1.94472 16.26688,-19.86482 51.4919,-17.22494c16.53318,1.23879 26.75231,9.88296 32.94227,18.70861c0.38972,-6.57456 -0.72706,-13.15041 -4.68412,-18.56978c-13.38755,-18.33647 -68.44918,-16.46125 -80.32563,7.91805z" fill="#B51702"/>
    <g stroke="null" id="svg_188">
     <path stroke="null" id="svg_189" d="m47.85365,257.58323c0,0 3.75507,-31.16765 -10.08398,-34.80414c-13.83951,-3.63638 -32.96446,15.28947 10.08398,34.80414z" fill="#CD2606"/>
     <path stroke="null" id="svg_190" d="m48.11122,254.64488c-2.75224,-4.55475 -17.39126,-12.68034 -21.58896,-19.13559c-1.91775,-2.94873 -2.57171,-6.14668 -2.72252,-8.75829c-5.53654,6.28951 -3.28898,18.43733 24.05391,30.83223c0,0 0.13348,-1.1122 0.25757,-2.93835z" fill="#BC1A04"/>
     <path stroke="null" id="svg_191" d="m47.85365,257.58323c0,0 23.50425,-21.67793 12.41211,-33.06058c-11.0922,-11.38266 -31.90745,2.95335 -12.41211,33.06058z" fill="#CD2606"/>
     <path stroke="null" id="svg_192" d="m52.69045,246.90752c0,0 12.38346,-14.0121 6.47352,-20.28886c-5.90993,-6.27654 -16.89124,3.23327 -6.47352,20.28886z" fill="#E22C14"/>
     <path stroke="null" id="svg_193" d="m50.18612,220.74174c-9.28861,1.26282 -16.58649,14.82825 -2.33247,36.84149c0,0 1.86771,-1.73995 4.28134,-4.44205c-9.79155,-16.23831 -7.64216,-27.59344 -1.94887,-32.39945z" fill="#BC1A04"/>
     <path stroke="null" id="svg_194" d="m47.85365,257.58323c0,0 -17.25457,-19.38267 -27.1295,-16.6016c-9.87512,2.7813 -10.63144,30.77142 27.1295,16.6016z" fill="#CD2606"/>
     <path stroke="null" id="svg_195" d="m19.80743,241.32484c-8.96653,4.18459 -8.50857,29.97579 28.04622,16.25839c0,0 -0.56972,-0.63677 -1.53123,-1.63739c-26.45242,8.05654 -30.8062,-7.10454 -26.515,-14.621z" fill="#BC1A04"/>
     <path stroke="null" id="svg_196" d="m40.43461,253.627c0,0 -10.05106,-11.3012 -16.68712,-10.39749c-6.6358,0.90393 -1.92682,18.1678 16.68712,10.39749z" fill="#E22C14"/>
     <path stroke="null" id="svg_197" d="m39.1237,242.2968c0,0 -1.5225,-8.41949 -0.91966,-13.40274c0.60311,-4.98314 -8.23214,-3.51803 -10.84696,-1.65826c-2.61469,1.85931 2.32793,10.65236 7.01339,13.84094c4.68539,3.1887 5.0188,2.85745 4.75323,1.22006z" fill="#E22C14"/>
    </g>
    <path stroke="null" id="svg_198" d="m346.67206,219.56207c0,0 9.72265,-0.35404 27.09111,-8.49824c17.36873,-8.1442 16.39043,39.77702 -15.16689,55.23899c0,0 -16.63234,-24.1968 -11.92423,-46.74076z" fill="#FECE00"/>
    <path stroke="null" id="svg_199" d="m382.09248,239.20739c-15.10171,-4.3123 -19.92805,-14.99726 -21.36964,-22.87283c-9.11661,3.04722 -14.05077,3.22751 -14.05077,3.22751c-4.70811,22.54395 11.92423,46.74076 11.92423,46.74076c12.09376,-5.92543 19.69613,-16.61829 23.49618,-27.09544z" fill="#FCC000"/>
    <path stroke="null" id="svg_200" d="m45.80395,255.08353c0,0 27.25725,-7.66346 40.22816,-58.3807c12.97077,-50.71707 59.96621,-101.14639 92.11111,-108.76517c32.14496,-7.6189 62.4101,26.12144 62.4101,26.12144s13.53443,-9.43246 19.17406,-21.04229c0,0 56.77033,10.91546 87.97525,103.68602c31.20531,92.77068 20.86623,141.38598 -99.63011,167.32668c-120.4964,25.94014 -210.16369,-52.09114 -202.26856,-108.94597z" fill="#FECE00"/>
    <path stroke="null" id="svg_201" d="m121.4939,220.37416c0,0 30.37323,-80.70386 63.46617,-100.82687c33.09301,-20.12307 45.84973,12.39462 52.23995,14.2902c6.39042,1.89598 28.7417,-19.24796 38.87246,-17.78956c10.13076,1.45778 49.68923,33.18751 65.72313,101.24178c16.03376,68.05393 -6.93488,101.88385 -51.36128,111.65382c-44.42613,9.76986 -110.31,3.20788 -121.18961,-5.83258c-10.87988,-9.04114 19.67967,-41.99398 21.70159,-60.87809c2.02258,-18.88501 -23.06161,-28.50831 -27.44385,-39.22656c-4.38217,-10.71802 -18.58641,-10.71802 -25.08406,-8.09332c-6.49765,2.62481 -23.85532,22.24306 -16.9245,5.46117z" fill="#FFDA3E"/>
    <path stroke="null" id="svg_202" d="m184.48085,342.6861c-87.23359,-12.46203 -124.65712,-69.93818 -111.7434,-83.92557c12.91379,-13.98795 29.40479,-32.33412 47.96534,-79.02134c14.71059,-37.00311 57.7535,-75.30249 84.16273,-89.85337c-8.29305,-2.8966 -17.42911,-4.15125 -26.72232,-1.94867c-32.1449,7.61929 -79.14034,58.04861 -92.11111,108.76568c-12.9709,50.71724 -40.22816,58.3807 -40.22816,58.3807c-7.89513,56.85439 81.77216,134.88611 202.26856,108.94597c40.98994,-8.82452 69.23222,-20.27273 87.42825,-35.19022c-26.56864,8.27406 -86.32986,23.08798 -151.01991,13.84681z" fill="#FCC000"/>
    <path stroke="null" id="svg_203" d="m107.3595,248.27651c0,0 10.96712,6.49609 21.84213,2.92007c10.87482,-3.57557 12.96937,-14.84755 15.62785,-13.68119c2.65834,1.16591 0.16121,9.79491 2.89985,11.34903c2.73911,1.55481 21.50852,-1.70994 25.13364,6.21911c0,0 -2.57784,-15.39169 -18.04475,-15.23599c0,0 -6.53803,-16.70991 -12.24437,-14.76981c-5.70628,1.93964 -5.98431,21.28892 -35.21436,23.19878z" fill="#FCC000"/>
    <path stroke="null" id="svg_204" d="m152.04699,201.56559l0,-10.85431c0,0 -13.19462,-11.42745 -37.52889,-10.95827l0,12.31536c0,0 21.95496,1.46105 37.52889,9.49722z" fill="#231F20"/>
    <path stroke="null" id="svg_205" d="m276.07248,208.15256l0,-10.8538c0,0 13.19455,-11.42795 37.52883,-10.9585l0,12.31547c0,0 -21.95476,1.46111 -37.52883,9.49683z" fill="#231F20"/>
    <ellipse stroke="null" id="svg_206" ry="9.1367" rx="10.6661" cy="217.28971" cx="331.12952" fill="#FF9999"/>
    <ellipse stroke="null" id="svg_207" ry="9.1367" rx="10.666" cy="217.28971" cx="102.14234" fill="#FF9999"/>
    <path stroke="null" id="svg_208" d="m107.3595,248.27651c0,0 16.70405,1.05083 24.20879,-5.13951c7.50454,-6.19091 7.38345,-13.78307 11.3779,-15.41854c3.99425,-1.63502 8.63898,7.59272 9.10081,14.951c0,0 14.98669,-4.32178 18.255,13.31621c3.26792,17.63753 -31.47135,46.48815 -31.47135,46.48815s27.11377,-11.32963 35.58668,-36.443c8.47298,-25.11349 -14.57251,-29.54447 -18.64059,-27.79945c0,0 -4.07488,-17.87141 -13.9602,-16.11928s1.97693,17.63731 -34.45704,26.16443z" fill="#F99300"/>
    <g stroke="null" id="svg_209">
     <ellipse stroke="null" id="svg_210" ry="12.42028" rx="16.55464" cy="221.8879" cx="215.00275" fill="#660000"/>
     <path stroke="null" id="svg_211" d="m220.64518,229.18605c-9.14246,0 -16.55424,-5.56034 -16.55424,-12.41995c0,-1.80268 0.51281,-3.51566 1.4332,-5.06144c-4.27807,2.24539 -7.07603,5.9691 -7.07603,10.18324c0,6.85972 7.41164,12.42028 16.55477,12.42028c6.74002,0 12.53887,-3.02251 15.12137,-7.35896c-2.685,1.4096 -5.95292,2.23682 -9.47907,2.23682z" fill="#540000"/>
     <path stroke="null" id="svg_212" d="m198.63865,216.68938c0,0 7.38245,17.31689 18.4562,15.95806c11.07368,-1.35917 12.94971,-19.02841 12.94971,-19.02841l5.79784,3.93683c0,0 1.70217,27.09002 -18.04215,29.52699c-19.74445,2.43719 -25.57248,-29.15196 -25.57248,-29.15196l6.41088,-1.2415z" fill="#FF8B00"/>
     <g stroke="null" id="svg_213">
      <g stroke="null" id="svg_214">
       <g stroke="null" id="svg_215">
        <path stroke="null" id="svg_216" d="m219.84022,243.15865c-15.72395,1.94088 -22.62218,-17.69778 -24.77937,-25.77654l-2.83308,0.54877c0,0 5.82803,31.58915 25.57221,29.15196c8.26652,-1.0207 12.77311,-6.36195 15.21967,-12.2277c-2.68294,4.17308 -6.8178,7.51804 -13.17943,8.30351z" fill="#FF7300"/>
       </g>
       <path stroke="null" id="svg_217" d="m200.9873,224.95408c0,0 5.35387,11.41041 15.97552,10.11182c10.62158,-1.29859 12.65442,-12.48764 15.23113,-11.65907c2.57671,0.82891 -0.42951,15.94125 -12.8836,16.96376c-12.45396,1.02195 -18.75242,-12.18392 -19.63995,-15.69292c-0.88767,-3.50878 0.48362,-1.21374 1.31691,0.27642z" fill="#FFA039"/>
      </g>
     </g>
     <path stroke="null" id="svg_218" d="m237.20002,218.65012c0,4.37627 -10.35428,-0.95843 -23.12672,-0.95843c-12.77271,0 -23.12699,5.3347 -23.12699,0.95843c0,-4.37559 10.35428,-21.94729 23.12699,-21.94729c12.77244,0 23.12672,17.5717 23.12672,21.94729z" fill="#FF8B00"/>
     <path stroke="null" id="svg_219" d="m237.20002,218.65012c0,-0.4901 -0.13075,-1.14695 -0.37973,-1.92577c-14.4221,-7.13264 -36.1684,0.45197 -36.5178,-4.77826c-0.23218,-3.47944 2.95004,-8.99494 5.74713,-13.00284c-8.81745,4.87833 -15.10331,16.29771 -15.10331,19.70687c0,4.37604 10.35448,-0.95843 23.12699,-0.95843c12.77224,0 23.12672,5.33447 23.12672,0.95843z" fill="#FF7300"/>
     <path stroke="null" id="svg_220" d="m205.70082,207.87005c0,0 2.55525,-8.043 8.76107,-8.16045c6.20562,-0.1175 15.33169,8.42479 15.57487,10.33318c0.24331,1.90783 -5.50602,-0.11801 -13.14131,0.52824c-7.63556,0.6458 -12.22898,0.70458 -11.19463,-2.70097z" fill="#FFA039"/>
     <path stroke="null" id="svg_221" d="m210.50183,219.40254c0,0 10.98738,-0.44023 12.78064,1.19592c1.79313,1.63593 2.3308,5.44233 -3.97772,6.54393c-6.30872,1.10115 -14.67147,-7.56655 -8.80292,-7.73984z" fill="#770101"/>
    </g>
    <path stroke="null" id="svg_222" d="m102.14224,265.6251c0,0 22.60065,-8.05902 36.716,-10.54156c14.11554,-2.48277 22.87308,2.3889 22.66703,9.1499c-0.20592,6.76122 -22.87302,29.92683 -36.67934,36.38952c-13.80639,6.46247 -42.21288,-28.70316 -22.70368,-34.99786z" fill="#FFDA3E"/>
    <g stroke="null" id="svg_223">
     <path stroke="null" id="svg_224" d="m104.91587,324.87121c0,0 12.96064,-9.10511 24.12362,-0.42331c11.16291,8.68236 5.88241,35.72319 -5.64496,38.75157c-11.52737,3.02861 -36.16254,-25.28543 -18.47865,-38.32827z" fill="#FF8B00"/>
     <path stroke="null" id="svg_225" d="m114.81705,329.11457c0,0 5.85135,-4.41948 13.1489,2.29458c7.29735,6.71463 1.85258,25.18208 -4.4784,26.52309c-5.62571,1.19174 -21.8538,-20.67426 -8.67051,-28.81767z" fill="#FFA039"/>
     <path stroke="null" id="svg_226" d="m111.06685,326.34286c0,0 6.49545,-4.56164 14.25043,-4.14622c-10.13043,-4.54054 -20.4014,2.67412 -20.4014,2.67412c-17.04905,12.57462 5.23592,39.34175 17.18807,38.53473c-11.79034,-5.71649 -25.43,-26.44738 -11.03709,-37.06262z" fill="#FF7300"/>
    </g>
    <g stroke="null" id="svg_227">
     <path stroke="null" id="svg_228" d="m321.61059,307.06986c0,0 15.34042,-4.49101 22.92853,7.24783c7.58797,11.73872 -6.60461,35.60518 -18.52284,34.8117c-11.9185,-0.79416 -25.54862,-35.34603 -4.40569,-42.05953z" fill="#FF8B00"/>
     <path stroke="null" id="svg_229" d="m329.51778,314.21671c0,0 7.03085,-2.3194 11.63767,6.33532c4.60695,8.6545 -6.82226,24.37179 -13.2588,23.63156c-5.71867,-0.65764 -13.60294,-26.45461 1.62113,-29.96688z" fill="#FFA039"/>
     <path stroke="null" id="svg_230" d="m326.91848,310.4103c0,0 7.6882,-2.24968 14.87113,0.60055c-8.02221,-7.49919 -20.17902,-3.941 -20.17902,-3.941c-20.38361,6.47228 -8.44699,38.81814 3.11657,41.8446c-9.19031,-9.13693 -15.01614,-33.04073 2.19132,-38.50416z" fill="#FF7300"/>
    </g>
    <path stroke="null" id="svg_231" d="m367.03048,217.60257c0,0 6.95728,-4.36149 11.13119,-3.11965c4.17431,1.24229 4.06755,11.58258 1.3559,15.02016c-2.71126,3.4368 -18.12405,-7.07668 -12.48708,-11.90051z" fill="#FFDA3E"/>
    <path stroke="null" id="svg_232" d="m39.84064,183.83774c0,0 18.37109,-4.89159 18.37109,-17.72813c0,0 4.26628,17.72813 18.37109,17.72813c0,0 -18.37109,5.80703 -18.37109,17.72785c0,0 -3.39067,-17.72785 -18.37109,-17.72785z" fill="#F98E00"/>
    <path stroke="null" id="svg_233" d="m197.87486,60.70418c0,0 17.8305,-12.10229 39.1363,-10.79c21.30593,1.31224 24.177,18.51839 23.11913,25.5175c-1.05747,6.99917 -15.48823,24.64256 -17.377,25.95537c-1.88876,1.31229 -32.78986,-24.20543 -62.25542,-19.2479c-29.46563,4.95759 -72.90839,56.79544 -77.81949,66.78338c-4.91077,9.9884 -11.25734,-23.18439 -1.05767,-30.91262c10.1998,-7.72839 28.10574,-8.09264 33.24316,-12.68587c5.13769,-4.59328 -11.25741,-37.54753 7.40411,-49.72305c18.66165,-12.17557 36.64322,10.20688 40.49632,10.64451c3.85323,0.43707 11.57069,-3.4412 15.11057,-5.54133z" fill="#E22C14"/>
    <path stroke="null" id="svg_234" d="m95.4338,162.01394c-0.13868,0.37722 -7.12721,20.62749 -8.21841,21.82381c-1.09093,1.19603 -3.1273,-7.78729 0.36373,-15.36687c3.49097,-7.57958 10.13609,-12.65806 7.85468,-6.45694z" fill="#E22C14"/>
   </g>
  </g>
 </g>
</svg>