<svg width="400" height="400" xmlns="http://www.w3.org/2000/svg">

 <g>
  <title>background</title>
  <rect fill="none" id="canvas_background" height="402" width="402" y="-1" x="-1"/>
 </g>
 <g>
  <title>Layer 1</title>
  <g stroke="null" id="svg_1">
   <g stroke="null" id="svg_2">
    <g stroke="null" id="svg_3">
     <path stroke="null" id="svg_4" d="m264.98501,171.79891c0,0 14.47914,18.01447 38.28717,21.903c23.80724,3.88852 -1.87984,27.7756 -29.93346,25.71202c-28.05421,-2.06329 -8.35371,-47.61502 -8.35371,-47.61502z" fill="#FECE00"/>
     <path stroke="null" id="svg_5" d="m309.85348,206.66624c-5.96595,2.47035 -19.575,7.04797 -22.30529,-1.25231c-1.84468,-5.60799 -4.5848,-13.78788 -6.77477,-20.30299c-10.10254,-6.23916 -15.78841,-13.31203 -15.78841,-13.31203s-19.7005,45.55173 8.35371,47.61502c15.61282,1.14821 30.49205,-5.74087 36.51476,-12.74769z" fill="#FCC000"/>
     <path stroke="null" id="svg_6" d="m289.93692,193.06338c0,0 9.07217,3.07234 15.83398,4.27967c6.762,1.20704 2.16562,8.88824 -4.66827,9.4918c-6.83448,0.60327 -9.91438,-1.48162 -10.73262,-3.01764c-0.81824,-1.53622 -5.43014,-12.32669 -0.43308,-10.75384z" fill="#FFDA3E"/>
    </g>
    <g stroke="null" id="svg_7">
     <path stroke="null" id="svg_8" d="m187.98624,326.24117c0,0 9.70324,20.00759 14.85036,21.73904c5.14712,1.73096 10.29404,-26.54843 10.29404,-26.54843l-25.1444,4.80939z" fill="#FF8B00"/>
     <path stroke="null" id="svg_9" d="m202.83659,347.98022c1.60388,0.53934 3.20816,-1.83643 4.65649,-5.36287c-8.7536,-0.69176 -13.85692,-11.84764 -15.78212,-17.08874l-3.72472,0.71258c0,0 9.70324,20.0073 14.85036,21.73904z" fill="#FF7300"/>
     <path stroke="null" id="svg_10" d="m200.17544,333.10688c0,0 6.43105,-2.56855 7.70005,-2.19439c1.26881,0.37367 -0.2624,7.93025 -2.10021,8.62888c-1.83741,0.69804 -8.36687,-5.40579 -5.59984,-6.43449z" fill="#FFA039"/>
    </g>
    <g stroke="null" id="svg_11">
     <path stroke="null" id="svg_12" d="m159.66805,329.82094c0,0 8.06105,20.93396 13.0481,23.19355c4.98685,2.25979 12.37657,-25.36644 12.37657,-25.36644l-25.42467,2.17288z" fill="#FF8B00"/>
     <path stroke="null" id="svg_13" d="m172.71615,353.0145c1.55419,0.70433 3.34191,-1.49468 5.06659,-4.85555c-8.66187,-1.60035 -12.85051,-13.24009 -14.34853,-18.65973l-3.76616,0.32172c0,0 8.06105,20.93366 13.0481,23.19355z" fill="#FF7300"/>
     <path stroke="null" id="svg_14" d="m171.25663,337.92658c0,0 6.61037,-1.88878 7.84383,-1.3844c1.23365,0.50517 -0.89641,7.86995 -2.78195,8.37453c-1.88632,0.50428 -7.89902,-6.25359 -5.06188,-6.99013z" fill="#FFA039"/>
    </g>
    <path stroke="null" id="svg_15" d="m182.47851,90.50839c0,0 2.67098,-24.31034 -11.37606,-27.28055s-21.9767,10.84782 -21.9767,10.84782s-10.4221,-34.48104 -37.15702,-25.82844c-26.73473,8.65259 -27.52763,36.03051 -24.24248,47.7826c0,0 -45.98702,5.06453 -23.34391,52.43138c0,0 -17.55099,1.55012 -20.15657,19.37127c-2.60518,17.82174 22.65667,32.87234 22.65667,32.87234l76.89978,-40.10405c0,0 17.56906,-21.82512 21.48194,-23.50408c3.91249,-1.67862 13.79799,-20.01697 13.66954,-21.69549c-0.12806,-1.67911 3.54481,-24.8928 3.54481,-24.8928z" fill="#CD2606"/>
    <path stroke="null" id="svg_16" d="m61.03866,196.62007l0.85753,-0.74233c0,0 -14.15742,-12.30361 -14.52687,-26.1041c-0.36906,-13.8003 17.01303,-21.31244 17.01263,-21.31244c0,0 -17.5506,1.54967 -20.15617,19.37127c-1.78595,12.2165 9.52235,23.13061 16.81288,28.7876z" fill="#BC1A04"/>
    <path stroke="null" id="svg_17" d="m64.38195,153.4939c0,0 -10.99306,4.6637 -13.48354,13.56667c-2.49107,8.90292 5.45764,17.9171 6.31969,17.12194c0.86185,-0.79585 11.57208,-32.5599 7.16385,-30.68861z" fill="#E22C14"/>
    <path stroke="null" id="svg_18" d="m171.10245,63.22784c-14.04743,-2.9705 -21.9767,10.84752 -21.9767,10.84752s-10.4221,-34.48074 -37.15702,-25.82815c-26.73473,8.6523 -27.52763,36.03051 -24.24248,47.7826c0,0 -45.98702,5.06409 -23.3443,52.43138c0,0 -6.10972,-20.15799 2.31764,-33.46781c8.42756,-13.30972 27.19767,-7.77832 26.91326,-19.01381c-0.2842,-11.23504 1.10264,-36.30347 19.74666,-41.69993c18.64342,-5.39666 33.13219,26.4679 34.1492,25.49548c1.01662,-0.97213 11.0182,-13.17989 20.58985,-12.74779c9.57086,0.4321 14.37996,23.48105 14.37996,23.48105s2.67098,-24.31034 -11.37606,-27.28055z" fill="#BC1A04"/>
    <path stroke="null" id="svg_19" d="m150.07638,83.53274c0,0 10.76562,-10.8571 18.0813,-9.59806c7.31529,1.2584 9.93795,13.53166 8.14355,17.93767c-1.7946,4.40533 -10.28304,11.87946 -12.28446,12.58757c-2.00142,0.70801 -22.68927,-14.80616 -45.13362,-6.80212c-35.10179,12.5173 -44.5823,37.3277 -47.89475,44.72268c-3.31265,7.39552 -5.93492,-20.76976 3.72668,-28.47983c9.6614,-7.71002 22.84306,-10.14884 26.36253,-15.41985c3.51967,-5.2712 -0.62125,-30.28955 14.07846,-36.34747c14.69951,-6.05767 28.74184,26.58521 34.92031,21.3994z" fill="#E22C14"/>
    <g stroke="null" id="svg_20">
     <path stroke="null" id="svg_21" d="m36.56107,256.83757c0,0 0.8756,-7.76241 -2.0409,-18.73564c-2.91669,-10.97283 -12.15758,-18.9184 -16.86474,-12.87752c-8.43247,10.82209 9.86253,30.76084 18.90563,31.61316z" fill="#CD2606"/>
     <path stroke="null" id="svg_22" d="m27.46671,245.72676c-1.99336,-0.886 -6.21028,-3.06989 -9.2566,-4.67043c4.36501,8.05163 12.98623,15.27549 18.35097,15.78124c0,0 0.8756,-7.76281 -2.0409,-18.73564c-0.46608,-1.75306 -1.0942,-3.42853 -1.83918,-4.98253c-3.37609,5.38487 -1.90007,14.08102 -5.21429,12.60736z" fill="#BC1A04"/>
     <path stroke="null" id="svg_23" d="m36.56107,256.83757c0,0 -19.58619,-21.13557 -24.93875,-10.13721c-5.35276,10.99886 9.15663,24.31437 24.93875,10.13721z" fill="#CD2606"/>
     <path stroke="null" id="svg_24" d="m10.491,251.44151c-0.07424,9.48503 12.52918,17.56003 26.07008,5.39607c0,0 -0.81923,-0.88375 -2.16797,-2.19576c-11.19458,8.82155 -21.41791,4.1358 -23.9021,-3.2003z" fill="#BC1A04"/>
     <path stroke="null" id="svg_25" d="m29.88471,254.01428c0,0 -10.60594,-12.59164 -15.7945,-6.73313c-2.80041,3.16161 5.20742,12.63849 15.7945,6.73313z" fill="#E22C14"/>
     <path stroke="null" id="svg_26" d="m36.56107,256.83757c0,0 -5.19642,-6.06975 -5.27636,-15.31988c-0.07896,-9.24983 13.2451,-14.82718 15.5922,-7.16385c2.34671,7.66283 -6.07417,19.30356 -10.31584,22.48373z" fill="#CD2606"/>
     <path stroke="null" id="svg_27" d="m45.64562,232.19746c0.8754,7.31745 -4.15073,17.33897 -8.2885,18.62202c-1.84252,0.57136 -3.42244,-0.13719 -4.67554,-1.24033c1.56342,4.5516 3.87949,7.25843 3.87949,7.25843c4.24167,-3.18017 12.66255,-14.8209 10.31525,-22.48373c-0.2734,-0.89386 -0.69686,-1.60742 -1.2307,-2.15638z" fill="#BC1A04"/>
     <path stroke="null" id="svg_28" d="m35.45607,247.9842c0,0 -3.12842,-3.98457 -2.34612,-8.13628c0.78152,-4.15161 6.96568,-7.80199 9.33654,-6.18603c2.37086,1.61616 -3.73925,17.10858 -6.99042,14.32231z" fill="#E22C14"/>
     <path stroke="null" id="svg_29" d="m26.32537,241.71136c0,0 -5.76502,-0.48592 -8.13333,-8.37688c-1.46266,-4.87489 3.11506,-8.17949 5.34431,-7.23319c2.22906,0.94611 5.34706,5.79468 5.67585,7.72225c0.32879,1.92806 -0.49299,7.96226 -2.88683,7.88782z" fill="#E22C14"/>
    </g>
    <path stroke="null" id="svg_30" d="m163.7086,111.90582c0,0 -30.86601,-24.26335 -64.20109,0c-33.33567,24.26345 -43.39107,85.97313 -45.06684,117.30532c-1.67597,31.33229 -19.77553,25.60066 -19.77553,25.60066s29.83093,77.37539 117.98245,81.00544c88.15151,3.63015 135.57901,-60.83875 131.38939,-117.34736c-4.18962,-56.50845 -56.142,-120.70165 -101.55845,-127.9615c0,0 -5.53071,11.08071 -18.76991,21.39744z" fill="#FECE00"/>
    <path stroke="null" id="svg_31" d="m86.18934,201.75648c0,0 5.40304,-50.71102 28.7497,-65.58362c23.34666,-14.87255 43.71122,-3.62754 53.41623,-5.44124c9.70501,-1.81389 23.38771,-20.85804 32.45674,-19.5883c9.06864,1.26979 64.43482,38.22957 70.63941,102.09284c6.20479,63.86317 -45.1843,83.45133 -86.5496,88.34822c-41.36589,4.89699 -88.45909,-12.69613 -92.91367,-21.76477c-4.45517,-9.06825 21.31931,-11.78892 19.728,-25.75484c-1.59092,-13.96573 -28.88384,-33.68351 -25.52681,-52.30828z" fill="#FFDA3E"/>
    <path stroke="null" id="svg_32" d="m139.00161,212.46151c0,5.91204 -5.38674,10.70503 -12.03109,10.70503c-6.64494,0 -12.03148,-4.79299 -12.03148,-10.70503c0,-5.91223 5.38654,-10.70503 12.03148,-10.70503c6.64435,0 12.03109,4.79279 12.03109,10.70503z" fill="#FF9999"/>
    <path stroke="null" id="svg_33" d="m281.36815,175.98907c0.34922,5.89878 -4.74251,11.09402 -11.37213,11.6038c-6.63001,0.50998 -12.2874,-3.85808 -12.63642,-9.75676c-0.34922,-5.89932 4.74251,-11.09441 11.37233,-11.60454c6.62923,-0.51003 12.28701,3.85872 12.63623,9.7575z" fill="#FF9999"/>
    <g stroke="null" id="svg_34">
     <path stroke="null" id="svg_35" d="m146.33084,198.66086c-1.13584,0 -2.13615,-0.93805 -2.32549,-2.25695c-0.08269,-0.59394 -1.96312,-14.56596 6.84763,-17.66589c7.1721,-2.50644 12.34574,6.9045 14.26604,12.87369c0.44939,1.3949 -0.17795,2.93731 -1.39942,3.44974c-1.22128,0.51243 -2.57867,-0.19975 -3.0308,-1.5922c-0.03653,-0.11323 -3.8736,-11.21078 -8.44405,-9.58726c-4.89748,1.72104 -3.59293,11.5654 -3.57918,11.66537c0.20309,1.466 -0.6727,2.84539 -1.95644,3.07951c-0.12688,0.02347 -0.25376,0.03398 -0.37829,0.03398z"/>
    </g>
    <g stroke="null" id="svg_36">
     <path stroke="null" id="svg_37" d="m233.83558,173.26884c-1.13643,0 -2.13655,-0.93825 -2.32549,-2.25709c-0.08289,-0.5937 -1.96312,-14.56586 6.84705,-17.66579c7.1721,-2.50649 12.34613,6.9045 14.26623,12.87364c0.44899,1.39481 -0.17755,2.93721 -1.39942,3.44974c-1.22147,0.51224 -2.57867,-0.1997 -3.0306,-1.59239c-0.03693,-0.11299 -3.87379,-11.21049 -8.44386,-9.58711c-4.89787,1.72094 -3.59312,11.5656 -3.57937,11.66527c0.2027,1.46605 -0.6727,2.84554 -1.95683,3.07951c-0.12649,0.02367 -0.25337,0.03422 -0.3777,0.03422z"/>
    </g>
    <path stroke="null" id="svg_38" d="m218.04265,186.35166c0,0 -9.4373,4.7926 -10.09056,12.30921c0,0 5.81707,7.44885 13.65186,6.09538c0,0 -10.92137,12.04385 -21.48606,2.43588c-10.36239,-9.42355 2.55195,-33.96728 17.92476,-20.84047z" fill="#FF8B00"/>
    <path stroke="null" id="svg_39" d="m218.866,204.88922c-4.11793,2.71164 -10.92118,5.26261 -17.5834,-0.79595c-3.73041,-3.39288 -4.44377,-8.74535 -3.11192,-13.59422c-2.66489,5.49957 -2.6042,12.55403 1.94721,16.69307c10.56469,9.60798 21.48606,-2.43588 21.48606,-2.43588c-0.94434,0.16302 -1.85941,0.19749 -2.73795,0.13297z" fill="#FF7300"/>
    <path stroke="null" id="svg_40" d="m213.23532,186.5573c0,0 -7.15757,5.66741 -7.69004,12.87585c0,0 2.96324,4.32396 7.38973,5.34215c0,0 -8.56819,3.00488 -12.67688,-5.89014c-3.87301,-8.38611 8.35096,-16.81387 12.97719,-12.32786z" fill="#FFA039"/>
    <path stroke="null" id="svg_41" d="m81.3115,232.44887c0,0 0.90074,10.57834 -5.90722,18.28478c-6.80796,7.70663 4.98037,12.78687 4.98037,12.78687s-13.27358,-1.49625 -15.60045,-5.033c-2.32667,-3.53685 6.20498,-11.56285 6.20498,-11.56285s7.51837,-6.77811 10.32232,-14.4758z" fill="#FCC000"/>
    <path stroke="null" id="svg_42" d="m81.3115,232.44887c0,0 -5.04224,8.74731 -16.88025,18.74418c-11.8388,9.99628 11.61902,22.36755 35.07626,8.24696c0,0 -24.81934,6.87896 -30.91119,-0.99973c-5.0277,-6.50205 9.97468,-9.24708 12.71518,-25.99141z" fill="#F99300"/>
    <path stroke="null" id="svg_43" d="m78.24417,252.74803c0,0 4.57046,-9.19189 5.87639,-14.51371c1.30554,-5.32153 12.30685,15.29542 11.09912,18.23529c-1.20792,2.94026 -15.27774,3.46074 -16.97551,1.86098c-1.69737,-1.60035 -1.43674,-2.56256 0,-5.58256z" fill="#FFDA3E"/>
    <path stroke="null" id="svg_44" d="m260.3519,291.40994c-17.04033,9.02553 -42.50585,18.07992 -79.89228,22.73867c-90.9097,11.32863 -123.29848,-44.05621 -126.979,-54.92819c-3.68072,-10.87198 10.6737,-16.61068 13.98615,-32.34478c3.31226,-15.7345 11.59368,-74.47608 37.54199,-96.92372c25.94732,-22.44818 58.69985,-18.04609 58.69985,-18.04609s-30.86601,-24.26335 -64.20109,0c-33.33567,24.26345 -43.39107,85.97313 -45.06684,117.30532c-1.67597,31.33229 -19.77553,25.60066 -19.77553,25.60066s29.83093,77.37539 117.98245,81.00544c49.24212,2.02764 85.77574,-17.19372 107.70432,-44.4073z" fill="#FCC000"/>
    <g stroke="null" id="svg_45">
     <path stroke="null" id="svg_46" d="m327.33906,168.66249c-0.30011,0 -0.60435,-0.01326 -0.91547,-0.03815c-3.76302,-0.3008 -5.93217,-2.50923 -7.67216,-4.28286c-1.59917,-1.62878 -2.73344,-2.81097 -4.72189,-2.55495c-4.45497,0.56905 -7.90786,6.20184 -7.94203,6.25821c-0.3667,0.61329 -1.10422,0.76718 -1.64081,0.34558c-0.53679,-0.42056 -0.6731,-1.2558 -0.30404,-1.86801c0.16341,-0.27316 4.08827,-6.70259 9.62408,-7.41015c3.00291,-0.37303 4.8142,1.44877 6.55675,3.22343c1.62451,1.65524 3.30676,3.36828 6.26646,3.60623c2.35967,0.18919 4.18746,-0.46932 5.44802,-1.94834c1.53907,-1.81306 2.20529,-4.86321 1.87355,-8.59107c-0.06678,-0.73968 0.40519,-1.40035 1.05335,-1.47558c0.63833,-0.07213 1.22835,0.46107 1.29277,1.20222c0.40559,4.53182 -0.49318,8.34413 -2.52583,10.73631c-1.5648,1.83948 -3.76086,2.79712 -6.39275,2.79712z"/>
    </g>
    <g stroke="null" id="svg_47">
     <path stroke="null" id="svg_48" d="m281.54708,56.73747l-15.0558,-6.97751l0,29.15111c-1.23522,-0.74302 -2.68826,-1.18887 -4.25817,-1.18887c-4.40979,0 -7.98328,3.39529 -7.98328,7.58437c0,4.18933 3.57348,7.58437 7.98328,7.58437c4.09986,0 7.43883,-2.94566 7.89214,-6.7262l0.04576,-0.41703l0.04596,-21.17937l11.3301,-7.83086z" fill="#191919"/>
     <g stroke="null" id="svg_49">
      <path stroke="null" id="svg_50" d="m269.8546,87.40187c-3.22034,4.7544 -9.97703,3.15204 -12.1456,-0.37721c-1.62785,-2.64932 -1.15568,-5.62842 -0.34097,-7.69308c-1.88357,1.3868 -3.1182,3.53415 -3.1182,5.97499c0,4.18933 3.57348,7.58437 7.98328,7.58437c3.63849,0 6.66576,-2.325 7.62149,-5.48907z"/>
      <polygon stroke="null" id="svg_51" points="266.49127197265625,49.75995635986328 266.49127197265625,78.91107559204102 268.64471435546875,50.757869720458984 "/>
     </g>
     <path stroke="null" id="svg_52" d="m277.31228,57.11679l-7.71734,-3.13451l-2.2159,28.5169c0,0 -2.13105,-2.73157 -5.76777,-2.32613c-3.63594,0.40529 -4.43435,4.55057 -1.24092,6.67425c3.19362,2.12358 8.87125,1.0119 8.87125,-2.8312c0,-3.84305 0.0876,-21.43839 0.0876,-21.43839l7.98308,-5.46093z" fill="#2D2D2D"/>
    </g>
    <g stroke="null" id="svg_53">
     <path stroke="null" id="svg_54" d="m345.9328,182.35756l10.26261,30.12191c-1.53691,-0.2025 -3.19559,0.00147 -4.81754,0.72053c-4.55651,2.01683 -7.05249,7.15953 -5.57942,11.48968c1.47563,4.32848 6.36368,6.20086 10.92078,4.18432c4.23597,-1.87611 6.64867,-6.45059 5.78663,-10.56273l-0.1096,-0.45076l-11.75985,-34.70033l-4.70362,-0.80263z" fill="#191919"/>
     <g stroke="null" id="svg_55">
      <path stroke="null" id="svg_56" d="m348.23649,224.13641c-2.01713,-3.06625 -0.97792,-6.63394 -0.08897,-8.63231c-2.3799,2.49313 -3.41753,6.04559 -2.34906,9.1856c1.47563,4.32848 6.36368,6.20086 10.92078,4.18432c2.4347,-1.07839 4.23695,-3.05771 5.19013,-5.31741c-5.15478,5.30935 -11.34208,4.12107 -13.67288,0.5798z"/>
      <polygon stroke="null" id="svg_57" points="345.9327697753906,182.35757064819336 356.19537353515625,212.47948837280273 347.6154479980469,182.6445426940918 "/>
     </g>
     <path stroke="null" id="svg_58" d="m349.66184,185.3916l8.74142,29.72153c0,0 -3.49727,-1.06739 -6.32538,0.50595c-2.82869,1.57373 -3.72,5.65847 -0.86027,7.99408c2.85914,2.33531 11.4234,-0.53021 9.92007,-5.70905c-1.58149,-4.62477 -10.35807,-31.53793 -10.35807,-31.53793l-1.11777,-0.97459z" fill="#2D2D2D"/>
    </g>
    <g stroke="null" id="svg_59">
     <path stroke="null" id="svg_60" d="m380.26957,116.71438l-0.18423,0.06418l-29.64356,8.70376l3.28299,11.96839l0,0l4.04035,14.72338c-1.31771,-0.27669 -2.76034,-0.21178 -4.19865,0.30115c-4.0376,1.43998 -6.45599,5.7146 -5.40383,9.55028c1.05177,3.83731 5.17717,5.77823 9.21516,4.33909c3.75437,-1.33775 6.07083,-5.12615 5.53562,-8.7344l-0.02219,-0.42321l-5.70826,-20.80963l22.78198,-6.94265l4.32043,15.74594c-1.3183,-0.27748 -2.76093,-0.21173 -4.19924,0.3009c-4.0374,1.44032 -6.4556,5.7142 -5.40383,9.55019c1.05217,3.83687 5.17737,5.77833 9.21516,4.33899c3.75457,-1.33775 6.07182,-5.12595 5.53581,-8.7344l-0.10351,-0.59301l-5.90938,-21.66116l0.03418,-0.01007l-3.18498,-11.6777z" fill="#191919"/>
     <g stroke="null" id="svg_61">
      <path stroke="null" id="svg_62" d="m362.80736,160.29715c-3.33288,3.91116 -8.30362,4.80708 -11.11071,2.29819c-2.21904,-1.98566 -2.43116,-5.03865 -2.33964,-6.82647c-1.2582,1.84758 -1.78281,4.11277 -1.19437,6.25664c1.05177,3.83731 5.17717,5.77823 9.21516,4.33909c2.82693,-1.00743 4.8364,-3.40403 5.42956,-6.06745z"/>
      <polygon stroke="null" id="svg_63" points="350.4417724609375,125.48231887817383 353.72479248046875,137.45071029663086 357.7651062011719,152.17409896850586 352.49798583984375,124.87878799438477 "/>
     </g>
     <g stroke="null" id="svg_64">
      <path stroke="null" id="svg_65" d="m388.94617,154.53094c-4.34007,3.98339 -9.95366,3.03257 -11.72351,0.54523c-1.4664,-2.06294 -1.41553,-4.8197 -1.21244,-6.47451c-1.35739,1.8795 -1.9366,4.22954 -1.32793,6.45005c1.05217,3.83687 5.17737,5.77833 9.21516,4.33899c2.39109,-0.85237 4.18825,-2.6999 5.04872,-4.85977z"/>
      <path stroke="null" id="svg_66" d="m384.28537,145.20064c-0.70217,-0.14721 -1.44047,-0.18993 -2.19292,-0.12673l2.19292,0.12673z"/>
      <polygon stroke="null" id="svg_67" points="384.2853698730469,145.2006492614746 380.7586364746094,127.77893447875977 357.1829528808594,136.3973503112793 379.96490478515625,129.45469284057617 "/>
     </g>
     <path stroke="null" id="svg_68" d="m358.58415,153.39427l-4.22812,-26.94852l25.38303,-7.68194l8.25039,30.27295c0,0 0.53797,4.49106 -3.00272,5.85365c-3.54088,1.3623 -6.70701,-1.30966 -6.99042,-3.42524s0.88856,-4.32706 3.20187,-4.74718c2.31214,-0.42012 4.56594,0.81903 4.56594,0.81903l-4.54689,-21.48233l-24.78614,9.86292l4.94894,19.4654c0,0 0.99482,4.06873 -2.17485,5.78933c-3.17006,1.72104 -6.90734,-0.13842 -7.36223,-2.64432c-0.4541,-2.50619 1.97392,-4.94403 3.88754,-5.29953c1.91244,-0.3557 2.85364,0.16577 2.85364,0.16577z" fill="#2D2D2D"/>
    </g>
   </g>
   <g stroke="null" id="svg_69" display="none">
    <g stroke="null" id="svg_70" display="inline">
     <path stroke="null" id="svg_71" d="m322.24075,193.23484c0,0 12.66618,-10.34962 22.58635,-8.02708c9.91998,2.32235 6.86433,13.47392 -7.9273,14.24659c-14.79143,0.77287 -14.65905,-6.21952 -14.65905,-6.21952z" fill="#CD2606"/>
     <path stroke="null" id="svg_72" d="m322.24154,193.23484c0,0 -0.13317,6.99239 14.65827,6.21952c1.68461,-0.0877 3.19637,-0.32525 4.57498,-0.65414c-3.00252,-1.82003 -6.63266,-4.4039 -6.7894,-6.60919c-0.15811,-2.22896 1.69561,-4.96053 3.31068,-6.88859c-8.07922,1.68402 -15.75453,7.93241 -15.75453,7.93241z" fill="#BC1A04"/>
     <path stroke="null" id="svg_73" d="m307.75032,197.63855c0,0 27.90818,-2.41447 29.8877,-17.38056c1.19771,-9.05621 -23.86881,-4.55416 -29.8877,17.38056z" fill="#CD2606"/>
     <path stroke="null" id="svg_74" d="m307.75032,197.63855c0,0 0.23805,-0.02111 0.66259,-0.06894c6.99926,-18.27442 27.68731,-22.51437 28.84496,-15.55861c0.16214,-0.56645 0.29982,-1.14561 0.37976,-1.75301c1.1981,-9.05621 -23.86881,-4.55416 -29.8873,17.38056z" fill="#BC1A04"/>
     <path stroke="null" id="svg_75" d="m307.75032,197.63855c0,0 12.61816,-8.10721 25.40042,-2.57808c12.78206,5.52914 9.67329,24.85312 -25.40042,2.57808z" fill="#CD2606"/>
     <path stroke="null" id="svg_76" d="m332.44189,197.28206c4.47353,1.93483 6.99042,5.55683 6.8824,8.49669c2.05877,-3.03876 -0.46716,-8.24981 -6.17356,-10.71829c-12.78177,-5.52914 -25.40042,2.57808 -25.40042,2.57808c0.54622,0.34647 1.06169,0.65385 1.59259,0.98107c4.20808,-2.02931 13.60335,-5.44527 23.09898,-1.33755z" fill="#BC1A04"/>
     <path stroke="null" id="svg_77" d="m314.80801,198.29377c0,0 10.86108,-3.11938 17.70724,1.16059c14.41551,9.01188 -8.14846,8.39633 -17.70724,-1.16059z" fill="#E22C14"/>
     <path stroke="null" id="svg_78" d="m313.07381,193.13035c0,0 17.31589,-2.74777 20.94751,-9.74036c3.63123,-6.99195 -13.94991,-2.50629 -20.94751,9.74036z" fill="#E22C14"/>
     <path stroke="null" id="svg_79" d="m337.67926,190.96326c0,0 1.68991,-4.21397 5.54593,-4.35735c3.85543,-0.14289 7.03511,2.47035 5.22264,5.80244c-3.74799,6.89104 -12.1511,3.21327 -10.76857,-1.44509z" fill="#E22C14"/>
    </g>
    <path stroke="null" id="svg_80" d="m135.31489,79.80704c0,0 -4.6887,-27.88495 27.31423,-45.08064c32.00254,-17.19559 54.37873,-0.11618 44.87181,13.94265c0,0 37.37651,-16.73118 49.50502,0.23235c12.12841,16.96324 -7.64732,23.93466 -7.64732,23.93466s23.24089,-5.22828 33.12669,6.97098c9.88659,12.1998 -7.54155,22.54059 -7.54155,22.54059s14.67604,5.14393 13.4531,19.88405c-1.22275,14.74007 -21.2051,26.74194 -39.03824,25.27211c-17.83235,-1.46964 -114.04374,-67.69675 -114.04374,-67.69675z" fill="#CD2606"/>
    <path stroke="null" id="svg_81" d="m222.26458,74.41289c-36.28329,-25.6172 -75.19622,-10.74691 -66.5367,-25.49243c4.79751,-8.16893 17.09277,-15.79607 27.23979,-21.06388c-6.08763,0.77533 -12.95166,2.90048 -20.33854,6.86983c-32.00293,17.19569 -27.31423,45.08064 -27.31423,45.08064s96.21139,66.22711 114.04374,67.69675c8.69516,0.7165 17.88617,-1.78522 25.17985,-6.22968c-12.02029,-12.11456 -21.63141,-45.22672 -52.27391,-66.86122z" fill="#BC1A04"/>
    <path stroke="null" id="svg_82" d="m69.30506,165.19497c0,0 -4.38848,-2.21928 -6.33785,-14.1174c-1.56431,-9.54989 -23.22144,-3.5066 -23.72249,23.90844c-0.50075,27.4148 34.35465,29.86265 34.35465,29.86265l-4.29431,-39.65369z" fill="#FECE00"/>
    <path stroke="null" id="svg_83" d="m43.46842,169.33765c0.1367,-7.48022 1.87513,-13.3161 4.32377,-17.73125c-4.51586,4.43931 -8.34055,12.06188 -8.54746,23.37931c-0.50075,27.41509 34.35465,29.86246 34.35465,29.86246l-0.68871,-6.35808c-9.58029,-1.84036 -29.82504,-8.20591 -29.44224,-29.15243z" fill="#FCC000"/>
    <path stroke="null" id="svg_84" d="m307.75032,197.63855c0,0 -25.88928,-5.82493 -45.45701,-60.05311c-19.56783,-54.22823 -62.54232,-84.42871 -119.10002,-66.58306c-56.55771,17.8459 -84.25347,83.90931 -83.19983,138.3041c1.05364,54.39553 59.66177,110.67816 140.46343,105.70153c80.80195,-4.97585 113.61547,-95.06259 107.29343,-117.36945z" fill="#FECE00"/>
    <path stroke="null" id="svg_85" d="m292.33735,206.98157c0,0 -31.73974,-18.78563 -45.61296,-57.23291c-13.87332,-38.44704 -48.40159,-72.13664 -88.49995,-59.48407c-40.09875,12.65214 -57.26694,58.49868 -56.5198,97.0642c0.74685,38.56548 43.89153,91.73855 101.17889,88.21063c57.28737,-3.52821 93.93618,-52.74234 89.45381,-68.55786z" fill="#FFDA3E"/>
    <path stroke="null" id="svg_86" d="m225.53215,296.42478c-80.80215,4.97614 -139.41008,-51.30639 -140.46372,-105.70133c-0.75726,-39.08051 13.32631,-84.1834 42.29088,-113.10093c-45.88096,24.1184 -68.31578,82.63716 -67.36585,131.68395c1.05364,54.39553 59.66177,110.67767 140.46343,105.70153c28.91321,-1.78036 51.64982,-14.48071 68.67924,-31.05182c-12.58791,6.83212 -27.0753,11.45089 -43.60398,12.46859z" fill="#FCC000"/>
    <g stroke="null" id="svg_87" display="inline">
     <path stroke="null" id="svg_88" d="m258.2234,240.4563c0,0 -5.06413,-5.9467 -25.44441,-4.12304c-16.99142,1.52061 -19.60652,-33.45823 2.59035,-35.42655c22.19638,-1.96803 26.14245,16.30723 22.85406,39.54959z" fill="#FECE00"/>
     <path stroke="null" id="svg_89" d="m255.73734,229.71533c0,0 -4.67789,-2.94271 -18.92144,-1.76386c-11.87524,0.98323 -13.70273,-21.63102 1.81021,-22.90356c15.51265,-1.27234 17.71961,11.40317 17.11123,24.66741z" fill="#FFDA3E"/>
     <path stroke="null" id="svg_90" d="m235.79349,230.98777c-11.45738,0.2519 -15.55763,-15.52169 -10.25859,-26.03384c-10.89741,9.62065 -6.60291,32.61848 7.24409,31.37933c20.38047,-1.82367 25.44441,4.12304 25.44441,4.12304c0.257,-1.8164 0.45174,-3.58861 0.61516,-5.33665c-2.98533,-1.82406 -9.61574,-4.42728 -23.04507,-4.13188z" fill="#FCC000"/>
    </g>
    <g stroke="null" id="svg_91" display="inline">
     <path stroke="null" id="svg_92" d="m125.09657,119.98441c0,8.04254 -5.71906,14.56188 -12.77352,14.56188c-7.05563,0 -12.77411,-6.51934 -12.77411,-14.56188c0,-8.04259 5.71847,-14.56242 12.77411,-14.56242c7.05445,0 12.77352,6.51983 12.77352,14.56242z" fill="#FFFFFF"/>
     <path stroke="null" id="svg_93" d="m121.07518,119.98441c0,5.51038 -3.91838,9.97767 -8.75212,9.97767c-4.83414,0 -8.75291,-4.46729 -8.75291,-9.97767c0,-5.51082 3.91877,-9.97811 8.75291,-9.97811c4.83375,0 8.75212,4.46729 8.75212,9.97811z"/>
    </g>
    <path stroke="null" id="svg_94" d="m222.26458,182.49181c0,4.22438 -3.55109,7.64899 -7.93182,7.64899c-4.38053,0 -7.93201,-3.4246 -7.93201,-7.64899c0,-4.22389 3.55148,-7.64879 7.93201,-7.64879c4.38073,0 7.93182,3.4249 7.93182,7.64879z" fill="#FF9999"/>
    <path stroke="null" id="svg_95" d="m90.1907,136.7996c-1.47946,3.87261 -5.93502,5.39523 -9.95131,3.40069c-4.0159,-1.9943 -6.07182,-6.75071 -4.59216,-10.62332c1.48005,-3.87301 5.93551,-5.39577 9.9518,-3.40118c4.0158,1.99459 6.07191,6.75066 4.59167,10.62381z" fill="#FF9999"/>
    <g stroke="null" id="svg_96" display="inline">
     <path stroke="null" id="svg_97" d="m132.18235,180.07557c0,0 12.42479,-12.28328 9.51488,-26.60397c0,0 9.98872,0.80769 12.17525,11.43096c2.18644,10.62332 -6.58631,26.19946 -21.69013,15.17301z" fill="#660000"/>
     <path stroke="null" id="svg_98" d="m139.55313,173.71901c4.6828,-8.53941 5.65091,-15.72251 5.81275,-19.2687c-2.06014,-0.8368 -3.66864,-0.97871 -3.66864,-0.97871c2.90991,14.32069 -9.51488,26.60397 -9.51488,26.60397c8.94362,6.52926 15.66565,3.72953 19.20859,-1.84502c-7.14048,1.92933 -16.02911,3.13274 -11.83782,-4.51154z" fill="#540000"/>
     <path stroke="null" id="svg_99" d="m134.90224,155.22221c0,0 13.28733,-3.26173 16.63327,9.65124c3.34535,12.91331 -10.03743,23.59256 -21.69917,11.11543c0,0 -0.14348,11.60547 9.36777,14.49319c9.51115,2.88772 24.04067,-8.77255 21.41182,-26.80725c-2.62836,-18.03475 -18.54443,-19.52069 -25.71369,-8.4526z" fill="#FF8B00"/>
     <path stroke="null" id="svg_100" d="m139.20411,190.48206c9.17784,2.78627 22.98163,-7.9929 21.57857,-24.9552c-1.8106,9.5742 -7.45405,21.37171 -17.56386,21.93334c-13.28664,0.73771 -13.38249,-11.47171 -13.38249,-11.47171s-0.14348,11.60586 9.36777,14.49358z" fill="#FF7300"/>
     <path stroke="null" id="svg_101" d="m132.92331,180.47988c0,0 6.85313,6.83536 16.04355,0.30262c9.19022,-6.53289 4.88756,-26.79822 -6.21539,-26.82861c-11.10276,-0.03025 5.66986,-8.05472 11.21491,-0.84766c5.54514,7.20667 5.49211,17.89559 0.8971,24.40614c-4.5953,6.51015 -9.48954,8.95909 -16.20274,7.93344c-6.71319,-1.02585 -7.80926,-7.02509 -5.73743,-4.96593z" fill="#FFA039"/>
     <path stroke="null" id="svg_102" d="m141.7866,173.93281c0,0 3.91789,-6.81248 4.69223,-11.18039c0.77435,-4.36801 3.35498,1.9531 3.49423,5.91037c0.13876,3.95751 -1.86648,6.89973 -5.67782,8.34835c-3.81232,1.44818 -3.39485,-1.4526 -2.50865,-3.07833z" fill="#770101"/>
    </g>
    <g stroke="null" id="svg_103" display="inline">
     <g stroke="null" id="svg_104">
      <path stroke="null" id="svg_105" d="m221.7654,142.69744c-0.1753,0 -0.35305,-0.02249 -0.53158,-0.0683c-18.01904,-4.72155 -20.64494,-22.59622 -20.74874,-23.35554c-0.19916,-1.46738 0.68331,-2.84279 1.97186,-3.07018c1.27539,-0.22445 2.48773,0.77277 2.6915,2.23721c0.08799,0.61879 2.31754,15.05993 17.14344,18.94413c1.26989,0.33238 2.0626,1.77628 1.77083,3.2252c-0.25131,1.24534 -1.22255,2.08749 -2.29731,2.08749z"/>
     </g>
     <g stroke="null" id="svg_106">
      <path stroke="null" id="svg_107" d="m114.01326,95.18383c-4.67338,0 -7.59596,-1.30161 -7.81839,-1.40526c-1.209,-0.55722 -1.79195,-2.12565 -1.3022,-3.50233c0.48631,-1.37286 1.85401,-2.03741 3.05967,-1.491c0.34873,0.15467 8.49217,3.64375 19.67202,-3.12527c1.15037,-0.6975 2.57808,-0.19862 3.19088,1.11507c0.61113,1.31104 0.17294,2.94031 -0.97684,3.63756c-6.20547,3.75565 -11.69749,4.77124 -15.82514,4.77124z"/>
     </g>
    </g>
    <g stroke="null" id="svg_108" display="inline">
     <g stroke="null" id="svg_109">
      <path stroke="null" id="svg_110" d="m208.20408,147.50379c-0.3886,0 -0.70315,-0.3584 -0.70315,-0.80106l0,-60.65599c0,-0.4431 0.31455,-0.8014 0.70315,-0.8014c0.3884,0 0.70276,0.3583 0.70276,0.8014l0,60.65599c0,0.44266 -0.31435,0.80106 -0.70276,0.80106z" fill="#8A0000"/>
     </g>
     <g stroke="null" id="svg_111">
      <path stroke="null" id="svg_112" d="m218.27638,145.62921c-0.3884,0 -0.70285,-0.35801 -0.70285,-0.80096l0,-45.1266c0,-0.443 0.31445,-0.8013 0.70285,-0.8013c0.3882,0 0.70266,0.3583 0.70266,0.8013l0,45.1266c0,0.44295 -0.31445,0.80096 -0.70266,0.80096z" fill="#8A0000"/>
     </g>
     <g stroke="null" id="svg_113">
      <path stroke="null" id="svg_114" d="m227.12307,138.32217c-0.3885,0 -0.70295,-0.35815 -0.70295,-0.80076l0,-28.51155c0,-0.44286 0.31445,-0.80125 0.70295,-0.80125c0.38811,0 0.70236,0.3584 0.70236,0.80125l0,28.51155c0,0.44261 -0.31426,0.80076 -0.70236,0.80076z" fill="#8A0000"/>
     </g>
     <g stroke="null" id="svg_115">
      <path stroke="null" id="svg_116" d="m233.52014,155.42888c-0.3884,0 -0.70285,-0.3583 -0.70285,-0.80101l0,-68.58113c0,-0.4431 0.31445,-0.8014 0.70285,-0.8014s0.70246,0.3583 0.70246,0.8014l0,68.58113c0,0.44271 -0.31406,0.80101 -0.70246,0.80101z" fill="#8A0000"/>
     </g>
     <g stroke="null" id="svg_117">
      <path stroke="null" id="svg_118" d="m243.72825,149.68802c-0.38752,0 -0.70207,-0.35835 -0.70275,-0.79958c-0.04537,-39.64082 -0.04036,-59.89721 0.01375,-60.20543c0.07522,-0.43485 0.4434,-0.72299 0.8263,-0.62871c0.35747,0.08107 0.59709,0.45818 0.56232,0.8619c-0.05028,1.27676 -0.01994,39.74276 0.00334,59.9692c0.00059,0.44271 -0.31396,0.80263 -0.70217,0.80263l-0.00079,0z" fill="#8A0000"/>
     </g>
     <g stroke="null" id="svg_119">
      <path stroke="null" id="svg_120" d="m252.98309,140.84319c-0.3885,0 -0.70246,-0.35845 -0.70246,-0.80145l0,-40.34009c0,-0.443 0.31396,-0.8013 0.70246,-0.8013c0.3884,0 0.70295,0.3583 0.70295,0.8013l0,40.34009c0,0.443 -0.31455,0.80145 -0.70295,0.80145z" fill="#8A0000"/>
     </g>
    </g>
    <g stroke="null" id="svg_121" display="inline">
     <path stroke="null" id="svg_122" d="m243.13991,100.72858c0,0 20.81405,37.33448 2.41928,42.44934c-18.1906,5.05795 -16.59114,-25.54959 -2.41928,-42.44934z" fill="#6EB8E5"/>
     <path stroke="null" id="svg_123" d="m242.8996,107.72902c0,0 12.00634,20.68786 3.28113,24.66329c-8.62819,3.93144 -9.36188,-14.03098 -3.28113,-24.66329z" fill="#7ECBF2"/>
     <path stroke="null" id="svg_124" d="m248.84306,137.56172c-15.29061,4.25164 -16.59595,-16.69857 -8.2066,-33.52334c-11.79117,17.2686 -12.13411,43.88156 4.92272,39.13953c4.14474,-1.15244 6.29376,-3.94347 7.14461,-7.57145c-1.03233,0.85286 -2.30281,1.52237 -3.86073,1.95526z" fill="#56ABD6"/>
    </g>
    <g stroke="null" id="svg_125" display="inline">
     <path stroke="null" id="svg_126" d="m209.31272,152.14776c0,8.04269 -5.71847,14.56213 -12.77371,14.56213c-7.05485,0 -12.77391,-6.51943 -12.77391,-14.56213c0,-8.04264 5.71906,-14.56232 12.77391,-14.56232c7.05524,0 12.77371,6.51968 12.77371,14.56232z" fill="#FFFFFF"/>
     <path stroke="null" id="svg_127" d="m205.29152,152.14776c0,5.51043 -3.91887,9.97777 -8.75252,9.97777c-4.83384,0 -8.75271,-4.46734 -8.75271,-9.97777c0,-5.51087 3.91887,-9.97811 8.75271,-9.97811c4.83365,0 8.75252,4.46724 8.75252,9.97811z"/>
    </g>
    <path stroke="null" id="svg_128" d="m60.93741,162.98683c0,0 -0.60416,-7.90039 -1.42132,-10.77682c-0.81756,-2.87657 -11.19487,-0.6075 -12.58104,11.26308c-1.38597,11.87052 4.94,22.48535 8.8135,22.60693c3.87399,0.12138 5.45313,-20.13771 5.18886,-23.09319z" fill="#FFDA3E"/>
    <path stroke="null" id="svg_129" d="m204.34767,51.54788c0,0 0.74135,-12.34863 -4.66022,-17.35586c-5.40088,-5.00708 -27.83718,4.26283 -32.88226,11.7735c-5.04498,7.51091 18.05459,3.04514 44.96657,16.78077c26.91159,13.73583 49.52515,43.52561 55.69841,57.59107c6.17307,14.06491 16.20382,5.78761 16.61913,-1.47494c0.4157,-7.26299 -15.43202,-17.14168 -15.43202,-17.14168s12.34593,-10.82425 10.44636,-16.4754c-1.89968,-5.65076 -25.88614,-10.92839 -34.96342,-9.6427c0,0 15.21097,-16.2649 8.84286,-23.95337c-9.27025,-11.19193 -48.63541,-0.1014 -48.63541,-0.1014z" fill="#E22C14"/>
    <g stroke="null" id="svg_130" display="inline">
     <path stroke="null" id="svg_131" d="m334.50901,124.2682l-36.82391,0c-0.65247,0 -1.17993,-0.6017 -1.17993,-1.34511c0,-0.74356 0.52746,-1.34506 1.17993,-1.34506l36.82391,0c0.65188,0 1.17974,0.60151 1.17974,1.34506c0,0.74341 -0.52785,1.34511 -1.17974,1.34511z"/>
    </g>
    <g stroke="null" id="svg_132" display="inline">
     <path stroke="null" id="svg_133" d="m403.44083,136.88587l-109.24702,0c-0.65247,0 -1.18023,-0.60165 -1.18023,-1.34536c0,-0.74341 0.52775,-1.34497 1.18023,-1.34497l109.24702,0c0.65247,0 1.18023,0.60155 1.18023,1.34497c0,0.74371 -0.52775,1.34536 -1.18023,1.34536z"/>
    </g>
    <g stroke="null" id="svg_134" display="inline">
     <path stroke="null" id="svg_135" d="m382.86493,241.80033l-64.48883,0c-0.65228,0 -1.17993,-0.60131 -1.17993,-1.34482c0,-0.7438 0.52766,-1.34541 1.17993,-1.34541l64.48883,0c0.65277,0 1.18033,0.6016 1.18033,1.34541c0,0.74351 -0.52756,1.34482 -1.18033,1.34482z"/>
    </g>
    <g stroke="null" id="svg_136" display="inline">
     <path stroke="null" id="svg_137" d="m406.1998,255.86446l-96.52123,0c-0.65198,0 -1.17974,-0.60141 -1.17974,-1.34511c0,-0.74351 0.52775,-1.34502 1.17974,-1.34502l96.52123,0c0.65208,0 1.18003,0.60151 1.18003,1.34502c0,0.74371 -0.52795,1.34511 -1.18003,1.34511z"/>
    </g>
    <g stroke="null" id="svg_138" display="inline">
     <path stroke="null" id="svg_139" d="m356.9838,278.35674l-69.57968,0c-0.65218,0 -1.17983,-0.60151 -1.17983,-1.34502c0,-0.74341 0.52766,-1.34541 1.17983,-1.34541l69.57968,0c0.65218,0 1.18003,0.602 1.18003,1.34541c0,0.74351 -0.52785,1.34502 -1.18003,1.34502z"/>
    </g>
    <g stroke="null" id="svg_140" display="inline">
     <g stroke="null" id="svg_141">
      <path stroke="null" id="svg_142" d="m56.41763,270.17528c-0.22587,0 -0.45263,-0.07326 -0.65454,-0.22567c-26.05613,-19.85714 -25.478,-49.3854 -24.6792,-57.96135l0.02985,-0.33606c0.03928,-0.72495 0.57725,-1.23483 1.21479,-1.27941c0.63706,0.02092 1.14409,0.5964 1.14409,1.324c0,0.07385 -0.01257,0.2683 -0.04154,0.57568c-0.76286,8.19697 -1.3128,36.4197 23.64353,55.43837c0.5416,0.41531 0.68793,1.24809 0.32496,1.86796c-0.22715,0.38644 -0.60033,0.5965 -0.98195,0.5965z" fill="#8A0000"/>
     </g>
     <g stroke="null" id="svg_143">
      <path stroke="null" id="svg_144" d="m44.19955,272.93926c-0.25258,0 -0.50703,-0.09163 -0.72259,-0.28381c-21.58181,-19.10803 -20.69571,-39.01535 -20.64739,-39.85363c0.0439,-0.73831 0.6017,-1.3346 1.2529,-1.25064c0.64845,0.04488 1.14183,0.68616 1.10245,1.42407c-0.01021,0.19209 -0.78692,19.38193 19.73949,37.55731c0.51499,0.45489 0.60838,1.30053 0.20868,1.88662c-0.23275,0.34146 -0.58078,0.52009 -0.93354,0.52009z" fill="#8A0000"/>
     </g>
     <g stroke="null" id="svg_145">
      <path stroke="null" id="svg_146" d="m296.03476,310.35191c-0.47678,0 -0.92627,-0.33066 -1.10412,-0.87226c-0.23009,-0.69333 0.07876,-1.47111 0.68959,-1.73116c0.13572,-0.05784 13.70558,-5.92176 22.05536,-13.26022c0.51852,-0.45164 1.25584,-0.34156 1.6575,0.24443c0.39606,0.58854 0.30129,1.43468 -0.21487,1.88946c-8.63536,7.58457 -22.09945,13.39908 -22.66845,13.64312c-0.13611,0.06049 -0.27655,0.08662 -0.41501,0.08662z" fill="#8A0000"/>
     </g>
     <g stroke="null" id="svg_147">
      <path stroke="null" id="svg_148" d="m296.75863,321.80211c-0.49112,0 -0.94699,-0.34961 -1.11551,-0.90643c-0.21183,-0.70433 0.11549,-1.46895 0.73074,-1.71053c0.25356,-0.09997 25.4067,-10.05216 34.11129,-20.43026c0.45164,-0.53315 1.20046,-0.55397 1.6685,-0.04193c0.47001,0.51253 0.48631,1.36407 0.03683,1.90223c-9.09889,10.84841 -33.99384,20.70042 -35.04689,21.11338c-0.12914,0.04979 -0.25808,0.07355 -0.38496,0.07355z" fill="#8A0000"/>
     </g>
    </g>
    <g stroke="null" id="svg_149" display="inline">
     <path stroke="null" id="svg_150" d="m159.04887,340.50986c0,8.70734 -6.19153,15.76533 -13.82893,15.76533c-7.63779,0 -13.82942,-7.05799 -13.82942,-15.76533c0,-8.70675 6.19163,-15.76494 13.82942,-15.76494c7.6374,0 13.82893,7.05819 13.82893,15.76494z" fill="#FECE00"/>
     <path stroke="null" id="svg_151" d="m149.04346,350.89887c-7.63769,0 -13.82893,-7.05828 -13.82893,-15.76494c0,-2.51532 0.52972,-4.88403 1.44852,-6.99347c-3.20698,2.88683 -5.27253,7.34907 -5.27253,12.3694c0,8.70675 6.19163,15.76533 13.82942,15.76533c5.43103,0 10.11776,-3.578 12.37962,-8.77118c-2.35476,2.11985 -5.32251,3.39485 -8.55611,3.39485z" fill="#FCC000"/>
     <path stroke="null" id="svg_152" d="m154.14756,345.27673c-3.24145,3.41596 -8.78443,2.59035 -12.38031,-1.84439c-3.59568,-4.43454 -3.88302,-10.79862 -0.64108,-14.21497c3.24155,-3.41606 8.78463,-2.59016 12.3804,1.84458c3.59568,4.43454 3.88322,10.79901 0.64098,14.21477z" fill="#FFDA3E"/>
    </g>
    <g stroke="null" id="svg_153" display="inline">
     <ellipse stroke="null" id="svg_154" ry="15.76514" rx="13.82907" cy="321.48197" cx="105.26639" fill="#FECE00"/>
     <path stroke="null" id="svg_155" d="m109.09005,331.87107c-7.6373,0 -13.82922,-7.05858 -13.82922,-15.76523c0,-2.51523 0.53001,-4.88413 1.44901,-6.99337c-3.20718,2.88683 -5.27253,7.34917 -5.27253,12.36921c0,8.70724 6.19163,15.76543 13.82922,15.76543c5.43103,0 10.11796,-3.5781 12.38001,-8.77157c-2.35515,2.12015 -5.32281,3.39553 -8.5565,3.39553z" fill="#FCC000"/>
     <path stroke="null" id="svg_156" d="m114.19454,326.24874c-3.24184,3.41606 -8.78483,2.59025 -12.3805,-1.84409c-3.59587,-4.43484 -3.88293,-10.79921 -0.64157,-14.21507c3.24214,-3.41645 8.78502,-2.59055 12.38099,1.84409c3.59568,4.43474 3.88273,10.79921 0.64108,14.21507z" fill="#FFDA3E"/>
    </g>
    <g stroke="null" id="svg_157" display="inline">
     <path stroke="null" id="svg_158" d="m82.90733,293.34654c0,8.70715 -6.19163,15.76592 -13.82912,15.76592c-7.6374,0 -13.82893,-7.05878 -13.82893,-15.76592c0,-8.70665 6.19153,-15.76523 13.82893,-15.76523c7.6375,0 13.82912,7.05858 13.82912,15.76523z" fill="#FECE00"/>
     <path stroke="null" id="svg_159" d="m72.90211,303.73584c-7.6376,0 -13.82942,-7.05838 -13.82942,-15.76523c0,-2.51503 0.53001,-4.88413 1.44911,-6.99386c-3.20728,2.88693 -5.27253,7.34976 -5.27253,12.3698c0,8.70715 6.19153,15.76592 13.82893,15.76592c5.43142,0 10.11786,-3.57888 12.38001,-8.77176c-2.35525,2.11966 -5.32261,3.39514 -8.55611,3.39514z" fill="#FCC000"/>
     <path stroke="null" id="svg_160" d="m78.00622,298.1138c-3.24184,3.41576 -8.78463,2.59006 -12.3805,-1.84468c-3.59597,-4.43454 -3.88302,-10.79891 -0.64108,-14.21517c3.24165,-3.41586 8.78463,-2.59016 12.3804,1.84468c3.59577,4.43494 3.88302,10.79911 0.64118,14.21517z" fill="#FFDA3E"/>
    </g>
    <g stroke="null" id="svg_161" display="inline">
     <path stroke="null" id="svg_162" d="m203.60338,342.20773c0,8.70656 -6.19192,15.76533 -13.82952,15.76533s-13.82922,-7.05878 -13.82922,-15.76533c0,-8.70715 6.19163,-15.76494 13.82922,-15.76494s13.82952,7.05779 13.82952,15.76494z" fill="#FECE00"/>
     <path stroke="null" id="svg_163" d="m193.59757,352.59663c-7.63779,0 -13.82893,-7.05819 -13.82893,-15.76514c0,-2.51532 0.52972,-4.88363 1.44852,-6.99357c-3.20698,2.88703 -5.27253,7.34936 -5.27253,12.3698c0,8.70656 6.19163,15.76533 13.82922,15.76533c5.43123,0 10.11796,-3.57849 12.38001,-8.77157c-2.35495,2.12015 -5.32271,3.39514 -8.5563,3.39514z" fill="#FCC000"/>
     <path stroke="null" id="svg_164" d="m198.70197,346.9743c-3.24165,3.41606 -8.78483,2.59035 -12.3806,-1.84409c-3.59568,-4.43503 -3.88293,-10.79921 -0.64098,-14.21517c3.24145,-3.41616 8.78463,-2.59016 12.3804,1.84439c3.59587,4.43474 3.88293,10.79911 0.64118,14.21487z" fill="#FFDA3E"/>
    </g>
    <g stroke="null" id="svg_165" display="inline">
     <ellipse stroke="null" id="svg_166" ry="15.76533" rx="13.82932" cy="337.2471" cx="231.4378" fill="#FECE00"/>
     <path stroke="null" id="svg_167" d="m235.26112,347.63581c-7.6373,0 -13.82873,-7.05799 -13.82873,-15.76523c0,-2.51503 0.52962,-4.88393 1.44862,-6.99347c-3.20728,2.88713 -5.27253,7.34956 -5.27253,12.36999c0,8.70675 6.19163,15.76533 13.82912,15.76533c5.43103,0 10.11776,-3.5782 12.38011,-8.77157c-2.35545,2.11975 -5.32271,3.39495 -8.5566,3.39495z" fill="#FCC000"/>
     <path stroke="null" id="svg_168" d="m240.36552,342.01417c-3.24175,3.41576 -8.78463,2.59016 -12.3804,-1.84488c-3.59587,-4.43444 -3.88293,-10.79891 -0.64147,-14.21497c3.24194,-3.41576 8.78492,-2.59006 12.3806,1.84468c3.59577,4.43474 3.88302,10.79891 0.64128,14.21517z" fill="#FFDA3E"/>
    </g>
    <g stroke="null" id="svg_169" display="inline">
     <ellipse stroke="null" id="svg_170" ry="15.76523" rx="13.82917" cy="320.36469" cx="273.06949" fill="#FECE00"/>
     <path stroke="null" id="svg_171" d="m276.89354,330.75369c-7.63769,0 -13.82932,-7.05819 -13.82932,-15.76504c0,-2.51532 0.52982,-4.88432 1.44882,-6.99406c-3.20728,2.88742 -5.27272,7.34986 -5.27272,12.37009c0,8.70715 6.19182,15.76523 13.82942,15.76523c5.43123,0 10.11786,-3.5782 12.37982,-8.77127c-2.35515,2.11956 -5.32241,3.39504 -8.55601,3.39504z" fill="#FCC000"/>
     <path stroke="null" id="svg_172" d="m281.99764,325.13146c-3.24194,3.41606 -8.78492,2.59075 -12.3806,-1.84439c-3.59597,-4.43454 -3.88283,-10.79891 -0.64079,-14.21487c3.24145,-3.41606 8.78433,-2.59055 12.38001,1.84468c3.59636,4.43444 3.88332,10.79891 0.64138,14.21458z" fill="#FFDA3E"/>
    </g>
    <g stroke="null" id="svg_173" display="inline">
     <path stroke="null" id="svg_174" d="m305.25287,81.81607c0,0 7.78039,-0.82355 15.17109,9.5029c7.3914,10.3263 18.56074,-1.38145 7.05809,-12.03688c-12.88911,-11.93858 -22.22918,2.53398 -22.22918,2.53398z" fill="#6EB8E5"/>
     <path stroke="null" id="svg_175" d="m332.34791,87.95982c-1.60506,3.20025 -5.55369,4.29809 -11.86797,-1.70911c-4.24589,-4.03853 -9.40381,-5.88665 -13.34713,-6.74059c-1.21322,1.27858 -1.87994,2.30595 -1.87994,2.30595s7.78039,-0.82355 15.1708,9.5029c5.32133,7.43387 12.55639,3.43231 11.92424,-3.35915z" fill="#56ABD6"/>
     <path stroke="null" id="svg_176" d="m310.45812,78.92531c0,0 5.80735,0.94233 11.49175,6.23655c5.68459,5.29389 8.261,2.39321 6.16727,-1.5372c-2.09363,-3.93051 -9.9788,-10.52472 -17.65902,-4.69935z" fill="#7ECBF2"/>
    </g>
    <g stroke="null" id="svg_177" display="inline">
     <path stroke="null" id="svg_178" d="m112.39121,56.43952c0,0 -4.44053,-5.76257 -16.74002,-5.70988c-12.29899,0.05293 -10.9634,-13.11738 -1.41445,-15.26787c9.54857,-2.15 20.4335,8.71667 18.15446,20.97776z" fill="#6EB8E5"/>
     <path stroke="null" id="svg_179" d="m97.71909,48.0619c-8.20532,0.03496 -10.31672,-5.80774 -7.99428,-10.34457c-5.04813,4.42482 -4.03613,13.05507 5.92637,13.0123c12.29948,-0.05269 16.74002,5.70988 16.74002,5.70988c0.27124,-1.46021 0.34401,-2.89837 0.26692,-4.29902c-2.29534,-1.69993 -6.95252,-4.11282 -14.93904,-4.0786z" fill="#56ABD6"/>
     <path stroke="null" id="svg_180" d="m109.87765,47.90791c0,0 -5.78074,-2.66194 -13.07285,-2.88801c-7.29191,-0.22666 -6.81483,-7.75353 0.6891,-7.90486c7.50433,-0.15104 12.38374,10.79287 12.38374,10.79287z" fill="#7ECBF2"/>
    </g>
    <g stroke="null" id="svg_181" display="inline">
     <path stroke="null" id="svg_182" d="m90.46518,86.03191c0,0 -5.7828,-3.9201 -17.46811,0.45562c-11.68521,4.37513 -13.9782,-8.62249 -5.47718,-14.02573c8.50141,-5.40324 21.7958,1.1054 22.94529,13.57011z" fill="#6EB8E5"/>
     <path stroke="null" id="svg_183" d="m74.24222,83.22232c-7.7961,2.91895 -11.385,-1.89629 -10.40374,-7.02853c-3.60491,5.98417 -0.30679,13.83747 9.15859,10.29375c11.68531,-4.37572 17.46811,-0.45562 17.46811,-0.45562c-0.1369,-1.48432 -0.45646,-2.87765 -0.90918,-4.18319c-2.64289,-0.80995 -7.72578,-1.46762 -15.31379,1.37359z" fill="#56ABD6"/>
     <path stroke="null" id="svg_184" d="m85.76568,78.80059c0,0 -6.21883,-0.49908 -13.21642,1.84994c-6.99779,2.34872 -8.58066,-4.97875 -1.48329,-7.76153s14.69971,5.91159 14.69971,5.91159z" fill="#7ECBF2"/>
    </g>
   </g>
   <g stroke="null" id="svg_185" display="none">
    <path stroke="null" id="svg_186" d="m-412.6437,117.60858c0,0 14.08681,-27.47848 4.22252,-43.43939c-9.8641,-15.96076 -50.43438,-14.3285 -59.18483,6.89217c0,0 -12.09198,-22.6715 -33.17206,-14.50993c-21.08068,8.16191 -20.92144,42.07856 -10.73915,56.22553c0,0 -17.34191,-5.11009 -29.27416,12.22691c-11.93239,17.33671 4.17842,33.84182 4.17842,33.84182s-11.20322,5.02304 -13.08807,17.41169c-1.8847,12.38855 13.08807,33.29894 13.08807,33.29894l124.69157,-74.289l-0.7223,-27.65874z" fill="#CD2606"/>
    <path stroke="null" id="svg_187" d="m-467.60602,81.06136c0,0 -12.09198,-22.6715 -33.17236,-14.50993c-21.08038,8.16191 -20.92114,42.07856 -10.73886,56.22553c0,0 -17.34191,-5.11009 -29.27416,12.22691c-11.93239,17.33671 4.17842,33.84182 4.17842,33.84182s-11.20322,5.02304 -13.08802,17.41169c-1.88475,12.38855 13.08802,33.29894 13.08802,33.29894l4.04889,-2.41231c-0.80464,-1.55164 -1.83899,-3.23134 -3.13622,-5.05048c-16.75858,-23.4972 0.53041,-39.37886 2.75784,-41.55523c2.22729,-2.17622 -12.23678,-22.2476 -1.06061,-33.13062c11.17587,-10.88327 24.60707,-8.3433 26.51632,-10.39863c1.9091,-2.05563 -13.15215,-42.92509 8.9096,-49.09153c22.06169,-6.16703 28.74371,12.81683 31.39524,11.12407c2.65173,-1.69276 11.98562,-17.29109 37.93981,-14.99325c12.18183,1.07829 19.7114,8.60251 24.27224,16.28469c0.28715,-5.72275 -0.53571,-11.44662 -3.45131,-16.16385c-9.8641,-15.96076 -50.43414,-14.3285 -59.18483,6.89217z" fill="#B51702"/>
    <g stroke="null" id="svg_188" display="inline">
     <path stroke="null" id="svg_189" d="m-568.75466,260.85347c0,0 2.76678,-27.12951 -7.42999,-30.29485c-10.19711,-3.16524 -24.28859,13.30854 7.42999,30.29485z" fill="#CD2606"/>
     <path stroke="null" id="svg_190" d="m-568.56488,258.29582c-2.02788,-3.96463 -12.81408,-11.03745 -15.90699,-16.65635c-1.41302,-2.56668 -1.89486,-5.3503 -2.00598,-7.62355c-4.07938,5.47463 -2.42336,16.04856 17.72319,26.83755c0,0 0.09835,-0.9681 0.18978,-2.55765z" fill="#BC1A04"/>
     <path stroke="null" id="svg_191" d="m-568.75466,260.85347c0,0 17.3182,-18.8693 9.14539,-28.77719c-8.17286,-9.9079 -23.50977,2.57071 -9.14539,28.77719z" fill="#CD2606"/>
     <path stroke="null" id="svg_192" d="m-565.19085,251.56092c0,0 9.12427,-12.19666 4.76977,-17.6602c-4.35451,-5.46334 -12.44566,2.81436 -4.76977,17.6602z" fill="#E22C14"/>
     <path stroke="null" id="svg_193" d="m-567.03608,228.78523c-6.84395,1.09921 -12.22112,12.90708 -1.71859,32.06824c0,0 1.37615,-1.51452 3.15454,-3.86653c-7.21453,-14.13444 -5.63083,-24.01838 -1.43595,-28.20171z" fill="#BC1A04"/>
     <path stroke="null" id="svg_194" d="m-568.75466,260.85347c0,0 -12.71337,-16.87142 -19.98932,-14.45066c-7.2761,2.42095 -7.83337,26.78462 19.98932,14.45066z" fill="#CD2606"/>
     <path stroke="null" id="svg_195" d="m-589.41944,246.70155c-6.60664,3.64242 -6.26921,26.09207 20.66478,14.15192c0,0 -0.41978,-0.55427 -1.12823,-1.42525c-19.49044,7.01272 -22.69836,-6.18406 -19.53655,-12.72668z" fill="#BC1A04"/>
     <path stroke="null" id="svg_196" d="m-574.22109,257.40981c0,0 -7.40573,-9.83699 -12.29526,-9.05037c-4.88933,0.78682 -1.4197,15.81394 12.29526,9.05037z" fill="#E22C14"/>
     <path stroke="null" id="svg_197" d="m-575.18699,247.54758c0,0 -1.1218,-7.32864 -0.67761,-11.66626c0.44438,-4.33752 -6.06553,-3.06223 -7.99216,-1.44342c-1.92654,1.61842 1.71525,9.27222 5.16754,12.04769c3.45225,2.77557 3.69791,2.48724 3.50223,1.06199z" fill="#E22C14"/>
    </g>
    <path stroke="null" id="svg_198" d="m-348.58186,227.7584c0,0 7.16376,-0.30817 19.96104,-7.39719c12.79748,-7.08902 12.07666,34.62343 -11.17513,48.08213c0,0 -12.2549,-21.06182 -8.78591,-40.68494z" fill="#FECE00"/>
    <path stroke="null" id="svg_199" d="m-322.4837,244.85844c-11.12711,-3.75359 -14.68321,-13.05419 -15.7454,-19.90939c-6.71722,2.65242 -10.35277,2.80935 -10.35277,2.80935c-3.46899,19.62312 8.78591,40.68494 8.78591,40.68494c8.91082,-5.15772 14.51234,-14.4652 17.31226,-23.5849z" fill="#FCC000"/>
    <path stroke="null" id="svg_200" d="m-570.26491,258.67764c0,0 20.08345,-6.67057 29.64056,-50.81674c9.55701,-44.14612 44.18378,-88.04172 67.86851,-94.6734c23.68478,-6.63178 45.98447,22.7371 45.98447,22.7371s9.97232,-8.21038 14.12767,-18.31601c0,0 41.82903,9.50123 64.82116,90.25231c22.99243,80.75109 15.37448,123.0677 -73.4086,145.64747c-88.78312,22.57928 -154.85099,-45.34211 -149.03377,-94.83073z" fill="#FECE00"/>
    <path stroke="null" id="svg_201" d="m-514.49569,228.46528c0,0 22.37934,-70.24772 46.7626,-87.76356c24.38331,-17.51588 33.7826,10.78875 38.49099,12.43874c4.70854,1.65033 21.17721,-16.75416 28.64167,-15.48471c7.46446,1.26891 36.61159,28.88767 48.42555,88.12471c11.81386,59.23674 -5.1097,88.68359 -37.84357,97.18775c-32.73367,8.50406 -81.27766,2.79226 -89.29388,-5.0769c-8.01642,-7.86975 14.50021,-36.55316 15.98998,-52.99061c1.49026,-16.43823 -16.99206,-24.81472 -20.22094,-34.14429c-3.22883,-9.32937 -13.69468,-9.32937 -18.48222,-7.04473c-4.78754,2.28474 -17.57687,19.36121 -12.47016,4.75361z" fill="#FFDA3E"/>
    <path stroke="null" id="svg_202" d="m-468.08619,334.93025c-64.2747,-10.84742 -91.84878,-60.87686 -82.3338,-73.05201c9.51503,-12.17565 21.66578,-28.14485 35.34141,-68.78324c10.83893,-32.20887 42.55343,-65.54611 62.01206,-78.21175c-6.11041,-2.52131 -12.84197,-3.6134 -19.68931,-1.6962c-23.68473,6.63212 -58.3115,50.52773 -67.86851,94.67385c-9.55711,44.14617 -29.64056,50.81674 -29.64056,50.81674c-5.81722,49.48823 60.25065,117.41001 149.03377,94.83073c30.20185,-7.6812 51.01109,-17.64615 64.41813,-30.63091c-19.57608,7.20206 -63.60882,20.09666 -111.27318,12.05279z" fill="#FCC000"/>
    <path stroke="null" id="svg_203" d="m-524.91008,252.75254c0,0 8.0807,5.65444 16.09353,2.54174c8.01269,-3.11231 9.55598,-12.92387 11.51478,-11.90863c1.9587,1.01485 0.11878,8.52586 2.13665,9.87863c2.01821,1.35336 15.84773,-1.48839 18.51875,5.41335c0,0 -1.89938,-13.39751 -13.29558,-13.26199c0,0 -4.8173,-14.54494 -9.02179,-12.85621c-4.20445,1.68834 -4.4093,18.53069 -25.94634,20.1931z" fill="#FCC000"/>
    <path stroke="null" id="svg_204" d="m-491.98382,212.09353l0,-9.44791c0,0 -9.72195,-9.94698 -27.65172,-9.53855l0,10.71976c0,0 16.17666,1.27175 27.65172,8.2667z" fill="#231F20"/>
    <path stroke="null" id="svg_205" d="m-400.60043,217.82713l0,-9.44751c0,0 9.7219,-9.94738 27.65167,-9.53875l0,10.71986c0,0 -16.17652,1.27185 -27.65167,8.2664z" fill="#231F20"/>
    <ellipse stroke="null" id="svg_206" ry="7.95293" rx="7.8589" cy="225.78045" cx="-360.03378" fill="#FF9999"/>
    <ellipse stroke="null" id="svg_207" ry="7.95293" rx="7.8588" cy="225.78045" cx="-528.75412" fill="#FF9999"/>
    <path stroke="null" id="svg_208" d="m-524.91008,252.75254c0,0 12.30773,0.91468 17.83731,-4.47363c5.52943,-5.3888 5.44021,-11.99731 8.38336,-13.42088c2.94301,-1.42319 6.3653,6.609 6.70558,13.01392c0,0 11.04236,-3.76184 13.45049,11.59093c2.40784,15.35238 -23.18845,40.46506 -23.18845,40.46506s19.97774,-9.86174 26.22067,-31.72138c6.24299,-21.85974 -10.73719,-25.71664 -13.7346,-24.1977c0,0 -3.00242,-15.55596 -10.28604,-14.03084s1.45663,15.35218 -25.38834,22.77451z" fill="#F99300"/>
    <g stroke="null" id="svg_209" display="inline">
     <ellipse stroke="null" id="svg_210" ry="10.81109" rx="12.19764" cy="229.7829" cx="-445.5973" fill="#660000"/>
     <path stroke="null" id="svg_211" d="m-441.4399,236.13548c-6.73627,0 -12.19735,-4.83993 -12.19735,-10.81079c0,-1.56912 0.37784,-3.06016 1.056,-4.40567c-3.15213,1.95447 -5.2137,5.19573 -5.2137,8.86388c0,5.97096 5.46098,10.81109 12.19774,10.81109c4.96613,0 9.23878,-2.63091 11.1416,-6.40552c-1.97834,1.22697 -4.38618,1.94701 -6.98429,1.94701z" fill="#540000"/>
     <path stroke="null" id="svg_212" d="m-457.65456,225.25791c0,0 5.43947,15.07328 13.59873,13.8905c8.15921,-1.18308 9.5415,-16.56305 9.5415,-16.56305l4.27192,3.42676c0,0 1.25418,23.58019 -13.29366,25.70142c-14.54794,2.12142 -18.84209,-25.37498 -18.84209,-25.37498l4.72361,-1.08065z" fill="#FF8B00"/>
     <g stroke="null" id="svg_213">
      <g stroke="null" id="svg_214">
       <g stroke="null" id="svg_215">
        <path stroke="null" id="svg_216" d="m-442.033,248.29777c-11.58558,1.68942 -16.66828,-15.40482 -18.25772,-22.43689l-2.08745,0.47767c0,0 4.29416,27.4964 18.8419,25.37498c6.09087,-0.88846 9.41137,-5.53768 11.21402,-10.64345c-1.97682,3.63241 -5.02343,6.54399 -9.71075,7.22769z" fill="#FF7300"/>
       </g>
       <path stroke="null" id="svg_217" d="m-455.92405,232.45181c0,0 3.94479,9.93206 11.77094,8.80172c7.8261,-1.13034 9.32392,-10.86972 11.22247,-10.1485c1.89855,0.72151 -0.31647,13.87587 -9.49279,14.7659c-9.17622,0.88954 -13.817,-10.60535 -14.47094,-13.65972c-0.65404,-3.05417 0.35634,-1.05649 0.97031,0.2406z" fill="#FFA039"/>
      </g>
     </g>
     <path stroke="null" id="svg_218" d="m-429.2421,226.96461c0,3.80927 -7.62915,-0.83425 -17.04003,-0.83425c-9.41108,0 -17.04023,4.64352 -17.04023,0.83425c0,-3.80868 7.62915,-19.10371 17.04023,-19.10371c9.41088,0 17.04003,15.29503 17.04003,19.10371z" fill="#FF8B00"/>
     <path stroke="null" id="svg_219" d="m-429.2421,226.96461c0,-0.4266 -0.09634,-0.99835 -0.27979,-1.67626c-10.62636,-6.20852 -26.64929,0.39341 -26.90673,-4.15918c-0.17107,-3.02864 2.17362,-7.82949 4.23455,-11.31812c-6.4968,4.24619 -11.12829,14.1861 -11.12829,17.15356c0,3.80908 7.6293,-0.83425 17.04023,-0.83425c9.41073,0 17.04003,4.64333 17.04003,0.83425z" fill="#FF7300"/>
     <path stroke="null" id="svg_220" d="m-452.45108,217.58122c0,0 1.88274,-7.00093 6.45526,-7.10316c4.57237,-0.10233 11.29656,7.33326 11.47574,8.99439c0.17927,1.66065 -4.0569,-0.10272 -9.68267,0.4598c-5.62597,0.56212 -9.01045,0.61329 -8.24833,-2.35103z" fill="#FFA039"/>
     <path stroke="null" id="svg_221" d="m-448.91364,227.61954c0,0 8.09562,-0.3832 9.41692,1.04097c1.3212,1.42397 1.71736,4.73721 -2.93083,5.69608c-4.64834,0.95848 -10.81011,-6.58621 -6.48609,-6.73706z" fill="#770101"/>
    </g>
    <path stroke="null" id="svg_222" d="m-528.75421,267.85342c0,0 16.65242,-7.01488 27.05276,-9.17578c10.40049,-2.1611 16.85315,2.07939 16.70132,7.96442c-0.15173,5.88523 -16.8531,26.04945 -27.02576,31.67483c-10.17271,5.62518 -31.10293,-24.98432 -16.72833,-30.46347z" fill="#FFDA3E"/>
    <g stroke="null" id="svg_223" display="inline">
     <path stroke="null" id="svg_224" d="m-526.71057,319.42349c0,0 9.54955,-7.92543 17.77456,-0.36846c8.22496,7.55746 4.33423,31.09483 -4.15927,33.73085c-8.4935,2.63621 -26.64497,-22.0094 -13.61528,-33.36238z" fill="#FF8B00"/>
     <path stroke="null" id="svg_225" d="m-519.41527,323.11708c0,0 4.31134,-3.84688 9.68826,1.99729c5.37677,5.84467 1.365,21.91944 -3.29974,23.08671c-4.14508,1.03734 -16.10213,-17.99566 -6.38853,-25.084z" fill="#FFA039"/>
     <path stroke="null" id="svg_226" d="m-522.17846,320.70448c0,0 4.78592,-3.97062 10.49988,-3.60903c-7.46421,-3.95226 -15.03199,2.32765 -15.03199,2.32765c-12.56194,10.94543 3.85788,34.24456 12.66436,33.5421c-8.68726,-4.97585 -18.73711,-23.02081 -8.13225,-32.26072z" fill="#FF7300"/>
    </g>
    <g stroke="null" id="svg_227" display="inline">
     <path stroke="null" id="svg_228" d="m-367.04743,303.92852c0,0 11.303,-3.90915 16.894,6.30878c5.59091,10.21783 -4.86635,30.99211 -13.64784,30.30143c-8.78168,-0.69126 -18.82451,-30.76653 -3.24616,-36.61022z" fill="#FF8B00"/>
     <path stroke="null" id="svg_229" d="m-361.22133,310.14941c0,0 5.18041,-2.0189 8.57476,5.5145c3.39445,7.5332 -5.02672,21.21414 -9.76923,20.56981c-4.21358,-0.57244 -10.0228,-23.0271 1.19447,-26.08432z" fill="#FFA039"/>
     <path stroke="null" id="svg_230" d="m-363.13652,306.83617c0,0 5.66476,-1.95821 10.95722,0.52274c-5.91086,-6.52758 -14.86813,-3.4304 -14.86813,-3.4304c-15.01888,5.63372 -6.22384,33.78879 2.29633,36.42314c-6.77153,-7.95313 -11.06406,-28.75991 1.61459,-33.51548z" fill="#FF7300"/>
    </g>
    <path stroke="null" id="svg_231" d="m-333.58154,226.05278c0,0 5.1262,-3.79641 8.20159,-2.71547c3.07568,1.08133 2.99702,10.08192 0.99904,13.07412c-1.99768,2.99152 -13.35401,-6.15981 -9.20063,-10.35866z" fill="#FFDA3E"/>
    <path stroke="null" id="svg_232" d="m-574.65874,196.66259c0,0 13.53603,-4.25777 13.53603,-15.43124c0,0 3.14344,15.43124 13.53603,15.43124c0,0 -13.53603,5.05461 -13.53603,15.43094c0,0 -2.49828,-15.43094 -13.53603,-15.43094z" fill="#F98E00"/>
    <path stroke="null" id="svg_233" d="m-458.21733,89.48244c0,0 13.13771,-10.5343 28.83607,-9.39203c15.69845,1.14222 17.81389,16.11911 17.03443,22.21141c-0.77916,6.09234 -11.41191,21.44983 -12.80357,22.59254c-1.39166,1.14227 -24.15994,-21.06933 -45.8705,-16.75411c-21.71061,4.31527 -53.71973,49.43691 -57.33829,58.1308c-3.61831,8.69428 -8.29454,-20.18058 -0.77931,-26.90752c7.51533,-6.72709 20.70863,-7.04414 24.49394,-11.04226c3.78551,-3.99817 -8.29459,-32.68281 5.45543,-43.28084c13.75012,-10.59808 26.99914,8.88445 29.83815,9.26539c2.8391,0.38045 8.52542,-2.99535 11.13364,-4.82339z" fill="#E22C14"/>
    <path stroke="null" id="svg_234" d="m-533.69707,177.66631c-0.10218,0.32835 -5.25141,17.95491 -6.05542,18.99627c-0.80381,1.04107 -2.30423,-6.7783 0.268,-13.37591c2.57218,-6.59756 7.46839,-11.01806 5.78741,-5.62037z" fill="#E22C14"/>
   </g>
  </g>
 </g>
</svg>