<svg width="400" height="400" xmlns="http://www.w3.org/2000/svg">

 <g>
  <title>background</title>
  <rect fill="none" id="canvas_background" height="402" width="402" y="-1" x="-1"/>
 </g>
 <g>
  <title>Layer 1</title>
  <g stroke="null" id="svg_1">
   <g stroke="null" id="svg_2" display="none">
    <path stroke="null" id="svg_3" d="m941.67163,174.23354c0,0 -11.26685,-16.83271 -7.29129,-25.13352c3.97582,-8.30063 31.77769,-5.98523 38.67257,5.67957c6.89463,11.66492 -16.13899,17.50057 -31.38128,19.45396z" fill="#CD2606"/>
    <path stroke="null" id="svg_4" d="m941.67163,174.23354c7.8526,-1.0064 17.7735,-3.04331 24.60432,-6.37691c-2.26167,-0.48696 -5.05681,-0.87411 -7.78355,-0.68772c-6.12096,0.41887 -10.91831,1.59093 -13.62654,0c-2.70887,-1.59073 -6.64078,-6.66605 -6.81563,-13.87458c-0.08589,-3.53825 1.55449,-6.44424 3.2472,-8.48677c-3.3553,0.75887 -5.90629,2.18235 -6.91709,4.29246c-3.97556,8.30082 7.29129,25.13352 7.29129,25.13352z" fill="#BC1A04"/>
    <path stroke="null" id="svg_5" d="m941.67163,174.23354c0,0 -3.59498,-19.23093 -17.69731,-18.65929c-14.10246,0.57158 -12.91528,29.40996 17.69731,18.65929z" fill="#CD2606"/>
    <path stroke="null" id="svg_6" d="m918.47898,157.7058c-7.49103,6.58616 -2.56899,25.57473 23.19264,16.52774c0,0 -0.19144,-1.02324 -0.65868,-2.58999c-19.48523,5.48679 -25.49988,-6.34731 -22.53397,-13.93776z" fill="#BC1A04"/>
    <g stroke="null" id="svg_7" display="inline">
     <path stroke="null" id="svg_8" d="m936.47787,314.01612c0,0 21.73605,13.96947 21.345,19.55695c-0.39118,5.58774 -14.69567,5.19643 -19.44541,3.91149c-4.74949,-1.2852 -17.76878,-14.41616 -17.76878,-14.41616l15.86919,-9.05228z" fill="#FF8B00"/>
    </g>
    <path stroke="null" id="svg_9" d="m957.82287,333.57308c0.02706,-0.3839 -0.05143,-0.80737 -0.21913,-1.26325c-3.15926,1.32833 -7.21153,2.72253 -9.54913,2.32076c-4.23094,-0.72721 -16.29533,-10.47787 -16.26241,-10.77549c0,0 -6.54442,-1.91695 -8.59359,-0.72721c-0.63073,0.36629 -0.91291,0.90155 -0.99051,1.51875c3.62497,3.52861 12.44268,11.82943 16.16937,12.83794c4.74974,1.28494 19.05423,1.67625 19.44541,-3.91149z" fill="#FF7300"/>
    <g stroke="null" id="svg_10" display="inline">
     <path stroke="null" id="svg_11" d="m928.3736,324.60732c0,0 21.7363,13.96947 21.34525,19.55695c-0.39105,5.58799 -14.69592,5.19669 -19.44515,3.91149c-4.74949,-1.2852 -17.76891,-14.41642 -17.76891,-14.41642l15.86881,-9.05203z" fill="#FF8B00"/>
     <path stroke="null" id="svg_12" d="m930.84432,344.50861c-3.56894,-0.96588 -11.80646,-8.61963 -15.68183,-12.36546l-2.65769,1.5162c0,0 13.01942,13.13122 17.76891,14.41642c4.74923,1.2852 19.0541,1.6765 19.44515,-3.91149c0.03267,-0.46711 -0.0901,-0.99344 -0.34127,-1.56495c-3.28306,3.45868 -14.44577,3.01504 -18.53326,1.90929z" fill="#FF7300"/>
     <path stroke="null" id="svg_13" d="m926.71688,336.74331c0,0 4.65185,-5.94509 6.10131,-5.91497c1.45009,0.03037 12.56558,8.75951 12.02189,10.08861c-0.54356,1.3291 -8.21569,2.0239 -11.84041,1.26861c-3.62446,-0.75504 -7.18626,-4.32807 -6.28279,-5.44224z" fill="#FFA039"/>
    </g>
    <path stroke="null" id="svg_14" d="m761.97562,325.96042c0,0 -16.1395,13.5894 -15.85005,17.35182c0.28933,3.76268 34.64915,0 34.64915,0l-18.79911,-17.35182z" fill="#FF8B00"/>
    <path stroke="null" id="svg_15" d="m765.80161,344.5908c0.85561,-1.26248 -0.82536,-1.92665 -0.82536,-1.92665l0,-7.74182c0,0 -6.98078,8.40598 -8.21263,8.64745c-1.2321,0.24147 -7.77781,0.12073 -8.59895,-0.90564c-0.34689,-0.43316 -0.46941,-1.50982 -0.49557,-2.60945c-0.99944,1.35488 -1.60146,2.50352 -1.54402,3.25728c0.15775,2.04508 10.37717,1.86717 19.67654,1.27882z" fill="#FF7300"/>
    <path stroke="null" id="svg_16" d="m768.22319,333.24916c-0.2892,0.34714 -15.44534,15.0982 -12.84202,18.85833c2.60307,3.76013 42.98048,-2.02466 42.69153,-2.19824c-0.28933,-0.17332 -29.84951,-16.66009 -29.84951,-16.66009z" fill="#FF8B00"/>
    <path stroke="null" id="svg_17" d="m757.95386,348.77031c-0.80749,-1.20428 0.09495,-3.50079 1.73202,-6.10615c-3.04976,3.83058 -5.47683,7.75049 -4.30471,9.44333c2.60307,3.76013 42.98048,-2.02466 42.69153,-2.19824c-0.06726,-0.04033 -1.71402,-0.96103 -4.20223,-2.35062c-11.55031,1.5795 -33.99749,4.0723 -35.91661,1.21168z" fill="#FF7300"/>
    <path stroke="null" id="svg_18" d="m743.27657,240.48094c0,0 -24.63929,90.26572 52.01923,113.50495c76.65878,23.23846 128.73646,-8.50757 146.37582,-40.3723c17.63898,-31.86473 17.07909,-120.06093 0,-139.38005c0,0 -36.67854,5.31979 -64.39707,-5.03971c-27.71892,-10.3595 -87.12337,-15.89867 -133.99798,71.28711z" fill="#FECE00"/>
    <path stroke="null" id="svg_19" d="m778.06165,261.66762c0,0 9.08457,2.26945 19.10401,-5.74599c10.01956,-8.01602 2.53823,-26.85271 6.41259,-29.92545c3.87448,-3.07267 15.49805,-16.03134 17.56815,-23.51254c2.07048,-7.48139 15.16278,-14.96279 27.05245,-22.17687c11.89005,-7.21414 52.77018,6.04222 72.40856,4.55747c19.63863,-1.48481 20.84075,15.2144 22.71137,35.05335c1.86998,19.83888 -4.40885,80.22376 -21.37537,96.12141s-32.86443,1.2025 -49.69707,4.00798c-16.83315,2.80548 -12.29093,10.48655 -37.13966,11.78936c-24.84847,1.30307 -47.96045,-13.12535 -57.44577,-35.56921c-9.48506,-22.44412 -6.2722,-35.00025 0.40075,-34.59951z" fill="#FFDA3E"/>
    <path stroke="null" id="svg_20" d="m813.41135,341.09588c-76.65852,-23.23897 -52.01885,-113.50476 -52.01885,-113.50476c12.61306,-23.46053 26.13341,-40.20658 39.69984,-51.95171c-19.43226,11.02405 -39.57272,30.91015 -57.81576,64.84153c0,0 -24.63929,90.26547 52.01923,113.5047c59.704,18.09921 104.49664,2.84556 129.72314,-19.84054c-26.27125,14.67805 -64.24826,21.30773 -111.6076,6.95079z" fill="#FCC000"/>
    <g stroke="null" id="svg_21" display="inline">
     <path stroke="null" id="svg_22" d="m743.27657,240.48094c0,0 8.35595,-5.41978 16.71178,2.8379c8.35608,8.25743 18.48132,8.74898 29.09805,2.35917c10.61685,-6.38981 7.47137,-23.49461 0,-26.93535c0,0 13.17296,-1.76941 18.08823,-12.3862c4.91502,-10.61692 0,-19.07114 0,-19.07114s16.71165,1.2778 19.46417,-9.43727c2.75239,-10.71506 -10.61685,-27.03363 -40.69788,-14.94211c-30.08115,12.09126 -50.43028,39.83914 -42.66435,77.57501z" fill="#CD2606"/>
     <g stroke="null" id="svg_23">
      <path stroke="null" id="svg_24" d="m795.2958,216.95723c-8.273,-0.71324 -14.17201,-5.58442 -14.17201,-5.58442c2.98863,5.45762 7.96312,7.36985 7.96312,7.36985s2.75188,-0.37044 6.2089,-1.78543z" fill="#9B0D02"/>
      <path stroke="null" id="svg_25" d="m805.16311,182.39595c-0.25998,2.59866 2.01126,4.88937 2.01126,4.88937s1.73444,0.13235 4.17759,-0.04588c-4.72856,-1.89257 -6.18886,-4.84348 -6.18886,-4.84348z" fill="#9B0D02"/>
     </g>
     <path stroke="null" id="svg_26" d="m760.55655,189.70575c11.17216,-15.59543 28.66144,-25.50517 40.78249,-30.85374c-4.52716,0.47477 -9.65812,1.7465 -15.39812,4.05367c-30.08115,12.0917 -50.43028,39.8394 -42.66435,77.57526c0,0 8.35595,-5.41978 16.71178,2.83777c8.35608,8.25755 18.48132,8.74911 29.09855,2.3593c-34.1426,-3.43691 -46.80901,-30.45663 -28.53036,-55.97226z" fill="#BC1A04"/>
     <path stroke="null" id="svg_27" d="m778.42424,205.04446c0,0 8.70961,8.4174 18.70518,3.97486c9.99557,-4.44242 5.49661,-20.10377 4.20963,-26.62337c-1.28673,-6.51979 9.58551,1.1376 16.59998,-1.20052c7.01422,-2.33805 2.57193,-18.93886 -13.79513,-18.93886c-16.36719,0 -41.5605,28.52519 -45.59388,40.68358s3.27362,28.17461 13.67797,33.6693c10.40487,5.4947 20.75103,0.7015 17.88684,-6.31304c-2.86419,-7.01441 -10.17055,-13.09357 -13.79488,-20.5756c-3.62421,-7.48216 0.25398,-6.16308 2.1043,-4.67636z" fill="#E22C14"/>
    </g>
    <g stroke="null" id="svg_28" display="inline">
     <g stroke="null" id="svg_29">
      <path stroke="null" id="svg_30" d="m793.92956,313.61359c-0.01123,0 -0.02259,0 -0.03535,0c-7.25888,-0.02017 -12.47982,-6.48419 -12.69755,-6.75909c-0.66723,-0.83902 -0.52773,-2.05785 0.30988,-2.72763c0.83812,-0.66417 2.06193,-0.53016 2.73044,0.30375c0.04288,0.05335 4.30854,5.2919 9.68761,5.29445c0.00153,0 0.00383,0 0.00498,0c3.11,0 6.12147,-1.78192 8.94891,-5.2993c0.67323,-0.83544 1.89717,-0.96562 2.73376,-0.29609c0.83659,0.67336 0.96958,1.89602 0.29622,2.73401c-3.60225,4.4779 -7.63244,6.7499 -11.97888,6.7499z"/>
     </g>
    </g>
    <ellipse stroke="null" id="svg_31" ry="71.55964" rx="79.69286" cy="1785.59366" cx="6089.87334" fill="#FF9999" transform="matrix(0.1298830818182824,-0.014494983102955095,0.014494983102955095,0.1298830818182824,1.7966652059648318,178.5132648084729) "/>
    <g stroke="null" id="svg_32" display="inline">
     <path stroke="null" id="svg_33" d="m911.36841,358.57636c0,0 -17.85837,-18.98723 -26.92457,-23.80487c-9.06607,-4.81764 -22.76318,-5.10097 -28.05266,10.01305c-5.2905,15.11402 10.67403,31.64521 54.97722,13.79182z" fill="#FECE00"/>
     <path stroke="null" id="svg_34" d="m900.81575,352.98402c0,0 -13.58685,-13.06128 -18.8522,-15.85911c-5.26535,-2.79808 -13.22056,-2.96246 -16.29278,5.81517c-3.07235,8.77814 9.41474,20.41256 35.14498,10.04394z" fill="#FFDA3E"/>
     <path stroke="null" id="svg_35" d="m862.05856,338.82439c0.59129,-1.68901 1.28788,-3.1853 2.07074,-4.50521c-3.20368,2.01012 -5.95096,5.35852 -7.73811,10.46511c-5.2905,15.11428 10.67403,31.64547 54.97722,13.79207c0,0 -1.04347,-1.10933 -2.75367,-2.8596c-37.89967,12.57069 -51.49596,-2.77792 -46.55618,-16.89237z" fill="#FCC000"/>
    </g>
    <path stroke="null" id="svg_36" d="m759.9895,346.61062c0,0 3.87052,-5.98032 5.31589,-6.17967c1.44524,-0.19961 9.70139,5.96372 9.63502,6.84409c-0.06649,0.88037 -16.83034,2.03385 -14.95092,-0.66442z" fill="#FFA039"/>
    <path stroke="null" id="svg_37" d="m749.95667,339.34893c0,0 5.94177,-6.49491 6.8737,-6.6113c0.9318,-0.11691 4.79109,2.83969 4.71835,3.55312c-0.073,0.71369 -4.39277,4.9953 -5.46585,5.59208c-1.07308,0.59729 -8.09215,0.14575 -6.12619,-2.53389z" fill="#FFA039"/>
    <path stroke="null" id="svg_38" d="m937.29966,324.42022c0.07772,-0.12303 2.62247,-4.35716 3.67104,-4.6798c1.04909,-0.32264 13.53503,9.48315 13.23243,10.77269c-0.30247,1.28979 -4.88133,2.19747 -6.4145,1.89474c-1.53292,-0.30273 -11.25409,-6.77645 -10.48897,-7.98762z" fill="#FFA039"/>
    <path stroke="null" id="svg_39" d="m936.75048,168.50822c0,0 -4.31913,-10.54519 -12.92791,-10.24725c-8.60904,0.29788 -3.21721,16.32405 12.92791,10.24725z" fill="#E22C14"/>
    <path stroke="null" id="svg_40" d="m941.67163,174.23354c0,0 10.15115,-7.18077 22.53818,-4.35104c12.38665,2.82973 15.26258,24.07665 7.44968,27.12583c-7.81329,3.04899 -11.51956,-2.42107 -14.44131,-8.32864c-2.92213,-5.90757 -7.91169,-13.81421 -15.54655,-14.44616z" fill="#CD2606"/>
    <path stroke="null" id="svg_41" d="m966.29943,193.55247c-4.9616,-2.43632 -5.03856,-6.1789 -11.60762,-14.23851c-2.28923,-2.80823 -4.78037,-6.2498 -6.05804,-8.43412c-4.2834,1.45915 -6.96215,3.3537 -6.96215,3.3537c7.63487,0.63194 12.62442,8.53859 15.54655,14.44616c2.92175,5.90757 6.62802,11.37744 14.44105,8.32864c1.74976,-0.68299 2.96297,-2.27896 3.65381,-4.37573c-2.72725,1.18539 -6.3161,2.24482 -9.01361,0.91987z" fill="#BC1A04"/>
    <path stroke="null" id="svg_42" d="m954.05981,172.48257c0,0 8.65141,-1.65672 13.62156,1.84082c4.97002,3.49728 6.28904,12.82364 4.78586,15.83014c-1.50331,3.00669 -8.19157,-0.79773 -10.67646,-4.96996c-2.48476,-4.17223 -10.10788,-12.40605 -7.73097,-12.70099z" fill="#E22C14"/>
    <path stroke="null" id="svg_43" d="m941.9533,154.92105c-0.01468,-0.20995 -0.2804,-5.99499 2.80472,-7.57252c3.08473,-1.57778 21.21724,-0.28773 26.46894,8.2132c2.24367,3.63193 -2.48923,7.0622 -4.03184,7.97856c-1.54249,0.91661 -7.08173,1.19688 -12.12999,1.40734c-5.04852,0.21039 -12.34083,0.94654 -13.11182,-10.02658z" fill="#E22C14"/>
    <g stroke="null" id="svg_44" display="inline">
     <path stroke="null" id="svg_45" d="m866.4595,58.2012l-21.4277,21.62195l17.26644,3.07605l-1.52016,9.58748l-29.61098,-3.05391l0.54407,-13.12784l24.34664,-20.42162l-19.8316,-0.6239l1.78001,-13.28661l29.57167,4.26132l-1.11839,11.96708z"/>
     <path stroke="null" id="svg_46" d="m877.3117,90.22897c-0.09508,0.66085 -0.31154,1.25846 -0.64898,1.79238c-0.3377,0.5338 -0.75159,0.98413 -1.24129,1.35048c-0.4897,0.36642 -1.03773,0.63232 -1.64434,0.79792c-0.60635,0.1656 -1.23262,0.20184 -1.87828,0.1088c-0.66098,-0.09534 -1.25903,-0.3079 -1.79392,-0.63807c-0.53501,-0.33004 -0.98591,-0.73985 -1.35207,-1.22968c-0.36654,-0.4897 -0.63264,-1.03786 -0.79805,-1.6444c-0.16579,-0.60635 -0.20076,-1.24015 -0.10567,-1.90099c0.09304,-0.64592 0.30579,-1.24359 0.638,-1.79379c0.33221,-0.55001 0.74317,-1.00838 1.23325,-1.37466c0.48932,-0.36635 1.03798,-0.63609 1.64561,-0.80921c0.60763,-0.17319 1.24181,-0.21205 1.90278,-0.11691c0.64579,0.09323 1.23581,0.30854 1.76992,0.64611c0.53399,0.33757 0.984,0.75127 1.35029,1.24097c0.36654,0.48977 0.6352,1.04596 0.80609,1.66852c0.17064,0.62263 0.20969,1.2568 0.11665,1.90253z"/>
     <path stroke="null" id="svg_47" d="m894.40993,92.69299c-0.09534,0.66085 -0.31166,1.25814 -0.64924,1.79219c-0.3377,0.53399 -0.75108,0.98413 -1.24078,1.35054c-0.48983,0.36635 -1.03811,0.63245 -1.64434,0.79786c-0.60661,0.16566 -1.23287,0.20197 -1.87879,0.10893c-0.66098,-0.09527 -1.25891,-0.30803 -1.79379,-0.638c-0.53514,-0.33004 -0.98591,-0.74011 -1.35207,-1.22981c-0.36654,-0.4897 -0.63226,-1.03773 -0.79818,-1.64434c-0.1654,-0.60648 -0.20063,-1.24015 -0.10555,-1.90106c0.09329,-0.64585 0.30618,-1.24378 0.638,-1.79385c0.33221,-0.55001 0.74355,-1.00825 1.23325,-1.37473c0.4897,-0.36629 1.03837,-0.63596 1.646,-0.80909c0.6075,-0.17313 1.2418,-0.21212 1.90265,-0.11691c0.64566,0.09304 1.23555,0.30847 1.76954,0.64604c0.53412,0.33757 0.984,0.75127 1.3508,1.24098c0.36616,0.48983 0.63481,1.04596 0.80571,1.66852c0.17102,0.62263 0.20995,1.2568 0.11678,1.90272z"/>
     <path stroke="null" id="svg_48" d="m911.96289,95.22223c-0.09546,0.66098 -0.31179,1.2584 -0.64936,1.79238c-0.3377,0.53386 -0.75108,0.98394 -1.24117,1.35061c-0.4897,0.36609 -1.03773,0.6322 -1.64434,0.79779c-0.60622,0.1656 -1.23249,0.2019 -1.87841,0.10874c-0.66098,-0.09521 -1.25891,-0.30777 -1.79379,-0.63794c-0.53514,-0.33004 -0.98591,-0.73991 -1.35207,-1.22962c-0.36654,-0.48989 -0.63252,-1.03798 -0.79818,-1.64434c-0.1654,-0.60648 -0.20063,-1.24021 -0.10529,-1.90106c0.09304,-0.64592 0.30541,-1.24391 0.63775,-1.79404c0.33221,-0.54994 0.74355,-1.00806 1.23325,-1.37466c0.4897,-0.36622 1.03837,-0.63603 1.646,-0.80909c0.60725,-0.173 1.24142,-0.21205 1.9024,-0.11678c0.64592,0.09304 1.23581,0.30841 1.76979,0.64592c0.53412,0.33757 0.98425,0.7514 1.35041,1.2411c0.36654,0.4897 0.6352,1.04571 0.80609,1.66852c0.17102,0.62237 0.20995,1.25667 0.11691,1.90246z"/>
    </g>
    <g stroke="null" id="svg_49" display="inline">
     <path stroke="null" id="svg_50" d="m788.47609,91.21182l-14.66223,20.8195l14.67065,0.13197l0.08155,8.11984l-24.84936,1.60605l-1.38015,-10.90389l17.23671,-20.23631l-16.44466,2.24833l-0.38275,-11.20719l24.98529,-0.60495l0.74496,10.02665z"/>
     <path stroke="null" id="svg_51" d="m801.88898,116.11741c0.01378,0.5583 -0.08181,1.08138 -0.28588,1.56878c-0.20382,0.4874 -0.48255,0.91636 -0.83531,1.28679c-0.35301,0.37056 -0.76818,0.66621 -1.24512,0.88732c-0.4772,0.22105 -0.98872,0.33821 -1.5342,0.35142c-0.55837,0.01346 -1.08151,-0.07862 -1.56853,-0.27625c-0.48741,-0.19769 -0.91623,-0.47311 -1.28673,-0.82593c-0.3705,-0.35295 -0.66621,-0.76812 -0.88726,-1.24519c-0.22118,-0.47707 -0.33834,-0.99497 -0.35187,-1.55328c-0.01302,-0.54567 0.07887,-1.06862 0.27618,-1.56866c0.19744,-0.49991 0.4726,-0.93525 0.82536,-1.30555c0.3534,-0.37044 0.76818,-0.6694 1.24512,-0.89683c0.4772,-0.22737 0.99497,-0.34785 1.55321,-0.36131c0.54573,-0.01314 1.06198,0.08219 1.54938,0.28627c0.48792,0.20407 0.91648,0.48262 1.28724,0.83557c0.37012,0.35282 0.66953,0.77399 0.89721,1.26376c0.22781,0.4897 0.34804,1.00748 0.36118,1.55309z"/>
     <path stroke="null" id="svg_52" d="m816.33527,115.76771c0.01378,0.55849 -0.08155,1.08138 -0.28563,1.56878s-0.48281,0.91636 -0.83557,1.28679c-0.35301,0.37044 -0.7678,0.66621 -1.24525,0.8872c-0.47707,0.22111 -0.98859,0.33834 -1.53407,0.35148c-0.55837,0.01359 -1.08112,-0.07862 -1.56853,-0.27644c-0.4874,-0.19744 -0.91623,-0.47286 -1.28673,-0.82581c-0.37037,-0.35289 -0.66621,-0.7678 -0.88726,-1.24506c-0.22118,-0.47732 -0.33834,-0.99504 -0.35174,-1.55334c-0.01315,-0.54573 0.07913,-1.06862 0.27606,-1.56846c0.19744,-0.50004 0.47273,-0.93518 0.82574,-1.30581c0.35289,-0.37031 0.7678,-0.66934 1.24474,-0.8967c0.47719,-0.22743 0.99485,-0.34797 1.55321,-0.36144c0.54573,-0.01308 1.06236,0.08226 1.54977,0.28639c0.48753,0.20407 0.91636,0.48255 1.28686,0.83531c0.3705,0.35308 0.66953,0.77444 0.89721,1.26414c0.22769,0.48958 0.34817,1.00729 0.36118,1.55296z"/>
     <path stroke="null" id="svg_53" d="m831.16583,115.40857c0.01353,0.55849 -0.08155,1.08151 -0.28563,1.56891s-0.48281,0.91636 -0.83583,1.28667c-0.35289,0.37063 -0.7678,0.66621 -1.24512,0.88732c-0.47694,0.22098 -0.98847,0.33821 -1.5342,0.35161c-0.55824,0.01346 -1.08125,-0.07862 -1.5684,-0.27631c-0.4874,-0.19782 -0.9161,-0.47311 -1.28686,-0.82606c-0.37012,-0.35289 -0.66621,-0.76793 -0.88726,-1.24519c-0.22092,-0.47707 -0.33821,-0.99491 -0.35187,-1.55334c-0.01302,-0.5456 0.079,-1.06849 0.27644,-1.5684c0.19744,-0.5001 0.47273,-0.93531 0.82549,-1.30575c0.35301,-0.37044 0.7678,-0.66934 1.245,-0.8967c0.47694,-0.22743 0.99472,-0.34797 1.55296,-0.36144c0.54573,-0.01321 1.06249,0.08219 1.54989,0.28633c0.48741,0.20407 0.91623,0.48249 1.28673,0.83551c0.37037,0.35282 0.66966,0.77418 0.89734,1.26376c0.22769,0.4897 0.34829,1.00748 0.36131,1.55309z"/>
    </g>
    <g stroke="null" id="svg_54" display="inline">
     <path stroke="null" id="svg_55" d="m873.11202,123.76012l-15.29398,15.43207l12.32373,2.19549l-1.08508,6.84313l-21.13403,-2.17999l0.38849,-9.36963l17.37671,-14.5755l-14.15427,-0.44516l1.27001,-9.48309l21.10634,3.0414l-0.79792,8.54127z"/>
     <path stroke="null" id="svg_56" d="m880.85716,146.61915c-0.0679,0.47183 -0.22245,0.89811 -0.46328,1.27939c-0.24096,0.38096 -0.53616,0.70226 -0.88573,0.96371c-0.34944,0.26163 -0.74062,0.45135 -1.17352,0.56953c-0.43278,0.11825 -0.87986,0.14403 -1.34072,0.07779c-0.47171,-0.06809 -0.89874,-0.21977 -1.28048,-0.45543c-0.38186,-0.23553 -0.70348,-0.52812 -0.96524,-0.87762c-0.26138,-0.34957 -0.45103,-0.74081 -0.56921,-1.17365c-0.11831,-0.43291 -0.1432,-0.88522 -0.0753,-1.35686c0.06637,-0.46092 0.21811,-0.88771 0.45499,-1.28028c0.23764,-0.39271 0.5308,-0.71975 0.88011,-0.98113c0.34944,-0.26157 0.74151,-0.45416 1.17493,-0.57764c0.43367,-0.12354 0.88624,-0.15124 1.35794,-0.08321c0.46086,0.06617 0.88203,0.22009 1.26312,0.46099c0.38096,0.24089 0.7022,0.53609 0.96396,0.88573c0.26138,0.3495 0.4532,0.74636 0.57521,1.19095c0.12201,0.4442 0.14971,0.89683 0.08321,1.35775z"/>
     <path stroke="null" id="svg_57" d="m893.06092,148.37778c-0.06841,0.47177 -0.22258,0.89811 -0.46367,1.27926c-0.24083,0.38103 -0.53629,0.70226 -0.88573,0.9639c-0.34957,0.26144 -0.74074,0.45122 -1.17365,0.56947c-0.43278,0.11812 -0.87973,0.14396 -1.34072,0.07766c-0.47171,-0.06809 -0.89836,-0.21965 -1.28009,-0.45544c-0.38224,-0.23553 -0.70386,-0.52805 -0.96524,-0.87756c-0.26138,-0.34963 -0.45141,-0.74087 -0.5696,-1.17359c-0.11818,-0.43304 -0.1432,-0.88534 -0.0753,-1.35692c0.06675,-0.46086 0.2185,-0.88777 0.4555,-1.28022c0.23713,-0.39271 0.53042,-0.71981 0.87986,-0.98119c0.34957,-0.26151 0.74125,-0.45409 1.17493,-0.57764c0.43342,-0.12348 0.88637,-0.1513 1.35769,-0.08321c0.46124,0.06624 0.88203,0.22003 1.26312,0.46092c0.38122,0.24089 0.70258,0.53616 0.96396,0.88573c0.26163,0.34963 0.45333,0.74649 0.57521,1.19075c0.12239,0.44446 0.14996,0.89715 0.08372,1.35807z"/>
     <path stroke="null" id="svg_58" d="m905.58847,150.18305c-0.06803,0.47183 -0.22245,0.89811 -0.46316,1.27914c-0.24109,0.38122 -0.53641,0.70252 -0.88598,0.9639c-0.34957,0.26144 -0.74062,0.45141 -1.17352,0.56953c-0.43278,0.11825 -0.8796,0.14409 -1.34072,0.0776c-0.47171,-0.06783 -0.89823,-0.21965 -1.28048,-0.45518c-0.3816,-0.2356 -0.70348,-0.52831 -0.96486,-0.87781c-0.26176,-0.34963 -0.45141,-0.74087 -0.5696,-1.17359c-0.11831,-0.43284 -0.1432,-0.88509 -0.07517,-1.35673c0.06649,-0.46105 0.21811,-0.88771 0.45537,-1.28041c0.23713,-0.39258 0.53029,-0.71962 0.87986,-0.98119c0.3497,-0.26138 0.74113,-0.45397 1.17454,-0.57744c0.43393,-0.12367 0.88675,-0.15137 1.35807,-0.0834c0.46111,0.06637 0.88203,0.22003 1.26325,0.46105c0.38109,0.24089 0.70258,0.53603 0.96396,0.88566c0.26151,0.34957 0.45333,0.74655 0.57521,1.19088c0.12214,0.44446 0.14971,0.89702 0.08321,1.35801z"/>
    </g>
   </g>
   <g stroke="null" id="svg_59" display="none">
    <g stroke="null" id="svg_60" display="inline">
     <polygon stroke="null" id="svg_61" points="583.5167236328125,278.3915252685547 645.8543701171875,351.55335998535156 641.8728637695312,354.74244689941406 583.1609497070312,278.76979064941406 "/>
     <polygon stroke="null" id="svg_62" points="439.4129943847656,166.43350219726562 388.8768310546875,84.67372131347656 393.29547119140625,82.12438201904297 439.8221435546875,166.1136932373047 "/>
     <polygon stroke="null" id="svg_63" points="461.10797119140625,186.43377685546875 417.9059143066406,100.57213592529297 422.5303039550781,98.41876983642578 461.54345703125,186.15078735351562 "/>
     <polygon stroke="null" id="svg_64" points="479.74383544921875,182.2421417236328 449.40130615234375,91.03933715820312 454.2884826660156,89.57655334472656 480.2156677246094,182.02499389648438 "/>
     <polygon stroke="null" id="svg_65" points="490.653564453125,174.97244262695312 469.0839538574219,81.30622863769531 474.0875549316406,80.31292724609375 491.143798828125,174.80104064941406 "/>
     <polygon stroke="null" id="svg_66" points="496.5805358886719,189.30404663085938 496.5861511230469,93.18645477294922 501.68511962890625,93.34158325195312 497.0965576171875,189.24717712402344 "/>
     <polygon stroke="null" id="svg_67" points="511.29412841796875,180.9427947998047 521.82470703125,85.40380096435547 526.8761596679688,86.11627960205078 511.81341552734375,180.94273376464844 "/>
     <polygon stroke="null" id="svg_68" points="521.0087890625,174.4738006591797 547.6580810546875,82.12438201904297 552.5142822265625,83.68685150146484 521.5205078125,174.5621795654297 "/>
     <polygon stroke="null" id="svg_69" points="533.584716796875,170.0562744140625 580.2401733398438,86.02157592773438 584.6231689453125,88.63186645507812 534.0633544921875,170.25689697265625 "/>
     <polygon stroke="null" id="svg_70" points="539.3882446289062,176.18080139160156 599.1024780273438,100.86246490478516 603.0016479492188,104.15155029296875 539.8278198242188,176.4565887451172 "/>
     <polygon stroke="null" id="svg_71" points="556.7786254882812,175.55088806152344 629.4004516601562,112.5853500366211 632.6239624023438,116.53927612304688 557.1596069335938,175.9033966064453 "/>
     <polygon stroke="null" id="svg_72" points="560.458984375,185.27285766601562 638.6846923828125,129.42182159423828 641.521484375,133.66156768798828 560.8052368164062,185.65966796875 "/>
     <polygon stroke="null" id="svg_73" points="572.5279541015625,190.77212524414062 660.9219970703125,153.0214080810547 662.7824096679688,157.77127075195312 572.7835083007812,191.2243194580078 "/>
     <polygon stroke="null" id="svg_74" points="593.4071044921875,197.29989624023438 688.0142211914062,180.32470703125 688.7622680664062,185.37078857421875 593.554443359375,197.79771423339844 "/>
     <polygon stroke="null" id="svg_75" points="589.2229614257812,218.08123779296875 685.3386840820312,218.6605987548828 685.1535034179688,223.75843811035156 589.2767944335938,218.5976104736328 "/>
     <polygon stroke="null" id="svg_76" points="586.6900634765625,232.13998413085938 680.0562744140625,254.9728240966797 678.6948852539062,259.88902282714844 586.622802734375,232.65476989746094 "/>
     <polygon stroke="null" id="svg_77" points="590.9767456054688,252.35523986816406 681.2138061523438,285.45945739746094 679.3120727539062,290.19337463378906 590.8525390625,252.859375 "/>
     <polygon stroke="null" id="svg_78" points="590.8928833007812,278.0500030517578 673.9313354492188,326.45713806152344 671.2294921875,330.78419494628906 590.6821899414062,278.52452087402344 "/>
     <polygon stroke="null" id="svg_79" points="570.9447021484375,274.65846252441406 604.5943603515625,364.69349670410156 599.7640380859375,366.33375549316406 570.4811401367188,274.8925323486328 "/>
     <polygon stroke="null" id="svg_80" points="429.6929931640625,287.0229034423828 339.48284912109375,320.2001190185547 337.86810302734375,315.36106872558594 429.46136474609375,286.55833435058594 "/>
     <polygon stroke="null" id="svg_81" points="420.6463317871094,271.7546844482422 327.16668701171875,294.11842346191406 326.1309814453125,289.1233673095703 420.4709777832031,271.2659149169922 "/>
     <polygon stroke="null" id="svg_82" points="420.7462463378906,251.4139862060547 326.3475646972656,269.5115509033203 325.5396423339844,264.4746398925781 420.5929870605469,250.91790771484375 "/>
     <polygon stroke="null" id="svg_83" points="418.412109375,244.66392517089844 322.4319152832031,239.524658203125 322.8592834472656,234.44119262695312 418.3826599121094,244.14547729492188 "/>
     <polygon stroke="null" id="svg_84" points="419.7936706542969,234.2699432373047 326.60357666015625,210.72767639160156 328.0025939941406,205.82188415527344 419.864990234375,233.75552368164062 "/>
     <polygon stroke="null" id="svg_85" points="420.7406311035156,222.68905639648438 332.5634460449219,184.43426513671875 334.7348327636719,179.8180694580078 420.89361572265625,222.19296264648438 "/>
     <polygon stroke="null" id="svg_86" points="421.37774658203125,210.8224639892578 345.41925048828125,151.92567443847656 348.66607666015625,147.99087524414062 421.6492004394531,210.37994384765625 "/>
     <polygon stroke="null" id="svg_87" points="414.994384765625,188.7507781982422 348.52825927734375,119.31838989257812 352.3184509277344,115.9042739868164 415.3277282714844,188.352783203125 "/>
     <polygon stroke="null" id="svg_88" points="421.27056884765625,171.15716552734375 363.5605773925781,94.29291534423828 367.73101806640625,91.35513305664062 421.6492004394531,170.80172729492188 "/>
     <polygon stroke="null" id="svg_89" points="464.34722900390625,178.96356201171875 429.80364990234375,89.267822265625 434.6175537109375,87.57988739013672 464.80810546875,178.7248992919922 "/>
    </g>
    <path stroke="null" id="svg_90" d="m535.36136,94.11379c0,0 16.82754,26.7554 57.31011,8.60808c0,0 3.37329,27.22092 26.75521,37.69062c0,0 -27.33731,17.10015 -19.07784,40.94739c0,0 -27.2592,-4.71898 -35.8482,11.63289c0,0 -40.20422,-33.22969 -58.09948,-30.06073c0,0 7.58968,-19.68209 -5.18533,-33.83885c0,0 25.92653,-7.99126 34.14554,-34.97939z" fill="#DD0000"/>
    <path stroke="null" id="svg_91" d="m548.0681,113.47879c0,0 16.50043,4.99562 34.36404,-0.75695c0,0 6.96368,19.75554 21.6476,26.94627c0,0 -14.6085,17.40887 -12.56494,32.54708c0,0 -12.96965,1.13543 -18.1791,3.93613c0,0 -30.94442,-22.66919 -46.9152,-28.17595c0,0 0.15124,-8.82 -1.66527,-16.51141c0,0 15.1384,-5.95032 23.31287,-17.98517z" fill="#FF2C2C"/>
    <path stroke="null" id="svg_92" d="m516.36009,131.46397c14.10629,-5.34544 22.48087,-19.20649 26.94052,-29.50466c-5.41519,-3.85412 -7.93925,-7.8457 -7.93925,-7.8457c-8.21901,26.98813 -34.14554,34.97958 -34.14554,34.97958c12.77502,14.15657 5.18533,33.83866 5.18533,33.83866c17.89526,-3.16871 58.09948,30.06092 58.09948,30.06092c1.8696,-3.55937 4.62441,-6.11873 7.78929,-7.94729c-16.56833,-16.71854 -55.2321,-33.2415 -55.2321,-33.2415c2.21049,-5.12701 -0.69773,-20.34 -0.69773,-20.34z" fill="#C40000"/>
    <g stroke="null" id="svg_93" display="inline">
     <path stroke="null" id="svg_94" d="m380.9304,287.51221c0,0 -4.71286,-22.91659 -15.01856,-22.37265c-10.30583,0.54369 -18.95443,18.25542 15.01856,22.37265z" fill="#CD2606"/>
     <path stroke="null" id="svg_95" d="m380.4204,285.37345c-2.94447,-2.60511 -14.84537,-5.05988 -19.22142,-8.68497c-1.99889,-1.65608 -3.19245,-3.77315 -3.90537,-5.58825c-2.3145,5.70132 2.05823,13.79692 23.63679,16.41198c0,0 -0.16834,-0.81808 -0.50999,-2.13876z" fill="#BC1A04"/>
     <path stroke="null" id="svg_96" d="m380.9304,287.51221c0,0 10.99846,-20.64714 0.76053,-26.20782c-10.23768,-5.56068 -21.11336,9.28175 -0.76053,26.20782z" fill="#CD2606"/>
     <path stroke="null" id="svg_97" d="m381.74223,278.86246c0,0 5.1898,-12.71286 -0.3146,-15.82541c-5.50402,-3.11281 -10.78698,6.09569 0.3146,15.82541z" fill="#E22C14"/>
     <path stroke="null" id="svg_98" d="m373.92039,260.89854c-6.05217,2.98748 -7.87097,14.238 7.01001,26.61367c0,0 0.86965,-1.65327 1.88823,-4.11059c-10.48297,-9.29197 -11.66607,-17.81664 -8.89824,-22.50308z" fill="#BC1A04"/>
     <path stroke="null" id="svg_99" d="m380.9304,287.51221c0,0 -16.31677,-9.83667 -22.41489,-5.64211c-6.09875,4.19482 -0.07862,24.1852 22.41489,5.64211z" fill="#CD2606"/>
     <path stroke="null" id="svg_100" d="m357.96875,282.3196c-5.1496,4.98406 1.18667,23.14351 22.96164,5.19261c0,0 -0.53794,-0.32264 -1.42878,-0.81477c-16.19387,11.66658 -22.70932,1.91159 -21.53286,-4.37784z" fill="#BC1A04"/>
     <path stroke="null" id="svg_101" d="m374.93706,286.38272c0,0 -9.50765,-5.73757 -13.83074,-3.60238c-4.32347,2.13545 2.92596,13.29918 13.83074,3.60238z" fill="#E22C14"/>
     <path stroke="null" id="svg_102" d="m371.3953,278.65494c0,0 -3.007,-5.61888 -3.75834,-9.28329c-0.75185,-3.66466 -6.44666,-0.63583 -7.7995,1.26988c-1.35258,1.90597 4.07856,7.01868 8.02489,8.22092c3.94659,1.20173 4.09668,0.89211 3.53295,-0.20752z" fill="#E22C14"/>
    </g>
    <path stroke="null" id="svg_103" d="m492.75113,151.8041c0,0 -4.07932,-37.28419 -27.23317,-42.28332c-23.15346,-4.99906 -38.01926,16.57605 -32.62526,34.99349c0,0 -13.94509,-5.52526 -28.15297,3.68368c-14.20813,9.20875 -11.4454,33.67798 0,42.62363c0,0 -15.26028,2.49969 -14.47117,17.62845c0.78937,15.12877 25.78486,28.95734 25.78486,28.95734l73.18185,-38.91181l17.88224,-21.88186l-14.36639,-24.80961z" fill="#CD2606"/>
    <g stroke="null" id="svg_104" display="inline">
     <g stroke="null" id="svg_105">
      <path stroke="null" id="svg_106" d="m465.51796,109.52078c-23.15346,-4.99906 -38.01926,16.57605 -32.62526,34.99349c0,0 2.15599,-21.07845 19.6528,-27.94386c10.61137,-4.16343 23.14389,2.22631 31.36367,7.84941c-4.09591,-7.00177 -9.97987,-13.08311 -18.39121,-14.89904z" fill="#BC1A04"/>
      <path stroke="null" id="svg_107" d="m390.26856,208.45004c0.78975,15.12877 25.78486,28.95734 25.78486,28.95734l0.62614,-0.33298c0.82753,-4.32117 -1.07538,-9.1048 -8.43598,-13.85965c-23.2802,-15.03885 -3.50385,-32.39317 -3.50385,-32.39317s-15.26028,2.4995 -14.47117,17.62845z" fill="#BC1A04"/>
      <path stroke="null" id="svg_108" d="m404.73973,148.19776c-14.20813,9.20894 -11.4454,33.67817 0,42.62382c0,0 -11.347,-17.65487 -2.10903,-31.4532c9.23785,-13.79826 30.262,-14.85411 30.262,-14.85411s-13.94535,-5.52526 -28.15297,3.68349z" fill="#BC1A04"/>
     </g>
    </g>
    <path stroke="null" id="svg_109" d="m486.20734,169.82634c0,0 -26.46052,-10.87555 -50.75649,4.66117c-24.2961,15.5364 -30.82126,51.69748 -32.53005,73.46805c-1.70943,21.77089 -11.18658,35.59818 -22.99444,38.39473c0,0 3.44655,59.03893 85.46538,73.95412c82.01857,14.91467 137.79474,-30.91085 145.09688,-81.56346c7.30227,-50.65261 -49.19205,-109.53596 -117.73749,-126.93686c0,0 0.30337,8.07894 -6.54379,18.02225z" fill="#FECE00"/>
    <path stroke="null" id="svg_110" d="m601.83912,254.41512c-1.0935,-27.38377 -72.92277,-83.05094 -88.82833,-85.16284c-15.90518,-2.11209 -15.62912,6.33601 -33.6441,12.0686c-18.01433,5.73278 -39.34338,25.16403 -43.91585,45.09212c-4.57247,19.92822 -8.19272,46.3285 -11.51177,56.2854c-3.31905,9.95664 3.46008,24.55302 11.51177,29.74383c0,0 32.11807,26.22466 85.35511,15.51349c53.23793,-10.71091 82.12603,-46.15658 81.03317,-73.54061zm-45.14438,27.3779c-9.95664,3.92221 -32.88689,-11.16348 -37.80178,-10.56006c-4.91476,0.60342 -7.30495,15.2368 -18.70211,22.93088c-11.39755,7.69357 -34.79937,-2.41393 -34.79937,-2.41393c-10.14081,-5.1293 -17.46567,-17.19816 -14.29773,-24.89531c3.16781,-7.6974 25.64601,-13.72468 30.59765,-20.94336c4.52448,-6.59586 -8.42142,-29.44015 4.51593,-34.72024c12.93736,-5.28003 29.90669,13.57734 34.59861,17.36018c4.69282,3.78272 18.08746,-2.42516 30.15632,0.73902c12.06873,3.16443 15.68949,48.58059 5.73247,52.50281z" fill="#FFDA3E"/>
    <path stroke="null" id="svg_111" d="m540.34313,238.25347c0,0 -11.48229,3.27808 -13.88753,10.19339c-2.4055,6.91537 5.81261,16.19802 5.81261,16.19802s-12.47765,-7.47737 -13.3293,-14.31834c-0.85203,-6.84077 10.3362,-11.14172 21.40422,-12.07307z" fill="#FCC000"/>
    <path stroke="null" id="svg_112" d="m435.45085,198.49557c13.62488,-23.7281 50.75649,-28.66922 50.75649,-28.66922s-26.46052,-10.87555 -50.75649,4.66098c-24.2961,15.53659 -30.82126,51.69767 -32.53005,73.46824c-1.70943,21.77089 -11.18658,35.59844 -22.99444,38.39473c0,0 3.44655,59.03868 85.46512,73.95412c67.13695,12.20874 116.67028,-16.28793 136.44764,-54.8094c-18.17157,14.04962 -46.66683,30.4154 -84.5009,34.83255c-69.71577,8.1395 -119.96942,-32.40995 -107.27379,-56.49406c12.69512,-24.08386 11.76192,-61.6101 25.38642,-85.33794z" fill="#FCC000"/>
    <g stroke="null" id="svg_113" display="inline">
     <path stroke="null" id="svg_114" d="m489.4271,234.59213c0,0 1.83374,-4.80718 8.86761,-5.78377c7.034,-0.97647 10.92928,0.80086 12.69972,5.78377c1.77069,4.9833 1.17697,13.02816 -6.78781,13.35667c-7.9644,0.32838 -16.35226,-11.05914 -14.77952,-13.35667z" fill="#660000"/>
     <path stroke="null" id="svg_115" d="m501.96231,242.01175c-5.9114,-0.93135 -10.06793,-6.08472 -11.81003,-8.66372c-0.24287,0.3474 -0.42015,0.63494 -0.53144,0.84948c-0.03471,0.79537 0.30133,2.60421 0.72083,4.19629c2.36823,4.13139 8.21378,9.78805 13.86495,9.55481c7.32116,-0.30177 8.4079,-7.1183 7.1615,-12.08877c-1.92652,3.31567 -5.03997,6.83943 -9.40581,6.15191z" fill="#540000"/>
     <g stroke="null" id="svg_116">
      <path stroke="null" id="svg_117" d="m489.73379,235.73247c0,0 10.49893,12.39029 16.43317,9.45577c5.93424,-2.93458 0.71739,-15.89778 0.71739,-15.89778l7.02596,4.52353c0,0 3.79956,17.17793 -6.04783,20.24288c-9.84714,3.06495 -19.69377,-14.54207 -19.69377,-14.54207l1.56508,-3.78234z" fill="#FF8B00"/>
      <path stroke="null" id="svg_118" d="m508.47916,251.51302c-8.96562,2.79055 -17.90483,-11.51471 -19.43826,-14.10565l-0.8722,2.10743c0,0 9.84663,17.60701 19.69364,14.54207c4.01219,-1.24857 5.73974,-4.84425 6.40085,-8.66219c-0.9392,2.78698 -2.68334,5.15311 -5.78403,6.11834z" fill="#FF7300"/>
      <path stroke="null" id="svg_119" d="m494.58767,242.41224c0,0 6.53268,6.7275 11.99701,4.76014c5.46458,-1.96717 3.10872,-11.63021 4.27459,-11.91099c1.16561,-0.28052 3.01147,5.98861 1.69998,10.64985c-1.31162,4.66123 -7.73071,6.06978 -12.82709,2.08701c-5.09599,-3.98303 -9.63783,-9.78741 -5.14449,-5.58602z" fill="#FFA039"/>
     </g>
     <path stroke="null" id="svg_120" d="m488.89388,239.30148c0,0 4.43859,-7.75477 9.60312,-8.57809c5.16466,-0.82332 13.11335,3.53442 15.41331,3.0906c2.30034,-0.44382 -11.05525,-16.82569 -20.8202,-13.96105c-9.76457,2.86489 -7.14082,23.51969 -4.19623,19.44854z" fill="#FF8B00"/>
     <path stroke="null" id="svg_121" d="m496.64042,229.67392c-7.26475,2.62285 -7.74654,9.6275 -8.59487,2.66363c-0.47656,-3.9106 1.17391,-8.25762 2.78519,-11.36079c-7.04293,5.13932 -4.62633,22.04343 -1.93686,18.32466c0,0 4.43859,-7.75471 9.60312,-8.57802c5.16491,-0.82332 13.11386,3.53442 15.41331,3.0906c0.43406,-0.08398 0.30796,-0.73749 -0.24402,-1.72028c-5.21098,-1.90903 -12.63986,-4.00332 -17.02587,-2.4198z" fill="#FF7300"/>
     <path stroke="null" id="svg_122" d="m489.1111,230.24281c0,0 0.06049,-6.45145 4.36789,-8.77559c4.30739,-2.32408 17.1503,7.43755 16.86978,8.20669c-0.28052,0.76908 -6.25088,-3.39818 -14.16231,-1.58276c-3.99738,0.91763 -7.07535,6.11866 -7.07535,2.15165z" fill="#FFA039"/>
     <path stroke="null" id="svg_123" d="m495.32012,234.49003c0,0 1.82097,-1.44199 3.87461,-1.77707c2.05376,-0.33496 6.83146,-0.01449 7.69064,1.63145c0.85969,1.646 -0.71139,5.637 -4.00441,5.97208c-3.29276,0.33496 -9.97872,-3.9912 -7.56084,-5.82646z" fill="#770101"/>
    </g>
    <path stroke="null" id="svg_124" d="m540.34313,238.25347c0,0 -18.6249,2.96266 -18.6249,12.72665c0,9.76425 27.50501,21.73892 27.50501,21.73892s-25.1988,-6.57378 -30.33053,-17.23288c-8.62499,-17.91402 21.45042,-17.23269 21.45042,-17.23269z" fill="#F99300"/>
    <g stroke="null" id="svg_125" display="inline">
     <path stroke="null" id="svg_126" d="m456.47219,238.2536c0,6.88921 -5.58467,12.47401 -12.47356,12.47401c-6.88991,0 -12.47433,-5.5848 -12.47433,-12.47401c0,-6.88953 5.58442,-12.47426 12.47433,-12.47426c6.88889,0 12.47356,5.58474 12.47356,12.47426z" fill="#FFFFFF"/>
     <path stroke="null" id="svg_127" d="m452.54551,238.2536c0,4.72032 -3.82675,8.54701 -8.54688,8.54701c-4.72115,0 -8.54778,-3.82668 -8.54778,-8.54701c0,-4.72064 3.82662,-8.54733 8.54778,-8.54733c4.72013,0 8.54688,3.82669 8.54688,8.54733z"/>
    </g>
    <g stroke="null" id="svg_128" display="inline">
     <path stroke="null" id="svg_129" d="m545.75461,207.04289c0,6.88921 -5.58455,12.47395 -12.47446,12.47395c-6.88889,0 -12.47382,-5.58474 -12.47382,-12.47395c0,-6.88953 5.58493,-12.47433 12.47382,-12.47433c6.88991,0 12.47446,5.5848 12.47446,12.47433z" fill="#FFFFFF"/>
     <path stroke="null" id="svg_130" d="m541.8278,207.04289c0,4.72032 -3.82675,8.54707 -8.54765,8.54707c-4.72013,0 -8.54688,-3.82675 -8.54688,-8.54707c0,-4.72064 3.82675,-8.54733 8.54688,-8.54733c4.7209,0 8.54765,3.82668 8.54765,8.54733z"/>
    </g>
    <ellipse stroke="null" id="svg_131" ry="53.00671" rx="59.03116" cy="1292.11736" cx="3085.09438" fill="#FF9999" transform="matrix(0.12988317330085974,-0.014494159759759123,0.014494159759759123,0.12988317330085974,6.529306012626006,134.55785185223326) "/>
    <path stroke="null" id="svg_132" d="m570.30954,211.72276c0.42436,3.8025 -2.66433,7.26788 -6.89897,7.74054c-4.234,0.47254 -8.01098,-2.22682 -8.43546,-6.02926c-0.42448,-3.80237 2.66458,-7.26788 6.89884,-7.74054c4.2349,-0.47235 8.01123,2.22689 8.43559,6.02926z" fill="#FF9999"/>
    <g stroke="null" id="svg_133" display="inline">
     <path stroke="null" id="svg_134" d="m449.3528,322.20488c0,0 3.83364,-10.56593 13.84963,-9.71364c10.01624,0.85254 17.93431,19.21032 12.46463,25.55437c-5.46943,6.34405 -31.29335,-1.05087 -26.31426,-15.84073z" fill="#FF8B00"/>
     <path stroke="null" id="svg_135" d="m456.83209,320.87859c0,0 1.60503,-4.95624 8.5747,-3.77366c6.96993,1.1831 11.30884,14.44143 8.17409,17.73164c-2.78519,2.92341 -21.10251,-3.88367 -16.74879,-13.95798z" fill="#FFA039"/>
     <path stroke="null" id="svg_136" d="m453.5258,320.67975c0,0 1.92218,-5.29445 6.5979,-8.08513c-7.7325,1.23721 -10.7709,9.61027 -10.7709,9.61027c-4.80028,14.25867 19.02909,21.64339 25.64767,16.47069c-9.17544,1.17978 -25.5268,-5.95836 -21.47467,-17.99583z" fill="#FF7300"/>
    </g>
    <g stroke="null" id="svg_137" display="inline">
     <path stroke="null" id="svg_138" d="m577.2759,275.75757c0,0 9.08317,-6.62049 16.91368,-0.31702s4.13969,25.95257 -3.94136,28.15769c-8.08041,2.20513 -25.36536,-18.35701 -12.97233,-27.84067z" fill="#FF8B00"/>
     <path stroke="null" id="svg_139" d="m584.21992,278.83668c0,0 4.10063,-3.21338 9.21986,1.66195c5.11909,4.87507 1.30983,18.29575 -3.12812,19.2726c-3.94404,0.86811 -15.33163,-15.01218 -6.09173,-20.93455z" fill="#FFA039"/>
     <path stroke="null" id="svg_140" d="m581.58903,276.82478c0,0 4.55256,-3.31726 9.9897,-3.01887c-7.10458,-3.29455 -14.30283,1.95166 -14.30283,1.95166c-11.94787,9.14315 3.6884,28.58218 12.06784,27.99076c-8.26904,-4.14862 -17.84127,-19.20496 -7.75471,-26.92355z" fill="#FF7300"/>
    </g>
    <path stroke="null" id="svg_141" d="m462.85721,264.28728c0,0 5.20664,5.5298 16.79116,0.35761c11.58465,-5.17219 18.52216,-6.02473 20.8775,-2.86904c0,0 -3.48994,-9.61971 -9.64306,-7.99388c-6.15338,1.62609 -18.46383,10.64595 -28.0256,10.50531z" fill="#FCC000"/>
    <path stroke="null" id="svg_142" d="m462.85721,264.28728c0,0 8.79154,0.59857 15.374,-2.94587s12.11021,-7.45695 16.57343,-4.9713c4.46258,2.48565 7.00362,16.98528 4.92753,22.37086c0,0 3.77059,-6.39816 3.1488,-13.80917c-0.62167,-7.41075 -7.40067,-15.14408 -13.76986,-12.79659c-6.36856,2.34781 -10.78787,8.05552 -26.25389,12.15207z" fill="#F99300"/>
    <path stroke="null" id="svg_143" d="m462.85721,270.27448c0.37165,-0.00613 14.12594,0.19067 25.3115,-5.05043c11.18517,-5.24085 13.78531,14.30155 2.7141,22.78667c-11.07133,8.48485 -37.80893,-17.57211 -28.0256,-17.73624z" fill="#FFDA3E"/>
    <path stroke="null" id="svg_144" d="m544.96882,240.33474c0,0 -9.69692,0.63015 -14.07464,8.24032c-4.37771,7.61023 14.68865,21.39847 20.78472,19.88483c6.09671,-1.5139 -0.77712,-28.30504 -6.71008,-28.12515z" fill="#FFDA3E"/>
    <path stroke="null" id="svg_145" d="m483.59483,153.77478c0,0 2.8356,-24.9551 -14.10705,-31.0797c-16.94227,-6.12466 -32.71983,15.89529 -32.37753,22.88915c0.34242,6.99418 -14.08587,2.64123 -26.99744,11.73818c-12.91196,9.09708 -3.3747,29.54097 -1.66284,32.37772c1.71173,2.83662 -8.51025,8.70571 -8.90156,14.6725c-0.39117,5.96692 3.52147,9.04814 5.18405,9.29267c1.66335,0.24453 3.08167,-23.3294 24.25884,-40.00729c21.17781,-16.67796 49.15338,-10.75992 51.25653,-11.34688s3.347,-8.53635 3.347,-8.53635z" fill="#E22C14"/>
    <g stroke="null" id="svg_146" display="inline">
     <path stroke="null" id="svg_147" d="m548.8322,122.79022l-7.42747,25.94599l-9.27269,-1.88964l4.42034,-26.55885l12.27983,2.5025zm-8.59959,33.74671c-0.14983,0.73513 -0.43125,1.39119 -0.84463,1.96825c-0.41313,0.57706 -0.90666,1.05515 -1.47996,1.43414c-0.57317,0.37918 -1.20505,0.6419 -1.8964,0.78822c-0.69097,0.14632 -1.39572,0.14632 -2.11413,-0.00013c-0.735,-0.14983 -1.39215,-0.42717 -1.97081,-0.83244c-0.57879,-0.4049 -1.05777,-0.89396 -1.43707,-1.46713c-0.37867,-0.57336 -0.64171,-1.20556 -0.78797,-1.89665c-0.14613,-0.69097 -0.14447,-1.40408 0.00523,-2.13915c0.14613,-0.71847 0.42385,-1.37536 0.83251,-1.97081c0.40828,-0.5955 0.89913,-1.08272 1.47243,-1.4619c0.5733,-0.37911 1.20594,-0.64611 1.89908,-0.80073c0.6925,-0.15468 1.40631,-0.15698 2.14183,-0.00715c0.71803,0.14626 1.36599,0.42627 1.94337,0.83965c0.57649,0.41351 1.0547,0.90679 1.43375,1.47989c0.37931,0.57323 0.64426,1.21443 0.79537,1.92403c0.15162,0.70947 0.15392,1.42342 0.0074,2.14189z" fill="#FFDD4D"/>
     <path stroke="null" id="svg_148" d="m535.95329,160.05087c-0.73538,-0.14983 -1.39189,-0.42717 -1.97093,-0.83219c-0.57853,-0.40515 -1.05764,-0.89447 -1.43656,-1.46758c-0.37931,-0.57317 -0.64183,-1.20518 -0.78822,-1.89621c-0.14613,-0.69122 -0.14447,-1.40434 0.00523,-2.1394c0.14651,-0.71847 0.42423,-1.37537 0.83238,-1.97081c0.4084,-0.5955 0.89951,-1.08272 1.47204,-1.46177c0.11269,-0.07434 0.22794,-0.14313 0.3451,-0.20873c-0.16859,0.01965 -0.33566,0.04729 -0.50144,0.08443c-0.69314,0.15462 -1.32578,0.42161 -1.89908,0.80073c-0.5733,0.37918 -1.06415,0.86639 -1.47294,1.4619c-0.40815,0.59544 -0.68586,1.25233 -0.832,1.97055c-0.14971,0.73532 -0.15136,1.44843 -0.00523,2.1394c0.14626,0.6911 0.4093,1.32329 0.78797,1.89646c0.37931,0.57311 0.85829,1.06243 1.43707,1.46732c0.57866,0.40528 1.23581,0.68261 1.97081,0.83244c0.71828,0.14626 1.42316,0.14645 2.11413,0.00013c0.57075,-0.12067 1.10014,-0.32213 1.5901,-0.6015c-0.54126,0.06286 -1.09069,0.03848 -1.64842,-0.07517z" fill="#FFBF3E"/>
     <ellipse stroke="null" id="svg_149" ry="20.11287" rx="30.10836" cy="2624.07529" cx="2489.12639" fill="#FFEA83" transform="matrix(0.059556556218467824,0.11633029084819017,-0.11633029084819017,0.059556556218467824,693.5998990896493,-291.0240944569024) "/>
     <path stroke="null" id="svg_150" d="m541.40472,148.73622l0.4712,-1.6451c-2.54462,-0.73309 -6.11598,-1.93928 -6.4681,-3.01702c-0.42538,-1.30243 2.22185,-16.43285 3.46021,-23.31453l-2.31565,-0.47183l-4.42034,26.55885l9.27269,1.88964z" fill="#FFBF3E"/>
     <path stroke="null" id="svg_151" d="m541.16951,122.80649c0,0 4.75829,0.76378 4.98496,1.69245c0.22666,0.92874 -4.64203,19.72331 -5.18942,20.16682c-0.54739,0.44306 -3.40022,-0.583 -3.68559,-1.27135c-0.54139,-1.30677 1.93711,-20.38703 3.89005,-20.58792z" fill="#FFEA83"/>
     <path stroke="null" id="svg_152" d="m573.33569,122.50708l-12.69295,30.38445l-10.96808,-3.6094l9.13613,-31.55517l14.5249,4.78012zm-15.22327,39.67055c-0.28627,0.86939 -0.72122,1.62436 -1.30409,2.26473c-0.583,0.64036 -1.24882,1.14966 -1.99735,1.5275c-0.74878,0.37771 -1.55219,0.60629 -2.41035,0.68523c-0.85829,0.07894 -1.71223,-0.02144 -2.56223,-0.30113c-0.86926,-0.28614 -1.62596,-0.71586 -2.26958,-1.28896c-0.64362,-0.57336 -1.15425,-1.23402 -1.53228,-1.9828c-0.3779,-0.7484 -0.60623,-1.55181 -0.68548,-2.4101c-0.07862,-0.85835 0.02489,-1.72225 0.31103,-2.59165c0.27976,-0.84993 0.70947,-1.60643 1.28903,-2.26977c0.57968,-0.6634 1.24397,-1.18418 1.99225,-1.56202c0.74878,-0.37784 1.55385,-0.61108 2.4152,-0.69997c0.86161,-0.08896 1.72717,0.00983 2.59681,0.29603c0.84974,0.27963 1.59469,0.71094 2.23538,1.29407c0.64005,0.583 1.14928,1.24876 1.52705,1.99748c0.3779,0.74853 0.60788,1.56349 0.69033,2.44487c0.08257,0.88126 -0.01608,1.74669 -0.29571,2.5965z" fill="#FFDD4D"/>
     <path stroke="null" id="svg_153" d="m552.42615,165.82673c-0.86926,-0.28614 -1.62596,-0.71566 -2.26958,-1.2889c-0.64375,-0.57336 -1.15464,-1.23421 -1.53241,-1.9828c-0.3779,-0.74846 -0.60622,-1.55181 -0.68523,-2.41016c-0.07887,-0.85822 0.02463,-1.72206 0.31064,-2.59171c0.27963,-0.84974 0.70999,-1.60637 1.28915,-2.26952c0.58006,-0.66359 1.24397,-1.18424 1.99225,-1.56221c0.14677,-0.07402 0.29635,-0.14084 0.44746,-0.20363c-0.20714,-0.00045 -0.41351,0.00957 -0.6195,0.03089c-0.86173,0.08889 -1.6668,0.32226 -2.41558,0.69997c-0.74827,0.37784 -1.41257,0.89843 -1.99225,1.56202c-0.57955,0.66347 -1.00927,1.41984 -1.28903,2.26952c-0.28614,0.86965 -0.38964,1.73355 -0.31103,2.5919c0.07926,0.85816 0.30758,1.66169 0.68548,2.4101c0.37803,0.74859 0.88866,1.40944 1.53228,1.9828c0.64362,0.57311 1.40032,1.00282 2.26958,1.28896c0.84999,0.27969 1.70394,0.38007 2.56223,0.30088c0.70845,-0.0649 1.379,-0.23356 2.01267,-0.50234c-0.66493,-0.00096 -1.32719,-0.10874 -1.98714,-0.32577z" fill="#FFBF3E"/>
     <path stroke="null" id="svg_154" d="m555.61018,164.07435c-1.66004,0.6179 -3.75566,-0.89575 -4.68057,-3.38095c-0.92478,-2.48501 -0.32889,-5.00027 1.33114,-5.61824c1.66004,-0.6179 3.75541,0.89575 4.68031,3.38089c0.92529,2.48508 0.32915,5.00053 -1.33089,5.6183z" fill="#FFEA83"/>
     <path stroke="null" id="svg_155" d="m560.64274,152.89154l0.80456,-1.92658c-2.97893,-1.25067 -7.13521,-3.2204 -7.40833,-4.5763c-0.32991,-1.63885 5.0309,-19.59741 7.51068,-27.76027l-2.73886,-0.90123l-9.13613,31.55498l10.96808,3.6094z" fill="#FFBF3E"/>
     <path stroke="null" id="svg_156" d="m564.0473,121.43636c0,0 5.65742,1.6028 5.79998,2.76037c0.14243,1.15757 -8.43215,23.23999 -9.15872,23.69939c-0.72645,0.4592 -4.03708,-1.19018 -4.28467,-2.06493c-0.4703,-1.66055 5.24812,-24.42941 7.64342,-24.39482z" fill="#FFEA83"/>
     <path stroke="null" id="svg_157" d="m588.15579,136.83027l-13.45348,23.89025l-8.71816,-4.05214l10.62604,-25.20442l11.54559,5.36631zm-16.44938,31.32276c-0.32136,0.69116 -0.75427,1.2732 -1.29873,1.74599c-0.54445,0.47286 -1.14481,0.82906 -1.80043,1.06868c-0.65562,0.23968 -1.34212,0.35027 -2.05976,0.33208c-0.71701,-0.01831 -1.41346,-0.18423 -2.08937,-0.49819c-0.69123,-0.3213 -1.27486,-0.75038 -1.75142,-1.28698c-0.4763,-0.53654 -0.83429,-1.13281 -1.07385,-1.78868c-0.23968,-0.65568 -0.35033,-1.34218 -0.33234,-2.0597c0.01863,-0.71732 0.18825,-1.42157 0.50936,-2.11273c0.31409,-0.67559 0.74317,-1.25929 1.28686,-1.75167c0.54407,-0.492 1.14353,-0.85791 1.79953,-1.09746c0.65587,-0.23968 1.34429,-0.35416 2.0655,-0.34395c0.72109,0.01034 1.42686,0.17619 2.11809,0.49749c0.6754,0.31396 1.24985,0.74323 1.72257,1.28769c0.47273,0.54439 0.82906,1.14462 1.06874,1.80036c0.23943,0.65574 0.35021,1.35207 0.33285,2.0888c-0.018,0.73685 -0.18378,1.44301 -0.49762,2.11828z" fill="#FFDD4D"/>
     <path stroke="null" id="svg_158" d="m566.64947,170.61731c-0.69122,-0.32111 -1.27524,-0.75019 -1.75154,-1.2866c-0.47656,-0.5368 -0.83429,-1.133 -1.07423,-1.78887c-0.23917,-0.65549 -0.35021,-1.34218 -0.33183,-2.05951c0.018,-0.71752 0.18787,-1.42176 0.50936,-2.11292c0.31371,-0.67566 0.74279,-1.25935 1.28647,-1.75142c0.54407,-0.49225 1.14392,-0.85816 1.79991,-1.09771c0.12852,-0.04716 0.25819,-0.08768 0.38952,-0.12514c-0.17127,-0.02036 -0.34293,-0.03216 -0.51536,-0.03472c-0.72122,-0.01021 -1.40963,0.10427 -2.0655,0.34376c-0.656,0.23975 -1.25546,0.60546 -1.79953,1.09765c-0.54369,0.49238 -0.97277,1.07595 -1.28686,1.75142c-0.32098,0.69142 -0.49098,1.39566 -0.50936,2.11298c-0.01799,0.71732 0.09266,1.40402 0.33234,2.05983c0.23955,0.65574 0.59755,1.25201 1.07385,1.78875c0.47694,0.53641 1.06057,0.9653 1.75142,1.28679c0.67591,0.31377 1.37237,0.47987 2.08937,0.49806c0.59231,0.01525 1.16344,-0.05896 1.71338,-0.21964c-0.54994,-0.06534 -1.08674,-0.21882 -1.61141,-0.46271z" fill="#FFBF3E"/>
     <path stroke="null" id="svg_159" d="m569.45266,169.47812c-1.43286,0.34951 -3.01824,-1.10626 -3.54099,-3.25115c-0.5234,-2.14495 0.21454,-4.16706 1.6474,-4.51644c1.43273,-0.34925 3.01836,1.10633 3.54138,3.25128c0.52289,2.14502 -0.21479,4.16713 -1.64778,4.51631z" fill="#FFEA83"/>
     <path stroke="null" id="svg_160" d="m574.70231,160.72052l0.85293,-1.51461c-2.34143,-1.32412 -5.58646,-3.35766 -5.6804,-4.50528c-0.11346,-1.38736 6.06749,-15.71591 8.91228,-22.22473l-2.17692,-1.01176l-10.62604,25.20423l8.71816,4.05214z" fill="#FFBF3E"/>
     <path stroke="null" id="svg_161" d="m580.57925,135.04101c0,0 4.52219,1.87585 4.52729,2.84702c0.00536,0.97111 -9.23428,18.39709 -9.8793,18.70613c-0.64579,0.30911 -3.22295,-1.37702 -3.34266,-2.12447c-0.22717,-1.41876 6.71749,-19.69039 8.69467,-19.42869z" fill="#FFEA83"/>
    </g>
   </g>
   <g stroke="null" id="svg_162" display="none">
    <path stroke="null" id="svg_163" d="m1107.47984,214.46111c0,0 -40.56987,-9.34455 -61.91193,-4.53763c-21.34283,4.80666 -29.2258,-15.94781 -23.84239,-27.48989c5.38392,-11.54176 -10.38279,-39.61395 5.76846,-53.26531c16.15086,-13.65149 36.99033,-16.53559 58.77679,-38.45484c21.78582,-21.91925 36.78332,-40.56987 51.20395,-40.76214c14.42038,-0.19227 25.7647,21.34245 43.83812,23.07287c18.07393,1.73049 40.56783,-9.22917 50.85553,1.92288c10.28783,11.15174 13.66381,25.62591 33.22204,41.65399c19.55848,16.02821 39.53635,40.71575 38.10362,53.07917c-1.43273,12.36348 -19.76243,32.75888 -59.24288,36.69335s-136.7713,8.08756 -136.7713,8.08756z" fill="#0E1E63"/>
    <path stroke="null" id="svg_164" d="m1101.52646,156.17575c0,0 -20.58728,21.7245 -24.60241,26.25785c-4.01512,4.53348 -26.35433,1.27646 -32.19362,-8.22086c-5.83891,-9.497 0.58695,-29.6968 8.42092,-37.27175c7.83383,-7.57501 47.68414,-36.6123 57.5064,-46.08097c9.82251,-9.46879 12.33611,-15.14989 21.8892,-18.30615c9.55309,-3.15633 26.00145,13.04246 47.20912,11.4135c21.2078,-1.62921 46.68917,-0.99804 52.41232,3.73626c5.7234,4.73436 14.24502,23.51407 26.55458,32.82486c12.30931,9.31085 35.29431,32.69539 36.45979,43.18997c1.16523,10.49427 -8.3922,20.79589 -16.66571,20.44415c-8.27402,-0.35167 -13.63943,-19.42071 -18.8471,-31.11186c-5.20792,-11.69109 -16.41262,-19.8974 -21.14692,-28.73463c-4.73443,-8.83762 -13.7146,-21.46248 -24.76883,-22.72502c-11.05449,-1.26242 -20.74707,-3.97403 -27.57878,-7.98386c-6.83184,-4.00989 -27.97825,-5.11437 -34.7644,-1.8003c-6.78589,3.31401 -10.57333,10.25778 -13.57179,11.0467c-2.99833,0.78911 -26.70275,4.61223 -36.31276,13.7474c-9.61027,9.13524 5.30122,33.97012 0,39.5747z" fill="#162B75"/>
    <path stroke="null" id="svg_165" d="m1232.16838,74.94693c-10.28771,-11.15193 -32.7816,-0.19227 -50.85553,-1.92276c-18.07342,-1.73055 -29.41775,-23.26526 -43.83812,-23.073c-14.42063,0.1924 -29.41813,18.84301 -51.20395,40.76227c-21.78646,21.91925 -42.62593,24.80323 -58.77679,38.45484c-16.15099,13.65136 -0.38454,41.72355 -5.76846,53.26531c-5.38341,11.54208 2.49956,32.29655 23.84239,27.48963c20.66271,-4.6539 59.34639,3.95661 61.78839,4.50974c-0.21186,-4.83768 -0.79205,-8.98892 -0.79205,-8.98892s-53.41291,-8.07511 -64.29446,-12.56041c-10.88155,-4.48562 -11.84385,-15.63015 -10.90389,-36.7079c0.94022,-21.07794 21.05567,-35.69722 41.75373,-47.35283c20.69793,-11.65567 47.92051,-45.87109 63.52424,-48.12707c15.60334,-2.25599 18.6115,15.22787 39.01551,18.04758c14.87102,2.05536 43.23203,-0.881 57.52835,-2.62547c-0.33821,-0.39098 -0.66583,-0.78777 -1.01935,-1.17103z" fill="#061251"/>
    <g stroke="null" id="svg_166" display="inline">
     <g stroke="null" id="svg_167">
      <path stroke="null" id="svg_168" d="m1283.78214,269.87527c0,0 6.64959,0.85535 16.04901,-1.99301c9.39968,-2.84836 16.20574,-11.87206 11.03126,-16.46865c-9.27027,-8.23439 -26.35025,9.6312 -27.08027,18.46166z" fill="#CD2606"/>
      <path stroke="null" id="svg_169" d="m1293.29949,260.99451c0.75938,-1.9463 2.62987,-6.06455 4.00083,-9.03926c-6.89744,4.26246 -13.08502,12.68121 -13.51818,17.92002c0,0 6.64959,0.8551 16.04901,-1.99301c1.50165,-0.45512 2.93668,-1.06849 4.26808,-1.7957c-4.61267,-3.29684 -12.06248,-1.85543 -10.79974,-5.09204z" fill="#BC1A04"/>
      <path stroke="null" id="svg_170" d="m1283.78214,269.87527c0,0 18.10508,-19.12634 8.6837,-24.35328s-20.82837,8.94163 -8.6837,24.35328z" fill="#CD2606"/>
      <path stroke="null" id="svg_171" d="m1290.24463,244.64628c-8.83123,-2.14093 -17.66298,11.01524 -6.46249,25.22899c0,0 0.86301,-0.91151 2.114,-2.39121c-7.17745,-11.19819 -2.3473,-21.21367 4.34849,-22.83778z" fill="#BC1A04"/>
      <path stroke="null" id="svg_172" d="m1286.20066,263.35586c0,0 10.7857,-10.35701 5.76769,-15.4239c-2.70874,-2.73503 -10.82629,5.08515 -5.76769,15.4239z" fill="#E22C14"/>
      <path stroke="null" id="svg_173" d="m1283.78214,269.87527c0,0 5.1995,-5.07442 13.12305,-5.15202c7.92356,-0.07785 12.70112,12.93417 6.13679,15.22583c-6.56408,2.29166 -16.53578,-5.93131 -19.25984,-10.0738z" fill="#CD2606"/>
      <path stroke="null" id="svg_174" d="m1304.88899,278.74709c-6.26799,0.85484 -14.85265,-4.05367 -15.95151,-8.09406c-0.48957,-1.79953 0.11742,-3.34228 1.06185,-4.56622c-3.89847,1.52667 -6.21719,3.78846 -6.21719,3.78846c2.72406,4.1425 12.69576,12.36546 19.25984,10.07355c0.76576,-0.26699 1.37683,-0.6805 1.84701,-1.20173z" fill="#BC1A04"/>
      <path stroke="null" id="svg_175" d="m1291.36595,268.79657c0,0 3.41324,-3.05512 6.96967,-2.2914s6.68328,6.80249 5.29854,9.11763c-1.38449,2.31514 -14.65508,-3.6519 -12.26821,-6.82622z" fill="#E22C14"/>
      <path stroke="null" id="svg_176" d="m1296.73928,259.87983c0,0 0.41606,-5.62985 7.17566,-7.94219c4.17594,-1.42833 7.00643,3.0421 6.19626,5.21864c-0.81043,2.17654 -4.9639,5.22196 -6.61513,5.54281c-1.65149,0.32111 -6.82086,-0.48166 -6.75679,-2.81927z" fill="#E22C14"/>
     </g>
     <path stroke="null" id="svg_177" d="m1070.68555,307.6103c0,0 -20.93417,2.24163 -25.60836,7.35281c-4.67495,5.11093 2.94651,10.55138 -1.01654,13.0138c-3.96318,2.46242 -11.07682,6.8321 -6.70702,10.59222c4.3698,3.75987 28.35258,1.89295 31.90902,4.50317c3.55695,2.61021 5.6319,7.18307 9.47217,8.30107c3.84028,1.11775 10.07125,-3.65854 13.15445,-3.04874c3.08358,0.6098 40.17525,8.84119 45.25656,-2.64212c5.08093,-11.48306 54.0624,-2.33454 54.0624,-2.33454s-5.69086,15.5454 3.04848,18.79758c8.73934,3.25166 32.71421,2.13391 52.2293,3.65803c19.51573,1.52411 27.13707,-0.40636 29.6776,-3.65803c2.54078,-3.25217 -3.86146,-6.60543 -2.84556,-8.94303c1.01616,-2.33709 13.31271,-7.14197 13.82066,-12.1582c0.50821,-5.01572 -0.91483,-12.08851 -28.25061,-11.70232c-27.33642,0.3862 -188.20256,-21.73171 -188.20256,-21.73171z" fill="#6EB8E5"/>
     <path stroke="null" id="svg_178" d="m1200.35431,354.42186c-7.62197,-6.70702 -4.06784,-22.17559 -4.06784,-22.17559s-47.75919,2.76592 -60.96979,11.06291c-13.21112,8.29648 -31.70622,0.44235 -38.61604,-0.23687c-6.91058,-0.67974 -11.99126,0.78107 -15.44662,0c-3.4551,-0.78133 -7.62146,-4.80819 -11.38146,-6.10054c-3.76026,-1.29209 -28.04755,0.88573 -23.57642,-4.2931c4.47139,-5.17882 2.74065,-5.75136 2.74065,-13.03014c0,-3.7711 12.79467,-9.49412 18.55279,-11.64233c-5.9955,0.84208 -18.95417,3.06609 -22.51291,6.95691c-4.67444,5.11067 2.94702,10.55138 -1.01603,13.0138c-3.96318,2.46242 -11.07682,6.8321 -6.70702,10.59197c4.3698,3.76013 28.3522,1.89295 31.90902,4.50342c3.55695,2.61021 5.6319,7.18307 9.47217,8.30107c3.84028,1.11775 10.07125,-3.65854 13.15445,-3.04874c3.08358,0.6098 40.17525,8.84119 45.25656,-2.64212c5.08119,-11.48306 54.0624,-2.33454 54.0624,-2.33454s-5.69086,15.5454 3.04848,18.79758c8.73973,3.25166 32.71421,2.13391 52.2293,3.65803c19.51573,1.52411 27.13707,-0.40636 29.6776,-3.65803c0.12839,-0.16464 0.21875,-0.32979 0.30375,-0.49417c-18.46294,-0.58683 -69.58725,-1.48634 -76.11305,-7.22952z" fill="#56ABD6"/>
     <path stroke="null" id="svg_179" d="m1119.86751,164.98318c-0.85752,-1.22981 -22.82087,-22.49038 -12.10268,-42.87231c10.71806,-20.3818 37.92609,-7.37955 37.92609,-7.37955s1.16421,-17.3949 18.86892,-20.73322c17.70459,-3.33851 28.33943,15.81342 28.33943,15.81342s15.25339,-5.2711 29.54384,5.974c14.29007,11.24535 9.72526,26.39403 9.72526,26.39403s18.75993,5.23313 22.02895,16.47829c3.26915,11.24516 0,16.51645 0,16.51645s13.81198,9.66374 14.16295,20.73335c0.35123,11.06929 -12.65071,27.33795 -12.65071,27.33795l-135.84206,-58.26239z" fill="#CD2606"/>
     <path stroke="null" id="svg_180" d="m1255.70957,223.24557c0,0 6.77402,-8.49966 10.40755,-17.39056c-4.00262,-2.84824 -8.64401,-8.30848 -13.70043,-18.30666c-16.42896,-32.48448 -39.20554,-49.03788 -54.76307,-50.03349c-15.55791,-0.9958 -29.37333,8.21429 -35.59614,9.45896c-6.22319,1.24461 -33.23123,1.24461 -42.18996,-10.20596c-4.61893,-5.9038 -6.91365,-13.84497 -8.06216,-20.16682c-1.50204,1.48768 -2.87325,3.29053 -4.04052,5.51001c-10.71819,20.38174 11.24541,41.64231 12.10268,42.87212l135.84206,58.26239z" fill="#BC1A04"/>
     <path stroke="null" id="svg_181" d="m1162.91167,155.02654c0,0 -34.1472,-6.20366 -49.86324,2.8952c-15.71591,9.09874 -69.06782,70.87003 -59.96908,120.529c9.09874,49.65891 60.83196,73.64654 126.6767,71.78523c65.84486,-1.86105 112.9926,-46.29212 105.7549,-82.59774c0,0 -7.3449,0.0194 -18.61303,-33.19849c-11.26788,-33.21782 -43.23968,-126.04488 -103.98626,-79.41321z" fill="#FECE00"/>
     <path stroke="null" id="svg_182" d="m1213.75419,161.45444c-24.57943,-17.70548 -47.95165,5.41002 -47.95165,5.41002s-27.47196,-6.88551 -38.78399,-1.47549c-11.31165,5.40989 -32.78785,42.62427 -36.76086,70.7193c-3.97339,28.09503 18.07177,76.33473 95.91772,81.53091c77.84583,5.19669 91.34002,-45.68947 91.34002,-45.68947c-27.21403,-12.95127 -39.18155,-92.78985 -63.76124,-110.49527zm-25.44359,141.52507c-12.66245,1.58946 -12.97322,-10.13404 -33.86974,-7.16443c-20.89678,2.96987 -30.12327,-20.91413 -30.12327,-20.91413c-2.9945,-5.80036 2.39044,-12.27408 15.20821,-15.84737c12.81764,-3.57328 51.03714,-4.27255 63.77923,10.87555c12.74196,15.14797 -2.3325,31.46143 -14.99444,33.05038z" fill="#FFDA3E"/>
     <path stroke="null" id="svg_183" d="m1171.55504,267.63823c0,0 3.88239,25.10053 21.34423,23.29079c0,0 -10.92711,6.61258 -17.57083,0.51382c-6.64334,-6.09901 -4.96926,-19.72874 -3.7734,-23.80461z" fill="#FCC000"/>
     <path stroke="null" id="svg_184" d="m1129.04717,273.88299c0,0 15.7496,14.94632 31.97781,6.66899c0,0 -10.88219,27.3049 -31.97781,-6.66899z" fill="#FCC000"/>
     <path stroke="null" id="svg_185" d="m1075.63719,264.85445c-11.17777,-38.66607 20.65275,-84.41055 41.13321,-108.6787c-1.32221,0.50917 -2.57576,1.08227 -3.72197,1.74599c-15.71591,9.09874 -69.06782,70.87003 -59.96908,120.52874c9.09874,49.65916 60.83196,73.64679 126.6767,71.78549c34.59849,-0.97787 64.01789,-13.71677 83.1145,-30.84704c-81.19806,33.27066 -172.24199,-2.67632 -187.23336,-54.53449z" fill="#FCC000"/>
     <g stroke="null" id="svg_186">
      <path stroke="null" id="svg_187" d="m1245.62849,297.24602c-3.11459,-5.90195 -9.02893,-12.72613 -7.66396,-17.04782c1.36484,-4.32219 4.32194,-9.32642 2.27481,-14.33065c-2.04725,-5.00423 -9.55398,-9.21233 -7.50647,-15.46768c2.04725,-6.25554 0.90959,-20.23203 0.90959,-20.23203l-13.87516,-9.19108c0,0 4.89039,10.58527 1.36458,17.84319c-3.52568,7.25792 -7.50647,14.99176 -3.41209,19.99599c4.09451,5.00449 4.03644,13.56541 -1.73495,19.63455c-5.77126,6.0694 7.13342,14.34776 6.42458,18.79553s-15.94921,11.49914 -13.56068,22.07655c2.24865,9.95818 9.72768,12.06324 2.62413,26.5108c12.19202,-3.09673 23.31695,-7.65197 33.03289,-13.24251c-1.47383,-4.29182 -2.56286,-8.29316 -2.4466,-10.53862c0.34076,-6.5965 6.68379,-18.90402 3.56933,-24.80623z" fill="#6EB8E5"/>
      <path stroke="null" id="svg_188" d="m1121.501,318.64002c-1.25125,-5.80011 -10.46345,-15.01269 -8.87144,-19.1072c1.59252,-4.09451 8.07339,-7.50954 9.0408,-13.87681c0.96792,-6.36779 -7.78955,-14.99635 -7.22097,-18.01778c0.5687,-3.02168 10.91856,-11.2107 9.78128,-15.87359c-1.13753,-4.66321 -10.23615,-10.6404 -10.00859,-16.01137c0.2273,-5.37084 7.96146,-21.29216 7.96146,-21.29216l-14.33078,6.51565c-0.11384,-0.14792 -10.12217,8.99306 -7.96146,17.84319c2.16097,8.85012 2.50224,17.06007 -4.09438,26.0345c-6.59624,8.97443 1.8197,11.59026 1.36471,18.3006c-0.45473,6.71034 -18.65221,12.51096 -18.42478,35.71266c0.01404,1.41538 0.17166,2.77358 0.44771,4.07945c10.58903,8.84987 23.84009,15.56455 39.08864,20.12515c1.70356,-8.11576 4.04997,-20.61778 3.2278,-24.43228z" fill="#6EB8E5"/>
      <path stroke="null" id="svg_189" d="m1221.13189,238.81995c-3.52568,7.25792 -7.50647,14.99176 -3.41209,19.99599c4.09451,5.00449 4.03644,13.56541 -1.73495,19.63455c-5.77126,6.0694 7.13342,14.34776 6.42458,18.79553s-15.94921,11.49914 -13.56068,22.07655c2.24865,9.95818 9.72768,12.06324 2.62413,26.5108c12.19202,-3.09673 23.31695,-7.65197 33.03289,-13.24251c-0.59091,-1.7204 -1.11418,-3.3872 -1.52845,-4.92c-9.45533,5.00168 -16.20293,5.38839 -19.14434,3.02321c-3.52976,-2.83892 -5.52099,-5.9724 -6.05842,-13.0549c-0.53692,-7.08199 11.28281,-16.28921 11.22818,-21.82411c-0.05513,-5.53439 -8.94457,-11.65765 -8.00434,-14.08842c0.94022,-2.43052 6.98461,-15.16507 3.22359,-21.20946c-3.76089,-6.04438 -2.14872,-13.83489 1.34314,-21.69725c1.58461,-3.56703 1.28392,-8.90462 0.48792,-13.67938l-6.28573,-4.16381c0,0 4.89039,10.58527 1.36458,17.84319z" fill="#56ABD6"/>
      <path stroke="null" id="svg_190" d="m1119.86751,334.98233c-9.00149,-0.55747 -21.09115,-7.31452 -20.29348,-11.87257c0.9401,-5.37281 -1.88045,-16.38697 -1.88045,-22.29658c0,-5.91038 3.89516,-8.73092 5.37269,-12.89511c1.4774,-4.16368 -4.70099,-14.90906 -2.26792,-20.27983c2.43307,-5.37103 7.23756,-18.94116 4.68542,-28.81829c-1.69807,-6.57244 1.66744,-14.24731 4.31339,-18.72725l-1.94439,0.88407c-0.11384,-0.14792 -10.12217,8.99306 -7.96146,17.84319c2.16097,8.85012 2.50224,17.06007 -4.09438,26.0345c-6.59624,8.97443 1.8197,11.59026 1.36471,18.3006c-0.45473,6.71034 -18.65221,12.51096 -18.42478,35.71266c0.01404,1.41538 0.17166,2.77358 0.44771,4.07945c10.58903,8.84987 23.84009,15.56455 39.08864,20.12515c0.50834,-2.42158 1.07308,-5.23472 1.59431,-8.08998z" fill="#56ABD6"/>
      <path stroke="null" id="svg_191" d="m1103.05887,320.32367c0,0 -2.1029,-16.65881 -1.53241,-20.96289c0.57023,-4.30382 5.53248,-9.92423 5.78556,-12.86116c0.25296,-2.93668 -4.0612,-13.16492 -2.94166,-17.31711c1.1189,-4.15194 5.42284,-14.98793 5.27097,-20.15259c-0.152,-5.16472 -2.88614,-11.86185 -2.73439,-15.17184c0.152,-3.3098 3.19002,-9.94535 5.26599,-10.57704c2.0761,-0.63194 -2.17718,7.31784 0,13.90017c2.1773,6.58259 7.18651,11.89931 7.69459,15.49435c0.50821,3.59498 -9.1748,9.46885 -9.2196,15.59569c-0.04454,6.12658 6.68979,11.74699 6.89259,16.50694c0.20241,4.75944 -8.55735,10.07636 -8.70922,15.59543c-0.15226,5.51907 6.73433,14.2283 7.49397,17.62086c0.75938,3.39256 0.81004,7.9644 -0.81056,9.98242c-1.62022,2.01803 -11.81756,-2.12651 -12.45582,-7.65324z" fill="#7ECBF2"/>
      <path stroke="null" id="svg_192" d="m1223.40453,313.4321c0,0 10.09116,-10.66573 9.45252,-16.98886c-0.63877,-6.32287 -7.02545,-11.30438 -6.89795,-15.8392c0.12775,-4.53457 3.15888,-14.17878 2.18611,-18.52165c-0.97251,-4.34312 -2.72801,-10.69988 -1.59482,-15.82439c1.13332,-5.12439 1.83578,-10.93618 3.24107,-10.96821c1.40491,-0.03184 0.95796,5.23013 0.51089,10.74231c-0.44733,5.51206 1.46911,12.0903 5.10927,17.58308c3.64067,5.49253 -0.95809,13.47607 -1.02165,17.11674c-0.06394,3.64041 6.2588,14.81717 7.40858,17.88301c1.14953,3.06559 -8.43061,24.71689 -9.96353,27.20764c-1.53267,2.49076 -6.06749,2.87415 -7.40884,0c-1.34097,-2.87415 -3.11077,-10.00131 -1.02165,-12.39048z" fill="#7ECBF2"/>
     </g>
     <g stroke="null" id="svg_193">
      <path stroke="null" id="svg_194" d="m1179.75606,231.36746c0,3.09539 -6.80376,7.45249 -15.19622,7.45249c-8.39309,0 -15.19673,-4.3571 -15.19673,-7.45249c0,-3.09545 6.80363,-12.39482 15.19673,-12.39482c8.39245,0 15.19622,9.29937 15.19622,12.39482z" fill="#FF8B00"/>
      <path stroke="null" id="svg_195" d="m1164.55984,238.81995c6.23914,0 11.5946,-2.40844 13.93476,-4.91604c-3.17866,-2.9645 -8.58721,-6.87791 -14.43952,-6.4683c-9.20556,0.64458 -9.60478,4.97124 -11.78361,3.19149c-0.82868,-0.67693 -1.40619,-1.53056 -1.80706,-2.32976c-0.70373,1.23459 -1.10129,2.33135 -1.10129,3.07012c0,3.09539 6.80363,7.45249 15.19673,7.45249z" fill="#FF7300"/>
      <path stroke="null" id="svg_196" d="m1153.83642,226.49251c0,0 3.98373,-4.69888 10.09231,-5.46464c6.10871,-0.76569 14.52299,7.30259 14.29926,8.84272c-0.22347,1.53994 -6.01069,-3.37808 -12.81688,-3.8748c-6.8058,-0.49691 -10.3824,3.05512 -11.57469,3.12946c-1.19229,0.07466 -1.08176,-1.546 0,-2.63274z" fill="#FFA039"/>
      <path stroke="null" id="svg_197" d="m1164.55984,238.81995c4.74719,0 8.98349,-1.3947 11.77034,-3.16616c-2.37181,-4.03848 -6.74837,-6.75762 -11.77034,-6.75762s-9.39904,2.71927 -11.7706,6.75788c2.78659,1.7712 7.02302,3.1659 11.7706,3.1659z" fill="#FF8B00"/>
      <path stroke="null" id="svg_198" d="m1166.99368,237.12947c-5.84848,0 -10.58201,-2.38929 -10.78315,-5.36988c-1.37211,1.0667 -2.53657,2.38802 -3.42128,3.89446c2.78659,1.7712 7.02302,3.1659 11.7706,3.1659c4.74719,0 8.98349,-1.3947 11.77034,-3.16616c-0.17306,-0.29456 -0.3788,-0.56615 -0.57266,-0.84635c-1.96455,1.40115 -5.14679,2.32203 -8.76385,2.32203z" fill="#FF7300"/>
      <path stroke="null" id="svg_199" d="m1172.56265,234.09713c-0.19693,1.35278 -3.38325,2.00878 -7.11683,1.46528c-3.73371,-0.54356 -6.60084,-2.08088 -6.40365,-3.43353c0.19667,-1.35278 3.60417,-2.50448 7.33762,-1.96104c3.73396,0.54356 6.37966,2.57665 6.18286,3.9293z" fill="#FFA039"/>
     </g>
     <g stroke="null" id="svg_200">
      <path stroke="null" id="svg_201" d="m1103.10047,223.28105c-1.15464,0 -2.14948,-0.86435 -2.28668,-2.03902c-0.14639,-1.26267 0.75836,-2.40697 2.02326,-2.55451c0.16413,-0.01908 16.49226,-2.03902 25.69017,-12.28244c0.85293,-0.94756 2.31387,-1.0219 3.25435,-0.17555c0.9475,0.85069 1.0265,2.30793 0.17549,3.25428c-10.38177,11.56237 -27.85279,13.69699 -28.59124,13.78256c-0.08985,0.01015 -0.17766,0.01468 -0.26533,0.01468z"/>
     </g>
     <g stroke="null" id="svg_202">
      <path stroke="null" id="svg_203" d="m1214.13898,218.0402c-0.63992,-0.96103 -0.47171,-2.26805 0.43023,-3.03323c0.96983,-0.82153 2.42375,-0.70265 3.24732,0.26846c0.10695,0.12622 10.83663,12.59857 24.46074,14.57863c1.2612,0.18519 2.13238,1.35967 1.94962,2.61168c-0.18314,1.26025 -1.35284,2.13334 -2.61187,1.94949c-15.37783,-2.23461 -26.83651,-15.59505 -27.31702,-16.16222c-0.05807,-0.06917 -0.1104,-0.13975 -0.15902,-0.21282z"/>
     </g>
     <ellipse stroke="null" id="svg_204" ry="7.2121" rx="8.56903" cy="236.10827" cx="1081.6886" fill="#FF9999"/>
     <ellipse stroke="null" id="svg_205" ry="7.21191" rx="8.56896" cy="246.03211" cx="1254.19733" fill="#FF9999"/>
     <path stroke="null" id="svg_206" d="m1171.55504,267.63823c0,0 -2.71372,19.44617 8.20102,24.07901c10.07827,4.27727 23.54898,-10.33186 23.54898,-10.33186s-4.67827,15.37285 -22.56868,14.38426c-18.9289,-1.04577 -9.18131,-28.1314 -9.18131,-28.1314z" fill="#F99300"/>
     <path stroke="null" id="svg_207" d="m1129.04717,273.88299c0,0 12.56864,16.14422 23.1647,14.21707c10.59631,-1.92741 8.99255,-23.24536 8.99255,-23.24536s6.28943,18.61456 -5.27493,25.56331c-11.56448,6.949 -26.6794,-10.19505 -26.88232,-16.53502z" fill="#F99300"/>
     <g stroke="null" id="svg_208">
      <path stroke="null" id="svg_209" d="m1068.85168,302.0417c0,0 9.55296,-8.78248 19.35926,-2.57678c9.80694,6.2057 8.14422,29.2272 -0.83621,32.81401c-8.98056,3.58681 -31.49768,-17.73726 -18.52305,-30.23724z" fill="#FF8B00"/>
      <path stroke="null" id="svg_210" d="m1077.21963,304.66519c0,0 4.2834,-4.22264 10.79336,0.69965c6.50984,4.92229 3.89631,20.81484 -1.0667,22.5161c-4.41026,1.51161 -19.55006,-15.21383 -9.72666,-23.21575z" fill="#FFA039"/>
      <path stroke="null" id="svg_211" d="m1073.93887,302.70128c0,0 4.78803,-4.4003 11.06367,-4.76965c-8.58019,-2.84964 -16.15035,4.11008 -16.15035,4.11008c-12.50904,12.05099 7.97001,32.30274 17.50447,30.52772c-10.02799,-3.67641 -22.97772,-19.69454 -12.41779,-29.86814z" fill="#FF7300"/>
     </g>
     <g stroke="null" id="svg_212">
      <path stroke="null" id="svg_213" d="m1251.74333,309.80675c0,0 12.93008,1.0958 14.99201,12.51606c2.06219,11.42077 -16.01902,25.76751 -24.73514,21.57881c-8.71637,-4.18895 -8.23943,-35.19705 9.74312,-34.09487z" fill="#FF8B00"/>
      <path stroke="null" id="svg_214" d="m1255.47104,317.7446c0,0 6.00712,0.29865 6.78462,8.42308c0.7775,8.12418 -12.69627,16.94827 -17.30614,14.44348c-4.0963,-2.2258 -2.01675,-24.69009 10.52152,-22.86656z" fill="#FFA039"/>
      <path stroke="null" id="svg_215" d="m1254.69851,313.99978c0,0 6.47921,0.55007 10.99616,4.9228c-3.70448,-8.24722 -13.95135,-9.11584 -13.95135,-9.11584c-17.33702,-1.06262 -18.40219,27.71917 -10.64583,33.54123c-4.07434,-9.87267 -1.03505,-30.24541 13.60101,-29.34819z" fill="#FF7300"/>
     </g>
     <path stroke="null" id="svg_216" d="m1135.16481,271.81621c0.22717,-0.13656 16.68255,-8.12087 20.21027,-6.39357c3.52772,1.72704 1.39636,12.51479 -3.67449,14.59867s-21.42285,-5.26535 -16.53578,-8.2051z" fill="#FFDA3E"/>
     <path stroke="null" id="svg_217" d="m1177.56982,269.17051c0,0 19.98986,6.76139 20.79825,10.21547c0.80851,3.45434 -6.06302,7.79006 -11.6117,7.05518c-5.54868,-0.73462 -15.21306,-18.96094 -9.18655,-17.27065z" fill="#FFDA3E"/>
     <path stroke="null" id="svg_218" d="m1148.99172,120.4306c0,0 9.14519,-19.77526 20.6659,-19.9533c11.52083,-0.17836 21.49738,16.12374 21.49738,16.12374s19.01441,-2.78634 29.69227,4.42334c10.67786,7.20961 7.95763,23.51631 7.95763,23.51631s14.29785,6.88985 20.42826,13.18342c6.13053,6.29358 2.37538,18.40934 2.37538,18.40934s14.07413,13.00525 13.77752,19.12181c-0.29711,6.11668 -10.45183,-7.00732 -16.39029,-17.69648c-5.93858,-10.68947 -26.30788,-43.35091 -52.13996,-44.30115c-25.83247,-0.95018 -30.82075,7.00745 -47.03274,7.60136c-16.21199,0.59378 -27.43584,-7.4232 -29.81109,-18.64685c-2.37525,-11.22378 21.08145,-6.23557 28.97974,-1.78154z" fill="#E22C14"/>
     <path stroke="null" id="svg_219" d="m1062.16738,315.79498c0,0 4.85261,12.80935 14.2006,17.48354c9.34838,4.67393 13.20907,0.15519 16.04123,1.61396c5.01406,2.58265 25.5097,9.30447 23.33304,10.19658c-2.17628,0.89211 -15.14721,-4.78139 -18.75099,-4.46029c-3.60378,0.32085 -10.73976,0.6777 -13.34436,0.49953c-2.60447,-0.17868 -10.63281,-7.10062 -14.77173,-7.4932c-4.13867,-0.39232 -16.59143,-0.20012 -17.34059,-0.95643c-0.74942,-0.75606 0.60661,-8.10632 0.92759,-11.10349c0.32136,-2.99692 8.22271,-9.03467 9.70522,-5.7802z" fill="#7ECBF2"/>
     <path stroke="null" id="svg_220" d="m1206.76856,350.33654c0,0 18.62885,-5.94586 23.92241,-7.72727c5.29343,-1.78141 6.00622,7.17669 15.26973,5.80241s19.85062,-14.9134 23.41344,-15.16788c3.56307,-0.25449 15.01524,1.67956 14.8626,6.31138c-0.1529,4.63182 -15.47316,9.87445 -16.38927,11.70691c-0.91636,1.8322 4.37707,4.07179 2.95149,5.80215c-1.42482,1.73036 -50.03324,-0.35633 -57.5152,-1.8322c-7.48248,-1.47613 -9.40862,-3.97071 -6.5152,-4.89549z" fill="#7ECBF2"/>
    </g>
    <g stroke="null" id="svg_221" display="inline">
     <path stroke="null" id="svg_222" d="m1054.87953,220.70064c-0.95413,0 -1.72819,-0.77431 -1.72819,-1.72838l0,-68.15292c0,-0.9542 0.77405,-1.72838 1.72819,-1.72838c0.95426,0 1.72857,0.77418 1.72857,1.72838l0,68.15292c0,0.95407 -0.77431,1.72838 -1.72857,1.72838z"/>
    </g>
    <g stroke="null" id="svg_223" display="inline">
     <path stroke="null" id="svg_224" d="m1071.18061,212.87542c-0.95452,0 -1.72857,-0.77431 -1.72857,-1.72844l0,-74.77744c0,-0.95433 0.77405,-1.72844 1.72857,-1.72844c0.95413,0 1.72832,0.77412 1.72832,1.72844l0,74.77744c0,0.95413 -0.77418,1.72844 -1.72832,1.72844z"/>
    </g>
    <g stroke="null" id="svg_225" display="inline">
     <path stroke="null" id="svg_226" d="m1084.54207,217.73664c-0.95413,0 -1.72857,-0.77418 -1.72857,-1.72851l0,-67.14908c0,-0.95426 0.77444,-1.72844 1.72857,-1.72844c0.95439,0 1.7287,0.77418 1.7287,1.72844l0,67.14908c0,0.95433 -0.77431,1.72851 -1.7287,1.72851z"/>
    </g>
    <g stroke="null" id="svg_227" display="inline">
     <path stroke="null" id="svg_228" d="m1097.10267,205.44405c-0.95452,0 -1.72857,-0.77431 -1.72857,-1.72844l0,-47.53986c0,-0.95445 0.77405,-1.72851 1.72857,-1.72851c0.95413,0 1.72819,0.77405 1.72819,1.72851l0,47.53986c0,0.95413 -0.77405,1.72844 -1.72819,1.72844z"/>
    </g>
    <g stroke="null" id="svg_229" display="inline">
     <path stroke="null" id="svg_230" d="m1110.65774,192.88364c-0.95426,0 -1.72832,-0.77431 -1.72832,-1.72844l0,-42.94991c0,-0.95433 0.77405,-1.72844 1.72832,-1.72844c0.95413,0 1.72844,0.77412 1.72844,1.72844l0,42.94991c0,0.95413 -0.77431,1.72844 -1.72844,1.72844z"/>
    </g>
    <g stroke="null" id="svg_231" display="inline">
     <path stroke="null" id="svg_232" d="m1123.51086,184.16261c-0.95413,0 -1.72857,-0.77418 -1.72857,-1.72838l0,-27.6551c0,-0.95407 0.77444,-1.72838 1.72857,-1.72838s1.72819,0.77431 1.72819,1.72838l0,27.6551c0,0.9542 -0.77405,1.72838 -1.72819,1.72838z"/>
    </g>
    <g stroke="null" id="svg_233" display="inline">
     <path stroke="null" id="svg_234" d="m1252.5877,220.70064c-0.00204,0 -0.00204,0 -0.00434,0c-0.95465,-0.00217 -1.72615,-0.77763 -1.72385,-1.73176c0.03152,-14.34169 0.09444,-51.8925 0.00421,-53.40717c-0.0559,-0.94539 0.6574,-1.77139 1.60248,-1.83871c0.92274,-0.06745 1.76686,0.62097 1.84343,1.56521c0.1192,1.39866 0.018,48.34008 0.00664,53.68724c-0.0023,0.95445 -0.77635,1.72519 -1.72857,1.72519z"/>
    </g>
    <g stroke="null" id="svg_235" display="inline">
     <path stroke="null" id="svg_236" d="m1265.39143,215.52201c-0.95414,0 -1.72832,-0.77412 -1.72832,-1.72825l0,-53.46026c0,-0.95414 0.77418,-1.72825 1.72832,-1.72825s1.72857,0.77412 1.72857,1.72825l0,53.46026c0,0.95413 -0.77444,1.72825 -1.72857,1.72825z"/>
    </g>
    <g stroke="null" id="svg_237" display="inline">
     <path stroke="null" id="svg_238" d="m1274.81894,220.70064c-0.95184,0 -1.72398,-0.76959 -1.72857,-1.72162c-0.1797,-48.53803 -0.01327,-49.21675 0.05207,-49.47206c0.22717,-0.92842 1.17467,-1.48985 2.09307,-1.26146c0.86403,0.21492 1.41334,1.04539 1.29592,1.90948c-0.11435,1.80732 -0.05386,30.10942 0.01608,48.81057c0.00434,0.95535 -0.7678,1.73176 -1.72193,1.73508c-0.00204,0 -0.00434,0 -0.00664,0z"/>
    </g>
    <g stroke="null" id="svg_239" display="inline">
     <path stroke="null" id="svg_240" d="m1286.85053,237.01843c-0.95439,0 -1.72831,-0.77418 -1.72831,-1.72838l0,-72.08586c0,-0.95433 0.77393,-1.72844 1.72831,-1.72844c0.95414,0 1.72857,0.77412 1.72857,1.72844l0,72.08586c0,0.9542 -0.77444,1.72838 -1.72857,1.72838z"/>
    </g>
    <g stroke="null" id="svg_241" display="inline">
     <path stroke="null" id="svg_242" d="m1296.34797,206.37356c-0.95439,0 -1.72857,-0.77425 -1.72857,-1.72838l0,-28.70381c0,-0.95433 0.77418,-1.72864 1.72857,-1.72864c0.95413,0 1.72832,0.77431 1.72832,1.72864l0,28.70381c0,0.95413 -0.77418,1.72838 -1.72832,1.72838z"/>
    </g>
   </g>
   <g stroke="null" id="svg_243">
    <g stroke="null" id="svg_244">
     <path stroke="null" id="svg_245" d="m46.33466,307.46353c0,0 -10.63817,-20.8373 -20.42832,-17.57185c-9.79003,3.26545 -13.41634,22.63939 20.42832,17.57185z" fill="#CD2606"/>
     <path stroke="null" id="svg_246" d="m45.27389,305.53739c-3.5311,-1.72781 -15.65612,-0.92886 -20.83877,-3.25932c-2.36741,-1.06466 -4.08098,-2.78813 -5.25112,-4.34797c-0.71464,6.11126 5.65385,12.75217 27.15066,9.53343c0,0 -0.38007,-0.74355 -1.06077,-1.92614z" fill="#BC1A04"/>
     <path stroke="null" id="svg_247" d="m46.33466,307.46353c0,0 5.11048,-22.82853 -6.23755,-25.46605c-11.34783,-2.63702 -17.88396,14.56344 6.23755,25.46605z" fill="#CD2606"/>
     <path stroke="null" id="svg_248" d="m44.81667,298.9095c0,0 1.62117,-13.63509 -4.51255,-15.17171c-6.13385,-1.53637 -8.77725,8.74573 4.51255,15.17171z" fill="#E22C14"/>
     <path stroke="null" id="svg_249" d="m32.49843,283.67321c-5.03939,4.48964 -3.8002,15.81878 13.83623,23.79032c0,0 0.39883,-1.82455 0.72683,-4.46437c-12.57694,-6.16895 -15.98463,-14.07208 -14.56306,-19.32595z" fill="#BC1A04"/>
     <path stroke="null" id="svg_250" d="m46.33466,307.46353c0,0 -18.34546,-5.14232 -23.10835,0.52327c-4.76295,5.66584 6.3572,23.3352 23.10835,-0.52327z" fill="#CD2606"/>
     <path stroke="null" id="svg_251" d="m22.81912,308.56545c-3.63844,6.17431 7.29933,21.99462 23.51554,-1.10193c0,0 -0.60463,-0.16745 -1.59412,-0.40509c-12.50758,15.55357 -21.3831,7.88297 -21.92142,1.50701z" fill="#BC1A04"/>
     <path stroke="null" id="svg_252" d="m40.25664,307.96918c0,0 -10.69094,-3.00228 -14.29071,0.20624c-3.59964,3.20827 6.35809,12.04155 14.29071,-0.20624z" fill="#E22C14"/>
     <path stroke="null" id="svg_253" d="m34.78702,301.46177c0,0 -4.3929,-4.61676 -6.09212,-7.94934c-1.69935,-3.33258 -6.38368,1.10167 -7.18058,3.29863s5.79845,5.68116 9.92231,5.79015c4.12393,0.10925 4.18627,-0.22947 3.35038,-1.13945z" fill="#E22C14"/>
    </g>
    <path stroke="null" id="svg_254" d="m167.82813,127.78201c0,0 -5.87547,-24.17199 -40.73578,-22.82853c-34.86031,1.34378 -35.68133,35.38307 -35.68133,35.38307s-22.469,-0.14926 -38.36876,17.76616c-15.90008,17.91517 5.29988,39.78707 9.25617,40.45871c0,0 -14.80683,4.75096 -15.09214,21.55992c-0.28524,16.8091 26.58789,28.6033 26.58789,28.6033s105.40208,-81.06718 105.10357,-81.51502c-0.29858,-0.44784 -11.06961,-39.42761 -11.06961,-39.42761z" fill="#CD2606"/>
    <path stroke="null" id="svg_255" d="m167.82813,127.78201c0,0 -5.87547,-24.17199 -40.73578,-22.82853c-34.86018,1.34378 -35.68133,35.38307 -35.68133,35.38307s-22.469,-0.14926 -38.36876,17.76616c-15.90008,17.91542 5.29988,39.78688 9.25617,40.45871c0,0 -16.2238,-25.77191 -1.154,-39.6031c15.06987,-13.83132 34.47501,-12.79907 36.53936,-13.47364c2.06455,-0.67463 4.33528,-26.05907 29.7268,-30.9104c18.27801,-3.49224 34.28478,10.28132 41.81914,18.27297c-0.8528,-3.07969 -1.40159,-5.06523 -1.40159,-5.06523z" fill="#BC1A04"/>
    <path stroke="null" id="svg_256" d="m154.42359,347.0226c0,0 10.9035,21.93259 21.30569,19.05002c10.40225,-2.88257 14.59165,-29.26983 14.59165,-29.26983s27.26782,21.57983 35.28888,19.84743c8.02074,-1.73214 11.2793,-31.43463 11.2793,-31.43463s-54.39225,0 -82.46552,21.80701z" fill="#FF8B00"/>
    <g stroke="null" id="svg_257">
     <g stroke="null" id="svg_258">
      <g stroke="null" id="svg_259">
       <path stroke="null" id="svg_260" d="m177.67469,362.726c-8.80316,2.43971 -17.96513,-12.89282 -20.57388,-17.66425c-0.91585,0.63328 -1.80936,1.28673 -2.67722,1.96085c0,0 10.90369,21.93208 21.30575,19.04977c3.41401,-0.94597 6.15855,-4.42379 8.30573,-8.66991c-1.79104,2.64799 -3.90218,4.64254 -6.36039,5.32355z" fill="#FF7300"/>
      </g>
      <g stroke="null" id="svg_261">
       <path stroke="null" id="svg_262" d="m227.55478,353.30411c-8.02055,1.73189 -35.28856,-19.84769 -35.28856,-19.84769s-0.2654,1.67063 -0.82785,4.21677c5.20409,4.01411 27.12143,20.49935 34.17145,18.97702c2.03621,-0.43955 3.76542,-2.68322 5.21283,-5.78505c-0.98744,1.30511 -2.07469,2.18139 -3.26787,2.43894z" fill="#FF7300"/>
      </g>
     </g>
    </g>
    <path stroke="null" id="svg_263" d="m164.31285,147.25441c0,0 -42.18843,-15.38906 -77.78482,29.76572c-35.59646,45.15465 -11.04153,111.73337 -42.84749,128.54253c0,0 15.62549,51.08756 105.20854,51.08756s155.64558,-33.43887 133.41971,-119.57607c-15.05327,-58.33661 -85.57769,-110.63579 -114.48066,-109.29213c0,0 1.16261,6.89674 -3.51528,19.4724z" fill="#FECE00"/>
    <path stroke="null" id="svg_264" d="m112.25884,279.0128c0,0 21.89596,17.08764 35.78356,0.76142c0,0 -0.88069,13.6841 -15.85222,13.6841c-12.61268,0 -19.93135,-14.44552 -19.93135,-14.44552z" fill="#FCC000"/>
    <path stroke="null" id="svg_265" d="m237.17576,255.21968c0,0 3.91583,20.49756 25.82137,15.0303c0,0 -3.16194,6.4071 -13.88919,5.20231c-10.727,-1.20454 -14.62853,-11.95553 -11.93217,-20.23261z" fill="#FCC000"/>
    <path stroke="null" id="svg_266" d="m248.63916,242.20338c17.03148,-1.87796 17.0759,-10.42759 16.40892,-13.78059c-14.9975,-55.15424 -75.37492,-84.25261 -82.1328,-82.89243c-6.8104,1.37064 -8.07786,17.19319 -12.12163,20.13421c-4.04365,2.94077 -21.50491,-5.51416 -34.1874,0c-12.68242,5.51403 -26.83517,37.31208 -29.77619,61.75801c-2.94077,24.44575 -15.18352,56.38003 -15.18352,56.38003c-6.52369,18.70084 13.78511,39.71886 82.16496,39.90264c34.10681,0.09138 60.55456,-9.36726 76.71206,-25.81805c0.08947,-0.1095 0.20114,-0.22539 0.33706,-0.34816c0.00421,-0.00383 0.00855,-0.00766 0.01251,-0.01123c0.56436,-0.58402 1.11571,-1.1762 1.65442,-1.77707c4.18538,-5.4938 0.03561,-11.29825 -13.88294,-16.29738c-15.43903,-5.54485 -11.30757,-34.90096 9.99455,-37.24999zm-108.93574,60.95276c-28.18252,3.60238 -37.07591,-14.11599 -32.61772,-21.61378c0,0 8.37191,-21.55099 34.35753,-23.39927s26.44316,41.40991 -1.7398,45.01305z" fill="#FFDA3E"/>
    <path stroke="null" id="svg_267" d="m148.88908,356.65022c57.60614,0 105.48587,-13.82781 126.418,-46.60404c-15.40706,10.85769 -45.87542,26.54016 -98.34613,27.29137c-82.56985,1.18182 -101.97334,-24.14435 -101.63576,-39.84674c0.33783,-15.70213 9.7929,-39.17083 11.81897,-84.42018c1.27665,-28.51186 25.45897,-52.47556 43.17428,-66.30292c-13.45858,3.38471 -29.17979,11.71859 -43.79039,30.25243c-35.59646,45.15459 -11.04153,111.73337 -42.84749,128.54253c0,0 15.62549,51.08756 105.20854,51.08756z" fill="#FCC000"/>
    <g stroke="null" id="svg_268">
     <circle stroke="null" id="svg_269" r="44.18093" cy="111.76994" cx="336.69944" fill="#EFEFEF"/>
     <path stroke="null" id="svg_270" d="m336.15269,139.79395c-23.68069,-5.88511 -38.1063,-29.8527 -32.22145,-53.53269c0.53807,-2.16512 1.22853,-4.252 2.05555,-6.25446c-5.76463,5.56374 -10.08861,12.75894 -12.16381,21.10736c-5.88447,23.67992 8.54088,47.64764 32.22106,53.53256c21.51423,5.34652 43.26444,-6.07374 51.4772,-25.96641c-10.58737,10.217 -26.03667,14.92367 -41.36855,11.11364z" fill="#DDDDDD"/>
     <path stroke="null" id="svg_271" d="m371.06513,118.44263c-6.97644,12.56654 -25.23326,15.75771 -40.77905,7.12774c-15.54515,-8.62971 -22.49211,-25.81256 -15.5163,-38.3791c6.97593,-12.56635 25.23326,-15.75752 40.77892,-7.12768c15.54578,8.6299 22.49223,25.81269 15.51643,38.37903z" fill="#FFFFFF"/>
    </g>
    <g stroke="null" id="svg_272">
     <ellipse stroke="null" id="svg_273" ry="41.79298" rx="48.56355" cy="75.45922" cx="224.14109" fill="#EFEFEF"/>
     <path stroke="null" id="svg_274" d="m230.98716,101.31077c-26.82177,0 -48.56381,-18.71194 -48.56381,-41.7933c0,-2.1103 0.1834,-4.18366 0.53437,-6.21068c-4.67444,6.42293 -7.37961,14.01478 -7.37961,22.15211c0,23.08155 21.74224,41.79355 48.56253,41.79355c24.36808,0 44.54237,-15.44643 48.02976,-35.58217c-8.58517,11.79478 -23.81814,19.64048 -41.18324,19.64048z" fill="#DDDDDD"/>
     <path stroke="null" id="svg_275" d="m262.56907,73.74481c-4.10995,13.1279 -22.73995,20.22259 -41.61092,15.84692c-18.87077,-4.37573 -30.83625,-18.5653 -26.72643,-31.6932c4.11046,-13.12778 22.74021,-20.22265 41.61136,-15.84692c18.87084,4.37586 30.83632,18.5653 26.72598,31.6932z" fill="#FFFFFF"/>
    </g>
    <circle stroke="null" id="svg_276" r="8.23193" cy="225.52677" cx="120.49078"/>
    <circle stroke="null" id="svg_277" r="2.66898" cy="222.79026" cx="122.77385" fill="#FFFFFF"/>
    <ellipse stroke="null" id="svg_278" ry="6.91365" rx="7.65308" cy="240.67225" cx="103.70536" fill="#FF9999"/>
    <circle stroke="null" id="svg_279" r="8.23187" cy="210.38115" cx="221.99617"/>
    <path stroke="null" id="svg_280" d="m226.94804,207.64478c0,1.47396 -1.19458,2.66899 -2.66892,2.66899c-1.47415,0 -2.66854,-1.19503 -2.66854,-2.66899c0,-1.47402 1.19439,-2.66892 2.66854,-2.66892c1.47434,0 2.66892,1.1949 2.66892,2.66892z" fill="#FFFFFF"/>
    <path stroke="null" id="svg_281" d="m256.29266,222.79026c0,3.81839 -3.42651,6.91365 -7.6535,6.91365c-4.22647,0 -7.6526,-3.09526 -7.6526,-6.91365c0,-3.81826 3.42613,-6.91352 7.6526,-6.91352c4.22699,0 7.6535,3.09526 7.6535,6.91352z" fill="#FF9999"/>
    <g stroke="null" id="svg_282">
     <circle stroke="null" id="svg_283" r="8.83627" cy="231.14367" cx="177.82701" fill="#FF8B00"/>
     <path stroke="null" id="svg_284" d="m179.78901,238.04838c-4.87992,0 -8.83621,-3.95629 -8.83621,-8.83634c0,-1.96838 0.644,-3.78629 1.73227,-5.25502c-2.23684,1.60318 -3.69434,4.22475 -3.69434,7.18664c0,4.88018 3.95603,8.83634 8.83608,8.83634c2.91186,0 5.49444,-1.40855 7.10419,-3.58145c-1.44843,1.03843 -3.22384,1.64983 -5.142,1.64983z" fill="#FF7300"/>
     <path stroke="null" id="svg_285" d="m166.77189,231.00736c0,0 0.76799,-12.14384 10.50429,-12.96122c10.00527,-0.83985 11.60577,12.36833 11.60577,12.36833s-8.9796,5.12509 -22.11006,0.59289z" fill="#FF8B00"/>
     <path stroke="null" id="svg_286" d="m172.60269,227.48143c-1.40115,-3.25326 -0.25519,-6.34928 1.12445,-8.5063c-6.38444,3.01881 -6.95551,12.03223 -6.95551,12.03223c13.13071,4.5322 22.11031,-0.59289 22.11031,-0.59289s-0.0954,-0.7879 -0.38562,-1.9664c-5.14615,1.8613 -14.02805,3.36519 -15.89363,-0.96664z" fill="#FF7300"/>
     <path stroke="null" id="svg_287" d="m184.92349,227.02682c-1.20371,1.84375 -5.78237,2.6859 -8.51842,0.89957c-2.73586,-1.78613 -2.59311,-5.5245 -1.38947,-7.36825c1.2039,-1.84395 4.39769,-1.89059 7.13374,-0.10421c2.73586,1.78632 3.97792,4.72907 2.77415,6.57288z" fill="#FFA039"/>
     <path stroke="null" id="svg_288" d="m174.67898,233.46519c0,0 5.21073,0.78088 8.90219,-0.4689c3.69134,-1.24985 -0.39679,4.71471 -4.45831,4.02183c-4.06171,-0.69308 -6.79138,-3.76198 -4.44389,-3.55293z" fill="#FFA039"/>
    </g>
    <path stroke="null" id="svg_289" d="m112.25884,279.0128c0,0 11.35568,17.2487 24.84955,12.32028c13.49381,-4.92816 8.91757,-24.054 8.91757,-24.054s9.9151,18.94996 -7.15748,26.8702c-17.07264,7.92024 -26.60965,-15.13649 -26.60965,-15.13649z" fill="#F99300"/>
    <path stroke="null" id="svg_290" d="m237.17576,255.21968c0,0 -2.58188,13.0817 10.85411,18.16455c13.43676,5.08259 22.46505,-12.38844 22.46505,-12.38844s-4.87086,20.8253 -22.97172,15.67048c-18.10048,-5.15508 -10.34743,-21.44659 -10.34743,-21.44659z" fill="#F99300"/>
    <g stroke="null" id="svg_291">
     <circle stroke="null" id="svg_292" r="7.33762" cy="134.67875" cx="182.91516" fill="#EFEFEF"/>
     <path stroke="null" id="svg_293" d="m183.9497,139.21759c-4.05265,0 -7.33775,-3.28536 -7.33775,-7.33781c0,-0.37031 0.02776,-0.73449 0.08085,-1.09038c-0.70635,1.12771 -1.11526,2.4607 -1.11526,3.88935c0,4.05246 3.28529,7.33762 7.33775,7.33762c3.6817,0 6.73006,-2.7118 7.25722,-6.24706c-1.29726,2.0708 -3.59913,3.44827 -6.22281,3.44827z" fill="#DDDDDD"/>
     <ellipse stroke="null" id="svg_294" ry="33.07286" rx="40.91135" cy="781.04317" cx="517.33355" fill="#FFFFFF" transform="matrix(0.12618870169114005,0.03400190454964063,-0.03400190454964063,0.12618870169114005,144.83405563556158,16.837527649768262) "/>
    </g>
    <g stroke="null" id="svg_295">
     <circle stroke="null" id="svg_296" r="7.33756" cy="145.53037" cx="254.66485" fill="#EFEFEF"/>
     <path stroke="null" id="svg_297" d="m255.69945,150.06902c-4.05265,0 -7.33801,-3.28517 -7.33801,-7.33762c0,-0.37056 0.02808,-0.73449 0.08066,-1.09038c-0.70628,1.12771 -1.11469,2.46057 -1.11469,3.88916c0,4.05246 3.28485,7.33781 7.33724,7.33781c3.68215,0 6.73025,-2.71193 7.25735,-6.24725c-1.29719,2.0708 -3.59906,3.44827 -6.22255,3.44827z" fill="#DDDDDD"/>
     <ellipse stroke="null" id="svg_298" ry="33.07323" rx="40.91188" cy="864.07907" cx="1066.33701" fill="#FFFFFF" transform="matrix(0.12618861020856273,0.034002231273131095,-0.034002231273131095,0.12618861020856273,150.12930536671743,-1.4567224462685537) "/>
    </g>
    <g stroke="null" id="svg_299">
     <circle stroke="null" id="svg_300" r="10.55792" cy="109.70016" cx="193.86847" fill="#EFEFEF"/>
     <path stroke="null" id="svg_301" d="m195.35688,116.23099c-5.83112,0 -10.55802,-4.72715 -10.55802,-10.55821c0,-0.53297 0.03995,-1.05687 0.11614,-1.56885c-1.0161,1.6227 -1.6042,3.54061 -1.6042,5.59622c0,5.83087 4.72677,10.55795 10.5577,10.55795c5.29777,0 9.68384,-3.90211 10.44181,-8.98885c-1.86641,2.97956 -5.17812,4.96173 -8.95344,4.96173z" fill="#DDDDDD"/>
     <ellipse stroke="null" id="svg_302" ry="47.58572" rx="58.86882" cy="584.2005" cx="603.34154" fill="#FFFFFF" transform="matrix(0.1261893943449398,0.03399932996853577,-0.03399932996853577,0.1261893943449398,138.5218152247018,13.032347628025047) "/>
    </g>
    <g stroke="null" id="svg_303">
     <circle stroke="null" id="svg_304" r="10.55776" cy="132.98661" cx="298.82057" fill="#EFEFEF"/>
     <path stroke="null" id="svg_305" d="m300.30895,139.51744c-5.83099,0 -10.55802,-4.72715 -10.55802,-10.55821c0,-0.53297 0.04007,-1.05668 0.11588,-1.56872c-1.01616,1.62258 -1.60401,3.54042 -1.60401,5.5961c0,5.83087 4.72703,10.55795 10.55776,10.55795c5.29752,0 9.68352,-3.90211 10.4415,-8.98885c-1.86641,2.97957 -5.17793,4.96173 -8.95312,4.96173z" fill="#DDDDDD"/>
     <ellipse stroke="null" id="svg_306" ry="47.5849" rx="58.86813" cy="762.41426" cx="1406.37066" fill="#FFFFFF" transform="matrix(0.12618870169114005,0.03400190454964063,-0.03400190454964063,0.12618870169114005,148.20193988089153,-13.475265189013747) "/>
    </g>
    <g stroke="null" id="svg_307">
     <path stroke="null" id="svg_308" d="m230.61985,83.26134l-10.62687,0c-0.14677,-2.22178 -0.02093,-4.08206 0.3772,-5.58078c0.39832,-1.49872 0.93805,-2.74588 1.61926,-3.7413c0.68108,-0.99561 1.44613,-1.80259 2.2951,-2.42101c0.84891,-0.61835 1.67656,-1.15266 2.48367,-1.6035c0.80711,-0.45065 1.51965,-0.88554 2.13825,-1.30466c0.61809,-0.41925 1.04258,-0.94329 1.27307,-1.57204c0.14703,-0.37733 0.18876,-0.81215 0.12584,-1.30485c-0.06279,-0.49245 -0.27771,-0.95886 -0.64451,-1.39898c-0.3668,-0.44018 -0.91164,-0.81228 -1.63464,-1.11622c-0.72313,-0.30401 -1.66157,-0.45595 -2.81416,-0.45595c-0.7544,0 -1.65059,0.06828 -2.68813,0.20439c-1.03735,0.13618 -2.12198,0.34599 -3.25402,0.62888c-1.13205,0.28295 -2.24782,0.62875 -3.34853,1.03748c-1.10027,0.40866 -2.09097,0.87507 -2.97127,1.39917l-1.38322,-12.32462c0.77552,-0.46118 1.65066,-0.93812 2.62527,-1.43063c0.97481,-0.49257 2.04872,-0.93269 3.22263,-1.32036c1.17384,-0.38792 2.45228,-0.7075 3.83568,-0.95905s2.87159,-0.3772 4.46469,-0.3772c2.5778,0 5.01508,0.35614 7.30993,1.06881c2.29523,0.71279 4.30229,1.76067 6.02103,3.14408c1.71849,1.38353 3.08077,3.08645 4.08698,5.10907c1.00621,2.02269 1.50931,4.34402 1.50931,6.964c0,1.99129 -0.28307,3.58956 -0.84897,4.7948c-0.5659,1.20511 -1.28928,2.19556 -2.16965,2.97108c-0.88011,0.77552 -1.86513,1.4252 -2.95532,1.9493c-1.08993,0.52403 -2.15331,1.09516 -3.19117,1.71358c-1.0376,0.61822 -1.99123,1.37798 -2.86087,2.27928c-0.87016,0.90142 -1.53535,2.11713 -1.99659,3.64724z" fill="#DD0000"/>
     <g stroke="null" id="svg_309">
      <path stroke="null" id="svg_310" d="m230.42701,95.68928c0,3.62976 -2.94243,6.57218 -6.57199,6.57218c-3.62995,0 -6.57282,-2.94242 -6.57282,-6.57218c0,-3.62995 2.94287,-6.57263 6.57282,-6.57263c3.62957,0 6.57199,2.94268 6.57199,6.57263z" fill="#DD0000"/>
      <path stroke="null" id="svg_311" d="m224.78133,99.75469c-3.6295,0 -6.57237,-2.94274 -6.57237,-6.57263c0,-0.33196 0.02489,-0.65785 0.0723,-0.9766c-0.63271,1.01004 -0.99906,2.20404 -0.99906,3.48363c0,3.62969 2.94287,6.57237 6.57282,6.57237c3.29774,0 6.02818,-2.42911 6.50027,-5.59559c-1.16191,1.85492 -3.22346,3.08881 -5.57395,3.08881z" fill="#C40000"/>
      <path stroke="null" id="svg_312" d="m229.05541,95.41954c-0.55594,2.06455 -3.07758,3.18039 -5.63113,2.49216c-2.55431,-0.68816 -4.17364,-2.91964 -3.617,-4.98413c0.556,-2.06455 3.07733,-3.18039 5.63126,-2.49216c2.55412,0.68816 4.17357,2.91971 3.61687,4.98413z" fill="#FF2C2C"/>
     </g>
     <g stroke="null" id="svg_313">
      <path stroke="null" id="svg_314" d="m224.01225,77.46551c-0.33955,-4.92185 11.88023,-6.73235 9.67395,-13.35138c-2.20615,-6.61902 -14.99214,-2.71538 -16.85944,-6.223c-0.8514,-1.60133 -1.44486,-3.93319 -1.83731,-5.99512c-0.27267,0.12329 -0.53865,0.25002 -0.79728,0.38071c-0.97462,0.49251 -1.84975,0.96945 -2.62508,1.43063l1.38302,12.32462c0.8803,-0.52423 1.871,-0.99051 2.97127,-1.39917c1.10071,-0.40879 2.21649,-0.75453 3.34853,-1.03754c1.13205,-0.28307 2.21668,-0.49264 3.25402,-0.62881c1.03754,-0.13631 1.93373,-0.20439 2.68813,-0.20439c1.15259,0 2.09103,0.15194 2.81416,0.45595c0.723,0.30381 1.26784,0.67585 1.63464,1.11622c0.3668,0.44012 0.58172,0.90634 0.64451,1.39898c0.06305,0.49251 0.02119,0.92752 -0.12584,1.30472c-0.23049,0.62888 -0.6546,1.15291 -1.27307,1.57216c-0.61861,0.41912 -1.33114,0.85401 -2.13825,1.30466c-0.80673,0.45059 -1.63477,0.98515 -2.48367,1.6035c-0.84897,0.61841 -1.61403,1.4252 -2.2951,2.42082c-0.68121,0.99561 -1.22068,2.24278 -1.61926,3.74149c-0.39813,1.49872 -0.52397,3.35881 -0.3772,5.58065l10.62687,0c0.32136,-1.06657 0.74253,-1.9798 1.2621,-2.74084c-3.7734,0.0164 -7.69529,-0.52608 -7.8697,-3.05486z" fill="#C40000"/>
     </g>
     <path stroke="null" id="svg_315" d="m222.75979,57.32339c0,0 8.46424,0.12737 11.99694,5.21922c3.5327,5.09191 -2.92788,9.00634 -5.28271,10.94753c-2.35496,1.94139 -2.22785,3.53263 0.25461,4.01002c2.48246,0.47726 12.28391,-5.6966 12.34772,-12.53878c0.06356,-6.84237 -6.27169,-12.72735 -15.46666,-13.36624c-9.19491,-0.63877 -7.35906,5.29668 -3.84991,5.72825z" fill="#FF2C2C"/>
    </g>
    <g stroke="null" id="svg_316">
     <path stroke="null" id="svg_317" d="m344.3306,121.98254l-10.34156,2.44583c-0.65421,-2.12817 -0.96013,-3.96752 -0.91763,-5.51761c0.04263,-1.55002 0.28103,-2.88787 0.71471,-4.01353c0.43406,-1.1256 0.99268,-2.08714 1.6765,-2.88423c0.68382,-0.79715 1.36637,-1.50778 2.04789,-2.13206c0.68153,-0.62435 1.27473,-1.21175 1.78039,-1.76188c0.50515,-0.55032 0.79741,-1.15789 0.87705,-1.82295c0.05628,-0.40081 -0.00332,-0.83385 -0.17791,-1.2986c-0.17485,-0.46494 -0.49085,-0.86933 -0.94903,-1.21315c-0.45869,-0.34402 -1.07436,-0.5807 -1.84829,-0.70992c-0.77316,-0.12935 -1.7213,-0.06139 -2.84313,0.20401c-0.73411,0.17364 -1.59035,0.44631 -2.56874,0.81764c-0.97864,0.37139 -1.98561,0.82504 -3.02219,1.36082c-1.03645,0.53603 -2.04279,1.12937 -3.01964,1.78058c-0.97685,0.65083 -1.8331,1.33274 -2.56937,2.04534l-4.18321,-11.67539c0.64873,-0.62728 1.39075,-1.29266 2.22568,-1.99627c0.83531,-0.70386 1.77924,-1.37932 2.83228,-2.0269c1.05317,-0.64758 2.22376,-1.25284 3.51177,-1.81612c1.28852,-0.56302 2.70798,-1.02816 4.25813,-1.3947c2.50913,-0.59346 4.96211,-0.80756 7.35945,-0.64228c2.39759,0.16521 4.59225,0.72319 6.58322,1.67375c1.99097,0.95069 3.70882,2.29434 5.15304,4.03114c1.44499,1.73687 2.46868,3.87991 3.07171,6.42969c0.45843,1.93782 0.55096,3.55822 0.27771,4.86135c-0.2735,1.30306 -0.74917,2.43339 -1.42737,3.39071c-0.67821,0.95739 -1.4871,1.81638 -2.42745,2.5771c-0.94022,0.76091 -1.84369,1.56164 -2.71091,2.40212c-0.86735,0.84068 -1.62047,1.79953 -2.25975,2.87689c-0.63928,1.07717 -1.00684,2.41341 -1.10333,4.00862z" fill="#DD0000"/>
     <g stroke="null" id="svg_318">
      <circle stroke="null" id="svg_319" r="6.57235" cy="135.63377" cx="340.60774" fill="#DD0000"/>
      <path stroke="null" id="svg_320" d="m342.44531,139.3768c-3.53244,0.8357 -7.07318,-1.3508 -7.90901,-4.88318c-0.07658,-0.32296 -0.12712,-0.64604 -0.1543,-0.96709c-0.38301,1.1286 -0.46482,2.37474 -0.17013,3.61993c0.83544,3.53238 4.37631,5.71875 7.90875,4.8833c3.20942,-0.75919 5.30696,-3.75139 5.03754,-6.94147c-0.7036,2.07227 -2.42618,3.74756 -4.71286,4.2885z" fill="#C40000"/>
      <path stroke="null" id="svg_321" d="m345.60712,134.1743c-0.06675,2.1371 -2.26333,3.80333 -4.90672,3.72146c-2.64391,-0.08174 -4.73392,-1.88064 -4.6673,-4.01774c0.06611,-2.1371 2.26282,-3.8032 4.90672,-3.72146c2.64378,0.08187 4.73315,1.88077 4.6673,4.01774z" fill="#FF2C2C"/>
     </g>
     <g stroke="null" id="svg_322">
      <path stroke="null" id="svg_323" d="m336.56581,117.86333c-1.46285,-4.71165 10.01203,-9.28616 6.3415,-15.21963c-3.67041,-5.93354 -15.21485,0.80839 -17.83885,-2.17558c-1.1979,-1.36197 -2.31106,-3.49479 -3.16794,-5.41117c-0.23713,0.18283 -0.46698,0.36737 -0.68803,0.55403c-0.83532,0.7038 -1.57733,1.36918 -2.22606,1.99646l4.18321,11.67539c0.73628,-0.7126 1.59252,-1.39451 2.56937,-2.04553s1.98319,-1.24436 3.01964,-1.78039c1.03658,-0.53578 2.04355,-0.98942 3.02168,-1.36082c0.97889,-0.37133 1.83514,-0.644 2.56925,-0.81764c1.12184,-0.26514 2.06946,-0.33336 2.84313,-0.20401c0.77393,0.12922 1.3896,0.36584 1.84829,0.70992c0.45818,0.34382 0.77418,0.74802 0.94903,1.21296c0.17459,0.46494 0.23419,0.89779 0.17791,1.29879c-0.07964,0.66506 -0.3719,1.27263 -0.87705,1.82282c-0.50566,0.55045 -1.09886,1.13772 -1.78039,1.76188c-0.68152,0.62441 -1.36407,1.33504 -2.04789,2.13219c-0.68382,0.79709 -1.24282,1.75863 -1.67624,2.88423c-0.43393,1.12566 -0.67234,2.46338 -0.71496,4.01366c-0.0425,1.54996 0.26342,3.38931 0.91763,5.51748l10.34156,-2.44602c0.06726,-1.11175 0.26674,-2.09748 0.59729,-2.95768c-3.66824,0.88458 -7.6101,1.25935 -8.36208,-1.16134z" fill="#C40000"/>
     </g>
     <path stroke="null" id="svg_324" d="m330.71146,98.55028c0,0 8.2661,-1.82448 12.87584,2.31776c4.60986,4.14192 -0.7761,9.43842 -2.62094,11.86951c-1.84497,2.43122 -1.35488,3.95042 1.17084,3.84366c2.52534,-0.10682 10.64327,-8.37108 9.13001,-15.04434c-1.51301,-6.67314 -9.03276,-10.94198 -18.12767,-9.44735c-9.09517,1.49476 -5.94305,6.84862 -2.42809,6.46076z" fill="#FF2C2C"/>
    </g>
    <path stroke="null" id="svg_325" d="m171.13965,357.47698c0,0 10.16704,-1.55117 10.75303,-0.96511c0.58587,0.58606 -2.86062,4.85976 -5.79015,4.89396c-2.92953,0.03446 -7.58509,-3.55337 -4.96288,-3.92885z" fill="#FFA039"/>
    <path stroke="null" id="svg_326" d="m221.75735,348.68506c0,0 7.80269,-3.02347 8.58121,-2.91039c0.77801,0.11308 -1.15693,5.37128 -3.57583,5.8971c-2.41858,0.52582 -6.96132,-2.24316 -5.00538,-2.98671z" fill="#FFA039"/>
    <path stroke="null" id="svg_327" d="m241.90662,254.4677c0,0 22.24311,-1.83833 25.22127,0c2.97778,1.83859 -2.71895,14.55247 -13.36159,13.93118c-10.64238,-0.62154 -15.44445,-13.66853 -11.85968,-13.93118z" fill="#FFDA3E"/>
    <path stroke="null" id="svg_328" d="m117.74907,275.01887c0.11959,-0.07683 15.71891,-10.77166 21.98217,-9.74836c6.26314,1.02382 6.62355,15.91016 -4.24032,18.37539c-9.78097,2.21942 -22.43888,-5.60178 -17.74185,-8.62703z" fill="#FFDA3E"/>
    <path stroke="null" id="svg_329" d="m63.01855,201.07572c-1.02586,0.82332 -9.95856,7.44011 -10.70377,16.21914c-0.74515,8.77891 8.33279,16.16324 9.89092,15.62115c1.55806,-0.54177 -0.6775,-16.39431 14.90408,-48.09931c15.58152,-31.705 44.71211,-39.76684 56.3644,-41.86693c11.65222,-2.10009 23.38262,0.03012 26.01957,-0.9334c2.63682,-0.96345 2.02709,-20.54191 -22.22581,-22.91302c-24.25297,-2.37117 -34.75362,24.70763 -35.22775,27.66435c-0.47426,2.95678 -23.30457,3.76957 -36.98906,14.20258c-13.68474,10.43269 -0.94858,29.26607 0.13548,32.51773c1.08387,3.25192 -0.0157,5.86016 -2.16805,7.58771z" fill="#E22C14"/>
   </g>
  </g>
 </g>
</svg>