<svg width="400" height="350" xmlns="http://www.w3.org/2000/svg">

 <g>
  <title>background</title>
  <rect fill="none" id="canvas_background" height="352" width="402" y="-1" x="-1"/>
 </g>
 <g>
  <title>Layer 1</title>
  <g stroke="null" id="svg_1">
   <g stroke="null" id="svg_2">
    <path stroke="null" id="svg_3" d="m308.38585,78.87101c0,0 -13.93548,-20.81964 -9.01829,-31.08656c4.91752,-10.26668 39.30444,-7.40287 47.83242,7.02481c8.52767,14.42783 -19.96162,21.6457 -38.81414,24.06175z" fill="#CD2606"/>
    <path stroke="null" id="svg_4" d="m308.38585,78.87101c9.71253,-1.24477 21.98327,-3.76414 30.43201,-7.88733c-2.79736,-0.6023 -6.25455,-1.08115 -9.62713,-0.8506c-7.57075,0.51808 -13.50438,1.96775 -16.85407,0c-3.35048,-1.96751 -8.21369,-8.24495 -8.42996,-17.16087c-0.10624,-4.37631 1.92268,-7.9706 4.01632,-10.49692c-4.15002,0.93861 -7.30524,2.69925 -8.55545,5.30915c-4.9172,10.26692 9.01829,31.08656 9.01829,31.08656z" fill="#BC1A04"/>
    <path stroke="null" id="svg_5" d="m308.38585,78.87101c0,0 -4.44647,-23.7859 -21.88903,-23.07887c-17.44272,0.70696 -15.97434,36.3759 21.88903,23.07887z" fill="#CD2606"/>
    <path stroke="null" id="svg_6" d="m279.69988,58.42856c-9.26533,8.14613 -3.17747,31.63227 28.68597,20.44244c0,0 -0.23678,-1.26561 -0.81469,-3.20344c-24.10043,6.78637 -31.53969,-7.85071 -27.87128,-17.239z" fill="#BC1A04"/>
    <g stroke="null" id="svg_7">
     <path stroke="null" id="svg_8" d="m301.96192,251.762c0,0 26.88437,17.27823 26.4007,24.18914c-0.48383,6.91123 -18.17643,6.42724 -24.05118,4.83795c-5.87443,-1.5896 -21.97743,-17.83072 -21.97743,-17.83072l19.62791,-11.19637z" fill="#FF8B00"/>
    </g>
    <path stroke="null" id="svg_9" d="m328.36262,275.95114c0.03347,-0.47483 -0.06362,-0.99859 -0.27104,-1.56245c-3.90756,1.64296 -8.91963,3.36737 -11.81091,2.87044c-5.23307,-0.89946 -20.15499,-12.95962 -20.11426,-13.32774c0,0 -8.09451,-2.37099 -10.62904,-0.89946c-0.78012,0.45304 -1.12914,1.11509 -1.22512,1.87848c4.48357,4.36439 15.38981,14.63131 19.99919,15.87868c5.87475,1.58929 23.56735,2.07328 24.05118,-4.83795z" fill="#FF7300"/>
    <g stroke="null" id="svg_10">
     <path stroke="null" id="svg_11" d="m291.9381,264.8618c0,0 26.88468,17.27823 26.40101,24.18914c-0.48367,6.91154 -18.17674,6.42756 -24.05086,4.83796c-5.87443,-1.5896 -21.97759,-17.83104 -21.97759,-17.83104l19.62744,-11.19606z" fill="#FF8B00"/>
     <path stroke="null" id="svg_12" d="m294.99402,289.47683c-4.41427,-1.19465 -14.6029,-10.66124 -19.39618,-15.2943l-3.28718,1.87532c0,0 16.10315,16.24144 21.97759,17.83104c5.87412,1.5896 23.56719,2.07359 24.05086,-4.83796c0.04041,-0.57775 -0.11145,-1.22875 -0.42211,-1.93562c-4.06067,4.27788 -17.86735,3.72918 -22.92299,2.36152z" fill="#FF7300"/>
     <path stroke="null" id="svg_13" d="m289.88898,279.87227c0,0 5.75367,-7.35323 7.54644,-7.31597c1.79355,0.03757 15.54182,10.83425 14.86936,12.47816c-0.67231,1.64391 -10.16163,2.50327 -14.64489,1.56908c-4.48294,-0.93387 -8.88837,-5.3532 -7.77091,-6.73127z" fill="#FFA039"/>
    </g>
    <path stroke="null" id="svg_14" d="m86.12768,266.53538c0,0 -19.96225,16.80814 -19.60423,21.46172c0.35786,4.6539 42.85603,0 42.85603,0l-23.2518,-21.46172z" fill="#FF8B00"/>
    <path stroke="null" id="svg_15" d="m90.85988,289.57849c1.05826,-1.56151 -1.02085,-2.38299 -1.02085,-2.38299l0,-9.57551c0,0 -8.63422,10.39699 -10.15784,10.69566c-1.52394,0.29866 -9.62003,0.14933 -10.63567,-1.12014c-0.42905,-0.53576 -0.58059,-1.86743 -0.61295,-3.22751c-1.23617,1.67579 -1.98077,3.09649 -1.90974,4.02879c0.19511,2.52948 12.83507,2.30943 24.33706,1.58171z" fill="#FF7300"/>
    <path stroke="null" id="svg_16" d="m93.85503,275.55051c-0.3577,0.42937 -19.10367,18.6743 -15.88374,23.32504c3.21962,4.65074 53.16068,-2.50422 52.80329,-2.7189c-0.35786,-0.21437 -36.91956,-20.60614 -36.91956,-20.60614z" fill="#FF8B00"/>
    <path stroke="null" id="svg_17" d="m81.15334,294.74794c-0.99875,-1.48952 0.11744,-4.32998 2.14226,-7.55244c-3.77212,4.73787 -6.77405,9.58625 -5.32431,11.68004c3.21962,4.65074 53.16068,-2.50422 52.80329,-2.7189c-0.08319,-0.04988 -2.12,-1.18865 -5.19755,-2.90738c-14.28608,1.95362 -42.05002,5.03685 -44.42369,1.49868z" fill="#FF7300"/>
    <path stroke="null" id="svg_18" d="m62.99965,160.80945c0,0 -30.47527,111.64582 64.34032,140.38942c94.8159,28.74264 159.22852,-10.52265 181.04589,-49.93474c21.81689,-39.4121 21.12438,-148.49814 0,-172.39312c0,0 -45.36609,6.57981 -79.64994,-6.2334c-34.28432,-12.81321 -107.75911,-19.66437 -165.73627,88.17184z" fill="#FECE00"/>
    <path stroke="null" id="svg_19" d="m106.02379,187.01441c0,0 11.23631,2.80699 23.62892,-7.10697c12.39276,-9.91459 3.13943,-33.21295 7.93145,-37.01348c4.79218,-3.80037 19.16887,-19.82839 21.72928,-29.08164c2.56089,-9.25341 18.75418,-18.50682 33.46,-27.4296c14.70629,-8.92286 65.26914,7.47335 89.559,5.63694c24.29017,-1.83649 25.77701,18.81803 28.0907,43.35596c2.3129,24.53785 -5.45312,99.22528 -26.43827,118.88839s-40.64858,1.48731 -61.46814,4.95729c-20.82019,3.46998 -15.20211,12.97035 -45.93642,14.58174c-30.73399,1.61171 -59.3202,-16.23417 -71.05218,-43.99401c-11.73166,-27.76015 -7.75781,-43.29029 0.49567,-42.79463z" fill="#FFDA3E"/>
    <path stroke="null" id="svg_20" d="m149.74629,285.25578c-94.81559,-28.74328 -64.33985,-140.3891 -64.33985,-140.3891c15.60054,-29.01731 32.32328,-49.72977 49.103,-64.25681c-24.03492,13.63516 -48.94578,38.23142 -71.5098,80.19959c0,0 -30.47527,111.64551 64.34032,140.3891c73.84527,22.38612 129.24734,3.51955 160.4489,-24.5399c-32.49376,18.15464 -79.46588,26.35461 -138.04258,8.59713z" fill="#FCC000"/>
    <g stroke="null" id="svg_21">
     <path stroke="null" id="svg_22" d="m62.99965,160.80945c0,0 10.33511,-6.70349 20.67007,3.51007c10.33527,10.21325 22.85874,10.82131 35.99011,2.91812c13.13152,-7.90335 9.24102,-29.05962 0,-33.31524c0,0 16.29306,-2.18851 22.37254,-15.31995c6.07917,-13.1316 0,-23.58827 0,-23.58827s20.66991,1.58045 24.07438,-11.67254c3.40431,-13.25299 -13.13152,-33.43672 -50.33743,-18.48125c-37.20607,14.95515 -62.37502,49.2753 -52.76967,95.94907z" fill="#CD2606"/>
     <g stroke="null" id="svg_23">
      <path stroke="null" id="svg_24" d="m127.33997,131.71416c-10.23251,-0.88225 -17.52875,-6.90713 -17.52875,-6.90713c3.6965,6.75022 9.84924,9.11537 9.84924,9.11537s3.40368,-0.45825 7.67951,-2.20824z" fill="#9B0D02"/>
      <path stroke="null" id="svg_25" d="m139.54441,88.96673c-0.32155,3.21418 2.48764,6.04744 2.48764,6.04744s2.14526,0.1637 5.16708,-0.05675c-5.84855,-2.34084 -7.65473,-5.9907 -7.65473,-5.9907z" fill="#9B0D02"/>
     </g>
     <path stroke="null" id="svg_26" d="m84.37249,98.00791c13.81835,-19.28931 35.45008,-31.54624 50.44209,-38.16164c-5.59945,0.58722 -11.94572,2.16017 -19.04527,5.01381c-37.20607,14.9557 -62.37502,49.27562 -52.76967,95.94938c0,0 10.33511,-6.70349 20.67007,3.51007c10.33527,10.21325 22.85874,10.82131 35.99074,2.91812c-42.2295,-4.25105 -57.89603,-37.67064 -35.28796,-69.22974z" fill="#BC1A04"/>
     <path stroke="null" id="svg_27" d="m106.47226,116.97969c0,0 10.77253,10.41112 23.13562,4.91633c12.36308,-5.49463 6.79852,-24.86548 5.20671,-32.92929c-1.5915,-8.06405 11.85589,1.40704 20.53179,-1.48487c8.67558,-2.89183 3.1811,-23.42465 -17.0626,-23.42465c-20.24386,0 -51.40438,35.28157 -56.39309,50.31975s4.04899,34.84794 16.91769,41.64409c12.86933,6.79615 25.66604,0.86757 22.12345,-7.80832s-12.5795,-16.19487 -17.06229,-25.44899c-4.48262,-9.25444 0.31413,-7.62292 2.60272,-5.78406z" fill="#E22C14"/>
    </g>
    <g stroke="null" id="svg_28">
     <g stroke="null" id="svg_29">
      <path stroke="null" id="svg_30" d="m125.65012,251.26412c-0.01389,0 -0.02794,0 -0.04372,0c-8.97819,-0.02494 -15.43574,-8.02001 -15.70504,-8.36003c-0.82527,-1.03774 -0.65273,-2.54526 0.38327,-3.37369c1.03664,-0.82148 2.55031,-0.65573 3.37716,0.3757c0.05304,0.06598 5.32904,6.54532 11.98218,6.54848c0.00189,0 0.00473,0 0.00616,0c3.84662,0 7.57138,-2.20398 11.06851,-6.55448c0.83269,-1.03332 2.34652,-1.19433 3.38126,-0.36622c1.03474,0.83284 1.19923,2.3451 0.36638,3.38158c-4.45547,5.53852 -9.44023,8.34866 -14.81616,8.34866z"/>
     </g>
    </g>
    <ellipse stroke="null" id="svg_31" ry="71.55964" rx="79.69286" cy="-13673.84025" cx="-4851.41321" fill="#FF9999" transform="matrix(0.16064673148593456,-0.01792821378916353,0.01792821378916353,0.16064673148593456,1180.7373352817056,2371.5142325333554) "/>
    <g stroke="null" id="svg_32">
     <path stroke="null" id="svg_33" d="m270.90512,306.87661c0,0 -22.08825,-23.48448 -33.30183,-29.44321c-11.21342,-5.95873 -28.15479,-6.30917 -34.69711,12.38471c-6.54358,18.69388 13.20224,39.14058 67.99894,17.0585z" fill="#FECE00"/>
     <path stroke="null" id="svg_34" d="m257.85299,299.9597c0,0 -16.80498,-16.15493 -23.31747,-19.61544c-6.51249,-3.46082 -16.35194,-3.66414 -20.15183,7.19253c-3.80006,10.8573 11.64468,25.24741 43.4693,12.42291z" fill="#FFDA3E"/>
     <path stroke="null" id="svg_35" d="m209.91591,282.44627c0.73135,-2.08906 1.59292,-3.93976 2.56121,-5.5723c-3.96249,2.48622 -7.36049,6.62772 -9.57094,12.94383c-6.54358,18.69419 13.20224,39.1409 67.99894,17.05881c0,0 -1.29063,-1.37208 -3.40589,-3.53691c-46.87645,15.54813 -63.69311,-3.43588 -57.58332,-20.89344z" fill="#FCC000"/>
    </g>
    <path stroke="null" id="svg_36" d="m83.67114,292.07671c0,0 4.78728,-7.39679 6.575,-7.64336c1.78756,-0.24689 11.99923,7.37627 11.91714,8.46516c-0.08224,1.08889 -20.81672,2.51559 -18.49214,-0.8218z" fill="#FFA039"/>
    <path stroke="null" id="svg_37" d="m71.26196,283.09505c0,0 7.34912,-8.03327 8.50178,-8.17723c1.1525,-0.1446 5.92589,3.51228 5.83592,4.3947c-0.09029,0.88273 -5.43323,6.17846 -6.76048,6.9166c-1.32725,0.73876 -10.00883,0.18027 -7.57722,-3.13406z" fill="#FFA039"/>
    <path stroke="null" id="svg_38" d="m302.97836,264.63038c0.09613,-0.15217 3.24362,-5.38919 4.54055,-5.78824c1.29757,-0.39906 16.74089,11.72929 16.36662,13.32427c-0.37412,1.59529 -6.0375,2.71796 -7.93382,2.34352c-1.896,-0.37443 -13.9197,-8.38149 -12.97335,-9.87954z" fill="#FFA039"/>
    <path stroke="null" id="svg_39" d="m302.2991,71.78961c0,0 -5.34215,-13.04289 -15.98997,-12.67438c-10.64814,0.36844 -3.97922,20.19051 15.98997,12.67438z" fill="#E22C14"/>
    <path stroke="null" id="svg_40" d="m308.38585,78.87101c0,0 12.55551,-8.88158 27.87649,-5.38161c15.32051,3.49997 18.87762,29.77936 9.21418,33.55076c-9.66391,3.77117 -14.24804,-2.99452 -17.86182,-10.30133c-3.61426,-7.30682 -9.78562,-17.0862 -19.22885,-17.86782z" fill="#CD2606"/>
    <path stroke="null" id="svg_41" d="m338.84691,102.76575c-6.13679,-3.01338 -6.23198,-7.64241 -14.35696,-17.61099c-2.83145,-3.47337 -5.91264,-7.73011 -7.49293,-10.4318c-5.29795,1.80476 -8.61117,4.14805 -8.61117,4.14805c9.44323,0.78162 15.61459,10.56101 19.22885,17.86782c3.61379,7.30681 8.19791,14.07227 17.86151,10.30133c2.1642,-0.84476 3.66477,-2.81875 4.51924,-5.41215c-3.37321,1.46616 -7.81211,2.77652 -11.14854,1.13774z" fill="#BC1A04"/>
    <path stroke="null" id="svg_42" d="m323.70825,76.70531c0,0 10.70055,-2.04912 16.84792,2.27683c6.14721,4.32564 7.77865,15.861 5.91942,19.57961c-1.85938,3.71884 -10.1318,-0.98668 -13.20524,-6.14713c-3.07329,-5.16045 -12.502,-15.3445 -9.5621,-15.70931z" fill="#E22C14"/>
    <path stroke="null" id="svg_43" d="m308.73424,54.98423c-0.01815,-0.25967 -0.34681,-7.41495 3.46903,-9.36612c3.81537,-1.95149 26.24269,-0.35589 32.73828,10.15855c2.7751,4.49217 -3.07881,8.73493 -4.98681,9.86834c-1.90784,1.13372 -8.75909,1.48037 -15.00306,1.74067c-6.24429,0.26022 -15.26384,1.17073 -16.21744,-12.40144z" fill="#E22C14"/>
   </g>
   <g stroke="null" id="svg_44" display="none">
    <g stroke="null" id="svg_45" display="inline">
     <polygon stroke="null" id="svg_46" points="-134.60044479370117,207.69949340820312 -57.49778366088867,298.1902160644531 -62.42222213745117,302.1345520019531 -135.04050827026367,208.16726684570312 "/>
     <polygon stroke="null" id="svg_47" points="-312.8359260559082,69.22343444824219 -375.3420295715332,-31.901565551757812 -369.8766975402832,-35.05488586425781 -312.3299446105957,68.82792663574219 "/>
     <polygon stroke="null" id="svg_48" points="-286.0024299621582,93.96098327636719 -339.4371223449707,-12.237503051757812 -333.7173957824707,-14.901077270507812 -285.4638557434082,93.61088562011719 "/>
     <polygon stroke="null" id="svg_49" points="-262.9525032043457,88.77641296386719 -300.4819221496582,-24.028274536132812 -294.4371223449707,-25.837600708007812 -262.3690071105957,88.50785827636719 "/>
     <polygon stroke="null" id="svg_50" points="-249.4587287902832,79.78495788574219 -276.1373176574707,-36.06684875488281 -269.9485969543457,-37.29536437988281 -248.85239028930664,79.57279968261719 "/>
     <polygon stroke="null" id="svg_51" points="-242.1279182434082,97.51103210449219 -242.1209602355957,-21.372512817382812 -235.81430435180664,-21.180618286132812 -241.4897346496582,97.44071960449219 "/>
     <polygon stroke="null" id="svg_52" points="-223.9294319152832,87.16947937011719 -210.9045295715332,-30.998733520507812 -204.6567268371582,-30.117385864257812 -223.2870979309082,87.16923522949219 "/>
     <polygon stroke="null" id="svg_53" points="-211.9138069152832,79.16825866699219 -178.9523811340332,-35.05488586425781 -172.9460334777832,-33.12226867675781 -211.28085708618164,79.27738952636719 "/>
     <polygon stroke="null" id="svg_54" points="-196.3591194152832,73.70439147949219 -138.65305709838867,-30.234573364257812 -133.23191452026367,-27.006057739257812 -195.7672004699707,73.95243835449219 "/>
     <polygon stroke="null" id="svg_55" points="-189.1810188293457,81.27958679199219 -115.32310104370117,-11.878372192382812 -110.50022506713867,-7.8102569580078125 -188.6373176574707,81.62065124511719 "/>
     <polygon stroke="null" id="svg_56" points="-167.6716194152832,80.50028991699219 -77.84885787963867,2.6211395263671875 -73.86191940307617,7.5115203857421875 -167.2004280090332,80.93632507324219 "/>
     <polygon stroke="null" id="svg_57" points="-163.1194953918457,92.52494812011719 -66.36558151245117,23.445358276367188 -62.85679244995117,28.689254760742188 -162.6912727355957,93.00346374511719 "/>
     <polygon stroke="null" id="svg_58" points="-148.19187545776367,99.32693481445312 -38.86118698120117,52.63456726074219 -36.56016159057617,58.50956726074219 -147.87583541870117,99.88604736328125 "/>
     <polygon stroke="null" id="svg_59" points="-122.36741256713867,107.40069580078125 -5.352153778076172,86.40483093261719 -4.426738739013672,92.64628601074219 -122.18516159057617,108.01641845703125 "/>
     <polygon stroke="null" id="svg_60" points="-127.54270553588867,133.10427856445312 -8.661235809326172,133.82083129882812 -8.890239715576172,140.12625122070312 -127.47605514526367,133.74298095703125 "/>
     <polygon stroke="null" id="svg_61" points="-130.67551803588867,150.49295043945312 -15.194805145263672,178.73391723632812 -16.878765106201172,184.81448364257812 -130.75864791870117,151.12966918945312 "/>
     <polygon stroke="null" id="svg_62" points="-125.37339401245117,175.49639892578125 -13.763164520263672,216.44143676757812 -16.115337371826172,222.29666137695312 -125.52720260620117,176.11990356445312 "/>
     <polygon stroke="null" id="svg_63" points="-125.47715377807617,207.27713012695312 -22.770488739013672,267.1496887207031 -26.112285614013672,272.50177001953125 -125.73777389526367,207.86404418945312 "/>
     <polygon stroke="null" id="svg_64" points="-150.15024948120117,203.08230590820312 -108.53037643432617,314.4426574707031 -114.50486373901367,316.4714660644531 -150.72361373901367,203.37161254882812 "/>
     <polygon stroke="null" id="svg_65" points="-324.8582649230957,218.37530517578125 -436.43523025512695,259.41070556640625 -438.43242263793945,253.42556762695312 -325.1447639465332,217.80056762695312 "/>
     <polygon stroke="null" id="svg_66" points="-336.0477180480957,199.49075317382812 -451.66862869262695,227.15139770507812 -452.94963455200195,220.97317504882812 -336.2646369934082,198.88604736328125 "/>
     <polygon stroke="null" id="svg_67" points="-335.9240608215332,174.33206176757812 -452.6817512512207,196.71612548828125 -453.68095779418945,190.48635864257812 -336.1136360168457,173.71856689453125 "/>
     <polygon stroke="null" id="svg_68" points="-338.8111457824707,165.98342895507812 -457.5247688293457,159.62677001953125 -456.99626541137695,153.33914184570312 -338.8475227355957,165.34207153320312 "/>
     <polygon stroke="null" id="svg_69" points="-337.1022834777832,153.12747192382812 -452.3651008605957,124.00881958007812 -450.63469314575195,117.94119262695312 -337.0140266418457,152.49099731445312 "/>
     <polygon stroke="null" id="svg_70" points="-335.9310188293457,138.80349731445312 -444.99357986450195,91.48783874511719 -442.30778884887695,85.77836608886719 -335.7418098449707,138.18997192382812 "/>
     <polygon stroke="null" id="svg_71" points="-335.1430549621582,124.12625122070312 -429.0927619934082,51.27934265136719 -425.07695388793945,46.41264343261719 -334.8072395324707,123.57888793945312 "/>
     <polygon stroke="null" id="svg_72" points="-343.0383186340332,96.82670593261719 -425.2474250793457,10.948776245117188 -420.5594367980957,6.7261199951171875 -342.6259651184082,96.33451843261719 "/>
     <polygon stroke="null" id="svg_73" points="-335.2756233215332,75.06596374511719 -406.6545295715332,-20.004104614257812 -401.4963264465332,-23.637649536132812 -334.8072395324707,74.62626647949219 "/>
     <polygon stroke="null" id="svg_74" points="-281.9959602355957,84.72148132324219 -324.7214241027832,-26.219436645507812 -318.7672004699707,-28.307083129882812 -281.4258918762207,84.42607116699219 "/>
    </g>
    <path stroke="null" id="svg_75" d="m-194.16164,-20.22562c0,0 20.81325,33.09259 70.88438,10.64696c0,0 4.17228,33.66837 33.09235,46.61789c0,0 -33.81233,21.15043 -23.59656,50.64604c0,0 -33.71572,-5.83671 -44.33908,14.38821c0,0 -49.72685,-41.10036 -71.86071,-37.18081c0,0 9.38735,-24.34392 -6.41351,-41.85381c0,0 32.0674,-9.88404 42.23313,-43.26448z" fill="#DD0000"/>
    <path stroke="null" id="svg_76" d="m-178.44523,3.72611c0,0 20.40866,6.17886 42.50338,-0.93624c0,0 8.61307,24.43477 26.77498,33.32866c0,0 -18.06861,21.53228 -15.54103,40.25607c0,0 -16.04159,1.40436 -22.48494,4.86842c0,0 -38.2738,-28.03853 -58.02736,-34.8496c0,0 0.18706,-10.90908 -2.0597,-20.42224c0,0 18.72403,-7.3597 28.83467,-22.24507z" fill="#FF2C2C"/>
    <path stroke="null" id="svg_77" d="m-217.66348,25.97118c17.44745,-6.61154 27.80561,-23.75567 33.32156,-36.49303c-6.69781,-4.767 -9.81972,-9.70401 -9.81972,-9.70401c-10.16574,33.38044 -42.23313,43.26472 -42.23313,43.26472c15.80086,17.50965 6.41351,41.85357 6.41351,41.85357c22.13387,-3.91924 71.86071,37.18105 71.86071,37.18105c2.31243,-4.40243 5.71974,-7.56799 9.63424,-9.82966c-20.49264,-20.67844 -68.31418,-41.11496 -68.31418,-41.11496c2.73406,-6.34137 -0.863,-25.15767 -0.863,-25.15767z" fill="#C40000"/>
    <g stroke="null" id="svg_78" display="inline">
     <path stroke="null" id="svg_79" d="m-385.17057,218.98046c0,0 -5.82913,-28.34453 -18.5758,-27.67175c-12.74683,0.67247 -23.44391,22.57933 18.5758,27.67175z" fill="#CD2606"/>
     <path stroke="null" id="svg_80" d="m-385.80136,216.33512c-3.64189,-3.22215 -18.36159,-6.25834 -23.77414,-10.74207c-2.47233,-2.04833 -3.9486,-4.66684 -4.83038,-6.91186c-2.86271,7.05172 2.54574,17.06481 29.23531,20.29927c0,0 -0.20821,-1.01185 -0.63079,-2.64534z" fill="#BC1A04"/>
     <path stroke="null" id="svg_81" d="m-385.17057,218.98046c0,0 13.60351,-25.53754 0.94066,-32.41531c-12.66254,-6.87776 -26.11419,11.4802 -0.94066,32.41531z" fill="#CD2606"/>
     <path stroke="null" id="svg_82" d="m-384.16646,208.28197c0,0 6.41904,-15.72399 -0.38911,-19.57377c-6.80768,-3.8501 -13.34195,7.53949 0.38911,19.57377z" fill="#E22C14"/>
     <path stroke="null" id="svg_83" d="m-393.84094,186.06317c-7.48567,3.69508 -9.73526,17.61036 8.67037,32.91729c0,0 1.07563,-2.04486 2.33547,-5.08421c-12.96593,-11.49283 -14.42925,-22.03663 -11.00584,-27.83308z" fill="#BC1A04"/>
     <path stroke="null" id="svg_84" d="m-385.17057,218.98046c0,0 -20.18151,-12.16655 -27.724,-6.97847c-7.54328,5.1884 -0.09724,29.91362 27.724,6.97847z" fill="#CD2606"/>
     <path stroke="null" id="svg_85" d="m-413.57083,212.55796c-6.36931,6.16457 1.46774,28.6252 28.40026,6.42251c0,0 -0.66536,-0.39906 -1.76719,-1.00775c-20.02949,14.42989 -28.08817,2.36436 -26.63306,-5.41476z" fill="#BC1A04"/>
     <path stroke="null" id="svg_86" d="m-392.58347,217.58344c0,0 -11.7596,-7.09655 -17.10664,-4.45563c-5.34751,2.64124 3.619,16.44917 17.10664,4.45563z" fill="#E22C14"/>
     <path stroke="null" id="svg_87" d="m-396.96412,208.02529c0,0 -3.71923,-6.94975 -4.64853,-11.48209c-0.92993,-4.53266 -7.9736,-0.78644 -9.64687,1.57066c-1.67295,2.35741 5.04459,8.68111 9.92564,10.1681c4.88137,1.48637 5.067,1.10341 4.36976,-0.25667z" fill="#E22C14"/>
    </g>
    <path stroke="null" id="svg_88" d="m-246.86438,51.12901c0,0 -5.04554,-46.11519 -33.68352,-52.29839c-28.63751,-6.18312 -47.02436,20.50219 -40.35276,43.28192c0,0 -17.24808,-6.83396 -34.82118,4.55618c-17.57342,11.38991 -14.15632,41.65483 0,52.71932c0,0 -18.87478,3.09176 -17.89876,21.80387c0.97633,18.71211 31.89218,35.81607 31.89218,35.81607l90.51545,-48.12832l22.11777,-27.06472l-17.76916,-30.68592z" fill="#CD2606"/>
    <g stroke="null" id="svg_89" display="inline">
     <g stroke="null" id="svg_90">
      <path stroke="null" id="svg_91" d="m-280.5479,-1.16939c-28.63751,-6.18312 -47.02436,20.50219 -40.35276,43.28192c0,0 2.66665,-26.07102 24.30769,-34.56254c13.12474,-5.14956 28.62567,2.75363 38.79236,9.70859c-5.06606,-8.66019 -12.34367,-16.18192 -22.74729,-18.42797z" fill="#BC1A04"/>
      <path stroke="null" id="svg_92" d="m-373.6206,121.19191c0.97681,18.71211 31.89218,35.81607 31.89218,35.81607l0.77444,-0.41184c1.02353,-5.34467 -1.33009,-11.26125 -10.43409,-17.14232c-28.79426,-18.60098 -4.33376,-40.06578 -4.33376,-40.06578s-18.87478,3.09152 -17.89876,21.80387z" fill="#BC1A04"/>
      <path stroke="null" id="svg_93" d="m-355.72184,46.66848c-17.57342,11.39014 -14.15632,41.65507 0,52.71955c0,0 -14.03462,-21.83654 -2.60856,-38.90309c11.4259,-17.06647 37.42975,-18.37241 37.42975,-18.37241s-17.2484,-6.83396 -34.82118,4.55595z" fill="#BC1A04"/>
     </g>
    </g>
    <path stroke="null" id="svg_94" d="m-254.9581,73.41994c0,0 -32.72786,-13.4515 -62.7785,5.7652c-30.05079,19.2163 -38.12147,63.94229 -40.235,90.86944c-2.11432,26.92746 -13.83619,44.02984 -28.44083,47.48877c0,0 4.26289,73.02269 105.70841,91.47063c101.4452,18.44731 170.43232,-38.23228 179.46402,-100.88229c9.03186,-62.65 -60.84351,-135.48027 -145.62438,-157.00268c0,0 0.37522,9.99249 -8.09372,22.29093z" fill="#FECE00"/>
    <path stroke="null" id="svg_95" d="m-111.93818,178.04411c-1.35251,-33.86979 -90.195,-102.72209 -109.8679,-105.33421c-19.67243,-2.61235 -19.33098,7.83674 -41.61292,14.92713c-22.28115,7.09063 -48.66211,31.12429 -54.3176,55.77248c-5.65549,24.64835 -10.13322,57.3017 -14.23841,69.61696c-4.10519,12.31494 4.27962,30.36856 14.23841,36.78885c0,0 39.72544,32.43615 105.57202,19.18797c65.84768,-13.24786 101.57812,-57.08907 100.2264,-90.95918zm-55.83712,33.86253c-12.31494,4.85121 -40.67636,-13.80762 -46.75538,-13.06128c-6.07886,0.74634 -9.03517,18.84574 -23.13183,28.36221c-14.09713,9.51584 -43.04183,-2.98568 -43.04183,-2.98568c-12.54272,-6.34421 -21.60252,-21.27166 -17.68424,-30.79192c3.91813,-9.52058 31.72043,-16.97546 37.84491,-25.90393c5.59614,-8.15813 -10.41609,-36.41332 5.58556,-42.94396s36.99028,16.79314 42.79352,21.47198c5.80435,4.67884 22.3716,-2.99957 37.29904,0.91414c14.92729,3.91403 19.40565,60.08722 7.09024,64.93844z" fill="#FFDA3E"/>
    <path stroke="null" id="svg_96" d="m-187.99991,158.05456c0,0 -14.20194,4.05436 -17.17689,12.6076c-2.97526,8.5534 7.18937,20.0347 7.18937,20.0347s-15.43306,-9.24844 -16.48643,-17.70981c-1.05384,-8.46105 12.7844,-13.78063 26.47394,-14.9325z" fill="#FCC000"/>
    <path stroke="null" id="svg_97" d="m-317.7366,108.87965c16.85202,-29.34826 62.7785,-35.45971 62.7785,-35.45971s-32.72786,-13.4515 -62.7785,5.76496c-30.05079,19.21654 -38.12147,63.94252 -40.235,90.86967c-2.11432,26.92746 -13.83619,44.03016 -28.44083,47.48877c0,0 4.26289,73.02237 105.70809,91.47063c83.03878,15.10046 144.30439,-20.14583 168.76615,-67.79136c-22.47562,17.37736 -57.72018,37.61949 -104.51549,43.08287c-86.22841,10.06739 -148.38495,-40.08646 -132.68228,-69.87505c15.70204,-29.78828 14.54781,-76.20285 31.39935,-105.55079z" fill="#FCC000"/>
    <g stroke="null" id="svg_98" display="inline">
     <path stroke="null" id="svg_99" d="m-250.97572,153.526c0,0 2.26807,-5.94579 10.96796,-7.1537c8.70005,-1.20791 13.51796,0.99038 15.70773,7.1537c2.19009,6.16363 1.45574,16.11389 -8.39554,16.52021c-9.85081,0.40616 -20.22539,-13.6785 -18.28014,-16.52021z" fill="#660000"/>
     <path stroke="null" id="svg_100" d="m-235.47147,162.70293c-7.31155,-1.15187 -12.45259,-7.52592 -14.60732,-10.7157c-0.3004,0.42968 -0.51966,0.78517 -0.65731,1.05069c-0.04294,0.98375 0.3727,3.22088 0.89157,5.19013c2.92917,5.10994 10.15926,12.10641 17.14895,11.81785c9.05522,-0.37317 10.39936,-8.80423 8.85775,-14.95207c-2.38283,4.10109 -6.23371,8.45948 -11.63363,7.60911z" fill="#540000"/>
     <g stroke="null" id="svg_101">
      <path stroke="null" id="svg_102" d="m-250.5964,154.93628c0,0 12.98567,15.32508 20.32547,11.69551c7.33981,-3.62973 0.88731,-19.66327 0.88731,-19.66327l8.6901,5.59487c0,0 4.69952,21.24672 -7.4803,25.03762c-12.1795,3.7909 -24.35837,-17.98653 -24.35837,-17.98653l1.93578,-4.6782z" fill="#FF8B00"/>
      <path stroke="null" id="svg_103" d="m-227.41106,174.45464c-11.08919,3.45151 -22.14571,-14.24204 -24.04234,-17.44666l-1.07878,2.60651c0,0 12.17887,21.77743 24.35821,17.98653c4.9625,-1.5443 7.09924,-5.99172 7.91693,-10.71381c-1.16166,3.44693 -3.31891,6.37357 -7.15401,7.56743z" fill="#FF7300"/>
      <path stroke="null" id="svg_104" d="m-244.59284,163.19828c0,0 8.07999,8.32104 14.83857,5.88754c6.7589,-2.43303 3.84504,-14.38474 5.28705,-14.73202c1.44169,-0.34697 3.72476,7.4069 2.10264,13.17225c-1.62228,5.76536 -9.56178,7.50745 -15.86527,2.58141c-6.30301,-4.92651 -11.92061,-12.10562 -6.363,-6.90918z" fill="#FFA039"/>
     </g>
     <path stroke="null" id="svg_105" d="m-251.63524,159.35071c0,0 5.4899,-9.59146 11.87768,-10.60994c6.38794,-1.01817 16.21934,4.37165 19.06405,3.82263c2.84519,-0.54886 -13.67376,-20.81088 -25.7516,-17.26781c-12.07737,3.54354 -8.83217,29.09056 -5.19013,24.05513z" fill="#FF8B00"/>
     <path stroke="null" id="svg_106" d="m-242.05389,147.44288c-8.98545,3.24393 -9.58136,11.90767 -10.63062,3.29444c-0.58943,-4.83685 1.45195,-10.21357 3.44488,-14.05166c-8.7111,6.35652 -5.7221,27.26449 -2.39561,22.66489c0,0 5.4899,-9.5913 11.87768,-10.60978c6.38825,-1.01817 16.21997,4.37165 19.06405,3.82263c0.53687,-0.10387 0.3809,-0.91209 -0.30182,-2.12758c-6.44524,-2.3612 -15.63369,-4.95161 -21.05855,-2.99294z" fill="#FF7300"/>
     <path stroke="null" id="svg_107" d="m-251.36657,148.14644c0,0 0.07482,-7.97944 5.40245,-10.85414c5.32762,-2.87455 21.21246,9.19919 20.8655,10.15058c-0.34697,0.95124 -7.73145,-4.20306 -17.51675,-1.95772c-4.94419,1.13498 -8.75119,7.56791 -8.75119,2.66128z" fill="#FFA039"/>
     <path stroke="null" id="svg_108" d="m-243.6869,153.39972c0,0 2.25228,-1.78361 4.79233,-2.19798c2.54021,-0.41437 8.44953,-0.018 9.51221,2.01771c1.06331,2.03602 -0.87989,6.97216 -4.95287,7.38669c-4.07267,0.41421 -12.34225,-4.93646 -9.35167,-7.20642z" fill="#770101"/>
    </g>
    <path stroke="null" id="svg_109" d="m-187.99991,158.05456c0,0 -23.03633,3.6643 -23.03633,15.74103c0,12.07689 34.01975,26.88784 34.01975,26.88784s-31.16731,-8.13082 -37.51452,-21.31459c-10.66787,-22.15707 26.53109,-21.31428 26.53109,-21.31428z" fill="#F99300"/>
    <g stroke="null" id="svg_110" display="inline">
     <path stroke="null" id="svg_111" d="m-291.73622,158.05456c0,8.52104 -6.90744,15.42864 -15.42801,15.42864c-8.52183,0 -15.42895,-6.9076 -15.42895,-15.42864c0,-8.52136 6.90713,-15.4288 15.42895,-15.4288c8.52057,0 15.42801,6.90744 15.42801,15.4288z" fill="#FFFFFF"/>
     <path stroke="null" id="svg_112" d="m-296.59296,158.05456c0,5.83844 -4.73314,10.57158 -10.57127,10.57158c-5.83939,0 -10.57237,-4.73314 -10.57237,-10.57158c0,-5.83876 4.73298,-10.57174 10.57237,-10.57174c5.83813,0 10.57127,4.73298 10.57127,10.57174z"/>
    </g>
    <g stroke="null" id="svg_113" display="inline">
     <path stroke="null" id="svg_114" d="m-181.30667,119.45147c0,8.52088 -6.90728,15.42848 -15.42911,15.42848c-8.52057,0 -15.42832,-6.9076 -15.42832,-15.42848c0,-8.52136 6.90776,-15.42895 15.42832,-15.42895c8.52183,0 15.42911,6.9076 15.42911,15.42895z" fill="#FFFFFF"/>
     <path stroke="null" id="svg_115" d="m-186.16357,119.45147c0,5.83829 -4.73314,10.57143 -10.57221,10.57143c-5.83813,0 -10.57127,-4.73314 -10.57127,-10.57143c0,-5.83876 4.73314,-10.57182 10.57127,-10.57182c5.83908,0 10.57221,4.73306 10.57221,10.57182z"/>
    </g>
    <ellipse stroke="null" id="svg_116" ry="53.00671" rx="59.03116" cy="-14167.27769" cx="-7856.29178" fill="#FF9999" transform="matrix(0.16064684463675322,-0.017927195431795717,0.017927195431795717,0.16064684463675322,1186.5917121496252,2317.152509738153) "/>
    <path stroke="null" id="svg_117" d="m-150.93575,125.23987c0.52487,4.70315 -3.29539,8.98924 -8.53304,9.57394c-5.23686,0.58438 -9.90843,-2.75426 -10.43346,-7.45741c-0.52503,-4.70299 3.29571,-8.98932 8.53288,-9.57393c5.23796,-0.58422 9.90875,2.75434 10.43362,7.45741z" fill="#FF9999"/>
    <g stroke="null" id="svg_118" display="inline">
     <path stroke="null" id="svg_119" d="m-300.54187,261.89032c0,0 4.74166,-13.06854 17.13,-12.01438c12.38866,1.05447 22.18217,23.76041 15.41696,31.60709c-6.7649,7.84668 -38.70538,-1.29978 -32.54696,-19.59271z" fill="#FF8B00"/>
     <path stroke="null" id="svg_120" d="m-291.29107,260.24989c0,0 1.98519,-6.13016 10.60568,-4.66747c8.6208,1.46332 13.98742,17.86198 10.11017,21.9315c-3.44488,3.61584 -26.10077,-4.80354 -20.71585,-17.26402z" fill="#FFA039"/>
     <path stroke="null" id="svg_121" d="m-295.38047,260.00395c0,0 2.37746,-6.54848 8.16066,-10.00015c-9.56399,1.53025 -13.32206,11.88652 -13.32206,11.88652c-5.93726,17.63593 23.53625,26.76977 31.72248,20.37188c-11.34871,1.45922 -31.57299,-7.36964 -26.56108,-22.25826z" fill="#FF7300"/>
    </g>
    <g stroke="null" id="svg_122" display="inline">
     <path stroke="null" id="svg_123" d="m-142.31937,204.44166c0,0 11.23458,-8.1886 20.9198,-0.39211s5.1202,32.0996 -4.87489,34.82703c-9.99431,2.72743 -31.37331,-22.70499 -16.04491,-34.43491z" fill="#FF8B00"/>
     <path stroke="null" id="svg_124" d="m-133.73061,208.25008c0,0 5.0719,-3.97449 11.40364,2.05559c6.33159,6.02976 1.62007,22.62922 -3.86904,23.83744c-4.87821,1.07373 -18.96302,-18.56791 -7.5346,-25.89304z" fill="#FFA039"/>
     <path stroke="null" id="svg_125" d="m-136.98464,205.76165c0,0 5.63086,-4.10298 12.35582,-3.73391c-8.78734,-4.07488 -17.69055,2.41393 -17.69055,2.41393c-14.7778,11.30877 4.56202,35.35205 14.92619,34.62055c-10.22762,-5.13125 -22.06709,-23.75378 -9.59146,-33.30056z" fill="#FF7300"/>
    </g>
    <path stroke="null" id="svg_126" d="m-283.83887,190.25455c0,0 6.43987,6.83956 20.76826,0.44231c14.32854,-6.39725 22.90925,-7.45173 25.82248,-3.54859c0,0 -4.31656,-11.8982 -11.92709,-9.88728c-7.61084,2.01124 -22.83711,13.16752 -34.66364,12.99356z" fill="#FCC000"/>
    <path stroke="null" id="svg_127" d="m-283.83887,190.25455c0,0 10.87387,0.74034 19.01543,-3.64362s14.97859,-9.22318 20.49896,-6.14879c5.51958,3.07439 8.66248,21.00836 6.09464,27.66954c0,0 4.66368,-7.91361 3.89461,-17.07996c-0.76891,-9.16604 -9.15357,-18.73113 -17.03134,-15.82754c-7.87699,2.90391 -13.34305,9.96352 -32.4723,15.03037z" fill="#F99300"/>
    <path stroke="null" id="svg_128" d="m-283.83887,197.65987c0.45968,-0.00758 17.47176,0.23584 31.30669,-6.24666c13.83446,-6.48218 17.05045,17.68897 3.35696,28.18384c-13.69365,10.49455 -46.76422,-21.73418 -34.66364,-21.93718z" fill="#FFDA3E"/>
    <path stroke="null" id="svg_129" d="m-182.27859,160.62871c0,0 -11.9937,0.77933 -17.40831,10.1921s18.16775,26.46684 25.70772,24.59468c7.54076,-1.87248 -0.96118,-35.00919 -8.29941,-34.78677z" fill="#FFDA3E"/>
    <path stroke="null" id="svg_130" d="m-258.1894,53.56645c0,0 3.50723,-30.86588 -17.4484,-38.44113c-20.95516,-7.57533 -40.46973,19.66019 -40.04636,28.31059c0.42353,8.6508 -17.4222,3.26682 -33.39196,14.51844c-15.97024,11.25178 -4.17402,36.53794 -2.0567,40.0466c2.11716,3.5085 -10.52596,10.76772 -11.00995,18.14778c-0.48383,7.3803 4.35555,11.19124 6.41193,11.4937c2.05733,0.30245 3.81158,-28.85512 30.0047,-49.48328c26.19391,-20.62824 60.79568,-13.30848 63.39698,-14.03446s4.13976,-10.55824 4.13976,-10.55824z" fill="#E22C14"/>
    <g stroke="null" id="svg_131" display="inline">
     <path stroke="null" id="svg_132" d="m-177.50015,15.24301l-9.18672,32.09147l-11.46899,-2.33721l5.46732,-32.84949l15.18838,3.09523zm-10.63646,41.73983c-0.18532,0.90925 -0.53339,1.7207 -1.04469,2.43445c-0.51098,0.71374 -1.12141,1.30507 -1.83049,1.77382c-0.70893,0.46899 -1.49047,0.79393 -2.34557,0.97492c-0.85463,0.18098 -1.72631,0.18098 -2.61488,-0.00016c-0.90909,-0.18532 -1.72189,-0.52834 -2.4376,-1.02961c-0.71587,-0.5008 -1.30831,-1.1057 -1.77745,-1.81463c-0.46836,-0.70916 -0.7937,-1.4911 -0.9746,-2.34589c-0.18074,-0.85463 -0.17869,-1.73665 0.00647,-2.64582c0.18075,-0.88865 0.52424,-1.70113 1.02969,-2.4376c0.50498,-0.73655 1.11209,-1.33917 1.82118,-1.80816c0.70909,-0.46891 1.49158,-0.79914 2.34889,-0.99038c0.85652,-0.19132 1.73941,-0.19416 2.64913,-0.00884c0.88809,0.1809 1.68953,0.52724 2.40367,1.03853c0.71303,0.51145 1.30452,1.12156 1.77335,1.83041c0.46915,0.70901 0.79685,1.50207 0.98376,2.37975c0.18753,0.87752 0.19037,1.76056 0.00916,2.64921z" fill="#FFDD4D"/>
     <path stroke="null" id="svg_133" d="m-193.4295,61.32908c-0.90956,-0.18532 -1.72157,-0.52834 -2.43776,-1.0293c-0.71556,-0.50111 -1.30815,-1.10633 -1.77682,-1.81518c-0.46915,-0.70893 -0.79386,-1.49063 -0.97492,-2.34534c-0.18075,-0.85494 -0.17869,-1.73696 0.00647,-2.64613c0.18122,-0.88865 0.52471,-1.70113 1.02953,-2.4376c0.50514,-0.73655 1.11257,-1.33917 1.8207,-1.808c0.13939,-0.09195 0.28193,-0.17703 0.42684,-0.25817c-0.20853,0.02431 -0.41516,0.05849 -0.62021,0.10442c-0.85731,0.19124 -1.6398,0.52147 -2.34889,0.99038c-0.70909,0.46899 -1.3162,1.0716 -1.82181,1.80816c-0.50482,0.73647 -0.84831,1.54896 -1.02906,2.43729c-0.18516,0.90949 -0.18722,1.7915 -0.00647,2.64613c0.1809,0.85479 0.50624,1.63672 0.9746,2.34565c0.46915,0.70885 1.06158,1.31407 1.77745,1.81486c0.71572,0.50127 1.52852,0.84429 2.4376,1.02961c0.88841,0.1809 1.76025,0.18114 2.61488,0.00016c0.70593,-0.14925 1.36071,-0.39843 1.96672,-0.74397c-0.66946,0.07774 -1.34903,0.04759 -2.03886,-0.09298z" fill="#FFBF3E"/>
     <ellipse stroke="null" id="svg_134" ry="20.11287" rx="30.10836" cy="3051.8666" cx="-19180.31956" fill="#FFEA83" transform="matrix(0.07366291252960117,0.14388387414240839,-0.14388387414240839,0.07366291252960117,1659.3435140998554,2589.7855042897345) "/>
     <path stroke="null" id="svg_135" d="m-186.68686,47.33448l0.5828,-2.03476c-3.14732,-0.90672 -7.56459,-2.39861 -8.00012,-3.73163c-0.52613,-1.61092 2.74811,-20.32508 4.27978,-28.83673l-2.86413,-0.58359l-5.46732,32.84949l11.46899,2.33721z" fill="#FFBF3E"/>
     <path stroke="null" id="svg_136" d="m-186.97779,15.26313c0,0 5.88533,0.94469 6.16568,2.09332c0.28035,1.14871 -5.74152,24.39491 -6.41856,24.94346c-0.67704,0.548 -4.20559,-0.72108 -4.55855,-1.57248c-0.66962,-1.61628 2.39593,-25.21584 4.81144,-25.4643z" fill="#FFEA83"/>
     <path stroke="null" id="svg_137" d="m-147.19284,14.89281l-15.69936,37.58121l-13.56594,-4.46431l11.30008,-39.02922l17.96522,5.91232zm-18.829,49.06678c-0.35407,1.07531 -0.89204,2.00911 -1.61297,2.80115c-0.72108,0.79204 -1.54462,1.42196 -2.47044,1.88929c-0.92614,0.46717 -1.91984,0.74989 -2.98126,0.84753c-1.06158,0.09763 -2.11779,-0.02652 -3.16911,-0.37246c-1.07515,-0.35391 -2.01108,-0.88541 -2.80714,-1.59426c-0.79607,-0.70917 -1.42764,-1.5263 -1.89521,-2.45244c-0.46741,-0.92566 -0.74981,-1.91936 -0.84784,-2.98094c-0.09724,-1.06166 0.03078,-2.13018 0.38469,-3.20549c0.34602,-1.05124 0.87752,-1.98693 1.59434,-2.80738c0.71698,-0.82053 1.53862,-1.46466 2.46412,-1.93199c0.92614,-0.46733 1.92189,-0.75581 2.98726,-0.86576c1.06568,-0.11002 2.13626,0.01215 3.21189,0.36615c1.051,0.34586 1.9724,0.87933 2.76484,1.60057c0.79165,0.72108 1.42149,1.54454 1.88874,2.4706c0.46741,0.92582 0.75187,1.93381 0.85384,3.02396c0.10213,1.08999 -0.01989,2.16041 -0.36575,3.21149z" fill="#FFDD4D"/>
     <path stroke="null" id="svg_138" d="m-173.05494,68.47298c-1.07515,-0.35391 -2.01108,-0.88517 -2.80714,-1.59418c-0.79622,-0.70917 -1.42812,-1.52654 -1.89537,-2.45244c-0.46741,-0.92574 -0.74981,-1.91936 -0.84753,-2.98102c-0.09756,-1.0615 0.03047,-2.12994 0.38422,-3.20557c0.34586,-1.051 0.87815,-1.98685 1.5945,-2.80706c0.71745,-0.82077 1.53862,-1.46474 2.46412,-1.93223c0.18153,-0.09156 0.36654,-0.17419 0.55344,-0.25186c-0.2562,-0.00055 -0.51145,0.01184 -0.76623,0.0382c-1.06584,0.10995 -2.06159,0.39859 -2.98773,0.86576c-0.92551,0.46733 -1.74714,1.11122 -2.46412,1.93199c-0.71682,0.82061 -1.24832,1.75614 -1.59434,2.80707c-0.35391,1.07563 -0.48193,2.14415 -0.38469,3.20581c0.09803,1.06142 0.38043,2.05528 0.84784,2.98094c0.46757,0.9259 1.09915,1.74328 1.89521,2.45244c0.79606,0.70885 1.73199,1.24035 2.80714,1.59426c1.05132,0.34594 2.10753,0.47009 3.16911,0.37214c0.87625,-0.08027 1.70563,-0.28888 2.48938,-0.62132c-0.82243,-0.00118 -1.64154,-0.13449 -2.45781,-0.40293z" fill="#FFBF3E"/>
     <path stroke="null" id="svg_139" d="m-169.11676,66.30555c-2.05323,0.76426 -4.64521,-1.10791 -5.78919,-4.18175c-1.14382,-3.0736 -0.40679,-6.18462 1.64643,-6.94896c2.05323,-0.76426 4.6449,1.10791 5.78888,4.18167c1.14445,3.07368 0.40711,6.18494 -1.64612,6.94904z" fill="#FFEA83"/>
     <path stroke="null" id="svg_140" d="m-162.8922,52.47402l0.99512,-2.38291c-3.6845,-1.5469 -8.82523,-3.98317 -9.16304,-5.66022c-0.40806,-2.02702 6.22251,-24.23918 9.28964,-34.33546l-3.38758,-1.1147l-11.30008,39.02898l13.56594,4.46431z" fill="#FFBF3E"/>
     <path stroke="null" id="svg_141" d="m-158.68125,13.56848c0,0 6.99742,1.98243 7.17374,3.41418c0.17617,1.43175 -10.42936,28.74454 -11.32803,29.31274c-0.89851,0.56796 -4.99329,-1.47208 -5.29953,-2.55402c-0.5817,-2.05386 6.49118,-30.21567 9.45381,-30.17289z" fill="#FFEA83"/>
     <path stroke="null" id="svg_142" d="m-128.8625,32.60853l-16.64002,29.54881l-10.78311,-5.01191l13.14289,-31.17425l14.28024,6.63735zm-20.34552,38.74176c-0.39748,0.85487 -0.93293,1.57477 -1.60634,2.15954c-0.67341,0.58485 -1.41596,1.02543 -2.22687,1.3218c-0.81091,0.29645 -1.66001,0.43324 -2.54763,0.41074c-0.88683,-0.02265 -1.74825,-0.22786 -2.58425,-0.61619c-0.85494,-0.3974 -1.57682,-0.92811 -2.16625,-1.59182c-0.58912,-0.66362 -1.0319,-1.40113 -1.3282,-2.21234c-0.29645,-0.81098 -0.43331,-1.66009 -0.41105,-2.54755c0.02305,-0.88723 0.23284,-1.75827 0.63,-2.61314c0.38848,-0.83561 0.91919,-1.55756 1.59166,-2.16657c0.67294,-0.60853 1.41439,-1.0611 2.22576,-1.3574c0.81122,-0.29645 1.66269,-0.43805 2.55473,-0.42542c0.89188,0.01279 1.76482,0.21792 2.61977,0.61532c0.83537,0.38833 1.54588,0.91927 2.13057,1.59268c0.5847,0.67333 1.02543,1.41573 1.32188,2.22679c0.29614,0.81106 0.43316,1.67232 0.41169,2.58354c-0.02226,0.91138 -0.22731,1.78479 -0.61548,2.62001z" fill="#FFDD4D"/>
     <path stroke="null" id="svg_143" d="m-155.46273,74.39825c-0.85495,-0.39716 -1.57729,-0.92787 -2.16641,-1.59134c-0.58943,-0.66394 -1.0319,-1.40136 -1.32867,-2.21258c-0.29582,-0.81075 -0.43316,-1.66009 -0.41043,-2.54731c0.02226,-0.88746 0.23236,-1.75851 0.63,-2.61338c0.38801,-0.83569 0.91872,-1.55764 1.59118,-2.16625c0.67294,-0.60885 1.41486,-1.06142 2.22624,-1.35771c0.15896,-0.05833 0.31934,-0.10845 0.48177,-0.15478c-0.21184,-0.02518 -0.42416,-0.03978 -0.63742,-0.04294c-0.89204,-0.01263 -1.74351,0.12897 -2.55473,0.42518c-0.81138,0.29653 -1.55283,0.74887 -2.22576,1.35764c-0.67247,0.60901 -1.20317,1.3308 -1.59166,2.16625c-0.39701,0.85518 -0.60727,1.72623 -0.63,2.61345c-0.02226,0.88723 0.1146,1.73657 0.41105,2.54771c0.2963,0.81106 0.73908,1.54856 1.3282,2.21243c0.58991,0.66347 1.31178,1.19394 2.16625,1.59158c0.836,0.38809 1.69742,0.59354 2.58425,0.61603c0.73261,0.01886 1.43901,-0.07293 2.11921,-0.27167c-0.6802,-0.08082 -1.34414,-0.27064 -1.99308,-0.57231z" fill="#FFBF3E"/>
     <path stroke="null" id="svg_144" d="m-151.99559,72.98923c-1.77224,0.43229 -3.73313,-1.36829 -4.3797,-4.02121c-0.64736,-2.653 0.26535,-5.15406 2.0376,-5.58619c1.77209,-0.43197 3.73328,1.36837 4.38017,4.02137c0.64673,2.65308 -0.26567,5.15414 -2.03807,5.58603z" fill="#FFEA83"/>
     <path stroke="null" id="svg_145" d="m-145.50252,62.15734l1.05495,-1.87335c-2.89602,-1.63775 -6.90965,-4.15294 -7.02583,-5.57238c-0.14033,-1.71597 7.50461,-19.43832 11.02321,-27.4888l-2.69254,-1.2514l-13.14289,31.17401l10.78311,5.01191z" fill="#FFBF3E"/>
     <path stroke="null" id="svg_146" d="m-138.23359,30.39548c0,0 5.59329,2.32016 5.59961,3.52136c0.00663,1.20112 -11.42148,22.75456 -12.21928,23.1368c-0.79875,0.38233 -3.98632,-1.70318 -4.13439,-2.62766c-0.28098,-1.7548 8.30857,-24.35418 10.75406,-24.0305z" fill="#FFEA83"/>
    </g>
   </g>
   <g stroke="null" id="svg_147" display="none">
    <path stroke="null" id="svg_148" d="m389.32421,128.62682c0,0 -50.17911,-11.55794 -76.57617,-5.6124c-26.39802,5.94515 -36.14812,-19.72523 -29.48962,-34.00113c6.65913,-14.2755 -12.84202,-48.99677 7.13475,-65.88154c19.9763,-16.88493 45.75173,-20.45215 72.69845,-47.56312c26.94593,-27.11097 45.49569,-50.17911 63.33194,-50.41691c17.83593,-0.23781 31.86724,26.39754 54.22147,28.53783c22.35486,2.14036 50.17658,-11.41516 62.90099,2.37833c12.72457,13.7931 16.90017,31.69557 41.09073,51.52001c24.19104,19.8246 48.90095,50.35953 47.12886,65.65131c-1.77209,15.29186 -24.44329,40.51803 -73.27494,45.3844c-48.83165,4.86629 -169.16647,10.00322 -169.16647,10.00322z" fill="#0E1E63"/>
    <path stroke="null" id="svg_149" d="m381.96072,56.53611c0,0 -25.46351,26.87008 -30.42965,32.47719c-4.96613,5.60726 -32.59653,1.57879 -39.81889,-10.16803c-7.22189,-11.74642 0.72598,-36.73068 10.41546,-46.0998c9.68933,-9.3692 58.97844,-45.28416 71.12716,-56.99554c12.14903,-11.71154 15.258,-18.73824 27.0738,-22.64208c11.8158,-3.90392 32.16006,16.13165 58.39091,14.11686c26.23101,-2.0151 57.7478,-1.23443 64.82652,4.62122c7.07903,5.85573 17.61904,29.08353 32.84405,40.59964c15.22485,11.51619 43.65399,40.4395 45.09568,53.4198c1.44122,12.9799 -10.37995,25.72153 -20.61325,25.28648c-10.23361,-0.43497 -16.87002,-24.02063 -23.31099,-38.48091c-6.44145,-14.46019 -20.30006,-24.61022 -26.15571,-35.54061c-5.85581,-10.93086 -16.96299,-26.54601 -30.63549,-28.10759c-13.67281,-1.56143 -25.66115,-4.9153 -34.11099,-9.87489c-8.45,-4.95966 -34.60508,-6.32574 -42.99857,-2.22671c-8.39318,4.09895 -13.0777,12.6874 -16.78635,13.66318c-3.7085,0.97602 -33.02747,5.70466 -44.91368,17.00356c-11.88652,11.29898 6.55684,42.01616 0,48.94823z" fill="#162B75"/>
    <path stroke="null" id="svg_150" d="m543.54603,-43.93228c-12.72442,-13.79334 -40.54613,-0.23781 -62.90099,-2.37817c-22.35423,-2.14044 -36.38553,-28.77579 -54.22147,-28.53798c-17.83625,0.23797 -36.38601,23.3061 -63.33194,50.41707c-26.94672,27.11097 -52.72216,30.67803 -72.69845,47.56312c-19.97646,16.88478 -0.47562,51.60604 -7.13475,65.88154c-6.6585,14.2759 3.0916,39.94628 29.48962,34.00081c25.5568,-5.75628 73.40296,4.89368 76.42337,5.57782c-0.26204,-5.98351 -0.97965,-11.118 -0.97965,-11.118s-66.0641,-9.98775 -79.52302,-15.53543c-13.45892,-5.54807 -14.64915,-19.33225 -13.48654,-45.4024c1.16292,-26.07039 26.04284,-44.15234 51.64337,-58.56865c25.60037,-14.41639 59.27079,-56.73595 78.57036,-59.52628c19.2991,-2.79033 23.01975,18.83469 48.25658,22.32227c18.39332,2.54218 53.47181,-1.08968 71.15431,-3.24732c-0.41832,-0.48359 -0.82353,-0.97436 -1.26079,-1.4484z" fill="#061251"/>
    <g stroke="null" id="svg_151" display="inline">
     <g stroke="null" id="svg_152">
      <path stroke="null" id="svg_153" d="m607.38484,197.1661c0,0 8.22443,1.05795 19.85033,-2.46507c11.62606,-3.52302 20.04418,-14.68403 13.64408,-20.36936c-11.46599,-10.18484 -32.59148,11.91241 -33.49441,22.83443z" fill="#CD2606"/>
      <path stroke="null" id="svg_154" d="m619.15644,186.18188c0.93908,-2.40729 3.25277,-7.50098 4.94845,-11.18027c-8.53114,5.27206 -16.18445,15.68484 -16.72005,22.16449c0,0 8.22443,1.05763 19.85033,-2.46507c1.85733,-0.56291 3.63226,-1.32157 5.279,-2.22103c-5.70521,-4.07772 -14.91955,-2.2949 -13.35773,-6.29812z" fill="#BC1A04"/>
      <path stroke="null" id="svg_155" d="m607.38484,197.1661c0,0 22.39338,-23.65654 10.74033,-30.12151c-11.65289,-6.46497 -25.76154,11.05951 -10.74033,30.12151z" fill="#CD2606"/>
      <path stroke="null" id="svg_156" d="m615.37801,165.96154c-10.92313,-2.64818 -21.84673,13.62419 -7.99317,31.20456c0,0 1.06742,-1.1274 2.61472,-2.95758c-8.87748,-13.85056 -2.90328,-26.23827 5.37845,-28.24698z" fill="#BC1A04"/>
      <path stroke="null" id="svg_157" d="m610.3762,189.10252c0,0 13.34021,-12.81013 7.13365,-19.07715c-3.35017,-3.38284 -13.39057,6.28959 -7.13365,19.07715z" fill="#E22C14"/>
      <path stroke="null" id="svg_158" d="m607.38484,197.1661c0,0 6.43088,-6.27634 16.23118,-6.37231c9.80046,-0.09629 15.70962,15.99771 7.59048,18.83216c-8.11882,2.83445 -20.45255,-7.33618 -23.82166,-12.45985z" fill="#CD2606"/>
      <path stroke="null" id="svg_159" d="m633.49098,208.13926c-7.7526,1.05732 -18.37059,-5.0138 -19.72989,-10.01119c-0.60553,-2.22576 0.14538,-4.13392 1.31352,-5.64775c-4.82201,1.88827 -7.68977,4.68578 -7.68977,4.68578c3.36911,5.12367 15.70283,15.2943 23.82166,12.45953c0.94713,-0.33023 1.70295,-0.84169 2.28449,-1.48637z" fill="#BC1A04"/>
      <path stroke="null" id="svg_160" d="m616.76493,195.8319c0,0 4.22169,-3.77874 8.62049,-2.83414s8.26626,8.4137 6.55353,11.2772c-1.71242,2.8635 -18.12623,-4.51688 -15.17402,-8.44306z" fill="#E22C14"/>
      <path stroke="null" id="svg_161" d="m623.41096,184.80317c0,0 0.51461,-6.96332 8.87527,-9.82335c5.16503,-1.76672 8.66595,3.76264 7.66388,6.45471c-1.00238,2.69207 -6.13963,6.45882 -8.18197,6.85566c-2.04265,0.39716 -8.43643,-0.59575 -8.35719,-3.48703z" fill="#E22C14"/>
     </g>
     <path stroke="null" id="svg_162" d="m343.81494,243.83892c0,0 -25.89256,2.77257 -31.67386,9.09437c-5.78225,6.32148 3.64441,13.05055 -1.25732,16.09621c-4.90189,3.04566 -13.70044,8.45032 -8.29562,13.10106c5.40481,4.65042 35.06807,2.34131 39.46687,5.56977c4.39943,3.22846 6.96585,8.88442 11.71572,10.26724c4.74987,1.3825 12.45669,-4.52509 16.27017,-3.77085c3.81395,0.75423 49.69102,10.93528 55.97587,-3.26792c6.28439,-14.20289 66.86743,-2.88749 66.86743,-2.88749s-7.03878,19.22743 3.77054,23.2499c10.80931,4.02184 40.46278,2.63934 64.60015,4.52446c24.138,1.88511 33.56466,-0.50261 36.70693,-4.52446c3.14243,-4.02247 -4.77623,-8.16997 -3.51955,-11.06125c1.25685,-2.89065 16.46591,-8.83359 17.09417,-15.03795c0.62842,-6.20372 -1.13151,-14.95176 -34.94194,-14.47409c-33.81123,0.47767 -232.77955,-26.879 -232.77955,-26.879z" fill="#6EB8E5"/>
     <path stroke="null" id="svg_163" d="m504.1966,301.7381c-9.42729,-8.29562 -5.03133,-27.42802 -5.03133,-27.42802s-59.07126,3.42105 -75.41089,13.68323c-16.34025,10.26156 -39.21604,0.54713 -47.76249,-0.29298c-8.5474,-0.84074 -14.83147,0.96608 -19.10525,0c-4.27346,-0.96639 -9.42666,-5.94705 -14.07724,-7.54549c-4.6509,-1.59813 -34.6908,1.09552 -29.16065,-5.30994c5.53047,-6.40546 3.38979,-7.1136 3.38979,-16.11642c0,-4.66431 15.82517,-11.74287 22.94714,-14.39989c-7.41558,1.04153 -23.44359,3.79232 -27.84524,8.6047c-5.78161,6.32117 3.64504,13.05055 -1.25669,16.09621c-4.90189,3.04566 -13.70044,8.45032 -8.29562,13.10074c5.40481,4.65074 35.0676,2.34131 39.46687,5.57009c4.39943,3.22846 6.96585,8.88442 11.71572,10.26724c4.74987,1.3825 12.45669,-4.52509 16.27017,-3.77085c3.81395,0.75423 49.69102,10.93528 55.97587,-3.26792c6.2847,-14.20289 66.86743,-2.88749 66.86743,-2.88749s-7.03878,19.22743 3.77054,23.2499c10.80979,4.02184 40.46278,2.63934 64.60015,4.52446c24.138,1.88511 33.56466,-0.50261 36.70693,-4.52446c0.15864,-0.20363 0.27056,-0.4079 0.37554,-0.61122c-22.83585,-0.72582 -86.06929,-1.83838 -94.14076,-8.94188z" fill="#56ABD6"/>
     <path stroke="null" id="svg_164" d="m404.64598,67.42964c-1.06063,-1.52109 -28.22614,-27.81737 -14.96928,-53.0269c13.2567,-25.20937 46.90913,-9.12744 46.90913,-9.12744s1.43996,-21.51499 23.33815,-25.64402c21.89803,-4.12926 35.05181,19.55893 35.05181,19.55893s18.86626,-6.51959 36.54149,7.38898c17.67476,13.90888 12.02875,32.64562 12.02875,32.64562s23.20334,6.47263 27.24665,20.38128c4.04347,13.90865 0,20.42847 0,20.42847s17.08328,11.95266 17.51754,25.64418c0.43442,13.69112 -15.64711,33.81312 -15.64711,33.81312l-168.01713,-72.06222z" fill="#CD2606"/>
     <path stroke="null" id="svg_165" d="m572.6631,139.49186c0,0 8.3785,-10.51286 12.87264,-21.50963c-4.95066,-3.52286 -10.69139,-10.27639 -16.94547,-22.64271c-20.32026,-40.17864 -48.49163,-60.65282 -67.73406,-61.88425c-19.2429,-1.23167 -36.3306,10.15989 -44.02732,11.69938c-7.69719,1.53941 -41.10225,1.53941 -52.18292,-12.62331c-5.71295,-7.30216 -8.55119,-17.12424 -9.97173,-24.94346c-1.8578,1.84004 -3.5538,4.06991 -4.99755,6.81509c-13.25686,25.20929 13.90896,51.50557 14.96928,53.02666l168.01713,72.06222z" fill="#BC1A04"/>
     <path stroke="null" id="svg_166" d="m457.88543,55.1147c0,0 -42.23519,-7.67304 -61.67367,3.58095c-19.43833,11.25383 -85.42697,87.65613 -74.17314,149.07707s75.2404,91.0902 156.68089,88.78803c81.44065,-2.30185 139.75547,-57.25671 130.80364,-102.16155c0,0 -9.08474,0.02399 -23.0218,-41.06169c-13.93659,-41.08576 -53.48113,-155.89951 -128.61592,-98.22282z" fill="#FECE00"/>
     <path stroke="null" id="svg_167" d="m520.77032,63.06509c-30.40123,-21.89914 -59.30931,6.69141 -59.30931,6.69141s-33.97887,-8.51638 -47.97023,-1.82497c-13.99089,6.69126 -40.55387,52.72011 -45.46791,87.46962c-4.91452,34.74952 22.35218,94.41511 118.63645,100.84204c96.28412,6.42756 112.97434,-56.51132 112.97434,-56.51132c-33.65969,-16.01886 -48.46179,-114.76773 -78.86334,-136.66679zm-31.47007,175.04619c-15.66163,1.96593 -16.04601,-12.53436 -41.89201,-8.86138c-25.84631,3.6733 -37.25816,-25.86778 -37.25816,-25.86778c-3.70376,-7.17422 2.95663,-15.18128 18.81038,-19.60092c15.85359,-4.41964 63.12562,-5.28453 78.88576,13.4515c15.75998,18.73587 -2.88497,38.91327 -18.54597,40.87857z" fill="#FFDA3E"/>
     <path stroke="null" id="svg_168" d="m468.57603,194.39921c0,0 4.80196,31.04576 26.39975,28.80737c0,0 -13.51527,8.17881 -21.7326,0.63553c-8.21685,-7.5436 -6.14626,-24.40162 -4.66715,-29.44289z" fill="#FCC000"/>
     <path stroke="null" id="svg_169" d="m415.99989,202.12308c0,0 19.48,18.48646 39.55196,8.24858c0,0 -13.45971,33.77224 -39.55196,-8.24858z" fill="#FCC000"/>
     <path stroke="null" id="svg_170" d="m349.93942,190.95606c-13.8253,-47.82437 25.54449,-104.40373 50.87588,-134.41995c-1.63538,0.62977 -3.18584,1.33861 -4.60354,2.15954c-19.43833,11.25383 -85.42697,87.65613 -74.17314,149.07675c11.25383,61.42126 75.2404,91.09051 156.68089,88.78835c42.79336,-1.20949 79.18095,-16.96568 102.80055,-38.15336c-100.43019,41.15103 -213.03846,-3.31023 -231.58064,-67.45134z" fill="#FCC000"/>
     <g stroke="null" id="svg_171">
      <path stroke="null" id="svg_172" d="m560.19425,231.01979c-3.85231,-7.29987 -11.16749,-15.7404 -9.47922,-21.08571c1.68811,-5.34593 5.34562,-11.53545 2.81362,-17.72496c-2.53216,-6.18951 -11.81691,-11.39432 -9.28443,-19.1313c2.53216,-7.73729 1.12504,-25.02404 1.12504,-25.02404l-17.16158,-11.36812c0,0 6.04871,13.09253 1.68779,22.06946c-4.36076,8.97693 -9.28443,18.54265 -4.22027,24.73217c5.06432,6.18983 4.9925,16.77846 -2.14589,24.28512c-7.13823,7.50698 8.82302,17.74612 7.94629,23.24738s-19.72689,14.22278 -16.77262,27.30553c2.78126,12.31683 12.03175,14.9205 3.24567,32.79006c15.07978,-3.83021 28.83973,-9.46439 40.85695,-16.37909c-1.82291,-5.30836 -3.1699,-10.25745 -3.02609,-13.03476c0.42147,-8.15892 8.26689,-23.38156 4.41474,-30.68174z" fill="#6EB8E5"/>
      <path stroke="null" id="svg_173" d="m406.66637,257.4811c-1.54762,-7.1739 -12.94178,-18.56854 -10.97269,-23.63286c1.96972,-5.06432 9.98562,-9.28822 11.18217,-17.16363c1.19718,-7.87604 -9.63455,-18.54834 -8.93131,-22.28541c0.70341,-3.73739 13.5047,-13.86603 12.09805,-19.63344c-1.40697,-5.76772 -12.66064,-13.16057 -12.37918,-19.8036c0.28114,-6.64303 9.84718,-26.33535 9.84718,-26.33535l-17.72512,8.05884c-0.14081,-0.18296 -12.51968,11.12313 -9.84718,22.06946c2.67281,10.94633 3.09492,21.10086 -5.06416,32.20094c-8.1586,11.10008 2.2507,14.33549 1.68795,22.63522c-0.56244,8.29973 -23.07011,15.47426 -22.78881,44.17144c0.01736,1.75062 0.21232,3.43052 0.55376,5.04569c13.09711,10.94601 29.48678,19.25111 48.34703,24.89192c2.10706,-10.03803 5.00923,-25.50124 3.99232,-30.21922z" fill="#6EB8E5"/>
      <path stroke="null" id="svg_174" d="m529.89547,158.75512c-4.36076,8.97693 -9.28443,18.54265 -4.22027,24.73217c5.06432,6.18983 4.9925,16.77846 -2.14589,24.28512c-7.13823,7.50698 8.82302,17.74612 7.94629,23.24738s-19.72689,14.22278 -16.77262,27.30553c2.78126,12.31683 12.03175,14.9205 3.24567,32.79006c15.07978,-3.83021 28.83973,-9.46439 40.85695,-16.37909c-0.73087,-2.12789 -1.37808,-4.18949 -1.89048,-6.08533c-11.69488,6.18636 -20.0407,6.66466 -23.6788,3.73928c-4.36581,-3.51134 -6.82867,-7.38701 -7.4934,-16.14704c-0.6641,-8.7594 13.95522,-20.14741 13.88765,-26.99329c-0.06819,-6.84524 -11.06314,-14.41884 -9.90022,-17.42535c1.16292,-3.0062 8.63896,-18.75702 3.98711,-26.23306c-4.65169,-7.47604 -2.65766,-17.11185 1.66127,-26.83638c1.95993,-4.4119 1.58803,-11.01374 0.60348,-16.91943l-7.77454,-5.15004c0,0 6.04871,13.09253 1.68779,22.06946z" fill="#56ABD6"/>
      <path stroke="null" id="svg_175" d="m404.64598,277.69418c-11.13355,-0.68951 -26.08673,-9.04701 -25.10013,-14.68466c1.16276,-6.6454 -2.32584,-20.26833 -2.32584,-27.57767c0,-7.31029 4.81775,-10.79889 6.64524,-15.9494c1.82734,-5.14988 -5.81445,-18.44036 -2.80509,-25.08324c3.00936,-6.64319 8.95183,-23.42749 5.79519,-35.64409c-2.10027,-8.12924 2.06238,-17.62188 5.33504,-23.16293l-2.40493,1.09347c-0.14081,-0.18296 -12.51968,11.12313 -9.84718,22.06946c2.67281,10.94633 3.09492,21.10086 -5.06416,32.20094c-8.1586,11.10008 2.2507,14.33549 1.68795,22.63522c-0.56244,8.29973 -23.07011,15.47426 -22.78881,44.17144c0.01736,1.75062 0.21232,3.43052 0.55376,5.04569c13.09711,10.94601 29.48678,19.25111 48.34703,24.89192c0.62874,-2.99515 1.32725,-6.4746 1.97193,-10.00614z" fill="#56ABD6"/>
      <path stroke="null" id="svg_176" d="m383.85609,259.56353c0,0 -2.60098,-20.60456 -1.89537,-25.92808c0.7053,-5.3232 6.84288,-12.27484 7.15591,-15.90741c0.31287,-3.63226 -5.02312,-16.28311 -3.63841,-21.41878c1.38392,-5.13535 6.70728,-18.53792 6.51943,-24.92586c-0.188,-6.38794 -3.56974,-14.67141 -3.38205,-18.76539c0.18801,-4.09382 3.9456,-12.30105 6.51328,-13.08227c2.56783,-0.78154 -2.69286,9.05112 0,17.19252c2.69301,8.14171 8.88869,14.71781 9.51711,19.16429c0.62858,4.44647 -11.34791,11.71161 -11.40332,19.28963c-0.05509,7.5777 8.27431,14.52934 8.52514,20.41671c0.25036,5.88675 -10.58421,12.46301 -10.77206,19.28931c-0.18832,6.8263 8.3294,17.59836 9.26896,21.79448c0.93924,4.19612 1.00191,9.85081 -1.00254,12.34682c-2.00398,2.49601 -14.61663,-2.63019 -15.40606,-9.46596z" fill="#7ECBF2"/>
      <path stroke="null" id="svg_177" d="m532.7064,251.03965c0,0 12.48132,-13.19198 11.69141,-21.01278c-0.79007,-7.82048 -8.68947,-13.98189 -8.53177,-19.59081c0.15801,-5.60861 3.90708,-17.53711 2.70391,-22.90862c-1.20286,-5.37182 -3.37416,-13.23429 -1.97256,-19.5725c1.40176,-6.33821 2.27059,-13.52648 4.00874,-13.5661c1.73767,-0.03946 1.18486,6.46892 0.6319,13.2867c-0.55328,6.81762 1.81707,14.95397 6.31943,21.74775c4.50299,6.79347 -1.18502,16.66796 -1.26363,21.17095c-0.07908,4.50267 7.74123,18.32671 9.16335,22.11871c1.4218,3.79169 -10.42746,30.57124 -12.32346,33.65195c-1.89569,3.08071 -7.50461,3.55491 -9.16367,0c-1.65859,-3.55491 -3.84757,-12.37019 -1.26363,-15.32524z" fill="#7ECBF2"/>
     </g>
     <g stroke="null" id="svg_178">
      <path stroke="null" id="svg_179" d="m478.71951,149.53746c0,3.82847 -8.41528,9.21766 -18.79554,9.21766c-10.38105,0 -18.79617,-5.38919 -18.79617,-9.21766c0,-3.82863 8.41512,-15.33061 18.79617,-15.33061c10.38026,0 18.79554,11.50198 18.79554,15.33061z" fill="#FF8B00"/>
      <path stroke="null" id="svg_180" d="m459.92397,158.75512c7.71692,0 14.34086,-2.97889 17.23529,-6.08044c-3.93155,-3.66667 -10.62115,-8.50699 -17.85961,-8.00027c-11.38596,0.79717 -11.87973,6.14863 -14.57464,3.94733c-1.02496,-0.83726 -1.73925,-1.893 -2.23508,-2.88149c-0.87041,1.52694 -1.36214,2.88339 -1.36214,3.79721c0,3.82847 8.41512,9.21766 18.79617,9.21766z" fill="#FF7300"/>
      <path stroke="null" id="svg_181" d="m446.66064,143.50786c0,0 4.9273,-5.81192 12.48274,-6.75906c7.5556,-0.94698 17.96285,9.03233 17.68613,10.93718c-0.27641,1.90468 -7.43436,-4.17812 -15.85264,-4.79249c-8.4178,-0.61469 -12.84154,3.77875 -14.31623,3.87062c-1.47469,0.0925 -1.33798,-1.9121 0,-3.25624z" fill="#FFA039"/>
      <path stroke="null" id="svg_182" d="m459.92397,158.75512c5.87159,0 11.11129,-1.72505 14.55822,-3.91608c-2.93359,-4.99502 -8.34677,-8.35813 -14.55822,-8.35813s-11.62527,3.36327 -14.55854,8.35845c3.44662,2.19072 8.68647,3.91576 14.55854,3.91576z" fill="#FF8B00"/>
      <path stroke="null" id="svg_183" d="m462.93428,156.66417c-7.23373,0 -13.08843,-2.95505 -13.33721,-6.64161c-1.69711,1.31936 -3.13738,2.95348 -4.23163,4.8168c3.44662,2.19072 8.68647,3.91576 14.55854,3.91576c5.87159,0 11.11129,-1.72505 14.55822,-3.91608c-0.21405,-0.36433 -0.46852,-0.70025 -0.7083,-1.0469c-2.42987,1.7331 -6.36584,2.87202 -10.83962,2.87202z" fill="#FF7300"/>
      <path stroke="null" id="svg_184" d="m469.8223,152.91368c-0.24357,1.67311 -4.18459,2.48449 -8.8025,1.81234c-4.61806,-0.67231 -8.16429,-2.57368 -7.9204,-4.24679c0.24325,-1.67311 4.45784,-3.0976 9.07559,-2.42545c4.61838,0.67215 7.89072,3.18679 7.64731,4.8599z" fill="#FFA039"/>
     </g>
     <g stroke="null" id="svg_185">
      <path stroke="null" id="svg_186" d="m383.90755,139.53574c-1.42812,0 -2.6586,-1.06916 -2.8283,-2.52206c-0.18106,-1.56166 0.93798,-2.977 2.50248,-3.15948c0.203,-0.02352 20.39856,-2.52206 31.77505,-15.19162c1.05495,-1.172 2.86192,-1.26395 4.02516,-0.21713c1.17192,1.05219 1.26963,2.85466 0.21705,4.025c-12.84076,14.30108 -34.44991,16.94137 -35.36326,17.04713c-0.11113,0.01263 -0.21973,0.01815 -0.32818,0.01815z"/>
     </g>
     <g stroke="null" id="svg_187">
      <path stroke="null" id="svg_188" d="m521.24625,133.05356c-0.79149,-1.18865 -0.58343,-2.80525 0.53213,-3.75175c1.19954,-1.01596 2.99783,-0.869 4.01647,0.33213c0.13228,0.15612 13.40335,15.58255 30.25443,18.03167c1.55993,0.22905 2.63745,1.68163 2.4114,3.2302c-0.22652,1.55882 -1.67327,2.63871 -3.23051,2.4114c-19.02017,-2.76405 -33.19291,-19.28899 -33.78723,-19.9905c-0.07182,-0.08556 -0.13654,-0.17269 -0.19669,-0.26315z"/>
     </g>
     <ellipse stroke="null" id="svg_189" ry="8.92026" rx="10.59865" cy="155.40116" cx="357.42422" fill="#FF9999"/>
     <ellipse stroke="null" id="svg_190" ry="8.9201" rx="10.59858" cy="167.67553" cx="570.79283" fill="#FF9999"/>
     <path stroke="null" id="svg_191" d="m468.57603,194.39921c0,0 -3.35648,24.05213 10.14348,29.78228c12.46537,5.29037 29.12671,-12.77904 29.12671,-12.77904s-5.78635,19.01401 -27.91422,17.79126c-23.41234,-1.29347 -11.35596,-34.79451 -11.35596,-34.79451z" fill="#F99300"/>
     <path stroke="null" id="svg_192" d="m415.99989,202.12308c0,0 15.54561,19.96809 28.6514,17.58447c13.10611,-2.38393 11.1225,-28.75117 11.1225,-28.75117s7.77912,23.02354 -6.52432,31.61814c-14.3036,8.59492 -32.99859,-12.60981 -33.24958,-20.45144z" fill="#F99300"/>
     <g stroke="null" id="svg_193">
      <path stroke="null" id="svg_194" d="m341.54672,236.95137c0,0 11.81564,-10.86267 23.94463,-3.1871c12.12977,7.67556 10.07323,36.14986 -1.03427,40.58623c-11.10766,4.43637 -38.9581,-21.93844 -22.91036,-37.39912z" fill="#FF8B00"/>
      <path stroke="null" id="svg_195" d="m351.89667,240.19624c0,0 5.29795,-5.22281 13.34984,0.86536c8.05174,6.08817 4.81917,25.74497 -1.31936,27.84918c-5.45485,1.86964 -24.18062,-18.81732 -12.03048,-28.71455z" fill="#FFA039"/>
      <path stroke="null" id="svg_196" d="m347.83884,237.76716c0,0 5.92211,-5.44254 13.68418,-5.89937c-10.61247,-3.5246 -19.97567,5.08358 -19.97567,5.08358c-15.47189,14.90535 9.85776,39.95386 21.65051,37.7584c-12.40318,-4.54719 -28.42015,-24.35931 -15.35902,-36.94261z" fill="#FF7300"/>
     </g>
     <g stroke="null" id="svg_197">
      <path stroke="null" id="svg_198" d="m567.75743,246.55561c0,0 15.99266,1.35535 18.54297,15.48057c2.55063,14.12586 -19.81323,31.87071 -30.59382,26.68989c-10.7809,-5.18113 -10.19099,-43.5337 12.05085,-42.17046z" fill="#FF8B00"/>
      <path stroke="null" id="svg_199" d="m572.36807,256.37359c0,0 7.42979,0.36938 8.3916,10.41815c0.9615,10.04845 -15.70347,20.96258 -21.40521,17.86451c-5.06653,-2.753 -2.49443,-30.53809 13.01361,-28.28265z" fill="#FFA039"/>
      <path stroke="null" id="svg_200" d="m571.41257,251.74179c0,0 8.01385,0.68036 13.60067,6.0888c-4.58207,-10.20062 -17.25582,-11.27499 -17.25582,-11.27499c-21.44341,-1.3143 -22.76087,34.28464 -13.16736,41.48569c-5.03938,-12.21107 -1.28021,-37.40923 16.8225,-36.2995z" fill="#FF7300"/>
     </g>
     <path stroke="null" id="svg_201" d="m423.56654,199.56676c0.28098,-0.16891 20.63392,-10.04434 24.99721,-7.90793c4.36328,2.1361 1.7271,15.47899 -4.54482,18.05646s-26.49699,-6.51249 -20.45239,-10.14853z" fill="#FFDA3E"/>
     <path stroke="null" id="svg_202" d="m476.01544,196.29442c0,0 24.72459,8.36287 25.72445,12.63507c1.00001,4.27252 -7.49908,9.63518 -14.36201,8.72625c-6.86293,-0.90862 -18.81637,-23.45196 -11.36244,-21.36132z" fill="#FFDA3E"/>
     <path stroke="null" id="svg_203" d="m440.66844,12.3245c0,0 11.31129,-24.45916 25.56075,-24.67936c14.24962,-0.2206 26.58918,19.94275 26.58918,19.94275s23.5181,-3.4463 36.72508,5.47103c13.20698,8.91726 9.84245,29.0863 9.84245,29.0863s17.68439,8.52175 25.26683,16.306c7.58259,7.78425 2.93801,22.76971 2.93801,22.76971s17.40751,16.08563 17.04082,23.65094c-0.36749,7.56546 -12.92742,-8.66706 -20.27243,-21.88801c-7.34517,-13.22135 -32.53907,-53.61885 -64.48965,-54.79417c-31.95106,-1.17523 -38.12084,8.66721 -58.17275,9.40179c-20.05191,0.73442 -33.9342,-9.18143 -36.87205,-23.06348c-2.93785,-13.88221 26.07473,-7.7125 35.84377,-2.20351z" fill="#E22C14"/>
     <path stroke="null" id="svg_204" d="m333.27919,253.96219c0,0 6.00198,15.84333 17.56411,21.62462c11.5626,5.78098 16.33773,0.19195 19.8407,1.99624c6.20167,3.19436 31.55184,11.5083 28.85961,12.61171c-2.69175,1.10341 -18.73492,-5.9139 -23.19229,-5.51673c-4.45736,0.39685 -13.28354,0.83821 -16.50505,0.61785c-3.22136,-0.221 -13.15126,-8.78245 -18.27051,-9.26801c-5.11894,-0.48525 -20.52121,-0.24752 -21.44782,-1.18297c-0.92693,-0.93514 0.75029,-10.02635 1.14729,-13.73343c0.39748,-3.70676 10.17031,-11.17459 12.00396,-7.14928z" fill="#7ECBF2"/>
     <path stroke="null" id="svg_205" d="m512.1301,296.68515c0,0 23.04122,-7.35417 29.58859,-9.55752c6.54722,-2.20335 7.42884,8.87653 18.88646,7.17674s24.55221,-18.44573 28.95906,-18.76049c4.40701,-0.31476 18.5717,2.07738 18.38275,7.80627c-0.18911,5.72889 -19.13793,12.21328 -20.27117,14.47977c-1.13324,2.26617 5.41381,5.03622 3.65072,7.17643c-1.7623,2.14021 -61.88393,-0.44073 -71.13805,-2.26617c-9.25475,-1.82576 -11.63711,-4.9112 -8.05837,-6.05502z" fill="#7ECBF2"/>
    </g>
    <g stroke="null" id="svg_206" display="inline">
     <path stroke="null" id="svg_207" d="m324.26517,136.34406c-1.18013,0 -2.13752,-0.95755 -2.13752,-2.13768l0,-84.29539c0,-1.18021 0.95739,-2.13776 2.13752,-2.13776c1.18029,0 2.138,0.95755 2.138,2.13776l0,84.29539c0,1.18013 -0.95771,2.13768 -2.138,2.13768z"/>
    </g>
    <g stroke="null" id="svg_208" display="inline">
     <path stroke="null" id="svg_209" d="m344.42726,126.66547c-1.1806,0 -2.13799,-0.95771 -2.13799,-2.13784l0,-92.48896c0,-1.18036 0.95739,-2.13784 2.13799,-2.13784c1.18013,0 2.13768,0.95747 2.13768,2.13784l0,92.48896c0,1.18013 -0.95755,2.13784 -2.13768,2.13784z"/>
    </g>
    <g stroke="null" id="svg_210" display="inline">
     <path stroke="null" id="svg_211" d="m360.95347,132.67802c-1.18013,0 -2.13799,-0.95755 -2.13799,-2.13784l0,-83.05377c0,-1.18029 0.95787,-2.13784 2.13799,-2.13784c1.18044,0 2.13815,0.95755 2.13815,2.13784l0,83.05377c0,1.18029 -0.95771,2.13784 -2.13815,2.13784z"/>
    </g>
    <g stroke="null" id="svg_212" display="inline">
     <path stroke="null" id="svg_213" d="m376.48913,117.47393c-1.1806,0 -2.13799,-0.95771 -2.13799,-2.13784l0,-58.79999c0,-1.18052 0.95739,-2.13792 2.13799,-2.13792c1.18013,0 2.13752,0.95739 2.13752,2.13792l0,58.79999c0,1.18013 -0.95739,2.13784 -2.13752,2.13784z"/>
    </g>
    <g stroke="null" id="svg_214" display="inline">
     <path stroke="null" id="svg_215" d="m393.25481,101.93851c-1.18029,0 -2.13768,-0.95771 -2.13768,-2.13784l0,-53.12287c0,-1.18037 0.95739,-2.13784 2.13768,-2.13784c1.18013,0 2.13784,0.95747 2.13784,2.13784l0,53.12287c0,1.18013 -0.95771,2.13784 -2.13784,2.13784z"/>
    </g>
    <g stroke="null" id="svg_216" display="inline">
     <path stroke="null" id="svg_217" d="m409.15228,91.15185c-1.18013,0 -2.13799,-0.95755 -2.13799,-2.13776l0,-34.20539c0,-1.18005 0.95787,-2.13776 2.13799,-2.13776s2.13752,0.95771 2.13752,2.13776l0,34.20539c0,1.18021 -0.95739,2.13776 -2.13752,2.13776z"/>
    </g>
    <g stroke="null" id="svg_218" display="inline">
     <path stroke="null" id="svg_219" d="m568.8018,136.34406c-0.00252,0 -0.00252,0 -0.00537,0c-1.18076,-0.00252 -2.135,-0.96165 -2.13215,-2.14178c0.03899,-17.73869 0.11681,-64.18365 0.00521,-66.05708c-0.06914,-1.16932 0.81311,-2.19096 1.98203,-2.27422c1.14129,-0.08343 2.18535,0.76805 2.28006,1.93594c0.14744,1.72994 0.02226,59.78974 0.00821,66.40341c-0.00284,1.1806 -0.96024,2.13373 -2.138,2.13373z"/>
    </g>
    <g stroke="null" id="svg_220" display="inline">
     <path stroke="null" id="svg_221" d="m584.63802,129.93891c-1.18013,0 -2.13752,-0.95755 -2.13752,-2.13768l0,-66.12259c0,-1.18013 0.95739,-2.1376 2.13752,-2.1376s2.13799,0.95747 2.13799,2.1376l0,66.12259c0,1.18013 -0.95787,2.13768 -2.13799,2.13768z"/>
    </g>
    <g stroke="null" id="svg_222" display="inline">
     <path stroke="null" id="svg_223" d="m596.29865,136.34406c-1.17729,0 -2.13231,-0.95187 -2.138,-2.12931c-0.22242,-60.03458 -0.01657,-60.87405 0.06441,-61.18984c0.28098,-1.14832 1.4529,-1.84273 2.58883,-1.56024c1.06852,0.26583 1.74793,1.293 1.60286,2.36176c-0.14144,2.23539 -0.06662,37.24103 0.01989,60.37176c0.00521,1.18155 -0.94966,2.14178 -2.12979,2.14589c-0.00253,0 -0.00537,0 -0.00821,0z"/>
    </g>
    <g stroke="null" id="svg_224" display="inline">
     <path stroke="null" id="svg_225" d="m611.18,156.52683c-1.18044,0 -2.13784,-0.95755 -2.13784,-2.13768l0,-89.15986c0,-1.18037 0.95739,-2.13784 2.13784,-2.13784c1.18013,0 2.13784,0.95747 2.13784,2.13784l0,89.15986c0,1.18013 -0.95771,2.13768 -2.13784,2.13768z"/>
    </g>
    <g stroke="null" id="svg_226" display="inline">
     <path stroke="null" id="svg_227" d="m622.92698,118.6236c-1.1806,0 -2.13799,-0.95763 -2.13799,-2.13776l0,-35.50249c0,-1.18036 0.95739,-2.13807 2.13799,-2.13807c1.18013,0 2.13768,0.95771 2.13768,2.13807l0,35.50249c0,1.18013 -0.95755,2.13776 -2.13768,2.13776z"/>
    </g>
   </g>
   <g stroke="null" id="svg_228" display="none">
    <g stroke="null" id="svg_229" display="inline">
     <path stroke="null" id="svg_230" d="m-799.01748,243.65738c0,0 -13.15789,-25.77275 -25.2669,-21.73386c-12.10886,4.03889 -16.59408,28.00167 25.2669,21.73386z" fill="#CD2606"/>
     <path stroke="null" id="svg_231" d="m-800.3295,241.27503c-4.36747,-2.13705 -19.36437,-1.14887 -25.77457,-4.03131c-2.92814,-1.31683 -5.04759,-3.44851 -6.49489,-5.37782c-0.88391,7.55875 6.993,15.77261 33.58147,11.79149c0,0 -0.47009,-0.91967 -1.31202,-2.38235z" fill="#BC1A04"/>
     <path stroke="null" id="svg_232" d="m-799.01748,243.65738c0,0 6.32093,-28.23561 -7.71495,-31.49785c-14.03564,-3.26161 -22.1199,18.01289 7.71495,31.49785z" fill="#CD2606"/>
     <path stroke="null" id="svg_233" d="m-800.89502,233.07728c0,0 2.00516,-16.86465 -5.58138,-18.76523c-7.58669,-1.90026 -10.8562,10.81721 5.58138,18.76523z" fill="#E22C14"/>
     <path stroke="null" id="svg_234" d="m-816.13091,214.23217c-6.233,5.55304 -4.70031,19.56556 17.11343,29.42521c0,0 0.4933,-2.2567 0.89899,-5.52178c-15.55587,-7.6301 -19.77069,-17.40515 -18.01242,-23.90343z" fill="#BC1A04"/>
     <path stroke="null" id="svg_235" d="m-799.01748,243.65738c0,0 -22.6907,-6.36031 -28.58171,0.64721c-5.89109,7.00784 7.86294,28.8623 28.58171,-0.64721z" fill="#CD2606"/>
     <path stroke="null" id="svg_236" d="m-828.10283,245.02031c-4.50022,7.63673 9.02823,27.20419 29.08535,-1.36292c0,0 -0.74784,-0.20711 -1.97169,-0.50103c-15.47008,19.23753 -26.44782,9.7501 -27.11366,1.86396z" fill="#BC1A04"/>
     <path stroke="null" id="svg_237" d="m-806.53511,244.28281c0,0 -13.22316,-3.71339 -17.67555,0.2551c-4.45224,3.96817 7.86404,14.89367 17.67555,-0.2551z" fill="#E22C14"/>
     <path stroke="null" id="svg_238" d="m-813.30025,236.23407c0,0 -5.43339,-5.71027 -7.53508,-9.83219c-2.10185,-4.12192 -7.89569,1.36261 -8.88134,4.07993s7.17185,7.02678 12.27248,7.16159c5.1007,0.13512 5.17782,-0.28382 4.14394,-1.40933z" fill="#E22C14"/>
    </g>
    <path stroke="null" id="svg_239" d="m-648.7475,21.41713c0,0 -7.26711,-29.89728 -50.38432,-28.23561c-43.1172,1.66206 -44.13269,43.76378 -44.13269,43.76378s-27.79093,-0.18461 -47.45665,21.97419c-19.66611,22.15849 6.55519,49.2109 11.44855,50.04161c0,0 -18.31392,5.87625 -18.66681,26.66661c-0.35281,20.79036 32.8854,35.3781 32.8854,35.3781s130.36725,-100.26847 129.99803,-100.82238c-0.3693,-0.55391 -13.69152,-48.7663 -13.69152,-48.7663z" fill="#CD2606"/>
    <path stroke="null" id="svg_240" d="m-648.7475,21.41713c0,0 -7.26711,-29.89728 -50.38432,-28.23561c-43.11705,1.66206 -44.13269,43.76378 -44.13269,43.76378s-27.79093,-0.18461 -47.45665,21.97419c-19.66611,22.15881 6.55519,49.21066 11.44855,50.04161c0,0 -20.06651,-31.87615 -1.42733,-48.98335c18.63926,-17.10735 42.64064,-15.83062 45.19395,-16.66496c2.55355,-0.83442 5.36211,-32.23133 36.76778,-38.23173c22.60727,-4.3194 42.40535,12.71652 51.72427,22.60104c-1.05479,-3.80913 -1.73357,-6.26497 -1.73357,-6.26497z" fill="#BC1A04"/>
    <path stroke="null" id="svg_241" d="m-665.32698,292.58627c0,0 13.48607,27.12747 26.35208,23.56214c12.86609,-3.56532 18.04778,-36.20258 18.04778,-36.20258s33.72638,26.69115 43.64728,24.54842c9.92051,-2.14241 13.95087,-38.88012 13.95087,-38.88012s-67.27541,0 -101.99801,26.97214z" fill="#FF8B00"/>
    <g stroke="null" id="svg_242" display="inline">
     <g stroke="null" id="svg_243">
      <g stroke="null" id="svg_244">
       <path stroke="null" id="svg_245" d="m-636.56871,312.00913c-10.88824,3.01757 -22.22029,-15.94656 -25.44694,-21.84815c-1.13277,0.78328 -2.23792,1.5915 -3.31133,2.42529c0,0 13.4863,27.12684 26.35216,23.56183c4.22263,-1.17002 7.61724,-5.47159 10.273,-10.72344c-2.21527,3.27519 -4.82643,5.74215 -7.86689,6.58447z" fill="#FF7300"/>
      </g>
      <g stroke="null" id="svg_246">
       <path stroke="null" id="svg_247" d="m-574.8742,300.3556c-9.92027,2.1421 -43.64689,-24.54874 -43.64689,-24.54874s-0.32826,2.06633 -1.02393,5.21554c6.43672,4.96487 33.54532,25.35475 42.26518,23.47185c2.51851,-0.54365 4.65729,-3.31875 6.44753,-7.15527c-1.22133,1.61423 -2.5661,2.69807 -4.04189,3.01662z" fill="#FF7300"/>
      </g>
     </g>
    </g>
    <path stroke="null" id="svg_248" d="m-653.09539,45.5017c0,0 -52.18103,-19.03406 -96.20866,36.81593c-44.02771,55.84983 -13.65679,138.19814 -52.99619,158.98866c0,0 19.32648,63.18798 130.12786,63.18798s192.51125,-41.35909 165.02103,-147.89844c-18.61874,-72.15401 -105.84732,-136.84059 -141.59614,-135.17869c0,0 1.43798,8.53027 -4.34789,24.08457z" fill="#FECE00"/>
    <path stroke="null" id="svg_249" d="m-717.47873,208.46792c0,0 27.08216,21.13496 44.25913,0.94177c0,0 -1.08928,16.92527 -19.60692,16.92527c-15.60007,0 -24.65221,-17.86703 -24.65221,-17.86703z" fill="#FCC000"/>
    <path stroke="null" id="svg_250" d="m-562.97443,179.03924c0,0 4.84332,25.35254 31.93732,18.59033c0,0 -3.91087,7.92466 -17.17894,6.43451c-13.26775,-1.48984 -18.0934,-14.78727 -14.75838,-25.02483z" fill="#FCC000"/>
    <path stroke="null" id="svg_251" d="m-548.79585,162.93987c21.0655,-2.32269 21.12043,-12.89742 20.29548,-17.0446c-18.54976,-68.21781 -93.22796,-104.20831 -101.58648,-102.52596c-8.42349,1.69529 -9.99115,21.2655 -14.99272,24.90312c-5.00141,3.63731 -26.59849,-6.82023 -42.28491,0c-15.68634,6.82007 -33.19125,46.14968 -36.82887,76.38588c-3.63731,30.2358 -18.77983,69.73393 -18.77983,69.73393c-8.06886,23.13025 17.05021,49.12652 101.62626,49.35384c42.18522,0.11302 74.8973,-11.58596 94.88181,-31.93322c0.11066,-0.13544 0.24878,-0.27877 0.4169,-0.43063c0.00521,-0.00474 0.01058,-0.00947 0.01547,-0.01389c0.69804,-0.72235 1.37997,-1.4548 2.04628,-2.19798c5.17671,-6.79505 0.04404,-13.97432 -17.1712,-20.15752c-19.09586,-6.85819 -13.98584,-43.16748 12.36182,-46.07297zm-134.73787,75.38989c-34.85773,4.45563 -45.85757,-17.45945 -40.34344,-26.73314c0,0 10.35485,-26.65548 42.49533,-28.94154s32.7064,51.21811 -2.15189,55.67469z" fill="#FFDA3E"/>
    <path stroke="null" id="svg_252" d="m-672.17239,304.49426c71.25052,0 130.47088,-17.10301 156.36092,-57.64251c-19.05632,13.4294 -56.74132,32.82637 -121.64005,33.7555c-102.12706,1.46174 -126.12638,-29.8631 -125.70885,-49.28469c0.41784,-19.42128 12.11241,-48.44869 14.61837,-104.41573c1.57903,-35.265 31.48909,-64.90465 53.40038,-82.00711c-16.64634,4.18641 -36.09121,14.49421 -54.16243,37.41791c-44.02771,55.84967 -13.65679,138.19814 -52.99619,158.98866c0,0 19.32648,63.18798 130.12786,63.18798z" fill="#FCC000"/>
    <g stroke="null" id="svg_253" display="inline">
     <circle stroke="null" id="svg_254" r="54.64547" cy="1.6125" cx="-439.87792" fill="#EFEFEF"/>
     <path stroke="null" id="svg_255" d="m-440.55417,36.27417c-29.28961,-7.27903 -47.13202,-36.9235 -39.8533,-66.21225c0.66552,-2.67794 1.51952,-5.25911 2.54242,-7.73587c-7.13002,6.88155 -12.47816,15.78097 -15.04489,26.10677c-7.27824,29.28867 10.56385,58.9333 39.85283,66.21209c26.61002,6.61288 53.51191,-7.51234 63.66991,-32.11673c-13.09506,12.63696 -32.20362,18.45844 -51.16696,13.74598z" fill="#DDDDDD"/>
     <path stroke="null" id="svg_256" d="m-397.37249,9.86566c-8.62885,15.543 -31.20992,19.49002 -50.43783,8.81599c-19.22712,-10.67372 -27.81951,-31.92643 -19.19144,-47.46944c8.62822,-15.54277 31.20992,-19.48979 50.43767,-8.81591c19.2279,10.67395 27.81966,31.92659 19.1916,47.46936z" fill="#FFFFFF"/>
    </g>
    <g stroke="null" id="svg_257" display="inline">
     <ellipse stroke="null" id="svg_258" ry="51.69191" rx="60.06615" cy="-43.29865" cx="-579.09644" fill="#EFEFEF"/>
     <path stroke="null" id="svg_259" d="m-570.62884,-11.32399c-33.17467,0 -60.06646,-23.14398 -60.06646,-51.69231c0,-2.61014 0.22684,-5.17458 0.66094,-7.68172c-5.78161,7.94424 -9.12752,17.33427 -9.12752,27.39898c0,28.54856 26.89202,51.69262 60.06488,51.69262c30.13982,0 55.09251,-19.10501 59.40592,-44.01003c-10.61862,14.58845 -29.45962,24.29246 -50.93776,24.29246z" fill="#DDDDDD"/>
     <path stroke="null" id="svg_260" d="m-531.56655,-45.41912c-5.08342,16.23733 -28.12606,25.01244 -51.46673,19.60036c-23.34044,-5.41215 -38.14002,-22.96261 -33.05676,-39.19994c5.08405,-16.23717 28.12638,-25.01252 51.46729,-19.60036c23.34051,5.41231 38.1401,22.96261 33.0562,39.19994z" fill="#FFFFFF"/>
    </g>
    <circle stroke="null" id="svg_261" r="10.18176" cy="142.31337" cx="-707.29705"/>
    <circle stroke="null" id="svg_262" r="3.30115" cy="138.92879" cx="-704.47317" fill="#FFFFFF"/>
    <ellipse stroke="null" id="svg_263" ry="8.55103" rx="9.4658" cy="161.04624" cx="-728.0582" fill="#FF9999"/>
    <circle stroke="null" id="svg_264" r="10.1816" cy="123.5805" cx="-581.74936"/>
    <path stroke="null" id="svg_265" d="m-575.62465,120.19592c0,1.82307 -1.47753,3.30123 -3.30107,3.30123c-1.82331,0 -3.3006,-1.47816 -3.3006,-3.30123c0,-1.82315 1.47729,-3.30107 3.3006,-3.30107c1.82355,0 3.30107,1.47792 3.30107,3.30107z" fill="#FFFFFF"/>
    <path stroke="null" id="svg_266" d="m-539.32957,138.92879c0,4.72272 -4.2381,8.55103 -9.46628,8.55103c-5.22754,0 -9.46517,-3.82831 -9.46517,-8.55103s4.23763,-8.55103 9.46517,-8.55103c5.22817,0 9.46628,3.82831 9.46628,8.55103z" fill="#FF9999"/>
    <g stroke="null" id="svg_267" display="inline">
     <circle stroke="null" id="svg_268" r="10.9292" cy="149.26074" cx="-636.38031" fill="#FF8B00"/>
     <path stroke="null" id="svg_269" d="m-633.9536,157.80073c-6.03576,0 -10.92912,-4.89321 -10.92912,-10.92928c0,-2.43445 0.79654,-4.68294 2.14257,-6.49954c-2.76665,1.98282 -4.56936,5.22533 -4.56936,8.88884c0,6.03608 4.89305,10.92928 10.92897,10.92928c3.60155,0 6.79584,-1.74225 8.78687,-4.42974c-1.7915,1.28431 -3.98743,2.04044 -6.35992,2.04044z" fill="#FF7300"/>
     <path stroke="null" id="svg_270" d="m-650.05391,149.09215c0,0 0.94989,-15.02027 12.9923,-16.03117c12.37508,-1.03885 14.35467,15.29778 14.35467,15.29778s-11.10648,6.339 -27.34696,0.7334z" fill="#FF8B00"/>
     <path stroke="null" id="svg_271" d="m-642.84204,144.73092c-1.73302,-4.02374 -0.31563,-7.85299 1.39079,-10.52107c-7.89664,3.73391 -8.60297,14.8823 -8.60297,14.8823c16.24081,5.60561 27.34728,-0.7334 27.34728,-0.7334s-0.118,-0.9746 -0.47696,-2.43224c-6.36505,2.30216 -17.35069,4.16233 -19.65814,-1.1956z" fill="#FF7300"/>
     <path stroke="null" id="svg_272" d="m-627.60299,144.16864c-1.48881,2.28054 -7.15196,3.32223 -10.53607,1.11272c-3.38387,-2.20919 -3.20731,-6.83309 -1.71857,-9.11347c1.48905,-2.2807 5.43931,-2.33847 8.82341,-0.12881c3.38387,2.20934 4.92012,5.84918 3.43123,8.12956z" fill="#FFA039"/>
     <path stroke="null" id="svg_273" d="m-640.27397,152.13214c0,0 6.44493,0.96576 11.01074,-0.57996c4.56565,-1.54604 -0.49077,5.83134 -5.51429,4.97434c-5.02375,-0.85716 -8.39996,-4.65295 -5.49645,-4.39438z" fill="#FFA039"/>
    </g>
    <path stroke="null" id="svg_274" d="m-717.47873,208.46792c0,0 14.04535,21.33417 30.73533,15.23842c16.6899,-6.09543 11.02976,-29.75134 11.02976,-29.75134s12.26356,23.43838 -8.85277,33.23458c-21.11641,9.7962 -32.91232,-18.72166 -32.91232,-18.72166z" fill="#F99300"/>
    <path stroke="null" id="svg_275" d="m-562.97443,179.03924c0,0 -3.19342,16.18019 13.42498,22.46694c16.61934,6.28644 27.78604,-15.32272 27.78604,-15.32272s-6.02456,25.75791 -28.41273,19.38213c-22.3877,-6.3761 -12.79829,-26.52635 -12.79829,-26.52635z" fill="#F99300"/>
    <g stroke="null" id="svg_276" display="inline">
     <circle stroke="null" id="svg_277" r="9.07559" cy="29.9474" cx="-630.087" fill="#EFEFEF"/>
     <path stroke="null" id="svg_278" d="m-628.80743,35.5613c-5.01254,0 -9.07574,-4.06352 -9.07574,-9.07582c0,-0.45802 0.03433,-0.90846 0.1,-1.34864c-0.87365,1.39481 -1.37942,3.04353 -1.37942,4.81057c0,5.01231 4.06344,9.07559 9.07574,9.07559c4.55374,0 8.32411,-3.35411 8.97614,-7.72671c-1.60452,2.56129 -4.4516,4.26502 -7.69672,4.26502z" fill="#DDDDDD"/>
     <ellipse stroke="null" id="svg_279" ry="33.07286" rx="40.91135" cy="-11345.75441" cx="-15743.73442" fill="#FFFFFF" transform="matrix(0.156077313483347,0.042055475999858975,-0.042055475999858975,0.156077313483347,1350.7977038737222,2460.779640276336) "/>
    </g>
    <g stroke="null" id="svg_280" display="inline">
     <circle stroke="null" id="svg_281" r="9.07551" cy="43.3693" cx="-541.34293" fill="#EFEFEF"/>
     <path stroke="null" id="svg_282" d="m-540.06328,48.98296c-5.01254,0 -9.07606,-4.06328 -9.07606,-9.07559c0,-0.45833 0.03473,-0.90846 0.09977,-1.34864c-0.87357,1.39481 -1.37871,3.04338 -1.37871,4.81033c0,5.01231 4.06288,9.07582 9.07511,9.07582c4.55429,0 8.32435,-3.35427 8.97629,-7.72695c-1.60444,2.56128 -4.45152,4.26502 -7.6964,4.26502z" fill="#DDDDDD"/>
     <ellipse stroke="null" id="svg_283" ry="33.07323" rx="40.91188" cy="-11262.68908" cx="-15194.76339" fill="#FFFFFF" transform="matrix(0.15607720033252837,0.04205588010992557,-0.04205588010992557,0.15607720033252837,1357.3467337096617,2438.154310883543) "/>
    </g>
    <g stroke="null" id="svg_284" display="inline">
     <circle stroke="null" id="svg_285" r="13.0586" cy="-0.94752" cx="-616.53929" fill="#EFEFEF"/>
     <path stroke="null" id="svg_286" d="m-614.69838,7.13018c-7.21226,0 -13.05875,-5.84681 -13.05875,-13.05899c0,-0.6592 0.04941,-1.3072 0.14365,-1.94044c-1.25677,2.00705 -1.98417,4.37923 -1.98417,6.92173c0,7.21194 5.84634,13.05867 13.05836,13.05867c6.55258,0 11.97752,-4.82635 12.91503,-11.11792c-2.30848,3.68529 -6.40459,6.13695 -11.07412,6.13695z" fill="#DDDDDD"/>
     <ellipse stroke="null" id="svg_287" ry="47.58572" rx="58.86882" cy="-11542.83093" cx="-15657.47399" fill="#FFFFFF" transform="matrix(0.15607817019668818,0.04205229161253422,-0.04205229161253422,0.15607817019668818,1342.9936833930703,2456.057748328907) "/>
    </g>
    <g stroke="null" id="svg_288" display="inline">
     <circle stroke="null" id="svg_289" r="13.05844" cy="27.85448" cx="-486.72864" fill="#EFEFEF"/>
     <path stroke="null" id="svg_290" d="m-484.88773,35.93218c-7.2121,0 -13.05875,-5.84681 -13.05875,-13.05899c0,-0.6592 0.04957,-1.30696 0.14333,-1.94028c-1.25685,2.00689 -1.98393,4.37899 -1.98393,6.92157c0,7.21194 5.84665,13.05867 13.05844,13.05867c6.55227,0 11.97713,-4.82635 12.91463,-11.11792c-2.30848,3.68529 -6.40436,6.13695 -11.07372,6.13695z" fill="#DDDDDD"/>
     <ellipse stroke="null" id="svg_291" ry="47.5849" rx="58.86813" cy="-11364.38332" cx="-14854.69731" fill="#FFFFFF" transform="matrix(0.156077313483347,0.042055475999858975,-0.042055475999858975,0.156077313483347,1354.9632735922182,2423.28704628367) "/>
    </g>
    <g stroke="null" id="svg_292" display="inline">
     <path stroke="null" id="svg_293" d="m-571.08315,-33.64855l-13.14392,0c-0.18153,-2.74803 -0.02589,-5.04893 0.46654,-6.90263c0.49267,-1.8537 1.16024,-3.39626 2.00279,-4.62745c0.8424,-1.23143 1.78866,-2.22955 2.83871,-2.99444c1.04998,-0.76481 2.07367,-1.42567 3.07195,-1.9833c0.99828,-0.55739 1.87959,-1.09528 2.64471,-1.61368c0.76449,-0.51855 1.28952,-1.16671 1.57461,-1.94439c0.18185,-0.4667 0.23347,-1.00451 0.15565,-1.61391c-0.07767,-0.60909 -0.34349,-1.18597 -0.79717,-1.73033c-0.45368,-0.54444 -1.12756,-1.00467 -2.02181,-1.3806c-0.89441,-0.37601 -2.05512,-0.56394 -3.48071,-0.56394c-0.93308,0 -2.04154,0.08445 -3.32483,0.25281c-1.28305,0.16843 -2.62458,0.42795 -4.02476,0.77783c-1.40018,0.34997 -2.78023,0.77768 -4.14165,1.28321c-1.36087,0.50545 -2.58623,1.08234 -3.67503,1.73057l-1.71084,-15.24379c0.95921,-0.57041 2.04162,-1.16032 3.24709,-1.76948c1.2057,-0.60924 2.53398,-1.15361 3.98593,-1.63309c1.45188,-0.4798 3.03311,-0.87507 4.74419,-1.18621s3.55175,-0.46654 5.52218,-0.46654c3.18837,0 6.20293,0.4405 9.04133,1.32196c2.83887,0.88162 5.32131,2.1777 7.44715,3.88877c2.12553,1.71123 3.81048,3.8175 5.05501,6.31919c1.24453,2.50177 1.8668,5.37293 1.8668,8.61346c0,2.46294 -0.35012,4.43976 -1.05005,5.93047c-0.69993,1.49055 -1.59466,2.71559 -2.68354,3.6748c-1.08857,0.95921 -2.3069,1.76277 -3.6553,2.411c-1.34809,0.64816 -2.66334,1.35456 -3.94702,2.11945c-1.28337,0.76465 -2.46286,1.70437 -3.53849,2.81914c-1.07626,1.11493 -1.899,2.61859 -2.46949,4.51112z" fill="#DD0000"/>
     <g stroke="null" id="svg_294">
      <path stroke="null" id="svg_295" d="m-571.32167,-18.27698c0,4.48949 -3.63936,8.12885 -8.12861,8.12885c-4.48973,0 -8.12964,-3.63936 -8.12964,-8.12885c0,-4.48973 3.63991,-8.1294 8.12964,-8.1294c4.48925,0 8.12861,3.63967 8.12861,8.1294z" fill="#DD0000"/>
      <path stroke="null" id="svg_296" d="m-578.30456,-13.24865c-4.48917,0 -8.12908,-3.63975 -8.12908,-8.1294c0,-0.41058 0.03078,-0.81367 0.08943,-1.20791c-0.78257,1.24927 -1.23569,2.72609 -1.23569,4.30875c0,4.48941 3.63991,8.12908 8.12964,8.12908c4.07883,0 7.45599,-3.00446 8.0399,-6.92094c-1.43712,2.29427 -3.98695,3.82042 -6.89418,3.82042z" fill="#C40000"/>
      <path stroke="null" id="svg_297" d="m-573.01814,-18.6106c-0.68762,2.55355 -3.80653,3.93368 -6.9649,3.08244c-3.15932,-0.85116 -5.16219,-3.61118 -4.4737,-6.16465c0.6877,-2.55355 3.80621,-3.93368 6.96506,-3.08244c3.15908,0.85116 5.16211,3.61126 4.47355,6.16465z" fill="#FF2C2C"/>
     </g>
     <g stroke="null" id="svg_298">
      <path stroke="null" id="svg_299" d="m-579.2558,-40.81716c-0.41998,-6.08762 14.69414,-8.32696 11.96529,-16.51374c-2.72869,-8.18678 -18.54313,-3.35853 -20.85271,-7.69696c-1.05305,-1.98061 -1.78708,-4.86479 -2.27249,-7.4151c-0.33726,0.15249 -0.66623,0.30924 -0.98612,0.47088c-1.20546,0.60916 -2.28788,1.19907 -3.24685,1.76948l1.7106,15.24379c1.08881,-0.64839 2.31416,-1.22512 3.67503,-1.73057c1.36142,-0.50561 2.74148,-0.93324 4.14165,-1.28329c1.40018,-0.35012 2.74171,-0.60932 4.02476,-0.77775c1.28329,-0.16859 2.39175,-0.25281 3.32483,-0.25281c1.42559,0 2.5863,0.18793 3.48071,0.56394c0.89425,0.37578 1.56814,0.83592 2.02181,1.3806c0.45368,0.54437 0.71951,1.12101 0.79717,1.73033c0.07798,0.60916 0.0262,1.14722 -0.15565,1.61376c-0.28509,0.77783 -0.80964,1.42599 -1.57461,1.94454c-0.76513,0.5184 -1.64643,1.05629 -2.64471,1.61368c-0.9978,0.55731 -2.02197,1.21849 -3.07195,1.9833c-1.05005,0.76489 -1.99632,1.76277 -2.83871,2.9942c-0.84255,1.23143 -1.50981,2.77399 -2.00279,4.62769c-0.49243,1.8537 -0.64807,4.15436 -0.46654,6.90247l13.14392,0c0.39748,-1.3192 0.9184,-2.44873 1.56103,-3.39003c-4.66715,0.02028 -9.51798,-0.65068 -9.73368,-3.77843z" fill="#C40000"/>
     </g>
     <path stroke="null" id="svg_300" d="m-580.80491,-65.73007c0,0 10.46906,0.15754 14.8385,6.45542c4.36944,6.29796 -3.62136,11.13955 -6.53396,13.54053c-2.91275,2.40122 -2.75552,4.36936 0.31492,4.95982c3.07045,0.5903 15.19343,-7.04588 15.27236,-15.50867c0.07861,-8.46303 -7.75718,-15.7419 -19.13003,-16.53213c-11.37278,-0.79007 -9.10211,6.55124 -4.76179,7.08503z" fill="#FF2C2C"/>
    </g>
    <g stroke="null" id="svg_301" display="inline">
     <path stroke="null" id="svg_302" d="m-430.43927,14.24402l-12.79103,3.02514c-0.80917,-2.63224 -1.18755,-4.90725 -1.13498,-6.82449c0.05272,-1.91715 0.3476,-3.57188 0.88399,-4.96416c0.53687,-1.39221 1.2278,-2.58149 2.07359,-3.56738c0.84579,-0.98597 1.69,-1.8649 2.53295,-2.63706c0.84295,-0.77223 1.57666,-1.49876 2.20208,-2.17919c0.62479,-0.68067 0.98628,-1.43215 1.08478,-2.25473c0.06961,-0.49574 -0.0041,-1.03135 -0.22005,-1.60618c-0.21626,-0.57507 -0.60711,-1.07523 -1.17381,-1.50049c-0.56733,-0.4255 -1.32883,-0.71824 -2.28606,-0.87807c-0.95629,-0.15999 -2.129,-0.07593 -3.51655,0.25233c-0.90799,0.21476 -1.96704,0.55202 -3.17716,1.0113c-1.21044,0.45936 -2.45592,1.02046 -3.73802,1.68313c-1.28195,0.66299 -2.52664,1.39686 -3.73486,2.20232c-1.20823,0.80498 -2.26728,1.64841 -3.17795,2.52979l-5.17403,-14.44078c0.80238,-0.77586 1.72015,-1.59884 2.75284,-2.4691c1.03316,-0.87057 2.20066,-1.70602 3.50313,-2.50698c1.30262,-0.80096 2.75047,-1.54959 4.34355,-2.24628c1.59371,-0.69638 3.34938,-1.27168 5.26669,-1.72504c3.10344,-0.73403 6.13742,-0.99883 9.10258,-0.79441c2.96547,0.20434 5.67996,0.89449 8.1425,2.0702c2.46254,1.17586 4.58728,2.83777 6.37357,4.98594c1.78724,2.14826 3.0534,4.79889 3.79927,7.9526c0.56702,2.3968 0.68146,4.40101 0.34349,6.0128c-0.33828,1.6117 -0.92661,3.00975 -1.76546,4.19383c-0.83884,1.18415 -1.83933,2.2466 -3.00241,3.1875c-1.16292,0.94113 -2.28038,1.93152 -3.35301,2.97108c-1.07279,1.03979 -2.00429,2.22576 -2.79499,3.5583c-0.7907,1.3323 -1.24532,2.98505 -1.36466,4.95808z" fill="#DD0000"/>
     <g stroke="null" id="svg_303">
      <circle stroke="null" id="svg_304" r="8.12906" cy="31.12864" cx="-435.04391" fill="#DD0000"/>
      <path stroke="null" id="svg_305" d="m-432.77111,35.75822c-4.36912,1.03364 -8.74851,-1.67074 -9.78231,-6.03979c-0.09471,-0.39945 -0.15722,-0.79906 -0.19085,-1.19615c-0.47372,1.39592 -0.57491,2.93722 -0.21042,4.47733c1.03332,4.36905 5.41287,7.07327 9.78199,6.03995c3.96959,-0.939 6.56395,-4.63993 6.23071,-8.5856c-0.87026,2.5631 -3.00083,4.63519 -5.82913,5.30426z" fill="#C40000"/>
      <path stroke="null" id="svg_306" d="m-428.8604,29.32348c-0.08256,2.64329 -2.79941,4.70417 -6.06891,4.60291c-3.27013,-0.10111 -5.85518,-2.32608 -5.77278,-4.96937c0.08177,-2.64329 2.79878,-4.70401 6.06891,-4.60291c3.26998,0.10126 5.85423,2.32624 5.77278,4.96937z" fill="#FF2C2C"/>
     </g>
     <g stroke="null" id="svg_307">
      <path stroke="null" id="svg_308" d="m-440.0432,9.14915c-1.80934,-5.82763 12.38345,-11.48564 7.84352,-18.8245c-4.53977,-7.33894 -18.81858,0.99986 -22.06409,-2.69088c-1.48163,-1.68456 -2.85845,-4.32256 -3.91829,-6.69284c-0.2933,0.22613 -0.57759,0.45439 -0.851,0.68525c-1.03316,0.87049 -1.95094,1.69347 -2.75332,2.46933l5.17403,14.44078c0.91067,-0.88139 1.96972,-1.72481 3.17795,-2.53003s2.45292,-1.53909 3.73486,-2.20208c1.2821,-0.66268 2.52758,-1.22377 3.73739,-1.68313c1.21075,-0.45928 2.26981,-0.79654 3.17779,-1.0113c1.38755,-0.32795 2.55963,-0.41232 3.51655,-0.25233c0.95723,0.15983 1.71873,0.45249 2.28606,0.87807c0.5667,0.42526 0.95755,0.92519 1.17381,1.50026c0.21595,0.57507 0.28966,1.11043 0.22005,1.60642c-0.0985,0.82259 -0.45999,1.57406 -1.08478,2.25457c-0.62542,0.68083 -1.35914,1.4072 -2.20208,2.17919c-0.84295,0.77231 -1.68716,1.65125 -2.53295,2.63721c-0.84579,0.98589 -1.5372,2.17517 -2.07327,3.56738c-0.53671,1.39229 -0.83158,3.04685 -0.88431,4.96432c-0.05257,1.91708 0.32581,4.19209 1.13498,6.82433l12.79103,-3.02538c0.08319,-1.37508 0.32992,-2.59428 0.73876,-3.65822c-4.53708,1.0941 -9.41261,1.55764 -10.34269,-1.43641z" fill="#C40000"/>
     </g>
     <path stroke="null" id="svg_309" d="m-447.28419,-14.73833c0,0 10.22398,-2.25662 15.92557,2.86673c5.70174,5.12296 -0.95992,11.67397 -3.24172,14.68088c-2.28196,3.00707 -1.67579,4.8861 1.44817,4.75406c3.12349,-0.13213 13.1642,-10.35382 11.29251,-18.60769c-1.87138,-8.25371 -11.17222,-13.53366 -22.42132,-11.68502c-11.24941,1.8488 -7.3507,8.47076 -3.0032,7.99104z" fill="#FF2C2C"/>
    </g>
    <path stroke="null" id="svg_310" d="m-644.65162,305.51685c0,0 12.57516,-1.91858 13.29996,-1.1937c0.72464,0.72487 -3.53817,6.01082 -7.16159,6.05313c-3.62341,0.04262 -9.38167,-4.39501 -6.13837,-4.85942z" fill="#FFA039"/>
    <path stroke="null" id="svg_311" d="m-582.04479,294.6425c0,0 9.65081,-3.7396 10.61373,-3.59974c0.96229,0.13986 -1.43096,6.64351 -4.42279,7.29387c-2.99144,0.65037 -8.61015,-2.77447 -6.19094,-3.69413z" fill="#FFA039"/>
    <path stroke="null" id="svg_312" d="m-557.12304,178.10915c0,0 27.51153,-2.27375 31.19509,0c3.68308,2.27407 -3.36295,17.99931 -16.52637,17.23087c-13.1631,-0.76876 -19.10257,-16.90601 -14.66872,-17.23087z" fill="#FFDA3E"/>
    <path stroke="null" id="svg_313" d="m-710.6881,203.52799c0.14791,-0.09503 19.44204,-13.323 27.18879,-12.05732c7.7466,1.26632 8.19238,19.67858 -5.24467,22.72772c-12.09765,2.74511 -27.75368,-6.92859 -21.94412,-10.6704z" fill="#FFDA3E"/>
    <path stroke="null" id="svg_314" d="m-778.3819,112.07094c-1.26884,1.01833 -12.31731,9.20234 -13.23903,20.06075c-0.92164,10.85825 10.30647,19.99161 12.23364,19.32104c1.9271,-0.66994 -0.83798,-20.27733 18.43421,-59.49187c19.2721,-39.21454 55.30246,-49.18588 69.71467,-51.78339c14.41213,-2.59751 28.92094,0.03725 32.18247,-1.15448c3.26137,-1.19165 2.50722,-25.40739 -27.49014,-28.34011c-29.99744,-2.9328 -42.98524,30.5598 -43.57167,34.21684c-0.58659,3.65712 -28.82441,4.66242 -45.75015,17.56655c-16.92605,12.90374 -1.17326,36.19792 0.16756,40.21976c1.34059,4.02216 -0.01942,7.24817 -2.68157,9.3849z" fill="#E22C14"/>
   </g>
  </g>
 </g>
</svg>