<svg width="400" height="400" xmlns="http://www.w3.org/2000/svg">

 <g>
  <title>background</title>
  <rect fill="none" id="canvas_background" height="402" width="402" y="-1" x="-1"/>
 </g>
 <g>
  <title>Layer 1</title>
  <g stroke="null" id="svg_1">
   <g stroke="null" id="svg_2">
    <g stroke="null" id="svg_3">
     <path stroke="null" id="svg_4" d="m255.67227,284.42956c-0.99983,0.99973 -18.22261,30.88972 -18.22261,30.88972l22.51285,-4.66691l9.71049,25.77851l20.44515,-27.55633l31.94625,10.88918l-5.50118,-28.44514l45.0558,-9.55587l-23.20507,-13.18243l31.70678,-11.26297l-56.89079,-30.22337l-57.55765,57.33561z" fill="#DD0000"/>
     <path stroke="null" id="svg_5" d="m314.41252,311.67705c-2.0108,0.65047 -22.17555,-6.80038 -24.60044,-6.50473c-2.42448,0.29524 -16.97167,21.88 -18.56836,20.93367c-1.5968,-0.94612 -7.27365,-19.04122 -8.87034,-19.15977c-1.59639,-0.11834 -13.18717,1.65577 -13.48251,-1.06426c-0.29606,-2.72044 9.78523,-19.51459 9.78523,-19.51459s4.87999,-6.80058 2.22583,-7.14736l-5.22966,5.20955c-0.99983,0.99973 -18.22261,30.88972 -18.22261,30.88972l22.51285,-4.66691l9.71049,25.77851l20.44515,-27.55633l31.94625,10.88918l-5.50087,-28.44514l45.05549,-9.55628c0,0 -47.9754,5.66932 -48.62587,6.61565c-0.65058,0.94612 3.42988,22.64841 1.41939,23.29908z" fill="#C40000"/>
     <path stroke="null" id="svg_6" d="m260.62349,288.48043c0,0 -4.86473,11.53965 -4.03654,13.35067c0.82809,1.81143 12.6268,-1.34527 13.76518,-0.51708c1.13848,0.82778 0.72438,13.76487 2.79435,14.69656c2.06997,0.93107 13.14398,-14.95551 16.04214,-14.80026c2.89775,0.15504 20.90636,6.1064 21.94134,5.58891s-6.00311,-20.54442 -3.93304,-21.94144c2.06997,-1.39723 38.91507,-4.65145 39.63935,-5.63777c0.7247,-0.98612 -18.57785,-12.06024 -16.66292,-13.92321c1.91482,-1.86276 27.01286,-7.60713 25.97788,-9.83214c-1.03498,-2.22521 -42.01971,-25.14989 -45.22846,-23.18321c-3.20834,1.96606 -50.29926,56.19898 -50.29926,56.19898z" fill="#FF2C2C"/>
    </g>
    <polygon stroke="null" id="svg_7" points="267.0242919921875,281.75279998779297 258.6760559082031,299.99694061279297 273.37310791015625,295.68038177490234 275.3725891113281,312.16609954833984 287.72064208984375,295.96468353271484 306.1949768066406,301.6494674682617 298.6703186035156,283.17394256591797 328.51507568359375,274.6468734741211 316.86151123046875,265.0023727416992 340.6340637207031,253.99568939208984 311.7453308105469,235.47257232666016 " fill="#FF9D00"/>
    <path stroke="null" id="svg_8" d="m300.16037,296.34589c-1.13188,-0.25297 -10.65662,-3.74408 -12.22507,-3.54183c-1.56845,0.20246 -8.19668,10.32159 -9.00621,10.0179c-0.80933,-0.30349 -1.41661,-10.67559 -2.32727,-11.13081c-0.91076,-0.45543 -7.79176,2.02378 -9.05641,0.70841c-0.70222,-0.73067 1.26301,-8.08998 3.25401,-14.55306l-3.77511,3.90634l-8.34821,18.24416l14.69707,-4.31662l1.99977,16.48572l12.34774,-16.20141l18.47435,5.68478l-7.52466,-18.47548l29.84474,-8.52707c0,0 -31.47267,5.40707 -32.28231,6.31794c-0.80922,0.91066 5.05987,15.63423 3.92758,15.38105z" fill="#FF8B00"/>
    <g stroke="null" id="svg_9">
     <path stroke="null" id="svg_10" d="m76.04977,78.35834l0,-47.48316l34.34475,27.41397l20.95192,-31.44046l14.69223,42.14367l35.96103,-14.58131l-8.2409,47.36441l-65.49744,61.3773l-33.7251,21.13088c0,0 0.01144,-41.74096 0.29276,-41.47263c0.28101,0.26833 -44.94941,-2.9528 -44.94941,-2.9528l29.52723,-23.09941l-26.57444,-24.9497l43.21736,-13.45076z" fill="#DD0000"/>
     <path stroke="null" id="svg_11" d="m32.8321,91.80911l26.57474,24.94939l-29.52754,23.09972c0,0 45.23073,3.22113 44.94972,2.9528c-0.28101,-0.26875 -0.29276,41.47263 -0.29276,41.47263l27.44716,-17.19742c0.14576,-0.86262 0.2339,-1.44125 0.2339,-1.44125s-15.79092,2.61601 -16.28274,0c-0.49182,-2.61612 -0.62944,-21.11655 -1.844,-24.29345c-1.21487,-3.1769 -31.02084,-7.10118 -30.83385,-9.34361c0.18679,-2.24233 14.48245,-12.8941 14.94953,-15.24941c0.46739,-2.3549 -24.76043,-21.93814 -22.79809,-23.05931c1.96193,-1.12116 35.22521,-9.7173 37.18755,-11.95973c1.96193,-2.24264 -6.54596,-50.86428 -6.54596,-50.86428l0,47.48316l-43.21767,13.45076z" fill="#C40000"/>
     <path stroke="null" id="svg_12" d="m89.16798,78.1264c0,0 -5.49015,-26.74257 -4.42744,-29.7533c1.06261,-3.01094 23.55474,17.44462 26.74267,17.71038c3.18783,0.26545 15.76195,-25.14886 17.88728,-25.14886c2.12522,0 11.51182,32.76403 13.99124,34.53505c2.47953,1.77112 27.36232,-10.6261 28.86769,-9.9177c1.50557,0.70851 -7.08397,15.58516 -8.14668,17.88738c-1.06261,2.30253 -28.60214,11.77747 -44.80715,24.79466c-16.20471,13.01708 -23.82018,49.2347 -25.85696,50.297c-2.03657,1.06271 -0.61996,-19.74684 -2.12501,-23.02323c-1.50567,-3.27638 -25.59151,-3.45369 -27.80528,-5.49015c-2.21408,-2.03677 13.63673,-11.86602 14.16824,-14.87665c0.5311,-3.01094 -19.92415,-14.69965 -19.6584,-17.53338c0.26545,-2.83342 28.77914,-8.58933 30.46171,-9.9177c1.68226,-1.32837 1.50897,-5.54479 0.7081,-9.56349z" fill="#FF2C2C"/>
    </g>
    <polygon stroke="null" id="svg_13" points="87.5169677734375,116.75880432128906 62.783111572265625,129.70731353759766 94.38949584960938,138.18665313720703 89.91709899902344,161.7589340209961 114.09830474853516,157.49828338623047 156.5642547607422,102.06472778320312 162.49974060058594,78.66183471679688 136.21405029296875,88.71941375732422 124.34288787841797,54.41106033325195 112.64137268066406,82.56240844726562 87.5169677734375,61.8729362487793 92.1217041015625,92.56793212890625 58.2892951965332,92.39845275878906 " fill="#FF9D00"/>
    <path stroke="null" id="svg_14" d="m62.78311,129.70733l31.60637,8.47903l-4.47239,23.57257l24.18119,-4.26065l42.46597,-55.43357l4.01025,-15.81215c-10.27974,4.39693 -25.18989,11.92777 -36.77222,22.51099c-19.63108,17.93768 -24.99444,40.24725 -26.30981,39.43771c-1.31527,-0.80964 1.92266,-14.57151 0,-15.78576c-1.92255,-1.21425 -17.70832,-2.83342 -17.88594,-5.26213c-0.17793,-2.4285 15.96338,-9.30949 14.78294,-11.53584c-1.18075,-2.22614 -36.1002,-23.21909 -36.1002,-23.21909l29.22766,24.36004l-24.73384,12.94884z" fill="#FF8B00"/>
    <g stroke="null" id="svg_15">
     <path stroke="null" id="svg_16" d="m93.65861,189.67581c0,0 -15.74639,-11.99287 -23.11559,-8.99193c-7.36951,3.00094 -1.11343,33.6666 23.11559,48.50088c0,0 4.34755,-25.29998 0,-39.50894z" fill="#FECE00"/>
     <path stroke="null" id="svg_17" d="m71.77149,180.33132c-0.43028,0.07865 -0.84108,0.19483 -1.22848,0.35255c-7.36951,3.00094 -1.11343,33.6666 23.11559,48.50088c0,0 0.33761,-1.96544 0.73088,-5.1075c-18.59311,-13.07605 -25.34596,-35.52302 -22.61799,-43.74593z" fill="#FCC000"/>
     <path stroke="null" id="svg_18" d="m172.5699,88.71941c0,0 -3.36359,-21.3186 18.08025,-29.01376c21.44374,-7.69506 34.06374,18.46858 34.06374,18.46858s20.00734,-17.95521 36.11576,-5.54056c16.10842,12.41475 7.79763,26.88153 7.79763,26.88153s29.62743,10.56786 15.07014,46.78651c-14.55688,36.21834 -111.31937,-38.1679 -111.31937,-38.1679l0.19184,-19.41439z" fill="#CD2606"/>
     <path stroke="null" id="svg_19" d="m233.94813,93.35931c-32.42209,-7.18221 -47.10587,5.96796 -52.32707,-4.6399c-2.54035,-5.16172 -2.41407,-14.4041 -1.61495,-22.53377c-9.51174,9.37289 -7.43621,22.53377 -7.43621,22.53377l-0.19184,19.41439c0,0 61.87448,47.56584 94.11061,48.10477l6.47596,-0.65253c4.90442,-1.20178 8.65562,-4.11653 10.7328,-9.28465c1.96039,-4.87772 3.11866,-9.28929 3.65667,-13.27346c-10.58384,-13.02131 -31.0694,-34.7207 -53.40597,-39.66862z" fill="#BC1A04"/>
     <g stroke="null" id="svg_20">
      <path stroke="null" id="svg_21" d="m322.06439,222.63116c0,0 7.92123,2.8693 20.22929,1.94977s23.12631,-10.12284 18.03819,-17.17743c-9.11455,-12.63731 -34.95368,4.59722 -38.26748,15.22766z" fill="#CD2606"/>
      <path stroke="null" id="svg_22" d="m336.16892,214.3449c1.46403,-2.17924 4.88576,-6.7177 7.38188,-9.99048c-9.62658,3.33916 -19.52047,11.97014 -21.48642,18.27673c0,0 7.92123,2.8693 20.22929,1.94977c1.96657,-0.147 3.89469,-0.50636 5.72622,-1.03354c-4.75464,-5.30666 -14.28555,-5.5786 -11.85097,-9.20249z" fill="#BC1A04"/>
      <path stroke="null" id="svg_23" d="m322.0648,222.63116c0,0 27.44159,-18.50022 17.31803,-27.49056c-10.12387,-8.99028 -27.99259,5.26316 -17.31803,27.49056z" fill="#CD2606"/>
      <path stroke="null" id="svg_24" d="m334.70489,192.67355c-9.94563,-2.31366 -21.79867,10.88691 -12.64009,29.95761c0,0 1.14745,-0.77397 2.8863,-2.08151c-6.27433,-15.47609 1.38177,-26.62155 9.75379,-27.8761z" fill="#BC1A04"/>
      <path stroke="null" id="svg_25" d="m326.81562,215.29721c0,0 16.0642,-9.74884 11.2974,-17.3368c-2.57323,-4.09623 -14.67048,3.27216 -11.2974,17.3368z" fill="#E22C14"/>
      <path stroke="null" id="svg_26" d="m322.06439,222.63116c0,0 7.7664,-4.8001 17.50545,-2.7258c9.73915,2.0745 12.0358,19.34099 3.35772,20.35412s-18.65619,-11.80232 -20.86316,-17.62832z" fill="#CD2606"/>
      <path stroke="null" id="svg_27" d="m345.52191,239.29089c-7.92185,-0.66779 -17.1064,-9.03817 -17.34772,-14.29452c-0.10762,-2.34088 1.05911,-4.06716 2.55303,-5.30934c-5.19966,0.80469 -8.66283,2.94414 -8.66283,2.94414c2.20697,5.82601 12.18507,18.64145 20.86285,17.62791c1.01261,-0.11772 1.87555,-0.4575 2.59467,-0.96818z" fill="#BC1A04"/>
      <path stroke="null" id="svg_28" d="m331.66138,223.38431c0,0 5.02276,-2.8126 9.17507,-0.9018c4.15272,1.9106 6.33391,10.17253 4.00211,12.63319c-2.33191,2.46025 -16.97373,-8.49161 -13.17717,-11.73139z" fill="#E22C14"/>
      <path stroke="null" id="svg_29" d="m340.69234,213.91978c0,0 2.05244,-6.79048 10.97608,-7.77578c5.51201,-0.60821 7.7599,5.64952 6.17001,8.0972c-1.5899,2.44726 -7.51786,5.04482 -9.63081,4.98668c-2.11326,-0.05835 -8.23307,-2.45839 -7.51528,-5.3081z" fill="#E22C14"/>
     </g>
     <path stroke="null" id="svg_30" d="m172.5699,88.71941c0,0 2.14058,12.34991 7.87082,12.19353c5.72983,-0.15618 46.22242,-19.85395 83.50533,16.25831c37.28321,36.11195 39.80954,75.53776 39.80954,75.53776s5.91528,19.19771 20.45391,27.0141c0,0 0.05371,74.88208 -114.01548,80.04112c-114.06919,5.15863 -128.53803,-76.73185 -121.02729,-109.82143c7.17138,-31.59519 28.21897,-93.40699 83.40317,-101.22338z" fill="#FECE00"/>
     <path stroke="null" id="svg_31" d="m283.69743,201.60265c0,0 18.95318,-6.39113 22.49759,1.39042l-0.40719,-8.6351c0,0 -3.23608,-2.49736 -22.0904,7.24468z" fill="#FCC000"/>
     <path stroke="null" id="svg_32" d="m146.03866,131.39413c1.07148,-0.805 54.1486,-35.51766 96.68868,-8.39831c42.54019,27.11935 20.84461,64.38653 26.26848,87.13163c5.42407,22.74531 32.01841,22.69871 31.14341,34.61978c-0.87458,11.92066 -102.22079,37.41547 -149.06874,0.56326c-43.39065,-34.13342 -30.25316,-94.9638 -5.03183,-113.91636z" fill="#FFDA3E"/>
     <path stroke="null" id="svg_33" d="m172.5699,88.71941c-55.1842,7.81639 -76.23178,69.6282 -83.40317,101.22338c-7.51074,33.08957 6.9581,114.98006 121.02729,109.82143c55.07452,-2.49097 83.54501,-21.2351 98.26322,-39.95696c-65.37209,31.49772 -188.05823,26.05663 -197.9782,-48.28012c-12.02766,-90.13391 62.09086,-122.80774 62.09086,-122.80774z" fill="#FCC000"/>
     <path stroke="null" id="svg_34" d="m158.28363,152.39821c-0.82005,-0.93262 -2.24047,-1.02467 -3.17721,-0.20463l-8.86117,7.78165l-7.78268,-8.86282c-0.82026,-0.93447 -2.24264,-1.02684 -3.17711,-0.20463c-0.50584,0.4443 -0.76541,1.06653 -0.76541,1.69102c0,0.52759 0.18473,1.05746 0.56079,1.48619l7.78103,8.86086l-8.86354,7.7833c-0.93416,0.81995 -1.02653,2.24264 -0.20421,3.17711c0.44399,0.50553 1.06622,0.7651 1.69071,0.7651c0.52759,0 1.05776,-0.18473 1.4864,-0.56079l8.86158,-7.78134l7.78361,8.86385c0.81995,0.93447 2.24233,1.02653 3.1768,0.20421c0.93262,-0.81995 1.02498,-2.24037 0.20463,-3.17711l-7.78196,-8.86189l8.86313,-7.78299c0.93447,-0.82026 1.02684,-2.24264 0.20463,-3.17711z"/>
     <path stroke="null" id="svg_35" d="m254.97231,151.18365c-0.82036,-0.93221 -2.24078,-1.02457 -3.17721,-0.20432l-8.86148,7.78134l-7.78268,-8.86251c-0.81995,-0.93447 -2.24274,-1.02684 -3.17721,-0.20463c-0.50543,0.4444 -0.765,1.06622 -0.765,1.69082c0,0.5279 0.18473,1.05777 0.56079,1.4864l7.78093,8.86086l-8.86344,7.78299c-0.93447,0.82036 -1.02684,2.24274 -0.20463,3.17721c0.4444,0.50574 1.06663,0.76531 1.69113,0.76531c0.52759,0 1.05746,-0.18473 1.48609,-0.56079l8.86158,-7.78165l7.78361,8.86385c0.82025,0.93447 2.24264,1.02684 3.17711,0.20463c0.93221,-0.82005 1.02457,-2.24047 0.20463,-3.17721l-7.78196,-8.86189l8.86313,-7.7832c0.93447,-0.82005 1.02684,-2.24274 0.20463,-3.17721z"/>
     <ellipse stroke="null" id="svg_36" ry="6.67868" rx="8.34826" cy="180.68387" cx="120.81728" fill="#FF9999"/>
     <ellipse stroke="null" id="svg_37" ry="6.67868" rx="8.34826" cy="180.68387" cx="267.02435" fill="#FF9999"/>
     <g stroke="null" id="svg_38">
      <path stroke="null" id="svg_39" d="m182.02371,189.45623c0,0 -0.72789,-13.87872 5.81477,-17.50797c6.54307,-3.62904 19.74983,6.30422 20.94481,9.44433c1.19508,3.1402 -3.26298,14.73578 -3.26298,14.73578l-10.82547,5.54025c0,0 -5.42676,0.79005 -6.63059,-0.37626c-1.20384,-1.16611 -6.04053,-11.83613 -6.04053,-11.83613z" fill="#660000"/>
      <path stroke="null" id="svg_40" d="m208.78329,181.39259c-0.10082,-0.26472 -0.2872,-0.5779 -0.5477,-0.92726c0.14308,0.70841 0.21885,1.4396 0.21885,2.188c0,6.34623 -5.38965,11.49105 -12.03838,11.49105s-12.03869,-5.14482 -12.03869,-11.49105c0,-5.45892 3.98809,-10.02851 9.33444,-11.20019c-2.17986,-0.47193 -4.2356,-0.41307 -5.87332,0.49512c-6.54266,3.62925 -5.81477,17.50797 -5.81477,17.50797s4.83669,10.67002 6.04084,11.83613c1.20353,1.16632 6.63028,0.37626 6.63028,0.37626l10.82547,-5.54025c0,0 4.45806,-11.59558 3.26298,-14.73578z" fill="#540000"/>
      <path stroke="null" id="svg_41" d="m182.5676,182.69632c-0.24266,0.14566 0.97097,14.56043 11.93952,14.85155c10.96886,0.29153 12.52206,-16.59855 12.52206,-16.59855s3.61502,4.61062 3.11794,13.10434c-0.49698,8.49367 -7.87433,18.29735 -23.45,13.01832c-13.54138,-4.58939 -4.61485,-26.12266 -4.61485,-26.12266l0.48533,1.747z" fill="#FF8B00"/>
      <g stroke="null" id="svg_42">
       <path stroke="null" id="svg_43" d="m188.45267,204.94387c-9.96295,-3.37668 -7.76351,-15.92514 -5.90559,-22.32136l-0.46481,-1.67319c0,0 -8.92653,21.53327 4.61485,26.12266c10.46838,3.54801 17.2333,0.28266 20.69503,-4.81845c-3.78996,3.79027 -10.02047,5.71323 -18.93947,2.69034z" fill="#FF7300"/>
      </g>
      <path stroke="null" id="svg_44" d="m183.82968,183.81263c0,0 3.86212,-6.58338 11.66068,-6.14661c7.79856,0.43688 9.32217,8.71912 13.06337,8.71912s1.58072,-20.5304 -13.91094,-19.89941c-15.49176,0.63099 -16.97826,25.77196 -10.8131,17.3269z" fill="#FF8B00"/>
      <path stroke="null" id="svg_45" d="m206.61838,183.56409c-1.57753,-1.29394 -5.58159,-7.6362 -12.23486,-7.13561c-6.65327,0.50017 -8.72788,4.25539 -11.13123,5.01421c-1.07271,0.33895 -1.99554,0.07226 -2.68931,-0.32616c-0.5344,3.91716 0.70614,6.20336 3.26669,2.69611c0,0 3.86212,-6.58338 11.66067,-6.14661c7.79856,0.43688 9.32217,8.71912 13.06337,8.71912c0.69346,0 1.18425,-0.70645 1.42465,-1.85235c-1.08446,0.19638 -2.27944,-0.08267 -3.35999,-0.9687z" fill="#FF7300"/>
      <path stroke="null" id="svg_46" d="m183.70793,177.44584c0,0 1.99843,-6.95707 8.95529,-8.85437c6.95707,-1.8973 14.77418,5.89446 16.03884,11.53584c1.26486,5.64148 -4.57877,-4.22488 -11.38399,-5.16059c-6.80522,-0.93612 -12.95245,4.17406 -13.61013,4.60413c-0.658,0.42997 -0.39771,-1.06364 0,-2.12501z" fill="#FFA039"/>
      <path stroke="null" id="svg_47" d="m183.30631,191.12128c0,0 3.76068,9.89564 13.01801,8.56562c9.25712,-1.33043 9.49649,-10.56735 11.38533,-10.67043c1.88843,-0.10309 2.1545,13.19728 -6.59709,15.35198c-8.7519,2.15491 -15.90122,-2.1279 -17.80625,-6.33092c-1.90513,-4.20323 -1.5031,-9.7173 0,-6.91625z" fill="#FFA039"/>
      <path stroke="null" id="svg_48" d="m203.54426,187.00567c-0.50481,3.15938 -4.56217,5.1376 -9.06219,4.41847s-7.73908,-3.86325 -7.23427,-7.02279c0.50522,-3.15928 4.56248,-5.13729 9.0626,-4.41847c4.50001,0.71923 7.73898,3.86356 7.23385,7.02278z" fill="#770101"/>
     </g>
     <g stroke="null" id="svg_49">
      <path stroke="null" id="svg_50" d="m123.4386,232.22579c0,0 9.11033,-6.63255 16.95734,-0.30782c7.84711,6.32453 4.13519,26.0222 -3.96788,28.22845c-8.10297,2.20604 -25.4208,-18.41961 -12.98945,-27.92064z" fill="#FF8B00"/>
      <path stroke="null" id="svg_51" d="m130.39866,235.31713c0,0 4.11292,-3.21958 9.24269,1.67144s1.30239,18.34395 -3.14794,19.32079c-3.95458,0.86819 -15.36187,-15.06004 -6.09475,-20.99223z" fill="#FFA039"/>
      <path stroke="null" id="svg_52" d="m127.76203,233.29809c0,0 4.5664,-3.32287 10.01748,-3.02063c-7.12097,-3.30741 -14.34091,1.94833 -14.34091,1.94833c-11.98467,9.15981 3.68038,28.65832 12.0823,28.07032c-8.28811,-4.16406 -17.87625,-19.26554 -7.75887,-26.99802z" fill="#FF7300"/>
     </g>
     <g stroke="null" id="svg_53">
      <path stroke="null" id="svg_54" d="m260.85728,237.87366c0,0 10.83619,-3.09361 16.02874,5.54417c5.19254,8.63799 -5.06925,25.85685 -13.43664,25.14061c-8.36718,-0.71583 -17.53276,-26.03993 -2.5921,-30.68478z" fill="#FF8B00"/>
      <path stroke="null" id="svg_55" d="m266.3293,243.17022c0,0 4.96967,-1.60773 8.10359,4.74917c3.13433,6.35731 -5.0875,17.67265 -9.60215,17.05888c-4.0118,-0.54532 -9.24372,-19.42573 1.49856,-21.80805z" fill="#FFA039"/>
      <path stroke="null" id="svg_56" d="m264.54838,240.36772c0,0 5.43036,-1.54918 10.44498,0.60965c-5.54871,-5.55489 -14.13608,-3.10371 -14.13608,-3.10371c-14.404,4.47785 -6.40246,28.17546 1.68886,30.51345c-6.34989,-6.761 -10.15778,-24.23902 2.00224,-28.01939z" fill="#FF7300"/>
     </g>
     <path stroke="null" id="svg_57" d="m283.69743,201.60265c0,0 16.47757,-7.97844 20.81409,-3.06392c4.33611,4.91432 -9.88677,26.07519 -9.88677,26.07519s16.89848,-15.83483 14.74326,-29.19746c-1.44547,-8.96142 -25.67058,6.18619 -25.67058,6.18619z" fill="#F99300"/>
     <path stroke="null" id="svg_58" d="m284.59747,205.43394c0,0 9.83018,-5.3347 14.43132,-2.44087c4.60155,2.89404 -3.90376,18.26663 -7.21571,19.5216c-3.31143,1.25476 -12.54897,-13.07213 -7.21561,-17.08073z" fill="#FFDA3E"/>
     <path stroke="null" id="svg_59" d="m223.52212,81.89595c0,0 -16.02719,-21.25736 -28.79254,-17.88305s-8.1541,20.4136 -6.52318,22.49398c1.63092,2.0811 28.34267,-2.30541 55.448,7.31065c27.10564,9.61648 38.74621,29.86133 40.4896,29.69248c1.74349,-0.16875 -6.41092,-17.26443 -18.33292,-23.28146c0,0 4.7801,-18.10788 -10.00965,-24.85609c-14.79016,-6.74832 -32.27932,6.52349 -32.27932,6.52349z" fill="#E22C14"/>
     <path stroke="null" id="svg_60" d="m84.82218,189.07997c0,0 -5.67591,-6.12862 -10.28592,-4.79633s4.6633,19.63886 8.2608,22.86319c3.59739,3.22432 3.85109,-16.37315 2.02512,-18.06685z" fill="#FFDA3E"/>
    </g>
    <path stroke="null" id="svg_61" d="m117.20551,86.82892c0,0 4.72515,-15.62577 5.90652,-16.32377s7.41023,22.60624 9.12857,22.76726c1.71803,0.16102 14.98107,-5.40521 16.43108,-5.49469c1.4497,-0.08979 -19.49181,11.72356 -28.0297,18.05974c-8.53758,6.33608 -18.25684,26.41867 -18.90113,27.17037c-0.64439,0.7517 1.77205,-6.65853 0,-7.30292c-1.77174,-0.64429 -12.83338,-1.77205 -12.77967,-2.57736c0.0536,-0.80541 13.37036,-7.78588 14.28329,-9.77266c0.91272,-1.98667 -24.96897,-14.60533 -24.59292,-15.89431c0.37564,-1.28878 17.23639,0.80562 19.11585,0c1.87936,-0.80541 -2.95341,-21.37096 -1.61103,-22.23029c1.3427,-0.85902 19.76045,18.14942 21.04913,11.59862z" fill="#FFB243"/>
    <path stroke="null" id="svg_62" d="m277.03859,287.1265c0,0 12.38063,-5.3681 24.24201,-16.27687c11.86149,-10.90897 17.96542,-23.50629 19.56696,-23.80936c1.60165,-0.30307 12.85709,5.59901 12.38094,6.95542s-19.87014,9.05672 -20.43288,10.48797c-0.56264,1.43104 8.18173,7.53476 7.01304,8.70334c-1.169,1.169 -24.32881,5.88765 -25.36771,7.09953c-1.0389,1.21229 2.25119,9.30743 1.29878,10.47622c-0.95241,1.16858 -7.53249,-1.42857 -8.83127,-0.77912c-1.29878,0.64924 -5.41109,7.44569 -6.14722,7.44569c-0.73573,0 0.30318,-8.22503 -1.21188,-8.22503s-6.88295,1.29847 -7.61898,0.86592c-0.73583,-0.43296 3.11371,-1.99678 5.10822,-2.94372z" fill="#FFB243"/>
    <g stroke="null" id="svg_63">
     <polygon stroke="null" id="svg_64" points="174.27134704589844,327.84297943115234 188.79379272460938,305.5477523803711 191.8665771484375,328.59468841552734 220.5003662109375,321.47103118896484 199.68862915039062,339.62902069091797 213.23724365234375,354.8535690307617 194.93936157226562,354.8535690307617 194.66030883789062,373.1512985229492 180.6924591064453,360.3008346557617 164.3504638671875,373.1512985229492 165.88674926757812,352.8982162475586 145.3543701171875,346.61266326904297 163.65213012695312,338.3717575073242 156.94741821289062,323.4265365600586 " fill="#DD0000"/>
     <path stroke="null" id="svg_65" d="m180.3028,331.62254c0,0 6.62565,-17.62832 7.25499,-17.68832c0.62975,-0.06 2.36861,16.39933 3.05815,16.90878c0.68954,0.50986 19.42717,-5.66622 20.20681,-5.27656c0.77933,0.38967 -13.40128,13.46798 -13.67096,14.64893c-0.26988,1.18075 11.84231,10.8298 11.09257,11.62666c-0.74944,0.79685 -14.57028,0.52698 -15.05004,0.76696c-0.47976,0.23978 -0.32977,12.29177 -1.01931,12.77153c-0.68964,0.47976 -9.74369,-9.98326 -10.61312,-10.07336s-9.68379,6.68533 -10.55291,6.47566c-0.86974,-0.20988 0.56955,-9.89337 0,-11.39244c-0.56986,-1.49908 -11.12277,-4.917 -11.09288,-5.51654c0.03,-0.59934 9.26393,-3.8515 9.41381,-5.20852c0.14999,-1.35723 -3.26793,-8.31244 -2.81806,-8.64211c0.44956,-0.32988 13.13779,2.32521 13.79095,0.59934z" fill="#FF2C2C"/>
     <path stroke="null" id="svg_66" d="m181.04141,357.84535c-1.85978,-0.3173 -12.11188,8.80045 -12.70154,7.62115c-0.58945,-1.17992 0.227,-13.20037 -0.36266,-14.15309c-0.58976,-0.95272 -12.24785,-3.9919 -12.61092,-5.53428c-0.36266,-1.54217 10.93248,-5.62458 11.52223,-6.42947c0.58934,-0.8051 -4.98988,-10.2183 -3.62904,-10.76094c1.36063,-0.54306 11.20442,2.99217 13.06398,2.22109c1.85988,-0.77088 12.47031,-25.26205 12.47031,-25.26205l-14.52245,22.29482l-17.32391,-4.41641l6.70471,14.94561l-18.29776,8.2409l20.53236,6.28557l-1.53629,20.25289l16.34202,-12.85029l13.96784,12.85029c0,0 -11.75902,-14.98788 -13.6189,-15.3058z" fill="#C40000"/>
     <polygon stroke="null" id="svg_67" points="171.8930206298828,339.7685775756836 168.54058837890625,332.2259750366211 176.0830535888672,333.9023666381836 183.0668182373047,323.4265365600586 184.18447875976562,335.7179489135742 197.9871063232422,330.8291549682617 189.63168334960938,340.7462692260742 201.3647003173828,350.66332244873047 188.6539764404297,348.4286422729492 190.330078125,360.3008346557617 182.6478729248047,352.33971405029297 172.0325927734375,359.60253143310547 174.8262176513672,348.2888412475586 163.65213012695312,345.0760726928711 " fill="#FF9D00"/>
     <path stroke="null" id="svg_68" d="m176.08307,333.90239l-7.54249,-1.67638l3.35246,7.5426l-8.2409,5.30749l11.17411,3.21278l-2.79363,11.31369l10.61528,-7.26282l7.68217,7.96113l-0.70779,-5.0139c-2.70456,-1.74319 -6.78955,-4.91287 -7.11386,-5.05637c-0.42812,-0.18988 -6.81986,4.66732 -7.12366,3.79459c-0.30349,-0.87293 1.25229,-6.64059 0.69831,-7.28591c-0.55388,-0.64511 -7.07314,-2.08687 -6.69389,-3.11155c0.37956,-1.02447 3.60492,-2.23903 4.326,-3.2637c0.72078,-1.02447 -2.12501,-4.81906 -1.44186,-5.31223c0.68305,-0.49337 3.80975,-1.14941 3.80975,-1.14941z" fill="#FF8B00"/>
     <path stroke="null" id="svg_69" d="m177.78688,334.55348c0,0 3.18628,-5.75591 3.75161,-5.96146c0.56532,-0.20514 1.3362,8.50501 1.95255,8.78808c0.61666,0.28225 8.86478,-3.70017 9.30155,-3.3404c0.43688,0.35956 -5.26728,6.37216 -5.29295,6.88614c-0.02577,0.51378 8.55634,6.24371 8.17091,6.98902c-0.38544,0.74511 -8.40223,-1.49042 -8.68489,-1.13065s0.95076,4.80504 0.71954,5.03637c-0.23133,0.23133 -3.93149,-3.93149 -4.52218,-3.90572c-0.5913,0.02557 -5.44758,4.18117 -5.85869,3.91479c-0.41111,-0.26596 1.87575,-6.48452 1.3362,-6.79275c-0.53965,-0.30843 -5.78127,-0.84778 -5.60138,-1.69576s2.87754,-2.28686 2.92898,-2.82641c0.05144,-0.53976 -2.1581,-5.03616 -1.49031,-5.3446c0.668,-0.30823 2.91012,0.05958 3.28906,-0.61666z" fill="#FFB243"/>
    </g>
   </g>
   <g stroke="null" id="svg_70" display="none">
    <path stroke="null" id="svg_71" d="m-502.11066,258.72136c0,0 -6.7743,-35.89475 26.34409,-71.81341c0,0 -2.04548,18.62558 8.66814,34.06868c0,0 4.092,-50.41745 35.15805,-70.74003c31.0663,-20.32258 51.38888,-41.58613 57.41034,-65.48404c0,0 10.72579,14.48925 9.78492,38.38716c0,0 7.14231,-19.00524 16.64921,-28.60224c0,0 -0.26983,54.42693 39.61842,77.73777c0,0 -3.20304,-12.73607 2.06579,-23.87935c0,0 13.33113,30.06658 33.19787,56.03399c19.86653,25.96798 18.36235,54.57022 14.59837,62.47341l15.05313,-11.2906c0,0 15.26157,36.42193 -19.46599,76.82669c0,0 9.8692,-2.36912 16.07899,-9.30227c0,0 -7.21767,41.99187 -45.57128,55.91673c-38.3535,13.92465 -70.49299,4.89225 -102.40717,1.50526s-51.89442,13.0377 -82.36123,-3.9249c-30.46696,-16.96239 -33.28956,-62.36579 -58.69283,-66.4783c0,0 8.84431,-7.55435 26.34424,0c0,0 -16.74725,-33.52542 -7.90329,-68.30849c0,0 4.70433,12.26723 15.43022,16.87394z" fill="#FF7900"/>
    <path stroke="null" id="svg_72" d="m-431.94038,150.2366c-31.06605,20.32258 -35.1582,70.73962 -35.1582,70.73962c-10.71347,-15.44269 -8.66819,-34.06827 -8.66819,-34.06827c-33.11818,35.91867 -26.34399,71.813 -26.34399,71.813c-10.72579,-4.60629 -15.43012,-16.87353 -15.43012,-16.87353c-8.84395,34.78307 7.90329,68.30849 7.90329,68.30849c-17.49993,-7.55435 -26.34424,0 -26.34424,0c25.40338,4.11231 28.22587,49.51591 58.69283,66.4783c26.17049,14.57059 44.60361,4.50609 69.50949,3.52451l4.18911,-13.93537c0,0 -41.58582,18.172 -67.35561,4.4195c-25.76964,-13.7527 -37.07374,-54.15932 -37.07374,-54.15932c4.45388,-1.97966 9.89749,0 9.89749,0c-13.11419,-24.00131 -12.86668,-53.59647 -12.86668,-53.59647c8.10843,13.27603 20.78461,10.04759 20.78461,10.04759c-8.90766,-30.9293 10.04357,-59.87936 10.04357,-59.87936c4.85819,14.7415 19.76834,13.85641 19.76834,13.85641c0.3674,-21.03202 15.96369,-55.67309 52.77946,-83.13818c36.81598,-27.46541 33.08292,-59.02096 33.08292,-59.02096c-6.02146,23.89791 -26.34404,45.16146 -57.41034,65.48404z" fill="#FF4E00"/>
    <path stroke="null" id="svg_73" d="m-453.49226,232.46556c0,0 0.50904,-32.61435 26.12952,-59.43212c25.62068,-26.81813 49.06986,-38.24212 52.93888,-62.11787c0,0 6.83692,11.30946 6.55246,23.76163c0,0 7.66408,-12.56629 15.85617,-19.19234c0,0 8.96724,52.3215 49.36293,69.22884c0,0 -0.06943,-8.22533 0,-14.394c0,0 12.89188,27.9413 29.43847,51.63583c16.54654,23.69432 6.42901,54.83453 6.42901,54.83453s12.41068,-3.08454 18.12262,-8.6819c0,0 -7.11499,48.93451 -27.83327,68.22087c0,0 8.69515,1.91245 16.92878,1.46465c0,0 -22.07169,46.56271 -87.09287,40.01736c-65.02134,-6.54534 -77.70179,-15.11323 -77.70179,-15.11323s-36.19081,8.33924 -54.19488,-7.76835s-19.37491,-34.5002 -19.37491,-34.5002s7.48693,-2.35551 11.42378,0.22864c0,0 -14.73676,-30.74684 -15.76494,-41.1342c0,0 14.57512,-0.48347 19.11132,-4.00736c0,0 -1.39166,-30.80849 3.00021,-45.55473c0,0 16.04436,7.75887 26.6685,2.50396z" fill="#FF8F33"/>
    <g stroke="null" id="svg_74" display="inline">
     <path stroke="null" id="svg_75" d="m-384.59618,141.99828c0,0 9.33186,14.43204 5.66055,26.89617c0,0 14.5342,-10.41148 21.24355,-20.82286c0,0 5.00864,9.5436 8.8957,26.89586c3.88706,17.35231 30.78308,52.27372 42.92965,57.69646c0,0 11.60872,-10.84527 9.92548,-26.02839c0,0 14.5444,23.0055 2.65498,63.19914c0,0 9.81843,-4.85226 13.91079,-11.14236c0,0 3.47219,30.8023 -27.35892,77.63674c0,0 14.37349,3.05114 27.35892,-2.58828c0,0 7.99628,32.58672 -80.71716,40.8035c-88.71333,8.21657 -133.13025,-42.53864 -133.13025,-42.53864s21.85892,-0.38451 32.92103,-8.86849c0,0 -28.70419,-39.72006 -11.53244,-80.8221c0,0 9.14646,26.23765 25.41425,37.35816c16.26769,11.12092 11.1771,-34.0994 11.1771,-34.0994s-17.5072,-25.70697 -7.61816,-43.71011c9.88904,-18.00309 48.07694,-42.94712 58.26493,-59.86539z" fill="#FF7900"/>
     <g stroke="null" id="svg_76">
      <path stroke="null" id="svg_77" d="m-443.61188,332.43939c0,0 -3.02506,-5.85632 -19.2929,-30.99425c-16.26779,-25.13731 -8.92951,-59.13013 -8.92951,-59.13013c-17.17176,41.10204 11.53228,80.8221 11.53228,80.8221c-0.23091,0.17731 -0.46708,0.35029 -0.70712,0.52038l17.39726,8.7819z" fill="#FF4E00"/>
      <path stroke="null" id="svg_78" d="m-305.86673,232.6639c-7.20592,-3.21711 -19.60273,-16.8158 -29.30724,-30.96971l-13.6224,46.58683c0,0 6.27309,63.11852 6.25113,64.07207c-0.02165,0.95334 -24.92202,27.46108 -66.82838,36.17226c-41.90621,8.71097 -83.84927,-16.51974 -83.84927,-16.51974s44.41671,50.75521 133.13035,42.53844c19.63778,-1.81885 34.53587,-4.83226 45.83167,-8.42109c12.74633,-10.99618 22.18962,-22.6317 27.63828,-30.07122c-10.56296,2.30397 -20.11182,0.2773 -20.11182,0.2773c11.26333,-17.11001 17.94784,-32.07933 21.89655,-44.18925c-14.05031,-10.98959 -28.42442,-33.07143 -18.67573,-50.29236c12.56546,-22.19668 7.57234,-35.21191 7.57234,-35.21191c1.68324,15.18312 -9.92548,26.02839 -9.92548,26.02839z" fill="#FF4E00"/>
      <path stroke="null" id="svg_79" d="m-418.65652,290.09084l3.59079,-36.1704c0,0 -34.82487,-39.69347 -12.06869,-62.03426c16.01688,-15.72469 30.56015,-34.02802 37.76947,-43.49028c-14.1601,16.39531 -44.79128,37.62051 -53.49617,53.46777c-9.88904,18.00314 7.61816,43.71011 7.61816,43.71011s1.53773,13.65992 0.222,24.118c8.90854,11.04278 16.36444,20.39907 16.36444,20.39907z" fill="#FF4E00"/>
     </g>
     <path stroke="null" id="svg_80" d="m-293.17375,217.96013c0,0 2.8628,20.08692 0,36.37781c-2.8628,16.29109 -0.97695,18.19963 0.63625,18.40394c1.61314,0.20452 9.111,-6.13444 9.99718,-5.58912c0.88602,0.54512 -2.31753,14.85943 -4.36244,16.08636c-2.04497,1.22693 -12.20105,-10.49725 -15.13199,-23.0389c-2.93115,-12.54227 5.46067,-22.22101 6.64956,-28.49214c1.18899,-6.27093 1.75447,-17.67554 2.21145,-13.74796z" fill="#FF8F33"/>
     <path stroke="null" id="svg_81" d="m-420.65855,193.13929c0,0 27.36541,-30.29806 32.84382,-38.63977c5.47845,-8.34182 3.54204,17.30731 7.08397,20.4468c3.54198,3.13948 15.77798,-13.84589 20.76884,-13.68487c4.99091,0.16102 9.68591,27.38433 16.79719,38.24465c7.11113,10.86032 -70.89286,22.93519 -78.13779,21.32499c-7.24499,-1.61 -9.10827,-16.75436 0.64398,-27.69178z" fill="#FF8F33"/>
     <path stroke="null" id="svg_82" d="m-460.46077,272.99485c0,0 -6.72646,-10.86732 -8.98054,-17.87099c-2.25392,-7.00325 -2.66457,15.57671 3.69481,27.65179c6.35948,12.07488 5.28574,-9.7808 5.28574,-9.7808z" fill="#FF8F33"/>
     <path stroke="null" id="svg_83" d="m-470.94601,330.55848c0,0 -7.31127,1.8906 -13.52061,2.97939c-6.20933,1.08838 37.79385,8.77241 37.51804,8.93797c-0.27586,0.16556 -23.99744,-11.91736 -23.99744,-11.91736z" fill="#FF8F33"/>
    </g>
    <g stroke="null" id="svg_84" display="inline">
     <g stroke="null" id="svg_85">
      <path stroke="null" id="svg_86" d="m-277.9463,308.28882c0,0 5.35387,-0.83232 12.00911,-5.15842c6.65513,-4.32569 9.90759,-12.86121 4.85669,-15.26497c-9.04837,-4.3059 -18.28575,13.40448 -16.8658,20.4234z" fill="#CD2606"/>
      <path stroke="null" id="svg_87" d="m-272.55696,299.25354c0.15138,-1.68154 0.67671,-5.29883 1.07173,-7.91618c-4.39481,4.8603 -7.30349,12.7874 -6.46107,16.95146c0,0 5.35387,-0.83273 12.00895,-5.15842c1.06349,-0.69109 2.03925,-1.49001 2.90903,-2.35428c-4.32245,-1.52093 -9.78044,1.27414 -9.52865,-1.52258z" fill="#BC1A04"/>
      <path stroke="null" id="svg_88" d="m-277.94614,308.28882c0,0 9.74967,-18.91999 1.26059,-20.85739c-8.48908,-1.93719 -14.15489,11.62707 -1.26059,20.85739z" fill="#CD2606"/>
      <path stroke="null" id="svg_89" d="m-280.08636,287.48751c-6.32319,1.77226 -8.92287,12.88183 2.14022,20.8009c0,0 0.40776,-0.79129 0.9838,-2.06626c-8.32517,-6.78471 -7.45626,-15.43754 -3.12402,-18.73464z" fill="#BC1A04"/>
      <path stroke="null" id="svg_90" d="m-277.53596,302.68383c0,0 6.04182,-10.4657 1.00669,-13.26944c-2.71776,-1.51392 -7.25942,6.38288 -1.00669,13.26944z" fill="#E22C14"/>
      <path stroke="null" id="svg_91" d="m-277.9463,308.28882c0,0 2.89419,-5.10894 9.02709,-6.95232c6.13289,-1.84277 12.7688,7.182 8.18936,10.43787c-4.57954,3.25546 -14.16984,-0.88345 -17.21644,-3.48554z" fill="#CD2606"/>
      <path stroke="null" id="svg_92" d="m-259.56668,310.42579c-4.67309,2.07388 -12.44093,0.19545 -14.20303,-2.69343c-0.7849,-1.28651 -0.66078,-2.62065 -0.20282,-3.78326c-2.68292,2.06213 -3.97376,4.33971 -3.97376,4.33971c3.0466,2.6021 12.6369,6.741 17.21629,3.48554c0.53424,-0.37997 0.91561,-0.83829 1.16333,-1.34857z" fill="#BC1A04"/>
      <path stroke="null" id="svg_93" d="m-272.30213,305.74465c0,0 1.96183,-3.13917 4.89411,-3.34679c2.93244,-0.2072 6.71801,3.77645 6.16444,5.88518c-0.55362,2.10831 -12.19698,0.46265 -11.05855,-2.53839z" fill="#E22C14"/>
      <path stroke="null" id="svg_94" d="m-270.138,297.61488c0,0 -0.94339,-4.46383 3.7832,-7.77969c2.91955,-2.04811 6.12279,0.7849 5.98357,2.65673c-0.13937,1.87163 -2.67807,5.16976 -3.88758,5.79075s-5.40248,1.16095 -5.8792,-0.66779z" fill="#E22C14"/>
     </g>
     <g stroke="null" id="svg_95">
      <path stroke="null" id="svg_96" d="m-398.78885,209.31059c0,0 -10.00759,-29.10442 -1.12704,-35.38205s18.86994,6.43081 23.02359,19.44537c0,0 2.85244,-20.9764 18.46987,-19.139c15.61742,1.83751 10.10531,26.94797 10.10531,26.94797s10.02893,-12.78514 18.83288,-7.5026c8.80396,5.28233 1.53119,26.79432 1.53119,26.79432s13.0145,-3.13876 18.37343,10.56508c5.35887,13.70343 -10.56482,31.84739 -10.56482,31.84739l-67.03992,-25.25978c0,0 -16.40572,-15.92761 -16.40603,-16.54015c-0.00016,-0.61254 4.80154,-11.77654 4.80154,-11.77654z" fill="#CD2606"/>
      <path stroke="null" id="svg_97" d="m-311.79371,249.98895c-5.31568,-2.3683 -13.02476,-8.65077 -22.07736,-20.02734c-13.45427,-16.90755 -32.42833,-19.10823 -43.60574,-17.65946c-11.17725,1.44898 -15.38605,-2.89795 -19.45691,-21.11284c-1.81998,-8.14323 -1.92925,-14.06469 -1.44511,-18.15587c-0.51507,0.23844 -1.02802,0.53533 -1.53706,0.8951c-8.88055,6.27763 1.12704,35.38205 1.12704,35.38205s-4.80169,11.16401 -4.80154,11.77654c0.00031,0.61254 16.40603,16.54015 16.40603,16.54015l67.03992,25.25978c0,0 4.90164,-5.5852 8.35074,-12.89812z" fill="#B51702"/>
      <path stroke="null" id="svg_98" d="m-376.89231,198.8051c0,0 -10.92598,-21.93222 -16.32212,-21.09825c-5.39583,0.83427 3.34761,26.4278 7.04753,29.33503c3.69986,2.90682 25.67888,-1.63 39.20113,7.75207c13.5221,9.38186 27.13167,26.55454 32.506,27.0444c5.37423,0.48925 6.21047,-18.85195 -16.56138,-19.73272c0,0 6.15341,-21.93051 -1.49748,-24.93032c-7.65089,-2.9996 -19.11616,9.24991 -19.11616,9.24991s1.71788,-25.85505 -8.72118,-27.30867c-10.4389,-1.45361 -16.53633,19.68855 -16.53633,19.68855z" fill="#E22C14"/>
     </g>
     <path stroke="null" id="svg_99" d="m-470.29286,296.57598c0,0 -15.02984,-6.55235 -20.14909,-3.76759c-5.11915,2.78497 -5.07817,27.60272 16.87286,35.38365l6.47066,-15.88988l-3.19443,-15.72618z" fill="#FECE00"/>
     <path stroke="null" id="svg_100" d="m-488.67721,292.24451c-0.66738,0.10865 -1.26363,0.29132 -1.76473,0.56388c-5.11915,2.78456 -5.07817,27.60272 16.87286,35.38365l1.73478,-4.26054c-16.59911,-7.12304 -19.27976,-24.52704 -16.84291,-31.68698z" fill="#FCC000"/>
     <path stroke="null" id="svg_101" d="m-435.71457,370.64285c0,0 3.07361,25.32081 10.68445,24.44272c7.61094,-0.87829 17.41715,-18.45136 17.41715,-18.45136l-28.1016,-5.99136z" fill="#FF8B00"/>
     <path stroke="null" id="svg_102" d="m-422.6446,392.06454c-6.08032,0.67088 -9.39021,-13.96279 -10.6126,-20.8978l-2.45736,-0.52388c0,0 3.07361,25.3206 10.68445,24.44272c3.23205,-0.37317 6.8597,-3.75666 9.96439,-7.52631c-2.50179,2.40891 -5.1475,4.23683 -7.57888,4.50527z" fill="#FF7300"/>
     <path stroke="null" id="svg_103" d="m-398.78885,209.31059c0,0 1.75272,8.60397 10.09119,13.70281c0,0 26.02354,-26.49124 59.90446,18.25962c33.88091,44.75107 29.63083,57.09644 52.29774,66.40614c0,0 -24.54452,74.07244 -108.10072,77.31037c-83.55615,3.23814 -99.13971,-54.25478 -90.6396,-91.28265c8.50001,-37.02828 40.97612,-83.59738 76.44692,-84.3963z" fill="#FECE00"/>
     <path stroke="null" id="svg_104" d="m-400.47632,231.92271c0,0 3.32066,7.56136 9.48881,6.9115c6.16815,-0.64944 22.44522,-14.10258 36.14948,-5.5083c13.70446,8.59407 42.60895,63.10182 56.90275,76.40342c14.29375,13.3018 -34.16507,52.85404 -78.95702,48.30692c-44.79179,-4.54733 -63.3968,-33.81963 -63.46525,-60.82074c-0.08298,-32.72176 32.29834,-77.14811 39.88124,-65.29281z" fill="#FFDA3E"/>
     <path stroke="null" id="svg_105" d="m-456.24466,308.08677c0.15514,-61.87613 57.4558,-98.77617 57.4558,-98.77617c-35.47081,0.79912 -67.94692,47.36801 -76.44692,84.3963c-8.50011,37.02787 7.08335,94.52079 90.6396,91.28265c22.82613,-0.88468 41.24816,-7.05562 55.96899,-15.55877c-65.08767,8.59613 -127.75865,-5.06853 -127.61747,-61.344z" fill="#FCC000"/>
     <g stroke="null" id="svg_106">
      <path stroke="null" id="svg_107" d="m-395.54268,290.18362c0,0 3.14139,5.35923 3.514,9.28557c0.37255,3.92634 -3.84042,10.26015 -3.84042,10.26015s8.76978,-1.80545 9.62962,-2.23552c0.85984,-0.42966 3.9551,-4.09829 3.9551,-5.04379c0,-0.94592 -0.3726,-2.54725 -0.28673,-3.27978c0.08603,-0.73274 -0.48708,-1.61618 -1.60489,-3.16598c-1.11776,-1.55021 -8.28121,-6.66059 -11.36667,-5.82065z" fill="#660000"/>
      <path stroke="null" id="svg_108" d="m-395.54268,290.18362c0,0 3.14139,5.35923 3.51384,9.28557c0.37271,3.92634 -3.84026,10.26015 -3.84026,10.26015s4.9839,-1.02612 7.80557,-1.71535c1.61525,-1.30692 2.66653,-2.32665 1.38707,-1.88359c-2.97877,1.03107 -3.48616,-1.48258 -3.91407,-6.22021c-0.33895,-3.75316 -1.9908,-7.25354 -2.6623,-8.54583c-0.04716,-0.09092 -0.30802,-0.55666 -0.66449,-1.1892c-0.61022,-0.10906 -1.16363,-0.11711 -1.62536,0.00845z" fill="#540000"/>
      <path stroke="null" id="svg_109" d="m-402.86766,291.36457c0,0 13.24676,-3.26102 18.27148,9.98573c0,0 -3.32215,7.61476 -14.20205,7.75227c0,0 1.28734,5.7023 9.46814,4.70567c8.1806,-0.99663 12.0424,-13.14759 12.0424,-13.14759s-2.24233,-16.25274 -12.45779,-19.15977c-10.21546,-2.90682 -13.78667,7.02016 -13.12218,9.86368z" fill="#FF8B00"/>
      <path stroke="null" id="svg_110" d="m-398.29997,287.10856c-0.25303,-1.99822 0.82134,-4.07396 1.9493,-5.64252c-5.16713,1.76628 -7.01057,7.78629 -6.51699,9.89852c0,0 13.24676,-3.26102 18.27148,9.98573c-2.4353,-13.14532 -13.20191,-10.27788 -13.70379,-14.24174z" fill="#FF7300"/>
      <path stroke="null" id="svg_111" d="m-392.84316,288.65279c0,0 6.33211,1.57021 8.54573,9.16352c2.21356,7.59331 -5.40542,10.45045 -8.54573,11.58295c-3.14026,1.1325 0.16556,3.97025 4.47146,2.57736c4.306,-1.39331 9.19651,-9.34681 9.42824,-12.25528c0.23163,-2.90888 -4.6132,-15.8837 -11.17282,-16.83435c-6.55947,-0.95045 -6.79383,4.45311 -2.72688,5.76581z" fill="#FFA039"/>
      <path stroke="null" id="svg_112" d="m-389.07671,301.69069c0,0 -0.5829,-3.52946 -1.03957,-5.49325c-0.45636,-1.96379 3.98031,3.4439 4.01051,4.72484c0.02989,1.28074 -2.49963,3.45256 -2.97094,0.7684z" fill="#770101"/>
     </g>
     <path stroke="null" id="svg_113" d="m-338.83136,271.38651c-0.62063,-0.70511 -1.6953,-0.77521 -2.40391,-0.15463l-6.70466,5.88745l-5.88827,-6.70574c-0.62063,-0.70676 -1.6969,-0.77665 -2.40386,-0.15442c-0.38271,0.33585 -0.57903,0.80696 -0.57903,1.2793c0,0.39935 0.13973,0.80015 0.4242,1.12467l5.88714,6.70409l-6.70605,5.88889c-0.70696,0.62037 -0.77686,1.69659 -0.15463,2.40376c0.33601,0.38245 0.80685,0.57893 1.2793,0.57893c0.39925,0 0.80015,-0.13978 1.12457,-0.4241l6.70471,-5.88765l5.8891,6.70636c0.62058,0.70696 1.6969,0.77706 2.40386,0.15484c0.70531,-0.62078 0.77526,-1.69535 0.15463,-2.40417l-5.88796,-6.70492l6.70616,-5.88868c0.70696,-0.62058 0.77696,-1.6968 0.15473,-2.40396z"/>
     <ellipse stroke="null" id="svg_114" ry="5.05286" rx="6.31649" cy="293.70689" cx="-329.71258" fill="#FF9999"/>
     <path stroke="null" id="svg_115" d="m-421.40386,271.38651c-0.62047,-0.70511 -1.69515,-0.77521 -2.40376,-0.15463l-6.70466,5.88745l-5.88843,-6.70574c-0.62047,-0.70676 -1.69674,-0.77665 -2.40386,-0.15442c-0.38255,0.33585 -0.57898,0.80696 -0.57898,1.2793c0,0.39935 0.13984,0.80015 0.4243,1.12467l5.88714,6.70409l-6.706,5.88889c-0.70712,0.62037 -0.77706,1.69659 -0.15483,2.40376c0.33616,0.38245 0.80701,0.57893 1.27945,0.57893c0.39925,0 0.80015,-0.13978 1.12462,-0.4241l6.70471,-5.88765l5.88904,6.70636c0.62042,0.70696 1.69674,0.77706 2.40391,0.15484c0.70531,-0.62078 0.7751,-1.69535 0.15463,-2.40417l-5.88796,-6.70492l6.706,-5.88868c0.70712,-0.62058 0.77691,-1.6968 0.15468,-2.40396z"/>
     <path stroke="null" id="svg_116" d="m-443.61188,293.70689c0,2.79033 -2.82796,5.05286 -6.31628,5.05286c-3.48848,0 -6.31649,-2.26253 -6.31649,-5.05286c0,-2.79074 2.82801,-5.05348 6.31649,-5.05348c3.48833,0 6.31628,2.26274 6.31628,5.05348z" fill="#FF9999"/>
     <g stroke="null" id="svg_117">
      <path stroke="null" id="svg_118" d="m-342.99088,359.64296c0,0 11.26915,0.00392 13.88754,9.73627c2.61838,9.73214 -11.9805,23.46753 -19.829,20.47968c-7.84835,-2.98867 -9.70039,-29.85618 5.94146,-30.21595z" fill="#FF8B00"/>
      <path stroke="null" id="svg_119" d="m-339.18562,366.24005c0,0 5.22022,-0.18019 6.48643,6.79337c1.26631,6.97336 -9.74884,15.5932 -13.92104,13.7626c-3.70733,-1.62711 -3.54863,-21.21819 7.43461,-20.55597z" fill="#FFA039"/>
      <path stroke="null" id="svg_120" d="m-340.12756,363.05573c0,0 5.64726,0.00289 9.87523,3.45689c-3.8081,-6.86635 -12.73839,-6.86965 -12.73839,-6.86965c-15.0803,0.34678 -13.90006,25.3307 -6.76306,29.80278c-4.24699,-8.24606 -3.10449,-26.09766 9.62622,-26.39001z" fill="#FF7300"/>
     </g>
     <path stroke="null" id="svg_121" d="m-322.42224,311.04513c0,0 2.77497,4.31662 6.06393,3.80305c3.28891,-0.51399 15.68376,-5.20007 17.63667,1.38692c1.95271,6.58658 -14.14221,20.09393 -14.14221,20.09393s14.08088,-6.16681 16.54757,-17.26711c2.4668,-11.1003 -7.7599,-9.60988 -15.31415,-8.01679c-7.5543,1.59309 -10.79182,0 -10.79182,0z" fill="#F99300"/>
     <path stroke="null" id="svg_122" d="m-426.06134,382.45795c0,0 8.71772,1.06797 9.19718,2.35407c0.47961,1.28569 -3.53075,4.96895 -5.97167,4.88195c-2.44097,-0.08721 -6.14609,-7.45394 -3.22551,-7.23602z" fill="#FFA039"/>
     <path stroke="null" id="svg_123" d="m-479.60456,296.42671c0,0 -5.30408,-1.48093 -7.5629,-0.67583c-2.25877,0.8049 2.35804,16.62942 5.88533,17.48627c2.80188,0.68078 3.58966,-16.36098 1.67757,-16.81044z" fill="#FFDA3E"/>
    </g>
    <path stroke="null" id="svg_124" d="m-305.18316,360.60413c-0.28802,0.11607 14.70568,-14.52997 18.79706,-22.62738l5.13626,-0.88633c0,0 -2.60715,14.91077 -23.93332,23.51371z" fill="#FF8F33"/>
   </g>
  </g>
 </g>
</svg>