<svg width="400" height="400" xmlns="http://www.w3.org/2000/svg">

 <g>
  <title>background</title>
  <rect fill="none" id="canvas_background" height="402" width="402" y="-1" x="-1"/>
 </g>
 <g>
  <title>Layer 1</title>
  <g stroke="null" id="svg_330">
   <g stroke="null" id="svg_331" display="none">
    <g stroke="null" id="svg_332" display="inline">
     <path stroke="null" id="svg_333" d="m805.79699,880.0559c0,0 8.1519,1.04851 19.67569,-2.44316c11.52301,-3.49219 19.86677,-14.55472 13.52281,-20.19035c-11.36433,-10.09466 -32.30347,11.80769 -33.19849,22.63351z" fill="#CD2606"/>
     <path stroke="null" id="svg_334" d="m817.46467,869.16811c0.9308,-2.38612 3.2241,-7.435 4.90499,-11.08146c-8.45629,5.22571 -16.04141,15.54645 -16.57267,21.96924c0,0 8.1519,1.04851 19.67491,-2.44368c1.8419,-0.5577 3.60083,-1.3096 5.23297,-2.20151c-5.65481,-4.04134 -14.78781,-2.27463 -13.24019,-6.24259z" fill="#BC1A04"/>
     <path stroke="null" id="svg_335" d="m805.79699,880.0559c0,0 22.19585,-23.44815 10.64588,-29.85642c-11.55075,-6.40749 -25.53429,10.96245 -10.64588,29.85642z" fill="#CD2606"/>
     <path stroke="null" id="svg_336" d="m813.71969,849.12633c-10.82685,-2.62491 -21.65448,13.50414 -7.9227,30.92957c0,0 1.05759,-1.11774 2.59147,-2.93164c-8.79905,-13.72867 -2.87771,-26.00721 5.33123,-27.99793z" fill="#BC1A04"/>
     <path stroke="null" id="svg_337" d="m808.76155,872.06293c0,0 13.22308,-12.69649 7.07124,-18.90849c-3.32081,-3.35296 -13.27286,6.23404 -7.07124,18.90849z" fill="#E22C14"/>
     <path stroke="null" id="svg_338" d="m805.79699,880.0559c0,0 6.3743,-6.22133 16.08782,-6.31623c9.7143,-0.09567 15.57135,15.85655 7.52393,18.66581c-8.04715,2.80952 -20.27228,-7.27114 -23.61176,-12.34958z" fill="#CD2606"/>
     <path stroke="null" id="svg_339" d="m831.67274,890.93175c-7.68417,1.04851 -18.20844,-4.96903 -19.55564,-9.9225c-0.60074,-2.20566 0.14416,-4.09734 1.30234,-5.59803c-4.78001,1.87171 -7.62246,4.64467 -7.62246,4.64467c3.33948,5.07844 15.56461,15.1591 23.61176,12.34958c0.93858,-0.32773 1.68789,-0.83409 2.264,-1.47373z" fill="#BC1A04"/>
     <path stroke="null" id="svg_340" d="m815.09489,878.73307c0,0 4.18394,-3.7455 8.54367,-2.809c4.36051,0.93599 8.19364,8.33936 6.49642,11.17765c-1.69696,2.8383 -17.9668,-4.47666 -15.04009,-8.36866z" fill="#E22C14"/>
     <path stroke="null" id="svg_341" d="m821.68128,867.80173c0,0 0.51103,-6.90167 8.7975,-9.73686c5.11941,-1.75089 8.59008,3.72943 7.59601,6.3979c-0.99329,2.66847 -6.08547,6.40179 -8.10938,6.79537c-2.02443,0.39384 -8.36165,-0.59037 -8.28413,-3.45641z" fill="#E22C14"/>
     <path stroke="null" id="svg_342" d="m558.07836,939.6124c-1.73585,0.6093 -24.43081,17.05959 -22.14607,24.37066c2.28474,7.31185 36.40366,4.87439 59.09862,-7.00616c22.69522,-11.88055 100.07177,12.64256 99.91931,14.01284c-0.15168,1.37131 25.58926,7.46352 41.1256,7.92037c15.53582,0.45684 -4.63819,-25.76712 -4.63819,-25.76712l-173.35927,-13.53058z" fill="#FF8B00"/>
     <path stroke="null" id="svg_343" d="m741.45295,971.02163c-19.08169,6.64577 -41.28661,-4.68279 -41.28661,-4.68279s-1.26682,2.43901 -2.79889,5.85497c6.74351,2.25752 26.09147,6.34552 38.70837,6.71629c5.79923,0.17034 6.62217,-3.37629 5.37713,-7.88848z" fill="#FF7300"/>
     <path stroke="null" id="svg_344" d="m582.83456,957.84184c-9.78093,4.13442 -35.29344,9.27664 -39.93267,1.42213c-0.97332,-1.64666 -1.34253,-3.79295 -1.31842,-6.15599c-3.80151,4.03148 -6.51613,8.10782 -5.65118,10.87508c2.02676,6.48476 29.09882,5.30038 51.02891,-3.34103c0.17968,-2.65862 -0.78431,-4.21324 -4.12664,-2.80018z" fill="#FF7300"/>
     <path stroke="null" id="svg_345" d="m564.34351,762.38473c0,0 -32.64468,-22.38655 -37.74464,-56.95687c0,0 29.03296,-3.9384 52.8817,11.81521c0,0 -12.82509,-53.1682 6.49642,-74.82929c0,0 33.32528,15.31583 46.8906,46.82306c0,0 15.88818,-35.44551 37.15401,-48.57344c0,0 20.82765,20.78578 18.85871,56.44999c0,0 31.88915,-9.18952 53.90584,-1.31272c0,0 1.38272,17.44358 -12.80565,39.13488c0,0 29.35265,4.62497 39.41775,19.06587c0,0 -10.87897,23.63004 -67.79733,37.19575c-56.91837,13.56546 -125.4829,-0.95582 -137.25741,-28.81245z" fill="#CD2606"/>
     <path stroke="null" id="svg_346" d="m688.88031,697.11339c1.96894,-35.66421 -18.85871,-56.44999 -18.85871,-56.44999c-21.26583,13.12793 -37.15401,48.57344 -37.15401,48.57344c-13.5661,-31.50723 -46.8906,-46.82306 -46.8906,-46.82306c-19.32152,21.66109 -6.49642,74.82929 -6.49642,74.82929c-23.84874,-15.75362 -52.8817,-11.81521 -52.8817,-11.81521c5.09996,34.57032 37.74464,56.95687 37.74464,56.95687c4.38514,10.37584 16.65149,18.90071 33.25787,24.81402c9.0114,-7.56775 25.40413,-23.02942 6.7824,-21.39598c-24.55552,2.15394 -68.21088,-43.94199 -60.59931,-49.82937c7.61079,-5.8879 47.53179,13.06752 45.09071,6.31856c-2.44134,-6.74948 -8.9038,-57.58445 3.73332,-59.16396c12.63686,-1.57964 40.2088,43.94212 45.9528,35.90041c5.74348,-8.04184 23.26355,-41.78792 29.00755,-42.21897c5.744,-0.43066 6.46168,8.61626 12.34984,24.69955c5.88712,16.08329 -0.43144,28.43313 14.25344,21.82729c14.6841,-6.60558 48.61401,-7.5356 48.61401,-7.5356c-22.01669,-7.87681 -53.90584,1.31272 -53.90584,1.31272z" fill="#BC1A04"/>
     <path stroke="null" id="svg_347" d="m520.78279,850.45641c0,0 -18.53746,13.22179 -41.51892,25.44225c-22.98224,12.22046 42.49769,33.74323 59.09551,37.20872l-17.57659,-62.65096z" fill="#FECE00"/>
     <path stroke="null" id="svg_348" d="m485.0382,872.75909c-1.88701,1.04748 -3.81473,2.09728 -5.77434,3.13957c-22.98224,12.22046 42.49769,33.74323 59.09551,37.20872l-3.58527,-12.78205c-24.92732,-4.28739 -61.71575,-14.35638 -49.7359,-27.56624z" fill="#FCC000"/>
     <path stroke="null" id="svg_349" d="m587.4126,776.33404c0,0 42.20419,-45.19986 91.19675,-40.82108c48.99178,4.37891 87.70118,75.13031 97.81425,105.92583c10.11281,30.79578 26.32923,36.02694 31.38563,37.42158c0,0 -11.63113,60.33018 -87.94101,90.66912c-76.31067,30.33997 -169.5391,-0.17423 -203.74228,-58.93476c-34.20422,-58.76078 31.4253,-139.84032 48.21758,-148.20975c0,0 16.96651,10.63616 23.06909,13.94906z" fill="#FECE00"/>
     <path stroke="null" id="svg_350" d="m720.29239,903.53361c0,0 40.19661,11.61116 52.1648,1.6534c0,0 4.11108,8.58748 -10.41512,12.60678c-14.52517,4.01982 -34.4425,-6.68621 -41.74968,-14.26019z" fill="#FCC000"/>
     <path stroke="null" id="svg_351" d="m715.5256,926.73389c-0.61941,-0.87635 -16.88847,-18.6754 -12.84454,-33.91643c4.04367,-15.24103 37.59115,-33.02711 45.61082,-31.11054c8.01941,1.91631 15.78188,23.38256 28.00001,25.09974c12.21891,1.71719 -11.17921,-25.54336 -16.54545,-43.89752c-5.36676,-18.35442 -49.44551,-99.50045 -102.64534,-92.52204s-96.25237,83.82747 -92.75759,114.09458c3.49478,30.2679 28.8201,67.18933 78.40951,78.13701c49.58889,10.94845 82.14075,-2.63606 72.77258,-15.88481z" fill="#FFDA3E"/>
     <path stroke="null" id="svg_352" d="m781.06205,927.69633c-97.58972,71.29808 -221.08682,16.13735 -234.84712,-43.46194c-14.15622,-61.31128 41.19768,-107.90061 41.19768,-107.90061c-6.10258,-3.31264 -23.06909,-13.94906 -23.06909,-13.94906c-16.79228,8.36969 -82.4218,89.44922 -48.21758,148.21001c34.20319,58.76052 127.43162,89.27473 203.74228,58.93476c28.49704,-11.32933 47.9736,-26.84182 61.19383,-41.83316z" fill="#FCC000"/>
     <path stroke="null" id="svg_353" d="m526.59887,842.90915c0,5.14481 -4.68953,9.31605 -10.47294,9.31605c-5.78445,0 -10.4732,-4.17123 -10.4732,-9.31605c0,-5.14508 4.68875,-9.31605 10.4732,-9.31605c5.78341,0 10.47294,4.17097 10.47294,9.31605z" fill="#FF9999"/>
     <path stroke="null" id="svg_354" d="m723.62694,849.00395c0,5.14534 -4.68875,9.31657 -10.47294,9.31657s-10.47294,-4.17123 -10.47294,-9.31657c0,-5.14456 4.68875,-9.31553 10.47294,-9.31553s10.47294,4.17097 10.47294,9.31553z" fill="#FF9999"/>
     <g stroke="null" id="svg_355">
      <path stroke="null" id="svg_356" d="m698.4266,805.87752l-49.23809,24.10542c0,0 12.46133,16.59471 32.25525,10.76437c19.79418,-5.83008 16.98284,-34.86979 16.98284,-34.86979z" fill="#720000"/>
      <path stroke="null" id="svg_357" d="m681.44375,840.7473c13.46473,-3.96615 16.46948,-18.67164 17.01448,-27.67073c-2.10117,5.69889 -7.08965,14.86313 -18.2183,19.22947c-12.15253,4.76757 -20.81287,-1.56382 -24.68101,-5.44156l-6.37041,3.11844c0,0 12.46133,16.59471 32.25525,10.76437z" fill="#590000"/>
      <path stroke="null" id="svg_358" d="m691.51119,813.62209l-27.58672,13.01787c0,0 18.0744,9.45334 27.58672,-13.01787z" fill="#8A0000"/>
      <path stroke="null" id="svg_359" d="m674.35877,838.8577c18.10084,-3.98352 20.51185,-23.24384 22.13311,-32.03304l1.93472,-0.94714c0,0 2.81133,29.0397 -16.98284,34.86979c-9.4571,2.78566 -17.23979,0.45244 -22.78959,-2.74418c3.49582,1.0664 8.74979,2.3856 15.70461,0.85457z"/>
     </g>
     <g stroke="null" id="svg_360">
      <path stroke="null" id="svg_361" d="m531.94333,803.76571l43.10077,32.7528c0,0 -15.23999,13.69833 -33.3035,4.27131c-18.06377,-9.42676 -9.79727,-37.02411 -9.79727,-37.02411z" fill="#720000"/>
      <path stroke="null" id="svg_362" d="m569.28998,840.34491c-4.62445,-0.16853 -10.49239,-1.30934 -16.96962,-4.74812c-10.78822,-5.72793 -11.11646,-17.61496 -10.34823,-24.20978l-10.0288,-7.62129c0,0 -8.2665,27.59735 9.79727,37.02411c11.30211,5.89853 21.49892,2.7434 27.54938,-0.44492z" fill="#590000"/>
      <path stroke="null" id="svg_363" d="m548.96507,840.31172c-16.77542,-7.3147 -15.43523,-26.43424 -15.3284,-35.25909l-1.69333,-1.28692c0,0 -8.2665,27.59735 9.79727,37.02411c8.63026,4.50415 16.61493,3.72917 22.60291,1.69178c-3.59097,0.36584 -8.93232,0.64067 -15.37844,-2.16988z"/>
      <path stroke="null" id="svg_364" d="m546.21492,818.413l23.72714,18.09799c0,0 -21.73123,1.93213 -23.72714,-18.09799z" fill="#8A0000"/>
     </g>
     <g stroke="null" id="svg_365">
      <path stroke="null" id="svg_366" d="m592.98937,852.17931c0,0 11.56708,-10.63006 16.02975,-10.73974c4.46266,-0.10941 14.43468,11.61635 14.43468,11.61635s-7.56101,12.87591 -15.23221,13.60059c-5.15104,0.48614 -15.23221,-14.4772 -15.23221,-14.4772z" fill="#FF8B00"/>
      <path stroke="null" id="svg_367" d="m601.70572,848.86783c-0.33291,-1.35731 1.35861,-3.86814 2.74003,-5.59233c-5.10618,3.06827 -11.45637,8.9038 -11.45637,8.9038s1.57873,2.3436 3.80617,5.14507c0.01685,0.00026 14.30841,0.47733 23.54901,0.25357c1.91761,-2.49268 3.11002,-4.52204 3.11002,-4.52204s-0.7742,-0.91006 -1.98657,-2.21992c-8.71479,-0.18123 -19.44337,-0.66893 -19.76228,-1.96817z" fill="#FF7300"/>
      <path stroke="null" id="svg_368" d="m608.22159,866.65651c7.6712,-0.72468 15.23299,-13.60059 15.23299,-13.60059c-15.34215,-1.64407 -30.4652,-0.87661 -30.4652,-0.87661s10.08117,14.96334 15.23221,14.4772z" fill="#FF8B00"/>
      <path stroke="null" id="svg_369" d="m609.25895,863.74613c-3.52045,0.09775 -8.84391,-7.09742 -11.886,-11.70321c-2.74547,0.05315 -4.38358,0.13638 -4.38358,0.13638s10.08117,14.96334 15.23221,14.4772c5.3206,-0.50248 10.58754,-6.85033 13.31668,-10.69358c-3.16109,3.49919 -7.83584,7.66031 -12.27932,7.78321z" fill="#FF7300"/>
      <path stroke="null" id="svg_370" d="m605.11468,847.06119c0,0 1.68763,-3.48286 3.41415,-3.78569c1.72678,-0.30309 7.81977,3.50775 7.89962,4.97629c0.07908,1.4688 -11.82947,0.75449 -11.31377,-1.1906z" fill="#FFA039"/>
      <path stroke="null" id="svg_371" d="m604.96119,854.05309c0,0 12.69286,-0.05782 13.63196,0.82087c0.9391,0.87791 -5.75567,7.45237 -8.9974,6.78577c-3.24095,-0.6666 -8.33054,-7.62894 -4.63456,-7.60664z" fill="#FFA039"/>
     </g>
     <path stroke="null" id="svg_372" d="m720.29239,903.53361c0,0 21.38509,11.36381 37.40162,12.34777c16.01652,0.98447 14.67399,-10.82685 6.80003,-16.28461c-7.87396,-5.45802 -17.17938,-21.02755 -17.7166,-27.38034c0,0 9.38761,15.65872 23.395,26.66447s2.73303,26.93283 -21.24742,21.11674c-23.98019,-5.81634 -28.63264,-16.46403 -28.63264,-16.46403z" fill="#F99300"/>
     <path stroke="null" id="svg_373" d="m725.11752,898.63614c0,0 12.55104,-17.53718 16.7342,-17.71323c4.18394,-0.17605 11.45482,13.92261 17.29242,19.12135c10.9329,9.73634 -38.39879,4.38021 -34.02662,-1.40813z" fill="#FFDA3E"/>
     <path stroke="null" id="svg_374" d="m489.65099,874.81955c0,0 6.85345,-4.27391 9.06455,-4.49507c2.21059,-0.22116 4.70742,14.00713 3.24173,15.10672c-2.81729,2.11414 -19.71173,-6.07951 -12.30628,-10.61165z" fill="#FFDA3E"/>
     <path stroke="null" id="svg_375" d="m597.21894,718.50237c0,0 -5.53269,-34.26256 0,-39.065c5.53347,-4.80218 32.88477,34.24195 42.17619,31.11015c9.29168,-3.13193 20.04412,-38.83541 26.51669,-40.08824c6.47257,-1.25256 11.4836,28.39579 13.57155,37.79157c2.08821,9.39565 37.29091,-5.22001 46.72804,-3.96718s-2.23366,25.78605 0,32.36284c2.23366,6.57693 30.73407,11.90103 32.19561,16.49463c1.46102,4.59334 -11.91763,8.62339 -15.62087,10.64834c-3.70298,2.02495 -33.54981,-41.02772 -80.42408,-35.28592c-46.87349,5.7418 -58.04414,21.61015 -65.5603,24.21989c-7.51642,2.60987 -39.35734,-21.29681 -38.83567,-27.14284c0.52192,-5.84616 27.03861,7.72539 33.61567,6.05488c6.57706,-1.67039 6.25893,-8.87347 5.63718,-13.13311z" fill="#E22C14"/>
     <g stroke="null" id="svg_376">
      <path stroke="null" id="svg_377" d="m700.92187,739.1016c0,0 5.35457,-7.0575 12.45511,-2.80122c2.01613,8.56117 7.5496,21.97184 25.66419,19.43145c1.52921,2.96508 2.07576,11.27008 -0.55511,12.75483c-9.43169,2.2828 -18.34301,5.06211 -14.45957,23.90202c-7.54701,2.82274 -15.02998,1.90075 -15.89103,0.54448c-1.02051,-6.76983 0.48225,-22.5954 -19.47656,-17.76949c-2.89404,-3.0089 -3.4043,-11.8847 -1.69955,-12.67938c8.50426,-1.59247 11.80329,-3.16667 13.64829,-5.45193c1.84501,-2.285 0.43351,-14.36131 0.31424,-17.93076z" fill="#FFFFFF"/>
      <g stroke="null" id="svg_378">
       <path stroke="null" id="svg_379" d="m685.98627,765.26062c-1.47736,0.03098 -2.70684,-1.13511 -2.74859,-2.61519c-0.04174,-1.48812 1.12655,-2.72797 2.61454,-2.76959c5.95765,-0.16983 10.03113,-1.85512 12.10586,-5.01064c3.90599,-5.94053 0.15271,-15.56862 0.11304,-15.66507c-0.54966,-1.38026 0.12316,-2.94654 1.49965,-3.49867c1.39905,-0.53968 2.94927,0.11706 3.49893,1.49447c0.19964,0.49794 4.84665,12.30421 -0.59867,20.60766c-3.09368,4.72401 -8.63415,7.23134 -16.46326,7.45665c-0.00519,0 -0.01608,0 -0.02152,0.00039z"/>
      </g>
      <g stroke="null" id="svg_380">
       <path stroke="null" id="svg_381" d="m735.23292,758.11367c-4.55185,0.60995 -8.67771,-0.20379 -12.3151,-2.43344c-9.43636,-5.78341 -11.81936,-19.05317 -11.91529,-19.61605c-0.24942,-1.46335 0.73168,-2.85256 2.194,-3.10665c1.6267,-0.3005 2.85774,0.72857 3.1165,2.18816c0.02074,0.11395 2.08795,11.46195 9.43532,15.95443c3.42763,2.08847 7.40026,2.39156 12.22072,0.89671c1.40424,-0.40875 2.92878,0.353 3.36929,1.77721c0.43973,1.41941 -0.35521,2.92956 -1.7776,3.36968c-1.48254,0.45853 -2.92593,0.78198 -4.32784,0.96995z"/>
      </g>
      <g stroke="null" id="svg_382">
       <path stroke="null" id="svg_383" d="m708.542,795.07335c-0.0783,0.0105 -0.15116,0.01802 -0.23076,0.02035c-1.48669,0.07467 -2.74936,-1.0725 -2.82067,-2.55672c-0.3158,-6.39271 -2.11206,-10.8087 -5.34135,-13.12508c-4.43777,-3.17367 -10.39334,-1.51832 -10.45453,-1.49965c-1.38583,0.39021 -2.91556,-0.41069 -3.32988,-1.83827c-0.41354,-1.42524 0.39488,-2.91375 1.82012,-3.333c0.33602,-0.10319 8.46407,-2.41827 15.05124,2.2583c4.6623,3.3129 7.2351,9.12445 7.63231,17.27375c0.0713,1.40735 -0.95543,2.61661 -2.32648,2.80031z"/>
      </g>
      <g stroke="null" id="svg_384">
       <path stroke="null" id="svg_385" d="m724.53518,795.11445c-1.27745,0.17112 -2.53235,-0.60282 -2.92645,-1.87923c-2.76648,-8.99688 -2.23366,-16.03364 1.58081,-20.91529c5.46839,-6.99242 15.4723,-6.52067 15.89363,-6.5055c1.48021,0.08025 2.61065,1.34577 2.53313,2.8287c-0.07649,1.48306 -1.36483,2.60326 -2.82041,2.55154c-0.08063,-0.00519 -7.6642,-0.31839 -11.38041,4.46499c-2.65266,3.41246 -2.87097,8.79413 -0.65908,15.99397c0.44077,1.42148 -0.36065,2.92736 -1.78304,3.36476c-0.14234,0.04576 -0.29246,0.07649 -0.43818,0.09606z"/>
      </g>
     </g>
     <path stroke="null" id="svg_386" d="m544.78009,954.80676c0,0 1.79471,-2.93889 3.64127,-3.53678c1.84656,-0.59841 17.61703,7.48219 15.50186,8.5307c-6.08625,3.01694 -22.00399,0.70212 -19.14313,-4.99392z" fill="#FFA039"/>
     <path stroke="null" id="svg_387" d="m724.36951,969.22692c0,0 9.43869,-4.48133 10.96634,-4.60604c1.52662,-0.12549 4.10564,4.1059 2.60365,5.30738c-1.50276,1.20174 -17.82601,1.7273 -13.56999,-0.70134z" fill="#FFA039"/>
    </g>
    <g stroke="null" id="svg_388" display="inline">
     <g stroke="null" id="svg_389">
      <g stroke="null" id="svg_390">
       <path stroke="null" id="svg_391" d="m432.25944,818.77987c-0.76098,0 -1.37727,-0.61604 -1.37727,-1.37727l0,-104.27372c0,-0.76124 0.6163,-1.3774 1.37727,-1.3774s1.37727,0.61617 1.37727,1.3774l0,104.27372c0,0.76124 -0.6163,1.37727 -1.37727,1.37727z" fill="#8A0000"/>
      </g>
      <g stroke="null" id="svg_392">
       <path stroke="null" id="svg_393" d="m451.99839,815.55746c-0.76098,0 -1.3765,-0.61591 -1.3765,-1.37715l0,-77.57736c0,-0.76123 0.61552,-1.37727 1.3765,-1.37727c0.76201,0 1.37753,0.61604 1.37753,1.37727l0,77.57736c0,0.76124 -0.61552,1.37715 -1.37753,1.37715z" fill="#8A0000"/>
      </g>
      <g stroke="null" id="svg_394">
       <path stroke="null" id="svg_395" d="m469.33593,802.99592c-0.76124,0 -1.37753,-0.61591 -1.37753,-1.37727l0,-49.01395c0,-0.76123 0.6163,-1.37727 1.37753,-1.37727c0.76098,0 1.37727,0.61604 1.37727,1.37727l0,49.01395c0,0.76136 -0.6163,1.37727 -1.37727,1.37727z" fill="#8A0000"/>
      </g>
      <g stroke="null" id="svg_396">
       <path stroke="null" id="svg_397" d="m481.87296,832.4038c-0.76098,0 -1.3765,-0.61604 -1.3765,-1.37727l0,-117.89765c0,-0.76124 0.61552,-1.3774 1.3765,-1.3774c0.76201,0 1.37753,0.61617 1.37753,1.3774l0,117.89765c0,0.76123 -0.61552,1.37727 -1.37753,1.37727z" fill="#8A0000"/>
      </g>
      <g stroke="null" id="svg_398">
       <path stroke="null" id="svg_399" d="m501.87923,822.53484c-0.76046,0 -1.37598,-0.61591 -1.37753,-1.37455c-0.08893,-68.14671 -0.0796,-102.96931 0.02722,-103.49901c0.14779,-0.74801 0.86858,-1.24297 1.61892,-1.08144c0.70056,0.13988 1.16985,0.7882 1.10166,1.48202c-0.09827,2.19503 -0.03941,68.32172 0.007,103.09298c0.00078,0.76136 -0.61474,1.38 -1.3765,1.38l-0.00078,0z" fill="#8A0000"/>
      </g>
      <g stroke="null" id="svg_400">
       <path stroke="null" id="svg_401" d="m520.01637,807.3292c-0.76098,0 -1.37727,-0.61578 -1.37727,-1.37702l0,-69.34923c0,-0.76123 0.6163,-1.37727 1.37727,-1.37727s1.37727,0.61604 1.37727,1.37727l0,69.34923c0,0.76124 -0.6163,1.37702 -1.37727,1.37702z" fill="#8A0000"/>
      </g>
     </g>
     <g stroke="null" id="svg_402">
      <path stroke="null" id="svg_403" d="m780.10817,827.5985c-0.75579,0 -1.37209,-0.61072 -1.37753,-1.36651c-0.84394,-105.3365 -0.08815,-106.24552 0.32072,-106.73244c0.48925,-0.58104 1.35783,-0.66167 1.93939,-0.17475c0.44907,0.37401 0.59996,0.97643 0.42184,1.50095c-0.538,3.69844 -0.25228,64.88398 0.07286,105.38472c0.00545,0.76123 -0.60541,1.38259 -1.36664,1.38803c-0.00233,0 -0.00752,0 -0.01063,0z" fill="#8A0000"/>
     </g>
     <g stroke="null" id="svg_404">
      <path stroke="null" id="svg_405" d="m798.24298,847.01349c-0.76123,0 -1.37753,-0.61578 -1.37753,-1.37727l0,-137.04921c0,-0.76136 0.6163,-1.37714 1.37753,-1.37714c0.76098,0 1.37727,0.61578 1.37727,1.37714l0,137.04921c0,0.76149 -0.6163,1.37727 -1.37727,1.37727z" fill="#8A0000"/>
     </g>
     <g stroke="null" id="svg_406">
      <path stroke="null" id="svg_407" d="m817.38896,830.80199c-0.76124,0 -1.37676,-0.61578 -1.37676,-1.37702l0,-106.79168c0,-0.76124 0.61552,-1.37715 1.37676,-1.37715c0.76175,0 1.37727,0.61591 1.37727,1.37715l0,106.79168c0,0.76124 -0.61552,1.37702 -1.37727,1.37702z" fill="#8A0000"/>
     </g>
     <g stroke="null" id="svg_408">
      <path stroke="null" id="svg_409" d="m837.20544,827.5985c-0.76123,0 -1.37753,-0.61617 -1.37753,-1.37714l0,-95.1743c0,-0.76124 0.6163,-1.37715 1.37753,-1.37715c0.76098,0 1.37727,0.61591 1.37727,1.37715l0,95.1743c0,0.76098 -0.6163,1.37714 -1.37727,1.37714z" fill="#8A0000"/>
     </g>
     <g stroke="null" id="svg_410">
      <path stroke="null" id="svg_411" d="m858.36367,820.16907c-0.76124,0 -1.37753,-0.61578 -1.37753,-1.37701l0,-74.77458c0,-0.76123 0.6163,-1.37727 1.37753,-1.37727c0.76098,0 1.37727,0.61604 1.37727,1.37727l0,74.77458c0,0.76123 -0.6163,1.37701 -1.37727,1.37701z" fill="#8A0000"/>
     </g>
     <g stroke="null" id="svg_412">
      <path stroke="null" id="svg_413" d="m875.57856,842.33589c-0.76175,0 -1.37727,-0.61578 -1.37727,-1.37702l0,-111.71391c0,-0.76136 0.61552,-1.37727 1.37727,-1.37727c0.76124,0 1.37676,0.61591 1.37676,1.37727l0,111.71391c0,0.76123 -0.61552,1.37702 -1.37676,1.37702z" fill="#8A0000"/>
     </g>
     <g stroke="null" id="svg_414">
      <path stroke="null" id="svg_415" d="m746.46372,659.82793c0,0 9.22971,0.59971 11.84036,-8.89654c2.61143,-9.49625 -5.58221,-10.98047 -6.71033,-12.63764c-1.12707,-1.65703 8.63286,-19.25255 -5.22519,-26.72722c-13.85805,-7.47441 -21.32624,0.38528 -24.35355,5.16517c-3.02783,4.77988 -1.4268,9.06987 -3.62338,9.52904c-2.19555,0.45892 -8.76275,-0.54811 -11.7605,8.33832c-2.99775,8.88617 -1.69722,15.29055 5.01233,19.18073c3.95707,2.29434 7.13372,0.93378 7.77958,2.20955c0.6456,1.27564 -1.99591,5.45698 -1.21704,8.57789c0.77809,3.12117 20.12994,4.69834 20.87717,3.88396c0.74698,-0.81439 1.13796,-6.35201 1.72263,-7.68987c0.58441,-1.33786 3.79062,-0.82865 5.65792,-0.93339z" fill="#EFEFEF"/>
      <path stroke="null" id="svg_416" d="m732.37595,608.87084c-10.06821,7.60522 -7.53093,19.97074 -11.31092,20.47387c-4.23268,0.56354 -12.24665,4.81022 -10.72159,13.03031c1.52532,8.22035 11.10194,8.41558 13.26975,11.08626s-0.22376,6.70034 1.92772,8.97044c1.25204,1.32049 8.32847,3.2123 14.09269,4.43531c-0.16412,0.76253 -0.34302,1.35835 -0.55044,1.58418c-0.74723,0.81439 -20.09908,-0.76305 -20.87717,-3.88396c-0.77887,-3.12091 1.86264,-7.30225 1.21704,-8.57789c-0.64508,-1.27577 -3.82251,0.08478 -7.77958,-2.20955c-6.70955,-3.89018 -8.01008,-10.2943 -5.01233,-19.18073s9.56495,-7.87914 11.76128,-8.33832c2.19581,-0.45918 0.59478,-4.74916 3.62261,-9.52904c1.78071,-2.81094 5.11241,-6.66495 10.36093,-7.86086z" fill="#E2E2E2"/>
      <path stroke="null" id="svg_417" d="m742.80637,655.29941c0,0 11.76206,0.07467 12.5627,-6.85785c0.80039,-6.93227 -7.69972,-6.63345 -8.26494,-10.52583c-0.566,-3.89277 3.86581,-13.26872 0.86157,-18.96021c-3.00475,-5.69137 -10.53568,-7.0654 -15.34448,-4.34249c-4.80854,2.72292 -3.9174,12.55778 -6.30689,15.06524c-2.38845,2.50733 -8.92688,2.73121 -10.55954,8.50581c-1.63292,5.7746 9.70652,8.24861 11.3887,11.4355c1.68244,3.18689 0.97488,7.45769 2.02935,9.33562c1.05525,1.87794 7.16328,3.2534 8.37254,2.61169s0.97488,-5.8284 5.26097,-6.26748z" fill="#FFFFFF"/>
     </g>
     <g stroke="null" id="svg_418">
      <path stroke="null" id="svg_419" d="m493.58317,751.53156c0,0 4.1129,-7.18558 -2.49605,-13.02085c-6.60869,-5.8354 -11.02494,0.16905 -12.80124,0.42366c-1.77682,0.25487 -12.08564,-14.51531 -23.54746,-6.3126c-11.46156,8.20233 -8.07982,17.29968 -5.42795,21.61481c2.65239,4.31513 6.73262,4.7152 6.23715,6.66197c-0.4947,1.9469 -3.88836,6.83063 2.0781,12.73746c5.9662,5.90657 11.62724,7.38004 17.39535,3.51501c3.40118,-2.27891 3.55753,-5.36883 4.83731,-5.38607s3.60264,3.75173 6.41838,4.35364c2.816,0.6023 11.69724,-14.33836 11.33633,-15.25944c-0.36065,-0.92108 -4.65919,-3.41441 -5.50547,-4.41094c-0.8455,-0.9964 0.82528,-3.3737 1.47554,-4.91665z" fill="#EFEFEF"/>
      <path stroke="null" id="svg_420" d="m447.06592,742.81249c2.15458,11.08781 13.09604,13.91263 12.01304,17.14995c-1.21186,3.62533 -0.94999,11.73989 6.26022,13.74734c7.20969,2.00757 11.13435,-5.61631 14.13444,-6.30845c3.00008,-0.6924 5.30038,2.81574 7.97222,1.97867c1.5541,-0.48692 5.8586,-5.43287 9.11044,-9.58699c0.54811,0.43221 0.95699,0.8105 1.05681,1.06614c0.36091,0.92095 -8.52033,15.86174 -11.33633,15.25944c-2.81574,-0.60191 -5.13859,-4.37088 -6.41838,-4.35364s-1.43613,3.10716 -4.83731,5.38607c-5.76812,3.86477 -11.42915,2.39156 -17.39535,-3.51501c-5.96646,-5.90683 -2.5728,-10.79081 -2.0781,-12.73746c0.49548,-1.94677 -3.58475,-2.34684 -6.23637,-6.66197c-1.56006,-2.53754 -3.34855,-6.7334 -2.24533,-11.4241z" fill="#E2E2E2"/>
      <path stroke="null" id="svg_421" d="m488.50265,752.69091c0,0 4.68719,-9.42845 -0.57196,-12.79929c-5.25942,-3.37111 -8.36321,3.58138 -11.71565,2.50474c-3.35244,-1.07639 -9.14856,-8.3286 -14.90708,-8.1519c-5.758,0.1767 -9.82579,5.69176 -9.52788,10.62993c0.29739,4.93778 8.55611,8.09045 9.63237,10.99797c1.076,2.90752 -1.31557,8.25289 2.68584,11.83764c4.00037,3.58501 10.45038,-4.56015 13.67526,-4.65919c3.22462,-0.09904 6.38027,2.15044 8.30513,2.04076c1.92538,-0.10929 5.43443,-4.47951 5.39398,-5.7042c-0.04019,-1.22495 -4.30321,-3.07683 -2.97001,-6.69645z" fill="#FFFFFF"/>
     </g>
     <g stroke="null" id="svg_422">
      <path stroke="null" id="svg_423" d="m828.50309,797.09428c0,0 6.88897,6.30598 14.94727,0.47836c8.0583,-5.82749 2.54479,-12.17522 2.70425,-14.19303c0.15971,-2.01769 18.96657,-9.70445 12.77868,-24.34953c-6.1884,-14.64508 -17.03677,-13.17667 -22.44242,-11.32635c-5.40591,1.85019 -6.85604,6.24065 -8.8758,5.21365c-2.02002,-1.02673 -6.55398,-5.97048 -14.53243,-0.8678c-7.97767,5.10268 -11.00109,10.96803 -8.17601,18.27274c1.66559,4.30761 5.0271,5.24451 4.7292,6.6573c-0.29817,1.41228 -5.02088,3.03535 -6.38053,5.98487c-1.36042,2.94978 12.88162,16.42385 13.98483,16.2548c1.10348,-0.16892 4.91173,-4.28246 6.21796,-4.96618c1.30545,-0.6841 3.50801,1.74311 5.04499,2.84115z" fill="#EFEFEF"/>
      <path stroke="null" id="svg_424" d="m849.61854,748.06257c-12.73512,-0.37491 -18.55354,10.96621 -21.8479,8.9729c-3.68924,-2.23159 -12.68431,-3.95318 -16.67923,3.48428c-3.99519,7.43708 3.4227,13.64441 3.44215,17.11741c0.01867,3.47313 -4.41158,5.13496 -4.15231,8.28245c0.15116,1.83114 4.52774,7.79371 8.29373,12.40027c-0.61086,0.49677 -1.12889,0.85276 -1.43483,0.89943c-1.10322,0.16905 -15.34526,-13.30501 -13.98483,-16.2548c1.35964,-2.94953 6.08236,-4.57233 6.38053,-5.98513c0.29791,-1.41241 -3.06361,-2.34943 -4.7292,-6.65704c-2.82507,-7.30472 0.19835,-13.17006 8.17601,-18.27274c7.97845,-5.10255 12.51241,-0.15881 14.53243,0.86806c2.01976,1.02673 3.46989,-3.36359 8.8758,-5.21391c3.17898,-1.08805 8.23928,-2.01678 13.12767,0.35884z" fill="#E2E2E2"/>
      <path stroke="null" id="svg_425" d="m828.4852,791.21623c0,0 9.21493,7.49334 14.22726,2.54039s-1.86964,-10.09025 0.14468,-13.51295c2.01535,-3.42283 11.43174,-8.00515 12.66356,-14.38568c1.23182,-6.38091 -3.83029,-12.22305 -9.33809,-13.11846c-5.5078,-0.89528 -11.02287,7.4127 -14.48913,7.87707c-3.466,0.46423 -8.75653,-3.49193 -13.69211,0.0232c-4.93584,3.51501 2.43019,12.63064 1.74052,16.20372c-0.68993,3.57308 -3.94644,6.48864 -4.30321,8.63441c-0.35624,2.14551 3.58371,7.08926 4.9418,7.3484c1.35809,0.25902 4.45177,-3.97367 8.10471,-1.61011z" fill="#FFFFFF"/>
     </g>
    </g>
   </g>
   <g stroke="null" id="svg_426">
    <path stroke="null" id="svg_427" d="m185.42948,342.88413c-0.19057,0.47603 -17.88798,12.7499 -11.60805,23.02553c6.27967,10.27641 23.69291,-1.14108 23.69291,-1.14108s-0.9531,14.36727 14.55628,11.41748c15.50886,-2.94979 10.08532,-14.84278 10.08532,-14.84278s6.08936,9.98991 18.45839,4.56637c12.37006,-5.42276 -3.8054,-29.30546 -3.8054,-29.30546l-51.37945,6.27993z" fill="#CD2606"/>
    <g stroke="null" id="svg_428">
     <g stroke="null" id="svg_429">
      <path stroke="null" id="svg_430" d="m178.67975,360.61862c-1.64226,-9.46643 7.10339,-15.6735 7.10339,-15.6735s-0.34276,-0.63886 -0.96451,-1.52065c-3.08772,2.53572 -16.60664,13.30761 -10.9972,22.4852c6.27967,10.27641 23.69291,-1.14108 23.69291,-1.14108s-17.1926,5.31646 -18.83459,-4.14997z" fill="#BC1A04"/>
      <path stroke="null" id="svg_431" d="m206.98181,372.0068c-5.08985,-4.17927 -4.43336,-15.41189 -4.43336,-15.41189l-5.03411,8.17368c0,0 -0.9531,14.36649 14.55628,11.41748c3.9983,-0.7602 6.60506,-2.11518 8.27272,-3.70713c-4.20235,1.12733 -10.23985,2.09132 -13.36154,-0.47214z" fill="#BC1A04"/>
      <path stroke="null" id="svg_432" d="m240.61433,365.90967c2.84063,-1.24504 4.17538,-3.46393 4.54641,-6.14355c-10.63032,3.12402 -25.13863,-3.17121 -25.13863,-3.17121l5.56355,6.96882l-0.11304,1.24427c2.99645,2.24378 8.03134,4.21946 15.14173,1.10166z" fill="#BC1A04"/>
     </g>
    </g>
    <path stroke="null" id="svg_433" d="m316.42096,218.83192c0,0 16.80317,-2.07576 28.66453,-6.52339c11.86033,-4.44814 21.13956,33.47436 -24.11812,58.90987c0,0 -10.22689,-41.27935 -4.54641,-52.38648z" fill="#FECE00"/>
    <path stroke="null" id="svg_434" d="m348.72962,245.85108c-15.8664,-4.93766 -18.6837,-21.20801 -19.08013,-29.27837c-7.30018,1.52701 -13.22853,2.2592 -13.22853,2.2592c-5.68048,11.10687 4.54641,52.38648 4.54641,52.38648c13.89279,-7.80784 22.64544,-16.7928 27.76225,-25.36732z" fill="#FCC000"/>
    <path stroke="null" id="svg_435" d="m79.34873,211.88488c0,0 -12.70194,-2.41308 -24.54852,-10.62877c-11.84581,-8.21594 -27.25925,25.89442 17.69741,56.15117l6.85111,-45.5224z" fill="#FECE00"/>
    <path stroke="null" id="svg_436" d="m48.95561,200.4298c-9.43636,3.7162 -14.02762,31.69236 23.54201,56.97748l1.05681,-7.02146c-27.1221,-19.7838 -29.46725,-40.66383 -24.59882,-49.95603z" fill="#FCC000"/>
    <path stroke="null" id="svg_437" d="m164.37574,103.18271c0,0 -9.31942,-21.60704 10.24918,-32.81165c19.56887,-11.20475 30.29953,1.57795 31.56246,6.94367c0,0 9.46876,-12.55402 29.35265,-11.40582c19.88466,1.14807 26.00721,21.34789 24.36599,30.02754c0,0 43.17492,-5.73972 34.65614,38.19034c0,0 29.19864,15.35368 8.20609,40.32275c-20.99255,24.96881 -133.19274,-51.05393 -133.19274,-51.05393l-5.19978,-20.21291z" fill="#CD2606"/>
    <path stroke="null" id="svg_438" d="m310.01036,160.4865c-3.8697,0.19523 -8.75731,-1.33877 -12.97858,-8.43036c-8.55974,-14.3814 -40.74706,-50.50582 -70.53711,-54.6147c-29.79005,-4.10927 -47.45272,14.86443 -53.92995,0c-3.88655,-8.92001 -0.64249,-19.95739 2.57357,-27.35972c-0.17034,0.09489 -0.34147,0.19096 -0.51337,0.28935c-19.5686,11.20436 -10.24918,32.81165 -10.24918,32.81165l5.19978,20.21291c0,0 112.20019,76.02274 133.19274,51.05393c4.25887,-5.06626 6.45235,-9.73647 7.2421,-13.96306z" fill="#BC1A04"/>
    <path stroke="null" id="svg_439" d="m176.28274,114.38941c0,0 20.13694,-17.86062 53.93203,-11.907c33.79457,5.9535 81.24728,61.57937 93.85484,112.30013c12.60756,50.72037 -0.14545,120.59995 -105.41182,132.84375c-106.70534,12.41077 -150.23807,-64.08787 -151.63867,-101.91003c-1.40139,-37.82216 30.46754,-109.08874 97.35663,-142.53355c0,0 2.25311,6.29419 11.907,11.20669z" fill="#FECE00"/>
    <path stroke="null" id="svg_440" d="m167.54695,132.2722c0,0 3.60938,5.02996 10.64717,6.83011c7.03701,1.80015 17.1843,-18.65712 46.15219,-19.31192c28.96788,-0.65467 72.92478,52.37118 81.63257,102.45127c8.70701,50.0797 -21.81083,90.99477 -98.28328,85.10324s-103.2269,-69.18783 -90.28876,-114.02627c8.88824,-30.80084 40.7092,-69.55302 50.14011,-61.04643z" fill="#FFDA3E"/>
    <path stroke="null" id="svg_441" d="m164.37574,103.18271c-66.88909,33.4448 -98.75801,104.71138 -97.3574,142.53355c1.40139,37.82216 44.93411,114.3208 151.63945,101.91003c35.38497,-4.11601 60.31592,-14.74374 77.3444,-28.96788c-68.96485,16.99659 -155.12749,20.29639 -196.12864,-64.33341c-32.7012,-67.49969 64.50219,-151.14229 64.50219,-151.14229z" fill="#FCC000"/>
    <g stroke="null" id="svg_442">
     <path stroke="null" id="svg_443" d="m97.78404,281.619c0,0 1.82167,-12.94203 13.42039,-14.37971c11.59975,-1.43768 25.02092,17.5434 20.32362,26.07462c-4.69705,8.532 -35.85296,6.32686 -33.74401,-11.69491z" fill="#FF8B00"/>
     <path stroke="null" id="svg_444" d="m105.9738,278.31219c0,0 0.63497,-6.02428 8.84806,-6.35408s16.33699,13.71026 13.56144,18.20689c-2.46597,3.99545 -24.94029,0.65415 -22.40949,-11.85281z" fill="#FFA039"/>
     <path stroke="null" id="svg_445" d="m102.16451,278.88053c0,0 0.91447,-6.48501 5.56303,-10.78381c-8.49959,3.26636 -9.9435,13.52203 -9.9435,13.52203c-2.03324,17.37513 26.85038,20.04801 33.13704,12.5723c-10.15481,3.54793 -30.47298,-0.64223 -28.75657,-15.31051z" fill="#FF7300"/>
    </g>
    <g stroke="null" id="svg_446">
     <path stroke="null" id="svg_447" d="m284.95314,266.25741c0,0 12.89639,2.11673 14.06936,13.74578c1.17219,11.62931 -18.11018,24.6136 -26.53224,19.72288c-8.42284,-4.89098 -5.50702,-35.9883 12.46289,-33.46866z" fill="#FF8B00"/>
     <path stroke="null" id="svg_448" d="m288.07171,274.5208c0,0 6.00795,0.77212 6.15055,8.99092c0.14157,8.21853 -14.08025,16.01963 -18.51206,13.14219c-3.9384,-2.55698 -0.08504,-24.94884 12.36151,-22.13311z" fill="#FFA039"/>
     <path stroke="null" id="svg_449" d="m287.59024,270.70011c0,0 6.46246,1.06148 10.65417,5.80752c-3.07139,-8.57245 -13.29127,-10.25022 -13.29127,-10.25022c-17.32431,-2.42916 -20.65575,26.38627 -13.32602,32.84199c-3.31536,-10.23363 1.33787,-30.45017 15.96311,-28.39929z" fill="#FF7300"/>
    </g>
    <g stroke="null" id="svg_450">
     <path stroke="null" id="svg_451" d="m145.51781,180.06029c-10.35627,-9.45943 -16.98751,6.06615 -16.98751,6.06615s-9.16774,-14.17579 -17.76949,-3.09718c-8.60148,11.07887 9.83668,25.73588 20.14498,30.9026c9.28208,-6.84022 24.96803,-24.41214 14.61202,-33.87157z" fill="#FF5A5A"/>
     <path stroke="null" id="svg_452" d="m117.40684,193.31863c-4.18783,-8.83704 0.26265,-12.81939 2.59769,-14.2104c-2.83519,-0.8009 -6.07614,-0.15868 -9.24371,3.92103c-8.60148,11.07874 9.83668,25.73588 20.14498,30.9026c1.98113,-1.45972 4.25109,-3.42659 6.49953,-5.68048c-7.43578,-0.88206 -16.10934,-6.72744 -19.99848,-14.93275z" fill="#FF2E2E"/>
     <path stroke="null" id="svg_453" d="m129.36024,191.78138c0,0 -3.89355,-7.49126 -6.74585,-7.3252c-2.85152,0.16633 -3.63505,2.78942 -1.36872,7.55362c2.26607,4.76407 11.91529,13.08048 15.63098,10.05188c3.71543,-3.0286 9.62589,-11.82221 7.70724,-16.15109c-1.91916,-4.32913 -7.72513,-9.72052 -15.22366,5.87079z" fill="#FF7D7D"/>
    </g>
    <g stroke="null" id="svg_454">
     <path stroke="null" id="svg_455" d="m286.04314,178.05699c-9.51906,-10.30156 -17.43943,4.60721 -17.43943,4.60721s-7.93592,-14.9006 -17.44436,-4.58919c-9.50817,10.31141 7.62479,26.47572 17.4581,32.49611c9.82812,-6.0305 26.94423,-22.21257 17.42569,-32.51413z" fill="#FF5A5A"/>
     <path stroke="null" id="svg_456" d="m256.91113,188.88968c-3.42504,-9.15971 1.34564,-12.7512 3.79062,-13.93972c-2.75688,-1.03788 -6.04062,-0.6723 -9.5424,3.12506c-9.50817,10.31115 7.62479,26.47572 17.4581,32.49585c2.09754,-1.28653 4.52618,-3.05479 6.95741,-5.10994c-7.33518,-1.50808 -15.48319,-8.06647 -18.66373,-16.57124z" fill="#FF2E2E"/>
     <path stroke="null" id="svg_457" d="m268.95114,188.36918c0,0 -3.24536,-7.79371 -6.10077,-7.86942c-2.85619,-0.07571 -3.85803,2.47168 -2.00291,7.4105c1.85486,4.93882 10.76566,14.04175 14.72429,11.33828c3.95785,-2.70347 10.59143,-10.96557 9.04537,-15.44132c-1.54529,-4.47575 -6.87445,-10.33889 -15.66598,4.56196z" fill="#FF7D7D"/>
    </g>
    <path stroke="null" id="svg_458" d="m107.60828,213.33812c0,3.3339 -3.46237,6.03647 -7.73473,6.03647c-4.27131,0 -7.73369,-2.70256 -7.73369,-6.03647c0,-3.33403 3.46237,-6.03672 7.73369,-6.03672c4.27235,0 7.73473,2.70269 7.73473,6.03672z" fill="#FF9999"/>
    <path stroke="null" id="svg_459" d="m305.97888,208.74582c0,3.33377 -3.46315,6.03673 -7.73447,6.03673c-4.27157,0 -7.73472,-2.70295 -7.73472,-6.03673s3.46315,-6.03647 7.73472,-6.03647c4.27131,0 7.73447,2.70269 7.73447,6.03647z" fill="#FF9999"/>
    <g stroke="null" id="svg_460">
     <path stroke="null" id="svg_461" d="m191.39646,200.19645c0,0 -0.20742,-2.88872 0.50014,-3.84506c0.70679,-0.9566 18.74566,-1.49032 19.58416,-0.15634s0.17112,10.46114 -6.82181,12.38588c-6.99268,1.92461 -12.01823,-1.54373 -12.93581,-8.23176" fill="#660000"/>
     <path stroke="null" id="svg_462" d="m194.26276,195.82376c-1.32801,0.14895 -2.21992,0.32915 -2.36615,0.52737c-0.70756,0.9566 -0.50014,3.84532 -0.50014,3.84532l0.32669,0.15245c0.9168,6.68829 5.94313,10.15636 12.93581,8.23176c1.71589,-0.47201 3.04987,-1.37831 4.07478,-2.49605c-0.54811,0.0127 -1.18826,0.05704 -1.93083,0.13781c-9.30931,1.01325 -11.98893,-7.56542 -12.54015,-10.39866z" fill="#540000"/>
     <path stroke="null" id="svg_463" d="m191.89661,196.35138c0,0 2.26996,11.61453 9.33109,11.50175c7.06009,-0.11279 8.95929,-9.4921 9.09489,-11.50175c0.13534,-2.00978 2.59898,-0.92562 2.59898,-0.92562s7.67509,21.87901 -11.03583,22.08099c-17.59603,0.19005 -12.29254,-22.56973 -12.29254,-22.56973l2.30341,1.41435z" fill="#FF8B00"/>
     <path stroke="null" id="svg_464" d="m203.3172,215.33065c-13.76108,0.14857 -13.51658,-13.73878 -12.75613,-19.79936l-0.96788,-0.59426c0,0 -5.30349,22.75978 12.29254,22.56973c6.29289,-0.06806 9.60125,-2.58783 11.22095,-5.90294c-1.90075,2.18414 -4.9698,3.67498 -9.78949,3.72684z" fill="#FF7300"/>
     <path stroke="null" id="svg_465" d="m201.14706,185.5537c0,0 6.07847,-0.42508 9.94661,4.33574c3.86814,4.76057 2.9166,8.69418 -8.4747,8.69418c-11.39207,0 -14.63536,-1.28147 -14.52309,-4.91445c0.08271,-2.68688 4.46499,-8.11547 13.05118,-8.11547z" fill="#FF8B00"/>
     <path stroke="null" id="svg_466" d="m201.75403,187.0177c0,0 4.22439,-0.12523 6.81715,2.83389c2.59302,2.95912 1.85901,5.31438 -6.04217,5.06755c-7.9017,-0.24657 -10.12681,-1.09077 -9.98058,-3.28244c0.1076,-1.62125 3.24951,-4.8049 9.2056,-4.619z" fill="#FFA039"/>
     <path stroke="null" id="svg_467" d="m204.67607,196.68053c-11.39207,0 -14.63458,-1.28147 -14.52309,-4.91445c0.02878,-0.92095 0.56211,-2.16366 1.59662,-3.39989c-2.38715,1.73741 -3.61042,3.89588 -3.65372,5.30298c-0.11227,3.63272 3.13102,4.91445 14.52309,4.91445c6.38182,0 9.48588,-1.23467 10.3026,-3.15785c-1.67855,0.79507 -4.35195,1.25477 -8.2455,1.25477z" fill="#FF7300"/>
     <path stroke="null" id="svg_468" d="m193.22592,203.24554c0,0 1.76515,6.07847 8.43607,6.0974c6.67066,0.01919 9.09489,-7.20269 9.70419,-8.84157c0.61008,-1.63863 2.64876,1.00003 1.94405,5.72119c-0.70523,4.72116 -5.8879,8.04197 -11.81469,7.54131c-5.92602,-0.50092 -9.26057,-6.84074 -9.67956,-9.8324c-0.41951,-2.99166 0.67593,-2.60585 1.40994,-0.68591z" fill="#FFA039"/>
     <path stroke="null" id="svg_469" d="m198.92273,199.76048c0,0 6.15677,0.22155 8.08371,0c1.9272,-0.22181 -0.52866,4.12703 -3.13802,4.84315c-2.6091,0.71638 -8.13401,-4.92417 -4.94569,-4.84315z" fill="#770101"/>
    </g>
    <path stroke="null" id="svg_470" d="m206.42592,82.12794c0,0 -10.14496,-14.91538 -22.92208,-10.74803c-12.77713,4.1676 -7.15706,21.98947 -2.01535,24.45713c5.14093,2.46766 19.94663,-3.89342 44.67794,-3.07074c24.73131,0.82242 58.56529,36.57556 63.82911,43.10128c5.26486,6.52546 11.68013,19.08285 13.92857,19.52168c2.24844,0.43857 2.85152,-6.08677 -11.51523,-20.94744c0,0 -1.20693,-25.17001 -12.94125,-32.24384c-11.7351,-7.07383 -23.68928,-3.07087 -23.68928,-3.07087s-1.59014,-25.07913 -18.53487,-29.04541c-16.94421,-3.96589 -30.81756,12.04623 -30.81756,12.04623z" fill="#E22C14"/>
    <path stroke="null" id="svg_471" d="m66.53609,212.41458c0,0 -5.75256,-1.46672 -11.69102,-6.52313c-5.93742,-5.05653 -7.11661,16.81043 4.33873,25.34657c4.89021,3.64413 10.83385,-17.51968 7.35229,-18.82345z" fill="#FFDA3E"/>
    <path stroke="null" id="svg_472" d="m336.59757,219.49294c0,0 7.35514,-3.49984 11.05761,-2.02897c3.70298,1.47087 3.2324,17.04974 -1.01429,19.17321c-6.08625,3.04338 -15.82544,-14.20237 -10.04332,-17.14424z" fill="#FFDA3E"/>
    <g stroke="null" id="svg_473">
     <g stroke="null" id="svg_474">
      <path stroke="null" id="svg_475" d="m198.49155,370.53256c0.25228,-7.16458 4.05689,-13.93765 4.05689,-13.93765c-3.4253,3.45615 -5.03411,8.17368 -5.03411,8.17368s-0.18953,2.85826 0.97721,5.76397z" fill="#990E00"/>
      <path stroke="null" id="svg_476" d="m220.0221,356.59491l2.13384,4.7476c0,0 4.96592,8.14568 15.03542,5.73311c-8.69223,-3.61561 -17.16926,-10.48072 -17.16926,-10.48072z" fill="#990E00"/>
     </g>
    </g>
    <path stroke="null" id="svg_477" d="m189.32614,352.21367c0.25461,0 33.95247,-1.86134 42.76319,-3.57023c8.8115,-1.70941 9.53306,5.58844 7.52004,8.16823s-21.72345,-2.09184 -21.72345,-2.09184s5.84875,13.94387 -3.56997,15.47904c-9.41846,1.53543 -11.39363,-15.93511 -11.39363,-15.93511s-4.44322,6.72251 -9.26679,8.20376c-4.82331,1.48099 -10.14003,-0.26628 -11.16521,-3.79762c-1.0257,-3.53212 1.62825,-6.45624 6.83581,-6.45624z" fill="#E22C14"/>
    <path stroke="null" id="svg_478" d="m42.33966,266.11273c0,0 1.99435,26.66758 25.24001,41.79816c0,0 -32.4357,-5.72663 -25.24001,-41.79816z" fill="#F98E00"/>
    <path stroke="null" id="svg_479" d="m35.06437,248.17809c0.64793,-0.81179 -9.2616,32.96022 8.8758,50.92131c0,0 -34.73055,-18.50609 -8.8758,-50.92131z" fill="#F98E00"/>
    <path stroke="null" id="svg_480" d="m337.62327,308.76469c0,0 10.96712,-9.90357 9.70419,-31.77092c0,0 14.62291,13.29361 -9.70419,31.77092z" fill="#F98E00"/>
    <path stroke="null" id="svg_481" d="m348.72962,309.96125c0,0 12.82224,-14.95505 10.82763,-30.30886c0,0 13.17356,10.90049 -10.82763,30.30886z" fill="#F98E00"/>
    <g stroke="null" id="svg_482">
     <path stroke="null" id="svg_483" d="m98.09206,109.1344c-9.03448,-6.74973 -13.11237,6.19748 -13.11237,6.19748s-8.45681,-10.61787 -14.46346,-1.07288c-6.00639,9.54499 9.90642,19.81466 18.56313,23.13365c6.88663,-6.20733 18.04821,-21.50825 9.0127,-28.25824z" fill="#FF5A5A"/>
     <path stroke="null" id="svg_484" d="m76.64837,121.96636c-4.05015,-6.73988 -0.80453,-10.27809 0.9544,-11.57603c-2.33193,-0.41666 -4.87439,0.35365 -7.08654,3.86866c-6.00639,9.54486 9.90642,19.81466 18.56313,23.13365c1.46958,-1.32464 3.13102,-3.07813 4.75149,-5.05925c-6.01961,-0.11771 -13.42221,-4.10901 -17.18249,-10.36703z" fill="#FF2E2E"/>
     <path stroke="null" id="svg_485" d="m86.09069,119.7909c0,0 -3.70765,-5.68605 -5.97631,-5.32761c-2.26918,0.35845 -2.68792,2.51939 -0.49781,6.15223c2.18959,3.63272 10.56835,9.52412 13.30138,6.80691c2.73381,-2.71721 6.76763,-10.22092 4.88995,-13.53305c-1.8782,-3.31186 -6.94938,-7.16665 -11.71721,5.90151z" fill="#FF7D7D"/>
    </g>
    <g stroke="null" id="svg_486">
     <path stroke="null" id="svg_487" d="m150.54103,25.68353c-10.51494,-7.8562 -15.26099,7.21267 -15.26099,7.21267s-9.8429,-12.35775 -16.83402,-1.24855c-6.9906,11.1092 11.52975,23.06183 21.60574,26.92453c8.01397,-7.22447 21.00474,-25.03285 10.48928,-32.88866z" fill="#FF5A5A"/>
     <path stroke="null" id="svg_488" d="m125.58285,40.61809c-4.71364,-7.8444 -0.93599,-11.96248 1.111,-13.47302c-2.71358,-0.48485 -5.6727,0.41147 -8.24705,4.50259c-6.99138,11.10895 11.52897,23.06183 21.60418,26.9244c1.71096,-1.54153 3.64335,-3.58229 5.53036,-5.88829c-7.00616,-0.13677 -15.6219,-4.78235 -19.99849,-12.06567z" fill="#FF2E2E"/>
     <path stroke="null" id="svg_489" d="m136.57305,38.08626c0,0 -4.31565,-6.61815 -6.95638,-6.20085c-2.64021,0.41718 -3.12791,2.93215 -0.57922,7.1603s12.30032,11.08496 15.48164,7.92257c3.18132,-3.16265 7.87707,-11.89585 5.69137,-15.75063s-8.08838,-8.3413 -13.63741,6.86861z" fill="#FF7D7D"/>
    </g>
    <g stroke="null" id="svg_490">
     <path stroke="null" id="svg_491" d="m333.67242,46.27653c-9.08089,-10.68399 -17.61003,3.87877 -17.61003,3.87877s-7.30873,-15.21186 -17.23279,-5.30686c-9.92483,9.90512 6.51742,26.76041 16.09094,33.18125c10.06588,-5.61592 27.83199,-21.06943 18.75189,-31.75316z" fill="#FF5A5A"/>
     <path stroke="null" id="svg_492" d="m304.12609,55.88868c-3.04183,-9.2909 1.87301,-12.68029 4.3644,-13.76614c-2.71125,-1.15093 -6.00639,-0.92173 -9.66089,2.7259c-9.92483,9.90487 6.51742,26.76054 16.09016,33.18112c2.14836,-1.19837 4.64701,-2.86357 7.16095,-4.81579c-7.26388,-1.81014 -15.13006,-8.69845 -17.95461,-17.32509z" fill="#FF2E2E"/>
     <path stroke="null" id="svg_493" d="m316.17387,55.86793c0,0 -2.91867,-7.91907 -5.76786,-8.11301c-2.84996,-0.1942 -3.95629,2.30885 -2.30807,7.31859c1.6477,5.00986 10.17114,14.47137 14.23659,11.93526c4.06623,-2.53624 11.03427,-10.51339 9.67567,-15.04813c-1.35887,-4.53448 -6.43783,-10.61165 -15.83633,3.90729z" fill="#FF7D7D"/>
    </g>
    <g stroke="null" id="svg_494">
     <path stroke="null" id="svg_495" d="m372.9849,134.66609c-7.19102,-12.03715 -18.0088,0.9168 -18.0088,0.9168s-4.69575,-16.21046 -16.11946,-8.08086c-11.42448,8.12934 2.00758,27.46927 10.3879,35.38328c10.85563,-3.87579 30.9306,-16.18181 23.74036,-28.21922z" fill="#FF5A5A"/>
     <path stroke="null" id="svg_496" d="m342.25627,139.26539c-1.46491,-9.66568 3.94177,-12.19661 6.57861,-12.85595c-2.48361,-1.58288 -5.77097,-1.90127 -9.97824,1.09259c-11.42448,8.12908 2.00758,27.46953 10.3879,35.38302c2.31663,-0.82683 5.0564,-2.05645 7.85762,-3.56634c-6.86511,-2.98531 -13.48547,-11.07848 -14.84589,-20.05332z" fill="#FF2E2E"/>
     <path stroke="null" id="svg_497" d="m354.14227,141.23511c0,0 -1.57095,-8.29243 -4.34884,-8.95436s-4.28298,1.62372 -3.48467,6.83698c0.79727,5.21314 7.64009,15.95261 12.0693,14.1229c4.4287,-1.82971 12.61923,-8.546 12.02782,-13.24279c-0.59063,-4.69666 -4.59593,-11.52949 -16.26361,1.23727z" fill="#FF7D7D"/>
    </g>
   </g>
   <g stroke="null" id="svg_498" display="none">
    <g stroke="null" id="svg_499" display="inline">
     <path stroke="null" id="svg_500" d="m388.07023,807.85657c0,0 7.73135,0.99445 18.66114,-2.31754c10.92927,-3.31173 18.84341,-13.80412 12.82613,-19.14884c-10.77889,-9.57455 -30.63814,11.19852 -31.48727,21.46638z" fill="#CD2606"/>
     <path stroke="null" id="svg_501" d="m399.13614,797.53012c0.88284,-2.26296 3.05842,-7.0514 4.65245,-10.51015c-8.02019,4.95619 -15.21432,14.74516 -15.71836,20.8366c0,0 7.73135,0.99445 18.66114,-2.31754c1.74596,-0.52918 3.41441,-1.24245 4.9628,-2.08782c-5.36364,-3.83366 -14.0258,-2.15744 -12.55804,-5.92109z" fill="#BC1A04"/>
     <path stroke="null" id="svg_502" d="m388.07023,807.85657c0,0 21.05141,-22.23915 10.09673,-28.31684s-24.21794,10.39671 -10.09673,28.31684z" fill="#CD2606"/>
     <path stroke="null" id="svg_503" d="m393.44477,778.25502c-9.44776,-0.08401 -17.48973,14.22648 -5.37453,29.60155c0,0 0.88024,-0.93028 2.18699,-2.46157c-8.78583,-12.71075 -4.11964,-24.31932 3.18754,-27.13999z" fill="#BC1A04"/>
     <path stroke="null" id="svg_504" d="m389.96321,799.59124c0,0 12.5417,-12.04247 6.70721,-17.93413c-3.14969,-3.18015 -12.58915,5.91279 -6.70721,17.93413z" fill="#E22C14"/>
     <path stroke="null" id="svg_505" d="m388.07023,807.85657c0,0 6.0458,-5.90035 15.2584,-5.99057c9.21338,-0.09049 14.76863,15.03905 7.13606,17.70363c-7.63231,2.66458 -19.22714,-6.89662 -22.39446,-11.71306z" fill="#CD2606"/>
     <path stroke="null" id="svg_506" d="m412.61253,818.172c-7.28851,0.99419 -17.2709,-4.71312 -18.54835,-9.41133c-0.56911,-2.09223 0.13638,-3.88603 1.23493,-5.3092c-4.53318,1.77526 -7.22888,4.4051 -7.22888,4.4051c3.16732,4.81644 14.76214,14.37764 22.39446,11.71293c0.89061,-0.31074 1.60129,-0.79118 2.14784,-1.3975z" fill="#BC1A04"/>
     <path stroke="null" id="svg_507" d="m396.88873,806.60206c0,0 3.96874,-3.55234 8.10393,-2.66432c4.13494,0.88815 7.76999,7.90961 6.1604,10.60154c-1.60959,2.69206 -17.04014,-4.24629 -14.26433,-7.93722z" fill="#E22C14"/>
     <path stroke="null" id="svg_508" d="m403.13599,796.23426c0,0 0.48381,-6.54594 8.34377,-9.23477c4.8552,-1.66079 8.14646,3.53704 7.20425,6.06797c-0.94221,2.5308 -5.77097,6.0716 -7.69117,6.44496c-1.9202,0.37349 -7.93126,-0.56017 -7.85684,-3.27816z" fill="#E22C14"/>
    </g>
    <path stroke="null" id="svg_509" d="m334.58624,778.61048c0,0 12.99466,-7.27334 24.63227,-17.45576c11.63657,-10.18242 28.70446,24.99111 16.29135,49.97677c0,0 -32.0989,0.45088 -40.92362,-32.521z" fill="#FECE00"/>
    <path stroke="null" id="svg_510" d="m375.50986,811.13149c2.96767,-5.97243 4.24902,-12.52719 4.32395,-18.90538c-15.2151,-1.81701 -25.57759,-14.62693 -30.809,-22.99805c-7.9297,5.73882 -14.43857,9.38243 -14.43857,9.38243c8.82472,32.97163 40.92362,32.521 40.92362,32.521z" fill="#FCC000"/>
    <path stroke="null" id="svg_511" d="m188.16413,949.5196c-0.55589,1.29742 -17.52084,20.48774 -10.75322,28.27484c8.6698,9.97591 61.36943,-15.66728 61.36943,-15.66728l-50.61621,-12.60756z" fill="#FF8B00"/>
    <path stroke="null" id="svg_512" d="m179.87443,973.33489c-2.76544,-3.1821 -1.56694,-8.26961 0.85561,-13.26171c-3.79606,6.19074 -6.92397,13.57285 -3.31912,17.72049c8.6698,9.97669 61.36943,-15.6665 61.36943,-15.6665l-4.6623,-1.1613c-14.69733,6.57783 -47.55805,20.06175 -54.24361,12.36903z" fill="#FF7300"/>
    <path stroke="null" id="svg_513" d="m124.56331,855.85143c0,0 -28.36169,-12.64516 -39.10649,-3.32029c-11.95639,10.37649 20.94769,58.7963 54.02912,62.11919l-14.92264,-58.7989z" fill="#FECE00"/>
    <path stroke="null" id="svg_514" d="m87.22055,851.27962c-0.62861,0.36377 -1.21938,0.77887 -1.76373,1.25153c-11.95639,10.37649 20.94769,58.7963 54.02912,62.11919l-1.47191,-5.79975c-28.20678,-6.83944 -54.49738,-43.4456 -50.79349,-57.57097z" fill="#FCC000"/>
    <path stroke="null" id="svg_515" d="m160.48226,744.52773c0,0 -35.15395,-31.95073 -9.2489,-59.99611c25.90428,-28.04564 56.30518,-7.70737 68.93614,4.28169c0,0 9.42002,-23.97773 37.67956,-21.40869c28.25928,2.56891 23.97786,28.25941 23.97786,28.25941s61.65664,-0.64223 38.10763,62.08548c-23.54979,62.72784 -155.34029,28.57703 -159.45228,-13.22179z" fill="#CD2606"/>
    <path stroke="null" id="svg_516" d="m240.12521,711.53381c-34.40769,0.2878 -52.83587,17.27596 -58.73868,20.15535c-5.90268,2.87926 -21.16276,1.1517 -26.48959,-23.32279c-2.85839,-13.13376 4.64701,-26.10094 12.21748,-35.29876c-5.3547,2.19347 -10.70771,5.86301 -15.88105,11.46402c-25.90506,28.04538 9.2489,59.99598 9.2489,59.99598c4.11199,41.79868 135.90249,75.94975 159.45151,13.22179c1.80326,-4.80102 3.10561,-9.23023 3.97574,-13.31759c-17.51773,-12.77764 -56.23388,-33.12875 -83.7843,-32.89799z" fill="#BC1A04"/>
    <path stroke="null" id="svg_517" d="m390.00884,805.68889c0,0 -11.16676,9.62096 -37.10889,-21.64696c-25.94239,-31.26766 -80.23144,-70.95376 -120.94816,-66.65859c-40.71705,4.29478 -52.22748,34.01638 -52.22748,34.01638s-9.79247,1.37455 -19.24205,-6.87198c0,0 -57.38143,45.01176 -44.32403,123.35334c13.05676,78.34106 76.79461,119.22968 170.42641,90.36706c93.63161,-28.86262 115.79401,-108.75 103.42421,-152.55923z" fill="#FECE00"/>
    <path stroke="null" id="svg_518" d="m379.4506,819.83513c0,0 -25.26231,89.48863 -110.89706,98.90839c-85.6356,9.4195 -112.77856,-54.55999 -113.34223,-83.16178c-0.98097,-49.78672 33.27342,-93.46061 83.79746,-95.38755c50.52488,-1.92668 95.69752,72.1476 140.44184,79.64094z" fill="#FFDA3E"/>
    <path stroke="null" id="svg_519" d="m305.37204,930.06689c-93.63083,28.86262 -157.36965,-12.026 -170.42628,-90.36758c-5.62474,-33.74919 1.82258,-61.31232 12.12375,-81.75676c-16.07305,18.76524 -39.79474,56.63757 -30.91129,109.938c13.05676,78.34157 76.79461,119.2302 170.42641,90.36758c49.0763,-15.12772 78.51788,-44.27425 93.64405,-74.89528c-16.89832,19.45453 -41.28272,36.36503 -74.85664,46.71404z" fill="#FCC000"/>
    <g stroke="null" id="svg_520" display="inline">
     <path stroke="null" id="svg_521" d="m153.84946,824.71548c-0.27094,0 -0.54591,-0.05497 -0.80829,-0.17022c-1.01662,-0.44738 -1.47723,-1.63409 -1.02971,-2.64967c1.85266,-4.2052 5.61397,-7.26686 8.75809,-9.22297c-4.23502,-0.20664 -9.17695,0.68838 -11.32155,1.21691c-1.07392,0.27211 -2.16638,-0.39138 -2.43344,-1.46815c-0.26563,-1.07677 0.38943,-2.16664 1.46634,-2.43357c1.28757,-0.31943 12.77337,-3.02899 19.04305,0.15971c0.70925,0.35962 1.13732,1.10426 1.09479,1.89842c-0.04187,0.79416 -0.54902,1.48902 -1.29223,1.77163c-0.08906,0.03397 -8.88047,3.44371 -11.63592,9.69796c-0.33213,0.75242 -1.06926,1.19993 -1.84112,1.19993z"/>
    </g>
    <g stroke="null" id="svg_522" display="inline">
     <path stroke="null" id="svg_523" d="m272.207,782.56056c-0.517,0 -1.0257,-0.19887 -1.40891,-0.57585c-0.59867,-0.58739 -0.77135,-1.48358 -0.43066,-2.24909c4.93817,-11.10843 18.55847,-15.65522 19.13536,-15.84229c1.05759,-0.34665 2.18777,0.23283 2.53157,1.28614c0.34613,1.05448 -0.22998,2.18907 -1.28445,2.53442c-0.10215,0.03423 -8.54833,2.86941 -13.86038,9.16956c4.05793,-0.98006 9.85923,-1.65781 15.78525,0.11382c1.06381,0.31917 1.66766,1.43924 1.35005,2.50163c-0.31969,1.06381 -1.43924,1.66416 -2.5015,1.35031c-9.14908,-2.73731 -18.37412,1.48241 -18.46772,1.52312c-0.27172,0.12679 -0.56211,0.18823 -0.84861,0.18823z"/>
    </g>
    <path stroke="null" id="svg_524" d="m155.21131,835.58174c0.35456,3.82329 -3.32846,7.2911 -8.22774,7.74562c-4.89863,0.45451 -9.15686,-2.2767 -9.51142,-6.10025c-0.35469,-3.82329 3.32833,-7.2911 8.22774,-7.74549c4.8985,-0.45438 9.15686,2.27683 9.51142,6.10012z" fill="#FF9999"/>
    <path stroke="null" id="svg_525" d="m320.40306,781.73787c0.35469,3.82329 -3.32833,7.29136 -8.22787,7.74562c-4.8985,0.45438 -9.15685,-2.2767 -9.51128,-6.09999c-0.35469,-3.82355 3.32833,-7.29136 8.22761,-7.74562c4.89876,-0.45451 9.15686,2.27657 9.51154,6.09999z" fill="#FF9999"/>
    <g stroke="null" id="svg_526" display="inline">
     <path stroke="null" id="svg_527" d="m211.63569,825.61387c0,0 -4.83258,-7.94889 2.70995,-15.80742c7.54182,-7.85853 28.99485,-13.68459 36.49182,-5.60023c7.49775,8.08436 4.38151,35.72462 -6.32323,40.19584c-10.7037,4.47122 -29.6267,-10.43301 -32.87855,-18.78818z" fill="#660000"/>
     <path stroke="null" id="svg_528" d="m251.80222,832.00788c-25.25168,5.94442 -34.75441,-12.9817 -37.76642,-21.87085c-7.09723,7.74911 -2.4009,15.47671 -2.4009,15.47671c3.25262,8.35556 22.17563,23.25953 32.87932,18.78831c4.05326,-1.69307 7.01783,-6.70799 8.73112,-12.72501c-0.47007,0.10501 -0.95077,0.21494 -1.44313,0.33084z" fill="#540000"/>
     <path stroke="null" id="svg_529" d="m210.32816,818.5416c0,0 14.30712,27.5092 29.51755,22.48935c15.21069,-5.02036 5.82308,-39.65758 5.82308,-39.65758s6.25037,1.36379 7.71839,2.63969c0,0 12.96355,42.64003 -6.71421,49.06541c-19.6788,6.42564 -38.51813,-28.81115 -38.51813,-28.81115l2.17332,-5.72572z" fill="#FF8B00"/>
     <path stroke="null" id="svg_530" d="m208.15484,824.26745c0,0 16.67307,-27.54601 45.23234,-20.25439c0,0 -14.98849,-14.58324 -29.97673,-7.89937c-15.40573,6.87043 -15.25561,28.15376 -15.25561,28.15376z" fill="#FF8B00"/>
     <path stroke="null" id="svg_531" d="m231.69225,803.1463c-15.51016,5.73882 -18.96086,13.72634 -19.77551,9.22842c-0.3941,-2.17636 1.28212,-6.13188 3.1165,-9.63522c-6.96746,8.93919 -6.8784,21.52783 -6.8784,21.52783s16.67307,-27.54601 45.23234,-20.25426c0,0 -1.33501,-1.29845 -3.60575,-2.94265c-5.39242,-0.51246 -11.79862,-0.25163 -18.08918,2.07589z" fill="#FF7300"/>
     <path stroke="null" id="svg_532" d="m214.90931,807.99969c0,0 2.48983,-6.61712 9.36039,-10.37519c6.87134,-3.75834 19.55253,0.53022 19.45971,1.38324c-0.0923,0.85302 -6.96286,0.50896 -14.20263,3.04442c-7.23977,2.5352 -13.55677,8.39173 -14.61747,8.99118s-0.46773,-2.00965 0,-3.04364z" fill="#FFA039"/>
     <path stroke="null" id="svg_533" d="m246.67297,850.26766c-17.55429,5.73208 -34.44094,-21.69 -37.88173,-27.67591l-0.63639,1.67557c0,0 18.83933,35.23679 38.51813,28.81115c8.89887,-2.90545 11.12191,-13.21764 10.88804,-23.64261c-0.22142,9.41302 -2.79111,18.1877 -10.88804,20.8318z" fill="#FF7300"/>
     <path stroke="null" id="svg_534" d="m215.09132,829.01584c0,0 11.08924,17.3365 26.55065,15.07198c15.46219,-2.26504 7.2631,-35.68819 7.966,-36.54717c0.70238,-0.85898 4.71908,2.75986 5.7007,17.10198c0.9811,14.34212 -2.81133,22.60784 -12.96381,24.20861c-10.1517,1.60077 -20.26476,-9.6054 -24.98903,-15.54023c-4.72427,-5.93509 -3.80695,-6.42408 -2.26452,-4.29517z" fill="#FFA039"/>
     <path stroke="null" id="svg_535" d="m224.85125,813.66034c0,0 13.2516,-6.78189 16.47415,-5.87235c3.2215,0.90941 5.36001,18.43959 -0.1566,20.89104c-4.91095,2.18285 -23.85314,-10.10762 -16.31754,-15.0187z" fill="#770101"/>
    </g>
    <g stroke="null" id="svg_536" display="inline">
     <path stroke="null" id="svg_537" d="m321.28797,896.57126c0,0 5.96154,-14.21326 19.62305,-12.37188c13.66126,1.84164 23.27107,27.51827 15.35278,35.83896c-7.91881,8.32095 -42.79015,-3.54534 -34.97583,-23.46708z" fill="#FF8B00"/>
     <path stroke="null" id="svg_538" d="m331.62167,895.25829c0,0 2.53183,-6.68025 11.99826,-4.59126s14.51765,20.54037 10.00235,24.8358c-4.01204,3.81706 -28.64197,-6.73962 -22.00062,-20.24454z" fill="#FFA039"/>
     <path stroke="null" id="svg_539" d="m327.10638,894.76359c0,0 2.98919,-7.12232 9.58103,-10.6298c-10.6744,1.174 -15.39944,12.43747 -15.39944,12.43747c-7.53405,19.2064 24.6066,30.92438 34.02066,24.28536c-12.64723,0.99795 -34.56254,-9.8792 -28.20224,-26.09303z" fill="#FF7300"/>
    </g>
    <path stroke="null" id="svg_540" d="m220.36759,694.61215c0,0 -25.02008,-21.3169 -43.62716,-15.7168c-18.60721,5.60023 -14.00052,36.22061 -5.23932,40.82704c8.76211,4.60669 20.50407,-10.83891 64.85371,-13.00672c44.35022,-2.16781 75.96375,25.47167 80.932,23.30374c4.96747,-2.16755 -4.60682,-27.63935 -40.466,-31.25236c0,0 -1.26449,-22.40068 -22.40094,-24.92992c-21.13567,-2.52898 -34.05229,20.77502 -34.05229,20.77502z" fill="#E22C14"/>
    <path stroke="null" id="svg_541" d="m115.99411,887.90626c0,0 -3.63959,-19.35367 -4.97136,-27.43193c-1.33164,-8.07878 -19.30855,-8.03419 -20.32971,-4.88269c-3.00021,9.26186 27.60915,45.09797 25.30107,32.31462z" fill="#FFDA3E"/>
    <path stroke="null" id="svg_542" d="m185.42346,962.26639c0,0 11.97272,4.71286 20.47841,5.4715c8.50497,0.7589 -16.3611,7.09665 -21.45393,4.55107c-5.09218,-2.54661 -2.0711,-11.14291 0.97553,-10.02258z" fill="#FFA039"/>
    <path stroke="null" id="svg_543" d="m357.21015,769.72665c0,0 3.64413,-5.03981 7.71891,-5.86171c4.07478,-0.82216 11.47349,14.40408 10.0078,20.08716c-1.46491,5.68281 -21.15667,-8.89991 -17.72671,-14.22544z" fill="#FFDA3E"/>
    <g stroke="null" id="svg_544" display="inline">
     <g stroke="null" id="svg_545">
      <path stroke="null" id="svg_546" d="m66.01125,799.59629c-0.02243,0 -0.04485,0 -0.06586,-0.00143c-0.69603,-0.03409 -1.24258,-0.59257 -1.27434,-1.27577l-0.04563,-0.33472c-1.68633,-11.98919 -3.58397,-53.62569 42.85756,-86.04195c0.60696,-0.42145 1.44313,-0.27354 1.86588,0.33226c0.42275,0.60709 0.27496,1.44196 -0.33213,1.86588c-45.18962,31.54094 -43.37093,71.86382 -41.73723,83.47071c0.0573,0.40577 0.07117,0.64767 0.06884,0.70925c-0.03565,0.71703 -0.62628,1.27577 -1.33709,1.27577z" fill="#F98E00"/>
     </g>
     <g stroke="null" id="svg_547">
      <path stroke="null" id="svg_548" d="m108.24953,735.21272c-0.16957,0 -0.34147,-0.03137 -0.50714,-0.09956c-18.43064,-7.54429 -24.98061,-20.92942 -25.24999,-21.49464c-0.31826,-0.66738 -0.03565,-1.46543 0.63017,-1.78473c0.66738,-0.3206 1.46569,-0.03656 1.78771,0.62939c0.06119,0.12951 6.42382,13.03848 23.84718,20.16935c0.68436,0.28119 1.0126,1.06368 0.73233,1.74804c-0.21287,0.51816 -0.71301,0.83215 -1.24025,0.83215z" fill="#F98E00"/>
     </g>
     <g stroke="null" id="svg_549">
      <path stroke="null" id="svg_550" d="m85.44918,774.76892c-0.23309,0 -0.46851,-0.06015 -0.68293,-0.18707c-13.01488,-7.72643 -29.58263,-8.64349 -29.74675,-8.65127c-0.73946,-0.03811 -1.30844,-0.66725 -1.27201,-1.40528c0.03785,-0.7392 0.68047,-1.34642 1.40515,-1.27175c0.7038,0.03526 17.38226,0.95115 30.98246,9.02281c0.63562,0.37816 0.84472,1.1998 0.46838,1.83697c-0.25163,0.42132 -0.6968,0.65558 -1.1543,0.65558z" fill="#F98E00"/>
     </g>
     <g stroke="null" id="svg_551">
      <path stroke="null" id="svg_552" d="m81.31554,785.84999c-0.19355,0 -0.38943,-0.04187 -0.57689,-0.13093c-13.92378,-6.65847 -30.82365,-3.29722 -30.99244,-3.26312c-0.73012,0.13988 -1.43393,-0.31671 -1.58327,-1.04294c-0.1487,-0.72351 0.31658,-1.43276 1.04125,-1.58171c0.72545,-0.15064 17.93205,-3.58773 32.69122,3.46989c0.66738,0.31917 0.94999,1.11994 0.63095,1.78732c-0.23063,0.48018 -0.71068,0.76149 -1.21082,0.76149z" fill="#F98E00"/>
     </g>
     <g stroke="null" id="svg_553">
      <path stroke="null" id="svg_554" d="m90.48393,965.24106c-0.26394,0 -0.52957,-0.07675 -0.76253,-0.23931c-28.44376,-19.76384 -32.73465,-54.34142 -32.77328,-54.68782c-0.08517,-0.73427 0.44207,-1.39905 1.17608,-1.4841c0.74399,-0.08089 1.40139,0.44362 1.485,1.17634c0.03941,0.33499 4.21414,33.73753 31.6405,52.79536c0.60774,0.42184 0.75877,1.25723 0.33602,1.8642c-0.26018,0.37569 -0.67827,0.57533 -1.10179,0.57533z" fill="#F98E00"/>
     </g>
     <g stroke="null" id="svg_555">
      <path stroke="null" id="svg_556" d="m57.12313,953.87621c-0.56289,0 -1.08624,-0.35547 -1.27214,-0.91836c-0.23231,-0.7029 0.14947,-1.4618 0.85094,-1.69333c0.22985,-0.07571 23.19056,-7.79954 38.56291,-23.54746c0.51946,-0.52866 1.36729,-0.538 1.89453,-0.02359c0.53035,0.51674 0.54046,1.36613 0.02398,1.89453c-15.83996,16.2268 -38.67596,23.90266 -39.6406,24.22002c-0.13858,0.04719 -0.28106,0.06819 -0.41964,0.06819z" fill="#F98E00"/>
     </g>
     <g stroke="null" id="svg_557">
      <path stroke="null" id="svg_558" d="m137.63705,981.43804c-0.12705,0 -0.2563,-0.01789 -0.38632,-0.05574c-39.53935,-11.87433 -59.21257,-58.10456 -59.40612,-58.57073c-0.28494,-0.68293 0.03798,-1.46647 0.72079,-1.75193c0.68216,-0.28106 1.46724,0.03785 1.75219,0.72105c0.18966,0.45425 19.39372,45.5307 57.70423,57.03426c0.70925,0.21286 1.11022,0.9601 0.89891,1.66844c-0.17423,0.58078 -0.70692,0.95465 -1.28368,0.95465z" fill="#F98E00"/>
     </g>
     <g stroke="null" id="svg_559">
      <path stroke="null" id="svg_560" d="m107.59058,981.43804c-0.39255,0 -0.78042,-0.17112 -1.04436,-0.49936c-0.46462,-0.57611 -0.37401,-1.42006 0.20288,-1.88286c0.12147,-0.10008 12.31095,-9.99224 16.36408,-19.50768c0.29039,-0.68138 1.07937,-1.00107 1.7575,-0.70756c0.68138,0.29039 0.99795,1.07677 0.70769,1.75737c-4.31786,10.1364 -16.62738,20.1232 -17.1493,20.54426c-0.24774,0.19912 -0.54422,0.29583 -0.8385,0.29583z" fill="#F98E00"/>
     </g>
     <g stroke="null" id="svg_561">
      <path stroke="null" id="svg_562" d="m422.68074,924.06776c-0.11227,0 -0.22609,-0.01426 -0.33836,-0.04304c-17.18638,-4.48029 -22.98923,-17.23979 -23.22777,-17.78167c-0.29817,-0.67619 0.00778,-1.46413 0.68293,-1.7636c0.67801,-0.30206 1.46543,0.00648 1.76826,0.68034c0.05341,0.12005 5.56977,12.13153 21.45173,16.27139c0.7169,0.18746 1.14574,0.91862 0.95828,1.63448c-0.15634,0.60308 -0.69979,1.0021 -1.29508,1.0021z" fill="#F98E00"/>
     </g>
     <g stroke="null" id="svg_563">
      <path stroke="null" id="svg_564" d="m386.42798,939.50169c-0.42495,0 -0.84394,-0.20275 -1.104,-0.57896c-0.41977,-0.60878 -0.26705,-1.44339 0.34302,-1.86368c0.33758,-0.23309 33.88117,-23.72558 40.54404,-58.37783c0.14105,-0.72623 0.84628,-1.19474 1.56862,-1.06381c0.72779,0.14001 1.20252,0.84265 1.06381,1.56888c-6.87445,35.74743 -41.30995,59.83937 -41.65608,60.07842c-0.23205,0.16049 -0.49781,0.23698 -0.75942,0.23698z" fill="#F98E00"/>
     </g>
     <g stroke="null" id="svg_565">
      <path stroke="null" id="svg_566" d="m340.45806,712.56521c-0.48251,0 -0.94688,-0.26031 -1.18774,-0.7169c-0.34302,-0.65571 -0.09049,-1.46569 0.56367,-1.80962c0.26394,-0.13884 26.51902,-14.16905 32.81424,-38.50704c0.18435,-0.71819 0.91291,-1.15261 1.63137,-0.96166c0.7169,0.18461 1.1473,0.91602 0.96166,1.63163c-6.59572,25.50655 -33.04059,39.62167 -34.163,40.21048c-0.19757,0.10332 -0.41043,0.1531 -0.62019,0.1531z" fill="#F98E00"/>
     </g>
     <g stroke="null" id="svg_567">
      <path stroke="null" id="svg_568" d="m395.25659,727.5703c-0.48303,0 -0.94921,-0.26044 -1.18852,-0.71845c-23.01464,-43.90932 -59.44553,-53.59302 -59.81085,-53.68597c-0.7169,-0.18175 -1.15145,-0.91071 -0.96943,-1.62761c0.18046,-0.71832 0.90824,-1.15158 1.62514,-0.97086c0.37699,0.09567 37.9295,10.01739 61.52907,55.04147c0.3438,0.65558 0.08971,1.46413 -0.56522,1.80819c-0.19835,0.10345 -0.41121,0.15323 -0.62019,0.15323z" fill="#F98E00"/>
     </g>
     <g stroke="null" id="svg_569">
      <path stroke="null" id="svg_570" d="m396.5566,757.14307c-0.51026,0 -0.99666,-0.29169 -1.22015,-0.78638c-20.51419,-45.16019 -58.50254,-61.78485 -58.88368,-61.94729c-0.68034,-0.29026 -0.9964,-1.07677 -0.70756,-1.75711s1.07159,-0.99977 1.75763,-0.70782c0.38943,0.1662 39.31067,17.15604 60.27236,63.3055c0.30569,0.67243 0.00778,1.4666 -0.66582,1.7728c-0.17968,0.08245 -0.36791,0.1203 -0.55278,0.1203z" fill="#F98E00"/>
     </g>
    </g>
   </g>
   <g stroke="null" id="svg_571" display="none">
    <path stroke="null" id="svg_572" d="m-605.6436,590.47545l0,0c-152.1829,43.84839 -149.40572,219.00172 -149.40572,219.00172s-0.03636,0.03772 -0.10533,0.10838c-0.18966,16.1481 -0.65033,32.91368 -1.5353,49.08603c-2.40083,43.88663 5.45219,74.23801 55.13734,90.12204l148.66906,-33.01155l-50.83147,-325.47761c-0.64339,0.05536 -1.28594,0.11227 -1.92856,0.17099z" fill="#9E9E9E"/>
    <path stroke="null" id="svg_573" d="m-715.29329,943.56921c26.62545,12.02134 69.08821,18.15503 135.67161,18.15581l35.62784,-0.41666c77.91954,-1.92772 112.64219,-10.2803 129.85579,-19.2064l-191.50555,-39.53079l-109.64969,40.99804z" fill="#7C7C7C"/>
    <g stroke="null" id="svg_574" display="inline">
     <path stroke="null" id="svg_575" d="m-565.82488,588.7702c-13.21997,-0.02308 -26.6003,0.5017 -39.81872,1.70526l0,312.09572l191.50555,39.53079c10.7842,-5.59233 14.6972,-11.41048 18.05508,-16.01497c9.47343,-12.98999 18.87193,-38.75582 17.27699,-88.89956c-1.35342,-42.54928 -94.7312,-248.25623 -187.01891,-248.41724z" fill="#BABABA"/>
    </g>
    <g stroke="null" id="svg_576" display="inline">
     <g stroke="null" id="svg_577">
      <path stroke="null" id="svg_578" d="m-663.14333,698.70508c-0.52452,0 -1.022,-0.31035 -1.23642,-0.82437c-0.28494,-0.68306 0.03792,-1.46815 0.72118,-1.75206l93.11092,-38.77241c0.68442,-0.2852 1.46711,0.03785 1.75206,0.72105c0.28572,0.68293 -0.03792,1.46789 -0.72079,1.75193l-93.1113,38.77241c-0.16879,0.07078 -0.34296,0.10345 -0.51564,0.10345z"/>
     </g>
     <g stroke="null" id="svg_579">
      <path stroke="null" id="svg_580" d="m-687.10816,726.0289c-0.5249,0 -1.02349,-0.30893 -1.23642,-0.82437c-0.28533,-0.68306 0.03792,-1.46815 0.72079,-1.75322l121.61385,-50.62172c0.68598,-0.28391 1.46951,0.03811 1.75212,0.72105c0.28488,0.68423 -0.03792,1.46802 -0.72079,1.75193l-121.61392,50.62418c-0.16879,0.06819 -0.34296,0.10215 -0.51564,0.10215z"/>
     </g>
     <g stroke="null" id="svg_581">
      <path stroke="null" id="svg_582" d="m-714.41765,752.39093c-0.5249,0 -1.0231,-0.30867 -1.23642,-0.82437c-0.28533,-0.68293 0.03792,-1.46802 0.72079,-1.75322l121.61385,-50.62159c0.68598,-0.28261 1.46951,0.03785 1.75212,0.72105c0.28488,0.68423 -0.03792,1.46776 -0.72079,1.7518l-121.61392,50.62431c-0.16879,0.06793 -0.34296,0.10203 -0.51564,0.10203z"/>
     </g>
     <g stroke="null" id="svg_583">
      <path stroke="null" id="svg_584" d="m-714.89381,768.2384c-0.5249,0 -1.02349,-0.30867 -1.23642,-0.82424c-0.28533,-0.68293 0.03792,-1.46802 0.72079,-1.75322l121.61392,-50.62275c0.68054,-0.27496 1.46789,0.03656 1.75206,0.72208c0.28495,0.68306 -0.03792,1.46815 -0.72079,1.75349l-121.61392,50.62275c-0.16872,0.06819 -0.34296,0.10189 -0.51564,0.10189z"/>
     </g>
     <g stroke="null" id="svg_585">
      <path stroke="null" id="svg_586" d="m-722.73134,785.56738c-0.5249,0 -1.02317,-0.30893 -1.23642,-0.82437c-0.28533,-0.68306 0.03792,-1.46815 0.72079,-1.75336l121.61385,-50.62288c0.68287,-0.27211 1.46951,0.03656 1.75212,0.72234c0.28488,0.6828 -0.03798,1.46789 -0.72085,1.75336l-121.61385,50.62275c-0.16879,0.06806 -0.34296,0.10215 -0.51564,0.10215z"/>
     </g>
     <g stroke="null" id="svg_587">
      <path stroke="null" id="svg_588" d="m-730.08966,800.88878c-0.52491,0 -1.02349,-0.30867 -1.23642,-0.82411c-0.28572,-0.68306 0.03792,-1.46815 0.72079,-1.75336l121.61385,-50.62288c0.68138,-0.27483 1.46796,0.03656 1.75212,0.72221c0.28494,0.68293 -0.03792,1.46802 -0.72079,1.75348l-121.61431,50.62275c-0.16879,0.06806 -0.34257,0.1019 -0.51525,0.1019z"/>
     </g>
     <g stroke="null" id="svg_589">
      <path stroke="null" id="svg_590" d="m-738.20202,816.71811c-0.52497,0 -1.02356,-0.31139 -1.23649,-0.82424c-0.28527,-0.68293 0.03798,-1.46802 0.72234,-1.75323l121.61392,-50.62029c0.67742,-0.27224 1.46796,0.042 1.7505,0.72234c0.28494,0.68293 -0.03792,1.46802 -0.72234,1.75322l-121.6123,50.62029c-0.16879,0.06793 -0.34302,0.1019 -0.51564,0.1019z"/>
     </g>
     <g stroke="null" id="svg_591">
      <path stroke="null" id="svg_592" d="m-740.6188,837.44646c-0.52458,0 -1.02317,-0.3088 -1.23649,-0.8245c-0.28527,-0.68293 0.03798,-1.46802 0.72124,-1.75322l121.61385,-50.62301c0.68131,-0.2747 1.46796,0.03682 1.75206,0.72247c0.28495,0.6828 -0.03792,1.46776 -0.72156,1.75322l-121.61385,50.62288c-0.16879,0.06819 -0.34225,0.10215 -0.51525,0.10215z"/>
     </g>
     <g stroke="null" id="svg_593">
      <path stroke="null" id="svg_594" d="m-740.6188,855.48974c-0.52458,0 -1.02317,-0.3088 -1.23649,-0.8245c-0.28527,-0.68293 0.03798,-1.46802 0.72124,-1.75374l121.61385,-50.6225c0.68131,-0.27237 1.46796,0.03669 1.75206,0.72221c0.28495,0.68306 -0.03792,1.46802 -0.72156,1.75323l-121.61385,50.62314c-0.16879,0.06819 -0.34225,0.10215 -0.51525,0.10215z"/>
     </g>
     <g stroke="null" id="svg_595">
      <path stroke="null" id="svg_596" d="m-738.20202,869.56818c-0.52497,0 -1.02356,-0.30906 -1.23649,-0.82476c-0.28527,-0.68267 0.03798,-1.46776 0.72085,-1.75271l121.61385,-50.62327c0.68442,-0.2747 1.46951,0.03682 1.75206,0.72247c0.28494,0.68293 -0.03792,1.46802 -0.72079,1.75322l-121.61385,50.62263c-0.16879,0.06819 -0.34302,0.10241 -0.51564,0.10241z"/>
     </g>
     <g stroke="null" id="svg_597">
      <path stroke="null" id="svg_598" d="m-738.20202,885.32127c-0.52497,0 -1.02356,-0.3088 -1.23649,-0.8245c-0.28527,-0.68293 0.03798,-1.46802 0.72085,-1.75297l121.61385,-50.62288c0.68442,-0.27457 1.46951,0.03656 1.75206,0.72208c0.28494,0.68319 -0.03792,1.46828 -0.72079,1.75348l-121.61385,50.62263c-0.16879,0.06819 -0.34302,0.10215 -0.51564,0.10215z"/>
     </g>
     <g stroke="null" id="svg_599">
      <path stroke="null" id="svg_600" d="m-720.44582,894.87845c-0.52413,0 -1.02271,-0.3088 -1.23642,-0.8245c-0.28494,-0.68293 0.03792,-1.46802 0.72118,-1.75374l121.61424,-50.62263c0.6852,-0.27483 1.46874,0.03682 1.75135,0.72208c0.28566,0.68319 -0.03792,1.46802 -0.72079,1.75374l-121.61392,50.62288c-0.16879,0.06819 -0.34257,0.10215 -0.51564,0.10215z"/>
     </g>
     <g stroke="null" id="svg_601">
      <path stroke="null" id="svg_602" d="m-707.75613,903.24944c-0.5249,0 -1.02356,-0.3088 -1.23642,-0.8245c-0.28572,-0.68293 0.03792,-1.46802 0.72079,-1.75297l121.61385,-50.62263c0.68131,-0.2725 1.46796,0.0363 1.75212,0.72234c0.28488,0.68293 -0.03798,1.46776 -0.72163,1.75271l-121.61346,50.62288c-0.16918,0.06819 -0.34257,0.10215 -0.51525,0.10215z"/>
     </g>
     <g stroke="null" id="svg_603">
      <path stroke="null" id="svg_604" d="m-714.41765,920.19054c-0.5249,0 -1.0231,-0.30828 -1.23642,-0.82398c-0.28533,-0.68267 0.03792,-1.46776 0.72079,-1.75348l121.61385,-50.62237c0.68598,-0.27483 1.46951,0.0363 1.75212,0.72234c0.28488,0.68293 -0.03792,1.46776 -0.72079,1.75271l-121.61392,50.62314c-0.16879,0.06741 -0.34296,0.10164 -0.51564,0.10164z"/>
     </g>
     <g stroke="null" id="svg_605">
      <path stroke="null" id="svg_606" d="m-686.30369,928.5592c-0.52458,0 -1.02278,-0.30828 -1.23649,-0.82398c-0.28488,-0.68267 0.03798,-1.46776 0.72124,-1.75349l121.61346,-50.62237c0.68365,-0.27483 1.46951,0.0363 1.75206,0.72157c0.28572,0.68371 -0.03792,1.4688 -0.72079,1.75348l-121.61385,50.6234c-0.16879,0.06715 -0.34302,0.10138 -0.51564,0.10138z"/>
     </g>
     <g stroke="null" id="svg_607">
      <path stroke="null" id="svg_608" d="m-685.11912,944.16917c-0.52497,0 -1.02356,-0.31191 -1.23649,-0.8245c-0.28566,-0.68293 0.03798,-1.46802 0.72202,-1.75374l121.61424,-50.62003c0.67587,-0.27483 1.46796,0.03941 1.7505,0.72234c0.28494,0.68293 -0.03792,1.46802 -0.72234,1.75374l-121.61269,50.62003c-0.16879,0.06819 -0.34263,0.10215 -0.51525,0.10215z"/>
     </g>
     <g stroke="null" id="svg_609">
      <path stroke="null" id="svg_610" d="m-659.63759,945.50082c-0.52497,0 -1.02356,-0.3088 -1.23649,-0.8245c-0.28566,-0.68293 0.03798,-1.46802 0.72085,-1.75296l121.61385,-50.62314c0.68293,-0.27172 1.46789,0.03967 1.75206,0.72234c0.28494,0.68293 -0.03785,1.46802 -0.72079,1.75374l-121.61424,50.62237c-0.16879,0.06819 -0.34263,0.10215 -0.51525,0.10215z"/>
     </g>
     <g stroke="null" id="svg_611">
      <path stroke="null" id="svg_612" d="m-626.26377,944.16917c-0.5249,0 -1.02349,-0.31191 -1.23662,-0.8245c-0.28533,-0.68293 0.03792,-1.46802 0.72176,-1.75374l121.61405,-50.62003c0.68604,-0.27172 1.4688,0.04174 1.75361,0.72234c0.28261,0.68293 -0.03941,1.46802 -0.72234,1.75374l-121.61638,50.62003c-0.16801,0.06819 -0.3414,0.10215 -0.51408,0.10215z"/>
     </g>
     <g stroke="null" id="svg_613">
      <path stroke="null" id="svg_614" d="m-616.58817,953.87181c-0.52497,0 -1.02356,-0.30802 -1.23649,-0.82372c-0.28566,-0.68293 0.03798,-1.46802 0.72085,-1.75374l121.61411,-50.62237c0.68514,-0.27483 1.46789,0.03656 1.75361,0.72234c0.28261,0.68293 -0.03954,1.46802 -0.72234,1.75297l-121.61411,50.62314c-0.16879,0.06741 -0.34302,0.10138 -0.51564,0.10138z"/>
     </g>
     <g stroke="null" id="svg_615">
      <path stroke="null" id="svg_616" d="m-586.14228,953.87181c-0.5249,0 -1.02356,-0.30802 -1.23642,-0.82372c-0.28572,-0.68293 0.03792,-1.46802 0.72079,-1.75374l121.61256,-50.62237c0.68591,-0.27483 1.46789,0.03656 1.75361,0.72234c0.28261,0.68293 -0.03954,1.46802 -0.72234,1.75297l-121.61333,50.62314c-0.16879,0.06741 -0.34218,0.10138 -0.51486,0.10138z"/>
     </g>
     <g stroke="null" id="svg_617">
      <path stroke="null" id="svg_618" d="m-542.16354,950.57511c-0.5249,0 -1.02356,-0.3088 -1.23649,-0.8245c-0.28566,-0.68293 0.03798,-1.46802 0.72157,-1.75374l90.84296,-37.81257c0.68527,-0.27483 1.46802,0.0363 1.75297,0.72234c0.28248,0.68293 -0.03876,1.46802 -0.72169,1.75297l-90.84374,37.81335c-0.16957,0.06819 -0.34289,0.10215 -0.51557,0.10215z"/>
     </g>
     <g stroke="null" id="svg_619">
      <path stroke="null" id="svg_620" d="m-514.76039,955.25919c-0.52335,0 -1.02272,-0.3088 -1.23804,-0.8245c-0.28261,-0.68293 0.03954,-1.46802 0.72234,-1.75271l90.84387,-37.81672c0.68825,-0.27172 1.46867,0.03708 1.75361,0.72234c0.28261,0.68293 -0.03954,1.46802 -0.72234,1.75374l-90.84374,37.81568c-0.17034,0.06819 -0.34302,0.10215 -0.5157,0.10215z"/>
     </g>
     <g stroke="null" id="svg_621">
      <path stroke="null" id="svg_622" d="m-459.32767,944.16917c-0.52335,0 -1.02284,-0.3088 -1.23804,-0.8245c-0.28261,-0.68293 0.03954,-1.46802 0.72234,-1.75374l40.22137,-16.74198c0.68527,-0.2725 1.46802,0.03656 1.75284,0.72157c0.28261,0.68371 -0.03863,1.4688 -0.72234,1.75374l-40.2206,16.74276c-0.17034,0.06819 -0.34289,0.10215 -0.51557,0.10215z"/>
     </g>
    </g>
    <g stroke="null" id="svg_623" display="inline">
     <path stroke="null" id="svg_624" d="m-620.673,898.86975c0,0 -2.5798,29.83724 19.74213,31.18288c22.32186,1.34642 33.51338,-31.18288 33.51338,-31.18288s6.97971,34.99683 33.78906,32.5293c26.80928,-2.46753 23.33226,-38.3625 23.33226,-38.3625s-77.73519,-12.11442 -110.37682,5.83319z" fill="#FF8B00"/>
     <g stroke="null" id="svg_625">
      <g stroke="null" id="svg_626">
       <g stroke="null" id="svg_627">
        <path stroke="null" id="svg_628" d="m-597.53662,926.65844c-19.04843,-1.14911 -19.96283,-23.0442 -19.82192,-29.44184c-1.14898,0.52037 -2.25531,1.07081 -3.31446,1.65237c0,0 -2.5798,29.83801 19.74213,31.18366c8.86186,0.53411 15.96934,-4.2708 21.31924,-10.2593c-4.84671,4.29154 -10.82219,7.29318 -17.92499,6.86511z" fill="#FF7300"/>
       </g>
       <g stroke="null" id="svg_629">
        <path stroke="null" id="svg_630" d="m-530.23425,928.00409c-26.8085,2.46805 -33.78821,-32.52956 -33.78821,-32.52956s-0.89036,2.58758 -2.66957,6.2737c2.36064,8.31913 10.99104,31.68225 33.0636,29.65082c7.40402,-0.68138 12.49685,-3.913 15.99176,-8.23331c-3.19221,2.56035 -7.30329,4.35117 -12.59758,4.83835z" fill="#FF7300"/>
       </g>
      </g>
     </g>
     <path stroke="null" id="svg_631" d="m-683.93533,802.41307c-0.56289,0.18759 -17.92233,21.67574 -18.01638,48.98193c-0.09366,27.30592 31.29521,2.81496 31.29521,2.81496l-13.27883,-51.79689z" fill="#FECE00"/>
     <path stroke="null" id="svg_632" d="m-699.32862,845.02536c0.03176,-9.30335 2.06799,-17.93102 4.76154,-25.27164c-3.87968,8.4839 -7.34283,19.48641 -7.38464,31.64128c-0.09366,27.30592 31.29521,2.81496 31.29521,2.81496l-0.97825,-3.81525c-8.24206,5.47436 -27.76821,16.17546 -27.69387,-5.36935z" fill="#FCC000"/>
     <path stroke="null" id="svg_633" d="m-423.29568,818.83899c0,0 7.58123,-10.80896 16.01419,-10.77889c8.43373,0.03008 16.00499,10.08053 7.41024,15.05422c-8.59552,4.97369 -23.42443,-4.27533 -23.42443,-4.27533z" fill="#CD2606"/>
     <path stroke="null" id="svg_634" d="m-423.29568,818.83873c0,0 14.82891,9.24929 23.42443,4.27559c2.09884,-1.21497 3.23395,-2.73316 3.62727,-4.33393c-3.22086,1.78499 -7.71217,-1.10192 -12.52641,-3.10379c-3.58229,-1.4898 -8.57076,-0.98071 -11.46713,-0.48433c-1.90607,2.00343 -3.05816,3.64646 -3.05816,3.64646z" fill="#BC1A04"/>
     <path stroke="null" id="svg_635" d="m-419.20314,817.56361c0,0 10.61088,-4.08827 20.94225,6.12825s-2.10908,15.00612 -10.47074,13.41676c-8.36165,-1.58962 -13.8587,-17.19312 -10.47151,-19.54501z" fill="#CD2606"/>
     <path stroke="null" id="svg_636" d="m-394.36189,831.1699c-2.20501,2.62491 -6.56785,3.95422 -8.23318,2.97131c-2.0068,-1.18411 -2.3025,-5.49277 -7.56503,-11.18258c-3.15733,-3.4135 -5.17723,-5.16945 -6.28835,-6.02843c-1.72652,0.2375 -2.75468,0.63328 -2.75468,0.63328c-3.38718,2.35202 2.10986,17.95526 10.47151,19.54514c5.94378,1.12993 13.94931,-0.96347 14.36973,-5.93872z" fill="#BC1A04"/>
     <path stroke="null" id="svg_637" d="m-422.18157,819.19925c0,0 8.5158,-1.81675 14.53307,10.44559c6.01819,12.26246 -1.30532,20.43692 -9.19626,18.39383c-7.89107,-2.04413 -5.33681,-28.83941 -5.33681,-28.83941z" fill="#CD2606"/>
     <path stroke="null" id="svg_638" d="m-414.76446,844.30846c-6.06836,-1.57199 -5.9592,-17.77753 -5.58533,-25.18297c-1.13498,-0.07441 -1.83179,0.07376 -1.83179,0.07376s-2.55426,26.79528 5.33681,28.83941c4.80179,1.24323 9.3937,-1.29768 10.89647,-6.24129c-2.16781,2.38715 -5.43974,3.38511 -8.81617,2.51109z" fill="#BC1A04"/>
     <path stroke="null" id="svg_639" d="m-611.35746,690.05356c0,0 14.35119,-38.00158 50.04949,-44.84492s35.91039,29.83672 35.91039,29.83672s37.79416,-4.09008 48.16417,31.61263c0,0 43.37171,21.90209 14.01206,53.87265c-29.35887,31.97056 -163.47755,-27.08152 -163.47755,-27.08152l15.34143,-43.39556z" fill="#CD2606"/>
     <path stroke="null" id="svg_640" d="m-534.61329,684.91626c-41.79531,-8.34571 -68.58456,15.68958 -64.49967,-1.81364c1.71414,-7.34426 7.25766,-17.46691 13.24551,-26.76469c-17.89096,13.59657 -25.49002,33.71562 -25.49002,33.71562l-15.34143,43.39556c0,0 134.11867,59.05208 163.47755,27.08152c3.17523,-3.45706 5.4986,-6.79627 7.11907,-10.00274c-23.48393,-37.34834 -41.2634,-58.1743 -78.51101,-65.61164z" fill="#BC1A04"/>
     <path stroke="null" id="svg_641" d="m-609.87479,712.29362c0,0 27.15386,-30.2465 68.58385,-25.20527c41.43064,5.04098 62.03998,26.09497 84.42847,75.61632c22.38836,49.52122 27.28077,55.00724 37.65934,54.85894c0,0 -7.56114,66.12734 -57.82428,86.29124c-50.26236,20.16494 -115.98769,29.07859 -172.72943,-3.85492c-65.04557,-37.75294 -40.62708,-182.96169 38.39938,-209.94637c0,0 -2.37225,11.56501 1.48267,22.24006z" fill="#FECE00"/>
     <path stroke="null" id="svg_642" d="m-528.79643,849.07058c0,0 5.17878,33.11656 28.18202,27.57635c23.00246,-5.53969 28.30206,-39.62232 33.72171,-43.35563c5.41887,-3.73383 31.07152,-9.03292 33.96167,-4.81774c2.89093,4.21518 -5.82373,39.13734 -46.61811,53.02391c-40.79424,13.88735 -118.19193,10.74466 -148.0221,-41.56067c-25.83615,-45.30332 22.57407,-132.14474 62.16365,-141.04997c39.58881,-8.9051 74.30769,23.12341 88.63879,47.93263c14.33175,24.80935 20.233,53.61117 16.86124,58.54001c-3.37266,4.92871 -31.91546,7.09639 -36.37112,11.79343c-4.45657,4.69692 0.70679,27.82059 -6.27059,30.58991c-6.97738,2.77011 -28.89814,-14.92782 -26.24717,1.32775z" fill="#FFDA3E"/>
     <path stroke="null" id="svg_643" d="m-477.02742,903.85485c12.06645,-4.84043 21.67082,-12.33039 29.30157,-20.91736c-66.37572,23.59076 -174.12556,28.62797 -198.52837,-43.21588c-30.24385,-89.03892 34.89675,-149.66805 34.89675,-149.66805c-79.02645,26.98455 -103.44495,172.19266 -38.39938,209.94637c56.74174,32.93351 122.46707,24.01908 172.72943,3.85492z" fill="#FCC000"/>
     <path stroke="null" id="svg_644" d="m-517.31607,851.65971c0,0 13.58542,13.47354 26.71024,1.75193c0,0 -1.57095,11.77814 -11.1057,14.02113c-9.53462,2.24378 -15.6735,-10.40294 -15.60453,-15.77306z" fill="#FCC000"/>
     <path stroke="null" id="svg_645" d="m-607.22927,786.22218l7.19725,18.1234l8.25723,-5.75061c0,0 1.60421,-0.96503 1.15047,-2.86345c-0.45289,-1.89868 -0.79358,-5.16724 -1.47334,-5.79975c-0.67976,-0.63263 -0.19588,-1.50069 -3.63965,-1.81753c-3.44455,-0.31683 -11.49196,-1.89207 -11.49196,-1.89207z" fill="#660000"/>
     <path stroke="null" id="svg_646" d="m-600.03202,804.34545l7.22823,-5.03385c-0.33447,-0.01361 -0.70919,0 -1.13109,0.04589c-6.54076,0.71482 -10.1316,-10.25722 -10.84008,-12.67057c-1.45013,-0.26809 -2.45431,-0.46475 -2.45431,-0.46475l7.19725,18.12327z" fill="#540000"/>
     <circle stroke="null" id="svg_647" r="12.49419" cy="777.78923" cx="-541.29062"/>
     <g stroke="null" id="svg_648">
      <path stroke="null" id="svg_649" d="m-519.32378,777.81891c-0.13392,0 -0.27017,-0.01322 -0.4033,-0.03941c-20.06343,-4.08749 -28.02256,-20.43757 -28.35236,-21.13113c-0.47461,-1.00197 -0.04803,-2.19555 0.95303,-2.6743c1.00184,-0.47097 2.20041,-0.04978 2.67806,0.94986c0.07201,0.15194 7.48524,15.24064 25.52178,18.91458c1.08857,0.22259 1.79004,1.28497 1.57018,2.37082c-0.19588,0.95258 -1.0336,1.60959 -1.96739,1.60959z"/>
     </g>
     <g stroke="null" id="svg_650">
      <path stroke="null" id="svg_651" d="m-667.27619,770.01004c-1.05065,0 -1.93245,-0.81633 -2.00213,-1.87872c-0.07357,-1.10711 0.76571,-2.06228 1.87204,-2.1354c0.15103,-0.01037 15.18852,-1.16713 24.89699,-14.13885c0.66355,-0.8923 1.92325,-1.06757 2.81282,-0.40564c0.8888,0.66465 1.07075,1.92603 0.4057,2.81315c-10.85168,14.50002 -27.16779,15.69852 -27.85611,15.74026c-0.04453,0.00519 -0.08751,0.00519 -0.12931,0.00519z"/>
     </g>
     <circle stroke="null" id="svg_652" r="2.41788" cy="773.16089" cx="-537.78838" fill="#FFFFFF"/>
     <circle stroke="null" id="svg_653" r="5.03411" cy="780.61248" cx="-543.51774" fill="#FFFFFF"/>
     <circle stroke="null" id="svg_654" r="12.49381" cy="775.57838" cx="-649.75691"/>
     <path stroke="null" id="svg_655" d="m-643.83672,770.95017c0,1.33527 -1.08274,2.41762 -2.41749,2.41762c-1.3356,0 -2.41794,-1.08235 -2.41794,-2.41762c0,-1.33501 1.08235,-2.41775 2.41794,-2.41775c1.33475,0 2.41749,1.08274 2.41749,2.41775z" fill="#FFFFFF"/>
     <circle stroke="null" id="svg_656" r="5.03385" cy="778.40177" cx="-651.9837" fill="#FFFFFF"/>
     <g stroke="null" id="svg_657">
      <path stroke="null" id="svg_658" d="m-525.11964,788.99268c0,3.12544 -3.17121,5.65896 -7.0842,5.65896c-3.91222,0 -7.0842,-2.53352 -7.0842,-5.65896c0,-3.12505 3.17199,-5.65857 7.0842,-5.65857c3.91299,0 7.0842,2.53352 7.0842,5.65857z" fill="#6EB8E5"/>
      <path stroke="null" id="svg_659" d="m-530.95348,792.71225c-3.91299,0 -7.0842,-2.53365 -7.0842,-5.65896c0,-0.54448 0.09827,-1.07029 0.27794,-1.56875c-0.95543,0.96438 -1.5283,2.18246 -1.5283,3.50814c0,3.12544 3.17199,5.6587 7.0842,5.6587c3.23084,0 5.95466,-1.72833 6.80626,-4.09008c-1.29677,1.30947 -3.30292,2.15095 -5.5559,2.15095z" fill="#56ABD6"/>
      <path stroke="null" id="svg_660" d="m-526.47915,789.60249c-0.67049,1.6184 -3.23162,2.09404 -5.72002,1.06251c-2.48763,-1.03166 -3.96096,-3.17976 -3.2897,-4.79816c0.67049,-1.6184 3.23162,-2.09417 5.72002,-1.06251c2.48763,1.0314 3.96096,3.17976 3.2897,4.79816z" fill="#7ECBF2"/>
     </g>
     <g stroke="null" id="svg_661">
      <path stroke="null" id="svg_662" d="m-656.05913,787.73467c0,3.12505 -3.17198,5.6587 -7.0842,5.6587c-3.91299,0 -7.0842,-2.53365 -7.0842,-5.6587c0,-3.12531 3.17121,-5.6587 7.0842,-5.6587c3.91222,0 7.0842,2.53339 7.0842,5.6587z" fill="#6EB8E5"/>
      <path stroke="null" id="svg_663" d="m-661.89375,791.45399c-3.91254,0 -7.0842,-2.53339 -7.0842,-5.65883c0,-0.54448 0.09833,-1.07042 0.27794,-1.56875c-0.95537,0.96451 -1.52753,2.18259 -1.52753,3.50827c0,3.12505 3.17121,5.6587 7.08381,5.6587c3.23123,0 5.95499,-1.72833 6.80665,-4.09008c-1.29761,1.30934 -3.30363,2.1507 -5.55668,2.1507z" fill="#56ABD6"/>
      <ellipse stroke="null" id="svg_664" ry="23.89772" rx="36.73792" cy="5278.22642" cx="-6399.06116" fill="#7ECBF2" transform="matrix(0.12262674158291102,0.050843646826639,-0.050843646826639,0.12262674158291102,391.1362361983887,464.57627891254697) "/>
     </g>
     <g stroke="null" id="svg_665">
      <path stroke="null" id="svg_666" d="m-613.28991,790.28309c0,0 15.30189,-3.6134 18.02254,4.9374c2.71987,8.55067 -12.46826,10.13744 -12.46826,10.13744s18.47167,2.87745 22.34131,-9.48653c4.36355,-13.94179 -23.75812,-25.70723 -27.89558,-5.58831z" fill="#FF8B00"/>
      <path stroke="null" id="svg_667" d="m-607.73564,805.35793c10.64879,0.12342 18.72946,-7.29603 12.58747,-13.95346c-6.14193,-6.65717 -11.76213,-1.87171 -12.54099,-5.58351c-0.40493,-1.92461 0.92678,-4.02397 2.30257,-5.59946c-3.69151,1.28018 -6.74202,4.41482 -7.90332,10.0616c0,0 15.30189,-3.6134 18.02254,4.93714c2.71987,8.55093 -12.46826,10.1377 -12.46826,10.1377z" fill="#FF7300"/>
      <path stroke="null" id="svg_668" d="m-602.78281,786.10603c0,0 5.26091,-0.90798 9.76071,5.24153c4.49909,6.14964 -0.61863,10.15286 -2.82669,11.51497c-2.20813,1.36185 5.17962,1.29988 8.62573,-6.81002c3.4461,-8.11003 -7.61462,-15.49771 -12.87708,-15.06433s-6.27357,5.24153 -2.68267,5.11785z" fill="#FFA039"/>
     </g>
     <path stroke="null" id="svg_669" d="m-600.92471,791.27444c0,0 4.23119,1.40463 4.96442,5.37778c0.73317,3.97341 -8.52817,-6.30041 -4.96442,-5.37778z" fill="#770101"/>
     <path stroke="null" id="svg_670" d="m-517.31607,851.65971c0,0 4.64999,16.93203 16.63658,13.19171c11.98672,-3.7411 10.782,-37.84563 10.782,-37.84563s8.67136,30.77465 -6.80081,41.31578c-15.4723,10.54113 -22.53252,-11.56138 -20.61777,-16.66186z" fill="#F99300"/>
     <path stroke="null" id="svg_671" d="m-590.65913,678.61028c0,0 5.66739,-22.66916 27.81041,-27.16332c22.14309,-4.49403 28.13327,15.52195 30.72072,22.95955c2.5868,7.4376 24.32334,3.77467 37.02619,12.11507c12.70271,8.34026 11.39894,19.33305 17.13919,23.29427c5.73934,3.96148 19.64224,14.93677 20.53415,22.95968c0.8888,8.00346 -3.63816,0.7274 -23.93002,-21.66615c-20.29186,-22.39368 -47.29313,-30.80123 -64.51289,-32.01386c-17.21969,-1.21263 -47.23667,5.88285 -44.78775,-0.48523z" fill="#E22C14"/>
     <path stroke="null" id="svg_672" d="m-417.09328,835.519c-0.03954,-0.14519 -2.80044,-9.18304 -0.84317,-11.32077c1.9565,-2.1376 7.91803,2.70982 9.99613,10.47761c2.07719,7.76791 -6.50355,10.62825 -9.15297,0.84317z" fill="#E22C14"/>
     <path stroke="null" id="svg_673" d="m-403.18428,830.6472c0,0 -6.06369,-8.98988 -9.08555,-11.54271c-3.02186,-2.55257 5.86094,-0.32163 10.62708,3.79528c4.76614,4.1173 5.0704,7.17961 3.93464,8.3964c-1.13576,1.21704 -3.77597,1.79912 -5.47617,-0.64897z" fill="#E22C14"/>
     <path stroke="null" id="svg_674" d="m-414.44309,813.07787c0,0 7.80654,1.05538 11.42059,3.26014c3.61418,2.20462 6.00341,-0.74412 4.19405,-3.24121c-1.81014,-2.49735 -6.12955,-4.2402 -10.29884,-3.41052c-4.16838,0.82955 -7.56269,3.09511 -5.31581,3.39159z" fill="#E22C14"/>
     <path stroke="null" id="svg_675" d="m-687.7732,849.34231c0,0 -2.0757,-20.97544 -2.16243,-27.41936c-0.08634,-6.44392 -7.65487,7.6117 -6.57323,22.22969c1.08079,14.61721 9.20249,10.0651 8.73566,5.18967z" fill="#FFDA3E"/>
     <path stroke="null" id="svg_676" d="m-606.40393,918.89286c0,0 16.56703,2.62699 16.72804,4.07478c0.16107,1.44702 -4.45644,2.86785 -10.5117,1.55462c-6.05526,-1.31375 -10.56751,-6.37353 -6.21634,-5.6294z" fill="#FFA039"/>
     <path stroke="null" id="svg_677" d="m-540.73272,922.19345c0,0 20.18102,-3.92077 21.75742,-3.38278c1.57562,0.53826 -1.99902,5.91824 -11.68622,7.07357c-9.68798,1.1543 -13.97414,-2.95134 -10.07119,-3.6908z" fill="#FFA039"/>
    </g>
    <path stroke="null" id="svg_678" d="m-505.37744,794.65164c0,4.37477 -3.99506,7.9214 -8.92312,7.9214c-4.92871,0 -8.92376,-3.54664 -8.92376,-7.9214c0,-4.37503 3.99506,-7.9214 8.92376,-7.9214c4.92806,0 8.92312,3.54638 8.92312,7.9214z" fill="#FF9999"/>
    <ellipse stroke="null" id="svg_679" ry="7.92114" rx="8.92344" cy="795.28401" cx="-679.8118" fill="#FF9999"/>
   </g>
  </g>
 </g>
</svg>