<svg width="400" height="400" xmlns="http://www.w3.org/2000/svg">

 <g>
  <title>background</title>
  <rect fill="none" id="canvas_background" height="402" width="402" y="-1" x="-1"/>
 </g>
 <g>
  <title>Layer 1</title>
  <g stroke="null" id="svg_1">
   <g stroke="null" id="svg_2" display="none">
    <path stroke="null" id="svg_3" d="m-255.17468,41.71127c-15.84327,0 -29.42447,9.66397 -35.18463,23.4167c-5.78074,-3.52894 -12.54945,-5.59903 -19.81804,-5.59903c-21.06144,0 -38.13548,17.07384 -38.13548,38.13567c0,1.21143 0.07096,2.4059 0.18139,3.58879c-15.32246,1.18644 -27.39378,13.96818 -27.39378,29.59474c0,16.41025 13.30274,29.71273 29.71253,29.71273c14.91385,0 27.22521,-10.99944 29.35246,-25.32171c2.04858,0.34028 4.13801,0.56073 6.28288,0.56073c15.84353,0 29.42473,-9.66397 35.1849,-23.4167c5.78075,3.52894 12.54938,5.59916 19.81778,5.59916c21.0617,0 38.13554,-17.07384 38.13554,-38.13581c0,-21.06144 -17.07384,-38.13528 -38.13554,-38.13528z" fill="#CD2606"/>
    <path stroke="null" id="svg_4" d="m-220.1327,64.80176c-5.83763,-13.57765 -19.32505,-23.09049 -35.04198,-23.09049c-15.84327,0 -29.42447,9.66397 -35.18463,23.4167c-5.78074,-3.52894 -12.54945,-5.59903 -19.81804,-5.59903c-21.06144,0 -38.13548,17.07384 -38.13548,38.13567c0,1.21143 0.07096,2.4059 0.18139,3.58879c-15.32246,1.18644 -27.39378,13.96818 -27.39378,29.59474c0,15.16685 11.37116,27.65461 26.04824,29.46373c0.70884,-7.77474 0.10687,-16.40064 -5.05112,-14.72976c-8.39105,2.71803 -17.60945,-10.04529 -12.29124,-23.40052c5.3186,-13.35444 22.45511,-15.00914 24.34599,-17.72757c1.89107,-2.71803 -4.01831,-23.51837 15.83663,-31.90949c19.85494,-8.39098 34.74616,0.11838 37.34614,-0.70923c2.60011,-0.82722 7.86208,-19.63995 34.74616,-22.92739c16.02551,-1.95973 27.64086,7.73857 34.41173,15.89384z" fill="#B51702"/>
    <path stroke="null" id="svg_5" d="m-129.11435,213.34666c0,0 21.61467,12.73675 22.82769,15.99013c1.21301,3.25311 -18.30619,20.18082 -18.30619,20.18082l-4.5215,-36.17094z" fill="#FF8B00"/>
    <path stroke="null" id="svg_6" d="m-124.59285,249.51761c0,0 7.88707,-6.84453 13.32287,-12.66704c-8.78098,-2.44444 -11.58188,-13.86453 -12.44672,-20.23554c-3.11211,-1.9204 -5.39752,-3.26837 -5.39752,-3.26837l4.52137,36.17094z" fill="#FF7300"/>
    <path stroke="null" id="svg_7" d="m-265.83095,342.70614c0,0 3.06502,37.37396 17.40156,37.17639c14.33654,-0.19783 19.77457,-38.56066 19.77457,-38.56066l-37.17613,1.38427z" fill="#FF8B00"/>
    <path stroke="null" id="svg_8" d="m-245.06184,376.01963c-11.54012,0.15916 -15.77461,-24.01321 -16.98841,-33.45423l-3.78089,0.14074c0,0 3.06521,37.37396 17.40175,37.17639c3.65245,-0.05051 6.72424,-2.58465 9.27877,-6.32418c-1.77525,1.5158 -3.73959,2.43128 -5.91123,2.46127z" fill="#FF7300"/>
    <path stroke="null" id="svg_9" d="m-416.69559,234.14543c0,0 24.89488,-0.72633 33.554,-29.16285c8.65918,-28.43684 29.49504,-102.03923 110.94477,-118.2748c81.44973,-16.23583 139.08685,72.24942 149.36943,156.40462c10.28258,84.15632 -50.6016,122.85141 -146.93407,116.89816c-96.3326,-5.95299 -137.19282,-72.32479 -146.93413,-125.86513z" fill="#FECE00"/>
    <path stroke="null" id="svg_10" d="m-140.54878,220.95699c-9.84654,-61.32449 -57.69709,-103.99271 -96.04651,-102.95596c-38.34922,1.03623 -90.51831,37.83104 -99.5012,62.87877c-8.98262,25.04865 -21.07473,55.96998 -21.07473,55.96998c-6.58666,17.06766 -0.09207,42.2431 20.46467,62.79958c20.55655,20.55674 81.75003,41.23897 131.29178,30.85826c41.61437,-8.71995 74.71253,-48.22608 64.86599,-109.55064zm-129.91409,79.80831c-14.84657,4.14571 -48.5317,-6.83795 -43.86762,-23.19848c0,0 11.88079,-29.66156 25.80602,-36.91701c13.92543,-7.25518 51.06572,6.34102 53.65675,18.45877c2.59123,12.11722 -20.74852,37.51075 -35.59515,41.65672z" fill="#FFDA3E"/>
    <path stroke="null" id="svg_11" d="m-288.62555,259.31535c0,0 -4.87842,13.92819 -3.72716,19.17089c1.15112,5.24218 29.56745,1.82307 29.56745,1.82307s-2.02991,4.48296 -13.89347,5.77437c-11.86356,1.29193 -23.41236,2.84088 -24.24826,-2.27923c-0.83564,-5.11985 12.30144,-24.4891 12.30144,-24.4891z" fill="#FCC000"/>
    <path stroke="null" id="svg_12" d="m-213.85376,248.33906c0.63479,5.6886 -3.98642,10.8737 -10.32178,11.58083c-6.33562,0.70687 -11.98602,-3.33151 -12.62107,-9.02064c-0.63479,-5.68913 3.98635,-10.8737 10.32184,-11.58083c6.33549,-0.70739 11.98595,3.33177 12.621,9.02064z" fill="#FF9999"/>
    <g stroke="null" id="svg_13" display="inline">
     <path stroke="null" id="svg_14" d="m-174.30238,214.03406c0,11.10678 -9.00433,20.11137 -20.1115,20.11137c-11.10743,0 -20.11163,-9.00459 -20.11163,-20.11137c0,-11.1075 9.0042,-20.11156 20.11163,-20.11156c11.10717,0 20.1115,9.00406 20.1115,20.11156z"/>
     <path stroke="null" id="svg_15" d="m-187.07807,224.21826c0,2.71882 -2.20399,4.92281 -4.92242,4.92281c-2.71869,0 -4.92242,-2.20399 -4.92242,-4.92281c0,-2.71829 2.20373,-4.92202 4.92242,-4.92202c2.71842,0 4.92242,2.20373 4.92242,4.92202z" fill="#FFFFFF"/>
     <path stroke="null" id="svg_16" d="m-175.44805,207.39308c-2.74592,-7.83906 -10.18919,-13.47058 -18.96583,-13.47058c-11.10717,0 -20.11163,9.00406 -20.11163,20.11156c0,0.40776 0.03696,0.80683 0.0609,1.20933c6.84716,1.23748 22.59632,2.4276 39.01656,-7.85031z" fill="#FCAE00"/>
     <path stroke="null" id="svg_17" d="m-175.44805,207.39308c-0.38145,-1.08858 -0.87247,-2.12244 -1.4261,-3.11645c-8.17803,7.59415 -29.03598,10.97754 -31.55132,5.20153c-1.12015,-2.5719 -0.67753,-6.39179 0.30345,-10.13118c-3.9313,3.67047 -6.4035,8.8841 -6.4035,14.68708c0,0.40776 0.03696,0.80683 0.0609,1.20933c6.84716,1.23748 22.59632,2.4276 39.01656,-7.85031z" fill="#F99300"/>
     <path stroke="null" id="svg_18" d="m-205.36939,205.8782c0,0 -0.80197,-5.66138 4.34024,-8.6334s18.39905,0.42459 18.77629,5.28374c0.37737,4.85915 -21.53615,12.45468 -23.11654,3.34966z" fill="#FFC145"/>
    </g>
    <path stroke="null" id="svg_19" d="m-288.62555,259.31535c-0.59013,0.22098 -10.77097,20.06612 -10.62345,24.19762c0.14752,4.13124 27.92143,0.25991 31.31515,-1.0678c3.39366,-1.32797 18.5561,-16.19532 18.5561,-16.19532s-6.71352,12.02515 -14.45979,17.7056c-7.74627,5.68098 -36.14918,7.59875 -39.69041,2.95085c-3.54104,-4.64738 14.9024,-27.59095 14.9024,-27.59095z" fill="#F99300"/>
    <path stroke="null" id="svg_20" d="m-256.27615,345.64699c-95.18299,-8.86832 -144.25267,-86.01964 -123.56078,-111.50314c20.69209,-25.4833 22.7612,-97.19067 90.45353,-124.38569c34.6333,-13.91385 72.26047,-8.5529 100.97353,-0.04525c-23.27043,-19.48276 -51.66565,-29.40981 -83.78697,-23.0067c-81.44973,16.23583 -102.28585,89.83822 -110.94477,118.2748c-8.65912,28.43651 -33.554,29.16285 -33.554,29.16285c9.74151,53.54034 50.60153,119.91188 146.93413,125.86513c41.42983,2.56019 76.27622,-3.16156 101.75169,-17.18262c-21.41224,3.94946 -50.57016,6.3326 -88.26638,2.82063z" fill="#FCC000"/>
    <path stroke="null" id="svg_21" d="m-288.45601,273.33562c0,0 4.202,-15.31272 5.56615,-17.00452c1.36421,-1.69153 29.63157,1.6918 30.45024,3.82002c0.81841,2.12823 -11.6781,14.6248 -14.51582,16.37105c-2.83753,1.74625 -22.8849,1.6889 -21.50057,-3.18656z" fill="#FFDA3E"/>
    <path stroke="null" id="svg_22" d="m-249.72843,363.12661c0,0 11.36425,-1.01334 12.59134,0c1.22702,1.01387 -2.93447,9.87061 -7.78947,10.03056c-4.8552,0.16021 -10.00616,-9.67884 -4.80187,-10.03056z" fill="#FFA039"/>
    <path stroke="null" id="svg_23" d="m-118.05361,222.31969c0,0 7.74541,4.31039 8.42215,5.92432c0.67675,1.61472 -1.73941,4.3993 -3.88908,4.41719c-2.1498,0.01763 -11.80759,-13.83559 -4.53307,-10.34151z" fill="#FFA039"/>
    <path stroke="null" id="svg_24" d="m-280.52875,69.79455c0,0 13.02277,-15.32575 33.58662,-15.13068c20.56391,0.19507 25.93815,22.19737 24.60807,26.60338c-1.33021,4.40588 -20.78384,-8.06399 -59.02599,1.6626c-38.24215,9.72698 -69.99992,44.06183 -74.8219,50.87874c-4.82179,6.8173 -11.47264,-7.98099 -4.6554,-14.7979c6.81704,-6.81717 22.94528,-12.05488 25.43937,-14.29938c2.49409,-2.24437 -2.16144,-16.37736 9.47739,-25.27304c11.63883,-8.89542 30.51062,-3.1592 34.7505,-3.8241c4.23995,-0.6653 8.4436,-3.57629 10.64134,-5.81961z" fill="#E02810"/>
    <g stroke="null" id="svg_25" display="inline">
     <g stroke="null" id="svg_26">
      <path stroke="null" id="svg_27" d="m-416.67133,234.16542c0,0 2.22122,-26.23318 -9.2991,-29.49734c-11.52039,-3.26429 -13.56272,17.61793 9.2991,29.49734z" fill="#CD2606"/>
      <path stroke="null" id="svg_28" d="m-418.37522,225.74143c0,0 -0.62834,-16.42597 -6.34082,-18.0445c-5.71241,-1.61866 -4.99548,12.15412 6.34082,18.0445z" fill="#E02810"/>
      <path stroke="null" id="svg_29" d="m-427.80816,204.36463c-9.82274,-0.61966 -10.44108,18.58826 11.13683,29.80079c0,0 0.09609,-1.21748 0.14363,-3.10027c-14.95166,-9.52257 -16.59242,-22.95363 -11.28047,-26.70052z" fill="#B51702"/>
     </g>
     <g stroke="null" id="svg_30">
      <path stroke="null" id="svg_31" d="m-416.67652,234.1649c0,0 13.67315,-7.57455 12.7063,-19.20746c-0.96658,-11.63245 -18.88297,-9.79597 -12.7063,19.20746z" fill="#CD2606"/>
      <path stroke="null" id="svg_32" d="m-416.44015,213.94462c-1.6989,4.15281 -2.25674,10.73269 -0.23637,20.22028c0,0 3.02556,-1.67628 6.12958,-4.6629c-4.38188,-6.33654 -4.13433,-14.63927 -3.2007,-19.51742c-0.99795,0.8997 -1.93487,2.21583 -2.69251,3.96004z" fill="#B51702"/>
      <path stroke="null" id="svg_33" d="m-410.21449,224.88908c0,0 7.48043,-8.49161 3.72006,-12.98003c-3.76057,-4.48809 -9.21919,2.91132 -3.72006,12.98003z" fill="#E02810"/>
     </g>
     <g stroke="null" id="svg_34">
      <path stroke="null" id="svg_35" d="m-416.67133,234.16542c0,0 -11.71374,-11.07547 -18.84725,-3.68376c-7.13391,7.39198 6.12517,14.59849 18.84725,3.68376z" fill="#CD2606"/>
      <path stroke="null" id="svg_36" d="m-436.31357,231.47502c-5.09966,7.00869 7.49293,13.11373 19.64225,2.69041c0,0 -0.32121,-0.29727 -0.84537,-0.73633c-10.21655,7.35436 -20.06336,3.62483 -18.79688,-1.95408z" fill="#B51702"/>
      <path stroke="null" id="svg_37" d="m-421.32692,233.14156c0,0 -5.77154,-4.15702 -9.98183,-3.40885c-4.20983,0.74896 -3.88007,4.26093 -1.64333,5.59969c2.23681,1.33928 9.20577,0.45642 11.62515,-2.19084z" fill="#E02810"/>
     </g>
    </g>
   </g>
   <g stroke="null" id="svg_38" display="none">
    <g stroke="null" id="svg_39" display="inline">
     <path stroke="null" id="svg_40" d="m666.5755,266.67708c-1.27575,1.27562 -23.25149,39.41432 -23.25149,39.41432l28.72569,-5.95483l12.39029,32.89258l26.08738,-35.16102l40.76242,13.89426l-7.01934,-36.29511l57.4898,-12.19299l-29.60895,-16.82037l40.45686,-14.3712l-72.59088,-38.56402l-73.44178,73.15839z" fill="#DD0000"/>
     <path stroke="null" id="svg_41" d="m741.52625,301.44402c-2.56571,0.82998 -28.29531,-8.67707 -31.3894,-8.29983c-3.09356,0.37671 -21.65532,27.9182 -23.69266,26.71072c-2.03747,-1.20723 -9.28094,-24.29601 -11.31828,-24.44727c-2.03694,-0.151 -16.82642,2.11271 -17.20327,-1.35796c-0.37777,-3.4712 12.48565,-24.90001 12.48565,-24.90001s6.22671,-8.67733 2.84009,-9.11982l-6.67288,6.64723c-1.27575,1.27562 -23.25149,39.41432 -23.25149,39.41432l28.72569,-5.95483l12.39029,32.89258l26.08738,-35.16102l40.76242,13.89426l-7.01895,-36.29511l57.4894,-12.19351c0,0 -61.21512,7.23387 -62.0451,8.44136c-0.83011,1.20722 4.37642,28.89866 1.8111,29.72891z" fill="#C40000"/>
     <path stroke="null" id="svg_42" d="m672.89311,271.84586c0,0 -6.20725,14.72424 -5.1505,17.03504c1.05662,2.31133 16.1114,-1.71653 17.56394,-0.65978c1.45267,1.05622 0.92429,17.56354 3.56551,18.75235c2.64121,1.18802 16.77131,-19.08277 20.46927,-18.88468c3.69744,0.19783 26.67586,7.79158 27.99647,7.13128s-7.65978,-26.21404 -5.01844,-27.9966c2.64121,-1.78282 49.65442,-5.9351 50.57858,-7.19362c0.92469,-1.25826 -23.70476,-15.38849 -21.26137,-17.76558c2.44325,-2.37683 34.46757,-9.70646 33.14696,-12.5455c-1.32061,-2.8393 -53.61584,-32.09041 -57.71012,-29.58113c-4.09375,2.50876 -64.1803,71.70822 -64.1803,71.70822z" fill="#FF2C2C"/>
    </g>
    <polygon stroke="null" id="svg_43" points="681.0603637695312,263.26167488098145 670.4083862304688,286.54072761535645 689.1613159179688,281.03279304504395 691.7125244140625,302.06810188293457 707.4681396484375,281.39546394348145 731.041015625,288.64915657043457 721.4396362304688,265.07502937316895 759.5206909179688,254.19474983215332 744.6512451171875,241.88865852355957 774.9842529296875,227.8444995880127 738.1231689453125,204.20947456359863 " fill="#FF9D00"/>
    <path stroke="null" id="svg_44" d="m723.34094,281.88194c-1.44425,-0.32279 -13.59751,-4.77733 -15.59881,-4.51926c-2.0013,0.25833 -10.45871,13.17003 -11.49165,12.78253c-1.03268,-0.38724 -1.80755,-13.62172 -2.96952,-14.20257c-1.16211,-0.58112 -9.94204,2.58229 -11.5557,0.90391c-0.89601,-0.93232 1.61156,-10.32257 4.15202,-18.56926l-4.81693,4.98437l-10.65206,23.27898l18.75301,-5.50788l2.55164,21.03526l15.75534,-20.67249l23.5727,7.2536l-9.60123,-23.57414l38.08096,-10.88027c0,0 -40.15815,6.89925 -41.19122,8.06149c-1.03255,1.16198 6.45624,19.94879 5.01147,19.62574z" fill="#FF8B00"/>
    <g stroke="null" id="svg_45" display="inline">
     <path stroke="null" id="svg_46" d="m437.38277,3.73659l0,-60.58704l43.82283,34.97937l26.734,-40.11705l18.74683,53.77401l45.88516,-18.6053l-10.51513,60.43551l-83.5727,78.31553l-43.03218,26.96234c0,0 0.0146,-53.26017 0.37356,-52.91779c0.35856,0.34238 -57.35405,-3.76768 -57.35405,-3.76768l37.67583,-29.47413l-33.90816,-31.83504l55.14401,-17.16276z" fill="#DD0000"/>
     <path stroke="null" id="svg_47" d="m382.23836,20.89935l33.90855,31.83464l-37.67622,29.47452c0,0 57.71301,4.11006 57.35445,3.76768c-0.35856,-0.34291 -0.37356,52.91779 -0.37356,52.91779l35.02173,-21.94338c0.18599,-1.10068 0.29845,-1.83898 0.29845,-1.83898s-20.14872,3.33795 -20.77627,0c-0.62755,-3.33808 -0.80315,-26.94406 -2.35289,-30.99769c-1.55013,-4.05363 -39.58163,-9.06089 -39.34303,-11.92216c0.23834,-2.86114 18.47915,-16.45247 19.07514,-19.45777c0.59638,-3.00478 -31.59354,-27.99239 -29.08965,-29.42296c2.50337,-1.43057 44.94627,-12.39897 47.45016,-15.26024c2.50337,-2.86153 -8.35244,-64.90124 -8.35244,-64.90124l0,60.58704l-55.1444,17.16276z" fill="#C40000"/>
     <path stroke="null" id="svg_48" d="m454.12119,3.44064c0,0 -7.00527,-34.12269 -5.64928,-37.96429c1.35586,-3.84186 30.05511,22.2588 34.12282,22.5979c4.06757,0.3387 20.11176,-32.08916 22.82361,-32.08916c2.71172,0 14.68872,41.80588 17.85239,44.06565c3.1638,2.25989 34.91347,-13.55858 36.83427,-12.65467c1.92106,0.90404 -9.03892,19.88618 -10.39491,22.82374c-1.35586,2.93796 -36.49544,15.02769 -57.17254,31.63721c-20.6767,16.60939 -30.39382,62.82194 -32.99268,64.17741c-2.5986,1.35599 -0.79105,-25.19636 -2.71145,-29.37692c-1.92119,-4.18056 -32.65397,-4.4068 -35.47868,-7.00527c-2.8251,-2.59886 17.40005,-15.14068 18.07824,-18.98214c0.67767,-3.84186 -25.4226,-18.7563 -25.0835,-22.37205c0.3387,-3.61536 36.72128,-10.95972 38.86819,-12.65467c2.14651,-1.69495 1.9254,-7.07498 0.90351,-12.20272z" fill="#FF2C2C"/>
    </g>
    <polygon stroke="null" id="svg_49" points="452.01458740234375,52.73435020446777 420.4549560546875,69.25629615783691 460.78369140625,80.07567024230957 455.0770568847656,110.15310096740723 485.93157958984375,104.71667671203613 540.11669921875,33.98519706726074 547.6902465820312,4.123855352401733 514.1505126953125,16.957024574279785 499.0032958984375,-26.81939125061035 484.0724792480469,9.100861072540283 452.01458740234375,-17.298229217529297 457.89007568359375,21.867599487304688 414.7209777832031,21.651309967041016 " fill="#FF9D00"/>
    <path stroke="null" id="svg_50" d="m420.45493,69.25631l40.32875,10.81898l-5.70663,30.07787l30.85445,-5.43645l54.18525,-70.73151l5.11696,-20.17582c-13.11662,5.61034 -32.14151,15.21947 -46.92021,28.72333c-25.04865,22.88793 -31.89213,51.35424 -33.57051,50.3213c-1.67825,-1.03307 2.45325,-18.5928 0,-20.14215c-2.45312,-1.54935 -22.59526,-3.61536 -22.8219,-6.71431c-0.22703,-3.09869 20.36878,-11.87862 18.86258,-14.71937c-1.5066,-2.84049 -46.06274,-29.62684 -46.06274,-29.62684l37.29359,31.08266l-31.55961,16.52231z" fill="#FF8B00"/>
    <g stroke="null" id="svg_51" display="inline">
     <path stroke="null" id="svg_52" d="m459.8511,145.77429c0,0 -20.0919,-15.3026 -29.49478,-11.47349c-9.40327,3.8291 -1.4207,42.95747 29.49478,61.88568c0,0 5.54734,-32.28212 0,-50.41219z" fill="#FECE00"/>
     <path stroke="null" id="svg_53" d="m431.92382,133.85094c-0.54902,0.10036 -1.07319,0.2486 -1.5675,0.44985c-9.40327,3.8291 -1.4207,42.95747 29.49478,61.88568c0,0 0.43078,-2.50797 0.93258,-6.51714c-23.72423,-16.68463 -32.34066,-45.32614 -28.85986,-55.81839z" fill="#FCC000"/>
     <path stroke="null" id="svg_54" d="m560.53947,16.957c0,0 -4.29184,-27.20187 23.06984,-37.02066c27.36155,-9.81866 43.46427,23.56533 43.46427,23.56533s25.52875,-22.91029 46.0826,-7.06959c20.55385,15.84084 9.94953,34.3 9.94953,34.3s37.80368,13.48426 19.22903,59.69813c-18.57412,46.21347 -142.04006,-48.70105 -142.04006,-48.70105l0.24479,-24.77216z" fill="#CD2606"/>
     <path stroke="null" id="svg_55" d="m638.85618,22.87737c-41.36958,-9.16427 -60.10562,7.61493 -66.76772,-5.92037c-3.24141,-6.5862 -3.08028,-18.37919 -2.06062,-28.7524c-12.13669,11.95951 -9.48837,28.7524 -9.48837,28.7524l-0.24479,24.77216c0,0 78.94992,60.69253 120.08221,61.38019l8.26313,-0.83261c6.25789,-1.53343 11.0443,-5.25257 13.69472,-11.84692c2.50139,-6.22382 3.97931,-11.85284 4.66579,-16.93652c-13.50465,-16.61479 -39.64359,-44.30254 -68.14436,-50.61593z" fill="#BC1A04"/>
     <g stroke="null" id="svg_56">
      <path stroke="null" id="svg_57" d="m751.28979,187.82416c0,0 10.10724,3.66126 25.81194,2.48798s29.50846,-12.91643 23.01618,-21.91799c-11.62989,-16.12469 -44.59981,5.86605 -48.82812,19.43002z" fill="#CD2606"/>
      <path stroke="null" id="svg_58" d="m769.28674,177.25129c1.86805,-2.78077 6.23408,-8.57158 9.41906,-12.74767c-12.28322,4.26067 -24.90751,15.27353 -27.41601,23.32055c0,0 10.10724,3.66126 25.81194,2.48798c2.50928,-0.18757 4.96951,-0.6461 7.30648,-1.3189c-6.06677,-6.77113 -18.22792,-7.11812 -15.12147,-11.74196z" fill="#BC1A04"/>
      <path stroke="null" id="svg_59" d="m751.29032,187.82416c0,0 35.01462,-23.60558 22.09727,-35.07697c-12.91774,-11.47139 -35.71768,6.7155 -22.09727,35.07697z" fill="#CD2606"/>
      <path stroke="null" id="svg_60" d="m767.41869,149.59918c-12.69032,-2.95216 -27.81442,13.89136 -16.12837,38.22499c0,0 1.46411,-0.98743 3.68283,-2.65581c-8.00585,-19.74702 1.76309,-33.9684 12.44553,-35.56917z" fill="#BC1A04"/>
      <path stroke="null" id="svg_61" d="m757.35222,178.4664c0,0 20.49742,-12.43922 14.41513,-22.12135c-3.28336,-5.22652 -18.71907,4.17517 -14.41513,22.12135z" fill="#E22C14"/>
      <path stroke="null" id="svg_62" d="m751.28979,187.82416c0,0 9.90968,-6.12464 22.33641,-3.47804c12.42686,2.64713 15.35731,24.67851 4.28434,25.97123c-11.07297,1.29285 -23.80472,-15.05926 -26.62075,-22.49319z" fill="#CD2606"/>
      <path stroke="null" id="svg_63" d="m781.22087,209.08146c-10.10803,-0.85208 -21.82723,-11.53242 -22.13516,-18.23924c-0.13732,-2.98702 1.35139,-5.18956 3.25758,-6.77456c-6.6346,1.02676 -11.0535,3.75649 -11.0535,3.75649c2.81602,7.43394 15.54778,23.78605 26.62035,22.4928c1.29206,-0.15021 2.39314,-0.58388 3.31072,-1.2355z" fill="#BC1A04"/>
      <path stroke="null" id="svg_64" d="m763.53526,188.78529c0,0 6.40889,-3.58879 11.7071,-1.1508c5.29874,2.43786 8.08188,12.97996 5.10656,16.11969c-2.97544,3.1392 -21.65795,-10.83516 -16.81366,-14.96889z" fill="#E22C14"/>
      <path stroke="null" id="svg_65" d="m775.05847,176.70884c0,0 2.61885,-8.66457 14.00514,-9.92165c7.03315,-0.77619 9.90139,7.20862 7.87274,10.33164c-2.02866,3.12276 -9.59255,6.43717 -12.28861,6.36285c-2.69646,-0.07432 -10.50514,-3.13684 -9.58926,-6.77284z" fill="#E22C14"/>
     </g>
     <path stroke="null" id="svg_66" d="m560.53947,16.957c0,0 2.73131,15.7581 10.04292,15.55856c7.31108,-0.19927 58.97837,-25.33302 106.5502,20.7451c47.57223,46.07773 50.79574,96.38377 50.79574,96.38377s7.54771,24.49581 26.09856,34.46928c0,0 0.06853,95.54714 -145.48022,102.12992c-145.54874,6.58225 -164.01054,-97.9074 -154.42706,-140.12867c9.15046,-40.31454 36.00653,-119.18449 106.41985,-129.15796z" fill="#FECE00"/>
     <path stroke="null" id="svg_67" d="m702.33474,160.99257c0,0 24.18368,-8.15488 28.70623,1.77414l-0.51956,-11.01812c0,0 -4.12913,-3.18656 -28.18667,9.24398z" fill="#FCC000"/>
     <path stroke="null" id="svg_68" d="m526.68643,71.40861c1.36717,-1.02715 69.09193,-45.31943 123.37176,-10.71599c54.27996,34.60345 26.59707,82.15528 33.51776,111.17732c6.92095,29.02217 40.85449,28.96285 39.73803,44.1737c-1.11594,15.21039 -130.43056,47.74098 -190.20709,0.71871c-55.36512,-43.55312 -38.6021,-121.17086 -6.42046,-145.35374z" fill="#FFDA3E"/>
     <path stroke="null" id="svg_69" d="m560.53947,16.957c-70.41333,9.97347 -97.26939,88.84342 -106.41985,129.15796c-9.58347,42.22127 8.87832,146.71092 154.42706,140.12867c70.27337,-3.1784 106.60085,-27.09532 125.38082,-50.98384c-83.41275,40.19011 -239.95647,33.24746 -252.61404,-61.60387c-15.34692,-115.00814 79.22601,-156.69893 79.22601,-156.69893z" fill="#FCC000"/>
     <path stroke="null" id="svg_70" d="m542.31063,98.20916c-1.04636,-1.18999 -2.85877,-1.30745 -4.05403,-0.2611l-11.30658,9.92915l-9.93046,-11.30868c-1.04662,-1.19236 -2.86153,-1.31022 -4.05389,-0.2611c-0.64544,0.56691 -0.97664,1.36086 -0.97664,2.15769c0,0.67319 0.23571,1.34928 0.71555,1.89633l9.92836,11.30618l-11.3096,9.93125c-1.19197,1.04623 -1.30982,2.86153 -0.26057,4.05389c0.56652,0.64504 1.36046,0.97625 2.1573,0.97625c0.67319,0 1.34968,-0.23571 1.8966,-0.71555l11.3071,-9.92875l9.93165,11.31c1.04623,1.19236 2.86114,1.30982 4.0535,0.26057c1.18999,-1.04623 1.30785,-2.85864 0.2611,-4.05389l-9.92954,-11.3075l11.30908,-9.93086c1.19236,-1.04662 1.31022,-2.86153 0.2611,-4.05389z"/>
     <path stroke="null" id="svg_71" d="m665.68238,96.65942c-1.04675,-1.18947 -2.85917,-1.30732 -4.05403,-0.2607l-11.30697,9.92875l-9.93046,-11.30829c-1.04623,-1.19236 -2.86166,-1.31022 -4.05403,-0.2611c-0.64491,0.56705 -0.97612,1.36046 -0.97612,2.15743c0,0.67359 0.23571,1.34968 0.71555,1.8966l9.92823,11.30618l-11.30947,9.93086c-1.19236,1.04675 -1.31022,2.86167 -0.2611,4.05403c0.56705,0.64531 1.36099,0.97651 2.15782,0.97651c0.67319,0 1.34928,-0.23571 1.8962,-0.71555l11.3071,-9.92915l9.93165,11.31c1.04662,1.19236 2.86153,1.31022 4.05389,0.2611c1.18947,-1.04636 1.30732,-2.85877 0.2611,-4.05403l-9.92954,-11.3075l11.30908,-9.93112c1.19236,-1.04636 1.31022,-2.86166 0.2611,-4.05403z"/>
     <ellipse stroke="null" id="svg_72" ry="8.52173" rx="10.65213" cy="134.30079" cx="494.50473" fill="#FF9999"/>
     <ellipse stroke="null" id="svg_73" ry="8.52173" rx="10.65213" cy="134.30079" cx="681.06041" fill="#FF9999"/>
     <g stroke="null" id="svg_74">
      <path stroke="null" id="svg_75" d="m572.60224,145.49412c0,0 -0.92877,-17.70889 7.41947,-22.33969c8.34876,-4.63054 25.20017,8.04399 26.72492,12.05067c1.52488,4.00681 -4.16346,18.80247 -4.16346,18.80247l-13.81297,7.06919c0,0 -6.92437,1.00808 -8.46043,-0.4801c-1.53606,-1.48792 -7.70753,-15.10253 -7.70753,-15.10253z" fill="#660000"/>
      <path stroke="null" id="svg_76" d="m606.74663,135.20509c-0.12864,-0.33778 -0.36646,-0.73738 -0.69884,-1.18315c0.18257,0.90391 0.27925,1.83688 0.27925,2.79182c0,8.09766 -6.87702,14.66215 -15.3606,14.66215s-15.361,-6.56449 -15.361,-14.66215c0,-6.96541 5.08868,-12.79607 11.91045,-14.2911c-2.78143,-0.60216 -5.40449,-0.52706 -7.49418,0.63176c-8.34823,4.6308 -7.41947,22.33969 -7.41947,22.33969s6.17147,13.61461 7.70792,15.10253c1.53567,1.48818 8.46004,0.4801 8.46004,0.4801l13.81297,-7.06919c0,0 5.68834,-14.79566 4.16346,-18.80247z" fill="#540000"/>
      <path stroke="null" id="svg_77" d="m573.29621,136.86861c-0.30963,0.18586 1.23892,18.57873 15.23446,18.95018c13.99593,0.37185 15.97776,-21.1793 15.97776,-21.1793s4.61265,5.88301 3.97839,16.72067c-0.63413,10.83766 -10.0474,23.34698 -29.92148,16.6111c-17.27838,-5.85605 -5.88841,-33.33177 -5.88841,-33.33177l0.61926,2.22912z" fill="#FF8B00"/>
      <g stroke="null" id="svg_78">
       <path stroke="null" id="svg_79" d="m580.80539,165.25573c-12.71242,-4.30841 -9.906,-20.31985 -7.53535,-28.4813l-0.59309,-2.13494c0,0 -11.38997,27.47572 5.88841,33.33177c13.35733,4.52702 21.98915,0.36067 26.40622,-6.14832c-4.83587,4.83639 -12.78581,7.29004 -24.16618,3.43279z" fill="#FF7300"/>
      </g>
      <path stroke="null" id="svg_80" d="m574.90659,138.293c0,0 4.92794,-8.40019 14.87866,-7.84288c9.95072,0.55744 11.8948,11.12532 16.66845,11.12532s2.01695,-26.19615 -17.74993,-25.39103c-19.76701,0.80512 -21.66374,32.88429 -13.79718,22.10859z" fill="#FF8B00"/>
      <path stroke="null" id="svg_81" d="m603.98427,137.97587c-2.01287,-1.65102 -7.12194,-9.74355 -15.61131,-9.10482c-8.48937,0.63821 -11.1365,5.42975 -14.2031,6.39797c-1.36875,0.43249 -2.54625,0.09221 -3.43147,-0.41617c-0.68188,4.99818 0.90101,7.91535 4.1682,3.44015c0,0 4.92794,-8.40019 14.87866,-7.84288c9.95072,0.55744 11.8948,11.12532 16.66845,11.12532c0.88483,0 1.51107,-0.90141 1.81781,-2.36354c-1.38374,0.25057 -2.90849,-0.10549 -4.28724,-1.23603z" fill="#FF7300"/>
      <path stroke="null" id="svg_82" d="m574.75125,130.16916c0,0 2.54993,-8.877 11.42667,-11.29789c8.877,-2.42089 18.8514,7.52114 20.46506,14.71937c1.61393,7.19836 -5.84237,-5.39081 -14.52562,-6.58475c-8.68325,-1.19447 -16.52692,5.32596 -17.36611,5.87473c-0.83959,0.54863 -0.50746,-1.35717 0,-2.71145z" fill="#FFA039"/>
      <path stroke="null" id="svg_83" d="m574.23879,147.61866c0,0 4.79851,12.62639 16.61057,10.92933c11.8118,-1.69745 12.11722,-13.48347 14.52733,-13.61501c2.40958,-0.13153 2.74907,16.83931 -8.41768,19.58852c-11.16715,2.7496 -20.28946,-2.71514 -22.72022,-8.07806c-2.43089,-5.36306 -1.91791,-12.39897 0,-8.82478z" fill="#FFA039"/>
      <path stroke="null" id="svg_84" d="m600.06178,142.36728c-0.64413,4.03114 -5.82119,6.55542 -11.56307,5.6377c-5.74188,-0.91758 -9.87482,-4.92926 -9.2307,-8.96079c0.64465,-4.03114 5.82159,-6.55502 11.5636,-5.63783c5.74188,0.91772 9.87469,4.92978 9.23017,8.96092z" fill="#770101"/>
     </g>
     <g stroke="null" id="svg_85">
      <path stroke="null" id="svg_86" d="m497.84945,200.06661c0,0 11.62449,-8.4628 21.63704,-0.39263c10.01267,8.06978 5.27638,33.20346 -5.0629,36.01856c-10.33914,2.81484 -32.43615,-23.50292 -16.57414,-35.62593z" fill="#FF8B00"/>
      <path stroke="null" id="svg_87" d="m506.73027,204.01107c0,0 5.24796,-4.10796 11.79339,2.13283c6.54542,6.24072 1.66181,23.40624 -4.01667,24.65266c-5.04593,1.10778 -19.60128,-19.21621 -7.77672,-26.78549z" fill="#FFA039"/>
      <path stroke="null" id="svg_88" d="m503.36601,201.43496c0,0 5.82659,-4.23988 12.782,-3.85436c-9.08614,-4.22002 -18.29856,2.486 -18.29856,2.486c-15.29207,11.68763 4.69605,36.56719 15.41664,35.81692c-10.57538,-5.31321 -22.80953,-24.58216 -9.90008,-34.44856z" fill="#FF7300"/>
     </g>
     <g stroke="null" id="svg_89">
      <path stroke="null" id="svg_90" d="m673.19143,207.27312c0,0 13.82665,-3.94735 20.45217,7.07426c6.62553,11.0218 -6.46821,32.99254 -17.14474,32.07864c-10.67626,-0.91338 -22.37126,-33.22615 -3.30744,-39.1529z" fill="#FF8B00"/>
      <path stroke="null" id="svg_91" d="m680.17354,214.03143c0,0 6.34115,-2.05148 10.33993,6.0598c3.99931,8.11173 -6.49149,22.54975 -12.25205,21.7666c-5.11893,-0.69582 -11.7947,-24.78663 1.91212,-27.82639z" fill="#FFA039"/>
      <path stroke="null" id="svg_92" d="m677.90115,210.4556c0,0 6.92898,-1.97683 13.32747,0.77776c-7.07998,-7.08787 -18.0372,-3.96024 -18.0372,-3.96024c-18.37906,5.71366 -8.16935,35.95108 2.15493,38.93429c-8.10226,-8.62682 -12.96102,-30.92824 2.5548,-35.75181z" fill="#FF7300"/>
     </g>
     <path stroke="null" id="svg_93" d="m702.33474,160.99257c0,0 21.02487,-10.18025 26.55814,-3.9096c5.53274,6.27065 -12.61521,33.27113 -12.61521,33.27113s21.56193,-20.20476 18.81194,-37.25505c-1.84438,-11.43443 -32.75486,7.89352 -32.75486,7.89352z" fill="#F99300"/>
     <path stroke="null" id="svg_94" d="m703.48317,165.88118c0,0 12.543,-6.80691 18.41391,-3.11448c5.87144,3.69257 -4.98108,23.30766 -9.20702,24.90883c-4.22528,1.60117 -16.01209,-16.67963 -9.20689,-21.79435z" fill="#FFDA3E"/>
     <path stroke="null" id="svg_95" d="m625.55291,8.25046c0,0 -20.4502,-27.12373 -36.73838,-22.81822s-10.40438,26.04713 -8.32337,28.70162c2.08101,2.65542 36.16437,-2.94164 70.74993,9.32817c34.58595,12.27033 49.43896,38.10213 51.66347,37.88668c2.22464,-0.21532 -8.18013,-22.02888 -23.39223,-29.70642c0,0 6.09926,-23.10509 -12.772,-31.71561c-18.87179,-8.61064 -41.18741,8.32377 -41.18741,8.32377z" fill="#E22C14"/>
     <path stroke="null" id="svg_96" d="m448.57609,145.01388c0,0 -7.24229,-7.81986 -13.12452,-6.11991s5.95023,25.05851 10.54052,29.17265c4.59016,4.11427 4.91387,-20.89163 2.584,-23.05274z" fill="#FFDA3E"/>
    </g>
    <path stroke="null" id="svg_97" d="m489.89622,14.54479c0,0 6.02915,-19.938 7.53654,-20.82862s9.45523,28.84486 11.64778,29.05032c2.19216,0.20546 19.11539,-6.89688 20.96555,-7.01105c1.84977,-0.11457 -24.87094,14.95889 -35.76503,23.04367c-10.89369,8.08464 -23.29516,33.70941 -24.11725,34.66856c-0.82222,0.95915 2.26108,-8.49608 0,-9.3183c-2.26068,-0.82209 -16.375,-2.26108 -16.30647,-3.28863c0.0684,-1.02768 17.06016,-9.93454 18.22503,-12.4696c1.16461,-2.53493 -31.85964,-18.63594 -31.3798,-20.28065c0.47931,-1.64444 21.9931,1.02794 24.39124,0c2.39801,-1.02768 -3.76846,-27.26869 -2.05562,-28.36516c1.71324,-1.09608 25.21372,23.1581 26.85803,14.79948z" fill="#FFB243"/>
    <path stroke="null" id="svg_98" d="m693.83827,270.11828c0,0 15.7973,-6.84953 30.93205,-20.76878c15.13489,-13.91951 22.92331,-29.99329 24.96683,-30.38c2.04365,-0.38671 16.40525,7.14417 15.79769,8.8749s-25.35367,11.5561 -26.07172,13.38232c-0.71792,1.82596 10.43963,9.61412 8.94843,11.1052c-1.4916,1.4916 -31.04281,7.51246 -32.36841,9.05878c-1.32561,1.54685 2.87245,11.87599 1.6572,13.36733c-1.21525,1.49108 -9.61123,-1.82281 -11.26843,-0.99414c-1.6572,0.8284 -6.90438,9.50048 -7.84367,9.50048c-0.93876,0 0.38684,-10.49488 -1.54632,-10.49488s-8.78243,1.65681 -9.72158,1.10489c-0.93889,-0.55244 3.973,-2.54782 6.51793,-3.7561z" fill="#FFB243"/>
    <g stroke="null" id="svg_99" display="inline">
     <polygon stroke="null" id="svg_100" points="562.7103881835938,322.0711841583252 581.2406616210938,293.6233386993408 585.1614379882812,323.03047370910645 621.6972045898438,313.94087409973145 595.14208984375,337.1098804473877 612.4296875,356.5359363555908 589.0822143554688,356.5359363555908 588.72607421875,379.88337898254395 570.903564453125,363.4865894317627 550.0516967773438,379.88337898254395 552.0119018554688,354.04100227355957 525.8132934570312,346.02086067199707 549.16064453125,335.5056629180908 540.605712890625,316.4359607696533 " fill="#DD0000"/>
     <path stroke="null" id="svg_101" d="m570.4064,326.89385c0,0 8.45412,-22.49319 9.25714,-22.56975c0.80354,-0.07655 3.02227,20.92504 3.9021,21.57508c0.87983,0.65057 24.78847,-7.22993 25.78327,-6.73273c0.9944,0.4972 -17.09962,17.18472 -17.44371,18.69158c-0.34436,1.5066 15.11042,13.81849 14.15377,14.83525c-0.95626,1.01676 -18.59122,0.6724 -19.20338,0.97862c-0.61216,0.30595 -0.42078,15.68391 -1.30061,16.29608c-0.87997,0.61216 -12.43264,-12.73833 -13.54201,-12.85329s-12.35622,8.53028 -13.46519,8.26274c-1.10976,-0.2678 0.72673,-12.62363 0,-14.53641c-0.72712,-1.91277 -14.19231,-6.27393 -14.15417,-7.03894c0.03828,-0.76474 11.82048,-4.91439 12.01173,-6.64591c0.19138,-1.73178 -4.16978,-10.60642 -3.59576,-11.02707c0.57362,-0.42091 16.76342,2.96689 17.59682,0.76474z" fill="#FF2C2C"/>
     <path stroke="null" id="svg_102" d="m571.34885,360.35334c-2.37302,-0.40486 -15.45439,11.2291 -16.20676,9.72435c-0.75211,-1.50554 0.28964,-16.84326 -0.46274,-18.0589c-0.75251,-1.21564 -15.62788,-5.09354 -16.09114,-7.06156c-0.46274,-1.96776 13.9495,-7.17679 14.70201,-8.20381c0.75198,-1.02728 -6.36693,-13.03823 -4.63054,-13.73063c1.73612,-0.69293 14.29649,3.81792 16.66924,2.83404c2.37315,-0.98361 15.91173,-32.23359 15.91173,-32.23359l-18.53019,28.4475l-22.10477,-5.6352l8.55501,19.07014l-23.34738,10.51513l26.19865,8.02019l-1.96026,25.84206l20.85191,-16.39657l17.82253,16.39657c0,0 -15.00414,-19.12407 -17.37729,-19.52972z" fill="#C40000"/>
     <polygon stroke="null" id="svg_103" points="559.67578125,337.2880115509033 555.3982543945312,327.66380500793457 565.022216796875,329.8028736114502 573.9332275390625,316.4359607696533 575.3593139648438,332.11949348449707 592.9710693359375,325.88154792785645 582.3097534179688,338.53535652160645 597.2806396484375,351.1893482208252 581.0621948242188,348.3379077911377 583.200927734375,363.4865894317627 573.398681640625,353.32823371887207 559.8539428710938,362.5953845977783 563.4185180664062,348.1595935821533 549.16064453125,344.0602283477783 " fill="#FF9D00"/>
     <path stroke="null" id="svg_104" d="m565.02217,329.80286l-9.62399,-2.13901l4.27763,9.62412l-10.51513,6.77219l14.25782,4.09941l-3.56459,14.43591l13.54477,-9.26713l9.80222,10.15815l-0.90312,-6.39758c-3.45094,-2.22425 -8.66326,-6.26867 -9.07707,-6.45177c-0.54626,-0.24229 -8.70193,5.95536 -9.08956,4.84179c-0.38724,-1.11383 1.59788,-8.47319 0.89102,-9.2966c-0.70673,-0.82314 -9.02511,-2.66278 -8.5412,-3.97024c0.48431,-1.30719 4.59976,-2.85693 5.51985,-4.16438c0.91969,-1.30719 -2.71145,-6.14898 -1.83977,-6.77824c0.87155,-0.62952 4.86112,-1.46661 4.86112,-1.46661z" fill="#FF8B00"/>
     <path stroke="null" id="svg_105" d="m567.19617,330.63364c0,0 4.0656,-7.34436 4.78694,-7.60664c0.72134,-0.26175 1.70495,10.85212 2.4914,11.21332c0.78684,0.36014 11.31118,-4.7213 11.86849,-4.26224c0.55744,0.45879 -6.72089,8.13067 -6.75364,8.78651c-0.03288,0.65557 10.91763,7.96678 10.42582,8.91778c-0.49181,0.95073 -10.72098,-1.90173 -11.08165,-1.44267s1.21314,6.13109 0.91811,6.42625c-0.29516,0.29516 -5.01646,-5.01646 -5.77016,-4.98358c-0.75448,0.03262 -6.95094,5.33504 -7.4755,4.99515c-0.52456,-0.33936 2.3934,-8.27405 1.70495,-8.66734c-0.68858,-0.39355 -7.37672,-1.08174 -7.14719,-2.16374s3.67166,-2.91796 3.73729,-3.60641c0.06564,-0.68871 -2.75367,-6.42599 -1.90159,-6.81954c0.85234,-0.39329 3.71322,0.07603 4.19674,-0.78684z" fill="#FFB243"/>
    </g>
   </g>
   <g stroke="null" id="svg_106">
    <path stroke="null" id="svg_107" d="m97.00508,344.90566c0,0 -25.80642,7.26728 -26.39951,21.357c-0.59348,14.08972 45.38375,11.71657 64.96109,-7.11891l106.19204,0c0,0 20.91202,24.76795 44.49392,20.17029s-6.82256,-40.04437 -6.82256,-40.04437l-182.42498,5.63599z" fill="#FF8B00"/>
    <path stroke="null" id="svg_108" d="m286.25262,379.31404c5.45842,-1.06411 8.00006,-3.79214 8.72021,-7.34015c-30.30661,7.88313 -46.80735,-17.03399 -46.80735,-17.03399s-106.62741,-5.9935 -115.81115,2.51336s-47.94828,20.20397 -52.00849,7.54009c-1.51935,-4.73919 -0.3975,-9.43681 1.63484,-13.49755c-5.79212,3.53328 -11.10993,8.46135 -11.37511,14.76685c-0.59348,14.08972 45.38375,11.71657 64.96109,-7.11891l106.19204,0c0,0 20.91202,24.76795 44.49392,20.17029z" fill="#FF7300"/>
    <path stroke="null" id="svg_109" d="m144.23913,84.9564c0,0 -18.57873,-56.60904 13.91543,-63.96037c32.49468,-7.35186 40.28718,33.81766 40.28718,33.81766s12.93892,-36.17055 37.34673,-27.93636c24.40742,8.2338 17.05569,49.10907 17.05569,49.10907s20.87874,-12.792 36.4644,0.88233c15.58553,13.67394 0,34.99397 0,34.99397s21.908,-4.11703 29.99487,23.52548c8.08687,27.64211 -26.46593,52.79414 -26.46593,52.79414s-145.85759,-43.97226 -146.15143,-46.0309c-0.29424,-2.05852 -2.44694,-57.19503 -2.44694,-57.19503z" fill="#CD2606"/>
    <path stroke="null" id="svg_110" d="m299.33307,159.05388c-7.49576,-8.63169 -30.09694,-59.17265 -68.37218,-74.09748c-38.27471,-14.92522 -66.32773,5.04382 -69.54836,0.95494c-3.22102,-4.08836 -10.52184,-20.89742 -12.22548,-41.56833c-0.77987,-9.46273 4.1607,-17.51921 9.80419,-23.5018c-0.28175,0.05722 -0.55074,0.08997 -0.83669,0.15482c-32.49416,7.35173 -13.91543,63.96037 -13.91543,63.96037s2.1527,55.13651 2.44694,57.19503c0.29385,2.05865 146.15143,46.0309 146.15143,46.0309s15.2776,-11.1344 23.13535,-26.72203c-5.8254,1.53396 -12.77042,2.04891 -16.63978,-2.40642z" fill="#BC1A04"/>
    <g stroke="null" id="svg_111">
     <path stroke="null" id="svg_112" d="m345.42119,233.01976c0,0 9.06128,-2.04878 19.94129,-10.22655c10.87988,-8.17724 15.44728,-23.15948 6.52582,-26.68145c-15.98184,-6.30919 -29.71641,25.067 -26.46711,36.908z" fill="#CD2606"/>
     <path stroke="null" id="svg_113" d="m353.58514,216.93414c0.06274,-2.89429 0.53916,-9.14382 0.9089,-13.66769c-6.95042,8.82807 -11.00063,22.72857 -9.07286,29.75331c0,0 9.06168,-2.04878 19.94129,-10.22655c1.73849,-1.30666 3.3148,-2.78748 4.70144,-4.36695c-7.57218,-2.09771 -16.58243,3.32151 -16.47878,-1.49213z" fill="#BC1A04"/>
     <path stroke="null" id="svg_114" d="m345.42119,233.01976c0,0 14.46906,-33.50467 -0.27938,-35.82757c-14.74884,-2.32303 -22.85728,21.54319 0.27938,35.82757z" fill="#CD2606"/>
     <path stroke="null" id="svg_115" d="m339.33062,197.68518c-10.61063,3.77017 -13.76022,23.07898 6.09057,35.33458c0,0 0.60506,-1.40137 1.44136,-3.65008c-15.034,-10.63457 -14.55837,-25.53789 -7.53193,-31.6845z" fill="#BC1A04"/>
     <path stroke="null" id="svg_116" d="m345.46802,223.3838c0,0 9.11363,-18.60957 0.17271,-22.81828c-4.8264,-2.27186 -11.67356,11.76761 -0.17271,22.81828z" fill="#E22C14"/>
     <path stroke="null" id="svg_117" d="m345.42119,233.01976c0,0 4.35406,-9.07746 14.63059,-12.94668c10.27613,-3.86922 22.68247,10.79451 15.22854,16.89903c-7.4538,6.10478 -24.34389,0.14364 -29.85913,-3.95235z" fill="#CD2606"/>
     <path stroke="null" id="svg_118" d="m377.11273,234.52925c-7.75225,4.09362 -21.25979,1.78756 -24.61195,-2.949c-1.49292,-2.10929 -1.43649,-4.40562 -0.78908,-6.44835c-4.34866,3.84133 -6.29051,7.88786 -6.29051,7.88786c5.51524,4.09651 22.40533,10.0566 29.85913,3.95235c0.86957,-0.71213 1.46845,-1.54106 1.83241,-2.44286z" fill="#BC1A04"/>
     <path stroke="null" id="svg_119" d="m354.77922,228.00882c0,0 2.98952,-5.59969 7.98178,-6.29682c4.992,-0.69713 11.93373,5.67545 11.23279,9.34737c-0.70055,3.67218 -20.81153,2.21609 -19.21456,-3.05055z" fill="#E22C14"/>
     <path stroke="null" id="svg_120" d="m357.5321,213.84807c0,0 -2.13533,-7.52568 5.56352,-13.75029c4.75537,-3.84528 10.56617,0.62702 10.54618,3.84554c-0.01986,3.21865 -3.9776,9.15763 -5.9739,10.36091c-1.99669,1.20301 -9.10692,2.61675 -10.13579,-0.45616z" fill="#E22C14"/>
    </g>
    <path stroke="null" id="svg_121" d="m156.19641,102.90179c0,0 42.02081,-40.37729 92.49284,0c50.47204,40.37768 60.09694,125.4406 97.65742,128.68635c0,0 29.70813,119.21343 -105.92647,136.11535c-135.63459,16.90219 -206.23799,-37.75962 -216.96147,-111.27269c-11.01891,-75.54271 70.55854,-161.01477 120.7804,-171.4744c0,0 4.12242,10.24536 11.95728,17.94539z" fill="#FECE00"/>
    <path stroke="null" id="svg_122" d="m333.21518,244.2286c-6.391,-11.65159 -25.37156,-0.55008 -37.70082,-21.00843c-12.32873,-20.45842 -39.18861,-105.43131 -73.29314,-114.9965c-34.10493,-9.56506 -45.88345,12.08276 -59.44072,14.01974c-13.55779,1.93698 -14.33227,-23.04735 -34.86204,-10.45831c-20.52938,12.58864 -50.25869,93.56143 -50.25869,93.56143c-8.87621,22.44051 5.64901,83.22683 57.2312,110.38424c51.58219,27.15715 145.257,21.29939 168.1106,4.44955c22.85386,-16.84957 36.60501,-64.30039 30.21361,-75.95172zm-104.58508,64.06442c-1.93645,11.8873 -23.02038,1.28299 -34.36392,0c-11.34354,-1.28273 -27.99949,12.24928 -41.94439,5.58022c-13.94463,-6.66906 -42.41515,-42.19523 -23.24123,-51.06276c0,0 22.12187,-9.64174 40.01543,-4.99358c17.89396,4.6479 35.69781,-9.48995 47.22853,-4.64817c11.53071,4.84152 14.24256,43.2375 12.30558,55.12428z" fill="#FFDA3E"/>
    <path stroke="null" id="svg_123" d="m144.23913,272.13629c0,0 32.61241,-2.25371 39.52428,24.54145l3.89592,-3.75478l-2.38972,-8.53922l-3.67626,-5.62599c0,0 2.65897,-13.6325 26.94774,-15.94725c0,0 -16.88706,6.79008 -19.1075,14.06946c-2.22083,7.27965 4.05771,15.87253 4.05771,15.87253l-4.7188,-1.65602l-4.54623,-6.34075c0,0 -7.29793,-12.20325 -14.11721,-14.59612c-6.8198,-2.39261 -16.23675,-2.29764 -25.86995,1.9767z" fill="#FCC000"/>
    <path stroke="null" id="svg_124" d="m276.86553,343.42484c-135.63459,16.90219 -206.23759,-37.76014 -216.96108,-111.27321c-7.49997,-51.41455 27.89861,-107.40564 67.10642,-141.23961c-49.54945,22.90042 -113.38119,98.13594 -103.55214,165.51878c10.72348,73.51307 81.32688,128.17514 216.96147,111.27269c39.75723,-4.95412 65.29361,-18.70395 81.55101,-35.66033c-12.51104,5.20693 -27.38562,9.17374 -45.10569,11.38168z" fill="#FCC000"/>
    <g stroke="null" id="svg_125">
     <rect stroke="null" id="svg_126" height="11.4827" width="43.35418" fill="#161616" y="188.18181" x="158.12431"/>
     <path stroke="null" id="svg_127" d="m170.10658,197.15272c-1.44346,0 -2.61385,-1.17039 -2.61385,-2.61385l0,-6.25486c0,-0.03617 0.01907,-0.06603 0.02026,-0.10168l-9.38867,0l0,11.48218l43.35418,0l0,-2.51178l-31.37191,0z"/>
     <g stroke="null" id="svg_128">
      <path stroke="null" id="svg_129" d="m285.55207,180.24067l0,11.49138c0,19.44988 -15.76691,35.21686 -35.21679,35.21686l-19.83054,0c-19.44935,0 -35.2164,-15.76698 -35.2164,-35.21686l0,-11.49138l90.26373,0z" fill="#161616"/>
      <path stroke="null" id="svg_130" d="m279.76205,186.02832l0,6.70971c0,11.35643 -11.69131,20.5626 -26.11316,20.5626l-14.70451,0c-14.42184,0 -26.11276,-9.20617 -26.11276,-20.5626l0,-6.70971l66.93042,0z" fill="#282828"/>
      <path stroke="null" id="svg_131" d="m257.39039,219.89366l-19.83054,0c-19.44948,0 -35.21679,-15.76724 -35.21679,-35.21673l0,-4.43626l-7.05472,0l0,11.49138c0,19.44949 15.76704,35.21633 35.2164,35.21633l19.83054,0c11.52571,0 21.72635,-5.56181 28.15089,-14.1205c-5.8842,4.41667 -13.17174,7.06577 -21.09577,7.06577z"/>
     </g>
     <g stroke="null" id="svg_132" opacity="0.15">
      <path stroke="null" id="svg_133" d="m250.33527,226.94839c19.44988,0 35.21679,-15.76685 35.21679,-35.21633l0,-11.49138l-48.51888,46.70771l13.30209,0z" fill="#FFFFFF"/>
      <path stroke="null" id="svg_134" d="m227.7112,180.24067c-10.14868,8.63051 -21.38265,18.15216 -29.68945,25.10586c2.26568,5.3987 5.84158,10.10599 10.32507,13.74213c12.42015,-12.68131 26.66981,-27.22469 38.07385,-38.848l-18.70947,0z" fill="#FFFFFF"/>
     </g>
     <g stroke="null" id="svg_135">
      <path stroke="null" id="svg_136" d="m165.19008,180.24067l0,11.49138c0,19.44988 -15.76691,35.21686 -35.2164,35.21686l-19.8308,0c-19.44948,0 -35.2164,-15.76698 -35.2164,-35.21686l0,-11.49138l90.2636,0z" fill="#161616"/>
      <path stroke="null" id="svg_137" d="m159.40006,186.02832l0,6.70971c0,11.35643 -11.69131,20.5626 -26.11316,20.5626l-14.70451,0c-14.42171,0 -26.11276,-9.20617 -26.11276,-20.5626l0,-6.70971l66.93042,0z" fill="#282828"/>
      <path stroke="null" id="svg_138" d="m137.02841,219.89366l-19.83054,0c-19.44948,0 -35.21679,-15.76724 -35.21679,-35.21673l0,-4.43626l-7.05459,0l0,11.49138c0,19.44949 15.76691,35.21633 35.2164,35.21633l19.83041,0c11.52571,0 21.72674,-5.56181 28.15102,-14.1205c-5.88433,4.41667 -13.17174,7.06577 -21.0959,7.06577z"/>
     </g>
     <g stroke="null" id="svg_139" opacity="0.15">
      <path stroke="null" id="svg_140" d="m129.97329,226.94839c19.44988,0 35.21679,-15.76685 35.21679,-35.21633l0,-11.49138l-48.51888,46.70771l13.30209,0z" fill="#FFFFFF"/>
      <path stroke="null" id="svg_141" d="m107.34935,180.24067c-10.14881,8.63051 -21.38239,18.15216 -29.68958,25.10586c2.26568,5.3987 5.84158,10.10599 10.32507,13.74213c12.42015,-12.68131 26.66981,-27.22469 38.07399,-38.848l-18.70947,0z" fill="#FFFFFF"/>
     </g>
     <path stroke="null" id="svg_142" d="m191.55144,195.46514l-20.20318,0c-1.24379,0 -2.25227,-1.00848 -2.25227,-2.25227l0,-1.17671c0,-1.24379 1.00847,-2.25227 2.25227,-2.25227l20.20318,0c1.24392,0 2.252,1.00847 2.252,2.25227l0,1.17671c0,1.24379 -1.00808,2.25227 -2.252,2.25227z" fill="#282828"/>
    </g>
    <g stroke="null" id="svg_143">
     <path stroke="null" id="svg_144" d="m23.45873,148.45996c0,0 16.47786,-4.54662 16.47786,-16.47786c0,0 3.8266,16.47786 16.47799,16.47786c0,0 -16.47799,5.39739 -16.47799,16.47786c0,0 -3.04081,-16.47786 -16.47786,-16.47786z" fill="#F98E00"/>
     <path stroke="null" id="svg_145" d="m335.29198,104.51177c0,0 16.47786,-4.54662 16.47786,-16.47786c0,0 3.8266,16.47786 16.47786,16.47786c0,0 -16.47786,5.39739 -16.47786,16.47786c0,0 -3.04134,-16.47786 -16.47786,-16.47786z" fill="#F98E00"/>
     <path stroke="null" id="svg_146" d="m52.36265,178.98728c0,0 22.56383,-6.22619 22.56383,-22.56383c0,0 5.23968,22.56383 22.56383,22.56383c0,0 -22.56383,7.39132 -22.56383,22.56343c0,0 -4.16438,-22.56343 -22.56383,-22.56343z" fill="#F98E00"/>
    </g>
    <ellipse stroke="null" id="svg_147" ry="8.52133" rx="10.65213" cy="226.94891" cx="295.51443" fill="#FF9999"/>
    <path stroke="null" id="svg_148" d="m67.06664,226.94891c0,4.70631 -4.76905,8.52133 -10.65206,8.52133c-5.88314,0 -10.65219,-3.81503 -10.65219,-8.52133c0,-4.70657 4.76905,-8.52238 10.65219,-8.52238c5.88301,0 10.65206,3.81582 10.65206,8.52238z" fill="#FF9999"/>
    <g stroke="null" id="svg_149">
     <path stroke="null" id="svg_150" d="m173.75337,233.95628c0,0 2.23043,14.01948 7.40171,14.05105c5.17154,0.03104 10.65627,-10.65666 10.65627,-10.65666s-9.3187,-6.85216 -18.05798,-3.39438z" fill="#FF8B00"/>
     <path stroke="null" id="svg_151" d="m182.59065,246.05351c-4.15952,-0.02578 -6.4131,-9.08956 -7.13733,-12.64021c-0.56731,0.14206 -1.13462,0.3191 -1.69995,0.54297c0,0 2.23043,14.01948 7.40171,14.05105c3.05002,0.01842 6.20001,-3.68586 8.27852,-6.73246c-1.95973,2.47548 -4.43206,4.79259 -6.84295,4.77865z" fill="#FF7300"/>
     <path stroke="null" id="svg_152" d="m173.75298,233.95628c0,0 3.09737,-11.06389 10.7077,-11.06179c4.51676,0.00105 12.83185,14.24756 12.30111,21.32701c0,0 -12.52222,-8.93804 -23.00881,-10.26522z" fill="#FF8B00"/>
     <path stroke="null" id="svg_153" d="m179.20811,230.3383c0,-2.16269 1.54474,-4.88493 3.1467,-7.11812c-6.07177,1.76967 -8.60144,10.73611 -8.60144,10.73611c10.4862,1.32718 23.00842,10.26522 23.00842,10.26522c0.04393,-0.58901 0.00697,-1.24063 -0.06393,-1.91567c-5.59916,-6.29945 -17.48975,-8.2559 -17.48975,-11.96754z" fill="#FF7300"/>
     <path stroke="null" id="svg_154" d="m181.89299,229.58723c0,0 0.86444,-3.72111 3.37412,-4.32433c2.50928,-0.60296 8.74218,10.68218 8.99907,12.67335c0,0 -12.78003,-6.03691 -12.37319,-8.34902z" fill="#FFA039"/>
     <path stroke="null" id="svg_155" d="m178.97608,236.56014c0,0 7.03276,1.48029 8.44004,3.46962c1.40742,1.98959 -3.68257,4.34616 -5.2377,4.19174c-2.2349,-0.22203 -5.77095,-8.09463 -3.20234,-7.66136z" fill="#FFA039"/>
    </g>
    <path stroke="null" id="svg_156" d="m212.80926,308.29302c0,0 -1.46714,-14.18232 -23.31844,-17.76479c-0.61216,-3.06212 -2.60465,-8.04649 -6.16147,-12.65836l-0.00829,-0.02736c2.41419,-9.67147 25.85956,-14.98783 25.22004,-15.03203c-18.4243,-1.25957 -26.04423,8.53922 -28.06671,11.8218c-7.25926,-7.19862 -19.04107,-11.7142 -36.23526,-2.496c0,0 18.84508,-6.90977 30.30911,3.14104c11.46429,10.05029 12.50354,17.43438 9.73605,19.0049c-2.76736,1.57052 -21.35687,2.98057 -25.75407,12.24613c0,0 9.02971,-5.65335 16.33212,-6.59593c7.19494,-0.92811 13.29919,-2.55493 14.68004,-6.73299c4.74669,1.05122 17.93907,4.82337 23.26688,15.09359z" fill="#F99300"/>
    <path stroke="null" id="svg_157" d="m148.6429,277.19089c0,0 18.91164,1.38401 25.11047,8.96434c6.19843,7.58007 -8.43465,8.56842 -15.6192,12.65546c-7.18455,4.08678 -19.54577,-23.21979 -9.49127,-21.6198z" fill="#FFDA3E"/>
    <path stroke="null" id="svg_158" d="m209.40396,265.84025c-0.32121,0.10707 -10.48738,3.58458 -14.56087,11.28303c-4.07389,7.69845 1.47332,10.60195 5.46013,12.37871c3.9872,1.77651 11.18083,7.10681 13.52122,11.7876c2.33987,4.68026 3.85686,-7.45406 2.85996,-16.7283c-0.9969,-9.27371 -2.47035,-20.32472 -7.28044,-18.72105z" fill="#FFDA3E"/>
    <path stroke="null" id="svg_159" d="m198.36046,60.62909c0,0 -17.84121,-38.86569 -33.75755,-33.31349c-15.91634,5.55233 -0.14824,47.15723 3.10934,48.71184c3.25719,1.55474 38.27352,-10.12579 74.17798,8.92896c35.90459,19.05436 56.78096,66.952 61.74126,69.6912c4.96004,2.73868 16.9527,-12.28901 5.18207,-28.13155c-11.77103,-15.84241 -23.98572,-11.10441 -23.98572,-11.10441s12.36293,-26.05883 -0.44445,-36.57107c-12.80699,-10.51224 -35.09026,1.48082 -35.09026,1.48082s-4.08888,-46.26898 -19.55234,-48.41602c-15.46359,-2.14651 -31.38032,28.72372 -31.38032,28.72372z" fill="#E22C14"/>
    <path stroke="null" id="svg_160" d="m90.67261,352.67041c0,0 21.65243,7.44696 21.65243,10.02425c0,2.57781 -21.25151,6.67354 -26.34965,2.11955c-5.09828,-4.55399 -2.1719,-13.8569 4.69723,-12.14379z" fill="#FFA039"/>
    <path stroke="null" id="svg_161" d="m270.69406,364.75659c0,0 14.55587,-6.19685 16.73895,-5.69755c2.18347,0.4993 6.03033,7.41329 3.55183,9.20663c-5.69584,4.1215 -26.76267,-0.49404 -20.29078,-3.50908z" fill="#FFA039"/>
   </g>
   <g stroke="null" id="svg_162" display="none">
    <path stroke="null" id="svg_163" d="m-817.54681,205.85834c0,0 -8.64379,-45.80045 33.61424,-91.63169c0,0 -2.60997,23.76579 11.06028,43.47058c0,0 5.22126,-64.33104 44.86057,-90.26202c39.63964,-25.93098 65.57062,-53.06261 73.25382,-83.5556c0,0 13.68577,18.48784 12.48526,48.98083c0,0 9.11337,-24.2501 21.24388,-36.49557c0,0 -0.34429,69.44707 50.55188,99.19098c0,0 -4.08698,-16.25083 2.63589,-30.46932c0,0 17.01011,38.36402 42.35945,71.4977c25.34907,33.1342 23.42979,69.62978 18.62706,79.71407l19.20733,-14.40639c0,0 19.47329,46.47319 -24.83799,98.02841c0,0 12.59279,-3.02293 20.5163,-11.86941c0,0 -9.20952,53.58033 -58.14753,71.34801c-48.93788,17.76742 -89.94686,6.24237 -130.66838,1.92067s-66.21567,16.6357 -105.09037,-5.00805c-38.8749,-21.64348 -42.47645,-79.57681 -74.89024,-84.82425c0,0 11.28507,-9.63911 33.61444,0c0,0 -21.36897,-42.7774 -10.08436,-87.15945c0,0 6.00258,15.65248 19.68848,21.53049z" fill="#FF7900"/>
    <path stroke="null" id="svg_164" d="m-728.01172,67.43521c-39.63931,25.93098 -44.86077,90.26162 -44.86077,90.26162c-13.67005,-19.7044 -11.06034,-43.47019 -11.06034,-43.47019c-42.25777,45.83123 -33.61411,91.63129 -33.61411,91.63129c-13.68577,-5.87762 -19.68835,-21.5301 -19.68835,-21.5301c-11.28461,44.38205 10.08436,87.15945 10.08436,87.15945c-22.32937,-9.63911 -33.61444,0 -33.61444,0c32.41392,5.24718 36.01534,63.18077 74.89024,84.82425c33.39274,18.59162 56.91282,5.74964 88.69196,4.49717l5.34517,-17.7811c0,0 -53.06221,23.18691 -85.94368,5.63915c-32.88126,-17.54802 -47.30495,-69.10561 -47.30495,-69.10561c5.68301,-2.52599 12.62889,0 12.62889,0c-16.7333,-30.62492 -16.41748,-68.3875 -16.41748,-68.3875c10.34611,16.93987 26.52052,12.82047 26.52052,12.82047c-11.3659,-39.4649 12.81528,-76.40413 12.81528,-76.40413c6.19889,18.80957 25.22378,17.68021 25.22378,17.68021c0.46879,-26.83607 20.36917,-71.03706 67.34496,-106.08168c46.97605,-35.04501 42.21278,-75.30891 42.21278,-75.30891c-7.6832,30.49299 -33.61417,57.62462 -73.25382,83.5556z" fill="#FF4E00"/>
    <path stroke="null" id="svg_165" d="m-755.51125,172.35689c0,0 0.64952,-41.61489 33.34045,-75.8336c32.6912,-34.2191 62.61162,-48.79576 67.54837,-79.26047c0,0 8.7237,14.43052 8.36073,30.3191c0,0 9.77913,-16.03419 20.23198,-24.48884c0,0 11.44193,66.76061 62.98557,88.33385c0,0 -0.08859,-10.49527 0,-18.3663c0,0 16.44964,35.65217 37.56258,65.88578c21.11287,30.23321 8.20322,69.9671 8.20322,69.9671s15.83564,-3.93578 23.1239,-11.07784c0,0 -9.07851,62.43891 -35.51439,87.04771c0,0 11.09474,2.44023 21.6006,1.86884c0,0 -28.16279,59.41257 -111.1278,51.06091c-82.96521,-8.35165 -99.14507,-19.28401 -99.14507,-19.28401s-46.17835,10.64062 -69.15099,-9.91218s-24.72178,-44.02119 -24.72178,-44.02119s9.55309,-3.00556 14.57639,0.29174c0,0 -18.80365,-39.23202 -20.11558,-52.48596c0,0 18.5974,-0.6169 24.38545,-5.11327c0,0 -1.77572,-39.31061 3.82818,-58.12636c0,0 20.4721,9.90008 34.02818,3.19497z" fill="#FF8F33"/>
    <g stroke="null" id="svg_166" display="inline">
     <path stroke="null" id="svg_167" d="m-667.60198,56.92337c0,0 11.90716,18.41483 7.22269,34.31867c0,0 18.54518,-13.28472 27.10611,-26.56932c0,0 6.39087,12.17734 11.35064,34.31828s39.27825,66.69958 54.7769,73.61896c0,0 14.81237,-13.83822 12.6646,-33.21142c0,0 18.55821,29.35417 3.38767,80.64007c0,0 12.52801,-6.19133 17.74973,-14.21724c0,0 4.43041,39.30271 -34.90913,99.06201c0,0 18.34012,3.89316 34.90913,-3.30257c0,0 10.203,41.57964 -102.99259,52.064c-113.19546,10.48409 -169.87007,-54.27799 -169.87007,-54.27799s27.8913,-0.49062 42.00621,-11.31592c0,0 -36.62566,-50.68157 -14.71503,-103.12656c0,0 11.6706,33.4785 32.4278,47.66792c20.75707,14.18994 14.26163,-43.50985 14.26163,-43.50985s-22.33864,-32.80129 -9.72053,-55.77275c12.61811,-22.97132 61.34468,-54.79913 74.34424,-76.38631z" fill="#FF7900"/>
     <g stroke="null" id="svg_168">
      <path stroke="null" id="svg_169" d="m-742.90419,299.92032c0,0 -3.85988,-7.47248 -24.61715,-39.5477c-20.7572,-32.07443 -11.39378,-75.44827 -11.39378,-75.44827c-21.91063,52.44499 14.71483,103.12656 14.71483,103.12656c-0.29464,0.22624 -0.59598,0.44695 -0.90226,0.66399l22.19836,11.20543z" fill="#FF4E00"/>
      <path stroke="null" id="svg_170" d="m-567.14564,172.60996c-9.19453,-4.10506 -25.01247,-21.45657 -37.39513,-39.51652l-17.38176,59.44335c0,0 8.00427,80.53734 7.97625,81.75404c-0.02762,1.21643 -31.79972,35.03948 -85.27094,46.15468c-53.47102,11.11493 -106.98907,-21.07867 -106.98907,-21.07867s56.67435,64.76208 169.8702,54.27772c25.0572,-2.3208 44.0667,-6.16581 58.47979,-10.74506c16.26392,-14.03079 28.31327,-28.87735 35.26559,-38.36994c-13.47801,2.9398 -25.66206,0.35383 -25.66206,0.35383c14.37166,-21.83184 22.90088,-40.93223 27.93932,-56.38412c-17.92776,-14.02237 -36.26867,-42.19805 -23.82965,-64.17142c16.03314,-28.32228 9.66207,-44.9293 9.66207,-44.9293c2.14776,19.37319 -12.6646,33.21142 -12.6646,33.21142z" fill="#FF4E00"/>
      <path stroke="null" id="svg_171" d="m-711.06191,245.88489l4.58174,-46.15238c0,0 -44.43545,-50.64763 -15.39927,-79.1538c20.43705,-20.06414 38.99381,-43.41863 48.19267,-55.49218c-18.06784,20.91991 -57.15228,48.0026 -68.25945,68.22314c-12.61811,22.97145 9.72053,55.77275 9.72053,55.77275s1.9621,17.42964 0.28326,30.77388c11.36702,14.09024 20.88051,26.02858 20.88051,26.02858z" fill="#FF4E00"/>
     </g>
     <path stroke="null" id="svg_172" d="m-550.9498,153.84827c0,0 3.65285,25.63042 0,46.41709c-3.65285,20.78686 -1.24655,23.22209 0.81183,23.48279c2.05832,0.26096 11.62535,-7.82736 12.75609,-7.13154c1.13054,0.69555 -2.95709,18.96018 -5.56634,20.5257c-2.60932,1.56552 -15.56816,-13.39416 -19.30795,-29.39685c-3.74005,-16.00354 6.96765,-28.35345 8.48463,-36.35522c1.51712,-8.00138 2.23865,-22.55344 2.82174,-17.54197z" fill="#FF8F33"/>
     <path stroke="null" id="svg_173" d="m-713.61645,122.17778c0,0 34.91742,-38.65944 41.90769,-49.30322c6.99034,-10.64391 4.51953,22.0836 9.03892,26.08948c4.51946,4.00588 20.13221,-17.66693 26.50039,-17.46147c6.36825,0.20546 12.35892,34.94162 21.4327,48.79905c9.07358,13.85729 -90.45709,29.26446 -99.7014,27.21002c-9.24438,-2.05431 -11.62186,-21.37804 0.8217,-35.33386z" fill="#FF8F33"/>
     <path stroke="null" id="svg_174" d="m-764.40285,224.07094c0,0 -8.58276,-13.86644 -11.45889,-22.80276c-2.87594,-8.93606 -3.3999,19.87533 4.71446,35.28276c8.1145,15.40717 6.74443,-12.48 6.74443,-12.48z" fill="#FF8F33"/>
     <path stroke="null" id="svg_175" d="m-777.78169,297.52034c0,0 -9.32896,2.41234 -17.25187,3.80161c-7.92292,1.38874 48.22378,11.19333 47.87186,11.40457c-0.35199,0.21124 -30.61999,-15.20618 -30.61999,-15.20618z" fill="#FF8F33"/>
    </g>
    <g stroke="null" id="svg_176" display="inline">
     <g stroke="null" id="svg_177">
      <path stroke="null" id="svg_178" d="m-531.52004,269.10494c0,0 6.83138,-1.06201 15.32325,-6.58199c8.49174,-5.51945 12.64178,-16.41051 6.19699,-19.47763c-11.54544,-5.4942 -23.33206,17.1037 -21.52023,26.05962z" fill="#CD2606"/>
      <path stroke="null" id="svg_179" d="m-524.64342,257.5762c0.19316,-2.14559 0.86346,-6.76114 1.3675,-10.1008c-5.60765,6.20159 -9.31902,16.31633 -8.24412,21.62954c0,0 6.83138,-1.06254 15.32305,-6.58199c1.35698,-0.88181 2.60202,-1.9012 3.71184,-3.00399c-5.51531,-1.94066 -12.47954,1.62577 -12.15826,-1.94276z" fill="#BC1A04"/>
      <path stroke="null" id="svg_180" d="m-531.51985,269.10494c0,0 12.44027,-24.14132 1.60847,-26.61338c-10.8318,-2.4718 -18.0612,14.83578 -1.60847,26.61338z" fill="#CD2606"/>
      <path stroke="null" id="svg_181" d="m-534.2507,242.56311c-8.0682,2.26134 -11.3853,16.43682 2.73085,26.5413c0,0 0.52028,-1.00966 1.2553,-2.63648c-10.62266,-8.65708 -9.51396,-19.69782 -3.98615,-23.90482z" fill="#BC1A04"/>
      <path stroke="null" id="svg_182" d="m-530.99647,261.95315c0,0 7.70917,-13.35391 1.2845,-16.93139c-3.46778,-1.93172 -9.26279,8.14436 -1.2845,16.93139z" fill="#E22C14"/>
      <path stroke="null" id="svg_183" d="m-531.52004,269.10494c0,0 3.6929,-6.51885 11.51828,-8.87095c7.82538,-2.35131 16.29259,9.16401 10.44937,13.3184c-5.84336,4.15386 -18.08028,-1.12725 -21.96765,-4.44745z" fill="#CD2606"/>
      <path stroke="null" id="svg_184" d="m-508.06823,271.83165c-5.96272,2.64621 -15.87425,0.24939 -18.12263,-3.43673c-1.0015,-1.64155 -0.84314,-3.34387 -0.25879,-4.82732c-3.42332,2.63122 -5.07039,5.53734 -5.07039,5.53734c3.88737,3.32019 16.12429,8.60131 21.96745,4.44745c0.68168,-0.48484 1.16829,-1.06964 1.48437,-1.72073z" fill="#BC1A04"/>
      <path stroke="null" id="svg_185" d="m-524.31827,265.85867c0,0 2.50323,-4.00549 6.24473,-4.2704c3.7417,-0.26439 8.57197,4.81864 7.86563,7.50931c-0.70641,2.69014 -15.56297,0.59033 -14.11037,-3.23891z" fill="#E22C14"/>
      <path stroke="null" id="svg_186" d="m-521.55689,255.48533c0,0 -1.20374,-5.69571 4.82725,-9.92665c3.72526,-2.61333 7.81249,1.0015 7.63486,3.38991c-0.17784,2.38814 -3.41714,6.59646 -4.96043,7.38882s-6.8934,1.48134 -7.50168,-0.85208z" fill="#E22C14"/>
     </g>
     <g stroke="null" id="svg_187">
      <path stroke="null" id="svg_188" d="m-685.7114,142.81173c0,0 -12.76937,-37.13628 -1.43807,-45.14633s24.07746,8.20552 29.37738,24.81162c0,0 3.63963,-26.76517 23.56698,-24.4207c19.92735,2.3446 12.89407,34.3847 12.89407,34.3847s12.7966,-16.31344 24.03017,-9.57295c11.23357,6.73996 1.95375,34.18872 1.95375,34.18872s16.6061,-4.00496 23.44393,13.48058c6.83776,17.48515 -13.48038,40.63628 -13.48038,40.63628l-85.54085,-32.2307c0,0 -20.93319,-20.32314 -20.93359,-21.10458c-0.0002,-0.78158 6.12661,-15.02664 6.12661,-15.02664z" fill="#CD2606"/>
      <path stroke="null" id="svg_189" d="m-574.70829,194.71605c-6.78264,-3.02174 -16.61919,-11.03811 -28.17003,-25.55413c-17.16723,-21.5735 -41.37754,-24.38164 -55.63957,-22.53305c-14.26183,1.84885 -19.63212,-3.69757 -24.82642,-26.93919c-2.32224,-10.39057 -2.46167,-17.94618 -1.84392,-23.16639c-0.65721,0.30424 -1.31173,0.68306 -1.96124,1.14212c-11.33131,8.01006 1.43807,45.14633 1.43807,45.14633s-6.12681,14.24506 -6.12661,15.02664c0.00039,0.78145 20.93359,21.10458 20.93359,21.10458l85.54085,32.2307c0,0 6.25434,-7.12654 10.65528,-16.4576z" fill="#B51702"/>
      <path stroke="null" id="svg_190" d="m-657.77208,129.40718c0,0 -13.94121,-27.98489 -20.82652,-26.92078c-6.88491,1.06451 4.27145,33.72098 8.99242,37.43052c4.72091,3.70914 32.76545,-2.07969 50.01942,9.8914c17.25378,11.97109 34.61916,33.8829 41.47665,34.50795c6.85736,0.62426 7.92436,-24.05464 -21.13181,-25.17847c0,0 7.85156,-27.98252 -1.91074,-31.81031c-9.76229,-3.82739 -24.39163,11.80259 -24.39163,11.80259s2.19196,-32.99018 -11.12795,-34.84494c-13.31971,-1.85477 -21.09985,25.12204 -21.09985,25.12204z" fill="#E22C14"/>
     </g>
     <path stroke="null" id="svg_191" d="m-776.94828,254.15972c0,0 -19.1776,-8.3606 -25.70961,-4.80732c-6.53187,3.55354 -6.47959,35.22021 21.52924,45.14844l8.25636,-20.27499l-4.07599,-20.06612z" fill="#FECE00"/>
     <path stroke="null" id="svg_192" d="m-800.40615,248.63291c-0.85156,0.13864 -1.61235,0.37172 -2.25174,0.71949c-6.53187,3.55301 -6.47959,35.22021 21.52924,45.14844l2.21353,-5.43632c-21.17995,-9.08877 -24.60038,-31.29575 -21.49103,-40.43161z" fill="#FCC000"/>
     <path stroke="null" id="svg_193" d="m-732.82746,348.66676c0,0 3.92183,32.30856 13.63303,31.18815c9.71133,-1.12068 22.22375,-23.54337 22.22375,-23.54337l-35.85677,-7.64479z" fill="#FF8B00"/>
     <path stroke="null" id="svg_194" d="m-716.15059,376.00016c-7.7583,0.85603 -11.98161,-17.81609 -13.54135,-26.66494l-3.13552,-0.66846c0,0 3.92183,32.3083 13.63303,31.18815c4.124,-0.47616 8.75277,-4.79338 12.71426,-9.60334c-3.19221,3.0737 -6.56804,5.40607 -9.67042,5.74859z" fill="#FF7300"/>
     <path stroke="null" id="svg_195" d="m-685.7114,142.81173c0,0 2.23642,10.9784 12.87605,17.48436c0,0 33.20523,-33.80201 76.43623,23.29884c43.23099,57.10091 37.80802,72.85323 66.7303,84.73211c0,0 -31.31804,94.51414 -137.93316,98.64564c-106.61505,4.13176 -126.49919,-69.22741 -115.65331,-116.47383c10.84575,-47.24687 52.28425,-106.66773 97.5439,-107.68712z" fill="#FECE00"/>
     <path stroke="null" id="svg_196" d="m-687.86455,171.6641c0,0 4.23706,9.64819 12.10743,8.81899c7.87037,-0.8288 28.63941,-17.99445 46.12561,-7.02855c17.48646,10.9659 54.36769,80.51603 72.60614,97.48846c18.23838,16.97269 -43.59357,67.44012 -100.7467,61.63813c-57.15294,-5.80225 -80.89235,-43.1528 -80.97969,-77.60537c-0.10588,-41.75195 41.21168,-98.43853 50.88722,-83.31167z" fill="#FFDA3E"/>
     <path stroke="null" id="svg_197" d="m-759.02322,268.84713c0.19796,-78.95209 73.31182,-126.0354 73.31182,-126.0354c-45.25965,1.01979 -86.69816,60.44025 -97.5439,107.68712c-10.84588,47.24641 9.03813,120.60559 115.65331,116.47383c29.12543,-1.12883 52.63137,-9.00275 71.4147,-19.85251c-83.04985,10.9684 -163.01607,-6.46729 -162.83593,-78.27304z" fill="#FCC000"/>
     <g stroke="null" id="svg_198">
      <path stroke="null" id="svg_199" d="m-681.56937,246.00327c0,0 4.00832,6.83822 4.48375,11.8481c0.47537,5.00989 -4.90025,13.09163 -4.90025,13.09163s11.18997,-2.3037 12.2871,-2.85246c1.09713,-0.54824 5.04659,-5.22929 5.04659,-6.43572c0,-1.20696 -0.47543,-3.25022 -0.36586,-4.1849c0.10977,-0.93495 -0.6215,-2.0622 -2.0478,-4.03969c-1.42623,-1.97802 -10.56656,-8.49871 -14.50352,-7.42697z" fill="#660000"/>
      <path stroke="null" id="svg_200" d="m-681.56937,246.00327c0,0 4.00832,6.83822 4.48355,11.8481c0.47556,5.00989 -4.90006,13.09163 -4.90006,13.09163s6.3593,-1.30929 9.95966,-2.18873c2.06101,-1.66759 3.4024,-2.96873 1.76986,-2.4034c-3.80082,1.31561 -4.44823,-1.89173 -4.99423,-7.93679c-0.43248,-4.78891 -2.54019,-9.2553 -3.39701,-10.90421c-0.06018,-0.11601 -0.39303,-0.71029 -0.84787,-1.51738c-0.77862,-0.13916 -1.48476,-0.14942 -2.0739,0.01079z" fill="#540000"/>
      <path stroke="null" id="svg_201" d="m-690.91582,247.51013c0,0 16.90245,-4.16096 23.31384,12.74149c0,0 -4.23896,9.71619 -18.12138,9.89166c0,0 1.6426,7.27596 12.08105,6.00429c10.43819,-1.27167 15.36573,-16.77591 15.36573,-16.77591s-2.86114,-20.738 -15.89575,-24.44727c-13.03461,-3.70901 -17.59136,8.9575 -16.74349,12.58575z" fill="#FF8B00"/>
      <path stroke="null" id="svg_202" d="m-685.08759,242.07959c-0.32285,-2.54967 1.048,-5.19824 2.48725,-7.19967c-6.5931,2.25371 -8.94527,9.93507 -8.31548,12.63021c0,0 16.90245,-4.16096 23.31384,12.74149c-3.10737,-16.77302 -16.84523,-13.11426 -17.48561,-18.17202z" fill="#FF7300"/>
      <path stroke="null" id="svg_203" d="m-678.12488,244.04998c0,0 8.07957,2.00353 10.90408,11.69237c2.82444,9.68883 -6.89714,13.33444 -10.90408,14.77948c-4.00687,1.44504 0.21124,5.06592 5.70544,3.28863c5.49433,-1.77782 11.73446,-11.92624 12.03015,-15.63735c0.29556,-3.71164 -5.8863,-20.2671 -14.25617,-21.48012c-8.36967,-1.21275 -8.66872,5.68203 -3.47942,7.35699z" fill="#FFA039"/>
      <path stroke="null" id="svg_204" d="m-673.319,260.68594c0,0 -0.74376,-4.50348 -1.32646,-7.00921c-0.5823,-2.50573 5.07875,4.39431 5.11728,6.02875c0.03815,1.63418 -3.18945,4.40535 -3.79082,0.98046z" fill="#770101"/>
     </g>
     <path stroke="null" id="svg_205" d="m-609.20749,222.01874c-0.7919,-0.8997 -2.16315,-0.98914 -3.06732,-0.1973l-8.55494,7.5122l-7.51325,-8.55632c-0.7919,-0.9018 -2.16519,-0.99098 -3.06725,-0.19704c-0.48832,0.42854 -0.73883,1.02965 -0.73883,1.63234c0,0.50956 0.17829,1.02097 0.54126,1.43504l7.51181,8.55422l-8.55672,7.51404c-0.90206,0.79158 -0.99124,2.1648 -0.1973,3.06712c0.42874,0.48799 1.02952,0.7387 1.63234,0.7387c0.50943,0 1.02097,-0.17836 1.43491,-0.54113l8.55501,-7.51246l7.5143,8.55711c0.79184,0.90206 2.16519,0.99151 3.06725,0.19757c0.89996,-0.7921 0.98921,-2.16322 0.1973,-3.06765l-7.51286,-8.55527l8.55685,-7.51378c0.90206,-0.79184 0.99138,-2.16506 0.19743,-3.06739z"/>
     <ellipse stroke="null" id="svg_206" ry="6.4473" rx="8.05965" cy="250.49886" cx="-597.57221" fill="#FF9999"/>
     <path stroke="null" id="svg_207" d="m-714.56744,222.01874c-0.79171,-0.8997 -2.16295,-0.98914 -3.06712,-0.1973l-8.55494,7.5122l-7.51345,-8.55632c-0.79171,-0.9018 -2.16499,-0.99098 -3.06725,-0.19704c-0.48813,0.42854 -0.73876,1.02965 -0.73876,1.63234c0,0.50956 0.17843,1.02097 0.5414,1.43504l7.51181,8.55422l-8.55665,7.51404c-0.90226,0.79158 -0.99151,2.1648 -0.19757,3.06712c0.42893,0.48799 1.02972,0.7387 1.63254,0.7387c0.50943,0 1.02097,-0.17836 1.43498,-0.54113l8.55501,-7.51246l7.51424,8.55711c0.79164,0.90206 2.16499,0.99151 3.06732,0.19757c0.89996,-0.7921 0.98901,-2.16322 0.1973,-3.06765l-7.51286,-8.55527l8.55665,-7.51378c0.90226,-0.79184 0.99131,-2.16506 0.19737,-3.06739z"/>
     <path stroke="null" id="svg_208" d="m-742.90419,250.49885c0,3.56038 -3.60839,6.4473 -8.05938,6.4473c-4.45119,0 -8.05965,-2.88692 -8.05965,-6.4473c0,-3.5609 3.60845,-6.44808 8.05965,-6.44808c4.451,0 8.05938,2.88718 8.05938,6.44808z" fill="#FF9999"/>
     <g stroke="null" id="svg_209">
      <path stroke="null" id="svg_210" d="m-614.51491,334.63123c0,0 14.37909,0.005 17.72007,12.42317c3.34098,12.41791 -15.28674,29.94384 -25.30119,26.13144c-10.01425,-3.81345 -12.3774,-38.09556 7.58112,-38.55461z" fill="#FF8B00"/>
      <path stroke="null" id="svg_211" d="m-609.65951,343.04892c0,0 6.66084,-0.22992 8.27648,8.66813c1.61577,8.89778 -12.43922,19.89644 -17.76282,17.56065c-4.73044,-2.07614 -4.52794,-27.07375 9.48634,-26.22877z" fill="#FFA039"/>
      <path stroke="null" id="svg_212" d="m-610.86141,338.98582c0,0 7.20572,0.00368 12.60048,4.41088c-4.85902,-8.76125 -16.25379,-8.76546 -16.25379,-8.76546c-19.24199,0.44248 -17.73605,32.32119 -8.62945,38.02742c-5.41903,-10.52171 -3.96123,-33.29981 12.28276,-33.67284z" fill="#FF7300"/>
     </g>
     <path stroke="null" id="svg_213" d="m-588.26996,272.62191c0,0 3.54078,5.50788 7.73739,4.85257c4.19654,-0.65583 20.01199,-6.63513 22.50385,1.76967c2.49159,8.40427 -18.04503,25.63924 -18.04503,25.63924s17.96676,-7.86866 21.11419,-22.0323c3.14756,-14.16364 -9.90139,-12.26191 -19.54038,-10.22918c-9.63905,2.03274 -13.77002,0 -13.77002,0z" fill="#F99300"/>
     <path stroke="null" id="svg_214" d="m-720.51024,363.74246c0,0 11.12355,1.3627 11.73531,3.00372c0.61196,1.6405 -4.50512,6.34023 -7.61966,6.22921c-3.11461,-0.11128 -7.84222,-9.511 -4.11565,-9.23293z" fill="#FFA039"/>
     <path stroke="null" id="svg_215" d="m-788.82973,253.96926c0,0 -6.76785,-1.88963 -9.65003,-0.86234c-2.88212,1.02702 3.00879,21.21862 7.5095,22.31194c3.57511,0.86865 4.5803,-20.87611 2.14053,-21.4496z" fill="#FFDA3E"/>
    </g>
    <path stroke="null" id="svg_216" d="m-566.27344,335.85766c-0.36751,0.14811 18.76399,-18.53979 23.98447,-28.87183l6.55371,-1.13093c0,0 -3.32664,19.02568 -30.53817,30.00276z" fill="#FF8F33"/>
   </g>
  </g>
 </g>
</svg>