<svg width="400" height="400" xmlns="http://www.w3.org/2000/svg">

 <g>
  <title>background</title>
  <rect fill="none" id="canvas_background" height="402" width="402" y="-1" x="-1"/>
 </g>
 <g>
  <title>Layer 1</title>
  <g stroke="null" id="svg_330">
   <g stroke="null" id="svg_331" display="none">
    <g stroke="null" id="svg_332" display="inline">
     <path stroke="null" id="svg_333" d="m1501.16076,303.93802c0,0 7.73704,0.99515 18.67437,-2.31882c10.93659,-3.31447 18.85573,-13.81402 12.83461,-19.16284c-10.78599,-9.58093 -30.65951,11.20679 -31.50898,21.48167z" fill="#CD2606"/>
     <path stroke="null" id="svg_334" d="m1512.23466,293.60433c0.88343,-2.26469 3.06002,-7.05663 4.65537,-10.51751c-8.02594,4.95977 -15.22505,14.75528 -15.72927,20.85121c0,0 7.73704,0.99515 18.67363,-2.31932c1.74816,-0.52932 3.41758,-1.24296 4.96666,-2.08948c-5.36703,-3.83567 -14.03525,-2.15887 -12.56639,-5.9249z" fill="#BC1A04"/>
     <path stroke="null" id="svg_335" d="m1501.16076,303.93802c0,0 21.06628,-22.25485 10.1041,-28.337c-10.96292,-6.08141 -24.23482,10.40456 -10.1041,28.337z" fill="#CD2606"/>
     <path stroke="null" id="svg_336" d="m1508.68027,274.58249c-10.27586,-2.49133 -20.55246,12.8169 -7.51951,29.35553c0,0 1.00377,-1.06086 2.45958,-2.78244c-8.35126,-13.03 -2.73126,-24.68367 5.05992,-26.57309z" fill="#BC1A04"/>
     <path stroke="null" id="svg_337" d="m1503.97445,296.35183c0,0 12.55014,-12.05035 6.71137,-17.94622c-3.15181,-3.18232 -12.59739,5.91678 -6.71137,17.94622z" fill="#E22C14"/>
     <path stroke="null" id="svg_338" d="m1501.16076,303.93802c0,0 6.04991,-5.90472 15.2691,-5.99479c9.21993,-0.0908 14.7789,15.04959 7.14103,17.71588c-7.63762,2.66654 -19.2406,-6.9011 -22.41013,-11.7211z" fill="#CD2606"/>
     <path stroke="null" id="svg_339" d="m1525.71967,314.26039c-7.29311,0.99515 -17.2818,-4.71615 -18.56043,-9.41753c-0.57017,-2.09341 0.13682,-3.88882 1.23607,-5.31314c-4.53675,1.77646 -7.23454,4.4083 -7.23454,4.4083c3.16953,4.81999 14.77251,14.38763 22.41013,11.7211c0.89081,-0.31105 1.60199,-0.79164 2.14878,-1.39873z" fill="#BC1A04"/>
     <path stroke="null" id="svg_340" d="m1509.98548,302.68251c0,0 3.97101,-3.55489 8.10887,-2.66604c4.1386,0.88835 7.77666,7.91496 6.16581,10.60881c-1.6106,2.69385 -17.05245,-4.24884 -14.27468,-7.94277z" fill="#E22C14"/>
     <path stroke="null" id="svg_341" d="m1516.23668,292.30748c0,0 0.48503,-6.55044 8.34978,-9.24134c4.85888,-1.66179 8.15292,3.53963 7.20944,6.0723c-0.94274,2.53267 -5.77577,6.07599 -7.69668,6.44955c-1.9214,0.3738 -7.93612,-0.56033 -7.86254,-3.28051z" fill="#E22C14"/>
     <path stroke="null" id="svg_342" d="m1266.0488,360.46363c-1.64751,0.57829 -23.1875,16.19141 -21.01903,23.13041c2.16847,6.93974 34.55104,4.62633 56.09103,-6.64961c21.54023,-11.27594 94.979,11.99917 94.83431,13.29971c-0.14396,1.30152 24.28699,7.0837 39.03267,7.51729c14.74519,0.4336 -4.40215,-24.4558 -4.40215,-24.4558l-164.53683,-12.842z" fill="#FF8B00"/>
     <path stroke="null" id="svg_343" d="m1440.09126,390.27441c-18.1106,6.30756 -39.18549,-4.44447 -39.18549,-4.44447s-1.20235,2.31489 -2.65645,5.55701c6.40033,2.14263 24.76365,6.02259 36.73846,6.37449c5.5041,0.16168 6.28516,-3.20447 5.10348,-7.48702z" fill="#FF7300"/>
     <path stroke="null" id="svg_344" d="m1289.54514,377.76536c-9.28317,3.92401 -33.49732,8.80454 -37.90045,1.34976c-0.92354,-1.56286 -1.27421,-3.59992 -1.25132,-5.84271c-3.60804,3.82632 -6.18427,7.69521 -5.36359,10.32163c1.92386,6.15474 27.61795,5.03064 48.43199,-3.171c0.17053,-2.52332 -0.7444,-3.99882 -3.91663,-2.65768z" fill="#FF7300"/>
     <path stroke="null" id="svg_345" d="m1271.99511,192.25526c0,0 -30.98336,-21.24727 -35.82377,-54.05821c0,0 27.55544,-3.73804 50.19049,11.21392c0,0 -12.17241,-50.46247 6.16581,-71.02121c0,0 31.62932,14.53639 44.50429,44.44019c0,0 15.07961,-33.64165 35.2632,-46.10148c0,0 19.76771,19.72803 17.89897,53.57725c0,0 30.26627,-8.72186 51.16251,-1.24591c0,0 1.31235,16.55573 -12.15395,37.14314c0,0 27.85886,4.38966 37.41174,18.09559c0,0 -10.32532,22.42754 -64.34705,35.30288c-54.02173,12.8751 -119.09694,-0.90718 -130.27223,-27.34615z" fill="#CD2606"/>
     <path stroke="null" id="svg_346" d="m1390.1941,130.30572c1.86874,-33.84922 -17.89897,-53.57725 -17.89897,-53.57725c-20.18359,12.45983 -35.2632,46.10148 -35.2632,46.10148c-12.87571,-29.9038 -44.50429,-44.44019 -44.50429,-44.44019c-18.33822,20.55874 -6.16581,71.02121 -6.16581,71.02121c-22.63505,-14.95196 -50.19049,-11.21392 -50.19049,-11.21392c4.84042,32.81094 35.82377,54.05821 35.82377,54.05821c4.16197,9.8478 15.80408,17.93883 31.56534,23.55121c8.5528,-7.18268 24.11129,-21.85743 6.43724,-20.30712c-23.30587,2.04432 -64.73931,-41.70567 -57.5151,-47.2935c7.22322,-5.5882 45.1126,12.40243 42.79575,5.99694c-2.3171,-6.40587 -8.45068,-54.65379 3.54332,-56.15298c11.99376,-1.49925 38.16253,41.70586 43.61421,34.07334c5.45119,-7.63252 22.07964,-39.66123 27.53133,-40.07034c5.45169,-0.40874 6.13284,8.17777 11.72134,23.44256c5.58752,15.26485 -0.40948,26.98613 13.52807,20.71654c13.93681,-6.26954 46.13999,-7.15211 46.13999,-7.15211c-20.89624,-7.47595 -51.16251,1.24591 -51.16251,1.24591z" fill="#BC1A04"/>
     <path stroke="null" id="svg_347" d="m1230.65149,275.84489c0,0 -17.5942,12.54891 -39.40623,24.14746c-21.81264,11.59855 40.33494,32.026 56.08832,35.31512l-16.68209,-59.46259z" fill="#FECE00"/>
     <path stroke="null" id="svg_348" d="m1196.72574,297.01256c-1.79086,0.99417 -3.62059,1.99055 -5.48048,2.9798c-21.81264,11.59855 40.33494,32.026 56.08832,35.31512l-3.40306,-12.13156c-23.6585,-4.0692 -58.57485,-13.62577 -47.20479,-26.16336z" fill="#FCC000"/>
     <path stroke="null" id="svg_349" d="m1293.89019,205.49468c0,0 40.05637,-42.8996 86.55564,-38.74359c46.49853,4.15607 83.23798,71.30679 92.83638,100.53509c9.59815,29.22855 24.98931,34.19349 29.78838,35.51716c0,0 -11.03921,57.25991 -83.4656,86.05487c-72.42713,28.79594 -160.91107,-0.16537 -193.37362,-55.9355c-32.46341,-55.77038 29.82604,-132.72375 45.76374,-140.66725c0,0 16.10307,10.09493 21.89508,13.23923z" fill="#FECE00"/>
     <path stroke="null" id="svg_350" d="m1420.00759,326.22093c0,0 38.15096,11.02026 49.51008,1.56926c0,0 3.90186,8.15046 -9.88508,11.96521c-13.78597,3.81524 -32.68968,-6.34594 -39.62499,-13.53447z" fill="#FCC000"/>
     <path stroke="null" id="svg_351" d="m1415.48338,348.24052c-0.58789,-0.83176 -16.029,-17.72499 -12.19087,-32.19038c3.83788,-14.4654 35.67809,-31.34633 43.28963,-29.52729c7.61129,1.81879 14.97872,22.19259 26.57506,23.82239c11.59707,1.6298 -10.61029,-24.24344 -15.70343,-41.66353c-5.09364,-17.42034 -46.92918,-94.43677 -97.42161,-87.81355c-50.49243,6.6234 -91.35398,79.56146 -88.03705,108.28825c3.31693,28.72753 27.35341,63.76999 74.41916,74.16053c47.06526,10.39127 77.96052,-2.50191 69.06911,-15.07641z" fill="#FFDA3E"/>
     <path stroke="null" id="svg_352" d="m1477.68461,349.15398c-92.62327,67.66964 -209.83547,15.3161 -222.8955,-41.25011c-13.43555,-58.19108 39.10108,-102.40937 39.10108,-102.40937c-5.79202,-3.14412 -21.89508,-13.23923 -21.89508,-13.23923c-15.9377,7.94369 -78.22715,84.89706 -45.76374,140.66744c32.46255,55.77014 120.94649,84.73144 193.37362,55.9355c27.04679,-10.75277 45.53217,-25.47581 58.07961,-39.70423z" fill="#FCC000"/>
     <path stroke="null" id="svg_353" d="m1236.17134,268.68171c0,4.88299 -4.45087,8.84195 -9.93996,8.84195c-5.48983,0 -9.93996,-3.95896 -9.93996,-8.84195c0,-4.88324 4.45013,-8.84195 9.93996,-8.84195c5.48909,0 9.93996,3.95871 9.93996,8.84195z" fill="#FF9999"/>
     <path stroke="null" id="svg_354" d="m1423.17244,274.46634c0,4.88348 -4.45013,8.84244 -9.93996,8.84244s-9.93996,-3.95895 -9.93996,-8.84244c0,-4.88274 4.45013,-8.84145 9.93996,-8.84145s9.93996,3.95871 9.93996,8.84145z" fill="#FF9999"/>
     <g stroke="null" id="svg_355">
      <path stroke="null" id="svg_356" d="m1399.25457,233.53466l-46.73231,22.87867c0,0 11.82716,15.75019 30.61374,10.21656c18.78683,-5.53338 16.11857,-33.09522 16.11857,-33.09522z" fill="#720000"/>
      <path stroke="null" id="svg_357" d="m1383.136,266.62988c12.77949,-3.76431 15.63133,-17.72142 16.14859,-26.26253c-1.99424,5.40887 -6.72885,14.10673 -17.29115,18.25086c-11.53408,4.52494 -19.75368,-1.48424 -23.42497,-5.16463l-6.04622,2.95974c0,0 11.82716,15.75019 30.61374,10.21656z" fill="#590000"/>
      <path stroke="null" id="svg_358" d="m1392.69109,240.88511l-26.1828,12.35537c0,0 17.15457,8.97225 26.1828,-12.35537z" fill="#8A0000"/>
      <path stroke="null" id="svg_359" d="m1376.41158,264.83644c17.17967,-3.78079 19.46798,-22.06094 21.00673,-30.40285l1.83626,-0.89893c0,0 2.66826,27.56184 -16.11857,33.09522c-8.97582,2.6439 -16.36244,0.42941 -21.62981,-2.60452c3.31791,1.01213 8.3045,2.26419 14.90539,0.81108z"/>
     </g>
     <g stroke="null" id="svg_360">
      <path stroke="null" id="svg_361" d="m1241.24406,231.53033l40.90707,31.08597c0,0 -14.46441,13.00121 -31.60865,4.05394c-17.14424,-8.94702 -9.29843,-35.13991 -9.29843,-35.13991z" fill="#720000"/>
      <path stroke="null" id="svg_362" d="m1276.68985,266.24797c-4.38911,-0.15995 -9.95842,-1.24271 -16.10602,-4.50649c-10.23895,-5.43643 -10.55049,-16.71852 -9.8216,-22.97772l-9.51818,-7.23344c0,0 -7.84581,26.19289 9.29843,35.13991c10.72693,5.59835 20.40481,2.60379 26.14737,-0.42228z" fill="#590000"/>
      <path stroke="null" id="svg_363" d="m1257.39929,266.21647c-15.9217,-6.94245 -14.64971,-25.08897 -14.54832,-33.46472l-1.60691,-1.22142c0,0 -7.84581,26.19289 9.29843,35.13991c8.19106,4.27492 15.76938,3.53939 21.45263,1.60568c-3.40823,0.34722 -8.47775,0.60807 -14.59582,-2.05945z"/>
      <path stroke="null" id="svg_364" d="m1254.78911,245.4322l22.51964,17.17697c0,0 -20.6253,1.8338 -22.51964,-17.17697z" fill="#8A0000"/>
     </g>
     <g stroke="null" id="svg_365">
      <path stroke="null" id="svg_366" d="m1299.18316,277.4801c0,0 10.97842,-10.08909 15.21398,-10.19318c4.23555,-0.10385 13.70008,11.02518 13.70008,11.02518s-7.17622,12.22064 -14.45703,12.90844c-4.8889,0.4614 -14.45703,-13.74044 -14.45703,-13.74044z" fill="#FF8B00"/>
      <path stroke="null" id="svg_367" d="m1307.45592,274.33715c-0.31597,-1.28824 1.28947,-3.67129 2.60059,-5.30773c-4.84632,2.91213 -10.87335,8.45068 -10.87335,8.45068s1.49839,2.22433 3.61247,4.88324c0.01599,0.00025 13.58024,0.45304 22.35058,0.24067c1.82002,-2.36582 2.95174,-4.2919 2.95174,-4.2919s-0.7348,-0.86375 -1.88547,-2.10695c-8.27128,-0.17201 -18.45388,-0.63489 -18.75656,-1.868z" fill="#FF7300"/>
      <path stroke="null" id="svg_368" d="m1313.64018,291.22054c7.28081,-0.6878 14.45777,-12.90844 14.45777,-12.90844c-14.56137,-1.5604 -28.9148,-0.832 -28.9148,-0.832s9.56813,14.20184 14.45703,13.74044z" fill="#FF8B00"/>
      <path stroke="null" id="svg_369" d="m1314.62476,288.45828c-3.34129,0.09277 -8.39383,-6.73623 -11.2811,-11.10762c-2.60575,0.05045 -4.1605,0.12944 -4.1605,0.12944s9.56813,14.20184 14.45703,13.74044c5.04983,-0.47691 10.04873,-6.50171 12.63898,-10.14938c-3.00022,3.32111 -7.43707,7.27047 -11.65441,7.38711z" fill="#FF7300"/>
      <path stroke="null" id="svg_370" d="m1310.69139,272.62246c0,0 1.60174,-3.30561 3.2404,-3.59303c1.6389,-0.28767 7.42181,3.32923 7.4976,4.72304c0.07505,1.39405 -11.22746,0.7161 -10.738,-1.13001z" fill="#FFA039"/>
      <path stroke="null" id="svg_371" d="m1310.54571,279.25853c0,0 12.04691,-0.05488 12.93821,0.77909c0.89131,0.83323 -5.46276,7.07311 -8.53951,6.44044c-3.07602,-0.63267 -7.90659,-7.2407 -4.3987,-7.21953z" fill="#FFA039"/>
     </g>
     <path stroke="null" id="svg_372" d="m1420.00759,326.22093c0,0 20.29678,10.7855 35.49821,11.71937c15.20143,0.93437 13.92722,-10.27586 6.45397,-15.45587c-7.47324,-5.18026 -16.3051,-19.95744 -16.81498,-25.98692c0,0 8.90987,14.86183 22.2044,25.30749s2.59394,25.56218 -20.16611,20.04209c-22.75981,-5.52034 -27.17549,-15.62616 -27.17549,-15.62616z" fill="#F99300"/>
     <path stroke="null" id="svg_373" d="m1424.58716,321.5727c0,0 11.9123,-16.64469 15.88258,-16.81178c3.97101,-0.16709 10.87187,13.21407 16.41239,18.14825c10.37651,9.24084 -36.44464,4.1573 -32.29497,-1.33647z" fill="#FFDA3E"/>
     <path stroke="null" id="svg_374" d="m1201.10377,298.96816c0,0 6.50479,-4.0564 8.60337,-4.26631c2.09797,-0.20991 4.46785,13.2943 3.07675,14.33793c-2.67404,2.00655 -18.7087,-5.77011 -11.68012,-10.07161z" fill="#FFDA3E"/>
     <path stroke="null" id="svg_375" d="m1303.19748,150.60613c0,0 -5.25113,-32.51896 0,-37.07694c5.25187,-4.55779 31.21123,32.49934 40.02979,29.52692c8.81881,-2.97254 19.02405,-36.8591 25.16722,-38.04804s10.89919,26.95064 12.88088,35.86819c1.98194,8.91755 35.39313,-4.95423 44.35,-3.76529c8.95687,1.18919 -2.11999,24.47377 0,30.71593c2.11999,6.24222 29.16998,11.29544 30.55714,15.6552c1.38667,4.35958 -11.31113,8.18454 -14.82591,10.1065c-3.51453,1.92177 -31.84243,-38.93978 -76.33121,-33.49025c-44.48805,5.44965 -55.09022,20.51038 -62.22387,22.98731c-7.1339,2.47712 -37.3544,-20.21299 -36.85928,-25.76151c0.49536,-5.5487 25.66259,7.33218 31.90493,5.74674c6.24234,-1.58538 5.9404,-8.42189 5.3503,-12.46475z" fill="#E22C14"/>
     <g stroke="null" id="svg_376">
      <path stroke="null" id="svg_377" d="m1401.62285,170.15704c0,0 5.08207,-6.69833 11.82125,-2.6586c1.91353,8.12542 7.16539,20.8536 24.35811,18.44244c1.45139,2.81419 1.97013,10.69654 -0.52686,12.10578c-8.9517,2.16662 -17.40951,4.80449 -13.72371,22.68562c-7.16293,2.67909 -14.26509,1.80402 -15.08232,0.51677c-0.96858,-6.42531 0.45771,-21.44543 -18.48538,-16.86524c-2.74676,-2.85571 -3.23105,-11.27981 -1.61306,-12.03411c8.07147,-1.51137 11.2026,-3.00545 12.95372,-5.17435c1.75111,-2.16884 0.41145,-13.6305 0.29825,-17.0183z" fill="#FFFFFF"/>
      <g stroke="null" id="svg_378">
       <path stroke="null" id="svg_379" d="m1387.44734,194.9848c-1.40217,0.02941 -2.56909,-1.07728 -2.60871,-2.4821c-0.03962,-1.41232 1.06922,-2.58914 2.48148,-2.62864c5.65446,-0.16112 9.52064,-1.76065 11.48978,-4.75564c3.70721,-5.63821 0.14494,-14.77638 0.10729,-14.86786c-0.52169,-1.31001 0.11689,-2.79659 1.42333,-3.32068c1.32785,-0.51216 2.79917,0.11117 3.32087,1.41841c0.18948,0.47266 4.6,11.67809 -0.5682,19.55897c-2.93624,4.4836 -8.19475,6.86333 -15.62542,7.07717c-0.00492,0 -0.01526,0 -0.02042,0.00037z"/>
      </g>
      <g stroke="null" id="svg_380">
       <path stroke="null" id="svg_381" d="m1434.18777,188.20157c-4.3202,0.57884 -8.23609,-0.19342 -11.68837,-2.3096c-8.95613,-5.48915 -11.21786,-18.08359 -11.30891,-18.61783c-0.23673,-1.38882 0.69444,-2.70732 2.08234,-2.94848c1.54391,-0.28515 2.71231,0.69143 2.9579,2.0768c0.01969,0.10821 1.98169,10.87858 8.95514,15.14243c3.25319,1.98225 7.02365,2.26991 11.59879,0.85113c1.33278,-0.38795 2.77973,0.3351 3.19783,1.68683c0.41735,1.34711 -0.33713,2.78041 -1.68713,3.19813c-1.40709,0.43526 -2.77703,0.74218 -4.10759,0.92059z"/>
      </g>
      <g stroke="null" id="svg_382">
       <path stroke="null" id="svg_383" d="m1408.85518,223.28033c-0.07432,0.00997 -0.14347,0.0171 -0.21901,0.01932c-1.41103,0.07087 -2.60944,-1.01791 -2.67712,-2.42661c-0.29973,-6.06738 -2.00458,-10.25864 -5.06952,-12.45719c-4.21193,-3.0121 -9.86441,-1.44105 -9.92249,-1.42321c-1.3153,0.37035 -2.76718,-0.38979 -3.16042,-1.74484c-0.3925,-1.35265 0.37478,-2.76534 1.72749,-3.16325c0.31892,-0.09794 8.03332,-2.29526 14.28526,2.14331c4.42503,3.1443 6.8669,8.66009 7.24389,16.39467c0.06767,1.33573 -0.90681,2.48345 -2.20809,2.6578z"/>
      </g>
      <g stroke="null" id="svg_384">
       <path stroke="null" id="svg_385" d="m1424.03446,223.31933c-1.21244,0.16241 -2.40348,-0.57214 -2.77752,-1.7836c-2.62569,-8.53902 -2.11999,-15.21767 1.50036,-19.85095c5.1901,-6.63644 14.6849,-6.18876 15.08478,-6.17443c1.40488,0.07622 2.47779,1.27735 2.40421,2.68487c-0.07259,1.40758 -1.29537,2.47072 -2.67687,2.42169c-0.07653,-0.00498 -7.27416,-0.30225 -10.80125,4.23777c-2.51766,3.23874 -2.72486,8.34652 -0.62554,15.17995c0.41834,1.34914 -0.3423,2.77838 -1.6923,3.19352c-0.1351,0.04343 -0.27758,0.07259 -0.41588,0.09117z"/>
      </g>
     </g>
     <path stroke="null" id="svg_386" d="m1253.4273,374.88473c0,0 1.70337,-2.78933 3.45596,-3.35679c1.75259,-0.56796 16.72049,7.10141 14.71295,8.09657c-5.77651,2.8634 -20.88393,0.66639 -18.16892,-4.73977z" fill="#FFA039"/>
     <path stroke="null" id="svg_387" d="m1423.87721,388.57103c0,0 8.95834,-4.25327 10.40825,-4.37163c1.44893,-0.1191 3.8967,3.89694 2.47115,5.03728c-1.42629,1.14059 -16.91883,1.63939 -12.8794,-0.66565z" fill="#FFA039"/>
    </g>
    <g stroke="null" id="svg_388" display="inline">
     <g stroke="null" id="svg_389">
      <g stroke="null" id="svg_390">
       <path stroke="null" id="svg_391" d="m1146.63307,245.7804c-0.72237,0 -1.30731,-0.58469 -1.30731,-1.30718l0,-98.96718c0,-0.7225 0.58494,-1.30725 1.30731,-1.30725c0.72225,0 1.30718,0.58475 1.30718,1.30725l0,98.96718c0,0.72249 -0.58494,1.30718 -1.30718,1.30718z" fill="#8A0000"/>
      </g>
      <g stroke="null" id="svg_392">
       <path stroke="null" id="svg_393" d="m1165.36748,242.72198c-0.72225,0 -1.30645,-0.58457 -1.30645,-1.30706l0,-73.62936c0,-0.72249 0.5842,-1.30725 1.30645,-1.30725c0.72311,0 1.30731,0.58475 1.30731,1.30725l0,73.62936c0,0.7225 -0.5842,1.30706 -1.30731,1.30706z" fill="#8A0000"/>
      </g>
      <g stroke="null" id="svg_394">
       <path stroke="null" id="svg_395" d="m1181.82257,230.79971c-0.72237,0 -1.30731,-0.58457 -1.30731,-1.30718l0,-46.51964c0,-0.72237 0.58494,-1.30712 1.30731,-1.30712s1.30731,0.58475 1.30731,1.30712l0,46.51964c0,0.72262 -0.58494,1.30718 -1.30731,1.30718z" fill="#8A0000"/>
      </g>
      <g stroke="null" id="svg_396">
       <path stroke="null" id="svg_397" d="m1193.7217,258.71099c-0.72237,0 -1.30657,-0.58469 -1.30657,-1.30718l0,-111.89777c0,-0.7225 0.5842,-1.30725 1.30657,-1.30725c0.72311,0 1.30731,0.58475 1.30731,1.30725l0,111.89777c0,0.7225 -0.5842,1.30718 -1.30731,1.30718z" fill="#8A0000"/>
      </g>
      <g stroke="null" id="svg_398">
       <path stroke="null" id="svg_399" d="m1212.7097,249.34427c-0.72163,0 -1.30583,-0.58457 -1.30731,-1.3046c-0.08441,-64.67865 -0.07567,-97.72909 0.02584,-98.23189c0.14027,-0.70988 0.82437,-1.17959 1.53641,-1.0264c0.66503,0.13282 1.11044,0.74809 1.04572,1.40666c-0.09326,2.08326 -0.03753,64.84475 0.00664,97.84647c0.00074,0.72262 -0.58346,1.30977 -1.30657,1.30977l-0.00074,0z" fill="#8A0000"/>
      </g>
      <g stroke="null" id="svg_400">
       <path stroke="null" id="svg_401" d="m1229.92383,234.91247c-0.72225,0 -1.30718,-0.58444 -1.30718,-1.30694l0,-65.81997c0,-0.72249 0.58493,-1.30725 1.30718,-1.30725c0.72249,0 1.30743,0.58475 1.30743,1.30725l0,65.81997c0,0.72249 -0.58494,1.30694 -1.30743,1.30694z" fill="#8A0000"/>
      </g>
     </g>
     <g stroke="null" id="svg_402">
      <path stroke="null" id="svg_403" d="m1476.77927,254.15024c-0.71733,0 -1.30226,-0.57964 -1.30743,-1.29697c-0.80099,-99.97575 -0.08367,-100.83863 0.3044,-101.30065c0.46436,-0.55147 1.28873,-0.62812 1.84069,-0.16592c0.42621,0.35497 0.56943,0.92668 0.40037,1.4245c-0.51062,3.51029 -0.23944,61.58202 0.06915,100.02164c0.00517,0.72249 -0.5746,1.31223 -1.2971,1.3174c-0.00221,0 -0.00714,0 -0.01009,0z" fill="#8A0000"/>
     </g>
     <g stroke="null" id="svg_404">
      <path stroke="null" id="svg_405" d="m1493.99118,272.57718c-0.72249,0 -1.30743,-0.58444 -1.30743,-1.30718l0,-130.07462c0,-0.72256 0.58494,-1.30706 1.30743,-1.30706c0.72225,0 1.30718,0.5845 1.30718,1.30706l0,130.07462c0,0.72274 -0.58494,1.30718 -1.30718,1.30718z" fill="#8A0000"/>
     </g>
     <g stroke="null" id="svg_406">
      <path stroke="null" id="svg_407" d="m1512.16281,257.1907c-0.72249,0 -1.30669,-0.58444 -1.30669,-1.30694l0,-101.35694c0,-0.72249 0.5842,-1.30706 1.30669,-1.30706c0.72299,0 1.30718,0.58457 1.30718,1.30706l0,101.35694c0,0.7225 -0.5842,1.30694 -1.30718,1.30694z" fill="#8A0000"/>
     </g>
     <g stroke="null" id="svg_408">
      <path stroke="null" id="svg_409" d="m1530.9708,254.15024c-0.7225,0 -1.30743,-0.58481 -1.30743,-1.30706l0,-90.33078c0,-0.72249 0.58494,-1.30706 1.30743,-1.30706c0.72225,0 1.30718,0.58457 1.30718,1.30706l0,90.33078c0,0.72225 -0.58494,1.30706 -1.30718,1.30706z" fill="#8A0000"/>
     </g>
     <g stroke="null" id="svg_410">
      <path stroke="null" id="svg_411" d="m1551.05226,247.09891c-0.72249,0 -1.30743,-0.58444 -1.30743,-1.30694l0,-70.96929c0,-0.7225 0.58494,-1.30706 1.30743,-1.30706c0.72225,0 1.30718,0.58457 1.30718,1.30706l0,70.96929c0,0.72249 -0.58493,1.30694 -1.30718,1.30694z" fill="#8A0000"/>
     </g>
     <g stroke="null" id="svg_412">
      <path stroke="null" id="svg_413" d="m1567.39107,268.13762c-0.72299,0 -1.30718,-0.58444 -1.30718,-1.30694l0,-106.02873c0,-0.72256 0.5842,-1.30712 1.30718,-1.30712c0.7225,0 1.30669,0.58457 1.30669,1.30712l0,106.02873c0,0.72249 -0.5842,1.30694 -1.30669,1.30694z" fill="#8A0000"/>
     </g>
     <g stroke="null" id="svg_414">
      <path stroke="null" id="svg_415" d="m1444.84703,94.91775c0,0 8.76,0.56912 11.23779,-8.44391c2.47853,-9.01291 -5.29813,-10.4216 -6.36883,-11.99449c-1.06972,-1.57271 8.19352,-18.27264 -4.95928,-25.36692c-13.1528,-7.09403 -20.24092,0.36562 -23.11417,4.90225c-2.87374,4.53669 -1.35418,8.60835 -3.43899,9.0441c-2.08382,0.43563 -8.31681,-0.52022 -11.162,7.91397c-2.84519,8.434 -1.61085,14.51234 4.75724,18.20466c3.75569,2.17751 6.77068,0.8862 7.38367,2.09704c0.61274,1.21066 -1.89433,5.17927 -1.15511,8.14135c0.73849,2.96233 19.1055,4.45918 19.81471,3.6863c0.70896,-0.77288 1.08005,-6.02875 1.63496,-7.29852c0.55467,-1.26978 3.59771,-0.78648 5.36999,-0.88583z" fill="#EFEFEF"/>
      <path stroke="null" id="svg_416" d="m1431.4762,46.5538c-9.55583,7.21824 -7.14768,18.95453 -10.7353,19.43199c-4.01728,0.5348 -11.6234,4.56536 -10.17595,12.36724c1.4477,7.80188 10.53695,7.98724 12.59444,10.52201c2.05749,2.53482 -0.21237,6.35942 1.82961,8.51392c1.18833,1.25329 7.90462,3.04882 13.3755,4.20953c-0.15577,0.72379 -0.32557,1.28922 -0.52243,1.50362c-0.70921,0.77288 -19.07622,-0.72416 -19.81471,-3.6863c-0.73923,-2.96208 1.76785,-6.93069 1.15511,-8.14135c-0.61225,-1.21084 -3.62798,0.08047 -7.38367,-2.09704c-6.36809,-3.69233 -7.60244,-9.77047 -4.75724,-18.20466s9.07819,-7.47822 11.16274,-7.91397c2.08406,-0.43575 0.56451,-4.50741 3.43825,-9.0441c1.69009,-2.66795 4.85223,-6.32577 9.83365,-7.46088z" fill="#E2E2E2"/>
      <path stroke="null" id="svg_417" d="m1441.37581,90.61958c0,0 11.16348,0.07087 11.92338,-6.50879c0.75965,-6.57947 -7.30788,-6.29587 -7.84433,-9.99022c-0.5372,-3.69454 3.66907,-12.59333 0.81773,-17.99525c-2.85184,-5.40173 -9.99951,-6.7059 -14.56358,-4.12149c-4.56382,2.58441 -3.71804,11.91876 -5.98593,14.29849c-2.2669,2.37979 -8.47258,2.59234 -10.02215,8.07307c-1.54982,5.48072 9.21254,7.82871 10.80912,10.85348c1.59682,3.02471 0.92527,7.07822 1.92608,8.86059c1.00155,1.7823 6.79873,3.0877 7.94646,2.47872s0.92527,-5.53178 4.99324,-5.94858z" fill="#FFFFFF"/>
     </g>
     <g stroke="null" id="svg_418">
      <path stroke="null" id="svg_419" d="m1204.83596,181.95442c0,0 3.90346,-6.81983 -2.36903,-12.3582c-6.27249,-5.53843 -10.46399,0.16038 -12.14977,0.4021c-1.68639,0.24196 -11.47071,-13.77661 -22.3491,-5.9914c-10.87839,7.78497 -7.66863,16.4194 -5.15183,20.51481c2.51754,4.09559 6.38999,4.4753 5.91973,6.323c-0.46952,1.84776 -3.69036,6.48307 1.97234,12.0893c5.66258,5.60598 11.03564,7.0044 16.51009,3.33612c3.22822,-2.16299 3.3766,-5.09573 4.59126,-5.11203c1.21466,-0.01636 3.41918,3.5608 6.09174,4.13214c2.67257,0.57152 11.10183,-13.60873 10.75941,-14.48299c-0.34242,-0.87408 -4.4222,-3.24058 -5.22541,-4.18633c-0.80235,-0.94569 0.7834,-3.20201 1.40057,-4.6665z" fill="#EFEFEF"/>
      <path stroke="null" id="svg_420" d="m1160.68591,173.67908c2.04506,10.52354 12.42969,13.20454 11.40168,16.27723c-1.15006,3.44071 -0.90164,11.14244 5.94176,13.04766c6.84278,1.90541 10.56759,-5.33043 13.41512,-5.9874c2.84741,-0.6571 5.03064,2.67244 7.56651,1.87791c1.47489,-0.46208 5.56045,-5.15633 8.6468,-9.09904c0.52022,0.41022 0.90829,0.76931 1.00303,1.01182c0.34242,0.87408 -8.08685,15.05451 -10.75941,14.48299c-2.67257,-0.57134 -4.87709,-4.1485 -6.09174,-4.13214c-1.21466,0.0163 -1.36304,2.94904 -4.59126,5.11203c-5.47445,3.66809 -10.84751,2.26985 -16.51009,-3.33612c-5.6627,-5.60622 -2.44186,-10.24172 -1.97234,-12.0893c0.47026,-1.8477 -3.4022,-2.2274 -5.91899,-6.323c-1.48067,-2.4084 -3.17814,-6.39067 -2.13106,-10.84265z" fill="#E2E2E2"/>
      <path stroke="null" id="svg_421" d="m1200.014,183.05478c0,0 4.44866,-8.94856 -0.54298,-12.14799c-4.99176,-3.19949 -7.9376,3.39912 -11.11943,2.37733c-3.18183,-1.02161 -8.68285,-7.90474 -14.14844,-7.73704c-5.46497,0.16777 -9.32574,5.4021 -9.04287,10.0889c0.28213,4.68656 8.12068,7.67878 9.14204,10.43827c1.02136,2.75962 -1.24849,7.83289 2.54916,11.23533c3.79679,3.40244 9.91867,-4.32814 12.97931,-4.4222c3.06051,-0.09388 6.05569,2.041 7.88248,1.93703c1.82752,-0.10378 5.15786,-4.25155 5.1196,-5.41403c-0.03827,-1.16255 -4.08421,-2.92025 -2.81886,-6.3556z" fill="#FFFFFF"/>
     </g>
     <g stroke="null" id="svg_422">
      <path stroke="null" id="svg_423" d="m1522.71133,225.19841c0,0 6.53838,5.98507 14.18659,0.45402c7.64821,-5.53092 2.41529,-11.55561 2.56663,-13.47073c0.15159,-1.915 18.00134,-9.21058 12.12836,-23.11029c-5.87347,-13.89984 -16.16975,-12.5061 -21.3003,-10.75c-5.1308,1.75604 -6.50713,5.92311 -8.4241,4.94833c-1.91722,-0.97454 -6.22044,-5.66664 -13.79286,-0.82357c-7.57167,4.84294 -10.44123,10.40979 -7.75993,17.34276c1.58083,4.08839 4.77127,4.97755 4.48852,6.31844c-0.28299,1.34053 -4.76536,2.88087 -6.05581,5.68036c-1.29119,2.79967 12.22606,15.58802 13.27313,15.42757c1.04732,-0.16032 4.66176,-4.06452 5.90152,-4.71344c1.23902,-0.64929 3.32948,1.6544 4.78825,2.69656z" fill="#EFEFEF"/>
      <path stroke="null" id="svg_424" d="m1542.75219,178.66198c-12.08702,-0.35583 -17.60933,10.40813 -20.73604,8.51632c-3.50149,-2.11814 -12.03879,-3.75206 -15.83041,3.3069c-3.79187,7.05866 3.24852,12.94997 3.26698,16.24622c0.01772,3.29644 -4.18707,4.8737 -3.94099,7.861c0.14347,1.73795 4.29732,7.39708 7.87165,11.76921c-0.57977,0.47149 -1.07144,0.80936 -1.36181,0.85366c-1.04708,0.16045 -14.56432,-12.62791 -13.27313,-15.42757c1.29045,-2.79948 5.77282,-4.33964 6.05581,-5.68054c0.28275,-1.34053 -2.9077,-2.22987 -4.48852,-6.31826c-2.6813,-6.93297 0.18825,-12.49982 7.75993,-17.34276c7.57241,-4.84288 11.87564,-0.15079 13.79286,0.82376c1.91697,0.9746 3.29331,-3.19229 8.4241,-4.94851c3.0172,-1.03262 7.81997,-1.91408 12.45959,0.34058z" fill="#E2E2E2"/>
      <path stroke="null" id="svg_425" d="m1522.69435,219.6195c0,0 8.74598,7.112 13.50322,2.4111s-1.77449,-9.57675 0.13731,-12.8252c1.91279,-3.2487 10.84997,-7.59776 12.0191,-13.6537c1.16913,-6.05612 -3.63536,-11.60095 -8.86286,-12.45079c-5.22751,-0.84966 -10.4619,7.03546 -13.75176,7.4762c-3.28961,0.44067 -8.3109,-3.31428 -12.99531,0.02202c-4.68465,3.33612 2.30652,11.98785 1.65194,15.3791c-0.65482,3.39125 -3.7456,6.15843 -4.08421,8.195c-0.33812,2.03632 3.40133,6.72848 4.69031,6.97444c1.28897,0.24583 4.22522,-3.77144 7.69225,-1.52817z" fill="#FFFFFF"/>
     </g>
    </g>
   </g>
   <g stroke="null" id="svg_426" display="none">
    <path stroke="null" id="svg_427" d="m1743.25749,368.17508c-0.18087,0.4518 -16.97764,12.10105 -11.0173,21.85374c5.96009,9.75343 22.48715,-1.083 22.48715,-1.083s-0.90459,13.6361 13.8155,10.83644c14.7196,-2.79967 9.57207,-14.08742 9.57207,-14.08742s5.77947,9.48151 17.51902,4.33398c11.74054,-5.14679 -3.61174,-27.81408 -3.61174,-27.81408l-48.7647,5.96034z" fill="#CD2606"/>
    <g stroke="null" id="svg_428" display="inline">
     <g stroke="null" id="svg_429">
      <path stroke="null" id="svg_430" d="m1736.85125,385.00704c-1.55868,-8.98467 6.74189,-14.87586 6.74189,-14.87586s-0.32532,-0.60634 -0.91542,-1.44327c-2.93058,2.40667 -15.76151,12.63037 -10.43754,21.34091c5.96009,9.75343 22.48715,-1.083 22.48715,-1.083s-16.31765,5.0459 -17.87608,-3.93878z" fill="#BC1A04"/>
      <path stroke="null" id="svg_431" d="m1763.71299,395.81566c-4.83082,-3.96658 -4.20774,-14.62756 -4.20774,-14.62756l-4.77791,7.75771c0,0 -0.90459,13.63536 13.8155,10.83644c3.79482,-0.72151 6.26892,-2.00753 7.85172,-3.51847c-3.98849,1.06996 -9.71873,1.98489 -12.68155,-0.44811z" fill="#BC1A04"/>
      <path stroke="null" id="svg_432" d="m1795.63392,390.02882c2.69607,-1.18168 3.96289,-3.28765 4.31504,-5.8309c-10.08933,2.96503 -23.8593,-3.00982 -23.8593,-3.00982l5.28041,6.61417l-0.10729,1.18094c2.84396,2.12959 7.62261,4.00473 14.37115,1.0456z" fill="#BC1A04"/>
     </g>
    </g>
    <path stroke="null" id="svg_433" d="m1867.58267,250.43601c0,0 15.94804,-1.97013 27.20576,-6.1914c11.25674,-4.22177 20.06374,31.77081 -22.89073,55.91188c0,0 -9.70643,-39.1786 -4.31504,-49.72048z" fill="#FECE00"/>
    <path stroke="null" id="svg_434" d="m1898.2471,276.08014c-15.05894,-4.68637 -17.73286,-20.12871 -18.10912,-27.78836c-6.92866,1.4493 -12.55531,2.14423 -12.55531,2.14423c-5.39139,10.54163 4.31504,49.72048 4.31504,49.72048c13.18577,-7.41049 21.49298,-15.93819 26.3494,-24.07635z" fill="#FCC000"/>
    <path stroke="null" id="svg_435" d="m1642.5753,243.84251c0,0 -12.05552,-2.29028 -23.29922,-10.08786c-11.24296,-7.79782 -25.872,24.57663 16.79677,53.29358l6.50245,-43.20572z" fill="#FECE00"/>
    <path stroke="null" id="svg_436" d="m1613.72892,232.97039c-8.95613,3.52708 -13.31373,30.0795 22.34393,54.07784l1.00303,-6.66413c-25.74182,-18.77699 -27.96763,-38.5944 -23.34696,-47.41371z" fill="#FCC000"/>
    <path stroke="null" id="svg_437" d="m1723.2752,140.67232c0,0 -8.84514,-20.50743 9.72759,-31.14189c18.57298,-10.63446 28.75755,1.49777 29.95621,6.5903c0,0 8.98689,-11.91507 27.85886,-10.82536c18.87271,1.08977 24.68367,20.26153 23.12598,28.49953c0,0 40.9777,-5.44769 32.89245,36.24679c0,0 27.71269,14.57226 7.78847,38.27056c-19.92422,23.69818 -126.41441,-48.45568 -126.41441,-48.45568l-4.93516,-19.18425z" fill="#CD2606"/>
    <path stroke="null" id="svg_438" d="m1861.49831,195.05991c-3.67276,0.18518 -8.31164,-1.2707 -12.31809,-8.00139c-8.12413,-13.64945 -38.6734,-47.93559 -66.9474,-51.8353c-28.274,-3.90014 -45.0378,14.10802 -51.1854,0c-3.68876,-8.466 -0.60979,-18.94174 2.4426,-25.9673c-0.16168,0.09007 -0.32409,0.18118 -0.48724,0.2745c-18.57274,10.63428 -9.72759,31.14189 -9.72759,31.14189l4.93516,19.18425c0,0 106.4902,72.15386 126.41441,48.45568c4.04213,-4.80837 6.12398,-9.24091 6.87354,-13.25234z" fill="#BC1A04"/>
    <path stroke="null" id="svg_439" d="m1734.57623,151.30863c0,0 19.11215,-16.95162 51.18737,-11.30091c32.07472,5.65046 77.11252,58.44547 89.07847,106.585c11.96595,48.13916 -0.13805,114.46249 -100.0473,126.08319c-101.27499,11.77917 -142.59229,-60.82637 -143.92162,-96.72372c-1.33007,-35.89735 28.91701,-103.53716 92.40204,-135.27986c0,0 2.13845,5.97381 11.30104,10.63631z" fill="#FECE00"/>
    <path stroke="null" id="svg_440" d="m1726.28502,168.28141c0,0 3.4257,4.77398 10.10533,6.48246c6.67889,1.70867 16.30977,-17.70758 43.80345,-18.32906c27.49368,-0.62129 69.21356,49.70596 77.4782,97.23742c8.2639,47.53109 -20.70085,86.36395 -93.28154,80.77224s-97.97357,-65.66679 -85.69387,-108.22335c8.43591,-29.23335 38.63747,-66.01333 47.58843,-57.93971z" fill="#FFDA3E"/>
    <path stroke="null" id="svg_441" d="m1723.2752,140.67232c-63.48503,31.7427 -93.73211,99.38251 -92.40278,135.27986c1.33007,35.89735 42.64736,108.50289 143.92236,96.72372c33.58419,-3.90654 57.24638,-13.99341 73.40826,-27.49368c-65.45516,16.13161 -147.23289,19.26349 -186.14744,-61.05941c-31.037,-64.06455 61.21961,-143.4505 61.21961,-143.4505z" fill="#FCC000"/>
    <g stroke="null" id="svg_442" display="inline">
     <path stroke="null" id="svg_443" d="m1660.07242,310.02779c0,0 1.72897,-12.28339 12.73741,-13.64791c11.00943,-1.36452 23.74758,16.6506 19.28933,24.74766c-4.45801,8.0978 -34.02837,6.00487 -32.02674,-11.09974z" fill="#FF8B00"/>
     <path stroke="null" id="svg_444" d="m1667.84539,306.88927c0,0 0.60265,-5.7177 8.39777,-6.03071s15.50558,13.01253 12.87128,17.28032c-2.34048,3.79211 -23.67105,0.62086 -21.26905,-11.24961z" fill="#FFA039"/>
     <path stroke="null" id="svg_445" d="m1664.22996,307.42868c0,0 0.86793,-6.15498 5.27992,-10.23501c-8.06704,3.10013 -9.43746,12.83388 -9.43746,12.83388c-1.92977,16.49089 25.48393,19.02774 31.45066,11.93248c-9.63802,3.36738 -28.92218,-0.60954 -27.29312,-14.53135z" fill="#FF7300"/>
    </g>
    <g stroke="null" id="svg_446" display="inline">
     <path stroke="null" id="svg_447" d="m1837.71628,295.44797c0,0 12.24008,2.00901 13.35335,13.04624c1.11253,11.03748 -17.18853,23.36099 -25.18199,18.71916c-7.9942,-4.64208 -5.22677,-34.15682 11.82864,-31.7654z" fill="#FF8B00"/>
     <path stroke="null" id="svg_448" d="m1840.67614,303.29083c0,0 5.7022,0.73283 5.83754,8.53336c0.13436,7.80028 -13.36369,15.20438 -17.56996,12.47337c-3.73797,-2.42685 -0.08071,-23.67917 11.73242,-21.00673z" fill="#FFA039"/>
     <path stroke="null" id="svg_449" d="m1840.21917,299.66457c0,0 6.13358,1.00746 10.11197,5.51197c-2.91508,-8.13618 -12.61486,-9.72858 -12.61486,-9.72858c-16.44266,-2.30554 -19.60456,25.04345 -12.64784,31.17062c-3.14664,-9.71283 1.26978,-28.90052 15.15073,-26.95402z" fill="#FF7300"/>
    </g>
    <g stroke="null" id="svg_450" display="inline">
     <path stroke="null" id="svg_451" d="m1705.37697,213.63751c-9.82922,-8.97797 -16.123,5.75744 -16.123,5.75744s-8.70119,-13.45437 -16.86518,-2.93956c-8.16375,10.51505 9.33608,24.42615 19.11978,29.32993c8.80971,-6.49212 23.69738,-23.16978 13.8684,-32.14781z" fill="#FF5A5A"/>
     <path stroke="null" id="svg_452" d="m1678.69659,226.22112c-3.97471,-8.38731 0.24928,-12.167 2.46549,-13.48722c-2.6909,-0.76014 -5.76692,-0.1506 -8.77329,3.72149c-8.16375,10.51493 9.33608,24.42615 19.11978,29.32993c1.88031,-1.38544 4.03475,-3.25221 6.16876,-5.39139c-7.05736,-0.83717 -15.28952,-6.38507 -18.98074,-14.17281z" fill="#FF2E2E"/>
     <path stroke="null" id="svg_453" d="m1690.04167,224.76211c0,0 -3.6954,-7.11003 -6.40254,-6.95241c-2.7064,0.15786 -3.45006,2.64747 -1.29906,7.16921c2.15075,4.52162 11.30891,12.4148 14.8355,9.54032c3.52634,-2.87447 9.13601,-11.22057 7.31501,-15.32914c-1.82149,-4.10882 -7.33199,-9.22577 -14.44891,5.57202z" fill="#FF7D7D"/>
    </g>
    <g stroke="null" id="svg_454" display="inline">
     <path stroke="null" id="svg_455" d="m1838.7508,211.73616c-9.03463,-9.7773 -16.55192,4.37274 -16.55192,4.37274s-7.53206,-14.14229 -16.55659,-4.35564c-9.02429,9.78665 7.23676,25.12834 16.56964,30.84235c9.32796,-5.7236 25.57301,-21.08215 16.53888,-30.85945z" fill="#FF5A5A"/>
     <path stroke="null" id="svg_456" d="m1811.10136,222.01756c-3.25073,-8.69356 1.27716,-12.10234 3.59771,-13.23025c-2.61658,-0.98506 -5.7332,-0.63821 -9.05677,2.96596c-9.02429,9.78641 7.23676,25.12834 16.56964,30.8421c1.9908,-1.22106 4.29584,-2.89933 6.60334,-4.84989c-6.96189,-1.43133 -14.69523,-7.65596 -17.71391,-15.72792z" fill="#FF2E2E"/>
     <path stroke="null" id="svg_457" d="m1822.52863,221.52355c0,0 -3.0802,-7.39708 -5.79029,-7.46894c-2.71083,-0.07186 -3.66169,2.34589 -1.90098,7.03337c1.76046,4.68748 10.21779,13.32715 13.97495,10.76126c3.75643,-2.56589 10.05242,-10.40752 8.58504,-14.65549c-1.46665,-4.24798 -6.5246,-9.81274 -14.86872,4.3298z" fill="#FF7D7D"/>
    </g>
    <path stroke="null" id="svg_458" d="m1669.39669,245.2218c0,3.16424 -3.28617,5.72926 -7.3411,5.72926c-4.05394,0 -7.34011,-2.56503 -7.34011,-5.72926c0,-3.16436 3.28617,-5.72951 7.34011,-5.72951c4.05493,0 7.3411,2.56515 7.3411,5.72951z" fill="#FF9999"/>
    <path stroke="null" id="svg_459" d="m1857.67199,240.86321c0,3.16411 -3.28691,5.72951 -7.34085,5.72951c-4.05419,0 -7.3411,-2.5654 -7.3411,-5.72951s3.28691,-5.72926 7.3411,-5.72926c4.05394,0 7.34085,2.56515 7.34085,5.72926z" fill="#FF9999"/>
    <g stroke="null" id="svg_460" display="inline">
     <path stroke="null" id="svg_461" d="m1748.9208,232.74892c0,0 -0.19687,-2.74171 0.47469,-3.64938c0.67082,-0.90792 17.79168,-1.41448 18.5875,-0.14839s0.16241,9.92876 -6.47464,11.75555c-6.63681,1.82666 -11.40661,-1.46517 -12.27749,-7.81283" fill="#660000"/>
     <path stroke="null" id="svg_462" d="m1751.64123,228.59876c-1.26043,0.14137 -2.10695,0.3124 -2.24574,0.50053c-0.67156,0.90792 -0.47469,3.64963 -0.47469,3.64963l0.31006,0.1447c0.87014,6.34791 5.64068,9.6395 12.27749,7.81283c1.62857,-0.44799 2.89465,-1.30817 3.86741,-2.36902c-0.52022,0.01206 -1.12779,0.05414 -1.83257,0.13079c-8.83555,0.96169 -11.3788,-7.18041 -11.90197,-9.86946z" fill="#540000"/>
     <path stroke="null" id="svg_463" d="m1749.39549,229.09954c0,0 2.15444,11.02346 8.85622,10.91641c6.70079,-0.10705 8.50334,-9.00904 8.63204,-10.91641c0.12845,-1.9075 2.46672,-0.87851 2.46672,-0.87851s7.2845,20.76557 -10.4742,20.95727c-16.70055,0.18038 -11.66696,-21.42113 -11.66696,-21.42113l2.18619,1.34237z" fill="#FF8B00"/>
     <path stroke="null" id="svg_464" d="m1760.23488,247.11293c-13.06076,0.141 -12.82871,-13.0396 -12.10695,-18.79175l-0.91862,-0.56402c0,0 -5.03359,21.60151 11.66696,21.42113c5.97264,-0.0646 9.11264,-2.45614 10.64991,-5.60253c-1.80402,2.07299 -4.71689,3.48796 -9.29129,3.53717z" fill="#FF7300"/>
     <path stroke="null" id="svg_465" d="m1758.17518,218.85136c0,0 5.76913,-0.40345 9.44042,4.11509c3.67129,4.5183 2.76817,8.25172 -8.04341,8.25172c-10.81232,0 -13.89055,-1.21626 -13.784,-4.66435c0.0785,-2.55014 4.23776,-7.70247 12.38699,-7.70247z" fill="#FF8B00"/>
     <path stroke="null" id="svg_466" d="m1758.75126,220.24086c0,0 4.0094,-0.11886 6.47022,2.68967c2.46106,2.80852 1.7644,5.04393 -5.73468,4.80966c-7.49957,-0.23402 -9.61144,-1.03526 -9.47265,-3.11539c0.10212,-1.53875 3.08414,-4.56038 8.73712,-4.38394z" fill="#FFA039"/>
     <path stroke="null" id="svg_467" d="m1761.52459,229.41194c-10.81232,0 -13.88981,-1.21626 -13.784,-4.66435c0.02732,-0.87408 0.5335,-2.05355 1.51537,-3.22686c-2.26567,1.64899 -3.42668,3.69762 -3.46778,5.0331c-0.10655,3.44784 2.97168,4.66435 13.784,4.66435c6.05704,0 9.00313,-1.17184 9.77828,-2.99715c-1.59313,0.75461 -4.13047,1.19091 -7.82588,1.19091z" fill="#FF7300"/>
     <path stroke="null" id="svg_468" d="m1750.65715,235.64284c0,0 1.67532,5.76913 8.00675,5.78709c6.33118,0.01821 8.63204,-6.83614 9.21033,-8.39162c0.57903,-1.55523 2.51397,0.94914 1.84512,5.43003c-0.66934,4.48089 -5.58826,7.6327 -11.21343,7.15752c-5.62443,-0.47543 -8.78929,-6.49261 -9.18695,-9.33202c-0.39816,-2.83941 0.64153,-2.47324 1.33819,-0.65101z" fill="#FFA039"/>
     <path stroke="null" id="svg_469" d="m1756.06405,232.33514c0,0 5.84345,0.21028 7.67232,0c1.82912,-0.21052 -0.50176,3.917 -2.97832,4.59668c-2.47632,0.67992 -7.72006,-4.67358 -4.694,-4.59668z" fill="#770101"/>
    </g>
    <path stroke="null" id="svg_470" d="m1763.18539,120.68898c0,0 -9.62867,-14.15632 -21.75555,-10.20093c-12.12689,3.95545 -6.79283,20.87034 -1.91279,23.21242c4.8793,2.34208 18.93152,-3.69528 42.40423,-2.91453c23.47271,0.78057 55.58484,34.71432 60.58078,40.90781c4.99693,6.19337 11.08572,18.11177 13.21973,18.5282c2.13402,0.41631 2.7064,-5.777 -10.92921,-19.8814c0,0 -1.14551,-23.88895 -12.28265,-30.60291c-11.13788,-6.71377 -22.48371,-2.91452 -22.48371,-2.91452s-1.50922,-23.80283 -17.59161,-27.56719c-16.0819,-3.76412 -29.24922,11.43306 -29.24922,11.43306z" fill="#E22C14"/>
    <path stroke="null" id="svg_471" d="m1630.4147,244.34526c0,0 -5.4598,-1.39208 -11.09605,-6.19116c-5.63526,-4.7992 -6.75444,15.95493 4.11792,24.05666c4.64134,3.45867 10.28251,-16.62808 6.97813,-17.8655z" fill="#FFDA3E"/>
    <path stroke="null" id="svg_472" d="m1886.73247,251.0634c0,0 6.98083,-3.32173 10.49487,-1.92571c3.51453,1.39602 3.0679,16.18206 -0.96267,18.19746c-5.77651,2.8885 -15.02006,-13.47959 -9.5322,-16.27176z" fill="#FFDA3E"/>
    <g stroke="null" id="svg_473" display="inline">
     <g stroke="null" id="svg_474">
      <path stroke="null" id="svg_475" d="m1755.65482,394.41645c0.23944,-6.79996 3.85043,-13.22835 3.85043,-13.22835c-3.25098,3.28026 -4.77791,7.75771 -4.77791,7.75771s-0.17988,2.7128 0.92748,5.47063z" fill="#990E00"/>
      <path stroke="null" id="svg_476" d="m1776.08965,381.1881l2.02525,4.50599c0,0 4.7132,7.73114 14.27025,5.44135c-8.24987,-3.4316 -16.2955,-9.94734 -16.2955,-9.94734z" fill="#990E00"/>
     </g>
    </g>
    <path stroke="null" id="svg_477" d="m1746.95584,377.02982c0.24165,0 32.22459,-1.76662 40.58692,-3.38854c8.36307,-1.62241 9.04792,5.30404 7.13734,7.75254s-20.61792,-1.98538 -20.61792,-1.98538s5.5511,13.23425 -3.38829,14.6913c-8.93915,1.45729 -10.81379,-15.12415 -10.81379,-15.12415s-4.2171,6.3804 -8.79519,7.78626c-4.57785,1.40562 -9.62399,-0.25273 -10.597,-3.60435c-0.9735,-3.35236 1.54539,-6.12767 6.48793,-6.12767z" fill="#E22C14"/>
    <path stroke="null" id="svg_478" d="m1607.44966,295.31066c0,0 1.89286,25.31044 23.95552,39.67101c0,0 -30.78501,-5.4352 -23.95552,-39.67101z" fill="#F98E00"/>
    <path stroke="null" id="svg_479" d="m1600.54462,278.28872c0.61496,-0.77048 -8.79027,31.28284 8.4241,48.32987c0,0 -32.96308,-17.5643 -8.4241,-48.32987z" fill="#F98E00"/>
    <path stroke="null" id="svg_480" d="m1887.70597,335.79201c0,0 10.40899,-9.39957 9.21033,-30.15406c0,0 13.87874,12.61708 -9.21033,30.15406z" fill="#F98E00"/>
    <path stroke="null" id="svg_481" d="m1898.2471,336.92768c0,0 12.1697,-14.19397 10.2766,-28.76641c0,0 12.50314,10.34575 -10.2766,28.76641z" fill="#F98E00"/>
    <g stroke="null" id="svg_482" display="inline">
     <path stroke="null" id="svg_483" d="m1660.36476,146.32118c-8.5747,-6.40623 -12.44507,5.88196 -12.44507,5.88196s-8.02643,-10.07746 -13.7274,-1.01828c-5.70072,9.05936 9.40227,18.80633 17.61844,21.95636c6.53616,-5.89131 17.12972,-20.41361 8.55403,-26.82003z" fill="#FF5A5A"/>
     <path stroke="null" id="svg_484" d="m1640.01237,158.50005c-3.84403,-6.39688 -0.76359,-9.75503 0.90583,-10.98698c-2.21326,-0.39533 -4.62633,0.33566 -6.72589,3.67178c-5.70072,9.05918 9.40227,18.80633 17.61844,21.95636c1.39479,-1.25711 2.97168,-2.92148 4.50969,-4.80172c-5.71327,-0.11172 -12.73914,-3.89996 -16.30805,-9.83944z" fill="#FF2E2E"/>
     <path stroke="null" id="svg_485" d="m1648.97415,156.43537c0,0 -3.51896,-5.39675 -5.67217,-5.05654c-2.1537,0.34021 -2.55112,2.39117 -0.47248,5.83914c2.07816,3.44784 10.03052,9.03937 12.62446,6.46043c2.59468,-2.57887 6.42321,-9.70065 4.64109,-12.84427c-1.78261,-3.14338 -6.59572,-6.80193 -11.1209,5.60124z" fill="#FF7D7D"/>
    </g>
    <g stroke="null" id="svg_486" display="inline">
     <path stroke="null" id="svg_487" d="m1710.14455,67.11709c-9.97983,-7.45632 -14.48434,6.84567 -14.48434,6.84567s-9.34198,-11.72879 -15.97732,-1.18507c-6.63484,10.54391 10.94299,21.88819 20.5062,25.55443c7.60613,-6.85687 19.93578,-23.7589 9.95546,-31.21504z" fill="#FF5A5A"/>
     <path stroke="null" id="svg_488" d="m1686.45652,81.29162c-4.47376,-7.44513 -0.88835,-11.3537 1.05446,-12.78737c-2.57549,-0.46017 -5.38401,0.39059 -7.82735,4.27345c-6.63558,10.54372 10.94225,21.88819 20.50472,25.55425c1.62389,-1.46301 3.45793,-3.40004 5.24891,-5.58857c-6.64961,-0.12987 -14.82689,-4.53903 -18.98074,-11.45176z" fill="#FF2E2E"/>
     <path stroke="null" id="svg_489" d="m1696.88741,78.8887c0,0 -4.09602,-6.28135 -6.60236,-5.88522c-2.50585,0.39588 -2.96872,2.78293 -0.54975,6.79584s11.67434,10.52077 14.69376,7.51938c3.01942,-3.00164 7.4762,-11.29052 5.40173,-14.94907c-2.07446,-3.65868 -7.67675,-7.91687 -12.94338,6.51906z" fill="#FF7D7D"/>
    </g>
    <g stroke="null" id="svg_490" display="inline">
     <path stroke="null" id="svg_491" d="m1883.95618,86.6621c-8.61875,-10.14027 -16.71384,3.6815 -16.71384,3.6815s-6.93678,-14.43777 -16.35579,-5.03685c-9.41975,9.40104 6.18574,25.39848 15.27205,31.49262c9.55361,-5.33012 26.41559,-19.99712 17.79758,-30.13727z" fill="#FF5A5A"/>
     <path stroke="null" id="svg_492" d="m1855.91349,95.78519c-2.88703,-8.81814 1.77769,-12.03503 4.14229,-13.06562c-2.57327,-1.09235 -5.70072,-0.87482 -9.16923,2.58718c-9.41975,9.40086 6.18574,25.39866 15.27131,31.49244c2.03903,-1.13733 4.41051,-2.71778 6.79652,-4.57065c-6.89421,-1.71802 -14.36007,-8.25584 -17.04088,-16.44334z" fill="#FF2E2E"/>
     <path stroke="null" id="svg_493" d="m1867.34815,95.76538c0,0 -2.77014,-7.51606 -5.47432,-7.70013c-2.70493,-0.18425 -3.75495,2.19148 -2.19062,6.9462c1.56385,4.75491 9.65352,13.7349 13.51208,11.3278c3.85929,-2.40717 10.47273,-9.97829 9.18326,-14.28219c-1.28971,-4.30372 -6.1102,-10.07161 -15.0304,3.70832z" fill="#FF7D7D"/>
    </g>
    <g stroke="null" id="svg_494" display="inline">
     <path stroke="null" id="svg_495" d="m1921.26801,170.55348c-6.82506,-11.42457 -17.09231,0.87008 -17.09231,0.87008s-4.45678,-15.38537 -15.29912,-7.66961c-10.84308,7.71569 1.90541,26.07139 9.85925,33.58265c10.30318,-3.67855 29.35651,-15.3583 22.53218,-26.78312z" fill="#FF5A5A"/>
     <path stroke="null" id="svg_496" d="m1892.10319,174.91878c-1.39036,-9.17385 3.74117,-11.57597 6.24382,-12.20169c-2.35721,-1.50239 -5.47728,-1.80458 -9.47044,1.03686c-10.84308,7.71551 1.90541,26.07157 9.85925,33.58246c2.19874,-0.78481 4.79908,-1.95186 7.45774,-3.38497c-6.51574,-2.83332 -12.79918,-10.51468 -14.09037,-19.03266z" fill="#FF2E2E"/>
     <path stroke="null" id="svg_497" d="m1903.3843,176.78819c0,0 -1.49101,-7.87042 -4.12752,-8.49873c-2.63651,-0.62824 -4.06502,1.54115 -3.30733,6.4891c0.7567,4.94783 7.25128,15.14083 11.45508,13.40423c4.20331,-1.7366 11.97702,-8.11121 11.41571,-12.56891c-0.56057,-4.45764 -4.36204,-10.94274 -15.43594,1.1743z" fill="#FF7D7D"/>
    </g>
   </g>
   <g stroke="null" id="svg_498" display="none">
    <g stroke="null" id="svg_499" display="inline">
     <path stroke="null" id="svg_500" d="m1104.69257,235.413c0,0 7.33802,0.94384 17.71158,-2.1996c10.37294,-3.1432 17.88433,-13.10161 12.17327,-18.17433c-10.23034,-9.08729 -29.07881,10.62862 -29.88485,20.37393z" fill="#CD2606"/>
     <path stroke="null" id="svg_501" d="m1115.19545,225.61207c0.83778,-2.1478 2.90265,-6.69255 4.41568,-9.97527c-7.61215,4.70397 -14.44017,13.99476 -14.91855,19.7762c0,0 7.33802,0.94384 17.71158,-2.1996c1.65711,-0.50225 3.24064,-1.17922 4.71024,-1.98157c-5.09081,-3.63856 -13.31214,-2.04764 -11.91895,-5.61976z" fill="#BC1A04"/>
     <path stroke="null" id="svg_502" d="m1104.69257,235.413c0,0 19.98008,-21.10737 9.5829,-26.87571c-10.39706,-5.76845 -22.98547,9.86755 -9.5829,26.87571z" fill="#CD2606"/>
     <path stroke="null" id="svg_503" d="m1109.79372,207.31784c-8.96708,-0.07973 -16.59978,13.50254 -5.10114,28.09516c0,0 0.83545,-0.88294 2.07582,-2.3363c-8.33883,-12.06389 -3.90998,-23.08175 3.02532,-25.75886z" fill="#BC1A04"/>
     <path stroke="null" id="svg_504" d="m1106.48921,227.5683c0,0 11.90357,-11.42961 6.36588,-17.02144c-2.98927,-3.01831 -11.94835,5.61188 -6.36588,17.02144z" fill="#E22C14"/>
     <path stroke="null" id="svg_505" d="m1104.69257,235.413c0,0 5.73825,-5.60007 14.48201,-5.68571c8.7445,-0.08588 14.01691,14.2737 6.7729,16.80268c-7.24389,2.52898 -18.24877,-6.54564 -21.2549,-11.11697z" fill="#CD2606"/>
     <path stroke="null" id="svg_506" d="m1127.98601,245.20346c-6.91771,0.9436 -16.39197,-4.47327 -17.60441,-8.93238c-0.54015,-1.98575 0.12931,-3.68827 1.17208,-5.03901c-4.30249,1.68492 -6.86111,4.18092 -6.86111,4.18092c3.00613,4.57133 14.01101,13.64594 21.2549,11.11684c0.84517,-0.29493 1.51967,-0.75092 2.03854,-1.32638z" fill="#BC1A04"/>
     <path stroke="null" id="svg_507" d="m1113.06229,234.22233c0,0 3.76677,-3.37156 7.69152,-2.52873c3.92463,0.84295 7.37469,7.50708 5.84701,10.06202c-1.5278,2.55506 -16.17295,-4.0302 -13.53853,-7.53329z" fill="#E22C14"/>
     <path stroke="null" id="svg_508" d="m1118.99162,224.38216c0,0 0.45931,-6.21281 7.91926,-8.7648c4.60812,-1.57627 7.73187,3.35704 6.83761,5.75916c-0.89426,2.402 -5.4774,5.76261 -7.29975,6.11697c-1.82248,0.35448 -7.52763,-0.53166 -7.45712,-3.11133z" fill="#E22C14"/>
    </g>
    <path stroke="null" id="svg_509" d="m1053.93044,207.65528c0,0 12.33347,-6.9032 23.3787,-16.56748c11.0445,-9.6641 27.24378,23.71934 15.46227,47.43346c0,0 -30.46535,0.42794 -38.84098,-30.86597z" fill="#FECE00"/>
    <path stroke="null" id="svg_510" d="m1092.77141,238.52125c2.81665,-5.66848 4.03278,-11.88966 4.10402,-17.94326c-14.44091,-1.72454 -24.27592,-13.88255 -29.2411,-21.82759c-7.52615,5.44676 -13.7039,8.90488 -13.7039,8.90488c8.37562,31.29366 38.84098,30.86597 38.84098,30.86597z" fill="#FCC000"/>
    <path stroke="null" id="svg_511" d="m914.95997,369.86664c-0.5276,1.23139 -16.62919,19.4451 -10.20597,26.8359c8.22859,9.46822 58.24633,-14.86995 58.24633,-14.86995l-48.04036,-11.96595z" fill="#FF8B00"/>
    <path stroke="null" id="svg_512" d="m907.09214,392.46994c-2.6247,-3.02016 -1.48719,-7.84876 0.81207,-12.58681c-3.60288,5.87568 -6.5716,12.88211 -3.15021,16.81867c8.22859,9.46896 58.24633,-14.86922 58.24633,-14.86922l-4.42516,-1.1022c-13.94924,6.24308 -45.1377,19.04078 -51.48303,11.73955z" fill="#FF7300"/>
    <path stroke="null" id="svg_513" d="m854.59587,280.96535c0,0 -26.91834,-12.00163 -37.11632,-3.15132c-11.34791,9.84842 19.88164,55.8041 51.27952,58.95787l-14.16321,-55.80656z" fill="#FECE00"/>
    <path stroke="null" id="svg_514" d="m819.15352,276.6262c-0.59662,0.34525 -1.15732,0.73923 -1.67397,1.18784c-11.34791,9.84842 19.88164,55.8041 51.27952,58.95787l-1.397,-5.50459c-26.77131,-6.49138 -51.72395,-41.23461 -48.20855,-54.64112z" fill="#FCC000"/>
    <path stroke="null" id="svg_515" d="m888.68686,175.30709c0,0 -33.36493,-30.32478 -8.77821,-56.9429c24.58598,-26.61837 53.43975,-7.31507 65.42784,4.06379c0,0 8.94063,-22.75753 35.76201,-20.31918c26.82126,2.43817 22.75772,26.82132 22.75772,26.82132s58.51887,-0.60954 36.16829,58.92588c-22.35132,59.53549 -147.43492,27.12265 -151.33765,-12.54891z" fill="#CD2606"/>
    <path stroke="null" id="svg_516" d="m964.27675,143.99214c-32.65671,0.27315 -50.14706,16.39683 -55.74947,19.12962c-5.60229,2.73286 -20.08577,1.09309 -25.14151,-22.13581c-2.71292,-12.46531 4.41051,-24.77263 11.59572,-33.50243c-5.08219,2.08197 -10.16279,5.5647 -15.07285,10.88067c-24.58672,26.61812 8.77821,56.94272 8.77821,56.94272c3.90273,39.6715 128.98633,72.08459 151.33691,12.54891c1.71149,-4.55669 2.94744,-8.76049 3.77341,-12.63984c-16.62636,-12.12744 -53.3722,-31.44285 -79.52043,-31.22384z" fill="#BC1A04"/>
    <path stroke="null" id="svg_517" d="m1106.53252,233.35564c0,0 -10.59847,9.13134 -35.22038,-20.54533c-24.62203,-29.67648 -76.14825,-67.34285 -114.79298,-63.26633c-38.64485,4.07628 -49.5695,32.28531 -49.5695,32.28531s-9.29412,1.30454 -18.2628,-6.5222c0,0 -54.46123,42.721 -42.06833,117.07569c12.39228,74.3542 72.88644,113.16195 161.75316,85.76818s109.90125,-103.21559 98.16084,-144.79533z" fill="#FECE00"/>
    <path stroke="null" id="svg_518" d="m1096.51172,246.78195c0,0 -23.97681,84.93446 -105.25351,93.87484c-81.27745,8.94013 -107.03908,-51.78337 -107.57406,-78.92958c-0.93105,-47.25302 31.5801,-88.7043 79.53298,-90.53312c47.95349,-1.82863 90.82724,68.47587 133.2946,75.58786z" fill="#FFDA3E"/>
    <path stroke="null" id="svg_519" d="m1026.20311,351.4039c-88.86598,27.39377 -149.361,-11.41399 -161.75316,-85.76868c-5.33849,-32.03166 1.72983,-58.19213 11.50676,-77.59607c-15.25507,17.81026 -37.76954,53.75522 -29.33818,104.34314c12.39228,74.35469 72.88644,113.16244 161.75316,85.76868c46.57876,-14.35786 74.52215,-42.02108 88.87853,-71.08378c-16.03847,18.46446 -39.18192,34.51438 -71.04711,44.33671z" fill="#FCC000"/>
    <g stroke="null" id="svg_520" display="inline">
     <path stroke="null" id="svg_521" d="m882.39161,251.41394c-0.25715,0 -0.51812,-0.05217 -0.76716,-0.16155c-0.96489,-0.42461 -1.40205,-1.55093 -0.97731,-2.51483c1.75837,-3.99119 5.32827,-6.89704 8.31238,-8.7536c-4.01949,-0.19613 -8.70992,0.65335 -10.74539,1.15498c-1.01927,0.25826 -2.05613,-0.37146 -2.3096,-1.39344c-0.25211,-1.02198 0.36961,-2.05638 1.39171,-2.30972c1.22204,-0.30317 12.12332,-2.87484 18.07393,0.15159c0.67315,0.34132 1.07944,1.04806 1.03908,1.80181c-0.03974,0.75375 -0.52108,1.41324 -1.22647,1.68147c-0.08453,0.03224 -8.42853,3.26845 -11.04376,9.20442c-0.31523,0.71413 -1.01484,1.13886 -1.74742,1.13886z"/>
    </g>
    <g stroke="null" id="svg_522" display="inline">
     <path stroke="null" id="svg_523" d="m994.72587,211.40432c-0.49081,0 -0.97362,-0.18874 -1.33733,-0.54655c-0.56808,-0.5575 -0.73197,-1.40802 -0.40862,-2.13463c4.68674,-10.54311 17.61388,-14.85845 18.16141,-15.03606c1.00377,-0.32901 2.07656,0.22098 2.40286,1.22075c0.3284,1.00081 -0.21827,2.07754 -1.21909,2.40544c-0.09708,0.03236 -8.1133,2.72326 -13.15501,8.70279c3.85129,-0.93013 9.35736,-1.57344 14.9818,0.10803c1.00967,0.30293 1.58279,1.36606 1.28147,2.37438c-0.30342,1.00967 -1.366,1.57953 -2.37419,1.28159c-8.68347,-2.598 -17.43904,1.40697 -17.52788,1.44561c-0.25789,0.12033 -0.5335,0.17865 -0.80542,0.17865z"/>
    </g>
    <path stroke="null" id="svg_524" d="m883.68415,261.72721c0.33652,3.62871 -3.15907,6.92005 -7.80902,7.35143c-4.64934,0.43138 -8.69085,-2.16084 -9.02737,-5.7898c-0.33664,-3.62871 3.15894,-6.92005 7.80902,-7.35131c4.64921,-0.43126 8.69085,2.16096 9.02737,5.78968z" fill="#FF9999"/>
    <path stroke="null" id="svg_525" d="m1040.46905,210.62351c0.33664,3.62871 -3.15895,6.9203 -7.80902,7.35143c-4.64921,0.43126 -8.69085,-2.16084 -9.02737,-5.78956c-0.33652,-3.62902 3.15907,-6.9203 7.80902,-7.35149c4.64934,-0.43132 8.69085,2.16078 9.02737,5.78962z" fill="#FF9999"/>
    <g stroke="null" id="svg_526" display="inline">
     <path stroke="null" id="svg_527" d="m937.2371,252.26661c0,0 -4.58671,-7.54436 2.57192,-15.00296c7.15801,-7.4586 27.51939,-12.98817 34.63483,-5.31523c7.11606,7.67294 4.1584,33.90655 -6.00143,38.15023c-10.15897,4.24367 -28.11897,-9.90206 -31.20532,-17.83203z" fill="#660000"/>
     <path stroke="null" id="svg_528" d="m975.35939,258.33522c-23.96647,5.64191 -32.98572,-12.32104 -35.84432,-20.75782c-6.7361,7.35475 -2.27871,14.68908 -2.27871,14.68908c3.08709,7.93034 21.04708,22.07583 31.20606,17.83216c3.84687,-1.60691 6.66056,-6.36661 8.28679,-12.07742c-0.44615,0.09966 -0.90238,0.204 -1.36981,0.314z" fill="#540000"/>
     <path stroke="null" id="svg_529" d="m935.99598,245.55425c0,0 13.57901,26.10922 28.01549,21.34484c14.43648,-4.76487 5.52662,-37.63936 5.52662,-37.63936s5.93228,1.29439 7.32559,2.50535c0,0 12.30394,40.47003 -6.37252,46.56842c-18.6772,6.09863 -36.55783,-27.34492 -36.55783,-27.34492l2.06265,-5.43434z" fill="#FF8B00"/>
     <path stroke="null" id="svg_530" d="m933.93333,250.98871c0,0 15.82463,-26.14417 42.93035,-19.22362c0,0 -14.22559,-13.84109 -28.45118,-7.49736c-14.62166,6.52078 -14.47918,26.72098 -14.47918,26.72098z" fill="#FF8B00"/>
     <path stroke="null" id="svg_531" d="m956.27296,230.94244c-14.72083,5.44676 -17.99605,13.02779 -18.76911,8.75877c-0.37404,-2.06561 1.21687,-5.81982 2.95777,-9.14487c-6.61282,8.48427 -6.52829,20.43225 -6.52829,20.43225s15.82463,-26.14417 42.93035,-19.2235c0,0 -1.26695,-1.23238 -3.42213,-2.7929c-5.11812,-0.48638 -11.19817,-0.23882 -17.1686,1.97025z" fill="#FF7300"/>
     <path stroke="null" id="svg_532" d="m940.34399,235.54884c0,0 2.36324,-6.28036 8.88415,-9.84719c6.52165,-3.56707 18.55736,0.50324 18.46926,1.31284c-0.08748,0.80961 -6.60839,0.48306 -13.47984,2.88949c-6.87133,2.40618 -12.86685,7.96467 -13.87357,8.53361s-0.44381,-1.90738 0,-2.88875z" fill="#FFA039"/>
     <path stroke="null" id="svg_533" d="m970.49117,275.66574c-16.66081,5.44037 -32.68821,-20.58617 -35.95383,-26.26745l-0.60401,1.5903c0,0 17.88063,33.44355 36.55783,27.34492c8.44612,-2.75759 10.5559,-12.54498 10.33394,-22.43941c-0.21015,8.93398 -2.64906,17.26211 -10.33394,19.77165z" fill="#FF7300"/>
     <path stroke="null" id="svg_534" d="m940.51674,255.49544c0,0 10.5249,16.45422 25.19946,14.30495c14.6753,-2.14977 6.89347,-33.87198 7.56072,-34.68725c0.66651,-0.81527 4.4788,2.61941 5.41059,16.23164c0.93105,13.61223 -2.66826,21.4573 -12.30406,22.97661c-9.63507,1.51931 -19.23347,-9.11657 -23.71744,-14.74937c-4.48385,-5.63305 -3.61309,-6.09716 -2.14927,-4.07658z" fill="#FFA039"/>
     <path stroke="null" id="svg_535" d="m949.77998,240.9214c0,0 12.57734,-6.43675 15.63576,-5.5735c3.05756,0.86313 5.08724,17.50118 -0.14851,19.82788c-4.66103,2.07176 -22.63935,-9.59323 -15.48725,-14.25438z" fill="#770101"/>
    </g>
    <g stroke="null" id="svg_536" display="inline">
     <path stroke="null" id="svg_537" d="m1041.30905,319.61291c0,0 5.65815,-13.48993 18.62429,-11.74226c12.96602,1.74791 22.08678,26.11784 14.57158,34.01508c-7.51582,7.89749 -40.61252,-3.36492 -33.19587,-22.27282z" fill="#FF8B00"/>
     <path stroke="null" id="svg_538" d="m1051.11674,318.36675c0,0 2.40298,-6.34028 11.38766,-4.35761c8.9848,1.98268 13.77883,19.49505 9.49332,23.57188c-3.80786,3.62281 -27.18435,-6.39664 -20.88098,-19.21427z" fill="#FFA039"/>
     <path stroke="null" id="svg_539" d="m1046.83124,317.89723c0,0 2.83719,-6.75985 9.09357,-10.08884c-10.13117,1.11426 -14.61575,11.80452 -14.61575,11.80452c-7.15063,18.22896 23.35434,29.35061 32.28919,23.04945c-12.00348,0.94717 -32.80362,-9.37643 -26.767,-24.76513z" fill="#FF7300"/>
    </g>
    <path stroke="null" id="svg_540" d="m945.52462,127.93165c0,0 -23.74684,-20.23206 -41.40699,-14.91683c-17.66027,5.31517 -13.28802,34.37719 -4.97269,38.74925c8.31619,4.37225 19.4606,-10.28724 61.55317,-12.34479c42.09331,-2.05755 72.09788,24.17539 76.81329,22.11785c4.71467,-2.05736 -4.37225,-26.23288 -38.40664,-29.66196c0,0 -1.20001,-21.26068 -21.26081,-23.66121c-20.06018,-2.40034 -32.31933,19.71769 -32.31933,19.71769z" fill="#E22C14"/>
    <path stroke="null" id="svg_541" d="m846.46276,311.38887c0,0 -3.45437,-18.36874 -4.71836,-26.03589c-1.26387,-7.66765 -18.32592,-7.62532 -19.29511,-4.6342c-2.84753,8.79052 26.20409,42.80289 24.01347,30.67009z" fill="#FFDA3E"/>
    <path stroke="null" id="svg_542" d="m912.35877,381.96473c0,0 11.36342,4.47302 19.43624,5.19305c8.07208,0.72028 -15.52847,6.73549 -20.36212,4.31946c-4.83304,-2.41701 -1.9657,-10.57583 0.92588,-9.51252z" fill="#FFA039"/>
    <path stroke="null" id="svg_543" d="m1075.403,199.22349c0,0 3.45879,-4.78321 7.32621,-5.56341s10.88947,13.67117 9.49837,19.06496c-1.39024,5.39361 -20.07999,-8.44705 -16.82458,-13.50156z" fill="#FFDA3E"/>
    <g stroke="null" id="svg_544" display="inline">
     <path stroke="null" id="svg_545" d="m817.47303,121.2148l-7.51151,7.04881l-5.13202,-5.91961l-3.97766,2.70769l4.90501,6.14428l-7.01688,5.97928l-18.16794,-22.53003l7.74873,-6.00746l7.15727,9.14666l3.76455,-2.43048l-8.60263,-10.15042l7.30123,-5.89826l19.53184,21.90954z"/>
     <path stroke="null" id="svg_546" d="m837.12459,104.27893l-6.12558,6.04068l-3.79765,-2.9555l-3.73514,2.84015l1.99584,4.32408l-7.9766,4.91566l-10.08183,-26.99105l4.41187,-3.71915l25.30909,15.54514zm-14.32267,-1.47827l-5.57879,-4.75491l3.1208,6.62248l2.45798,-1.86757z"/>
    </g>
    <g stroke="null" id="svg_547" display="inline">
     <path stroke="null" id="svg_548" d="m922.59563,83.19887l-10.04811,2.27022l-1.42481,-7.70376l-4.80055,0.31874l1.11463,7.78257l-9.07954,1.59867l-4.24515,-28.62959l9.72476,-1.25231l1.53432,11.51224l4.47806,-0.18739l-2.27281,-13.11029l9.28317,-1.38482l5.73603,28.78573z"/>
     <path stroke="null" id="svg_549" d="m948.1193,78.5571l-8.34252,2.10326l-1.77609,-4.47234l-4.65893,0.5559l-0.471,4.73928l-9.36758,0.19551l4.98585,-28.37809l5.68903,-0.97017l13.94124,26.22667zm-11.59867,-8.53268l-2.39991,-6.92596l-0.66577,7.29065l3.06568,-0.36469z"/>
    </g>
    <g stroke="null" id="svg_550" display="inline">
     <path stroke="null" id="svg_551" d="m1021.14454,89.11479l-9.28465,-4.46059l3.66759,-6.92282l-3.9608,-2.73175l-3.9592,6.79221l-8.10961,-4.38585l14.4526,-25.07556l8.39986,5.05771l-5.94692,9.97601l3.62638,2.63381l6.35997,-11.68689l8.1368,4.67979l-13.38202,26.12393z"/>
     <path stroke="null" id="svg_552" d="m1044.03231,101.32768l-7.84433,-3.53231l1.38519,-4.6083l-3.99673,-2.45786l-3.31188,3.42231l-7.46377,-5.6643l21.53137,-19.14598l5.06066,2.77235l-5.36051,29.21409zm-3.79174,-13.89086l2.42058,-6.91864l-5.0491,5.30053l2.62852,1.61811z"/>
    </g>
    <g stroke="null" id="svg_553" display="inline">
     <g stroke="null" id="svg_554">
      <path stroke="null" id="svg_555" d="m799.02358,227.57309c-0.02129,0 -0.04257,0 -0.0625,-0.00135c-0.6606,-0.03236 -1.17934,-0.56242 -1.20949,-1.21084l-0.04331,-0.31769c-1.60051,-11.37904 -3.40158,-50.89662 40.6765,-81.66324c0.57608,-0.39994 1.36969,-0.25962 1.77092,0.31541c0.40124,0.57626 0.26097,1.36858 -0.31523,1.77092c-42.88987,29.93573 -41.16374,68.20659 -39.61318,79.22279c0.05438,0.38512 0.06755,0.61471 0.06534,0.67315c-0.03384,0.68054 -0.59441,1.21084 -1.26904,1.21084z" fill="#F98E00"/>
     </g>
     <g stroke="null" id="svg_556">
      <path stroke="null" id="svg_557" d="m839.11231,166.46601c-0.16094,0 -0.32409,-0.02978 -0.48133,-0.09443c-17.49269,-7.16035 -23.70932,-19.8643 -23.96499,-20.40075c-0.30206,-0.63341 -0.03384,-1.39085 0.5981,-1.69396c0.63341,-0.30422 1.3911,-0.0347 1.69673,0.59742c0.05808,0.12292 6.09691,12.37494 22.63357,19.14291c0.64953,0.26694 0.96107,1.00949 0.69506,1.65908c-0.20203,0.49173 -0.67672,0.78974 -1.17713,0.78974z" fill="#F98E00"/>
     </g>
     <g stroke="null" id="svg_558">
      <path stroke="null" id="svg_559" d="m817.47229,204.00921c-0.22123,0 -0.44467,-0.05709 -0.64818,-0.17761c-12.35254,-7.3331 -28.07713,-8.20349 -28.2329,-8.21099c-0.70182,-0.03605 -1.24185,-0.63323 -1.20727,-1.33376c0.03593,-0.70158 0.64584,-1.27784 1.33364,-1.20691c0.66799,0.03341 16.49766,0.90269 29.40573,8.5635c0.60327,0.35897 0.80173,1.1388 0.44455,1.74355c-0.23882,0.39994 -0.66134,0.62222 -1.09555,0.62222z" fill="#F98E00"/>
     </g>
     <g stroke="null" id="svg_560">
      <path stroke="null" id="svg_561" d="m813.54902,214.52636c-0.1837,0 -0.36961,-0.03974 -0.54753,-0.12427c-13.21518,-6.31967 -29.255,-3.12942 -29.4152,-3.09706c-0.69296,0.13276 -1.36095,-0.30059 -1.5027,-0.98986c-0.14113,-0.68669 0.30047,-1.35978 0.98826,-1.50122c0.68854,-0.14297 17.01947,-3.40521 31.02753,3.29331c0.63341,0.30293 0.90164,1.06295 0.59884,1.69636c-0.21889,0.45574 -0.67451,0.72274 -1.1492,0.72274z" fill="#F98E00"/>
     </g>
     <g stroke="null" id="svg_562">
      <path stroke="null" id="svg_563" d="m822.25082,384.78802c-0.25051,0 -0.50262,-0.07284 -0.72372,-0.22713c-26.99622,-18.75804 -31.06874,-51.57593 -31.10541,-51.90469c-0.08084,-0.6969 0.41957,-1.32785 1.11623,-1.40857c0.70613,-0.07678 1.33007,0.42105 1.40943,1.11647c0.0374,0.31794 3.99968,32.02059 30.03028,50.10855c0.57681,0.40037 0.72016,1.19325 0.31892,1.76932c-0.24694,0.35657 -0.64375,0.54605 -1.04572,0.54605z" fill="#F98E00"/>
     </g>
     <g stroke="null" id="svg_564">
      <path stroke="null" id="svg_565" d="m790.58779,374.00154c-0.53424,0 -1.03096,-0.33738 -1.2074,-0.87162c-0.22049,-0.66713 0.14187,-1.38741 0.80764,-1.60716c0.21815,-0.07186 22.01037,-7.40262 36.60041,-22.3491c0.49302,-0.50176 1.29771,-0.51062 1.79812,-0.02239c0.50336,0.49044 0.51296,1.2966 0.02276,1.79812c-15.03384,15.401 -36.7077,22.68623 -37.62324,22.98744c-0.13153,0.04479 -0.26675,0.06472 -0.39828,0.06472z" fill="#F98E00"/>
     </g>
     <g stroke="null" id="svg_566">
      <path stroke="null" id="svg_567" d="m867.00427,400.16072c-0.12058,0 -0.24325,-0.01698 -0.36666,-0.05291c-37.52715,-11.27003 -56.19918,-55.14755 -56.38288,-55.59001c-0.27044,-0.64818 0.03605,-1.39184 0.68411,-1.66277c0.64744,-0.26675 1.39257,0.03593 1.66302,0.68435c0.18001,0.43113 18.40676,43.21359 54.7676,54.13173c0.67316,0.20203 1.05372,0.91124 0.85316,1.58353c-0.16537,0.55122 -0.67094,0.90607 -1.21835,0.90607z" fill="#F98E00"/>
     </g>
     <g stroke="null" id="svg_568">
      <path stroke="null" id="svg_569" d="m838.48689,400.16072c-0.37257,0 -0.74071,-0.16241 -0.99122,-0.47395c-0.44098,-0.54679 -0.35497,-1.34779 0.19256,-1.78704c0.11529,-0.09499 11.68443,-9.48373 15.5313,-18.51491c0.27561,-0.6467 1.02444,-0.95012 1.66806,-0.67156c0.6467,0.27561 0.94717,1.02198 0.67168,1.66794c-4.09811,9.62055 -15.78119,19.09911 -16.27655,19.49874c-0.23513,0.18899 -0.51652,0.28078 -0.79583,0.28078z" fill="#F98E00"/>
     </g>
     <g stroke="null" id="svg_570">
      <path stroke="null" id="svg_571" d="m1137.54172,345.71007c-0.10655,0 -0.21458,-0.01353 -0.32114,-0.04085c-16.31174,-4.25228 -21.81929,-16.36244 -22.04568,-16.87675c-0.28287,-0.64178 0.00738,-1.38962 0.64818,-1.67384c0.64363,-0.28668 1.39097,0.00615 1.67828,0.64572c0.05069,0.11393 5.28644,11.51414 20.36003,15.44332c0.68041,0.17792 1.08756,0.87187 0.90964,1.5513c-0.14839,0.57239 -0.6643,0.9511 -1.2293,0.9511z" fill="#F98E00"/>
     </g>
     <g stroke="null" id="svg_572">
      <path stroke="null" id="svg_573" d="m1103.13402,360.35855c-0.40345,0 -0.80099,-0.19244 -1.04794,-0.5495c-0.39828,-0.5778 -0.25346,-1.36993 0.32556,-1.76883c0.3204,-0.22123 32.15692,-22.51816 38.48084,-55.40692c0.13374,-0.68927 0.80321,-1.13394 1.48879,-1.00967c0.69075,0.13288 1.1412,0.79976 1.00967,1.48904c-6.5246,33.92821 -39.20764,56.79408 -39.53616,57.02097c-0.22037,0.15232 -0.47248,0.22492 -0.72077,0.22492z" fill="#F98E00"/>
     </g>
     <g stroke="null" id="svg_574">
      <path stroke="null" id="svg_575" d="m1059.50344,144.97112c-0.45783,0 -0.89869,-0.24707 -1.1273,-0.68048c-0.32544,-0.62222 -0.08588,-1.39104 0.53498,-1.71746c0.25063,-0.13171 25.16944,-13.44797 31.14429,-36.54738c0.17496,-0.68171 0.86645,-1.09395 1.54834,-0.91265c0.68041,0.17509 1.08903,0.86934 0.91272,1.54847c-6.26006,24.20849 -31.359,37.60534 -32.42441,38.16419c-0.18739,0.09806 -0.38955,0.14531 -0.58863,0.14531z" fill="#F98E00"/>
     </g>
     <g stroke="null" id="svg_576">
      <path stroke="null" id="svg_577" d="m1111.51321,159.21252c-0.45845,0 -0.9009,-0.24713 -1.12791,-0.68177c-21.84353,-41.67479 -56.42028,-50.86568 -56.76714,-50.9539c-0.68041,-0.1725 -1.09272,-0.86436 -0.91998,-1.54477c0.17115,-0.68177 0.8619,-1.09291 1.54231,-0.92151c0.35793,0.0908 35.99935,9.50766 58.39779,52.24041c0.3263,0.62222 0.08527,1.38956 -0.53646,1.71623c-0.18813,0.09806 -0.39016,0.14531 -0.58863,0.14531z" fill="#F98E00"/>
     </g>
     <g stroke="null" id="svg_578">
      <path stroke="null" id="svg_579" d="m1112.74706,187.28042c-0.48429,0 -0.94581,-0.27684 -1.15806,-0.74636c-19.47007,-42.86194 -55.52529,-58.64061 -55.8869,-58.79472c-0.64584,-0.27555 -0.94569,-1.02198 -0.67156,-1.66769c0.27401,-0.64572 1.01693,-0.94889 1.66806,-0.6718c0.36961,0.15762 37.31023,16.28289 57.20504,60.08376c0.29025,0.63821 0.00738,1.39196 -0.63194,1.68258c-0.17053,0.07825 -0.34907,0.11424 -0.52464,0.11424z" fill="#F98E00"/>
     </g>
    </g>
   </g>
   <g stroke="null" id="svg_580">
    <path stroke="null" id="svg_581" d="m161.54997,29.09458l0,0c-144.43814,41.61696 -141.8023,207.85655 -141.8023,207.85655s-0.03451,0.0358 -0.09997,0.10286c-0.18001,15.32631 -0.61723,31.23866 -1.45717,46.58798c-2.27865,41.65319 5.17472,70.45996 52.33134,85.53564l141.10313,-31.33156l-48.2446,-308.9137c-0.61065,0.05254 -1.2205,0.10655 -1.83041,0.16223z" fill="#9E9E9E"/>
    <path stroke="null" id="svg_582" d="m57.48048,364.21907c25.27045,11.40956 65.57223,17.2311 128.76713,17.23184l33.81471,-0.39545c73.95413,-1.82961 106.9097,-9.75712 123.24728,-18.22896l-181.75963,-37.51903l-104.06949,38.9116z" fill="#7C7C7C"/>
    <g stroke="null" id="svg_583">
     <path stroke="null" id="svg_584" d="m199.34227,27.4761c-12.54719,-0.02184 -25.24659,0.47617 -37.7923,1.61848l0,296.21289l181.75963,37.51903c10.23538,-5.30773 13.94924,-10.82979 17.13624,-15.19995c8.99132,-12.32892 17.91152,-36.78349 16.39775,-84.37536c-1.28455,-40.38391 -89.91022,-235.62227 -177.50132,-235.77508z" fill="#BABABA"/>
    </g>
    <g stroke="null" id="svg_585">
     <g stroke="null" id="svg_586">
      <path stroke="null" id="svg_587" d="m106.97647,131.81635c-0.49782,0 -0.96999,-0.2945 -1.1735,-0.78242c-0.27044,-0.6483 0.03599,-1.39344 0.68448,-1.6629l88.3724,-36.79924c0.64959,-0.27075 1.39245,0.03599 1.6629,0.68429c0.27118,0.64818 -0.03599,1.39325 -0.68411,1.66277l-88.37277,36.79936c-0.1602,0.06706 -0.3255,0.09813 -0.48939,0.09813z"/>
     </g>
     <g stroke="null" id="svg_588">
      <path stroke="null" id="svg_589" d="m84.23124,157.74962c-0.49819,0 -0.97141,-0.29321 -1.1735,-0.78242c-0.27081,-0.6483 0.03599,-1.39344 0.68411,-1.664l115.42479,-48.04546c0.65107,-0.26946 1.39473,0.03605 1.66296,0.68435c0.27038,0.64941 -0.03599,1.39319 -0.68411,1.66271l-115.42485,48.0478c-0.1602,0.06472 -0.3255,0.09702 -0.48939,0.09702z"/>
     </g>
     <g stroke="null" id="svg_590">
      <path stroke="null" id="svg_591" d="m58.31156,182.77006c-0.49819,0 -0.97104,-0.29302 -1.1735,-0.78242c-0.27081,-0.64812 0.03599,-1.39325 0.68411,-1.664l115.42479,-48.04546c0.65107,-0.26823 1.39473,0.03599 1.66296,0.68435c0.27038,0.64941 -0.03599,1.39319 -0.68411,1.66271l-115.42485,48.04798c-0.1602,0.06447 -0.3255,0.09683 -0.48939,0.09683z"/>
     </g>
     <g stroke="null" id="svg_592">
      <path stroke="null" id="svg_593" d="m57.85963,197.8111c-0.49819,0 -0.97141,-0.29302 -1.1735,-0.78242c-0.27081,-0.64812 0.03599,-1.39319 0.68411,-1.664l115.42485,-48.04651c0.6459,-0.26091 1.39319,0.0347 1.66289,0.6854c0.27044,0.6483 -0.03599,1.39344 -0.68411,1.66419l-115.42485,48.04657c-0.16014,0.06466 -0.3255,0.09677 -0.48939,0.09677z"/>
     </g>
     <g stroke="null" id="svg_594">
      <path stroke="null" id="svg_595" d="m50.42096,214.25813c-0.49819,0 -0.9711,-0.29321 -1.1735,-0.78242c-0.27081,-0.6483 0.03599,-1.39344 0.68411,-1.66412l115.42479,-48.04663c0.64812,-0.25832 1.39473,0.0347 1.66296,0.68558c0.27038,0.64812 -0.03605,1.39325 -0.68417,1.66406l-115.42479,48.04657c-0.1602,0.0646 -0.3255,0.09696 -0.48939,0.09696z"/>
     </g>
     <g stroke="null" id="svg_596">
      <path stroke="null" id="svg_597" d="m43.43711,228.79981c-0.49819,0 -0.97141,-0.29296 -1.1735,-0.78217c-0.27118,-0.6483 0.03599,-1.39344 0.68411,-1.66412l115.42479,-48.04663c0.6467,-0.26085 1.39325,0.0347 1.66296,0.6854c0.27044,0.6483 -0.03599,1.39344 -0.68411,1.66425l-115.42522,48.04657c-0.1602,0.0646 -0.32514,0.09671 -0.48903,0.09671z"/>
     </g>
     <g stroke="null" id="svg_598">
      <path stroke="null" id="svg_599" d="m35.7376,243.82356c-0.49825,0 -0.97147,-0.29554 -1.17356,-0.78229c-0.27075,-0.64818 0.03605,-1.39331 0.68558,-1.664l115.42485,-48.04423c0.64295,-0.25826 1.39325,0.03986 1.66142,0.68564c0.27044,0.64812 -0.03599,1.39325 -0.68558,1.664l-115.42331,48.04417c-0.1602,0.06447 -0.32557,0.09671 -0.48939,0.09671z"/>
     </g>
     <g stroke="null" id="svg_600">
      <path stroke="null" id="svg_601" d="m33.44381,263.49702c-0.49788,0 -0.9711,-0.29308 -1.17356,-0.78254c-0.27075,-0.64818 0.03605,-1.39331 0.68454,-1.664l115.42479,-48.04675c0.64664,-0.26072 1.39325,0.03494 1.66289,0.68571c0.27044,0.64806 -0.03599,1.39307 -0.68484,1.664l-115.42479,48.04663c-0.1602,0.06472 -0.32483,0.09696 -0.48903,0.09696z"/>
     </g>
     <g stroke="null" id="svg_602">
      <path stroke="null" id="svg_603" d="m33.44381,280.62206c-0.49788,0 -0.9711,-0.29308 -1.17356,-0.78254c-0.27075,-0.64818 0.03605,-1.39331 0.68454,-1.66449l115.42479,-48.04626c0.64664,-0.25851 1.39325,0.03482 1.66289,0.68546c0.27044,0.6483 -0.03599,1.39331 -0.68484,1.664l-115.42479,48.04688c-0.1602,0.06472 -0.32483,0.09696 -0.48903,0.09696z"/>
     </g>
     <g stroke="null" id="svg_604">
      <path stroke="null" id="svg_605" d="m35.7376,293.98403c-0.49825,0 -0.97147,-0.29333 -1.17356,-0.78278c-0.27075,-0.64793 0.03605,-1.39307 0.68417,-1.66351l115.42479,-48.047c0.64959,-0.26072 1.39473,0.03494 1.6629,0.68571c0.27044,0.64818 -0.03599,1.39331 -0.68411,1.664l-115.42479,48.04638c-0.1602,0.06472 -0.32557,0.0972 -0.48939,0.0972z"/>
     </g>
     <g stroke="null" id="svg_606">
      <path stroke="null" id="svg_607" d="m35.7376,308.93544c-0.49825,0 -0.97147,-0.29308 -1.17356,-0.78254c-0.27075,-0.64818 0.03605,-1.39331 0.68417,-1.66376l115.42479,-48.04663c0.64959,-0.2606 1.39473,0.0347 1.6629,0.68534c0.27044,0.64842 -0.03599,1.39356 -0.68411,1.66425l-115.42479,48.04639c-0.1602,0.06472 -0.32557,0.09696 -0.48939,0.09696z"/>
     </g>
     <g stroke="null" id="svg_608">
      <path stroke="null" id="svg_609" d="m52.59017,318.00624c-0.49745,0 -0.97067,-0.29308 -1.1735,-0.78254c-0.27044,-0.64818 0.03599,-1.39331 0.68448,-1.66449l115.42516,-48.04638c0.65033,-0.26085 1.39399,0.03494 1.66222,0.68534c0.27112,0.64842 -0.03599,1.39331 -0.68411,1.66449l-115.42485,48.04663c-0.1602,0.06472 -0.32514,0.09696 -0.48939,0.09696z"/>
     </g>
     <g stroke="null" id="svg_610">
      <path stroke="null" id="svg_611" d="m64.63406,325.95122c-0.49819,0 -0.97147,-0.29308 -1.1735,-0.78254c-0.27118,-0.64818 0.03599,-1.39331 0.68411,-1.66375l115.42479,-48.04639c0.64664,-0.25863 1.39325,0.03445 1.66296,0.68558c0.27038,0.64818 -0.03605,1.39307 -0.68491,1.66351l-115.42442,48.04663c-0.16057,0.06472 -0.32514,0.09696 -0.48903,0.09696z"/>
     </g>
     <g stroke="null" id="svg_612">
      <path stroke="null" id="svg_613" d="m58.31156,342.03017c-0.49819,0 -0.97104,-0.29259 -1.1735,-0.78205c-0.27081,-0.64793 0.03599,-1.39307 0.68411,-1.66425l115.42479,-48.04614c0.65107,-0.26085 1.39473,0.03445 1.66296,0.68558c0.27038,0.64818 -0.03599,1.39307 -0.68411,1.66351l-115.42485,48.04688c-0.1602,0.06398 -0.3255,0.09646 -0.48939,0.09646z"/>
     </g>
     <g stroke="null" id="svg_614">
      <path stroke="null" id="svg_615" d="m84.99477,349.97294c-0.49788,0 -0.97073,-0.29259 -1.17356,-0.78205c-0.27038,-0.64793 0.03605,-1.39307 0.68454,-1.66425l115.42442,-48.04614c0.64885,-0.26085 1.39473,0.03445 1.66289,0.68484c0.27118,0.64892 -0.03599,1.39405 -0.68411,1.66425l-115.42479,48.04712c-0.1602,0.06374 -0.32556,0.09622 -0.48939,0.09622z"/>
     </g>
     <g stroke="null" id="svg_616">
      <path stroke="null" id="svg_617" d="m86.11905,364.78851c-0.49825,0 -0.97147,-0.29604 -1.17356,-0.78254c-0.27112,-0.64818 0.03605,-1.39331 0.68528,-1.66449l115.42516,-48.04392c0.64147,-0.26085 1.39325,0.0374 1.66142,0.68558c0.27044,0.64818 -0.03599,1.39331 -0.68558,1.66449l-115.42368,48.04392c-0.1602,0.06472 -0.3252,0.09696 -0.48902,0.09696z"/>
     </g>
     <g stroke="null" id="svg_618">
      <path stroke="null" id="svg_619" d="m110.30379,366.05238c-0.49825,0 -0.97147,-0.29308 -1.17356,-0.78254c-0.27112,-0.64818 0.03605,-1.39331 0.68417,-1.66376l115.42479,-48.04688c0.64818,-0.25789 1.39319,0.03765 1.66289,0.68558c0.27044,0.64818 -0.03593,1.39331 -0.68411,1.66449l-115.42516,48.04614c-0.1602,0.06472 -0.3252,0.09696 -0.48903,0.09696z"/>
     </g>
     <g stroke="null" id="svg_620">
      <path stroke="null" id="svg_621" d="m141.97919,364.78851c-0.49819,0 -0.97141,-0.29604 -1.17368,-0.78254c-0.27081,-0.64818 0.03599,-1.39331 0.68503,-1.66449l115.42498,-48.04392c0.65113,-0.25789 1.39405,0.03962 1.66437,0.68558c0.26823,0.64818 -0.0374,1.39331 -0.68558,1.66449l-115.42719,48.04392c-0.15946,0.06472 -0.32403,0.09696 -0.48792,0.09696z"/>
     </g>
     <g stroke="null" id="svg_622">
      <path stroke="null" id="svg_623" d="m151.16239,373.99736c-0.49825,0 -0.97147,-0.29234 -1.17356,-0.7818c-0.27112,-0.64818 0.03605,-1.39331 0.68417,-1.66449l115.42504,-48.04614c0.65027,-0.26085 1.39319,0.0347 1.66437,0.68558c0.26823,0.64818 -0.03753,1.39331 -0.68558,1.66376l-115.42504,48.04688c-0.1602,0.06398 -0.32557,0.09622 -0.48939,0.09622z"/>
     </g>
     <g stroke="null" id="svg_624">
      <path stroke="null" id="svg_625" d="m180.05885,373.99736c-0.49819,0 -0.97147,-0.29234 -1.1735,-0.7818c-0.27118,-0.64818 0.03599,-1.39331 0.68411,-1.66449l115.42356,-48.04614c0.65101,-0.26085 1.39319,0.0347 1.66437,0.68558c0.26823,0.64818 -0.03753,1.39331 -0.68558,1.66376l-115.4243,48.04688c-0.1602,0.06398 -0.32477,0.09622 -0.48866,0.09622z"/>
     </g>
     <g stroke="null" id="svg_626">
      <path stroke="null" id="svg_627" d="m221.79947,370.86844c-0.49819,0 -0.97147,-0.29308 -1.17356,-0.78254c-0.27112,-0.64818 0.03605,-1.39331 0.68484,-1.66449l86.21987,-35.88825c0.65039,-0.26085 1.39331,0.03445 1.66375,0.68558c0.26811,0.64818 -0.03679,1.39331 -0.68497,1.66376l-86.2206,35.88899c-0.16094,0.06472 -0.32544,0.09696 -0.48933,0.09696z"/>
     </g>
     <g stroke="null" id="svg_628">
      <path stroke="null" id="svg_629" d="m247.80804,375.31414c-0.49671,0 -0.97067,-0.29308 -1.17504,-0.78254c-0.26823,-0.64818 0.03753,-1.39331 0.68558,-1.66351l86.22073,-35.89218c0.65322,-0.25789 1.39393,0.03519 1.66437,0.68558c0.26823,0.64818 -0.03753,1.39331 -0.68558,1.66449l-86.2206,35.8912c-0.16168,0.06472 -0.32557,0.09696 -0.48946,0.09696z"/>
     </g>
     <g stroke="null" id="svg_630">
      <path stroke="null" id="svg_631" d="m300.41973,364.78851c-0.49671,0 -0.97079,-0.29308 -1.17504,-0.78254c-0.26823,-0.64818 0.03753,-1.39331 0.68558,-1.66449l38.17447,-15.88996c0.65039,-0.25863 1.39331,0.0347 1.66363,0.68484c0.26823,0.64892 -0.03667,1.39405 -0.68558,1.66449l-38.17373,15.8907c-0.16168,0.06472 -0.32544,0.09696 -0.48933,0.09696z"/>
     </g>
    </g>
    <g stroke="null" id="svg_632">
     <path stroke="null" id="svg_633" d="m147.28544,321.79442c0,0 -2.44851,28.31879 18.73743,29.59595c21.18588,1.2779 31.80785,-29.59595 31.80785,-29.59595s6.62451,33.2158 32.0695,30.87385c25.44493,-2.34196 22.14485,-36.41018 22.14485,-36.41018s-73.77917,-11.4979 -104.75963,5.53634z" fill="#FF8B00"/>
     <g stroke="null" id="svg_634">
      <g stroke="null" id="svg_635">
       <g stroke="null" id="svg_636">
        <path stroke="null" id="svg_637" d="m169.24438,348.16892c-18.07904,-1.09063 -18.94691,-21.87146 -18.81316,-27.94351c-1.09051,0.49388 -2.14054,1.01632 -3.14578,1.56828c0,0 -2.44851,28.31953 18.73743,29.59669c8.41087,0.50693 15.15664,-4.05345 20.23428,-9.73719c-4.60006,4.07314 -10.27143,6.92202 -17.01277,6.51574z" fill="#FF7300"/>
       </g>
       <g stroke="null" id="svg_638">
        <path stroke="null" id="svg_639" d="m233.12167,349.44608c-25.44419,2.34245 -32.0687,-30.87409 -32.0687,-30.87409s-0.84504,2.45589 -2.53371,5.95443c2.24051,7.89576 10.43169,30.0699 31.38096,28.14185c7.02722,-0.6467 11.86087,-3.71386 15.17792,-7.81431c-3.02975,2.43005 -6.93162,4.12974 -11.95647,4.59212z" fill="#FF7300"/>
       </g>
      </g>
     </g>
     <path stroke="null" id="svg_640" d="m87.2426,230.24652c-0.53424,0.17804 -17.01025,20.57264 -17.09951,46.48918c-0.0889,25.9163 29.70256,2.6717 29.70256,2.6717l-12.60305,-49.16089z" fill="#FECE00"/>
     <path stroke="null" id="svg_641" d="m72.63269,270.69023c0.03014,-8.82989 1.96274,-17.01849 4.51922,-23.98554c-3.68224,8.05215 -6.96915,18.49473 -7.00883,30.03102c-0.0889,25.9163 29.70256,2.6717 29.70256,2.6717l-0.92846,-3.62109c-7.82262,5.19576 -26.35506,15.35227 -26.28449,-5.0961z" fill="#FCC000"/>
     <path stroke="null" id="svg_642" d="m334.61801,245.83651c0,0 7.19542,-10.25888 15.19921,-10.23034c8.00453,0.02855 15.19047,9.56752 7.03313,14.28809c-8.15809,4.72058 -22.23234,-4.05776 -22.23234,-4.05776z" fill="#CD2606"/>
     <path stroke="null" id="svg_643" d="m334.61801,245.83626c0,0 14.07425,8.77858 22.23234,4.058c1.99203,-1.15314 3.06937,-2.59407 3.44268,-4.11337c-3.05694,1.69415 -7.31969,-1.04585 -11.88892,-2.94584c-3.39998,-1.41398 -8.13459,-0.9308 -10.88356,-0.45968c-1.80907,1.90147 -2.90253,3.46089 -2.90253,3.46089z" fill="#BC1A04"/>
     <path stroke="null" id="svg_644" d="m338.50228,244.62603c0,0 10.07088,-3.88021 19.87648,5.81638s-2.00175,14.24245 -9.93787,12.73397c-7.93612,-1.50872 -13.15341,-16.31814 -9.93861,-18.55034z" fill="#CD2606"/>
     <path stroke="null" id="svg_645" d="m362.07933,257.53989c-2.0928,2.49133 -6.23361,3.75299 -7.81419,2.82009c-1.90467,-1.12385 -2.18533,-5.21323 -7.18004,-10.61349c-2.99665,-3.23978 -4.91375,-4.90637 -5.96833,-5.72164c-1.63866,0.22541 -2.61449,0.60105 -2.61449,0.60105c-3.21481,2.23233 2.00249,17.0415 9.93861,18.55047c5.64129,1.07242 13.23942,-0.91444 13.63844,-5.63649z" fill="#BC1A04"/>
     <path stroke="null" id="svg_646" d="m335.67542,246.17844c0,0 8.08242,-1.72429 13.79347,9.914c5.71192,11.63841 -1.2389,19.39686 -8.72826,17.45774c-7.48948,-1.94011 -5.06521,-27.37174 -5.06521,-27.37174z" fill="#CD2606"/>
     <path stroke="null" id="svg_647" d="m342.71507,270.00981c-5.75953,-1.49199 -5.65593,-16.87281 -5.30108,-23.90138c-1.07722,-0.07062 -1.73856,0.07001 -1.73856,0.07001s-2.42427,25.43164 5.06521,27.37174c4.55742,1.17996 8.91565,-1.23164 10.34193,-5.92367c-2.05749,2.26567 -5.16291,3.21284 -8.3675,2.3833z" fill="#BC1A04"/>
     <path stroke="null" id="svg_648" d="m156.1269,123.60517c0,0 13.62084,-36.0677 47.50242,-42.56283c33.88158,-6.49501 34.08287,28.31836 34.08287,28.31836s35.87077,-3.88193 45.71304,30.00383c0,0 41.16448,20.78747 13.29897,51.13101c-27.86477,30.34354 -155.158,-25.70331 -155.158,-25.70331l14.56069,-41.18705z" fill="#CD2606"/>
     <path stroke="null" id="svg_649" d="m228.96548,118.72919c-39.6683,-7.92093 -65.09422,14.89118 -61.21721,-1.72134c1.6269,-6.97044 6.88831,-16.57794 12.57143,-25.40254c-16.98047,12.90456 -24.1928,31.99986 -24.1928,31.99986l-14.56069,41.18705c0,0 127.29323,56.04686 155.158,25.70331c3.01363,-3.28106 5.21877,-6.45034 6.75678,-9.49369c-22.28881,-35.44764 -39.16347,-55.21369 -74.5155,-62.27265z" fill="#BC1A04"/>
     <path stroke="null" id="svg_650" d="m157.53411,144.71335c0,0 25.77197,-28.70723 65.09354,-23.92254c39.32219,4.78443 58.8827,24.76691 80.13181,71.76813c21.249,47.00103 25.89243,52.20787 35.74281,52.06711c0,0 -7.17635,62.76205 -54.88154,81.89979c-47.70446,19.13872 -110.08495,27.59875 -163.93904,-3.65874c-61.73533,-35.83165 -38.55952,-173.65051 36.44519,-199.26191c0,0 -2.25152,10.97633 1.40722,21.10817z" fill="#FECE00"/>
     <path stroke="null" id="svg_651" d="m234.48631,274.52959c0,0 4.91523,31.43122 26.7478,26.17296c21.83184,-5.25777 26.86174,-37.60589 32.00558,-41.14922c5.1431,-3.54382 29.49026,-8.57323 32.23332,-4.57256c2.74381,4.00067 -5.52735,37.1456 -44.24566,50.32547c-38.71818,13.18061 -112.17701,10.19785 -140.48909,-39.4456c-24.52132,-42.99778 21.42525,-125.41975 59.00008,-133.87178c37.57409,-8.45185 70.52609,21.94663 84.12787,45.49335c13.60239,23.54672 19.20332,50.88278 16.00316,55.56078c-3.20103,4.67788 -30.29125,6.73525 -34.52016,11.19325c-4.22977,4.45788 0.67082,26.40477 -5.95148,29.03316c-6.62229,2.62913 -27.42748,-14.16813 -24.91142,1.26018z" fill="#FFDA3E"/>
     <path stroke="null" id="svg_652" d="m283.62074,326.52582c11.45238,-4.59409 20.56796,-11.70289 27.81038,-19.85285c-62.99779,22.3902 -165.26412,27.17106 -188.42505,-41.01658c-28.7047,-84.50757 33.12082,-142.05122 33.12082,-142.05122c-75.00471,25.61122 -98.18052,163.42953 -36.44519,199.26191c53.85409,31.25749 116.23458,22.79672 163.93904,3.65874z" fill="#FCC000"/>
     <path stroke="null" id="svg_653" d="m245.38242,276.98695c0,0 12.89404,12.78786 25.35092,1.66277c0,0 -1.49101,11.17873 -10.54052,13.30758c-9.04939,2.12959 -14.87586,-9.87352 -14.8104,-14.97035z" fill="#FCC000"/>
     <path stroke="null" id="svg_654" d="m160.045,214.87961l6.83097,17.20108l7.83701,-5.45796c0,0 1.52257,-0.91591 1.09192,-2.71772c-0.42984,-1.80205 -0.75319,-4.90428 -1.39836,-5.50459c-0.64516,-0.60044 -0.18591,-1.42432 -3.45443,-1.72503c-3.26925,-0.30071 -10.90712,-1.79578 -10.90712,-1.79578z" fill="#660000"/>
     <path stroke="null" id="svg_655" d="m166.87597,232.08056l6.86038,-4.77767c-0.31744,-0.01292 -0.67309,0 -1.07353,0.04356c-6.20789,0.67845 -9.616,-9.73522 -10.28841,-12.02575c-1.37633,-0.25445 -2.32941,-0.4411 -2.32941,-0.4411l6.83097,17.20096z" fill="#540000"/>
     <circle stroke="null" id="svg_656" r="11.85835" cy="206.87581" cx="222.62796"/>
     <g stroke="null" id="svg_657">
      <path stroke="null" id="svg_658" d="m243.47689,206.90393c-0.1271,0 -0.25642,-0.01249 -0.38278,-0.03728c-19.04238,-3.87953 -26.59646,-19.39754 -26.90948,-20.05575c-0.45045,-0.95104 -0.04559,-2.08382 0.90453,-2.53827c0.95086,-0.44701 2.08843,-0.04725 2.54177,0.90158c0.06835,0.14408 7.1043,14.46497 24.22295,17.95194c1.03317,0.21126 1.69895,1.21964 1.49027,2.25023c-0.18591,0.90404 -0.981,1.52755 -1.86727,1.52755z"/>
     </g>
     <g stroke="null" id="svg_659">
      <path stroke="null" id="svg_660" d="m103.05393,199.49258c-0.99718,0 -1.83411,-0.77485 -1.90024,-1.78323c-0.06983,-1.05064 0.72674,-1.95721 1.77677,-2.02666c0.14334,-0.0099 14.41556,-1.10773 23.62995,-13.4193c0.62978,-0.84689 1.82537,-1.0133 2.66967,-0.38506c0.84357,0.63089 1.01625,1.82808 0.38506,2.67004c-10.29942,13.7621 -25.7852,14.89961 -26.43848,14.93929c-0.04226,0.00492 -0.08305,0.00492 -0.12273,0.00492z"/>
     </g>
     <circle stroke="null" id="svg_661" r="2.29483" cy="202.48302" cx="225.95197" fill="#FFFFFF"/>
     <circle stroke="null" id="svg_662" r="4.77789" cy="209.55539" cx="220.51422" fill="#FFFFFF"/>
     <circle stroke="null" id="svg_663" r="11.85795" cy="204.77748" cx="119.68167"/>
     <path stroke="null" id="svg_664" d="m125.30054,200.38487c0,1.26719 -1.02764,2.29452 -2.29446,2.29452c-1.26763,0 -2.29489,-1.02733 -2.29489,-2.29452s1.02727,-2.29471 2.29489,-2.29471c1.26683,0 2.29446,1.02751 2.29446,2.29471z" fill="#FFFFFF"/>
     <circle stroke="null" id="svg_665" r="4.7777" cy="207.45724" cx="117.56814" fill="#FFFFFF"/>
     <g stroke="null" id="svg_666">
      <path stroke="null" id="svg_667" d="m237.97599,217.50911c0,2.96639 -3.00982,5.37097 -6.72368,5.37097c-3.71312,0 -6.72368,-2.40458 -6.72368,-5.37097c0,-2.96602 3.01056,-5.3706 6.72368,-5.3706c3.71386,0 6.72368,2.40458 6.72368,5.3706z" fill="#6EB8E5"/>
      <path stroke="null" id="svg_668" d="m232.43904,221.03939c-3.71386,0 -6.72368,-2.40471 -6.72368,-5.37097c0,-0.51677 0.09326,-1.01582 0.2638,-1.48891c-0.90681,0.9153 -1.45053,2.07139 -1.45053,3.3296c0,2.96639 3.01056,5.37072 6.72368,5.37072c3.06642,0 5.65163,-1.64038 6.45988,-3.88193c-1.23078,1.24283 -3.13483,2.04149 -5.27315,2.04149z" fill="#56ABD6"/>
      <path stroke="null" id="svg_669" d="m236.68566,218.08789c-0.63637,1.53604 -3.06716,1.98747 -5.42892,1.00844c-2.36103,-0.97916 -3.75938,-3.01794 -3.12228,-4.55398c0.63637,-1.53604 3.06716,-1.9876 5.42892,-1.00844c2.36103,0.97891 3.75938,3.01794 3.12228,4.55398z" fill="#7ECBF2"/>
     </g>
     <g stroke="null" id="svg_670">
      <path stroke="null" id="svg_671" d="m113.70015,216.31512c0,2.96602 -3.01056,5.37072 -6.72368,5.37072c-3.71386,0 -6.72368,-2.40471 -6.72368,-5.37072c0,-2.96626 3.00982,-5.37072 6.72368,-5.37072c3.71312,0 6.72368,2.40446 6.72368,5.37072z" fill="#6EB8E5"/>
      <path stroke="null" id="svg_672" d="m108.16246,219.84516c-3.71343,0 -6.72368,-2.40446 -6.72368,-5.37085c0,-0.51677 0.09333,-1.01595 0.2638,-1.48892c-0.90675,0.91542 -1.44979,2.07151 -1.44979,3.32973c0,2.96602 3.00982,5.37072 6.72331,5.37072c3.06679,0 5.65193,-1.64038 6.46025,-3.88193c-1.23157,1.24271 -3.13551,2.04125 -5.27389,2.04125z" fill="#56ABD6"/>
      <ellipse stroke="null" id="svg_673" ry="23.89763" rx="36.73815" cy="1438.09699" cx="-388.47088" fill="#7ECBF2" transform="matrix(0.11638627233808826,0.04825585612748834,-0.04825585612748834,0.11638627233808826,222.74293738280159,66.4922134872662) "/>
     </g>
     <g stroke="null" id="svg_674">
      <path stroke="null" id="svg_675" d="m154.29279,218.73385c0,0 14.52316,-3.42951 17.10536,4.68613c2.58145,8.11551 -11.83374,9.62153 -11.83374,9.62153s17.53163,2.73101 21.20433,-9.00375c4.14149,-13.23228 -22.54904,-24.39896 -26.47595,-5.30391z" fill="#FF8B00"/>
      <path stroke="null" id="svg_676" d="m159.56441,233.04151c10.10686,0.11713 17.7763,-6.92473 11.94688,-13.24336c-5.82936,-6.31838 -11.16354,-1.77646 -11.90277,-5.29936c-0.38432,-1.82666 0.87962,-3.81918 2.18539,-5.31449c-3.50364,1.21503 -6.39891,4.19015 -7.50111,9.54955c0,0 14.52316,-3.42951 17.10536,4.68588c2.58145,8.11576 -11.83374,9.62178 -11.83374,9.62178z" fill="#FF7300"/>
      <path stroke="null" id="svg_677" d="m164.26517,214.76936c0,0 4.99317,-0.86178 9.26398,4.97478c4.27013,5.83668 -0.58715,9.63617 -2.68284,10.92896c-2.09575,1.29254 4.91603,1.23373 8.18676,-6.46345c3.27073,-7.6973 -7.2271,-14.70902 -12.22175,-14.29769s-5.95431,4.97478 -2.54614,4.8574z" fill="#FFA039"/>
     </g>
     <path stroke="null" id="svg_678" d="m166.02872,219.67475c0,0 4.01586,1.33314 4.71178,5.10409c0.69586,3.7712 -8.09417,-5.97978 -4.71178,-5.10409z" fill="#770101"/>
     <path stroke="null" id="svg_679" d="m245.38242,276.98695c0,0 4.41334,16.07034 15.78993,12.52037c11.37671,-3.55071 10.23329,-35.91962 10.23329,-35.91962s8.23007,29.20849 -6.45471,39.21317c-14.6849,10.00468 -21.38582,-10.97301 -19.56851,-15.81392z" fill="#F99300"/>
     <path stroke="null" id="svg_680" d="m175.77187,112.74419c0,0 5.37897,-21.51544 26.39511,-25.78095c21.0162,-4.26533 26.70154,14.73202 29.15731,21.79117c2.45515,7.05896 23.0855,3.58251 35.14188,11.49846c12.05626,7.91576 10.81884,18.34911 16.26696,22.10886c5.44725,3.75975 18.64262,14.17656 19.48914,21.79124c0.84357,7.5961 -3.45301,0.69032 -22.71219,-20.56354c-19.25918,-21.25404 -44.88633,-29.23378 -61.22976,-30.3847c-16.34336,-1.15092 -44.83275,5.58346 -42.50845,-0.46054z" fill="#E22C14"/>
     <path stroke="null" id="svg_681" d="m340.50477,261.66766c-0.03753,-0.13781 -2.65792,-8.71571 -0.80026,-10.74465c1.85693,-2.02882 7.51508,2.57192 9.48742,9.94439c1.97148,7.37259 -6.17258,10.08736 -8.68716,0.80026z" fill="#E22C14"/>
     <path stroke="null" id="svg_682" d="m353.70592,257.04379c0,0 -5.7551,-8.53238 -8.62318,-10.95529c-2.86808,-2.42267 5.56267,-0.30526 10.08626,3.60214c4.52359,3.90777 4.81237,6.81424 3.73441,7.9691c-1.07796,1.15511 -3.58381,1.70756 -5.19748,-0.61594z" fill="#E22C14"/>
     <path stroke="null" id="svg_683" d="m343.02009,240.36858c0,0 7.40926,1.00167 10.83939,3.09423c3.43025,2.09243 5.69789,-0.70625 3.98061,-3.07626c-1.71802,-2.37025 -5.81761,-4.02441 -9.77472,-3.23695c-3.95625,0.78734 -7.17782,2.93759 -5.04528,3.21899z" fill="#E22C14"/>
     <path stroke="null" id="svg_684" d="m83.60004,274.78748c0,0 -1.97007,-19.90797 -2.05238,-26.02396c-0.08194,-6.11598 -7.2653,7.22433 -6.23871,21.09839c1.02579,13.87332 8.73416,9.55287 8.29109,4.92556z" fill="#FFDA3E"/>
     <path stroke="null" id="svg_685" d="m160.82834,340.79853c0,0 15.72392,2.4933 15.87673,3.86741c0.15288,1.37338 -4.22964,2.72191 -9.97675,1.4755c-5.74711,-1.24689 -10.02972,-6.04917 -5.89998,-5.34292z" fill="#FFA039"/>
     <path stroke="null" id="svg_686" d="m223.15747,343.93115c0,0 19.15398,-3.72124 20.65016,-3.21062c1.49544,0.51087 -1.89729,5.61705 -11.0915,6.71359c-9.19495,1.09555 -13.26298,-2.80114 -9.55866,-3.50297z" fill="#FFA039"/>
    </g>
    <path stroke="null" id="svg_687" d="m256.71348,222.88008c0,4.15213 -3.79174,7.51827 -8.46901,7.51827c-4.67788,0 -8.46963,-3.36615 -8.46963,-7.51827c0,-4.15238 3.79174,-7.51828 8.46963,-7.51828c4.67727,0 8.46901,3.3659 8.46901,7.51828z" fill="#FF9999"/>
    <ellipse stroke="null" id="svg_688" ry="7.51803" rx="8.46929" cy="223.48027" cx="91.1563" fill="#FF9999"/>
   </g>
  </g>
 </g>
</svg>