<svg width="400" height="400" xmlns="http://www.w3.org/2000/svg">

 <g>
  <title>background</title>
  <rect fill="none" id="canvas_background" height="402" width="402" y="-1" x="-1"/>
 </g>
 <g>
  <title>Layer 1</title>
  <g stroke="null" id="svg_1">
   <g stroke="null" id="svg_2">
    <path stroke="null" id="svg_3" d="m217.55336,22.29425c-16.65093,0 -30.92448,10.15663 -36.97829,24.61044c-6.07544,-3.70884 -13.1892,-5.88446 -20.82834,-5.88446c-22.13512,0 -40.07956,17.94423 -40.07956,40.07977c0,1.27319 0.07458,2.52855 0.19063,3.77174c-16.10357,1.24692 -28.79027,14.68025 -28.79027,31.10343c0,17.24682 13.9809,31.22744 31.22723,31.22744c15.67413,0 28.61311,-11.56018 30.8488,-26.61257c2.15302,0.35763 4.34896,0.58932 6.60317,0.58932c16.65121,0 30.92476,-10.15663 36.97856,-24.61044c6.07544,3.70884 13.18913,5.8846 20.82806,5.8846c22.13539,0 40.07963,-17.94424 40.07963,-40.07991c0,-22.13512 -17.94424,-40.07935 -40.07963,-40.07935z" fill="#CD2606"/>
    <path stroke="null" id="svg_4" d="m254.38172,46.56186c-6.13523,-14.26982 -20.31021,-24.26761 -36.82836,-24.26761c-16.65093,0 -30.92448,10.15663 -36.97829,24.61044c-6.07544,-3.70884 -13.1892,-5.88446 -20.82834,-5.88446c-22.13512,0 -40.07956,17.94423 -40.07956,40.07977c0,1.27319 0.07458,2.52855 0.19063,3.77174c-16.10357,1.24692 -28.79027,14.68025 -28.79027,31.10343c0,15.94003 11.95084,29.06439 27.37614,30.96575c0.74498,-8.17109 0.11232,-17.23672 -5.30862,-15.48066c-8.81881,2.85659 -18.50715,-10.55738 -12.91783,-24.59344c5.58973,-14.03522 23.59984,-15.77428 25.58711,-18.63129c1.98748,-2.85659 -4.22316,-24.7173 16.64395,-33.53618c20.86711,-8.81874 36.51746,0.12442 39.24998,-0.74539c2.73266,-0.86939 8.26288,-20.64116 36.51746,-24.09619c16.84246,-2.05964 29.04995,8.13307 36.16599,16.70408z" fill="#B51702"/>
    <path stroke="null" id="svg_5" d="m350.04003,202.6794c0,0 22.71655,13.38598 23.9914,16.80521c1.27485,3.41895 -19.23941,21.2096 -19.23941,21.2096l-4.752,-38.01481z" fill="#FF8B00"/>
    <path stroke="null" id="svg_6" d="m354.79203,240.69421c0,0 8.28914,-7.19345 14.00205,-13.31278c-9.22862,-2.56905 -12.1723,-14.57132 -13.08123,-21.26718c-3.27076,-2.01817 -5.67268,-3.43485 -5.67268,-3.43485l4.75186,38.01481z" fill="#FF7300"/>
    <path stroke="null" id="svg_7" d="m206.35385,338.63334c0,0 3.22127,39.27922 18.28866,39.07158c15.06739,-0.20791 20.78265,-40.52642 20.78265,-40.52642l-39.07131,1.45484z" fill="#FF8B00"/>
    <path stroke="null" id="svg_8" d="m228.18173,373.64509c-12.12841,0.16727 -16.57877,-25.23736 -17.85445,-35.15967l-3.97364,0.14792c0,0 3.22147,39.27922 18.28887,39.07158c3.83865,-0.05308 7.06703,-2.71641 9.75179,-6.64658c-1.86575,1.59308 -3.93023,2.55523 -6.21257,2.58675z" fill="#FF7300"/>
    <path stroke="null" id="svg_9" d="m47.79837,224.53839c0,0 26.16398,-0.76336 35.26453,-30.64952c9.10061,-29.88651 30.99865,-107.24102 116.60055,-124.30425c85.6019,-17.06351 146.17726,75.93257 156.98403,164.37787c10.80677,88.44647 -53.18118,129.11417 -154.42452,122.85743c-101.24348,-6.25646 -144.18668,-76.01178 -154.42459,-132.28152z" fill="#FECE00"/>
    <path stroke="null" id="svg_10" d="m338.02269,210.67762c-10.3485,-64.45071 -60.6384,-109.29409 -100.94281,-108.20448c-40.3042,1.08905 -95.13279,39.7596 -104.57361,66.08422c-9.44054,26.32558 -22.14908,58.82324 -22.14908,58.82324c-6.92243,17.93774 -0.09677,44.39659 21.50792,66.001c21.60448,21.60469 85.91751,43.34126 137.98482,32.43137c43.7358,-9.16448 78.52125,-50.68457 68.17275,-115.13535zm-136.53689,83.87681c-15.60342,4.35705 -51.00577,-7.18654 -46.10392,-24.3811c0,0 12.48645,-31.17366 27.12157,-38.79897c14.63532,-7.62504 53.66896,6.66427 56.39208,19.39976c2.72333,12.73494 -21.80625,39.42299 -37.40973,43.78031z" fill="#FFDA3E"/>
    <path stroke="null" id="svg_11" d="m182.39721,250.99143c0,0 -5.12711,14.63823 -3.91717,20.14819c1.20981,5.50941 31.07475,1.916 31.07475,1.916s-2.13339,4.71149 -14.60173,6.06873c-12.46834,1.35779 -24.60588,2.98571 -25.48439,-2.39542c-0.87824,-5.38085 12.92854,-25.73751 12.92854,-25.73751z" fill="#FCC000"/>
    <path stroke="null" id="svg_12" d="m260.98075,239.45558c0.66715,5.9786 -4.18964,11.42802 -10.84796,12.1712c-6.6586,0.7429 -12.59705,-3.50134 -13.26447,-9.4805c-0.66715,-5.97915 4.18957,-11.42802 10.84804,-12.1712c6.65847,-0.74345 12.59698,3.50162 13.2644,9.4805z" fill="#FF9999"/>
    <g stroke="null" id="svg_13">
     <path stroke="null" id="svg_14" d="m302.54839,203.40171c0,11.67305 -9.46335,21.13668 -21.13675,21.13668c-11.67367,0 -21.13689,-9.46363 -21.13689,-21.13668c0,-11.67367 9.46321,-21.13675 21.13689,-21.13675c11.6734,0 21.13675,9.46308 21.13675,21.13675z"/>
     <path stroke="null" id="svg_15" d="m289.12142,214.10514c0,2.85742 -2.31635,5.17377 -5.17335,5.17377c-2.85728,0 -5.17335,-2.31635 -5.17335,-5.17377c0,-2.85687 2.31607,-5.17294 5.17335,-5.17294c2.85701,0 5.17335,2.31607 5.17335,5.17294z" fill="#FFFFFF"/>
     <path stroke="null" id="svg_16" d="m301.34432,196.42225c-2.8859,-8.23868 -10.70862,-14.15729 -19.93268,-14.15729c-11.67339,0 -21.13689,9.46308 -21.13689,21.13675c0,0.42868 0.03884,0.84796 0.064,1.27098c7.19622,1.3007 23.74824,2.55136 41.00556,-8.25044z" fill="#FCAE00"/>
     <path stroke="null" id="svg_17" d="m301.34432,196.42225c-0.4009,-1.14407 -0.91695,-2.23064 -1.4988,-3.27532c-8.59493,7.98128 -30.51619,11.53709 -33.15975,5.4667c-1.17725,-2.70301 -0.71207,-6.71763 0.31892,-10.64765c-4.13172,3.85758 -6.72993,9.337 -6.72993,15.43573c0,0.42868 0.03884,0.84796 0.064,1.27098c7.19622,1.3007 23.74824,2.55136 41.00556,-8.25044z" fill="#F99300"/>
     <path stroke="null" id="svg_18" d="m269.89764,194.83014c0,0 -0.84285,-5.94998 4.5615,-9.07352s19.337,0.44624 19.73348,5.5531c0.39661,5.10686 -22.63403,13.08952 -24.29498,3.52042z" fill="#FFC145"/>
    </g>
    <path stroke="null" id="svg_19" d="m182.39721,250.99143c-0.62021,0.23224 -11.32005,21.08906 -11.16502,25.43117c0.15504,4.34184 29.34481,0.27316 32.91154,-1.12223c3.56666,-1.39567 19.50206,-17.02093 19.50206,-17.02093s-7.05577,12.63817 -15.19692,18.6082c-8.14116,5.97058 -37.992,7.98612 -41.71376,3.10128c-3.72156,-4.88429 15.6621,-28.99749 15.6621,-28.99749z" fill="#F99300"/>
    <path stroke="null" id="svg_20" d="m216.39574,341.72411c-100.03526,-9.32041 -151.60643,-90.40477 -129.8597,-117.18738c21.74694,-26.7824 23.92152,-102.14528 95.0647,-130.72667c36.39885,-14.62316 75.94419,-8.98891 106.121,-0.04755c-24.45672,-20.47596 -54.29947,-30.90907 -88.05829,-24.17955c-85.6019,17.06351 -107.50022,94.41802 -116.60055,124.30425c-9.10054,29.88616 -35.26453,30.64952 -35.26453,30.64952c10.23812,56.26974 53.18111,126.02478 154.42459,132.28152c43.54185,2.6907 80.16465,-3.32274 106.93882,-18.05856c-22.5038,4.15079 -53.14814,6.65542 -92.76605,2.96442z" fill="#FCC000"/>
    <path stroke="null" id="svg_21" d="m182.57541,265.72642c0,0 4.41621,-16.09334 5.8499,-17.87138c1.43376,-1.77777 31.14214,1.77804 32.00255,4.01476c0.86013,2.23672 -12.27343,15.37035 -15.25581,17.20562c-2.98218,1.83527 -24.05154,1.775 -22.59663,-3.349z" fill="#FFDA3E"/>
    <path stroke="null" id="svg_22" d="m223.27725,360.09481c0,0 11.94359,-1.065 13.23323,0c1.28957,1.06555 -3.08406,10.3738 -8.18657,10.5419c-5.10271,0.16838 -10.51626,-10.17225 -5.04666,-10.5419z" fill="#FFA039"/>
    <path stroke="null" id="svg_23" d="m361.66463,212.10979c0,0 8.14026,4.53012 8.8515,6.22633c0.71125,1.69703 -1.82808,4.62357 -4.08734,4.64237c-2.25939,0.01852 -12.40952,-14.54091 -4.76416,-10.8687z" fill="#FFA039"/>
    <path stroke="null" id="svg_24" d="m190.90678,51.80917c0,0 13.68665,-16.10703 35.29881,-15.90202c21.61222,0.20501 27.26043,23.32896 25.86255,27.95958c-1.39802,4.63049 -21.84336,-8.47508 -62.03503,1.74735c-40.19167,10.22284 -73.56839,46.30803 -78.6362,53.47245c-5.0676,7.16484 -12.0575,-8.38785 -4.89273,-15.55227c7.16456,-7.1647 24.11499,-12.66941 26.73623,-15.02834c2.62124,-2.35879 -2.27163,-17.21226 9.96053,-26.56142c12.23216,-9.34889 32.066,-3.32025 36.52203,-4.01905c4.4561,-0.69922 8.87404,-3.75861 11.18382,-6.11629z" fill="#E02810"/>
    <g stroke="null" id="svg_25">
     <g stroke="null" id="svg_26">
      <path stroke="null" id="svg_27" d="m47.82388,224.5594c0,0 2.33446,-27.57051 -9.77315,-31.00107c-12.10768,-3.4307 -14.25413,18.51606 9.77315,31.00107z" fill="#CD2606"/>
      <path stroke="null" id="svg_28" d="m46.03312,215.70596c0,0 -0.66037,-17.26334 -6.66406,-18.96438c-6.00362,-1.70118 -5.25015,12.77372 6.66406,18.96438z" fill="#E02810"/>
      <path stroke="null" id="svg_29" d="m36.11931,193.23941c-10.32348,-0.65125 -10.97335,19.53586 11.70457,31.31999c0,0 0.10098,-1.27955 0.15096,-3.25832c-15.71387,-10.00802 -17.43828,-24.12377 -11.85553,-28.06167z" fill="#B51702"/>
     </g>
     <g stroke="null" id="svg_30">
      <path stroke="null" id="svg_31" d="m47.81842,224.55885c0,0 14.37018,-7.96069 13.35405,-20.18669c-1.01586,-12.22539 -19.84559,-10.29528 -13.35405,20.18669z" fill="#CD2606"/>
      <path stroke="null" id="svg_32" d="m48.06684,203.30784c-1.78551,4.36451 -2.37178,11.27976 -0.24842,21.251c0,0 3.1798,-1.76173 6.44205,-4.90061c-4.60526,-6.65957 -4.34509,-15.38548 -3.36386,-20.51239c-1.04883,0.94556 -2.03351,2.32879 -2.82977,4.16199z" fill="#B51702"/>
      <path stroke="null" id="svg_33" d="m54.60987,214.81017c0,0 7.86177,-8.92443 3.9097,-13.64173c-3.95228,-4.71689 -9.68917,3.0598 -3.9097,13.64173z" fill="#E02810"/>
     </g>
     <g stroke="null" id="svg_34">
      <path stroke="null" id="svg_35" d="m47.82388,224.5594c0,0 -12.31089,-11.64008 -19.80806,-3.87155c-7.49758,7.76881 6.43742,15.3427 19.80806,3.87155z" fill="#CD2606"/>
      <path stroke="null" id="svg_36" d="m27.1803,221.73184c-5.35963,7.36598 7.87491,13.78225 20.64358,2.82756c0,0 -0.33758,-0.31242 -0.88847,-0.77387c-10.73737,7.72927 -21.08615,3.80962 -19.75511,-2.05369z" fill="#B51702"/>
      <path stroke="null" id="svg_37" d="m42.93095,223.48334c0,0 -6.06576,-4.36893 -10.49068,-3.58263c-4.42444,0.78714 -4.07787,4.47815 -1.7271,5.88515c2.35084,1.40756 9.67507,0.47969 12.21778,-2.30252z" fill="#E02810"/>
     </g>
    </g>
   </g>
   <g stroke="null" id="svg_38" display="none">
    <g stroke="null" id="svg_39" display="inline">
     <path stroke="null" id="svg_40" d="m1186.29283,258.72844c-1.34079,1.34065 -24.43681,41.4236 -24.43681,41.4236l30.19008,-6.2584l13.02193,34.56939l27.41727,-36.95347l42.84042,14.60256l-7.37717,-38.14538l60.42053,-12.81457l-31.11836,-17.67785l42.51929,-15.10382l-76.29144,-40.52995l-77.18572,76.88788z" fill="#DD0000"/>
     <path stroke="null" id="svg_41" d="m1265.06444,295.26775c-2.69651,0.87229 -29.73776,-9.11941 -32.98958,-8.72294c-3.25126,0.39592 -22.75927,29.34143 -24.90047,28.07239c-2.14134,-1.26877 -9.75407,-25.53458 -11.89527,-25.69355c-2.14078,-0.1587 -17.68421,2.22041 -18.08026,-1.42719c-0.39703,-3.64815 13.12215,-26.16937 13.12215,-26.16937s6.54414,-9.11969 2.98488,-9.58473l-7.01305,6.98609c-1.34079,1.34065 -24.43681,41.4236 -24.43681,41.4236l30.19008,-6.2584l13.02193,34.56939l27.41727,-36.95347l42.84042,14.60256l-7.37676,-38.14538l60.42012,-12.81512c0,0 -64.33576,7.60264 -65.20806,8.87169c-0.87243,1.26877 4.59952,30.37187 1.90343,31.24444z" fill="#C40000"/>
     <path stroke="null" id="svg_42" d="m1192.9325,264.16072c0,0 -6.52368,15.47485 -5.41306,17.90345c1.11048,2.42915 16.93273,-1.80403 18.45932,-0.69341c1.52672,1.11007 0.97141,18.4589 3.74727,19.70832c2.77586,1.24858 17.62628,-20.05557 21.51276,-19.84738c3.88593,0.20791 28.03575,8.18878 29.42368,7.49482s-8.05026,-27.55039 -5.27427,-29.42382c2.77586,-1.8737 52.18572,-6.23766 53.15699,-7.56034c0.97183,-1.3224 -24.91319,-16.17297 -22.34524,-18.67124c2.56781,-2.498 36.22467,-10.20128 34.83674,-13.18505c-1.38793,-2.98405 -56.34909,-33.72633 -60.65208,-31.08913c-4.30244,2.63665 -67.45211,75.36379 -67.45211,75.36379z" fill="#FF2C2C"/>
    </g>
    <polygon stroke="null" id="svg_43" points="1201.51611328125,255.13888549804688 1190.321044921875,279.6045837402344 1210.030029296875,273.8159484863281 1212.7113037109375,295.9235534667969 1229.270263671875,274.19720458984375 1254.0445556640625,281.82061767578125 1243.9539794921875,257.044677734375 1283.9761962890625,245.60975646972656 1268.3486328125,232.67633056640625 1300.22802734375,217.91612243652344 1261.48779296875,193.0762939453125 " fill="#FF9D00"/>
    <path stroke="null" id="svg_44" d="m1245.95207,274.70843c-1.51788,-0.33924 -14.29069,-5.02087 -16.39401,-4.74965c-2.10332,0.2715 -10.99187,13.84141 -12.07747,13.43416c-1.08532,-0.40698 -1.89969,-14.31613 -3.12091,-14.9266c-1.22135,-0.61074 -10.44886,2.71393 -12.14479,0.94999c-0.94169,-0.97985 1.69372,-10.84879 4.36368,-19.51589l-5.06249,5.23846l-11.19508,24.4657l19.70901,-5.78866l2.68172,22.10761l16.55852,-21.72634l24.7744,7.62338l-10.09069,-24.77592l40.02226,-11.43493c0,0 -42.20535,7.25096 -43.29108,8.47245c-1.08518,1.22121 6.78537,20.96575 5.26694,20.62623z" fill="#FF8B00"/>
    <g stroke="null" id="svg_45" display="inline">
     <path stroke="null" id="svg_46" d="m945.41623,-17.61631l0,-63.67567l46.05685,36.76256l28.09685,-42.16215l19.70251,56.51532l48.22431,-19.55376l-11.05118,63.51641l-87.8331,82.30792l-45.22589,28.33684c0,0 0.01534,-55.97529 0.3926,-55.61545c0.37684,0.35984 -60.27787,-3.95975 -60.27787,-3.95975l39.59648,-30.97667l-35.63674,-33.45794l57.95516,-18.03769z" fill="#DD0000"/>
     <path stroke="null" id="svg_47" d="m887.46066,0.42138l35.63715,33.45752l-39.5969,30.97708c0,0 60.65512,4.31958 60.27828,3.95975c-0.37684,-0.36039 -0.3926,55.61545 -0.3926,55.61545l36.80708,-23.06202c0.19547,-1.15679 0.31367,-1.93273 0.31367,-1.93273s-21.17587,3.50812 -21.83541,0c-0.65954,-3.50825 -0.84409,-28.31762 -2.47284,-32.5779c-1.62916,-4.26028 -41.59944,-9.5228 -41.34867,-12.52993c0.25049,-3.007 19.42119,-17.29119 20.04756,-20.4497c0.62678,-3.15795 -33.20413,-29.4194 -30.57259,-30.92289c2.63098,-1.5035 47.23756,-13.03105 49.86909,-16.03818c2.63098,-3.00741 -8.77824,-68.2098 -8.77824,-68.2098l0,63.67567l-57.95557,18.03769z" fill="#C40000"/>
     <path stroke="null" id="svg_48" d="m963.00795,-17.92735c0,0 -7.36238,-35.8622 -5.93727,-39.89964c1.42498,-4.03771 31.58727,23.39352 35.86234,23.7499c4.27493,0.35597 21.13702,-33.72502 23.98712,-33.72502c2.84995,0 15.43753,43.93708 18.76248,46.31204c3.32509,2.3751 36.6933,-14.24977 38.71202,-13.29979c2.01899,0.95012 -9.49971,20.89994 -10.92483,23.98726c-1.42498,3.08773 -38.35592,15.79378 -60.0871,33.25002c-21.73077,17.45611 -31.94324,66.0245 -34.67459,67.44906c-2.73107,1.42512 -0.83138,-26.48083 -2.84968,-30.87451c-2.01913,-4.39368 -34.31862,-4.63145 -37.28732,-7.36238c-2.96912,-2.73134 18.28707,-15.91252 18.99984,-19.94982c0.71221,-4.03771 -26.7186,-19.71246 -26.36222,-23.51254c0.35597,-3.79966 38.59327,-11.51843 40.84963,-13.29979c2.25594,-1.78136 2.02356,-7.43565 0.94957,-12.8248z" fill="#FF2C2C"/>
    </g>
    <polygon stroke="null" id="svg_49" points="960.7939453125,33.87931823730469 927.62548828125,51.24349594116211 970.0101318359375,62.614418029785156 964.0126342773438,94.22520446777344 996.43994140625,88.5115966796875 1053.3875732421875,14.174310684204102 1061.3470458984375,-17.209333419799805 1026.097412109375,-3.7219475507736206 1010.1781616210938,-49.72999954223633 994.4861450195312,-11.978610038757324 960.7939453125,-39.7234992980957 966.9690551757812,1.4389581680297852 921.5991821289062,1.2116994857788086 " fill="#FF9D00"/>
    <path stroke="null" id="svg_50" d="m927.62544,51.24349l42.38464,11.37051l-5.99754,31.61119l32.42736,-5.71359l56.94753,-74.33728l5.37781,-21.20435c-13.78529,5.89635 -33.78004,15.99533 -49.31212,30.18759c-26.32559,24.05472 -33.51793,53.97219 -35.28187,52.88659c-1.7638,-1.08574 2.57831,-19.54063 0,-21.16896c-2.57817,-1.62833 -23.74713,-3.79966 -23.98532,-7.0566c-0.2386,-3.25666 21.40715,-12.48417 19.82416,-15.46974c-1.5834,-2.98529 -48.41094,-31.13716 -48.41094,-31.13716l39.19476,32.66721l-33.16846,17.36459z" fill="#FF8B00"/>
    <g stroke="null" id="svg_51" display="inline">
     <path stroke="null" id="svg_52" d="m969.02996,131.66223c0,0 -21.11615,-16.0827 -30.99837,-12.05839c-9.88264,4.0243 -1.49313,45.14737 30.99837,65.04051c0,0 5.83013,-33.92781 0,-52.98212z" fill="#FECE00"/>
     <path stroke="null" id="svg_53" d="m939.679,119.13105c-0.57701,0.10548 -1.1279,0.26127 -1.6474,0.47278c-9.88264,4.0243 -1.49313,45.14737 30.99837,65.04051c0,0 0.45274,-2.63582 0.98012,-6.84937c-24.93365,-17.53518 -33.98933,-47.63679 -30.33109,-58.66392z" fill="#FCC000"/>
     <path stroke="null" id="svg_54" d="m1074.85126,-3.72195c0,0 -4.51063,-28.58857 24.2459,-38.90791c28.7564,-10.3192 45.68001,24.76665 45.68001,24.76665s26.83016,-24.07822 48.43181,-7.42998c21.60165,16.64837 10.45675,36.04855 10.45675,36.04855s39.73085,14.17167 20.2093,62.74144c-19.521,48.56936 -149.28103,-51.18375 -149.28103,-51.18375l0.25727,-26.035z" fill="#CD2606"/>
     <path stroke="null" id="svg_55" d="m1157.16042,2.50023c-43.47853,-9.63145 -63.16971,8.00313 -70.17142,-6.22218c-3.40665,-6.92195 -3.2373,-19.31613 -2.16567,-30.21815c-12.7554,12.56919 -9.97208,30.21815 -9.97208,30.21815l-0.25727,26.035c0,0 82.97465,63.78654 126.2038,64.50925l8.68437,-0.87506c6.5769,-1.6116 11.60732,-5.52034 14.39285,-12.45086c2.62891,-6.5411 4.18217,-12.45708 4.90365,-17.79991c-14.19309,-17.46178 -41.66455,-46.56101 -71.61824,-53.19625z" fill="#BC1A04"/>
     <g stroke="null" id="svg_56">
      <path stroke="null" id="svg_57" d="m1275.32571,175.85574c0,0 10.6225,3.84791 27.12779,2.61481s31.01275,-13.57489 24.1895,-23.03534c-12.22276,-16.9467 -46.87343,6.16509 -51.31729,20.42053z" fill="#CD2606"/>
      <path stroke="null" id="svg_58" d="m1294.24011,164.74387c1.96328,-2.92253 6.55188,-9.00854 9.89922,-13.39752c-12.9094,4.47787 -26.17725,16.05214 -28.81363,24.50939c0,0 10.6225,3.84791 27.12779,2.61481c2.6372,-0.19713 5.22284,-0.67903 7.67895,-1.38613c-6.37604,-7.11632 -19.15715,-7.48099 -15.89234,-12.34054z" fill="#BC1A04"/>
      <path stroke="null" id="svg_59" d="m1275.32626,175.85574c0,0 36.79961,-24.80895 23.22376,-36.86514c-13.57627,-12.05618 -37.5385,7.05784 -23.22376,36.86514z" fill="#CD2606"/>
      <path stroke="null" id="svg_60" d="m1292.27683,135.68211c-13.33725,-3.10266 -29.23236,14.59952 -16.95057,40.17363c0,0 1.53875,-1.03777 3.87058,-2.7912c-8.41397,-20.75369 1.85297,-35.70005 13.07999,-37.38243z" fill="#BC1A04"/>
      <path stroke="null" id="svg_61" d="m1281.69719,166.02094c0,0 21.54234,-13.07335 15.14999,-23.24906c-3.45074,-5.49296 -19.67334,4.38801 -15.14999,23.24906z" fill="#E22C14"/>
      <path stroke="null" id="svg_62" d="m1275.32571,175.85574c0,0 10.41486,-6.43687 23.47508,-3.65534c13.06036,2.78208 16.1402,25.93658 4.50275,27.2952c-11.63745,1.35876 -25.01825,-15.82695 -27.97783,-23.63986z" fill="#CD2606"/>
      <path stroke="null" id="svg_63" d="m1306.78262,198.1967c-10.62332,-0.89552 -22.93995,-12.12033 -23.26357,-19.16904c-0.14432,-3.13929 1.42028,-5.45412 3.42365,-7.11991c-6.97282,1.0791 -11.61699,3.94799 -11.61699,3.94799c2.95958,7.81291 16.34038,24.99862 27.97741,23.63944c1.35793,-0.15787 2.51514,-0.61365 3.4795,-1.29849z" fill="#BC1A04"/>
      <path stroke="null" id="svg_64" d="m1288.19543,176.86586c0,0 6.7356,-3.77174 12.30391,-1.20946c5.56886,2.56214 8.49388,13.64166 5.36689,16.94144c-3.12713,3.29923 -22.76203,-11.38752 -17.6708,-15.73198z" fill="#E22C14"/>
      <path stroke="null" id="svg_65" d="m1300.30608,164.17377c0,0 2.75236,-9.10628 14.7191,-10.42744c7.39169,-0.81575 10.40615,7.5761 8.27407,10.85833c-2.13207,3.28195 -10.08156,6.76533 -12.91507,6.68722c-2.83392,-0.07811 -11.04067,-3.29675 -10.07811,-7.11811z" fill="#E22C14"/>
     </g>
     <path stroke="null" id="svg_66" d="m1074.85126,-3.72195c0,0 2.87055,16.56142 10.5549,16.35171c7.68379,-0.20943 61.98499,-26.62446 111.98195,21.80265c49.99738,48.4267 53.38522,101.29725 53.38522,101.29725s7.93248,25.74456 27.42902,36.22647c0,0 0.07202,100.41798 -152.89655,107.33633c-152.96858,6.9178 -172.37152,-102.89855 -162.2995,-147.27219c9.61694,-42.36971 37.84208,-125.26032 111.84496,-135.74222z" fill="#FECE00"/>
     <path stroke="null" id="svg_67" d="m1223.87502,147.65631c0,0 25.41652,-8.5706 30.16962,1.86458l-0.54605,-11.57981c0,0 -4.33963,-3.349 -29.62358,9.71523z" fill="#FCC000"/>
     <path stroke="null" id="svg_68" d="m1039.27244,53.50551c1.43687,-1.07952 72.61412,-47.62974 129.66105,-11.26227c57.04706,36.36747 27.95295,86.34342 35.22644,116.84496c7.27377,30.50168 42.93719,30.43933 41.76381,46.42553c-1.17283,15.98586 -137.07969,50.17481 -199.90353,0.75548c-58.18754,-45.77346 -40.56997,-127.34802 -6.74777,-152.76371z" fill="#FFDA3E"/>
     <path stroke="null" id="svg_69" d="m1074.85126,-3.72195c-74.00288,10.4819 -102.22802,93.37251 -111.84496,135.74222c-10.07202,44.37364 9.33092,154.19 162.2995,147.27219c73.85579,-3.34043 112.03518,-28.4766 131.77252,-53.58291c-87.665,42.23894 -252.18905,34.94236 -265.49188,-64.74433c-16.12928,-120.87106 83.26482,-164.68718 83.26482,-164.68718z" fill="#FCC000"/>
     <path stroke="null" id="svg_70" d="m1055.69314,81.67232c-1.0997,-1.25066 -3.00451,-1.37411 -4.26069,-0.27441l-11.88297,10.43532l-10.4367,-11.88518c-1.09998,-1.25315 -3.00741,-1.37701 -4.26056,-0.27441c-0.67834,0.59581 -1.02643,1.43023 -1.02643,2.26769c0,0.70751 0.24773,1.41806 0.75203,1.99301l10.43449,11.88255l-11.88615,10.43753c-1.25273,1.09956 -1.37659,3.00741 -0.27385,4.26056c0.5954,0.67793 1.42982,1.02602 2.26727,1.02602c0.70751,0 1.41848,-0.24773 1.99328,-0.75203l11.88352,-10.4349l10.43795,11.88656c1.09956,1.25315 3.007,1.37659 4.26014,0.27385c1.25066,-1.09956 1.37452,-3.00437 0.27441,-4.26056l-10.43573,-11.88393l11.88559,-10.43712c1.25315,-1.09998 1.37701,-3.00741 0.27441,-4.26055z"/>
     <path stroke="null" id="svg_71" d="m1185.35418,80.04357c-1.10011,-1.2501 -3.00492,-1.37397 -4.26069,-0.27399l-11.88338,10.4349l-10.4367,-11.88476c-1.09956,-1.25315 -3.00755,-1.37701 -4.26069,-0.27441c-0.67779,0.59595 -1.02588,1.42981 -1.02588,2.26741c0,0.70793 0.24773,1.41848 0.75203,1.99328l10.43435,11.88255l-11.88601,10.43712c-1.25315,1.10011 -1.37701,3.00755 -0.27441,4.26069c0.59595,0.6782 1.43037,1.02629 2.26783,1.02629c0.70751,0 1.41807,-0.24773 1.99287,-0.75203l11.88352,-10.43532l10.43795,11.88656c1.09998,1.25315 3.00741,1.37701 4.26056,0.27441c1.2501,-1.0997 1.37397,-3.00451 0.27441,-4.26069l-10.43573,-11.88393l11.88559,-10.43739c1.25315,-1.0997 1.37701,-3.00755 0.27441,-4.26069z"/>
     <ellipse stroke="null" id="svg_72" ry="8.95615" rx="11.19515" cy="119.60383" cx="1005.45017" fill="#FF9999"/>
     <ellipse stroke="null" id="svg_73" ry="8.95615" rx="11.19515" cy="119.60383" cx="1201.51609" fill="#FF9999"/>
     <g stroke="null" id="svg_74">
      <path stroke="null" id="svg_75" d="m1087.52896,131.36778c0,0 -0.97611,-18.61166 7.7977,-23.47853c8.77437,-4.8666 26.48484,8.45406 28.08732,12.66499c1.60262,4.21107 -4.37571,19.76098 -4.37571,19.76098l-14.51713,7.42957c0,0 -7.27737,1.05947 -8.89173,-0.50458c-1.61437,-1.56377 -8.10045,-15.87243 -8.10045,-15.87243z" fill="#660000"/>
      <path stroke="null" id="svg_76" d="m1123.41398,120.55423c-0.1352,-0.355 -0.38514,-0.77497 -0.73447,-1.24347c0.19188,0.94999 0.29348,1.93052 0.29348,2.93414c0,8.51047 -7.2276,15.40961 -16.14366,15.40961s-16.14408,-6.89914 -16.14408,-15.40961c0,-7.3205 5.34809,-13.4484 12.51763,-15.01963c-2.92322,-0.63286 -5.68,-0.55393 -7.87622,0.66397c-8.77381,4.86688 -7.7977,23.47853 -7.7977,23.47853s6.48608,14.30866 8.10086,15.87243c1.61395,1.56405 8.89132,0.50458 8.89132,0.50458l14.51713,-7.42957c0,0 5.97833,-15.54992 4.37571,-19.76098z" fill="#540000"/>
      <path stroke="null" id="svg_77" d="m1088.25832,122.30255c-0.32542,0.19533 1.30208,19.52584 16.01109,19.91623c14.70942,0.3908 16.79228,-22.25898 16.79228,-22.25898s4.8478,6.18292 4.18121,17.57306c-0.66646,11.39014 -10.5596,24.53717 -31.44682,17.45791c-18.1592,-6.15458 -6.18859,-35.03097 -6.18859,-35.03097l0.65083,2.34275z" fill="#FF8B00"/>
      <g stroke="null" id="svg_78">
       <path stroke="null" id="svg_79" d="m1096.1503,152.13681c-13.36048,-4.52805 -10.41099,-21.35572 -7.91949,-29.93323l-0.62332,-2.24377c0,0 -11.97061,28.87639 6.18859,35.03097c14.03827,4.7578 23.11012,0.37905 27.75236,-6.46175c-5.08239,5.08294 -13.43761,7.66167 -25.39813,3.60779z" fill="#FF7300"/>
      </g>
      <path stroke="null" id="svg_80" d="m1089.95079,123.79955c0,0 5.17916,-8.82842 15.63715,-8.24269c10.45799,0.58586 12.50118,11.69247 17.51818,11.69247s2.11977,-27.53159 -18.65479,-26.68542c-20.7747,0.84617 -22.76812,34.56068 -14.50054,23.23565z" fill="#FF8B00"/>
      <path stroke="null" id="svg_81" d="m1120.5108,123.46626c-2.11549,-1.73519 -7.485,-10.24026 -16.40715,-9.56897c-8.92214,0.67074 -11.70422,5.70654 -14.92715,6.72413c-1.43852,0.45453 -2.67605,0.09691 -3.6064,-0.43739c-0.71664,5.25298 0.94694,8.31886 4.38069,3.61553c0,0 5.17916,-8.82842 15.63715,-8.24269c10.45799,0.58586 12.50118,11.69247 17.51818,11.69247c0.92994,0 1.5881,-0.94736 1.91048,-2.48403c-1.45428,0.26335 -3.05676,-0.11087 -4.50579,-1.29904z" fill="#FF7300"/>
      <path stroke="null" id="svg_82" d="m1089.78753,115.26158c0,0 2.67992,-9.32954 12.00918,-11.87384c9.32954,-2.54431 19.81241,7.90456 21.50834,15.46974c1.69621,7.56532 -6.1402,-5.66563 -15.26611,-6.92043c-9.12591,-1.25536 -17.36943,5.59747 -18.2514,6.17421c-0.88239,0.5766 -0.53333,-1.42636 0,-2.84968z" fill="#FFA039"/>
      <path stroke="null" id="svg_83" d="m1089.24894,133.60063c0,0 5.04313,13.27007 17.45735,11.48649c12.41395,-1.78399 12.73494,-14.17084 15.26791,-14.30908c2.53242,-0.13824 2.88921,17.69775 -8.8468,20.58711c-11.73643,2.88977 -21.32379,-2.85355 -23.87846,-8.48987c-2.55481,-5.63646 -2.01568,-13.03105 0,-9.27466z" fill="#FFA039"/>
      <path stroke="null" id="svg_84" d="m1116.38835,128.08154c-0.67696,4.23664 -6.11795,6.8896 -12.15254,5.9251c-6.03459,-0.96436 -10.37822,-5.18054 -9.70126,-9.4176c0.67751,-4.23664 6.11836,-6.88919 12.15309,-5.92524c6.03459,0.9645 10.37809,5.18109 9.70071,9.41773z" fill="#770101"/>
     </g>
     <g stroke="null" id="svg_85">
      <path stroke="null" id="svg_86" d="m1008.96541,188.72228c0,0 12.21709,-8.89422 22.74006,-0.41265c10.5231,8.48116 5.54536,34.89612 -5.32099,37.85473c-10.86621,2.95834 -34.08969,-24.70106 -17.41906,-37.44208z" fill="#FF8B00"/>
      <path stroke="null" id="svg_87" d="m1018.29895,192.86782c0,0 5.5155,-4.31737 12.39459,2.24156s1.74652,24.59945 -4.22143,25.90941c-5.30316,1.16426 -20.60052,-20.19582 -8.17316,-28.15097z" fill="#FFA039"/>
      <path stroke="null" id="svg_88" d="m1014.76319,190.16039c0,0 6.12361,-4.45603 13.4336,-4.05084c-9.54934,-4.43515 -19.23139,2.61273 -19.23139,2.61273c-16.07164,12.28345 4.93544,38.43133 16.20255,37.64281c-11.11449,-5.58406 -23.97233,-25.83532 -10.40477,-36.2047z" fill="#FF7300"/>
     </g>
     <g stroke="null" id="svg_89">
      <path stroke="null" id="svg_90" d="m1193.24602,196.29617c0,0 14.53151,-4.14858 21.49479,7.43482c6.96328,11.58375 -6.79795,34.67452 -18.01875,33.71403c-11.22052,-0.95994 -23.51171,-34.92003 -3.47604,-41.14885z" fill="#FF8B00"/>
      <path stroke="null" id="svg_91" d="m1200.58408,203.39908c0,0 6.66441,-2.15613 10.86704,6.36864c4.20319,8.52526 -6.82242,23.6993 -12.87664,22.87622c-5.37988,-0.73129 -12.39598,-26.05028 2.00959,-29.24487z" fill="#FFA039"/>
      <path stroke="null" id="svg_92" d="m1198.19584,199.64089c0,0 7.2822,-2.07761 14.00689,0.81741c-7.4409,-7.4492 -18.9567,-4.16213 -18.9567,-4.16213c-19.31599,6.00501 -8.58581,37.78381 2.26478,40.91909c-8.5153,-9.06661 -13.62175,-32.50498 2.68504,-37.57438z" fill="#FF7300"/>
     </g>
     <path stroke="null" id="svg_93" d="m1223.87502,147.65631c0,0 22.09669,-10.69922 27.91203,-4.10891c5.81479,6.59031 -13.25832,34.96724 -13.25832,34.96724s22.66112,-21.23476 19.77094,-39.15425c-1.9384,-12.01734 -34.42465,8.29592 -34.42465,8.29592z" fill="#F99300"/>
     <path stroke="null" id="svg_94" d="m1225.08199,152.79414c0,0 13.18242,-7.15392 19.35262,-3.27325c6.17075,3.88081 -5.23501,24.49584 -9.67638,26.17864c-4.44068,1.68279 -16.82836,-17.52993 -9.67624,-22.90539z" fill="#FFDA3E"/>
     <path stroke="null" id="svg_95" d="m1143.17897,-12.87233c0,0 -21.49272,-28.50646 -38.61125,-23.98145s-10.93478,27.37496 -8.74769,30.16478c2.18709,2.79079 38.00797,-3.0916 74.35664,9.8037c36.34909,12.89585 51.95928,40.04452 54.29719,39.81808c2.33805,-0.2263 -8.59714,-23.15187 -24.58473,-31.2208c0,0 6.41019,-24.28295 -13.4231,-33.33241c-19.83384,-9.0496 -43.28707,8.7481 -43.28707,8.7481z" fill="#E22C14"/>
     <path stroke="null" id="svg_96" d="m957.18017,130.86306c0,0 -7.61149,-8.2185 -13.79358,-6.43189s6.25356,26.33595 11.07786,30.65982c4.82416,4.32401 5.16437,-21.95665 2.71572,-24.22793z" fill="#FFDA3E"/>
    </g>
    <path stroke="null" id="svg_97" d="m1000.60673,-6.25713c0,0 6.3365,-20.95441 7.92074,-21.89043s9.93724,30.31533 12.24156,30.53126c2.30391,0.21593 20.08986,-7.24847 22.03434,-7.36846c1.94407,-0.12041 -26.13882,15.72147 -37.58827,24.21839c-11.44903,8.49678 -24.48271,35.42785 -25.34671,36.4359c-0.86414,1.00805 2.37634,-8.92919 0,-9.79333c-2.37593,-0.864 -17.20977,-2.37634 -17.13774,-3.45628c0.07188,-1.08007 17.92986,-10.44099 19.15411,-13.10528c1.22398,-2.66416 -33.48379,-19.58597 -32.97949,-21.31453c0.50375,-1.72828 23.11427,1.08035 25.63466,0c2.52025,-1.08007 -3.96057,-28.6588 -2.16041,-29.81117c1.80057,-1.15195 26.49908,24.33866 28.22721,15.55393z" fill="#FFB243"/>
    <path stroke="null" id="svg_98" d="m1214.94541,262.34507c0,0 16.60262,-7.19871 32.50892,-21.82753c15.90644,-14.6291 24.0919,-31.5223 26.2396,-31.92873c2.14783,-0.4065 17.24156,7.50836 16.60303,9.32732s-26.64616,12.14521 -27.40081,14.06453c-0.75451,1.91905 10.97183,10.10423 9.4046,11.67132c-1.56764,1.56764 -32.62532,7.89544 -34.0185,9.52058c-1.39318,1.6257 3.01888,12.48141 1.74168,14.04877c-1.2772,1.56709 -10.10119,-1.91573 -11.84288,-1.04482c-1.74168,0.87064 -7.25635,9.98479 -8.24352,9.98479c-0.98662,0 0.40656,-11.02989 -1.62515,-11.02989s-9.23014,1.74127 -10.21717,1.16121c-0.98676,-0.58061 4.17554,-2.67771 6.8502,-3.94758z" fill="#FFB243"/>
    <g stroke="null" id="svg_99" display="inline">
     <polygon stroke="null" id="svg_100" points="1077.1329345703125,316.946533203125 1096.607666015625,287.0482482910156 1100.728515625,317.95458984375 1139.1268310546875,308.4016418457031 1111.2178955078125,332.7517395019531 1129.3868408203125,353.1681823730469 1104.84912109375,353.1681823730469 1104.474853515625,377.7057800292969 1085.74365234375,360.47308349609375 1063.8287353515625,377.7057800292969 1065.888916015625,350.5460510253906 1038.354736328125,342.1169738769531 1062.892333984375,331.0658264160156 1053.9012451171875,311.0240783691406 " fill="#DD0000"/>
     <path stroke="null" id="svg_101" d="m1085.22119,322.01496c0,0 8.8851,-23.63986 9.72905,-23.72032c0.84451,-0.08046 3.17634,21.99176 4.10103,22.67494c0.92469,0.68374 26.05215,-7.5985 27.09766,-7.07595c1.04509,0.52255 -17.97133,18.06077 -18.33297,19.64445c-0.36191,1.5834 15.88073,14.52294 14.87531,15.59153c-1.005,1.0686 -19.53897,0.70668 -20.18234,1.02851c-0.64337,0.32155 -0.44223,16.48345 -1.36692,17.12682c-0.92482,0.64337 -13.06644,-13.38771 -14.23235,-13.50853s-12.98612,8.96514 -14.15162,8.68396c-1.16633,-0.28146 0.76377,-13.26716 0,-15.27745c-0.76419,-2.01028 -14.91581,-6.59377 -14.87572,-7.39777c0.04023,-0.80373 12.42307,-5.16492 12.62407,-6.98471c0.20114,-1.82007 -4.38234,-11.14712 -3.77907,-11.58921c0.60286,-0.44237 17.61799,3.11814 18.49388,0.80373z" fill="#FF2C2C"/>
     <path stroke="null" id="svg_102" d="m1086.21168,357.18016c-2.49399,-0.4255 -16.24223,11.80154 -17.03296,10.22008c-0.79046,-1.58229 0.3044,-17.7019 -0.48633,-18.97951c-0.79087,-1.27761 -16.42456,-5.3532 -16.91144,-7.42155c-0.48633,-2.06807 14.66062,-7.54265 15.45149,-8.62203c0.79032,-1.07965 -6.6915,-13.7029 -4.8666,-14.43059c1.82463,-0.72825 15.0253,4.01255 17.51901,2.97852c2.49412,-1.03376 16.72288,-33.8768 16.72288,-33.8768l-19.47483,29.89771l-23.23164,-5.92248l8.99113,20.0423l-24.53759,11.05118l27.53422,8.42904l-2.06019,27.15945l21.9149,-17.23244l18.7311,17.23244c0,0 -15.76903,-20.09898 -18.26315,-20.52531z" fill="#C40000"/>
     <polygon stroke="null" id="svg_103" points="1073.943603515625,332.93896484375 1069.4478759765625,322.82421875 1079.5625,325.0722961425781 1088.927734375,311.0240783691406 1090.4266357421875,327.5069580078125 1108.9361572265625,320.9510803222656 1097.7313232421875,334.2500305175781 1113.465576171875,347.54901123046875 1096.4202880859375,344.5522155761719 1098.6678466796875,360.47308349609375 1088.3660888671875,349.7970275878906 1074.1307373046875,359.5365905761719 1077.876953125,344.3647766113281 1062.892333984375,340.0563659667969 " fill="#FF9D00"/>
     <path stroke="null" id="svg_104" d="m1079.56247,325.07228l-10.1146,-2.24806l4.4957,10.11474l-11.05118,7.11742l14.98466,4.30839l-3.7463,15.17183l14.23526,-9.73956l10.30192,10.67599l-0.94916,-6.72371c-3.62686,-2.33764 -9.1049,-6.58824 -9.5398,-6.78067c-0.57411,-0.25464 -9.14554,6.25895 -9.55293,5.08861c-0.40698,-1.17062 1.67934,-8.90514 0.93644,-9.77052c-0.74276,-0.86511 -9.4852,-2.79853 -8.97661,-4.17263c0.509,-1.37383 4.83425,-3.00257 5.80124,-4.37668c0.96657,-1.37383 -2.84968,-6.46244 -1.93356,-7.12378c0.91598,-0.66162 5.10893,-1.54138 5.10893,-1.54138z" fill="#FF8B00"/>
     <path stroke="null" id="svg_105" d="m1081.8473,325.9454c0,0 4.27286,-7.71877 5.03097,-7.99442c0.75811,-0.2751 1.79187,11.40535 2.6184,11.78495c0.82695,0.3785 11.88781,-4.96199 12.47353,-4.47953c0.58586,0.48218 -7.06351,8.54516 -7.09793,9.23443c-0.03456,0.68899 11.47419,8.37292 10.95731,9.37239c-0.51688,0.9992 -11.26752,-1.99867 -11.64658,-1.51622s1.27499,6.44364 0.96491,6.75385c-0.31021,0.31021 -5.27219,-5.27219 -6.06431,-5.23763c-0.79294,0.03428 -7.30529,5.60701 -7.85659,5.2498c-0.5513,-0.35666 2.51542,-8.69584 1.79187,-9.10918c-0.72369,-0.41361 -7.75277,-1.13689 -7.51154,-2.27405s3.85883,-3.06671 3.92781,-3.79026c0.06898,-0.72382 -2.89405,-6.75357 -1.99853,-7.16719c0.89579,-0.41334 3.90251,0.0799 4.41068,-0.82695z" fill="#FFB243"/>
    </g>
   </g>
   <g stroke="null" id="svg_106" display="none">
    <path stroke="null" id="svg_107" d="m587.68665,340.94499c0,0 -27.12199,7.63776 -27.74531,22.44574c-0.62374,14.80799 47.69734,12.31386 68.2727,-7.48182l111.60553,0c0,0 21.97808,26.03058 46.76215,21.19854s-7.17037,-42.08577 -7.17037,-42.08577l-191.7247,5.9233z" fill="#FF8B00"/>
    <path stroke="null" id="svg_108" d="m786.58172,377.10745c5.73668,-1.11836 8.40789,-3.98546 9.16476,-7.71434c-31.85159,8.285 -49.19351,-17.90235 -49.19351,-17.90235s-112.0631,-6.29904 -121.71501,2.64149s-50.39261,21.23393 -54.6598,7.92447c-1.59681,-4.98079 -0.41776,-9.91789 1.71818,-14.18563c-6.0874,3.7134 -11.6763,8.8927 -11.95499,15.51964c-0.62374,14.80799 47.69734,12.31386 68.2727,-7.48182l111.60553,0c0,0 21.97808,26.03058 46.76215,21.19854z" fill="#FF7300"/>
    <path stroke="null" id="svg_109" d="m637.32862,67.74395c0,0 -19.52584,-59.49488 14.62482,-67.22097c34.15121,-7.72665 42.34096,35.54163 42.34096,35.54163s13.59853,-38.01446 39.25061,-29.36051c25.65167,8.65354 17.92516,51.61257 17.92516,51.61257s21.9431,-13.44411 38.32329,0.92731c16.38005,14.37101 0,36.77791 0,36.77791s23.02483,-4.32691 31.52396,24.72477c8.49913,29.05126 -27.81512,55.4855 -27.81512,55.4855s-153.29316,-46.21389 -153.60199,-48.37748c-0.30924,-2.16346 -2.57168,-60.11074 -2.57168,-60.11074z" fill="#CD2606"/>
    <path stroke="null" id="svg_110" d="m800.32899,145.61879c-7.87788,-9.07172 -31.63123,-62.18917 -71.85768,-77.87484c-40.22589,-15.68609 -69.70901,5.30095 -73.09381,1.00362c-3.38522,-4.29677 -11.05823,-21.96273 -12.84871,-43.68742c-0.81962,-9.94512 4.37281,-18.41232 10.30399,-24.69988c-0.29611,0.06013 -0.57881,0.09455 -0.87935,0.16271c-34.15066,7.72651 -14.62482,67.22097 -14.62482,67.22097s2.26244,57.94728 2.57168,60.11074c0.30883,2.16359 153.60199,48.37748 153.60199,48.37748s16.05643,-11.70201 24.31475,-28.08427c-6.12237,1.61215 -13.42144,2.15336 -17.48804,-2.5291z" fill="#BC1A04"/>
    <g stroke="null" id="svg_111" display="inline">
     <path stroke="null" id="svg_112" d="m848.76661,223.35533c0,0 9.52321,-2.15323 20.95787,-10.74788c11.43452,-8.59417 16.23476,-24.34011 6.8585,-28.04163c-16.79657,-6.63082 -31.2313,26.34487 -27.81636,38.7895z" fill="#CD2606"/>
     <path stroke="null" id="svg_113" d="m857.34674,206.44976c0.06594,-3.04197 0.56665,-9.61003 0.95524,-14.36451c-7.30474,9.27811 -11.56142,23.88724 -9.53538,31.27008c0,0 9.52363,-2.15323 20.95787,-10.74788c1.82712,-1.37328 3.48378,-2.92958 4.94111,-4.58964c-7.9582,-2.20451 -17.42777,3.4909 -17.31884,-1.56805z" fill="#BC1A04"/>
     <path stroke="null" id="svg_114" d="m848.76661,223.35533c0,0 15.20667,-35.21269 -0.29362,-37.654c-15.50071,-2.44146 -24.02251,22.64149 0.29362,37.654z" fill="#CD2606"/>
     <path stroke="null" id="svg_115" d="m842.36554,186.21945c-11.15154,3.96237 -14.46169,24.25551 6.40106,37.13588c0,0 0.6359,-1.47281 1.51483,-3.83616c-15.80041,-11.17677 -15.30053,-26.83977 -7.9159,-33.29972z" fill="#BC1A04"/>
     <path stroke="null" id="svg_116" d="m848.81582,213.22815c0,0 9.57823,-19.55826 0.18151,-23.98152c-5.07244,-2.38768 -12.26866,12.3675 -0.18151,23.98152z" fill="#E22C14"/>
     <path stroke="null" id="svg_117" d="m848.76661,223.35533c0,0 4.57602,-9.54021 15.37643,-13.60668c10.79999,-4.06654 23.83879,11.3448 16.00487,17.76051c-7.83378,6.41599 -25.5849,0.15096 -31.3813,-4.15383z" fill="#CD2606"/>
     <path stroke="null" id="svg_118" d="m882.07372,224.94177c-8.14745,4.3023 -22.34358,1.87868 -25.86663,-3.09934c-1.56902,-2.21682 -1.50972,-4.63021 -0.8293,-6.77707c-4.57035,4.03716 -6.61119,8.28997 -6.61119,8.28997c5.7964,4.30534 23.54751,10.56927 31.3813,4.15383c0.9139,-0.74843 1.54331,-1.61962 1.92582,-2.56739z" fill="#BC1A04"/>
     <path stroke="null" id="svg_119" d="m858.60169,218.08894c0,0 3.14192,-5.88515 8.38868,-6.61782c5.24648,-0.73267 12.5421,5.96478 11.80542,9.82388c-0.73627,3.85938 -21.87246,2.32907 -20.19409,-3.20606z" fill="#E22C14"/>
     <path stroke="null" id="svg_120" d="m861.49491,203.20624c0,0 -2.24419,-7.90926 5.84714,-14.45119c4.99779,-4.04131 11.10481,0.65899 11.0838,4.04158c-0.02087,3.38273 -4.18038,9.62454 -6.27844,10.88902c-2.09848,1.26448 -9.57118,2.75014 -10.65249,-0.47942z" fill="#E22C14"/>
    </g>
    <path stroke="null" id="svg_121" d="m649.89546,86.60416c0,0 44.16296,-42.43565 97.20798,0c53.04502,42.43607 63.16059,131.83535 102.63583,135.24656c0,0 31.2226,125.29073 -111.32642,143.05429c-142.54902,17.76383 -216.75166,-39.68454 -228.02181,-116.94518c-11.58064,-79.39376 74.1555,-169.22304 126.93758,-180.21588c0,0 4.33258,10.76765 12.56684,18.86021z" fill="#FECE00"/>
    <path stroke="null" id="svg_122" d="m835.93835,235.13558c-6.7168,-12.24557 -26.66496,-0.57812 -39.62275,-22.07941c-12.95723,-21.50136 -41.18638,-110.80602 -77.02951,-120.85883c-35.84354,-10.05267 -48.22252,12.69872 -62.4709,14.73444c-14.24894,2.03572 -15.0629,-24.22226 -36.63925,-10.99146c-21.57594,13.23039 -52.82079,98.33104 -52.82079,98.33104c-9.32871,23.58449 5.93699,87.46959 60.14875,116.01144c54.21176,28.54157 152.66196,22.38519 176.6806,4.67638c24.01891,-17.70854 38.47107,-67.57832 31.75385,-79.82361zm-109.91665,67.33032c-2.03517,12.4933 -24.19393,1.34839 -36.11574,0c-11.92181,-1.34812 -29.42686,12.87373 -44.08264,5.86469c-14.65551,-7.00904 -44.5774,-44.34627 -24.42603,-53.66585c0,0 23.24961,-10.13326 42.05535,-5.24814c18.80616,4.88485 37.51763,-9.97374 49.63616,-4.88512c12.11853,5.08834 14.96862,45.44168 12.9329,57.93442z" fill="#FFDA3E"/>
    <path stroke="null" id="svg_123" d="m637.32862,264.46595c0,0 34.27494,-2.3686 41.53917,25.79253l4.09453,-3.9462l-2.51154,-8.97454l-3.86367,-5.9128c0,0 2.79452,-14.32746 28.32149,-16.76021c0,0 -17.74794,7.13622 -20.08156,14.7867c-2.33404,7.65075 4.26456,16.68169 4.26456,16.68169l-4.95936,-1.74044l-4.77799,-6.66399c0,0 -7.66997,-12.82535 -14.83688,-15.34021c-7.16746,-2.51458 -17.06448,-2.41477 -27.18876,2.07747z" fill="#FCC000"/>
    <path stroke="null" id="svg_124" d="m776.71609,339.38868c-142.54902,17.76383 -216.75124,-39.68509 -228.02139,-116.94574c-7.8823,-54.03557 29.32083,-112.881 70.52739,-148.43977c-52.0754,24.06785 -119.16117,103.13875 -108.83105,173.95665c11.27015,77.26064 85.47279,134.70929 228.02181,116.94518c41.78399,-5.20667 68.62217,-19.65744 85.70835,-37.47823c-13.14883,5.47237 -28.78169,9.64141 -47.4051,11.9619z" fill="#FCC000"/>
    <g stroke="null" id="svg_125" display="inline">
     <rect stroke="null" id="svg_126" height="12.06807" width="45.5643" fill="#161616" y="176.23161" x="651.92164"/>
     <path stroke="null" id="svg_127" d="m664.51474,185.65985c-1.51705,0 -2.7471,-1.23006 -2.7471,-2.7471l0,-6.57372c0,-0.03802 0.02004,-0.0694 0.02129,-0.10686l-9.86729,0l0,12.06752l45.5643,0l0,-2.63983l-32.97119,0z"/>
     <g stroke="null" id="svg_128">
      <path stroke="null" id="svg_129" d="m785.84545,167.88565l0,12.07719c0,20.4414 -16.57068,37.01215 -37.01209,37.01215l-20.84147,0c-20.44085,0 -37.01167,-16.57075 -37.01167,-37.01215l0,-12.07719l94.86522,0z" fill="#161616"/>
      <path stroke="null" id="svg_130" d="m779.76027,173.96835l0,7.05176c0,11.93536 -12.28732,21.61077 -27.44436,21.61077l-15.45412,0c-15.15704,0 -27.44395,-9.67541 -27.44395,-21.61077l0,-7.05176l70.34243,0z" fill="#282828"/>
      <path stroke="null" id="svg_131" d="m756.24814,209.56009l-20.84147,0c-20.44099,0 -37.01209,-16.57103 -37.01209,-37.01202l0,-4.66242l-7.41436,0l0,12.07719c0,20.44099 16.57082,37.0116 37.01167,37.0116l20.84147,0c12.11327,0 22.83392,-5.84534 29.58597,-14.84027c-6.18416,4.64182 -13.84321,7.4259 -22.1712,7.4259z"/>
     </g>
     <g stroke="null" id="svg_132" opacity="0.15">
      <path stroke="null" id="svg_133" d="m748.83337,216.97445c20.4414,0 37.01209,-16.57061 37.01209,-37.0116l0,-12.07719l-50.99229,49.0888l13.98021,0z" fill="#FFFFFF"/>
      <path stroke="null" id="svg_134" d="m725.05596,167.88565c-10.66604,9.07048 -22.4727,19.07753 -31.20297,26.38572c2.38118,5.67392 6.13937,10.62125 10.85142,14.44269c13.05331,-13.32778 28.02939,-28.61256 40.01479,-40.82841l-19.66325,0z" fill="#FFFFFF"/>
     </g>
     <g stroke="null" id="svg_135">
      <path stroke="null" id="svg_136" d="m659.34761,167.88565l0,12.07719c0,20.4414 -16.57068,37.01215 -37.01167,37.01215l-20.84175,0c-20.44099,0 -37.01167,-16.57075 -37.01167,-37.01215l0,-12.07719l94.86509,0z" fill="#161616"/>
      <path stroke="null" id="svg_137" d="m653.26243,173.96835l0,7.05176c0,11.93536 -12.28732,21.61077 -27.44436,21.61077l-15.45412,0c-15.1569,0 -27.44395,-9.67541 -27.44395,-21.61077l0,-7.05176l70.34243,0z" fill="#282828"/>
      <path stroke="null" id="svg_138" d="m629.7503,209.56009l-20.84147,0c-20.44099,0 -37.01209,-16.57103 -37.01209,-37.01202l0,-4.66242l-7.41422,0l0,12.07719c0,20.44099 16.57068,37.0116 37.01167,37.0116l20.84133,0c12.11327,0 22.83433,-5.84534 29.58611,-14.84027c-6.1843,4.64182 -13.84321,7.4259 -22.17134,7.4259z"/>
     </g>
     <g stroke="null" id="svg_139" opacity="0.15">
      <path stroke="null" id="svg_140" d="m622.33553,216.97445c20.4414,0 37.01209,-16.57061 37.01209,-37.0116l0,-12.07719l-50.99229,49.0888l13.98021,0z" fill="#FFFFFF"/>
      <path stroke="null" id="svg_141" d="m598.55826,167.88565c-10.66618,9.07048 -22.47242,19.07753 -31.20311,26.38572c2.38118,5.67392 6.13937,10.62125 10.85142,14.44269c13.05331,-13.32778 28.02939,-28.61256 40.01493,-40.82841l-19.66325,0z" fill="#FFFFFF"/>
     </g>
     <path stroke="null" id="svg_142" d="m687.05283,183.88624l-21.2331,0c-1.3072,0 -2.36708,-1.05989 -2.36708,-2.36708l0,-1.23669c0,-1.3072 1.05988,-2.36708 2.36708,-2.36708l21.2331,0c1.30733,0 2.36681,1.05988 2.36681,2.36708l0,1.23669c0,1.3072 -1.05947,2.36708 -2.36681,2.36708z" fill="#282828"/>
    </g>
    <g stroke="null" id="svg_143" display="inline">
     <path stroke="null" id="svg_144" d="m510.39103,134.48481c0,0 17.31787,-4.7784 17.31787,-17.31787c0,0 4.02168,17.31787 17.31801,17.31787c0,0 -17.31801,5.67254 -17.31801,17.31787c0,0 -3.19583,-17.31787 -17.31787,-17.31787z" fill="#F98E00"/>
     <path stroke="null" id="svg_145" d="m838.12102,88.29622c0,0 17.31787,-4.7784 17.31787,-17.31787c0,0 4.02168,17.31787 17.31787,17.31787c0,0 -17.31787,5.67254 -17.31787,17.31787c0,0 -3.19638,-17.31787 -17.31787,-17.31787z" fill="#F98E00"/>
     <path stroke="null" id="svg_146" d="m540.76843,166.56837c0,0 23.71409,-6.54359 23.71409,-23.71409c0,0 5.50679,23.71409 23.71409,23.71409c0,0 -23.71409,7.76812 -23.71409,23.71368c0,0 -4.37668,-23.71368 -23.71409,-23.71368z" fill="#F98E00"/>
    </g>
    <ellipse stroke="null" id="svg_147" ry="8.95574" rx="11.19515" cy="216.975" cx="796.31568" fill="#FF9999"/>
    <path stroke="null" id="svg_148" d="m556.222,216.975c0,4.94623 -5.01217,8.95574 -11.19508,8.95574c-6.18306,0 -11.19522,-4.00951 -11.19522,-8.95574c0,-4.9465 5.01217,-8.95677 11.19522,-8.95677c6.18292,0 11.19508,4.01027 11.19508,8.95677z" fill="#FF9999"/>
    <g stroke="null" id="svg_149" display="inline">
     <path stroke="null" id="svg_150" d="m668.34745,224.3396c0,0 2.34414,14.73417 7.77904,14.76734c5.43518,0.03262 11.19951,-11.19992 11.19951,-11.19992s-9.79375,-7.20147 -18.97855,-3.56742z" fill="#FF8B00"/>
     <path stroke="null" id="svg_151" d="m677.63524,237.05353c-4.37156,-0.0271 -6.74003,-9.55293 -7.50118,-13.28458c-0.59623,0.1493 -1.19246,0.33537 -1.78661,0.57065c0,0 2.34413,14.73417 7.77904,14.76734c3.20551,0.01935 6.51608,-3.87376 8.70055,-7.07567c-2.05964,2.60168 -4.65799,5.03691 -7.1918,5.02226z" fill="#FF7300"/>
     <path stroke="null" id="svg_152" d="m668.34703,224.3396c0,0 3.25527,-11.62791 11.25356,-11.6257c4.74702,0.00111 13.486,14.97387 12.9282,22.41422c0,0 -13.16058,-9.39368 -24.18176,-10.78852z" fill="#FF8B00"/>
     <path stroke="null" id="svg_153" d="m674.08026,220.53717c0,-2.27294 1.62349,-5.13396 3.30711,-7.48099c-6.3813,1.85988 -9.03993,11.28342 -9.03993,11.28342c11.02077,1.39484 24.18135,10.78852 24.18135,10.78852c0.04617,-0.61904 0.00733,-1.30388 -0.06718,-2.01333c-5.8846,-6.62059 -18.38135,-8.67677 -18.38135,-12.57762z" fill="#FF7300"/>
     <path stroke="null" id="svg_154" d="m676.90201,219.74782c0,0 0.90851,-3.91081 3.54613,-4.54478c2.6372,-0.63369 9.18784,11.22674 9.45782,13.31942c0,0 -13.43153,-6.34466 -13.00395,-8.77464z" fill="#FFA039"/>
     <path stroke="null" id="svg_155" d="m673.8364,227.0762c0,0 7.39127,1.55575 8.8703,3.64649c1.47917,2.09102 -3.8703,4.56772 -5.50471,4.40543c-2.34884,-0.23335 -6.06514,-8.50729 -3.36559,-8.05192z" fill="#FFA039"/>
    </g>
    <path stroke="null" id="svg_156" d="m709.39434,302.4659c0,0 -1.54193,-14.90531 -24.50718,-18.67041c-0.64337,-3.21823 -2.73743,-8.45669 -6.47557,-13.30366l-0.00871,-0.02875c2.53726,-10.16451 27.17784,-15.75189 26.50571,-15.79834c-19.36354,-1.32379 -27.37192,8.97454 -29.4975,12.42445c-7.62932,-7.5656 -20.01175,-12.31137 -38.08248,-2.62324c0,0 19.80578,-7.26202 31.85422,3.30117c12.04872,10.56264 13.14095,18.32315 10.23238,19.97374c-2.90843,1.65058 -22.4456,3.13252 -27.06697,12.87041c0,0 9.49003,-5.94155 17.1647,-6.93218c7.56172,-0.97542 13.97716,-2.68517 15.42841,-7.07623c4.98866,1.10481 18.85358,5.06926 24.45299,15.86303z" fill="#F99300"/>
    <path stroke="null" id="svg_157" d="m641.95689,269.77824c0,0 19.87572,1.45456 26.39056,9.42133c6.51442,7.96649 -8.86464,9.00523 -16.41544,13.30062c-7.5508,4.29512 -20.54218,-24.4035 -9.97512,-22.72195z" fill="#FFDA3E"/>
    <path stroke="null" id="svg_158" d="m705.81545,257.84896c-0.33758,0.11253 -11.02201,3.76732 -15.30316,11.85822c-4.28157,8.09091 1.54843,11.14242 5.73848,13.00976c4.19047,1.86707 11.75081,7.4691 14.21051,12.38851c2.45915,4.91885 4.05347,-7.83406 3.00575,-17.58108c-1.04772,-9.74647 -2.59628,-21.36084 -7.65158,-19.67541z" fill="#FFDA3E"/>
    <path stroke="null" id="svg_159" d="m694.20896,42.17647c0,0 -18.75073,-40.847 -35.47845,-35.01175c-16.72772,5.83538 -0.1558,49.56123 3.26785,51.19509c3.42324,1.634 40.22464,-10.64199 77.95945,9.38414c37.73494,20.02571 59.67555,70.3651 64.88872,73.24394c5.21289,2.87829 17.81692,-12.91548 5.44624,-29.56565c-12.37109,-16.65003 -25.20847,-11.67049 -25.20847,-11.67049s12.99317,-27.38727 -0.46711,-38.4354c-13.45987,-11.04814 -36.8791,1.55631 -36.8791,1.55631s-4.29733,-48.6277 -20.54909,-50.88419c-16.2519,-2.25594 -32.98004,30.18801 -32.98004,30.18801z" fill="#E22C14"/>
    <path stroke="null" id="svg_160" d="m581.03137,349.10557c0,0 22.75623,7.82659 22.75623,10.53527c0,2.70923 -22.33487,7.01374 -27.69292,2.2276c-5.35818,-4.78614 -2.28262,-14.5633 4.93669,-12.76286z" fill="#FFA039"/>
    <path stroke="null" id="svg_161" d="m770.23001,361.80788c0,0 15.29791,-6.51276 17.59228,-5.988c2.29478,0.52476 6.33775,7.7912 3.73289,9.67597c-5.9862,4.33161 -28.12699,-0.51923 -21.32517,-3.68797z" fill="#FFA039"/>
   </g>
   <g stroke="null" id="svg_162" display="none">
    <path stroke="null" id="svg_163" d="m-373.48753,194.80926c0,0 -9.08447,-48.13529 35.3278,-96.30292c0,0 -2.74299,24.97733 11.62411,45.68664c0,0 5.48743,-67.61053 47.14749,-94.86343c41.6604,-27.2529 68.9133,-55.76765 76.98817,-87.81513c0,0 14.38345,19.43032 13.12173,51.47779c0,0 9.57796,-25.48633 22.32686,-38.35605c0,0 -0.36184,72.98737 53.12893,104.24757c0,0 -4.29532,-17.07927 2.77026,-32.02259c0,0 17.87726,40.31975 44.51886,75.14253c26.64132,34.82333 24.6242,73.17939 19.57664,83.77783l20.18649,-15.14087c0,0 20.46601,48.84231 -26.10419,103.02573c0,0 13.23475,-3.17703 21.56218,-12.47449c0,0 -9.67901,56.31176 -61.1118,74.98521c-51.43265,18.67317 -94.5322,6.56059 -137.32963,2.01858s-69.59123,17.48376 -110.4477,-5.26335c-40.85664,-22.74683 -44.64182,-83.6335 -78.70802,-89.14845c0,0 11.86037,-10.1305 35.32805,0c0,0 -22.45832,-44.95812 -10.59844,-91.60269c0,0 6.30858,16.45041 20.6922,22.62808z" fill="#FF7900"/>
    <path stroke="null" id="svg_164" d="m-279.38812,49.32956c-41.66006,27.2529 -47.1477,94.86301 -47.1477,94.86301c-14.3669,-20.7089 -11.62418,-45.68623 -11.62418,-45.68623c-44.412,48.16763 -35.32774,96.3025 -35.32774,96.3025c-14.38342,-6.17725 -20.692,-22.62767 -20.692,-22.62767c-11.85988,46.64457 10.59844,91.60269 10.59844,91.60269c-23.46768,-10.1305 -35.32805,0 -35.32805,0c34.06633,5.51467 37.85138,66.40162 78.70802,89.14845c35.09504,19.53939 59.81414,6.04274 93.21333,4.72642l5.61766,-18.68755c0,0 -55.76724,24.36894 -90.32494,5.92662c-34.55746,-18.44259 -49.71644,-72.6285 -49.71644,-72.6285c5.97269,-2.65476 13.27269,0 13.27269,0c-17.58637,-32.18613 -17.25445,-71.87378 -17.25445,-71.87378c10.8735,17.80344 27.87252,13.47404 27.87252,13.47404c-11.94538,-41.47675 13.46855,-80.29909 13.46855,-80.29909c6.5149,19.76845 26.50965,18.58152 26.50965,18.58152c0.49269,-28.20413 21.40756,-74.65842 70.77809,-111.48954c49.37081,-36.83154 44.36472,-79.14803 44.36472,-79.14803c-8.07487,32.04748 -35.32777,60.56223 -76.98817,87.81513z" fill="#FF4E00"/>
    <path stroke="null" id="svg_165" d="m-308.28953,159.59997c0,0 0.68263,-43.73635 35.04009,-79.69947c34.35774,-35.96353 65.80346,-51.28329 70.99188,-83.30104c0,0 9.16842,15.16617 8.78695,31.86472c0,0 10.27766,-16.85159 21.26338,-25.73724c0,0 12.02522,70.16396 66.19647,92.83697c0,0 -0.09311,-11.0303 0,-19.30258c0,0 17.28822,37.46966 39.47746,69.24452c22.18917,31.77445 8.6214,73.5339 8.6214,73.5339s16.64291,-4.13642 24.30272,-11.64264c0,0 -9.54132,65.62202 -37.32485,91.48533c0,0 11.66033,2.56463 22.70176,1.96411c0,0 -29.59848,62.44132 -116.79291,53.66392c-87.19464,-8.77741 -104.19932,-20.26708 -104.19932,-20.26708s-48.53245,11.18306 -72.67619,-10.41749s-25.98206,-46.26531 -25.98206,-46.26531s10.04012,-3.15878 15.31951,0.30662c0,0 -19.76226,-41.232 -21.14107,-55.16161c0,0 19.5455,-0.64835 25.62854,-5.37394c0,0 -1.86624,-41.3146 4.02337,-61.08954c0,0 21.51573,10.40477 35.76288,3.35785z" fill="#FF8F33"/>
    <g stroke="null" id="svg_166" display="inline">
     <path stroke="null" id="svg_167" d="m-215.8988,38.28184c0,0 12.51417,19.35359 7.59089,36.06818c0,0 19.49059,-13.96196 28.48793,-27.92378c0,0 6.71667,12.79812 11.92928,36.06777s41.28059,70.09982 57.56933,77.37193c0,0 15.56748,-14.54367 13.31022,-34.90448c0,0 19.50427,30.85059 3.56037,84.75097c0,0 13.16666,-6.50702 18.65458,-14.94201c0,0 4.65627,41.3063 -36.68874,104.11202c0,0 19.27507,4.09163 36.68874,-3.47093c0,0 10.72313,43.6993 -108.24298,54.71813c-118.96598,11.01855 -178.5298,-57.04499 -178.5298,-57.04499s29.31319,-0.51564 44.14765,-11.89278c0,0 -38.49274,-53.26523 -15.46518,-108.38378c0,0 12.26555,35.18524 34.08092,50.09795c21.81523,14.91332 14.98867,-45.72791 14.98867,-45.72791s-23.47743,-34.47345 -10.21607,-58.61595c13.26136,-24.14236 64.47193,-57.59269 78.13418,-80.28036z" fill="#FF7900"/>
     <g stroke="null" id="svg_168">
      <path stroke="null" id="svg_169" d="m-295.03979,293.66637c0,0 -4.05665,-7.85341 -25.87209,-41.56377c-21.8154,-33.70953 -11.97462,-79.2945 -11.97462,-79.2945c-23.02756,55.11855 15.46497,108.38378 15.46497,108.38378c-0.30966,0.23777 -0.62637,0.46974 -0.94826,0.69783l23.32999,11.77666z" fill="#FF4E00"/>
      <path stroke="null" id="svg_170" d="m-110.32137,159.86594c-9.66325,-4.31433 -26.28757,-22.55039 -39.30148,-41.53101l-18.26786,62.47367c0,0 8.41232,84.643 8.38287,85.92172c-0.02903,1.27844 -33.42082,36.82574 -89.61791,48.50757c-56.19688,11.68155 -112.44323,-22.15323 -112.44323,-22.15323s59.56355,68.06354 178.52994,57.04471c26.33457,-2.43911 46.31315,-6.48013 61.46099,-11.29282c17.09302,-14.74605 29.75663,-30.34947 37.06337,-40.32597c-14.1651,3.08966 -26.97027,0.37186 -26.97027,0.37186c15.1043,-22.94479 24.06833,-43.01889 29.36362,-59.25849c-18.84169,-14.73721 -38.11759,-44.34924 -25.04445,-67.44277c16.85048,-29.7661 10.15462,-47.21972 10.15462,-47.21972c2.25725,20.36081 -13.31022,34.90448 -13.31022,34.90448z" fill="#FF4E00"/>
      <path stroke="null" id="svg_171" d="m-261.57425,236.8763l4.81531,-48.50515c0,0 -46.7007,-53.22957 -16.1843,-83.18893c21.47889,-21.08698 40.98165,-45.63204 50.64946,-58.32108c-18.98891,21.98637 -60.06581,50.4497 -71.7392,71.70105c-13.26136,24.1425 10.21607,58.61595 10.21607,58.61595s2.06212,18.31817 0.2977,32.34269c11.94649,14.80854 21.94497,27.35547 21.94497,27.35547z" fill="#FF4E00"/>
     </g>
     <path stroke="null" id="svg_172" d="m-93.29988,140.14781c0,0 3.83906,26.93702 0,48.78336c-3.83906,21.84654 -1.3101,24.40592 0.85322,24.67991c2.16325,0.27427 12.21799,-8.22645 13.40637,-7.49502c1.18817,0.73101 -3.10784,19.92667 -5.85011,21.572c-2.74234,1.64533 -16.3618,-14.07697 -20.29224,-30.89545c-3.93071,-16.81938 7.32285,-29.79886 8.91717,-38.20855c1.59446,-8.40927 2.35278,-23.70317 2.96559,-18.43623z" fill="#FF8F33"/>
     <path stroke="null" id="svg_173" d="m-264.25901,106.86281c0,0 36.69745,-40.63024 44.04407,-51.81661c7.34669,-11.18652 4.74992,23.20938 9.49971,27.41948c4.74986,4.2101 21.15852,-18.56756 27.85134,-18.35163c6.69289,0.21593 12.98896,36.72289 22.5253,51.28674c9.53614,14.56372 -95.06844,30.75631 -104.78401,28.59714c-9.71564,-2.15903 -12.21433,-22.46786 0.86359,-37.13512z" fill="#FF8F33"/>
     <path stroke="null" id="svg_174" d="m-317.63442,213.95031c0,0 -9.02029,-14.57332 -12.04305,-23.96521c-3.02255,-9.39161 -3.57323,20.88854 4.9548,37.08141c8.52816,16.1926 7.08825,-13.11621 7.08825,-13.11621z" fill="#FF8F33"/>
     <path stroke="null" id="svg_175" d="m-331.69528,291.14405c0,0 -9.80456,2.53532 -18.13134,3.99541c-8.32681,1.45954 50.68215,11.76394 50.31229,11.98596c-0.36993,0.22201 -32.18095,-15.98137 -32.18095,-15.98137z" fill="#FF8F33"/>
    </g>
    <g stroke="null" id="svg_176" display="inline">
     <g stroke="null" id="svg_177">
      <path stroke="null" id="svg_178" d="m-72.87963,261.28007c0,0 7.17963,-1.11615 16.1044,-6.91753c8.92463,-5.80083 13.28624,-17.24709 6.5129,-20.47057c-12.13401,-5.77428 -24.52149,17.97562 -22.6173,27.3881z" fill="#CD2606"/>
      <path stroke="null" id="svg_179" d="m-65.65245,249.16362c0.20301,-2.25497 0.90748,-7.10581 1.43721,-10.61572c-5.89351,6.51774 -9.79409,17.14811 -8.6644,22.73218c0,0 7.17963,-1.1167 16.10419,-6.91753c1.42615,-0.92676 2.73466,-1.99812 3.90106,-3.15712c-5.79647,-2.03959 -13.11572,1.70865 -12.77807,-2.0418z" fill="#BC1A04"/>
      <path stroke="null" id="svg_180" d="m-72.87943,261.28007c0,0 13.07446,-25.37201 1.69047,-27.97009c-11.38399,-2.59781 -18.98193,15.59208 -1.69047,27.97009z" fill="#CD2606"/>
      <path stroke="null" id="svg_181" d="m-75.74949,233.38519c-8.4795,2.37662 -11.9657,17.27474 2.87007,27.89433c0,0 0.54681,-1.06113 1.31929,-2.77088c-11.16419,-9.0984 -9.99896,-20.70198 -4.18936,-25.12345z" fill="#BC1A04"/>
      <path stroke="null" id="svg_182" d="m-72.32937,253.76369c0,0 8.10217,-14.03467 1.34998,-17.79452c-3.64456,-2.03019 -9.73499,8.55954 -1.34998,17.79452z" fill="#E22C14"/>
      <path stroke="null" id="svg_183" d="m-72.87963,261.28007c0,0 3.88116,-6.85117 12.10547,-9.32318c8.22431,-2.47118 17.12316,9.63118 10.98206,13.99735c-6.14124,4.36562 -19.00198,-1.18472 -23.08752,-4.67417z" fill="#CD2606"/>
      <path stroke="null" id="svg_184" d="m-48.23228,264.14579c-6.26669,2.78111 -16.68349,0.2621 -19.04649,-3.61193c-1.05256,-1.72523 -0.88612,-3.51434 -0.27199,-5.07341c-3.59783,2.76535 -5.32887,5.81963 -5.32887,5.81963c4.08554,3.48945 16.94628,9.03979 23.08731,4.67417c0.71643,-0.50955 1.22785,-1.12417 1.56004,-1.80845z" fill="#BC1A04"/>
      <path stroke="null" id="svg_185" d="m-65.31072,257.86831c0,0 2.63085,-4.20968 6.56308,-4.4881c3.93244,-0.27786 9.00896,5.06428 8.26661,7.89212c-0.74242,2.82728 -16.35634,0.62042 -14.82969,-3.40402z" fill="#E22C14"/>
      <path stroke="null" id="svg_186" d="m-62.40858,246.96616c0,0 -1.2651,-5.98607 5.07334,-10.43269c3.91516,-2.74655 8.21076,1.05256 8.02407,3.56272c-0.1869,2.50988 -3.59134,6.93273 -5.21331,7.76549s-7.24481,1.55686 -7.8841,-0.89552z" fill="#E22C14"/>
     </g>
     <g stroke="null" id="svg_187">
      <path stroke="null" id="svg_188" d="m-234.9314,128.54865c0,0 -13.42033,-39.02942 -1.51138,-47.44782s25.30489,8.62382 30.87499,26.07648c0,0 3.82517,-28.12962 24.76838,-25.66563c20.94321,2.46413 13.55139,36.13758 13.55139,36.13758s13.44895,-17.14507 25.25519,-10.06097c11.80624,7.08355 2.05335,35.9316 2.05335,35.9316s17.45265,-4.20913 24.63906,14.1678c7.18633,18.37651 -14.16759,42.70785 -14.16759,42.70785l-89.90158,-33.87376c0,0 -22.00033,-21.35918 -22.00075,-22.18046c-0.00021,-0.82142 6.43894,-15.79267 6.43894,-15.79267z" fill="#CD2606"/>
      <path stroke="null" id="svg_189" d="m-118.26954,183.09896c-7.12841,-3.17579 -17.46641,-11.60082 -29.60609,-26.85684c-18.04239,-22.67329 -43.4869,-25.62457 -58.47598,-23.68175c-14.98887,1.9431 -20.63293,-3.88606 -26.09203,-28.31251c-2.44063,-10.92026 -2.58716,-18.86104 -1.93792,-24.34737c-0.69072,0.31975 -1.3786,0.71788 -2.06123,1.20034c-11.90896,8.4184 1.51138,47.44782 1.51138,47.44782s-6.43915,14.97125 -6.43894,15.79267c0.00041,0.82128 22.00075,22.18046 22.00075,22.18046l89.90158,33.87376c0,0 6.57317,-7.48984 11.19847,-17.29658z" fill="#B51702"/>
      <path stroke="null" id="svg_190" d="m-205.56779,114.46076c0,0 -14.65191,-29.41152 -21.88822,-28.29315c-7.23589,1.11878 4.4892,35.44002 9.45084,39.33866c4.96157,3.89823 34.43578,-2.18571 52.56933,10.39564c18.13335,12.58136 36.38399,35.61019 43.59106,36.26711c7.20693,0.65609 8.32833,-25.28091 -22.20908,-26.46203c0,0 8.25182,-29.40903 -2.00814,-33.43195c-10.25996,-4.02251 -25.63508,12.40427 -25.63508,12.40427s2.3037,-34.67196 -11.69524,-36.62128c-13.99873,-1.94932 -22.17548,26.40272 -22.17548,26.40272z" fill="#E22C14"/>
     </g>
     <path stroke="null" id="svg_191" d="m-330.8194,245.57298c0,0 -20.15528,-8.78681 -27.02021,-5.05239c-6.86489,3.73469 -6.80994,37.01568 22.62673,47.45003l8.67725,-21.30858l-4.28378,-21.08906z" fill="#FECE00"/>
     <path stroke="null" id="svg_192" d="m-355.47307,239.76441c-0.89503,0.14571 -1.69458,0.39067 -2.36653,0.75617c-6.86489,3.73414 -6.80994,37.01568 22.62673,47.45003l2.32637,-5.71346c-22.25964,-9.5521 -25.85446,-32.89115 -22.58657,-42.49275z" fill="#FCC000"/>
     <path stroke="null" id="svg_193" d="m-284.44936,344.89782c0,0 4.12176,33.9556 14.32802,32.77807c10.20639,-1.17781 23.35667,-24.74357 23.35667,-24.74357l-37.68469,-8.03451z" fill="#FF8B00"/>
     <path stroke="null" id="svg_194" d="m-266.92234,373.62463c-8.15381,0.89966 -12.59242,-18.72432 -14.23166,-28.02428l-3.29536,-0.70254c0,0 4.12176,33.95532 14.32802,32.77807c4.33424,-0.50043 9.19897,-5.03774 13.36241,-10.0929c-3.35494,3.23039 -6.90287,5.68166 -10.1634,6.04164z" fill="#FF7300"/>
     <path stroke="null" id="svg_195" d="m-234.9314,128.54865c0,0 2.35043,11.53806 13.53245,18.37568c0,0 34.89798,-35.52518 80.33282,24.48658c45.43484,60.01182 39.73541,76.56716 70.1321,89.05161c0,0 -32.91458,99.33231 -144.96476,103.67443c-112.05011,4.34239 -132.94794,-72.75651 -121.54913,-122.41147c11.39864,-49.65544 54.94962,-112.10547 102.51653,-113.17683z" fill="#FECE00"/>
     <path stroke="null" id="svg_196" d="m-237.19432,158.87186c0,0 4.45305,10.14004 12.72464,9.26857c8.27159,-0.87105 30.0994,-18.91178 48.47701,-7.38685c18.37789,11.52493 57.13927,84.62061 76.30748,102.45826c19.16814,17.83793 -45.8159,70.87811 -105.8826,64.78034c-60.0665,-6.09804 -85.01611,-45.35265 -85.1079,-81.56156c-0.11128,-43.88033 43.31258,-103.45677 53.48137,-87.55876z" fill="#FFDA3E"/>
     <path stroke="null" id="svg_197" d="m-311.98054,261.00912c0.20805,-82.97693 77.04914,-132.46047 77.04914,-132.46047c-47.56691,1.07177 -91.11788,63.52139 -102.51653,113.17683c-11.39882,49.65496 9.49888,126.75386 121.54913,122.41147c30.61019,-1.18638 55.31443,-9.4617 75.0553,-20.86455c-87.28359,11.52755 -171.32636,-6.79698 -171.13704,-82.26327z" fill="#FCC000"/>
     <g stroke="null" id="svg_198">
      <path stroke="null" id="svg_199" d="m-230.57823,237.00072c0,0 4.21265,7.18682 4.71232,12.4521c0.4996,5.26528 -5.15006,13.75902 -5.15006,13.75902s11.76042,-2.42113 12.91348,-2.99787c1.15306,-0.57619 5.30385,-5.49587 5.30385,-6.7638c0,-1.26849 -0.49967,-3.41591 -0.38451,-4.39824c0.11536,-0.98261 -0.65318,-2.16732 -2.15219,-4.24562c-1.49893,-2.07885 -11.10523,-8.93196 -15.24289,-7.80558z" fill="#660000"/>
      <path stroke="null" id="svg_200" d="m-230.57823,237.00072c0,0 4.21265,7.18682 4.71211,12.4521c0.49981,5.26528 -5.14985,13.75902 -5.14985,13.75902s6.68349,-1.37604 10.46739,-2.30031c2.16608,-1.75261 3.57585,-3.12008 1.86009,-2.52592c-3.99458,1.38268 -4.675,-1.98817 -5.24883,-8.3414c-0.45453,-5.03304 -2.66969,-9.72712 -3.57018,-11.46009c-0.06325,-0.12193 -0.41306,-0.7465 -0.89109,-1.59474c-0.81831,-0.14626 -1.56045,-0.15704 -2.17963,0.01134z" fill="#540000"/>
      <path stroke="null" id="svg_201" d="m-240.40114,238.58439c0,0 17.76411,-4.37308 24.50234,13.39103c0,0 -4.45506,10.21151 -19.04518,10.39592c0,0 1.72634,7.64688 12.69692,6.31038c10.97031,-1.3365 16.14905,-17.63112 16.14905,-17.63112s-3.007,-21.79518 -16.70609,-25.69355c-13.69909,-3.89809 -18.48814,9.41414 -17.59704,13.22735z" fill="#FF8B00"/>
      <path stroke="null" id="svg_202" d="m-234.2758,232.87702c-0.33931,-2.67964 1.10143,-5.46324 2.61405,-7.5667c-6.92921,2.3686 -9.40128,10.44154 -8.73939,13.27407c0,0 17.76411,-4.37308 24.50234,13.39103c-3.26578,-17.62808 -17.70397,-13.7828 -18.377,-19.0984z" fill="#FF7300"/>
      <path stroke="null" id="svg_203" d="m-226.95814,234.94785c0,0 8.49146,2.10567 11.45995,12.28842c2.96843,10.18275 -7.24875,14.01421 -11.45995,15.53292c-4.21113,1.5187 0.22201,5.32417 5.99629,3.45627c5.77442,-1.86845 12.33266,-12.53422 12.64343,-16.43452c0.31063,-3.90085 -6.18638,-21.30029 -14.98293,-22.57514c-8.79635,-1.27457 -9.11063,5.97169 -3.65679,7.73204z" fill="#FFA039"/>
      <path stroke="null" id="svg_204" d="m-221.90727,252.43189c0,0 -0.78168,-4.73306 -1.39408,-7.36653c-0.61199,-2.63347 5.33765,4.61832 5.37815,6.33609c0.04009,1.71749 -3.35204,4.62993 -3.98407,1.03044z" fill="#770101"/>
     </g>
     <path stroke="null" id="svg_205" d="m-154.52746,211.79349c-0.83227,-0.94556 -2.27342,-1.03956 -3.22368,-0.20736l-8.99106,7.89516l-7.89627,-8.99251c-0.83227,-0.94777 -2.27557,-1.0415 -3.22362,-0.20708c-0.51322,0.45039 -0.77649,1.08214 -0.77649,1.71556c0,0.53554 0.18738,1.07302 0.56886,1.5082l7.89475,8.9903l-8.99292,7.89709c-0.94805,0.83193 -1.04178,2.27515 -0.20736,3.22348c0.45059,0.51287 1.082,0.77635 1.71556,0.77635c0.5354,0 1.07302,-0.18745 1.50806,-0.56872l8.99113,-7.89544l7.89737,8.99334c0.8322,0.94805 2.27557,1.04205 3.22362,0.20764c0.94584,-0.83248 1.03963,-2.27349 0.20736,-3.22403l-7.89585,-8.9914l8.99306,-7.89682c0.94805,-0.8322 1.04192,-2.27543 0.2075,-3.22376z"/>
     <ellipse stroke="null" id="svg_206" ry="6.77597" rx="8.47051" cy="241.72548" cx="-142.29903" fill="#FF9999"/>
     <path stroke="null" id="svg_207" d="m-265.25848,211.79349c-0.83207,-0.94556 -2.27322,-1.03956 -3.22348,-0.20736l-8.99106,7.89516l-7.89647,-8.99251c-0.83207,-0.94777 -2.27536,-1.0415 -3.22362,-0.20708c-0.51301,0.45039 -0.77643,1.08214 -0.77643,1.71556c0,0.53554 0.18752,1.07302 0.569,1.5082l7.89475,8.9903l-8.99285,7.89709c-0.94826,0.83193 -1.04205,2.27515 -0.20764,3.22348c0.4508,0.51287 1.08221,0.77635 1.71577,0.77635c0.5354,0 1.07302,-0.18745 1.50813,-0.56872l8.99113,-7.89544l7.8973,8.99334c0.832,0.94805 2.27536,1.04205 3.22369,0.20764c0.94584,-0.83248 1.03943,-2.27349 0.20736,-3.22403l-7.89585,-8.9914l8.99285,-7.89682c0.94826,-0.8322 1.04184,-2.27543 0.20743,-3.22376z"/>
     <path stroke="null" id="svg_208" d="m-295.03979,241.72548c0,3.74188 -3.79234,6.77597 -8.47024,6.77597c-4.67811,0 -8.47051,-3.03409 -8.47051,-6.77597c0,-3.74243 3.79241,-6.7768 8.47051,-6.7768c4.6779,0 8.47024,3.03437 8.47024,6.7768z" fill="#FF9999"/>
     <g stroke="null" id="svg_209">
      <path stroke="null" id="svg_210" d="m-160.10544,330.14679c0,0 15.11211,0.00525 18.62341,13.05649c3.51129,13.05096 -16.06604,31.47032 -26.59101,27.46358c-10.52476,-4.00785 -13.00838,-40.0376 7.9676,-40.52006z" fill="#FF8B00"/>
      <path stroke="null" id="svg_211" d="m-155.00252,338.99359c0,0 7.0004,-0.24164 8.6984,9.11001c1.69814,9.35138 -13.07335,20.91073 -18.66834,18.45586c-4.97159,-2.18198 -4.75877,-28.45393 9.96993,-27.56587z" fill="#FFA039"/>
      <path stroke="null" id="svg_212" d="m-156.26569,334.72336c0,0 7.57306,0.00387 13.24283,4.63574c-5.10672,-9.20789 -17.08238,-9.21231 -17.08238,-9.21231c-20.22291,0.46504 -18.6402,33.96887 -9.06937,39.966c-5.69528,-11.05809 -4.16316,-34.99738 12.90892,-35.38942z" fill="#FF7300"/>
     </g>
     <path stroke="null" id="svg_213" d="m-132.52256,264.97633c0,0 3.72128,5.78866 8.13183,5.09995c4.41048,-0.68926 21.03217,-6.97338 23.65106,1.85988c2.61861,8.8327 -18.96493,26.94628 -18.96493,26.94628s18.88268,-8.26979 22.19055,-23.15547c3.30801,-14.88568 -10.40615,-12.887 -20.53651,-10.75064c-10.13043,2.13636 -14.47199,0 -14.47199,0z" fill="#F99300"/>
     <path stroke="null" id="svg_214" d="m-271.50423,360.74205c0,0 11.69061,1.43216 12.33356,3.15685c0.64316,1.72413 -4.73479,6.66344 -8.0081,6.54677c-3.27338,-0.11695 -8.242,-9.99585 -4.32546,-9.70361z" fill="#FFA039"/>
     <path stroke="null" id="svg_215" d="m-343.30654,245.3728c0,0 -7.11286,-1.98596 -10.14197,-0.9063c-3.02908,1.07938 3.16214,22.30031 7.89236,23.44936c3.75729,0.91294 4.81372,-21.94034 2.24961,-22.54306z" fill="#FFDA3E"/>
    </g>
    <path stroke="null" id="svg_216" d="m-109.4047,331.43574c-0.38624,0.15566 19.72055,-19.48492 25.20716,-30.34367l6.8878,-1.18859c0,0 -3.49623,19.99558 -32.09496,31.53225z" fill="#FF8F33"/>
   </g>
  </g>
 </g>
</svg>