<svg width="400" height="350" xmlns="http://www.w3.org/2000/svg">

 <g>
  <title>background</title>
  <rect fill="none" id="canvas_background" height="352" width="402" y="-1" x="-1"/>
 </g>
 <g>
  <title>Layer 1</title>
  <g stroke="null" id="svg_1">
   <g stroke="null" id="svg_2" display="none">
    <path stroke="null" id="svg_3" d="m666.19907,121.98138c0,0 -11.9939,-17.91891 -7.7618,-26.75538c4.23238,-8.83626 33.8283,-6.37145 41.16811,6.04607c7.33954,12.41766 -17.18044,18.62988 -33.40631,20.70932z" fill="#CD2606"/>
    <path stroke="null" id="svg_4" d="m666.19907,121.98138c8.35932,-1.07134 18.92042,-3.2397 26.19203,-6.78842c-2.40761,-0.51838 -5.38313,-0.93052 -8.28582,-0.73209c-6.51594,0.4459 -11.62286,1.69359 -14.50586,0c-2.88367,-1.69338 -7.06931,-7.09621 -7.25544,-14.7699c-0.09143,-3.76657 1.6548,-6.86008 3.45674,-9.03442c-3.57181,0.80784 -6.28742,2.32317 -7.36345,4.56945c-4.2321,8.83647 7.7618,26.75538 7.7618,26.75538z" fill="#BC1A04"/>
    <path stroke="null" id="svg_5" d="m666.19907,121.98138c0,0 -3.82696,-20.4719 -18.83931,-19.86337c-15.01249,0.60846 -13.7487,31.30778 18.83931,19.86337z" fill="#CD2606"/>
    <path stroke="null" id="svg_6" d="m641.50981,104.3871c-7.97442,7.01116 -2.73477,27.22506 24.68926,17.59427c0,0 -0.20379,-1.08927 -0.70118,-2.75712c-20.74261,5.84085 -27.14538,-6.7569 -23.98808,-14.83716z" fill="#BC1A04"/>
    <g stroke="null" id="svg_7" display="inline">
     <path stroke="null" id="svg_8" d="m660.67017,270.7841c0,0 23.13867,14.87092 22.72239,20.81896c-0.41642,5.94831 -15.64397,5.53176 -20.70022,4.1639c-5.05597,-1.36813 -18.9154,-15.34643 -18.9154,-15.34643l16.89322,-9.63642z" fill="#FF8B00"/>
    </g>
    <path stroke="null" id="svg_9" d="m683.39255,291.60306c0.0288,-0.40867 -0.05475,-0.85946 -0.23328,-1.34476c-3.36313,1.41405 -7.67689,2.89821 -10.16534,2.47052c-4.50396,-0.77414 -17.34687,-11.154 -17.31182,-11.47083c0,0 -6.96673,-2.04065 -9.14814,-0.77414c-0.67143,0.38992 -0.97182,0.95973 -1.05443,1.61676c3.85889,3.75631 13.2456,12.59278 17.21277,13.66636c5.05624,1.36786 20.2838,1.78441 20.70022,-4.1639z" fill="#FF7300"/>
    <g stroke="null" id="svg_10" display="inline">
     <path stroke="null" id="svg_11" d="m652.04293,282.05875c0,0 23.13894,14.87092 22.72266,20.81896c-0.41628,5.94858 -15.64425,5.53203 -20.69994,4.1639c-5.05597,-1.36813 -18.91553,-15.34671 -18.91553,-15.34671l16.89282,-9.63615z" fill="#FF8B00"/>
     <path stroke="null" id="svg_12" d="m654.67308,303.24426c-3.79925,-1.0282 -12.56833,-9.17585 -16.69378,-13.1634l-2.82919,1.61404c0,0 13.85956,13.97858 18.91553,15.34671c5.0557,1.36813 20.28366,1.78468 20.69994,-4.1639c0.03478,-0.49726 -0.09592,-1.05755 -0.3633,-1.66594c-3.49492,3.68186 -15.37795,3.20961 -19.72921,2.0325z" fill="#FF7300"/>
     <path stroke="null" id="svg_13" d="m650.2793,294.97787c0,0 4.95204,-6.32873 6.49502,-6.29666c1.54366,0.03234 13.37643,9.32476 12.79766,10.73963c-0.57864,1.41487 -8.74585,2.1545 -12.60447,1.35047c-3.85835,-0.80376 -7.64999,-4.60735 -6.68822,-5.79343z" fill="#FFA039"/>
    </g>
    <path stroke="null" id="svg_14" d="m474.90732,283.49916c0,0 -17.18098,14.46632 -16.87285,18.47153c0.308,4.00549 36.88506,0 36.88506,0l-20.01221,-18.47153z" fill="#FF8B00"/>
    <path stroke="null" id="svg_15" d="m478.9802,303.33176c0.91082,-1.34395 -0.87862,-2.05097 -0.87862,-2.05097l0,-8.24139c0,0 -7.43125,8.94842 -8.74259,9.20547c-1.31161,0.25705 -8.27971,0.12853 -9.15384,-0.96408c-0.36927,-0.46112 -0.4997,-1.60725 -0.52755,-2.77784c-1.06394,1.44231 -1.7048,2.66507 -1.64366,3.46747c0.16793,2.17705 11.04681,1.98766 20.94626,1.36134z" fill="#FF7300"/>
    <path stroke="null" id="svg_16" d="m481.55804,291.25824c-0.30786,0.36954 -16.44203,16.07248 -13.67071,20.07525c2.77104,4.00277 45.754,-2.15532 45.4464,-2.34009c-0.308,-0.1845 -31.77569,-17.73516 -31.77569,-17.73516z" fill="#FF8B00"/>
    <path stroke="null" id="svg_17" d="m470.62604,307.78097c-0.8596,-1.28199 0.10108,-3.7267 1.84378,-6.50018c-3.24656,4.07776 -5.83025,8.25063 -4.58249,10.05271c2.77104,4.00277 45.754,-2.15532 45.4464,-2.34009c-0.0716,-0.04293 -1.82463,-1.02304 -4.47339,-2.50231c-12.29565,1.68143 -36.19134,4.33509 -38.2343,1.28987z" fill="#FF7300"/>
    <path stroke="null" id="svg_18" d="m455.00163,192.50364c0,0 -26.22926,96.09062 55.37602,120.82947c81.60555,24.73804 137.04379,-9.05657 155.82142,-42.97752c18.77722,-33.92095 18.1812,-127.80843 0,-148.37421c0,0 -39.0454,5.66307 -68.5526,-5.36492c-29.50761,-11.02799 -92.74542,-16.92461 -142.64484,75.88718z" fill="#FECE00"/>
    <path stroke="null" id="svg_19" d="m492.03138,215.05756c0,0 9.6708,2.4159 20.33678,-6.11678c10.66612,-8.53322 2.70203,-28.58551 6.82639,-31.85653c4.1245,-3.27088 16.49814,-17.06577 18.70182,-25.0298c2.20409,-7.96417 16.14123,-15.92833 28.79814,-23.60794c12.65732,-7.67967 56.17543,6.43212 77.08107,4.85157c20.90591,-1.58062 22.1856,16.19619 24.17693,37.31533c1.99065,21.11908 -4.69335,85.40058 -22.75472,102.32411s-34.98516,1.28009 -52.90401,4.26661c-17.91939,2.98652 -13.08406,11.16324 -39.53627,12.55012c-26.45194,1.38715 -51.05533,-13.97233 -61.15274,-37.86448c-10.09713,-23.89243 -6.67694,-37.25881 0.42661,-36.83221z" fill="#FFDA3E"/>
    <path stroke="null" id="svg_20" d="m529.66218,299.61131c-81.60528,-24.73858 -55.37561,-120.8292 -55.37561,-120.8292c13.42698,-24.97444 27.8198,-42.8011 42.26166,-55.30415c-20.68622,11.73542 -42.12634,32.90477 -61.5466,69.02567c0,0 -26.22926,96.09035 55.37602,120.8292c63.55668,19.26714 111.23978,3.02918 138.09414,-21.12084c-27.96653,15.62522 -68.39419,22.68272 -118.80961,7.39932z" fill="#FCC000"/>
    <g stroke="null" id="svg_21" display="inline">
     <path stroke="null" id="svg_22" d="m455.00163,192.50364c0,0 8.89516,-5.76952 17.79019,3.02103c8.8953,8.79028 19.67391,9.31362 30.97574,2.51155c11.30196,-6.80221 7.9535,-25.01085 0,-28.67355c0,0 14.023,-1.88359 19.25546,-13.18548c5.23218,-11.30203 0,-20.3018 0,-20.3018s17.79005,1.36025 20.72019,-10.04625c2.93,-11.4065 -11.30196,-28.7781 -43.3241,-15.90632c-32.02228,12.8715 -53.68454,42.40996 -45.41746,82.58084z" fill="#CD2606"/>
     <g stroke="null" id="svg_23">
      <path stroke="null" id="svg_24" d="m510.37765,167.46209c-8.80685,-0.75933 -15.08653,-5.94478 -15.08653,-5.94478c3.18148,5.80973 8.47698,7.84535 8.47698,7.84535s2.92946,-0.39441 6.60955,-1.90057z" fill="#9B0D02"/>
      <path stroke="null" id="svg_25" d="m520.88169,130.6705c-0.27675,2.76636 2.14105,5.20488 2.14105,5.20488s1.84636,0.14089 4.44717,-0.04884c-5.03369,-2.0147 -6.58822,-5.15603 -6.58822,-5.15603z" fill="#9B0D02"/>
     </g>
     <path stroke="null" id="svg_26" d="m473.39667,138.452c11.89309,-16.6018 30.51095,-27.15101 43.41418,-32.84472c-4.8193,0.50541 -10.28136,1.8592 -16.39176,4.31525c-32.02228,12.87198 -53.68454,42.41023 -45.41746,82.58111c0,0 8.89516,-5.76952 17.79019,3.02103c8.8953,8.79028 19.67391,9.31362 30.97628,2.51155c-36.34582,-3.65877 -49.82959,-32.42212 -30.37142,-59.58421z" fill="#BC1A04"/>
     <path stroke="null" id="svg_27" d="m492.41736,154.78052c0,0 9.27163,8.96058 19.91222,4.23136c10.64058,-4.72909 5.85131,-21.40106 4.48127,-28.34137c-1.36976,-6.94051 10.20406,1.21101 17.67117,-1.27799c7.46684,-2.48893 2.73789,-20.16098 -14.68533,-20.16098c-17.42336,0 -44.2424,30.36592 -48.53604,43.30889s3.48486,29.99271 14.56061,35.84197c11.07629,5.84927 22.09008,0.7467 19.04107,-6.72042s-10.82685,-13.9385 -14.68506,-21.90327c-3.85807,-7.96505 0.27037,-6.56085 2.24009,-4.97819z" fill="#E22C14"/>
    </g>
    <g stroke="null" id="svg_28" display="inline">
     <g stroke="null" id="svg_29">
      <path stroke="null" id="svg_30" d="m508.92324,270.35559c-0.01195,0 -0.02405,0 -0.03763,0c-7.72729,-0.02147 -13.28514,-6.90261 -13.51692,-7.19525c-0.71029,-0.89316 -0.56179,-2.19064 0.32987,-2.90364c0.89221,-0.70703 2.19499,-0.56437 2.90663,0.32335c0.04565,0.05679 4.58657,5.63339 10.31275,5.6361c0.00163,0 0.00407,0 0.0053,0c3.31069,0 6.51649,-1.89691 9.52638,-5.64126c0.71667,-0.88935 2.01959,-1.02793 2.91017,-0.3152c0.89058,0.71681 1.03214,2.01837 0.31534,2.91044c-3.83471,4.76686 -8.12496,7.18547 -12.75188,7.18547z"/>
     </g>
    </g>
    <ellipse stroke="null" id="svg_31" ry="71.55964" rx="79.69286" cy="-11459.37741" cx="-513.9543" fill="#FF9999" transform="matrix(0.13826440867798032,-0.015430341192021966,0.015430341192021966,0.13826440867798032,783.1228876966018,1855.9460421764834) "/>
    <g stroke="null" id="svg_32" display="inline">
     <path stroke="null" id="svg_33" d="m633.94039,318.2198c0,0 -19.01077,-20.21247 -28.66201,-25.34099c-9.6511,-5.12852 -24.23209,-5.43014 -29.86289,10.65919c-5.63189,16.08933 11.36282,33.68727 58.52489,14.6818z" fill="#FECE00"/>
     <path stroke="null" id="svg_34" d="m622.70677,312.26659c0,0 -14.4636,-13.90412 -20.06873,-16.88249c-5.60512,-2.97864 -14.07368,-3.15363 -17.34415,6.19042c-3.27061,9.34459 10.02227,21.72978 37.41288,10.69207z" fill="#FFDA3E"/>
     <path stroke="null" id="svg_35" d="m581.44859,297.19324c0.62945,-1.798 1.37098,-3.39085 2.20436,-4.79593c-3.41041,2.13983 -6.33498,5.7043 -8.23745,11.14042c-5.63189,16.0896 11.36282,33.68754 58.52489,14.68207c0,0 -1.11081,-1.18091 -2.93136,-3.04413c-40.34533,13.38187 -54.81898,-2.95717 -49.56044,-17.98243z" fill="#FCC000"/>
    </g>
    <path stroke="null" id="svg_36" d="m472.79304,305.48191c0,0 4.12029,-6.36622 5.65893,-6.57844c1.5385,-0.21249 10.32742,6.34856 10.25677,7.28574c-0.07078,0.93718 -17.9164,2.1651 -15.9157,-0.7073z" fill="#FFA039"/>
    <path stroke="null" id="svg_37" d="m462.11278,297.75163c0,0 6.3252,-6.91402 7.31726,-7.03793c0.99193,-0.12445 5.10026,3.02293 5.02282,3.7824c-0.07771,0.75974 -4.67624,5.31764 -5.81856,5.95293c-1.14233,0.63583 -8.61433,0.15516 -6.52152,-2.69741z" fill="#FFA039"/>
    <path stroke="null" id="svg_38" d="m661.54498,281.85958c0.08274,-0.13097 2.79169,-4.63833 3.90794,-4.98179c1.11679,-0.34346 14.40844,10.09509 14.08632,11.46784c-0.32199,1.37302 -5.19632,2.33927 -6.82843,2.01701c-1.63184,-0.32227 -11.98032,-7.21373 -11.16582,-8.50306z" fill="#FFA039"/>
    <path stroke="null" id="svg_39" d="m660.96037,115.88661c0,0 -4.59784,-11.22567 -13.76215,-10.9085c-9.16458,0.3171 -3.42481,17.37744 13.76215,10.9085z" fill="#E22C14"/>
    <path stroke="null" id="svg_40" d="m666.19907,121.98138c0,0 10.8062,-7.64414 23.99256,-4.63181c13.18596,3.01233 16.24747,25.63031 7.9304,28.87626c-8.31748,3.24574 -12.26291,-2.5773 -15.3732,-8.86609c-3.1107,-6.28878 -8.42222,-14.70564 -16.54976,-15.37836z" fill="#CD2606"/>
    <path stroke="null" id="svg_41" d="m692.4161,142.54695c-5.28177,-2.59354 -5.3637,-6.57763 -12.35665,-15.15731c-2.43696,-2.98944 -5.08885,-6.6531 -6.44896,-8.97838c-4.5598,1.55331 -7.41141,3.57012 -7.41141,3.57012c8.12754,0.67272 13.43907,9.08958 16.54976,15.37836c3.11029,6.28878 7.05572,12.11163 15.37293,8.86609c1.86267,-0.72707 3.15417,-2.42602 3.88959,-4.6581c-2.90324,1.26189 -6.72368,2.38968 -9.59526,0.97923z" fill="#BC1A04"/>
    <path stroke="null" id="svg_42" d="m679.38666,120.11742c0,0 9.20968,-1.76363 14.50056,1.95961c5.29074,3.72296 6.69487,13.65115 5.09469,16.85165c-1.60032,3.20071 -8.72017,-0.84921 -11.36541,-5.29067c-2.6451,-4.44147 -10.76014,-13.20661 -8.22984,-13.52059z" fill="#E22C14"/>
    <path stroke="null" id="svg_43" d="m666.49892,101.42266c-0.01562,-0.22349 -0.29849,-6.38185 2.98571,-8.06117c3.28379,-1.67959 22.58639,-0.3063 28.17698,8.7432c2.38846,3.8663 -2.64985,7.51793 -4.29202,8.49342c-1.64203,0.97576 -7.53871,1.27412 -12.91274,1.49815c-5.3743,0.22397 -13.13718,1.00762 -13.95792,-10.6736z" fill="#E22C14"/>
    <g stroke="null" id="svg_44" display="inline">
     <path stroke="null" id="svg_45" d="m586.13352,-1.5385l-22.81043,23.01721l18.38064,3.27455l-1.61825,10.20616l-31.52177,-3.25098l0.57918,-13.97498l25.91773,-21.73942l-21.11134,-0.66416l1.89487,-14.14399l31.47992,4.5363l-1.19056,12.73931z"/>
     <path stroke="null" id="svg_46" d="m597.68601,32.55602c-0.10122,0.70349 -0.33164,1.33967 -0.69086,1.90805c-0.35949,0.56824 -0.80009,1.04763 -1.32139,1.43762c-0.5213,0.39006 -1.10469,0.67313 -1.75045,0.84941c-0.64548,0.17628 -1.31216,0.21487 -1.99948,0.11582c-0.70363,-0.10149 -1.34028,-0.32777 -1.90968,-0.67924c-0.56953,-0.35134 -1.04953,-0.78759 -1.43932,-1.30903c-0.3902,-0.5213 -0.67347,-1.10483 -0.84955,-1.75051c-0.17648,-0.64548 -0.21371,-1.32017 -0.11249,-2.02367c0.09904,-0.6876 0.32552,-1.32384 0.67917,-1.90954c0.35365,-0.5855 0.79113,-1.07345 1.31284,-1.46337c0.5209,-0.38999 1.10497,-0.67714 1.7518,-0.86143c0.64684,-0.18437 1.32194,-0.22574 2.02557,-0.12445c0.68746,0.09925 1.31555,0.32845 1.88414,0.6878c0.56845,0.35935 1.0475,0.79975 1.43742,1.32105c0.39019,0.52137 0.67619,1.11346 0.8581,1.77619c0.18165,0.6628 0.22322,1.3379 0.12418,2.0253z"/>
     <path stroke="null" id="svg_47" d="m615.88758,35.17904c-0.10149,0.70349 -0.33178,1.33933 -0.69113,1.90784c-0.35949,0.56845 -0.79955,1.04763 -1.32085,1.43769c-0.52144,0.38999 -1.1051,0.67326 -1.75045,0.84934c-0.64575,0.17635 -1.31243,0.215 -2.00003,0.11596c-0.70363,-0.10142 -1.34014,-0.3279 -1.90954,-0.67917c-0.56967,-0.35134 -1.04954,-0.78786 -1.43932,-1.30917c-0.3902,-0.5213 -0.67306,-1.10469 -0.84968,-1.75045c-0.17608,-0.64562 -0.21357,-1.32017 -0.11236,-2.02373c0.09931,-0.68753 0.32593,-1.32404 0.67917,-1.90961c0.35365,-0.5855 0.79153,-1.07331 1.31284,-1.46344c0.5213,-0.38992 1.10537,-0.677 1.75221,-0.8613c0.6467,-0.1843 1.32194,-0.2258 2.02543,-0.12445c0.68733,0.09904 1.31528,0.32838 1.88373,0.68773c0.56858,0.35936 1.0475,0.79975 1.43796,1.32106c0.38979,0.52144 0.67578,1.11346 0.8577,1.77619c0.18206,0.6628 0.22349,1.3379 0.12431,2.0255z"/>
     <path stroke="null" id="svg_48" d="m634.57324,37.87148c-0.10162,0.70363 -0.33191,1.3396 -0.69127,1.90805c-0.35949,0.56831 -0.79955,1.04743 -1.32126,1.43776c-0.5213,0.38972 -1.10469,0.67299 -1.75045,0.84927c-0.64534,0.17628 -1.31202,0.21493 -1.99962,0.11575c-0.70363,-0.10135 -1.34014,-0.32763 -1.90954,-0.67911c-0.56967,-0.35134 -1.04954,-0.78766 -1.43932,-1.30896c-0.3902,-0.52151 -0.67333,-1.10497 -0.84968,-1.75045c-0.17608,-0.64562 -0.21357,-1.32024 -0.11209,-2.02373c0.09904,-0.6876 0.32512,-1.32418 0.6789,-1.90981c0.35365,-0.58543 0.79153,-1.07311 1.31284,-1.46337c0.5213,-0.38986 1.10537,-0.67707 1.75221,-0.8613c0.64643,-0.18416 1.32153,-0.22574 2.02516,-0.12431c0.6876,0.09904 1.31555,0.32831 1.884,0.6876c0.56858,0.35936 1.04777,0.79989 1.43756,1.32119c0.3902,0.5213 0.67619,1.11319 0.8581,1.77619c0.18206,0.66253 0.22349,1.33777 0.12445,2.02523z"/>
    </g>
    <g stroke="null" id="svg_49" display="inline">
     <path stroke="null" id="svg_50" d="m503.11786,33.60229l-15.60838,22.16297l15.61734,0.14048l0.08682,8.64382l-26.45289,1.70969l-1.46921,-11.60751l18.34899,-21.54215l-17.50583,2.39341l-0.40745,-11.93039l26.59758,-0.64399l0.79303,10.67366z"/>
     <path stroke="null" id="svg_51" d="m517.39628,60.11502c0.01467,0.59433 -0.08709,1.15116 -0.30433,1.67002c-0.21697,0.51886 -0.51369,0.97549 -0.88922,1.36983c-0.37579,0.39448 -0.81775,0.7092 -1.32547,0.94458c-0.50799,0.23531 -1.05252,0.36003 -1.6332,0.3741c-0.5944,0.01433 -1.1513,-0.08369 -1.66974,-0.29407c-0.51886,-0.21045 -0.97535,-0.50364 -1.36976,-0.87923c-0.39441,-0.37573 -0.7092,-0.81769 -0.94451,-1.32554c-0.23545,-0.50785 -0.36017,-1.05918 -0.37457,-1.65351c-0.01386,-0.58088 0.08396,-1.13757 0.29401,-1.66988c0.21018,-0.53217 0.5031,-0.9956 0.87862,-1.3898c0.3762,-0.39434 0.81775,-0.7126 1.32547,-0.9547c0.50799,-0.24204 1.05918,-0.37029 1.65344,-0.38463c0.58095,-0.01399 1.13051,0.0875 1.64937,0.30474c0.5194,0.21724 0.97562,0.51376 1.3703,0.88949c0.394,0.37559 0.71273,0.82394 0.95511,1.34531c0.24251,0.5213 0.3705,1.07249 0.38449,1.65331z"/>
     <path stroke="null" id="svg_52" d="m532.77478,59.74276c0.01467,0.59453 -0.08682,1.15116 -0.30406,1.67002s-0.51397,0.97549 -0.88949,1.36983c-0.3758,0.39434 -0.81735,0.7092 -1.32561,0.94445c-0.50785,0.23538 -1.05239,0.36017 -1.63306,0.37416c-0.5944,0.01447 -1.15089,-0.08369 -1.66974,-0.29428c-0.51886,-0.21018 -0.97535,-0.50337 -1.36976,-0.8791c-0.39427,-0.37566 -0.7092,-0.81735 -0.94451,-1.3254c-0.23545,-0.50812 -0.36017,-1.05925 -0.37443,-1.65358c-0.01399,-0.58095 0.08423,-1.13757 0.29387,-1.66968c0.21018,-0.53231 0.50323,-0.99553 0.87903,-1.39007c0.37566,-0.3942 0.81735,-0.71253 1.32506,-0.95457c0.50799,-0.24211 1.05904,-0.37043 1.65344,-0.38476c0.58095,-0.01392 1.13092,0.08756 1.64977,0.30487c0.51899,0.21724 0.97549,0.51369 1.3699,0.88922c0.39441,0.37586 0.71273,0.82441 0.95511,1.34571c0.24238,0.52117 0.37063,1.07229 0.38449,1.65317z"/>
     <path stroke="null" id="svg_53" d="m548.56236,59.36045c0.0144,0.59453 -0.08682,1.1513 -0.30406,1.67015s-0.51397,0.97549 -0.88976,1.36969c-0.37566,0.39454 -0.81735,0.7092 -1.32547,0.94458c-0.50772,0.23525 -1.05225,0.36003 -1.6332,0.3743c-0.59426,0.01433 -1.15102,-0.08369 -1.66961,-0.29414c-0.51886,-0.21059 -0.97522,-0.50364 -1.3699,-0.87937c-0.394,-0.37566 -0.7092,-0.81748 -0.94451,-1.32554c-0.23518,-0.50785 -0.36003,-1.05911 -0.37457,-1.65358c-0.01386,-0.58081 0.0841,-1.13744 0.29428,-1.66961c0.21018,-0.53238 0.50323,-0.99567 0.87875,-1.39c0.37579,-0.39434 0.81735,-0.71253 1.32533,-0.95457c0.50772,-0.24211 1.05891,-0.37043 1.65317,-0.38476c0.58095,-0.01406 1.13105,0.0875 1.64991,0.30481c0.51886,0.21724 0.97535,0.51363 1.36976,0.88942c0.39427,0.37559 0.71287,0.82414 0.95525,1.34531c0.24238,0.5213 0.37077,1.07249 0.38463,1.65331z"/>
    </g>
    <g stroke="null" id="svg_54" display="inline">
     <path stroke="null" id="svg_55" d="m593.21533,68.25092l-16.28089,16.4279l13.11898,2.33717l-1.1551,7.28472l-22.49781,-2.32066l0.41356,-9.97425l18.49803,-15.51606l-15.06765,-0.47389l1.35196,-10.09503l22.46832,3.23766l-0.84941,9.09243z"/>
     <path stroke="null" id="svg_56" d="m601.46026,92.58504c-0.07228,0.50228 -0.23681,0.95606 -0.49318,1.36195c-0.25651,0.40555 -0.57076,0.74758 -0.94288,1.02589c-0.37199,0.27852 -0.78841,0.48048 -1.24925,0.60628c-0.46071,0.12588 -0.93663,0.15332 -1.42723,0.08281c-0.50215,-0.07248 -0.95674,-0.23395 -1.3631,-0.48482c-0.4065,-0.25073 -0.74887,-0.5622 -1.02752,-0.93426c-0.27825,-0.37213 -0.48014,-0.78861 -0.60594,-1.24939c-0.12594,-0.46084 -0.15244,-0.94234 -0.08016,-1.44442c0.07065,-0.49067 0.23219,-0.94499 0.48435,-1.3629c0.25298,-0.41805 0.56505,-0.76619 0.93691,-1.04444c0.37199,-0.27845 0.78936,-0.48347 1.25075,-0.61491c0.46166,-0.13151 0.94343,-0.161 1.44557,-0.08858c0.4906,0.07044 0.93894,0.23429 1.34463,0.49073c0.40555,0.25644 0.74751,0.57069 1.02617,0.94288c0.27825,0.37206 0.48245,0.79452 0.61233,1.2678c0.12988,0.47287 0.15937,0.9547 0.08858,1.44537z"/>
     <path stroke="null" id="svg_57" d="m614.45152,94.45715c-0.07282,0.50222 -0.23694,0.95606 -0.49359,1.36181c-0.25637,0.40562 -0.57089,0.74758 -0.94288,1.0261c-0.37213,0.27831 -0.78854,0.48034 -1.24939,0.60622c-0.46071,0.12574 -0.9365,0.15325 -1.42723,0.08267c-0.50215,-0.07248 -0.95633,-0.23382 -1.3627,-0.48482c-0.40691,-0.25073 -0.74928,-0.56213 -1.02753,-0.93419c-0.27825,-0.37219 -0.48054,-0.78868 -0.60635,-1.24932c-0.12581,-0.46098 -0.15244,-0.94248 -0.08016,-1.44449c0.07106,-0.4906 0.2326,-0.94506 0.48489,-1.36283c0.25243,-0.41805 0.56464,-0.76626 0.93663,-1.04451c0.37213,-0.27838 0.78909,-0.4834 1.25075,-0.61491c0.46139,-0.13145 0.94356,-0.16106 1.4453,-0.08858c0.49101,0.07051 0.93894,0.23423 1.34463,0.49067c0.40582,0.25644 0.74792,0.57076 1.02617,0.94288c0.27852,0.3722 0.48258,0.79466 0.61233,1.26759c0.13029,0.47314 0.15964,0.95504 0.08912,1.44571z"/>
     <path stroke="null" id="svg_58" d="m627.78747,96.37892c-0.07241,0.50228 -0.23681,0.95606 -0.49304,1.36168c-0.25664,0.40582 -0.57103,0.74785 -0.94315,1.0261c-0.37213,0.27831 -0.78841,0.48054 -1.24925,0.60628c-0.46071,0.12588 -0.93636,0.15339 -1.42723,0.0826c-0.50215,-0.07221 -0.9562,-0.23382 -1.3631,-0.48455c-0.40623,-0.2508 -0.74887,-0.5624 -1.02712,-0.93446c-0.27865,-0.37219 -0.48055,-0.78868 -0.60635,-1.24932c-0.12595,-0.46078 -0.15244,-0.9422 -0.08002,-1.44428c0.07078,-0.4908 0.23219,-0.94499 0.48476,-1.36304c0.25243,-0.41791 0.56451,-0.76606 0.93663,-1.04451c0.37226,-0.27825 0.78895,-0.48326 1.25034,-0.61471c0.46193,-0.13165 0.94397,-0.16113 1.44571,-0.08879c0.49087,0.07065 0.93894,0.23423 1.34476,0.4908c0.40568,0.25644 0.74792,0.57062 1.02617,0.94281c0.27838,0.37213 0.48258,0.79472 0.61233,1.26773c0.13002,0.47314 0.15937,0.95491 0.08858,1.44564z"/>
    </g>
   </g>
   <g stroke="null" id="svg_59">
    <g stroke="null" id="svg_60">
     <polygon stroke="null" id="svg_61" points="284.9326171875,232.860595703125 351.29296875,310.74346923828125 347.054443359375,314.138427734375 284.5537109375,233.263427734375 "/>
     <polygon stroke="null" id="svg_62" points="131.52953338623047,113.67822265625 77.732421875,26.642349243164062 82.4365234375,23.9287109375 131.96533203125,113.337646484375 "/>
     <polygon stroke="null" id="svg_63" points="154.62477111816406,134.96902465820312 108.634765625,43.56666564941406 113.5576171875,41.27418518066406 155.08837890625,134.667724609375 "/>
     <polygon stroke="null" id="svg_64" points="174.46337890625,130.50686645507812 142.16261291503906,33.41871643066406 147.365234375,31.861572265625 174.965576171875,130.27566528320312 "/>
     <polygon stroke="null" id="svg_65" points="186.07716369628906,122.767822265625 163.115234375,23.057388305664062 168.44189453125,22 186.5986328125,122.585693359375 "/>
     <polygon stroke="null" id="svg_66" points="192.386474609375,138.02444458007812 192.392333984375,35.70460510253906 197.8203125,35.86940002441406 192.93580627441406,137.96414184570312 "/>
     <polygon stroke="null" id="svg_67" points="208.04931640625,129.12380981445312 219.259765625,27.419692993164062 224.63671875,28.177749633789062 208.60206604003906,129.12380981445312 "/>
     <polygon stroke="null" id="svg_68" points="218.39111328125,122.23709106445312 246.75978088378906,23.9287109375 251.92970275878906,25.591812133789062 218.93580627441406,122.331298828125 "/>
     <polygon stroke="null" id="svg_69" points="231.7783203125,117.534423828125 281.4443359375,28.077407836914062 286.1103515625,30.855712890625 232.2880859375,117.748291015625 "/>
     <polygon stroke="null" id="svg_70" points="237.95654296875,124.05422973632812 301.52392578125,43.87574768066406 305.675048828125,47.37721252441406 238.42433166503906,124.347900390625 "/>
     <polygon stroke="null" id="svg_71" points="256.46925354003906,123.384033203125 333.77685546875,56.35499572753906 337.20849609375,60.56398010253906 256.87452697753906,123.75927734375 "/>
     <polygon stroke="null" id="svg_72" points="260.38697814941406,133.73318481445312 343.66064453125,74.27784729003906 346.68017578125,78.79150390625 260.75538635253906,134.144775390625 "/>
     <polygon stroke="null" id="svg_73" points="273.234619140625,139.58740234375 367.332763671875,99.40066528320312 369.31298828125,104.45681762695312 273.50634765625,140.06884765625 "/>
     <polygon stroke="null" id="svg_74" points="295.4609375,146.5361328125 396.17333984375,128.465576171875 396.9697265625,133.83743286132812 295.6181640625,147.06640625 "/>
     <polygon stroke="null" id="svg_75" points="291.0068359375,168.65872192382812 393.3251953125,169.275146484375 393.1279296875,174.70236206054688 291.064453125,169.20828247070312 "/>
     <polygon stroke="null" id="svg_76" points="288.310546875,183.624755859375 387.701416015625,207.93093872070312 386.25244140625,213.164306640625 288.2392578125,184.17288208007812 "/>
     <polygon stroke="null" id="svg_77" points="292.8740234375,205.144287109375 388.93408203125,240.384521484375 386.90966796875,245.42410278320312 292.74169921875,205.68112182617188 "/>
     <polygon stroke="null" id="svg_78" points="292.78466796875,232.497314453125 381.181640625,284.02789306640625 378.305419921875,288.634033203125 292.560546875,233.002197265625 "/>
     <polygon stroke="null" id="svg_79" points="271.54931640625,228.886962890625 307.370361328125,324.731689453125 302.22802734375,326.47802734375 271.0556640625,229.135986328125 "/>
     <polygon stroke="null" id="svg_80" points="121.18263244628906,242.049072265625 25.1513671875,277.367431640625 23.432132720947266,272.216064453125 120.93605041503906,241.55471801757812 "/>
     <polygon stroke="null" id="svg_81" points="111.55223846435547,225.795654296875 12.040283203125,249.60226440429688 10.937747955322266,244.284912109375 111.36572265625,225.275146484375 "/>
     <polygon stroke="null" id="svg_82" points="111.65869140625,204.14212036132812 11.168212890625,223.40771484375 10.30810546875,218.045654296875 111.49560546875,203.6142578125 "/>
     <polygon stroke="null" id="svg_83" points="109.1738510131836,196.95654296875 7,191.48562622070312 7.455078125,186.07424926757812 109.142578125,196.405029296875 "/>
     <polygon stroke="null" id="svg_84" points="110.64453125,185.891845703125 11.440921783447266,160.83059692382812 12.93017578125,155.60842895507812 110.72020721435547,185.34451293945312 "/>
     <polygon stroke="null" id="svg_85" points="111.65234375,173.563720703125 17.78515625,132.84060668945312 20.0966796875,127.92654418945312 111.815185546875,173.035888671875 "/>
     <polygon stroke="null" id="svg_86" points="112.33058166503906,160.93142700195312 31.470703125,98.23416137695312 34.92724609375,94.04519653320312 112.61962890625,160.460205078125 "/>
     <polygon stroke="null" id="svg_87" points="105.53565216064453,137.435546875 34.7802734375,63.52272033691406 38.81494140625,59.88795471191406 105.890625,137.01199340820312 "/>
     <polygon stroke="null" id="svg_88" points="112.21681213378906,118.706298828125 50.782711029052734,36.88233947753906 55.222408294677734,33.75489807128906 112.61962890625,118.328125 "/>
     <polygon stroke="null" id="svg_89" points="158.07325744628906,127.016845703125 121.30029296875,31.532974243164062 126.4248046875,29.73583984375 158.56373596191406,126.7626953125 "/>
    </g>
    <path stroke="null" id="svg_90" d="m233.66969,36.69152c0,0 17.91341,28.48192 61.00832,9.16356c0,0 3.59097,28.97748 28.48172,40.12279c0,0 -29.10138,18.20361 -20.30893,43.58971c0,0 -29.01823,-5.0235 -38.16148,12.38356c0,0 -42.79859,-35.374 -61.84862,-32.00054c0,0 8.07945,-20.95217 -5.51994,-36.02247c0,0 27.59956,-8.50694 36.34894,-37.2366z" fill="#DD0000"/>
    <path stroke="null" id="svg_91" d="m247.19639,57.30614c0,0 17.5652,5.31798 36.58154,-0.8058c0,0 7.41304,21.03036 23.04452,28.6851c0,0 -15.55118,18.53227 -13.37576,34.64734c0,0 -13.80657,1.2087 -19.35219,4.19012c0,0 -32.94125,-24.13202 -49.94262,-29.99413c0,0 0.161,-9.38916 -1.77273,-17.57688c0,0 16.11528,-6.3343 24.81724,-19.14575z" fill="#FF2C2C"/>
    <path stroke="null" id="svg_92" d="m213.44228,76.45189c15.01656,-5.69038 23.93156,-20.44588 28.67899,-31.40859c-5.76463,-4.10283 -8.45157,-8.35198 -8.45157,-8.35198c-8.74938,28.72966 -36.34894,37.2368 -36.34894,37.2368c13.59939,15.07009 5.51994,36.02226 5.51994,36.02226c19.05004,-3.37318 61.84862,32.00075 61.84862,32.00075c1.99024,-3.78906 4.92283,-6.51357 8.29193,-8.46013c-17.63748,-17.79739 -58.79621,-35.38657 -58.79621,-35.38657c2.35313,-5.45785 -0.74276,-21.65254 -0.74276,-21.65254z" fill="#C40000"/>
    <g stroke="null" id="svg_93">
     <path stroke="null" id="svg_94" d="m69.27333,242.5699c0,0 -5.01698,-24.39539 -15.9877,-23.81635c-10.97086,0.57877 -20.17755,19.43344 15.9877,23.81635z" fill="#CD2606"/>
     <path stroke="null" id="svg_95" d="m68.73043,240.29312c-3.13447,-2.77322 -15.80334,-5.38639 -20.46178,-9.24541c-2.12787,-1.76295 -3.39845,-4.01663 -4.15738,-5.94886c-2.46386,6.06923 2.19105,14.68723 25.16206,17.47105c0,0 -0.1792,-0.87088 -0.5429,-2.27678z" fill="#BC1A04"/>
     <path stroke="null" id="svg_96" d="m69.27333,242.5699c0,0 11.70819,-21.97949 0.8096,-27.899c-10.89831,-5.91951 -22.4758,9.8807 -0.8096,27.899z" fill="#CD2606"/>
     <path stroke="null" id="svg_97" d="m70.13755,233.36198c0,0 5.5247,-13.53322 -0.3349,-16.84662c-5.85919,-3.31368 -11.48306,6.48904 0.3349,16.84662z" fill="#E22C14"/>
     <path stroke="null" id="svg_98" d="m61.81097,214.23885c-6.44271,3.18026 -8.37888,15.15677 7.46236,28.33104c0,0 0.92576,-1.75996 2.01008,-4.37584c-11.15944,-9.89157 -12.41888,-18.96634 -9.47244,-23.9552z" fill="#BC1A04"/>
     <path stroke="null" id="svg_99" d="m69.27333,242.5699c0,0 -17.36969,-10.47143 -23.86132,-6.00619c-6.49231,4.46551 -0.08369,25.74586 23.86132,6.00619z" fill="#CD2606"/>
     <path stroke="null" id="svg_100" d="m44.82998,237.04221c-5.4819,5.30569 1.26325,24.63696 24.44335,5.52768c0,0 -0.57266,-0.34346 -1.52098,-0.86734c-17.23886,12.41942 -24.17475,2.03494 -22.92238,-4.66034z" fill="#BC1A04"/>
     <path stroke="null" id="svg_101" d="m62.89325,241.36752c0,0 -10.12118,-6.10782 -14.72324,-3.83484c-4.60246,2.27324 3.11477,14.15737 14.72324,3.83484z" fill="#E22C14"/>
     <path stroke="null" id="svg_102" d="m59.12294,233.14107c0,0 -3.20105,-5.98146 -4.00087,-9.88234c-0.80036,-3.90114 -6.86267,-0.67686 -8.3028,1.35183c-1.43987,2.02896 4.34174,7.4716 8.54274,8.75142c4.20126,1.27928 4.36104,0.94968 3.76093,-0.22091z" fill="#E22C14"/>
    </g>
    <path stroke="null" id="svg_103" d="m188.30983,98.10457c0,0 -4.34256,-39.69013 -28.99052,-45.01185c-24.64755,-5.32165 -40.47263,17.6457 -34.73056,37.25161c0,0 -14.84497,-5.88181 -29.96968,3.92139c-15.12498,9.80299 -12.18397,35.85121 0,45.37413c0,0 -16.24503,2.66099 -15.40499,18.76602c0.84031,16.10502 27.44876,30.82595 27.44876,30.82595l77.90426,-41.42278l19.03618,-23.29389l-15.29345,-26.41057z" fill="#CD2606"/>
    <g stroke="null" id="svg_104">
     <g stroke="null" id="svg_105">
      <path stroke="null" id="svg_106" d="m159.31931,53.09272c-24.64755,-5.32165 -40.47263,17.6457 -34.73056,37.25161c0,0 2.29512,-22.43864 20.92099,-29.74707c11.29612,-4.43209 24.63736,2.36998 33.38756,8.35592c-4.36022,-7.4536 -10.62387,-13.92736 -19.578,-15.86047z" fill="#BC1A04"/>
      <path stroke="null" id="svg_107" d="m79.21409,158.40586c0.84071,16.10502 27.44876,30.82595 27.44876,30.82595l0.66654,-0.35446c0.88093,-4.60002 -1.14477,-9.69226 -8.98035,-14.75394c-24.78246,-16.00937 -3.72996,-34.48356 -3.72996,-34.48356s-16.24503,2.66079 -15.40499,18.76602z" fill="#BC1A04"/>
      <path stroke="null" id="svg_108" d="m94.61908,94.26552c-15.12498,9.8032 -12.18397,35.85142 0,45.37433c0,0 -12.07922,-18.79414 -2.24512,-33.48287c9.83397,-14.68866 32.2148,-15.81265 32.2148,-15.81265s-14.84524,-5.88181 -29.96968,3.92118z" fill="#BC1A04"/>
     </g>
    </g>
    <path stroke="null" id="svg_109" d="m181.34377,117.28979c0,0 -28.16801,-11.57735 -54.0318,4.96195c-25.86392,16.53896 -32.81015,55.03344 -34.6292,78.20893c-1.81974,23.17576 -11.90845,37.89533 -24.47827,40.87234c0,0 3.66896,62.8487 90.98044,78.72636c87.31121,15.87711 146.6866,-32.90552 154.45995,-86.82673c7.77348,-53.92121 -52.3664,-116.6043 -125.33506,-135.12807c0,0 0.32294,8.60027 -6.96606,19.18522z" fill="#FECE00"/>
    <path stroke="null" id="svg_110" d="m304.43725,207.33706c-1.16407,-29.15084 -77.62846,-88.4102 -94.5604,-90.65838c-16.93154,-2.24838 -16.63767,6.74487 -35.81514,12.84739c-19.17679,6.10272 -41.8822,26.78786 -46.74973,48.0019c-4.86753,21.21418 -8.72139,49.31806 -12.25462,59.91748c-3.53323,10.59914 3.68336,26.13742 12.25462,31.6632c0,0 34.19064,27.91694 90.86305,16.51458c56.67337,-11.40209 87.42561,-49.13506 86.26222,-78.28617zm-48.05754,29.14459c-10.59914,4.17531 -35.00907,-11.88386 -40.24112,-11.2415c-5.23191,0.64236 -7.77634,16.22003 -19.90895,24.41061c-12.13303,8.19004 -37.04497,-2.56969 -37.04497,-2.56969c-10.79519,-5.4603 -18.59272,-18.30796 -15.22036,-26.5018c3.37223,-8.19411 27.30094,-14.61033 32.57211,-22.29483c4.81645,-7.02149 -8.96486,-31.33998 4.80734,-36.96073s31.83656,14.45341 36.83126,18.48037c4.99565,4.02695 19.25464,-2.58165 32.1023,0.78678c12.84752,3.3687 16.70193,51.71549 6.10238,55.8908z" fill="#FFDA3E"/>
    <path stroke="null" id="svg_111" d="m238.97293,190.13257c0,0 -12.22324,3.48948 -14.78369,10.85103c-2.56073,7.36168 6.1877,17.24334 6.1877,17.24334s-13.28283,-7.95989 -14.18943,-15.24236c-0.90701,-7.28221 11.0032,-11.86062 22.78543,-12.85201z" fill="#FCC000"/>
    <path stroke="null" id="svg_112" d="m127.31197,147.80903c14.50409,-25.25927 54.0318,-30.51924 54.0318,-30.51924s-28.16801,-11.57735 -54.0318,4.96175c-25.86392,16.53917 -32.81015,55.03365 -34.6292,78.20913c-1.81974,23.17576 -11.90845,37.8956 -24.47827,40.87234c0,0 3.66896,62.84843 90.98017,78.72636c71.46929,12.99657 124.19899,-17.33899 145.25258,-58.34624c-19.34418,14.95624 -49.67824,32.3781 -89.95373,37.08029c-74.21452,8.66474 -127.71102,-34.50136 -114.19614,-60.13961c13.51434,-25.63799 12.52091,-65.58578 27.0246,-90.84478z" fill="#FCC000"/>
    <g stroke="null" id="svg_113">
     <path stroke="null" id="svg_114" d="m184.7713,186.23496c0,0 1.95207,-5.11738 9.43983,-6.157c7.4879,-1.03962 11.63455,0.8524 13.51923,6.157c1.88495,5.30487 1.25292,13.8688 -7.22582,14.21851c-8.47834,0.34957 -17.40746,-11.77272 -15.73324,-14.21851z" fill="#660000"/>
     <path stroke="null" id="svg_115" d="m198.1154,194.1333c-6.29286,-0.99139 -10.71761,-6.47736 -12.57213,-9.22272c-0.25855,0.36982 -0.44726,0.67578 -0.56573,0.9043c-0.03695,0.84669 0.32077,2.77213 0.76735,4.46701c2.52106,4.39799 8.74381,10.41967 14.75965,10.17131c7.79359,-0.32118 8.95046,-7.57757 7.62363,-12.86885c-2.05084,3.5297 -5.36519,7.28085 -10.01276,6.54896z" fill="#540000"/>
     <g stroke="null" id="svg_116">
      <path stroke="null" id="svg_117" d="m185.09778,187.44876c0,0 11.17642,13.1899 17.4936,10.06602c6.31718,-3.12401 0.76368,-16.92366 0.76368,-16.92366l7.47934,4.81536c0,0 4.04475,18.28649 -6.4381,21.54922c-10.48257,3.26273 -20.9646,-15.48053 -20.9646,-15.48053l1.66608,-4.02641z" fill="#FF8B00"/>
      <path stroke="null" id="svg_118" d="m205.05279,204.24769c-9.54417,2.97062 -19.06022,-12.25775 -20.69261,-15.01588l-0.92848,2.24335c0,0 10.48203,18.74326 20.96447,15.48053c4.2711,-1.32914 6.11013,-5.15692 6.81389,-9.22109c-0.99981,2.96668 -2.8565,5.48557 -6.15727,6.51309z" fill="#FF7300"/>
      <path stroke="null" id="svg_119" d="m190.26489,194.55964c0,0 6.95423,7.1617 12.77117,5.06725c5.81721,-2.09404 3.30933,-12.38057 4.55043,-12.67946c1.24083,-0.29862 3.2058,6.37492 1.80968,11.33701c-1.39626,4.96209 -8.22957,6.46146 -13.65482,2.22175c-5.42484,-4.24012 -10.25976,-10.41899 -5.47646,-5.94655z" fill="#FFA039"/>
     </g>
     <path stroke="null" id="svg_120" d="m184.20367,191.24814c0,0 4.72501,-8.25512 10.22281,-9.1317c5.49793,-0.87631 13.95956,3.76256 16.40793,3.29004c2.44878,-0.47239 -11.76864,-17.91138 -22.16372,-14.86195c-10.39467,3.04983 -7.60162,25.03748 -4.46701,20.70361z" fill="#FF8B00"/>
     <path stroke="null" id="svg_121" d="m192.45009,180.99938c-7.73354,2.79197 -8.24642,10.24862 -9.1495,2.83544c-0.50731,-4.16295 1.24966,-8.79055 2.96492,-12.0939c-7.49741,5.47089 -4.92486,23.46582 -2.06184,19.50707c0,0 4.72501,-8.25498 10.22281,-9.13156c5.4982,-0.87631 13.9601,3.76256 16.40793,3.29004c0.46207,-0.0894 0.32783,-0.78501 -0.25977,-1.83115c-5.54725,-2.03222 -13.45551,-4.26172 -18.12454,-2.57595z" fill="#FF7300"/>
     <path stroke="null" id="svg_122" d="m184.43491,181.60492c0,0 0.0644,-6.86769 4.64974,-9.34187c4.58534,-2.47405 18.25701,7.9175 17.95838,8.73634c-0.29862,0.81871 -6.65425,-3.61746 -15.07621,-1.68496c-4.25534,0.97685 -7.53192,6.5135 -7.53192,2.2905z" fill="#FFA039"/>
     <path stroke="null" id="svg_123" d="m191.0446,186.12627c0,0 1.93848,-1.53511 4.12464,-1.89174c2.18629,-0.35664 7.27229,-0.01549 8.18691,1.73659c0.91517,1.75235 -0.7573,6.00076 -4.26281,6.35753c-3.50524,0.3565 -10.62265,-4.24868 -8.04874,-6.20237z" fill="#770101"/>
    </g>
    <path stroke="null" id="svg_124" d="m238.97293,190.13257c0,0 -19.82676,3.15377 -19.82676,13.54789c0,10.39426 29.27991,23.14166 29.27991,23.14166s-26.82488,-6.99798 -32.28776,-18.34491c-9.18156,-19.07001 22.83461,-18.34464 22.83461,-18.34464z" fill="#F99300"/>
    <g stroke="null" id="svg_125">
     <path stroke="null" id="svg_126" d="m149.68982,190.13257c0,7.33384 -5.94505,13.27902 -13.27848,13.27902c-7.33451,0 -13.27929,-5.94519 -13.27929,-13.27902c0,-7.33411 5.94478,-13.27916 13.27929,-13.27916c7.33343,0 13.27848,5.94505 13.27848,13.27916z" fill="#FFFFFF"/>
     <path stroke="null" id="svg_127" d="m145.50975,190.13257c0,5.02499 -4.07369,9.09868 -9.09841,9.09868c-5.02581,0 -9.09936,-4.07369 -9.09936,-9.09868c0,-5.02527 4.07355,-9.09882 9.09936,-9.09882c5.02472,0 9.09841,4.07355 9.09841,9.09882z"/>
    </g>
    <g stroke="null" id="svg_128">
     <path stroke="null" id="svg_129" d="m244.73362,156.90791c0,7.3337 -5.94492,13.27889 -13.27943,13.27889c-7.33343,0 -13.27875,-5.94519 -13.27875,-13.27889c0,-7.33411 5.94532,-13.27929 13.27875,-13.27929c7.33451,0 13.27943,5.94519 13.27943,13.27929z" fill="#FFFFFF"/>
     <path stroke="null" id="svg_130" d="m240.55341,156.90791c0,5.02486 -4.07369,9.09855 -9.09923,9.09855c-5.02472,0 -9.09841,-4.07369 -9.09841,-9.09855c0,-5.02527 4.07369,-9.09889 9.09841,-9.09889c5.02554,0 9.09923,4.07362 9.09923,9.09889z"/>
    </g>
    <ellipse stroke="null" id="svg_131" ry="53.00671" rx="59.03116" cy="-11952.82539" cx="-3518.81741" fill="#FF9999" transform="matrix(0.13826450606390833,-0.015429464718669654,0.015429464718669654,0.13826450606390833,788.1611625401075,1809.1560641353935) "/>
    <path stroke="null" id="svg_132" d="m270.87307,161.88984c0.45174,4.04788 -2.83626,7.7368 -7.34416,8.24003c-4.50722,0.50296 -8.52793,-2.37052 -8.9798,-6.4184c-0.45188,-4.04774 2.83653,-7.73687 7.34402,-8.24003c4.50818,-0.50283 8.5282,2.37059 8.97994,6.41839z" fill="#FF9999"/>
    <g stroke="null" id="svg_133">
     <path stroke="null" id="svg_134" d="m142.11102,279.50128c0,0 4.08102,-11.24775 14.74334,-10.34046c10.66259,0.90756 19.09161,20.44996 13.26897,27.20339c-5.82237,6.75343 -33.3127,-1.11869 -28.01231,-16.86293z" fill="#FF8B00"/>
     <path stroke="null" id="svg_135" d="m150.07295,278.0894c0,0 1.7086,-5.27607 9.12803,-4.01717c7.4197,1.25944 12.0386,15.37334 8.70156,18.87586c-2.96492,3.11206 -22.46425,-4.13428 -17.82959,-14.85869z" fill="#FFA039"/>
     <path stroke="null" id="svg_136" d="m146.5533,277.87773c0,0 2.04622,-5.6361 7.02366,-8.60686c-8.23147,1.31705 -11.46594,10.23041 -11.46594,10.23041c-5.11004,15.17878 20.25703,23.04003 27.3027,17.53354c-9.76753,1.25591 -27.17404,-6.34286 -22.86042,-19.15709z" fill="#FF7300"/>
    </g>
    <g stroke="null" id="svg_137">
     <path stroke="null" id="svg_138" d="m278.28897,230.05673c0,0 9.6693,-7.04771 18.00512,-0.33748s4.40682,27.62728 -4.19569,29.9747c-8.60184,2.34743 -27.00218,-19.54158 -13.80943,-29.63722z" fill="#FF8B00"/>
     <path stroke="null" id="svg_139" d="m285.68109,233.33454c0,0 4.36525,-3.42073 9.81481,1.7692c5.44943,5.18966 1.39435,19.47637 -3.32998,20.51626c-4.19855,0.92413 -16.32097,-15.98091 -6.48483,-22.28545z" fill="#FFA039"/>
     <path stroke="null" id="svg_140" d="m282.88042,231.19281c0,0 4.84634,-3.53133 10.63433,-3.21368c-7.56303,-3.50714 -15.22579,2.0776 -15.22579,2.0776c-12.71886,9.73316 3.92641,30.42658 12.84657,29.797c-8.80264,-4.41633 -18.99257,-20.44425 -8.25512,-28.66092z" fill="#FF7300"/>
    </g>
    <path stroke="null" id="svg_141" d="m156.48686,217.84626c0,0 5.54263,5.88663 17.87469,0.38068c12.3322,-5.50595 19.71739,-6.4135 22.22473,-3.05418c0,0 -3.71515,-10.24047 -10.26533,-8.50972c-6.55045,1.73102 -19.6553,11.33293 -29.83409,11.18321z" fill="#FCC000"/>
    <path stroke="null" id="svg_142" d="m156.48686,217.84626c0,0 9.35886,0.63719 16.36608,-3.13597s12.89168,-7.93815 17.64291,-5.2921c4.75055,2.64605 7.45557,18.08134 5.2455,23.81445c0,0 4.01391,-6.81104 3.35199,-14.70028c-0.66178,-7.88897 -7.87823,-16.12139 -14.65843,-13.62235c-6.77952,2.49932 -11.48401,8.57534 -27.94805,12.93624z" fill="#F99300"/>
    <path stroke="null" id="svg_143" d="m156.48686,224.21982c0.39563,-0.00652 15.03748,0.20298 26.94484,-5.37633c11.90695,-5.57904 14.67487,15.22443 2.88924,24.25708c-11.78576,9.03238 -40.24873,-18.70603 -29.83409,-18.88075z" fill="#FFDA3E"/>
    <path stroke="null" id="svg_144" d="m243.89712,192.34808c0,0 -10.32266,0.67075 -14.98287,8.77207s15.6365,22.77931 22.12595,21.16799c6.49013,-1.6116 -0.82726,-30.13149 -7.14308,-29.94006z" fill="#FFDA3E"/>
    <path stroke="null" id="svg_145" d="m178.56268,100.20242c0,0 3.01858,-26.56545 -15.01738,-33.08527c-18.03555,-6.51988 -34.83123,16.92101 -34.46685,24.36618c0.36452,7.44551 -14.99482,2.81167 -28.73958,12.49564c-13.74517,9.68411 -3.59247,31.44724 -1.77015,34.46705c1.82218,3.01967 -9.05942,9.26749 -9.47597,15.61931c-0.41642,6.35203 3.74871,9.63201 5.51858,9.89232c1.77069,0.26031 3.28053,-24.83484 25.82425,-42.58895c22.54441,-17.75418 52.32524,-11.45426 54.56411,-12.07909s3.56298,-9.0872 3.56298,-9.0872z" fill="#E22C14"/>
    <g stroke="null" id="svg_146">
     <path stroke="null" id="svg_147" d="m248.0098,67.21844l-7.90676,27.62028l-9.87106,-2.01157l4.70558,-28.27269l13.07224,2.66398zm-9.15452,35.92438c-0.1595,0.78257 -0.45908,1.48096 -0.89914,2.09527c-0.43979,0.6143 -0.96516,1.12324 -1.57546,1.52668c-0.61016,0.40365 -1.28281,0.68332 -2.01877,0.83908c-0.73556,0.15577 -1.48579,0.15577 -2.25056,-0.00013c-0.78243,-0.1595 -1.48198,-0.45473 -2.09798,-0.88616c-0.61613,-0.43102 -1.12602,-0.95165 -1.52981,-1.5618c-0.4031,-0.61036 -0.68311,-1.28335 -0.83881,-2.01905c-0.15556,-0.73556 -0.1538,-1.49469 0.00557,-2.27718c0.15556,-0.76483 0.4512,-1.46412 0.88623,-2.09798c0.43462,-0.63393 0.95715,-1.15259 1.56744,-1.55623c0.61029,-0.40358 1.28376,-0.6878 2.02163,-0.8524c0.73719,-0.16467 1.49706,-0.16711 2.28004,-0.00761c0.76436,0.1557 1.45413,0.45378 2.06877,0.89384c0.61369,0.44019 1.12276,0.9653 1.52627,1.57539c0.40378,0.61022 0.68583,1.2928 0.84669,2.04819c0.1614,0.75526 0.16385,1.51527 0.00788,2.28011z" fill="#FFDD4D"/>
     <path stroke="null" id="svg_148" d="m234.29982,106.8835c-0.78284,-0.1595 -1.48171,-0.45473 -2.09812,-0.88589c-0.61586,-0.43129 -1.12589,-0.95219 -1.52926,-1.56228c-0.40378,-0.61016 -0.68325,-1.28295 -0.83908,-2.01857c-0.15556,-0.73583 -0.1538,-1.49496 0.00557,-2.27745c0.15597,-0.76484 0.4516,-1.46412 0.88609,-2.09798c0.43476,-0.63393 0.95756,-1.15259 1.56703,-1.5561c0.11997,-0.07914 0.24265,-0.15237 0.36737,-0.2222c-0.17947,0.02092 -0.35732,0.05034 -0.5338,0.08987c-0.73787,0.1646 -1.41133,0.44882 -2.02163,0.8524c-0.61029,0.40365 -1.13282,0.9223 -1.56798,1.55623c-0.43449,0.63386 -0.73012,1.33315 -0.88568,2.09771c-0.15937,0.78277 -0.16113,1.5419 -0.00557,2.27746c0.1557,0.73569 0.43571,1.40869 0.83881,2.01884c0.40378,0.61009 0.91367,1.13098 1.52981,1.56201c0.616,0.43143 1.31555,0.72666 2.09798,0.88616c0.76463,0.1557 1.515,0.1559 2.25056,0.00013c0.60758,-0.12846 1.17113,-0.34292 1.69271,-0.64032c-0.57619,0.06691 -1.16108,0.04096 -1.75479,-0.08002z" fill="#FFBF3E"/>
     <ellipse stroke="null" id="svg_149" ry="20.11287" rx="30.10836" cy="2134.00199" cx="-13638.05719" fill="#FFEA83" transform="matrix(0.06339972776411475,0.123837059071064,-0.123837059071064,0.06339972776411475,1363.889127384369,1654.914239576905) "/>
     <path stroke="null" id="svg_150" d="m240.10303,94.83872l0.5016,-1.75126c-2.70882,-0.78039 -6.51065,-2.06442 -6.88549,-3.21171c-0.45283,-1.38647 2.36522,-17.49326 3.68349,-24.81901l-2.46508,-0.50228l-4.70558,28.27269l9.87106,2.01157z" fill="#FFBF3E"/>
     <path stroke="null" id="svg_151" d="m239.85264,67.23576c0,0 5.06535,0.81307 5.30664,1.80167c0.24129,0.98867 -4.94157,20.99606 -5.52429,21.46818c-0.58271,0.47165 -3.61964,-0.62062 -3.92342,-1.35339c-0.57633,-1.39109 2.06212,-21.70261 4.14108,-21.91645z" fill="#FFEA83"/>
     <path stroke="null" id="svg_152" d="m274.0945,66.91703l-13.51203,32.34516l-11.67585,-3.84232l9.72568,-33.59142l15.46219,5.08858zm-16.20563,42.23048c-0.30474,0.92549 -0.76776,1.72918 -1.38824,2.41087c-0.62062,0.68169 -1.32941,1.22384 -2.12624,1.62607c-0.7971,0.40208 -1.65236,0.64541 -2.56589,0.72944c-0.91367,0.08403 -1.82273,-0.02282 -2.72757,-0.32057c-0.92536,-0.3046 -1.73088,-0.76205 -2.41603,-1.37214c-0.68515,-0.61036 -1.22874,-1.31365 -1.63116,-2.11075c-0.40229,-0.79669 -0.64535,-1.65195 -0.72972,-2.56562c-0.08369,-0.91374 0.02649,-1.83339 0.3311,-2.75888c0.29781,-0.90477 0.75526,-1.7101 1.37221,-2.41624c0.61709,-0.70621 1.32425,-1.2606 2.12081,-1.66281c0.7971,-0.40222 1.65412,-0.65051 2.57105,-0.74514c0.91721,-0.0947 1.83862,0.01046 2.76439,0.31513c0.90457,0.29767 1.6976,0.75682 2.37962,1.37757c0.68135,0.62062 1.22344,1.32934 1.62559,2.12638c0.40229,0.79683 0.64711,1.66438 0.73488,2.60264c0.0879,0.93813 -0.01712,1.85941 -0.31479,2.76405z" fill="#FFDD4D"/>
     <path stroke="null" id="svg_153" d="m251.83567,113.03207c-0.92536,-0.3046 -1.73088,-0.76185 -2.41603,-1.37207c-0.68529,-0.61036 -1.22914,-1.31385 -1.6313,-2.11075c-0.40229,-0.79676 -0.64534,-1.65195 -0.72944,-2.56569c-0.08396,-0.91361 0.02622,-1.83319 0.33069,-2.75895c0.29767,-0.90457 0.7558,-1.71003 1.37234,-2.41597c0.61749,-0.70642 1.32425,-1.26066 2.12081,-1.66302c0.15624,-0.0788 0.31547,-0.14992 0.47633,-0.21677c-0.2205,-0.00048 -0.44019,0.01019 -0.65948,0.03288c-0.91734,0.09463 -1.77436,0.34305 -2.57146,0.74514c-0.79656,0.40222 -1.50372,0.9564 -2.12081,1.66281c-0.61695,0.70628 -1.0744,1.51147 -1.37221,2.41597c-0.3046,0.92576 -0.41479,1.84541 -0.3311,2.75915c0.08437,0.91354 0.32743,1.76892 0.72972,2.56562c0.40242,0.7969 0.94601,1.50039 1.63116,2.11075c0.68515,0.61009 1.49068,1.06754 2.41603,1.37214c0.90484,0.29774 1.81389,0.4046 2.72757,0.3203c0.75417,-0.06909 1.46799,-0.24863 2.14254,-0.53475c-0.70784,-0.00102 -1.41283,-0.11575 -2.11537,-0.34679z" fill="#FFBF3E"/>
     <path stroke="null" id="svg_154" d="m255.22516,111.16662c-1.76716,0.65778 -3.99801,-0.95355 -4.9826,-3.59912c-0.98446,-2.64537 -0.35012,-5.32294 1.41704,-5.98078c1.76716,-0.65778 3.99774,0.95355 4.98233,3.59905c0.985,2.64544 0.35039,5.32321 -1.41677,5.98085z" fill="#FFEA83"/>
     <path stroke="null" id="svg_155" d="m260.58247,99.26218l0.85647,-2.05091c-3.17116,-1.33138 -7.59564,-3.42821 -7.88638,-4.87161c-0.3512,-1.7446 5.35555,-20.86203 7.99535,-29.55163l-2.9156,-0.95939l-9.72568,33.59122l11.67585,3.84231z" fill="#FFBF3E"/>
     <path stroke="null" id="svg_156" d="m264.20673,65.77721c0,0 6.02249,1.70622 6.17425,2.93849c0.15162,1.23227 -8.97627,24.73967 -9.74973,25.2287c-0.77333,0.48883 -4.29759,-1.26698 -4.56116,-2.19818c-0.50065,-1.7677 5.58678,-26.00583 8.13664,-25.96901z" fill="#FFEA83"/>
     <path stroke="null" id="svg_157" d="m289.87094,82.16449l-14.32163,25.43188l-9.28074,-4.31362l11.31174,-26.83086l12.29063,5.71259zm-17.51085,33.34402c-0.3421,0.73576 -0.80294,1.35536 -1.38253,1.85866c-0.57959,0.50337 -1.21868,0.88256 -1.91661,1.13764c-0.69792,0.25515 -1.42873,0.37287 -2.19268,0.35351c-0.76327,-0.0195 -1.50467,-0.19612 -2.2242,-0.53034c-0.73583,-0.34203 -1.35713,-0.7988 -1.86444,-1.37003c-0.50704,-0.57116 -0.88813,-1.20591 -1.14314,-1.90411c-0.25515,-0.69799 -0.37294,-1.42879 -0.35378,-2.19261c0.01983,-0.76361 0.2004,-1.5133 0.54223,-2.24906c0.33436,-0.71919 0.79112,-1.34055 1.3699,-1.86471c0.57918,-0.52375 1.21732,-0.91326 1.91565,-1.16828c0.69819,-0.25515 1.43103,-0.37702 2.19879,-0.36615c0.76762,0.011 1.51894,0.18756 2.25477,0.52959c0.71898,0.33422 1.3305,0.79119 1.83373,1.37078c0.50323,0.57952 0.88256,1.21848 1.13771,1.91654c0.25488,0.69806 0.37281,1.43932 0.35433,2.22359c-0.01916,0.7844 -0.19564,1.53612 -0.52973,2.25497z" fill="#FFDD4D"/>
     <path stroke="null" id="svg_158" d="m266.97682,118.13179c-0.73583,-0.34183 -1.35753,-0.7986 -1.86457,-1.36962c-0.50731,-0.57144 -0.88813,-1.20612 -1.14355,-1.90431c-0.25461,-0.69779 -0.37281,-1.42879 -0.35324,-2.19241c0.01916,-0.76382 0.19999,-1.5135 0.54223,-2.24926c0.33395,-0.71925 0.79072,-1.34062 1.36949,-1.86444c0.57918,-0.52402 1.21773,-0.91354 1.91606,-1.16855c0.13681,-0.0502 0.27485,-0.09334 0.41465,-0.13321c-0.18233,-0.02167 -0.36506,-0.03424 -0.54861,-0.03696c-0.76776,-0.01087 -1.5006,0.111 -2.19879,0.36594c-0.69833,0.25522 -1.33648,0.64453 -1.91565,1.16848c-0.57877,0.52416 -1.03554,1.14539 -1.3699,1.86444c-0.34169,0.73603 -0.52266,1.48572 -0.54223,2.24933c-0.01916,0.76361 0.09864,1.49462 0.35378,2.19275c0.25501,0.69806 0.63611,1.33281 1.14314,1.90418c0.50772,0.57103 1.12901,1.02759 1.86444,1.36983c0.71952,0.33402 1.46092,0.51084 2.2242,0.5302c0.63054,0.01624 1.23852,-0.06277 1.82395,-0.23382c-0.58543,-0.06956 -1.15687,-0.23294 -1.71539,-0.49257z" fill="#FFBF3E"/>
     <path stroke="null" id="svg_159" d="m269.96089,116.91909c-1.52532,0.37206 -3.213,-1.17765 -3.76949,-3.46095c-0.55717,-2.28337 0.22838,-4.43596 1.75371,-4.80789c1.52519,-0.37179 3.21314,1.17772 3.7699,3.46109c0.55663,2.28343 -0.22866,4.43603 -1.75411,4.80775z" fill="#FFEA83"/>
     <path stroke="null" id="svg_160" d="m275.54931,107.59637l0.90797,-1.61234c-2.49253,-1.40957 -5.94696,-3.57433 -6.04695,-4.796c-0.12078,-1.47689 6.45902,-16.73005 9.48738,-23.65888l-2.3174,-1.07705l-11.31174,26.83065l9.28074,4.31362z" fill="#FFBF3E"/>
     <path stroke="null" id="svg_161" d="m281.80548,80.25977c0,0 4.814,1.9969 4.81943,3.03074c0.00571,1.03378 -9.83016,19.58425 -10.51681,19.91324c-0.68746,0.32906 -3.43092,-1.46588 -3.55836,-2.26156c-0.24183,-1.51031 7.15096,-20.961 9.25574,-20.68242z" fill="#FFEA83"/>
    </g>
   </g>
   <g stroke="null" id="svg_162" display="none">
    <path stroke="null" id="svg_163" d="m735.86058,164.8049c0,0 -43.18783,-9.94762 -65.9071,-4.83044c-22.72008,5.11684 -31.11173,-16.97698 -25.38093,-29.26387c5.73134,-12.28655 -11.05279,-42.17023 6.14069,-56.70251c17.19307,-14.53242 39.37731,-17.60263 62.56964,-40.93633c23.19165,-23.3337 39.15694,-43.18783 54.50813,-43.39251c15.35092,-0.20468 27.42729,22.71967 46.66699,24.56175c19.24024,1.84215 43.18566,-9.82473 54.13723,2.04697c10.95171,11.87136 14.54553,27.27954 35.36571,44.34191c20.82059,17.06251 42.08776,43.34312 40.56257,56.50435c-1.52519,13.1613 -21.0377,34.8728 -63.06581,39.06116c-42.02811,4.18829 -145.59713,8.60951 -145.59713,8.60951z" fill="#0E1E63"/>
    <path stroke="null" id="svg_164" d="m729.52302,102.75832c0,0 -21.91577,23.12637 -26.18999,27.95226c-4.27422,4.82603 -28.05497,1.35882 -34.27107,-8.75135c-6.21569,-10.10983 0.62483,-31.61313 8.96431,-39.67689c8.33935,-8.06382 50.76119,-38.97489 61.21727,-49.05456c10.45635,-10.07981 13.13216,-16.12751 23.3017,-19.48744c10.16955,-3.36001 27.67932,13.88408 50.25551,12.15001c22.57634,-1.73435 49.70201,-1.06244 55.79447,3.97736c6.09273,5.03987 15.16424,25.03143 28.268,34.94304c13.10362,9.91168 37.57184,34.80521 38.81267,45.97701c1.24042,11.17146 -8.93375,22.13784 -17.74128,21.7634c-8.8078,-0.37437 -14.51958,-20.67393 -20.06316,-33.1195c-5.54399,-12.44551 -17.47173,-21.18137 -22.51153,-30.58887c-5.03994,-9.4079 -14.5996,-22.84745 -26.36716,-24.19146c-11.76783,-1.34388 -22.08587,-4.23047 -29.35843,-8.49905c-7.2727,-4.26865 -29.78368,-5.4444 -37.00774,-1.91647c-7.22379,3.52786 -11.25563,10.91971 -14.44757,11.75954c-3.19181,0.84004 -28.42588,4.90985 -38.65602,14.63452c-10.23041,9.72473 5.6433,36.1622 0,42.12845z" fill="#162B75"/>
    <path stroke="null" id="svg_165" d="m868.59524,16.28782c-10.95157,-11.87156 -34.89699,-0.20468 -54.13723,-2.04683c-19.2397,-1.84222 -31.31607,-24.76657 -46.66699,-24.56189c-15.35119,0.20481 -31.31648,20.05895 -54.50813,43.39265c-23.19233,23.3337 -45.37657,26.40377 -62.56964,40.93633c-17.19321,14.53228 -0.40935,44.41596 -6.14069,56.70251c-5.7308,12.28689 2.66086,34.38071 25.38093,29.2636c21.99607,-4.95428 63.176,4.21186 65.77558,4.80069c-0.22553,-5.14985 -0.84316,-9.56897 -0.84316,-9.56897s-56.85963,-8.5962 -68.44337,-13.37093c-11.58374,-4.77508 -12.60814,-16.63876 -11.60751,-39.07665c1.0009,-22.43809 22.41439,-38.00076 44.44809,-50.40849c22.03357,-12.40781 51.01281,-48.83114 67.62344,-51.2327c16.61022,-2.40157 19.81249,16.21052 41.53317,19.21219c15.83065,2.18799 46.02178,-0.93786 61.24064,-2.79489c-0.36003,-0.41621 -0.70879,-0.83861 -1.08513,-1.2466z" fill="#061251"/>
    <g stroke="null" id="svg_166" display="inline">
     <g stroke="null" id="svg_167">
      <path stroke="null" id="svg_168" d="m923.53962,223.79485c0,0 7.07855,0.91055 17.08465,-2.12162c10.00624,-3.03217 17.25149,-12.63816 11.7431,-17.53137c-9.86848,-8.76582 -28.05063,10.25269 -28.82776,19.65299z" fill="#CD2606"/>
      <path stroke="null" id="svg_169" d="m933.67113,214.34102c0.80824,-2.0719 2.79957,-6.45589 4.259,-9.62257c-7.34253,4.53752 -13.92953,13.49953 -14.39051,19.07639c0,0 7.07855,0.91028 17.08465,-2.12162c1.59855,-0.48448 3.12619,-1.13744 4.5435,-1.91158c-4.91033,-3.50959 -12.84087,-1.97516 -11.49665,-5.42062z" fill="#BC1A04"/>
      <path stroke="null" id="svg_170" d="m923.53962,223.79485c0,0 19.27339,-20.36056 9.24392,-25.92479c-10.02934,-5.56423 -22.17228,9.51863 -9.24392,25.92479z" fill="#CD2606"/>
      <path stroke="null" id="svg_171" d="m930.41913,196.93791c-9.40125,-2.27922 -18.8029,11.72598 -6.87951,26.85694c0,0 0.9187,-0.97033 2.25042,-2.54551c-7.64061,-11.92081 -2.49878,-22.58258 4.62909,-24.31143z" fill="#BC1A04"/>
      <path stroke="null" id="svg_172" d="m926.11421,216.85474c0,0 11.48157,-11.02534 6.13974,-16.4192c-2.8834,-2.91152 -11.52491,5.41329 -6.13974,16.4192z" fill="#E22C14"/>
      <path stroke="null" id="svg_173" d="m923.53962,223.79485c0,0 5.53488,-5.40188 13.96975,-5.48448c8.435,-0.08288 13.52086,13.76881 6.53293,16.20834c-6.98766,2.43954 -17.60297,-6.31405 -20.50267,-10.72386z" fill="#CD2606"/>
      <path stroke="null" id="svg_174" d="m946.00849,233.23916c-6.67246,0.91 -15.81108,-4.31525 -16.98099,-8.61637c-0.52117,-1.91565 0.12513,-3.55796 1.13051,-4.86087c-4.15018,1.62518 -6.61839,4.03293 -6.61839,4.03293c2.8997,4.40981 13.51501,13.1634 20.50267,10.72359c0.81517,-0.28422 1.46568,-0.72442 1.9662,-1.27928z" fill="#BC1A04"/>
      <path stroke="null" id="svg_175" d="m931.61282,222.64654c0,0 3.63349,-3.25227 7.41943,-2.43927s7.11455,7.24145 5.64045,9.70599c-1.47383,2.46454 -15.60077,-3.88756 -13.05988,-7.26672z" fill="#E22C14"/>
      <path stroke="null" id="svg_176" d="m937.33288,213.1544c0,0 0.44291,-5.99315 7.63871,-8.4547c4.44541,-1.52057 7.45856,3.23841 6.5961,5.5554c-0.86272,2.31699 -5.28422,5.55893 -7.042,5.90049c-1.75806,0.34183 -7.26101,-0.51274 -7.19281,-3.00119z" fill="#E22C14"/>
     </g>
     <path stroke="null" id="svg_177" d="m696.69195,263.96491c0,0 -22.28505,2.38628 -27.26086,7.82729c-4.97663,5.44073 3.13665,11.23226 -1.08214,13.85358c-4.21892,2.62132 -11.79161,7.27297 -7.13982,11.27574c4.65178,4.0025 30.18217,2.01511 33.9681,4.79376c3.78647,2.77865 5.99532,7.64659 10.08341,8.83674c4.08809,1.18988 10.72115,-3.89462 14.0033,-3.24547c3.28256,0.64915 42.76775,9.41171 48.17696,-2.81262c5.4088,-12.22405 57.55103,-2.48519 57.55103,-2.48519s-6.05809,16.54854 3.2452,20.01058c9.30329,3.46149 34.82525,2.27161 55.59965,3.89408c20.77494,1.62246 28.88822,-0.43259 31.59269,-3.89408c2.70461,-3.46204 -4.11078,-7.03168 -3.02918,-9.52013c1.08173,-2.48791 14.17177,-7.60284 14.7125,-12.94276c0.54087,-5.33938 -0.97386,-12.86858 -30.07361,-12.45746c-29.10043,0.41112 -200.34723,-23.13405 -200.34723,-23.13405z" fill="#6EB8E5"/>
     <path stroke="null" id="svg_178" d="m834.72822,313.79721c-8.11382,-7.13982 -4.33033,-23.60658 -4.33033,-23.60658s-50.84108,2.9444 -64.90416,11.7768c-14.06363,8.83185 -33.75221,0.4709 -41.10792,-0.25216c-7.35652,-0.7236 -12.76506,0.83148 -16.44339,0c-3.67806,-0.83175 -8.11327,-5.11847 -12.11591,-6.49421c-4.0029,-1.37547 -29.85745,0.94288 -25.0978,-4.57013c4.75993,-5.51301 2.9175,-6.12249 2.9175,-13.87097c0,-4.01445 13.62031,-10.10678 19.75,-12.39361c-6.38239,0.89642 -20.17728,3.26395 -23.96566,7.40584c-4.97608,5.44046 3.13719,11.23226 -1.0816,13.85358c-4.21892,2.62132 -11.79161,7.27297 -7.13982,11.27547c4.65178,4.00277 30.18176,2.01511 33.9681,4.79403c3.78647,2.77865 5.99532,7.64659 10.08341,8.83674c4.08809,1.18988 10.72115,-3.89462 14.0033,-3.24547c3.28256,0.64915 42.76775,9.41171 48.17696,-2.81262c5.40908,-12.22405 57.55103,-2.48519 57.55103,-2.48519s-6.05809,16.54854 3.2452,20.01058c9.3037,3.46149 34.82525,2.27161 55.59965,3.89408c20.77494,1.62246 28.88822,-0.43259 31.59269,-3.89408c0.13654,-0.17526 0.23287,-0.35107 0.32322,-0.52606c-19.65421,-0.62469 -74.07757,-1.58225 -81.02447,-7.69604z" fill="#56ABD6"/>
     <path stroke="null" id="svg_179" d="m749.04762,112.13409c-0.91286,-1.30917 -24.2935,-23.94168 -12.88366,-45.63885c11.4097,-21.69704 40.37345,-7.85575 40.37345,-7.85575s1.23933,-18.51739 20.08653,-22.07113c18.84706,-3.55395 30.16817,16.83385 30.16817,16.83385s16.23769,-5.61124 31.4503,6.3595c15.2122,11.97101 10.35283,28.09723 10.35283,28.09723s19.9705,5.57082 23.45047,17.54163c3.48011,11.97081 0,17.58225 0,17.58225s14.70313,10.28734 15.07688,22.07127c0.37389,11.78359 -13.46705,29.10206 -13.46705,29.10206l-144.60791,-62.02205z" fill="#CD2606"/>
     <path stroke="null" id="svg_180" d="m893.65554,174.15615c0,0 7.21115,-9.04814 11.07914,-18.51277c-4.26091,-3.03203 -9.2018,-8.84462 -14.58452,-19.48799c-17.48912,-34.5807 -41.73547,-52.20228 -58.29692,-53.26214c-16.56186,-1.06006 -31.26879,8.74435 -37.89315,10.06935c-6.62477,1.32493 -35.37563,1.32493 -44.91247,-10.86455c-4.91698,-6.28478 -7.35978,-14.73838 -8.58241,-21.46818c-1.59896,1.58368 -3.05866,3.50286 -4.30126,5.86557c-11.40983,21.69697 11.97108,44.32948 12.88366,45.63865l144.60791,62.02205z" fill="#BC1A04"/>
     <path stroke="null" id="svg_181" d="m794.86942,101.53495c0,0 -36.35071,-6.60398 -53.0809,3.08203c-16.73006,9.68588 -73.52475,75.44332 -63.83887,128.30671s64.75743,78.39893 134.85112,76.41752c70.09382,-1.98114 120.28385,-49.27935 112.57925,-87.92776c0,0 -7.819,0.02065 -19.81426,-35.34071c-11.99485,-35.36143 -46.0298,-134.1786 -110.69633,-84.53779z" fill="#FECE00"/>
     <path stroke="null" id="svg_182" d="m848.99279,108.37765c-26.16554,-18.84801 -51.04596,5.75912 -51.04596,5.75912s-29.24472,-7.32983 -41.28671,-1.5707c-12.04159,5.75899 -34.90364,45.37481 -39.13303,75.2828c-4.22979,29.908 19.23793,81.2606 102.10727,86.79208c82.8692,5.53203 97.23403,-48.6378 97.23403,-48.6378c-28.97,-13.78701 -41.70979,-98.77756 -67.8756,-117.6255zm-27.08546,150.65765c-13.47955,1.69203 -13.81038,-10.78799 -36.05535,-7.62675c-22.24524,3.16151 -32.06712,-22.26372 -32.06712,-22.26372c-3.18773,-6.17466 2.5447,-13.06613 16.1896,-16.86999c13.64476,-3.80387 54.33056,-4.54825 67.89489,11.57735c13.5642,16.12547 -2.48302,33.49163 -15.96203,35.18311z" fill="#FFDA3E"/>
     <path stroke="null" id="svg_183" d="m804.07054,221.41346c0,0 4.13292,26.72026 22.72157,24.79374c0,0 -11.63224,7.03928 -18.70467,0.54698c-7.07203,-6.49258 -5.28993,-21.00183 -4.0169,-25.34072z" fill="#FCC000"/>
     <path stroke="null" id="svg_184" d="m758.81964,228.06119c0,0 16.76592,15.91081 34.04133,7.09934c0,0 -11.58442,29.06687 -34.04133,-7.09934z" fill="#FCC000"/>
     <path stroke="null" id="svg_185" d="m701.96313,218.45003c-11.89907,-41.16118 21.98547,-89.85754 43.78753,-115.69171c-1.40753,0.54202 -2.74197,1.15211 -3.96215,1.85866c-16.73006,9.68588 -73.52475,75.44332 -63.83887,128.30643c9.68588,52.86366 64.75743,78.3992 134.85112,76.41779c36.83112,-1.04098 68.14895,-14.60191 88.47772,-32.83759c-86.43762,35.41761 -183.35659,-2.84903 -199.31535,-58.05359z" fill="#FCC000"/>
     <g stroke="null" id="svg_186">
      <path stroke="null" id="svg_187" d="m882.92393,252.93182c-3.31558,-6.2828 -9.61156,-13.54735 -8.15852,-18.14791c1.45291,-4.60111 4.60083,-9.92826 2.42161,-15.25541c-2.17936,-5.32715 -10.1705,-9.80679 -7.99086,-16.4658c2.17936,-6.65928 0.96829,-21.53753 0.96829,-21.53753l-14.77052,-9.78424c0,0 5.20596,11.2684 1.45264,18.9946c-3.75319,7.7262 -7.99086,15.95917 -3.63227,21.28632c4.35873,5.32742 4.29691,14.44078 -1.84691,20.90156c-6.14368,6.46106 7.59374,15.27361 6.83916,20.00841s-16.97841,12.24117 -14.43575,23.50115c2.39375,10.60077 10.35541,12.84168 2.79346,28.22154c12.97877,-3.29656 24.82159,-8.14575 35.1645,-14.09705c-1.56893,-4.56877 -2.72825,-8.82832 -2.60448,-11.21867c0.36275,-7.02217 7.1151,-20.12389 3.79965,-26.40697z" fill="#6EB8E5"/>
      <path stroke="null" id="svg_188" d="m750.78652,275.70638c-1.33199,-6.17439 -11.13865,-15.98145 -9.44391,-20.34018c1.69529,-4.35873 8.59436,-7.99412 9.6242,-14.77228c1.03038,-6.7787 -8.2922,-15.96406 -7.68694,-19.18046c0.6054,-3.21667 11.62314,-11.93412 10.41247,-16.89798c-1.21094,-4.96413 -10.89668,-11.32696 -10.65444,-17.04444c0.24197,-5.71748 8.47521,-22.66614 8.47521,-22.66614l-15.25554,6.93603c-0.12119,-0.15746 -10.77536,9.57338 -8.47521,18.9946c2.30042,9.42122 2.66371,18.16095 -4.35859,27.7145c-7.0219,9.55355 1.93712,12.33818 1.45277,19.48153c-0.48408,7.14336 -19.85583,13.31829 -19.61373,38.01719c0.01494,1.50671 0.18273,2.95255 0.4766,4.3427c11.27234,9.42095 25.37849,16.56892 41.61102,21.42382c1.81349,-8.63947 4.31131,-21.94825 3.43609,-26.00889z" fill="#6EB8E5"/>
      <path stroke="null" id="svg_189" d="m856.84656,190.73553c-3.75319,7.7262 -7.99086,15.95917 -3.63227,21.28632c4.35873,5.32742 4.29691,14.44078 -1.84691,20.90156c-6.14368,6.46106 7.59374,15.27361 6.83916,20.00841s-16.97841,12.24117 -14.43575,23.50115c2.39375,10.60077 10.35541,12.84168 2.79346,28.22154c12.97877,-3.29656 24.82159,-8.14575 35.1645,-14.09705c-0.62904,-1.83142 -1.18608,-3.60578 -1.62708,-5.23748c-10.06548,5.32443 -17.2485,5.7361 -20.37972,3.2183c-3.75754,-3.02212 -5.87726,-6.3578 -6.44937,-13.89733c-0.57157,-7.53899 12.01089,-17.34035 11.95274,-23.23241c-0.05869,-5.89152 -9.52176,-12.40991 -8.52086,-14.99754c1.0009,-2.58736 7.43532,-16.14367 3.4316,-22.5781c-4.00358,-6.43443 -2.28737,-14.72772 1.42981,-23.09737c1.68686,-3.79721 1.36677,-9.47923 0.5194,-14.5621l-6.69134,-4.4325c0,0 5.20596,11.2684 1.45264,18.9946z" fill="#56ABD6"/>
      <path stroke="null" id="svg_190" d="m749.04762,293.10325c-9.58235,-0.59345 -22.45216,-7.78653 -21.60302,-12.6387c1.00076,-5.71952 -2.00179,-17.44442 -2.00179,-23.73538c0,-6.29177 4.14651,-9.29432 5.71939,-13.72723c1.57274,-4.43236 -5.00434,-15.87113 -2.41427,-21.58848c2.59007,-5.71762 7.7046,-20.16343 4.98777,-30.67793c-1.80764,-6.99663 1.77504,-15.16669 4.59173,-19.93572l-2.06986,0.94112c-0.12119,-0.15746 -10.77536,9.57338 -8.47521,18.9946c2.30042,9.42122 2.66371,18.16095 -4.35859,27.7145c-7.0219,9.55355 1.93712,12.33818 1.45277,19.48153c-0.48408,7.14336 -19.85583,13.31829 -19.61373,38.01719c0.01494,1.50671 0.18273,2.95255 0.4766,4.3427c11.27234,9.42095 25.37849,16.56892 41.61102,21.42382c0.54114,-2.57785 1.14233,-5.57252 1.69719,-8.61202z" fill="#56ABD6"/>
      <path stroke="null" id="svg_191" d="m731.15432,277.49868c0,0 -2.2386,-17.7338 -1.6313,-22.31562c0.60703,-4.58154 5.88948,-10.56463 6.1589,-13.69109c0.26928,-3.12619 -4.32327,-14.01444 -3.13148,-18.43458c1.1911,-4.41986 5.77278,-15.9551 5.6111,-21.45303c-0.16181,-5.49793 -3.07238,-12.62729 -2.91084,-16.15087c0.16181,-3.52345 3.39587,-10.58719 5.60581,-11.25957c2.21007,-0.67265 -2.31767,7.79006 0,14.79714c2.31781,7.00736 7.65026,12.66724 8.19112,16.4942c0.541,3.82696 -9.76685,10.07988 -9.81454,16.60207c-0.04742,6.52192 7.12148,12.50502 7.33737,17.57213c0.21548,5.06657 -9.10955,10.72658 -9.27123,16.6018c-0.16208,5.87522 7.1689,15.14645 7.97755,18.75793c0.80838,3.61149 0.86232,8.47834 -0.86286,10.62659c-1.72477,2.14825 -12.58015,-2.26373 -13.25959,-8.1471z" fill="#7ECBF2"/>
      <path stroke="null" id="svg_192" d="m859.26586,270.1624c0,0 10.74234,-11.35399 10.06249,-18.08514c-0.67999,-6.73088 -7.4788,-12.03385 -7.34307,-16.8613c0.136,-4.82718 3.36272,-15.09373 2.32718,-19.71685c-1.03527,-4.62339 -2.90405,-11.3904 -1.69773,-16.84554c1.20645,-5.45513 1.95424,-11.64189 3.45022,-11.67599c1.49557,-0.03397 1.01978,5.56763 0.54386,11.43551c-0.4762,5.86775 1.56391,12.87049 5.43897,18.71772c3.8756,5.84696 -1.01992,14.34567 -1.08758,18.22128c-0.06807,3.87533 6.66268,15.77331 7.88666,19.03699c1.22371,3.26341 -8.97464,26.31186 -10.60648,28.96335c-1.63157,2.65148 -6.45902,3.05961 -7.88693,0c-1.4275,-3.05961 -3.3115,-10.64669 -1.08758,-13.19003z" fill="#7ECBF2"/>
     </g>
     <g stroke="null" id="svg_193">
      <path stroke="null" id="svg_194" d="m812.80076,182.80214c0,3.29506 -7.24281,7.93339 -16.17683,7.93339c-8.9347,0 -16.17737,-4.63833 -16.17737,-7.93339c0,-3.2952 7.24267,-13.19465 16.17737,-13.19465c8.93402,0 16.17683,9.89945 16.17683,13.19465z" fill="#FF8B00"/>
      <path stroke="null" id="svg_195" d="m796.62394,190.73553c6.64175,0 12.3428,-2.56385 14.83396,-5.23327c-3.38378,-3.1558 -9.14134,-7.32174 -15.3713,-6.88562c-9.7996,0.6861 -10.22457,5.29196 -12.54401,3.39737c-0.88215,-0.72061 -1.49693,-1.62926 -1.92367,-2.48003c-0.74914,1.31419 -1.17235,2.48166 -1.17235,3.26816c0,3.29506 7.24267,7.93339 16.17737,7.93339z" fill="#FF7300"/>
      <path stroke="null" id="svg_196" d="m785.20854,177.61261c0,0 4.2408,-5.00217 10.74356,-5.81734c6.5029,-0.81504 15.46015,7.77389 15.22199,9.41334c-0.2379,1.63931 -6.39856,-3.596 -13.64395,-4.12477c-7.24498,-0.52905 -11.05238,3.25227 -12.3216,3.33134c-1.26922,0.07961 -1.15157,-1.6457 0,-2.80256z" fill="#FFA039"/>
      <path stroke="null" id="svg_197" d="m796.62394,190.73553c5.05353,0 9.5632,-1.4847 12.52988,-3.37047c-2.52486,-4.29908 -7.18384,-7.19362 -12.52988,-7.19362s-10.00556,2.89468 -12.53015,7.1939c2.96641,1.88549 7.47622,3.37019 12.53015,3.37019z" fill="#FF8B00"/>
      <path stroke="null" id="svg_198" d="m799.21483,188.9359c-6.22588,0 -11.26487,-2.54334 -11.47899,-5.71626c-1.46065,1.13554 -2.70026,2.54198 -3.64206,4.1457c2.96641,1.88549 7.47622,3.37019 12.53015,3.37019c5.05353,0 9.5632,-1.4847 12.52988,-3.37047c-0.18423,-0.31357 -0.40324,-0.60268 -0.60961,-0.90104c-2.09133,1.49163 -5.47891,2.47187 -9.32938,2.47187z" fill="#FF7300"/>
      <path stroke="null" id="svg_199" d="m805.14317,185.70795c-0.20964,1.44 -3.60157,2.13833 -7.57608,1.55983c-3.97464,-0.57864 -7.02679,-2.21509 -6.81688,-3.6551c0.20936,-1.44 3.83674,-2.66602 7.81112,-2.08752c3.97492,0.5785 6.79134,2.74278 6.58184,4.18279z" fill="#FFA039"/>
     </g>
     <g stroke="null" id="svg_200">
      <path stroke="null" id="svg_201" d="m731.19861,174.19392c-1.22914,0 -2.28819,-0.92019 -2.43424,-2.17067c-0.15583,-1.34408 0.80729,-2.56222 2.15382,-2.71928c0.17472,-0.02024 17.5565,-2.17067 27.34795,-13.07502c0.90797,-1.00871 2.46318,-1.08785 3.46435,-0.18688c1.00864,0.90559 1.09274,2.45693 0.18681,3.46421c-11.0517,12.30856 -29.65013,14.58099 -30.43623,14.67202c-0.09565,0.01087 -0.18912,0.01562 -0.28246,0.01562z"/>
     </g>
     <g stroke="null" id="svg_202">
      <path stroke="null" id="svg_203" d="m849.40241,168.61488c-0.68121,-1.02304 -0.50215,-2.4144 0.45799,-3.22903c1.03242,-0.87441 2.58016,-0.74792 3.45687,0.28585c0.11385,0.13437 11.53591,13.41149 26.03919,15.51939c1.34259,0.19714 2.26998,1.44734 2.07543,2.78015c-0.19496,1.34164 -1.44014,2.27107 -2.78042,2.07543c-16.37016,-2.37894 -28.56826,-16.60153 -29.07978,-17.2053c-0.06182,-0.07364 -0.11752,-0.14863 -0.16928,-0.22648z"/>
     </g>
     <ellipse stroke="null" id="svg_204" ry="7.67743" rx="9.12198" cy="187.84887" cx="708.4051" fill="#FF9999"/>
     <ellipse stroke="null" id="svg_205" ry="7.67729" rx="9.12191" cy="198.4131" cx="892.04584" fill="#FF9999"/>
     <path stroke="null" id="svg_206" d="m804.07054,221.41346c0,0 -2.88884,20.70103 8.73022,25.63282c10.72862,4.55328 25.06859,-10.99858 25.06859,-10.99858s-4.98016,16.36486 -24.02503,15.31247c-20.15038,-1.11325 -9.77378,-29.94672 -9.77378,-29.94672z" fill="#F99300"/>
     <path stroke="null" id="svg_207" d="m758.81964,228.06119c0,0 13.3797,17.18601 24.65951,15.13449c11.28008,-2.05179 9.57284,-24.74537 9.57284,-24.74537s6.69528,19.81575 -5.61531,27.2129c-12.31073,7.39742 -28.40101,-10.85293 -28.61703,-17.60202z" fill="#F99300"/>
     <g stroke="null" id="svg_208">
      <path stroke="null" id="svg_209" d="m694.73975,258.03698c0,0 10.16941,-9.34921 20.60851,-2.74306c10.43978,6.60616 8.66977,31.11323 -0.89017,34.93149c-9.56007,3.81827 -33.53021,-18.88184 -19.71834,-32.18844z" fill="#FF8B00"/>
      <path stroke="null" id="svg_210" d="m703.64768,260.82976c0,0 4.5598,-4.49513 11.48985,0.7448c6.92992,5.23993 4.14773,22.15802 -1.13554,23.96906c-4.69485,1.60915 -20.81162,-16.19557 -10.35432,-24.71385z" fill="#FFA039"/>
      <path stroke="null" id="svg_211" d="m700.15521,258.73911c0,0 5.097,-4.68425 11.77761,-5.07744c-9.13387,-3.03353 -17.19253,4.3753 -17.19253,4.3753c-13.31625,12.82864 8.48431,34.38723 18.63403,32.49766c-10.67509,-3.91364 -24.46047,-20.96542 -13.21911,-31.79553z" fill="#FF7300"/>
     </g>
     <g stroke="null" id="svg_212">
      <path stroke="null" id="svg_213" d="m889.43335,266.3031c0,0 13.76446,1.16651 15.95944,13.32372c2.19526,12.15775 -17.05273,27.43028 -26.33129,22.97129c-9.27884,-4.45927 -8.77112,-37.46831 10.37185,-36.29501z" fill="#FF8B00"/>
      <path stroke="null" id="svg_214" d="m893.40161,274.75317c0,0 6.39462,0.31792 7.22243,8.96662c0.82754,8.64844 -13.51556,18.04194 -18.4229,15.37551c-4.36063,-2.36943 -2.14689,-26.28333 11.20047,-24.34213z" fill="#FFA039"/>
      <path stroke="null" id="svg_215" d="m892.57924,270.76671c0,0 6.89731,0.58556 11.70574,5.24047c-3.94367,-8.77941 -14.85163,-9.70408 -14.85163,-9.70408c-18.45578,-1.13119 -19.58968,29.50788 -11.3328,35.70564c-4.33726,-10.50975 -1.10184,-32.19714 14.47868,-31.24202z" fill="#FF7300"/>
     </g>
     <path stroke="null" id="svg_216" d="m765.33205,225.86104c0.24183,-0.14537 17.75907,-8.6449 21.51444,-6.80615c3.75536,1.83848 1.48647,13.32236 -3.9116,15.54072s-22.80526,-5.60512 -17.60283,-8.73457z" fill="#FFDA3E"/>
     <path stroke="null" id="svg_217" d="m810.47344,223.04462c0,0 21.2798,7.1977 22.14035,10.87467c0.86069,3.67724 -6.45426,8.29275 -12.361,7.51045c-5.90674,-0.78202 -16.19476,-20.18448 -9.77935,-18.38513z" fill="#FFDA3E"/>
     <path stroke="null" id="svg_218" d="m780.05121,64.70655c0,0 9.73533,-21.05135 21.99946,-21.24088c12.26427,-0.18987 22.88461,17.1642 22.88461,17.1642s20.24141,-2.96614 31.60831,4.70878c11.3669,7.67485 8.47114,25.03381 8.47114,25.03381s15.22049,7.33445 21.74649,14.03414c6.52613,6.6997 2.52866,19.59729 2.52866,19.59729s14.98219,13.84448 14.66658,20.35574c-0.31629,6.51139 -11.12629,-7.45951 -17.44795,-18.83843c-6.3218,-11.37926 -28.00552,-46.14834 -55.50454,-47.1599c-27.49943,-1.01149 -32.8096,7.45964 -50.06775,8.09188c-17.25815,0.6321 -29.20627,-7.90221 -31.7348,-19.85013c-2.52853,-11.94805 22.44183,-6.63795 30.84979,-1.8965z" fill="#E22C14"/>
     <path stroke="null" id="svg_219" d="m687.62411,272.67775c0,0 5.16575,13.63593 15.11696,18.61174c9.95162,4.97554 14.06145,0.16521 17.07637,1.71811c5.33761,2.7493 27.15584,9.90489 24.83871,10.85456c-2.31672,0.94968 -16.12465,-5.08994 -19.96099,-4.74811c-3.83634,0.34156 -11.43279,0.72143 -14.20547,0.53176c-2.77254,-0.19021 -11.31894,-7.55882 -15.72495,-7.97673c-4.40573,-0.41764 -17.66207,-0.21303 -18.45958,-1.01815c-0.79778,-0.80485 0.64575,-8.62942 0.98744,-11.82c0.3421,-3.19031 8.75332,-9.61768 10.3315,-6.15319z" fill="#7ECBF2"/>
     <path stroke="null" id="svg_220" d="m841.55638,309.44827c0,0 19.83097,-6.32954 25.46612,-8.22591c5.63502,-1.89636 6.3938,7.6398 16.25508,6.17683s21.13144,-15.87575 24.9243,-16.14666c3.793,-0.27091 15.98417,1.78794 15.82154,6.71865c-0.16276,4.93071 -16.47151,10.51165 -17.44686,12.46236c-0.97535,1.95044 4.65953,4.33454 3.14208,6.17656c-1.51676,1.84202 -53.26187,-0.37933 -61.22665,-1.95044c-7.96532,-1.57138 -10.01575,-4.22694 -6.93562,-5.2114z" fill="#7ECBF2"/>
    </g>
    <g stroke="null" id="svg_221" display="inline">
     <path stroke="null" id="svg_222" d="m679.86598,171.44692c-1.0157,0 -1.83971,-0.82414 -1.83971,-1.83984l0,-72.55082c0,-1.01577 0.824,-1.83991 1.83971,-1.83991c1.01584,0 1.84012,0.82414 1.84012,1.83991l0,72.55082c0,1.0157 -0.82428,1.83984 -1.84012,1.83984z"/>
    </g>
    <g stroke="null" id="svg_223" display="inline">
     <path stroke="null" id="svg_224" d="m697.21896,163.11681c-1.01611,0 -1.84012,-0.82428 -1.84012,-1.83998l0,-79.60281c0,-1.01591 0.824,-1.83998 1.84012,-1.83998c1.0157,0 1.83984,0.82407 1.83984,1.83998l0,79.60281c0,1.0157 -0.82414,1.83998 -1.83984,1.83998z"/>
    </g>
    <g stroke="null" id="svg_225" display="inline">
     <path stroke="null" id="svg_226" d="m711.44263,168.29166c-1.0157,0 -1.84012,-0.82414 -1.84012,-1.83998l0,-71.48219c0,-1.01584 0.82441,-1.83998 1.84012,-1.83998c1.01598,0 1.84025,0.82414 1.84025,1.83998l0,71.48219c0,1.01584 -0.82428,1.83998 -1.84025,1.83998z"/>
    </g>
    <g stroke="null" id="svg_227" display="inline">
     <path stroke="null" id="svg_228" d="m724.81377,155.2059c-1.01611,0 -1.84012,-0.82427 -1.84012,-1.83998l0,-50.6076c0,-1.01604 0.824,-1.84005 1.84012,-1.84005c1.0157,0 1.83971,0.824 1.83971,1.84005l0,50.6076c0,1.0157 -0.824,1.83998 -1.83971,1.83998z"/>
    </g>
    <g stroke="null" id="svg_229" display="inline">
     <path stroke="null" id="svg_230" d="m739.24355,141.83497c-1.01584,0 -1.83984,-0.82428 -1.83984,-1.83998l0,-45.72146c0,-1.01591 0.824,-1.83998 1.83984,-1.83998c1.0157,0 1.83998,0.82407 1.83998,1.83998l0,45.72146c0,1.0157 -0.82427,1.83998 -1.83998,1.83998z"/>
    </g>
    <g stroke="null" id="svg_231" display="inline">
     <path stroke="null" id="svg_232" d="m752.92608,132.55117c-1.0157,0 -1.84012,-0.82414 -1.84012,-1.83991l0,-29.43968c0,-1.01564 0.82441,-1.83991 1.84012,-1.83991s1.83971,0.82428 1.83971,1.83991l0,29.43968c0,1.01577 -0.824,1.83991 -1.83971,1.83991z"/>
    </g>
    <g stroke="null" id="svg_233" display="inline">
     <path stroke="null" id="svg_234" d="m890.33222,171.44692c-0.00217,0 -0.00217,0 -0.00462,0c-1.01625,-0.00217 -1.83753,-0.82767 -1.83509,-1.84338c0.03356,-15.26723 0.10054,-55.24118 0.00448,-56.85359c-0.05951,-1.0064 0.69983,-1.8857 1.70588,-1.95737c0.98228,-0.0718 1.88087,0.66104 1.96239,1.66621c0.12689,1.48891 0.01916,51.45945 0.00706,57.15167c-0.00245,1.01611 -0.82645,1.83645 -1.84012,1.83645z"/>
    </g>
    <g stroke="null" id="svg_235" display="inline">
     <path stroke="null" id="svg_236" d="m903.96203,165.93418c-1.0157,0 -1.83971,-0.82414 -1.83971,-1.83984l0,-56.90997c0,-1.0157 0.824,-1.83978 1.83971,-1.83978s1.84012,0.82407 1.84012,1.83978l0,56.90997c0,1.0157 -0.82441,1.83984 -1.84012,1.83984z"/>
    </g>
    <g stroke="null" id="svg_237" display="inline">
     <path stroke="null" id="svg_238" d="m913.99803,171.44692c-1.01326,0 -1.83523,-0.81925 -1.84012,-1.83264c-0.19143,-51.67018 -0.01427,-52.39269 0.05543,-52.66448c0.24183,-0.98833 1.25047,-1.58599 2.22814,-1.34286c0.91965,0.22879 1.5044,1.11285 1.37954,2.0327c-0.12173,1.92394 -0.05733,32.05237 0.01712,51.96038c0.00448,1.01693 -0.81735,1.84338 -1.83305,1.84691c-0.00217,0 -0.00462,0 -0.00706,0z"/>
    </g>
    <g stroke="null" id="svg_239" display="inline">
     <path stroke="null" id="svg_240" d="m926.80602,188.8177c-1.01598,0 -1.83998,-0.82414 -1.83998,-1.83984l0,-76.73754c0,-1.01591 0.824,-1.83998 1.83998,-1.83998c1.0157,0 1.83998,0.82407 1.83998,1.83998l0,76.73754c0,1.0157 -0.82427,1.83984 -1.83998,1.83984z"/>
    </g>
    <g stroke="null" id="svg_241" display="inline">
     <path stroke="null" id="svg_242" d="m936.91633,156.19539c-1.01611,0 -1.84012,-0.82421 -1.84012,-1.83991l0,-30.55606c0,-1.01591 0.824,-1.84018 1.84012,-1.84018c1.0157,0 1.83984,0.82428 1.83984,1.84018l0,30.55606c0,1.0157 -0.82414,1.83991 -1.83984,1.83991z"/>
    </g>
   </g>
   <g stroke="null" id="svg_243" display="none">
    <g stroke="null" id="svg_244" display="inline">
     <path stroke="null" id="svg_245" d="m-286.9138,263.80867c0,0 -11.32465,-22.18193 -21.74656,-18.70576c-10.42177,3.47617 -14.28209,24.1003 21.74656,18.70576z" fill="#CD2606"/>
     <path stroke="null" id="svg_246" d="m-288.04302,261.75824c-3.75896,-1.8393 -16.6664,-0.9888 -22.18349,-3.46964c-2.52017,-1.13336 -4.34433,-2.96804 -5.58998,-4.62855c-0.76076,6.50562 6.01869,13.57507 28.90268,10.14862c0,0 -0.4046,-0.79153 -1.12922,-2.05043z" fill="#BC1A04"/>
     <path stroke="null" id="svg_247" d="m-286.9138,263.80867c0,0 5.44026,-24.30165 -6.64005,-27.10937c-12.08011,-2.80718 -19.03801,15.50322 6.64005,27.10937z" fill="#CD2606"/>
     <path stroke="null" id="svg_248" d="m-288.52974,254.70265c0,0 1.72579,-14.51496 -4.80374,-16.15074c-6.52967,-1.63551 -9.34364,9.31008 4.80374,16.15074z" fill="#E22C14"/>
     <path stroke="null" id="svg_249" d="m-301.64288,238.48317c-5.36458,4.77936 -4.04543,16.83956 14.72908,25.3255c0,0 0.42457,-1.94228 0.77374,-4.75245c-13.38853,-6.56703 -17.01611,-14.98015 -15.50281,-20.57305z" fill="#BC1A04"/>
     <path stroke="null" id="svg_250" d="m-286.9138,263.80867c0,0 -19.52929,-5.47415 -24.59953,0.55703c-5.0703,6.03146 6.76743,24.84102 24.59953,-0.55703z" fill="#CD2606"/>
     <path stroke="null" id="svg_251" d="m-311.94679,264.9817c-3.87322,6.57273 7.77036,23.41393 25.03299,-1.17303c0,0 -0.64365,-0.17825 -1.69698,-0.43123c-13.31469,16.55724 -22.76294,8.39166 -23.33601,1.60426z" fill="#BC1A04"/>
     <path stroke="null" id="svg_252" d="m-293.38403,264.34695c0,0 -11.38083,-3.19602 -15.21288,0.21955c-3.83192,3.4153 6.76838,12.81859 15.21288,-0.21955z" fill="#E22C14"/>
     <path stroke="null" id="svg_253" d="m-299.2066,257.41962c0,0 -4.67637,-4.91468 -6.48524,-8.46231c-1.809,-3.54763 -6.79562,1.17276 -7.64394,3.51149s6.17262,6.04776 10.5626,6.16379c4.39004,0.1163 4.45641,-0.24428 3.56658,-1.21298z" fill="#E22C14"/>
    </g>
    <path stroke="null" id="svg_254" d="m-157.58038,72.53234c0,0 -6.25461,-25.7318 -43.36445,-24.30165c-37.10984,1.43049 -37.98384,37.66633 -37.98384,37.66633s-23.91892,-0.15889 -40.84469,18.91261c-16.9261,19.07123 5.64188,42.35452 9.85346,43.0695c0,0 -15.76231,5.05753 -16.06603,22.95125c-0.30365,17.89371 28.3036,30.449 28.3036,30.449s112.20366,-86.29843 111.88587,-86.77517c-0.31785,-0.47674 -11.78393,-41.97187 -11.78393,-41.97187z" fill="#CD2606"/>
    <path stroke="null" id="svg_255" d="m-157.58038,72.53234c0,0 -6.25461,-25.7318 -43.36445,-24.30165c-37.10971,1.43049 -37.98384,37.66633 -37.98384,37.66633s-23.91892,-0.15889 -40.84469,18.91261c-16.9261,19.0715 5.64188,42.35432 9.85346,43.0695c0,0 -17.27072,-27.43497 -1.22846,-42.15868c16.04232,-14.72385 36.69967,-13.625 38.89724,-14.34309c2.19777,-0.71817 4.61503,-27.74066 31.64506,-32.90505c19.45748,-3.71759 36.49717,10.94478 44.51772,19.45212c-0.90783,-3.27842 -1.49204,-5.39209 -1.49204,-5.39209z" fill="#BC1A04"/>
    <path stroke="null" id="svg_256" d="m-171.84991,305.92048c0,0 11.6071,23.3479 22.68054,20.27931c11.0735,-3.06858 15.53324,-31.15861 15.53324,-31.15861s29.02741,22.97237 37.56607,21.12818c8.53832,-1.84392 12.00715,-33.4631 12.00715,-33.4631s-57.90217,0 -87.787,23.21421z" fill="#FF8B00"/>
    <g stroke="null" id="svg_257" display="inline">
     <g stroke="null" id="svg_258">
      <g stroke="null" id="svg_259">
       <path stroke="null" id="svg_260" d="m-147.09842,322.63722c-9.37122,2.59714 -19.12442,-13.72479 -21.90151,-18.80413c-0.97495,0.67415 -1.92612,1.36976 -2.84998,2.08739c0,0 11.60731,23.34735 22.68061,20.27904c3.63431,-1.00701 6.55596,-4.70925 8.8417,-9.22938c-1.90662,2.81887 -4.15398,4.94212 -6.77082,5.66708z" fill="#FF7300"/>
      </g>
      <g stroke="null" id="svg_261">
       <path stroke="null" id="svg_262" d="m-93.99958,312.60733c-8.53812,1.84365 -37.56572,-21.12845 -37.56572,-21.12845s-0.28252,1.77843 -0.88127,4.48888c5.53991,4.27313 28.87157,21.82217 36.37652,20.2016c2.16761,-0.46791 4.00841,-2.85636 5.54922,-6.15835c-1.05117,1.38933 -2.20857,2.32215 -3.47875,2.59632z" fill="#FF7300"/>
      </g>
     </g>
    </g>
    <path stroke="null" id="svg_263" d="m-161.3225,93.26129c0,0 -44.91084,-16.38211 -82.80426,31.6865c-37.89349,48.06847 -11.75404,118.9435 -45.61243,136.83735c0,0 16.6338,54.38423 111.99762,54.38423s165.68936,-35.59668 142.02925,-127.29229c-16.02466,-62.10106 -91.1,-117.77509 -121.86807,-116.34473c0,0 1.23763,7.34178 -3.74212,20.72895z" fill="#FECE00"/>
    <path stroke="null" id="svg_264" d="m-216.73554,233.52203c0,0 23.3089,18.1903 38.09267,0.81055c0,0 -0.93752,14.56713 -16.87516,14.56713c-13.42657,0 -21.21751,-15.37768 -21.21751,-15.37768z" fill="#FCC000"/>
    <path stroke="null" id="svg_265" d="m-83.75776,208.19353c0,0 4.16852,21.82026 27.48761,16.0002c0,0 -3.36598,6.82055 -14.78546,5.53801c-11.41921,-1.28227 -15.57251,-12.72701 -12.70215,-21.53821z" fill="#FCC000"/>
    <path stroke="null" id="svg_266" d="m-71.55463,194.33723c18.13052,-1.99907 18.1778,-11.10047 17.46779,-14.66984c-15.96529,-58.71327 -80.23885,-89.68934 -87.43281,-88.24139c-7.24987,1.45909 -8.59912,18.30266 -12.90384,21.43346c-4.30459,3.13053 -22.89262,-5.86999 -36.39351,0c-13.50082,5.86985 -28.56683,39.71982 -31.69764,65.74331c-3.13053,26.02316 -16.16331,60.01815 -16.16331,60.01815c-6.94466,19.9076 14.67467,42.28191 87.46705,42.47755c36.30771,0.09728 64.46213,-9.97173 81.66227,-27.48408c0.09524,-0.11657 0.21412,-0.23993 0.35881,-0.37063c0.00448,-0.00408 0.0091,-0.00815 0.01331,-0.01196c0.60078,-0.6217 1.18771,-1.2521 1.76118,-1.89174c4.45546,-5.84832 0.03791,-12.02733 -14.7788,-17.34904c-16.4353,-5.90266 -12.03724,-37.15311 10.63949,-39.65379zm-115.96534,64.88609c-30.00113,3.83484 -39.4684,-15.02689 -34.72254,-23.00851c0,0 8.91214,-22.94167 36.57461,-24.90922s28.14953,44.08208 -1.85207,47.91774z" fill="#FFDA3E"/>
    <path stroke="null" id="svg_267" d="m-177.74156,316.16937c61.32345,0 112.29285,-14.72011 134.57572,-49.61139c-16.40127,11.55833 -48.83576,28.25279 -104.69239,29.05247c-87.89807,1.25808 -108.55365,-25.70238 -108.1943,-42.41804c0.35963,-16.71538 10.42483,-41.69851 12.58164,-89.86787c1.35903,-30.35165 27.10183,-55.86173 45.9603,-70.58136c-14.32706,3.60313 -31.06276,12.47479 -46.61618,32.20461c-37.89349,48.06834 -11.75404,118.9435 -45.61243,136.83735c0,0 16.6338,54.38423 111.99762,54.38423z" fill="#FCC000"/>
    <g stroke="null" id="svg_268" display="inline">
     <circle stroke="null" id="svg_269" r="47.03191" cy="55.48702" cx="22.18816" fill="#EFEFEF"/>
     <path stroke="null" id="svg_270" d="m21.60613,85.31941c-25.2088,-6.26487 -40.56529,-31.77909 -34.30069,-56.98714c0.57279,-2.30483 1.30781,-4.52638 2.1882,-6.65806c-6.13662,5.92277 -10.73962,13.58227 -12.94874,22.46941c-6.26419,25.20798 9.09203,50.72234 34.30028,56.987c22.90254,5.69153 46.05629,-6.46567 54.79901,-27.64202c-11.27057,10.8763 -27.71681,15.88669 -44.03806,11.8308z" fill="#DDDDDD"/>
     <path stroke="null" id="svg_271" d="m58.77147,62.59029c-7.42663,13.37745 -26.86156,16.77455 -43.41051,7.58769c-16.54827,-9.18659 -23.94352,-27.47824 -16.51757,-40.85569c7.42608,-13.37725 26.86156,-16.77435 43.41037,-7.58763c16.54895,9.18679 23.94365,27.47837 16.5177,40.85563z" fill="#FFFFFF"/>
    </g>
    <g stroke="null" id="svg_272" display="inline">
     <ellipse stroke="null" id="svg_273" ry="44.48987" rx="51.69735" cy="16.83317" cx="-97.63355" fill="#EFEFEF"/>
     <path stroke="null" id="svg_274" d="m-90.34571,44.35292c-28.55257,0 -51.69762,-19.91942 -51.69762,-44.49021c0,-2.24648 0.19523,-4.45363 0.56885,-6.61146c-4.97608,6.8374 -7.85582,14.91915 -7.85582,23.58158c0,24.57099 23.14526,44.49048 51.69626,44.49048c25.94055,0 47.41668,-16.44318 51.12911,-37.87828c-9.13917,12.5559 -25.35512,20.90788 -43.84079,20.90788z" fill="#DDDDDD"/>
     <path stroke="null" id="svg_275" d="m-56.72583,15.00814c-4.37517,13.97504 -24.20736,21.52755 -44.29606,16.86952c-20.0885,-4.6581 -32.82611,-19.76331 -28.45108,-33.73835c4.37571,-13.97491 24.20763,-21.52762 44.29654,-16.86952c20.08856,4.65823 32.82618,19.76331 28.4506,33.73835z" fill="#FFFFFF"/>
    </g>
    <circle stroke="null" id="svg_276" r="8.76314" cy="176.58454" cx="-207.9724"/>
    <circle stroke="null" id="svg_277" r="2.84122" cy="173.67153" cx="-205.542" fill="#FFFFFF"/>
    <ellipse stroke="null" id="svg_278" ry="7.35965" rx="8.14693" cy="192.70743" cx="-225.84098" fill="#FF9999"/>
    <circle stroke="null" id="svg_279" r="8.76307" cy="160.46166" cx="-99.91689"/>
    <path stroke="null" id="svg_280" d="m-94.64547,157.54864c0,1.56907 -1.27167,2.84128 -2.84115,2.84128c-1.56927,0 -2.84074,-1.27221 -2.84074,-2.84128c0,-1.56914 1.27147,-2.84115 2.84074,-2.84115c1.56948,0 2.84115,1.27201 2.84115,2.84115z" fill="#FFFFFF"/>
    <path stroke="null" id="svg_281" d="m-63.40725,173.67153c0,4.06472 -3.64762,7.35965 -8.14738,7.35965c-4.49921,0 -8.14642,-3.29493 -8.14642,-7.35965s3.64722,-7.35965 8.14642,-7.35965c4.49975,0 8.14738,3.29493 8.14738,7.35965z" fill="#FF9999"/>
    <g stroke="null" id="svg_282" display="inline">
     <circle stroke="null" id="svg_283" r="9.40648" cy="182.56397" cx="-146.93627" fill="#FF8B00"/>
     <path stroke="null" id="svg_284" d="m-144.84766,189.91411c-5.19482,0 -9.40641,-4.21145 -9.40641,-9.40655c0,-2.09527 0.68556,-4.03048 1.84406,-5.59399c-2.38119,1.70656 -3.93273,4.49731 -3.93273,7.65039c0,5.19509 4.21132,9.40655 9.40627,9.40655c3.09976,0 5.849,-1.49951 7.56263,-3.81256c-1.5419,1.10537 -3.43188,1.75615 -5.47382,1.75615z" fill="#FF7300"/>
     <path stroke="null" id="svg_285" d="m-158.70478,182.41887c0,0 0.81755,-12.92755 11.18213,-13.79761c10.65091,-0.89411 12.35468,13.16639 12.35468,13.16639s-9.55905,5.45581 -23.53681,0.63122z" fill="#FF8B00"/>
     <path stroke="null" id="svg_286" d="m-152.49771,178.66527c-1.49156,-3.46312 -0.27166,-6.75887 1.19701,-9.05521c-6.79643,3.21368 -7.40435,12.8088 -7.40435,12.8088c13.97803,4.8246 23.53708,-0.63122 23.53708,-0.63122s-0.10156,-0.83881 -0.41051,-2.09336c-5.47823,1.98141 -14.93328,3.58241 -16.91924,-1.02902z" fill="#FF7300"/>
     <path stroke="null" id="svg_287" d="m-139.38186,178.18133c-1.28138,1.9628 -6.1555,2.85935 -9.06811,0.95769c-2.91241,-1.90139 -2.76044,-5.88106 -1.47913,-7.84372c1.28159,-1.96293 4.68147,-2.01266 7.59408,-0.11086c2.91241,1.90152 4.23462,5.03423 2.95317,6.9969z" fill="#FFA039"/>
     <path stroke="null" id="svg_288" d="m-150.28744,185.0353c0,0 5.54698,0.8312 9.47665,-0.49916c3.92954,-1.33063 -0.42239,5.01888 -4.746,4.28129c-4.32381,-0.73773 -7.22963,-4.00467 -4.73065,-3.78213z" fill="#FFA039"/>
    </g>
    <path stroke="null" id="svg_289" d="m-216.73554,233.52203c0,0 12.08846,18.36176 26.45309,13.11531c14.36456,-5.24618 9.49302,-25.6062 9.49302,-25.6062s10.55492,20.1728 -7.61935,28.60413c-18.17434,8.43133 -28.32677,-16.11324 -28.32677,-16.11324z" fill="#F99300"/>
    <path stroke="null" id="svg_290" d="m-83.75776,208.19353c0,0 -2.74849,13.92586 11.55453,19.33671c14.30383,5.41057 23.91471,-13.18786 23.91471,-13.18786s-5.18518,22.16916 -24.45409,16.68169c-19.2685,-5.48774 -11.01515,-22.83053 -11.01515,-22.83053z" fill="#F99300"/>
    <g stroke="null" id="svg_291" display="inline">
     <circle stroke="null" id="svg_292" r="7.81112" cy="79.87412" cx="-141.51979" fill="#EFEFEF"/>
     <path stroke="null" id="svg_293" d="m-140.41849,84.70585c-4.31416,0 -7.81125,-3.49736 -7.81125,-7.81132c0,-0.3942 0.02955,-0.78189 0.08607,-1.16074c-0.75193,1.20048 -1.18723,2.61949 -1.18723,4.14033c0,4.31396 3.49729,7.81112 7.81125,7.81112c3.91928,0 7.16435,-2.8868 7.72552,-6.65018c-1.38097,2.20443 -3.83138,3.67079 -6.62436,3.67079z" fill="#DDDDDD"/>
     <ellipse stroke="null" id="svg_294" ry="33.07286" rx="40.91135" cy="-9909.15124" cx="-10629.96205" fill="#FFFFFF" transform="matrix(0.13433163100932538,0.03619604001280666,-0.03619604001280666,0.13433163100932538,928.4334542903692,1793.947834437948) "/>
    </g>
    <g stroke="null" id="svg_295" display="inline">
     <circle stroke="null" id="svg_296" r="7.81105" cy="91.426" cx="-65.1401" fill="#EFEFEF"/>
     <path stroke="null" id="svg_297" d="m-64.03874,96.25753c-4.31416,0 -7.81153,-3.49716 -7.81153,-7.81112c0,-0.39448 0.02989,-0.78189 0.08587,-1.16074c-0.75186,1.20048 -1.18662,2.61935 -1.18662,4.14012c0,4.31396 3.49682,7.81132 7.81071,7.81132c3.91976,0 7.16455,-2.88693 7.72566,-6.65038c-1.3809,2.20443 -3.83131,3.67079 -6.62409,3.67079z" fill="#DDDDDD"/>
     <ellipse stroke="null" id="svg_298" ry="33.07323" rx="40.91188" cy="-9826.0922" cx="-10080.98665" fill="#FFFFFF" transform="matrix(0.13433153362339736,0.0361963878196925,-0.0361963878196925,0.13433153362339736,934.0702015274948,1774.473841586905) "/>
    </g>
    <g stroke="null" id="svg_299" display="inline">
     <circle stroke="null" id="svg_300" r="11.23922" cy="53.28368" cx="-129.85966" fill="#EFEFEF"/>
     <path stroke="null" id="svg_301" d="m-128.27521,60.23594c-6.2074,0 -11.23932,-5.0322 -11.23932,-11.23953c0,-0.56736 0.04252,-1.12507 0.12363,-1.67008c-1.08167,1.72742 -1.70772,3.76909 -1.70772,5.95735c0,6.20713 5.03179,11.23926 11.23899,11.23926c5.63963,0 10.30874,-4.15391 11.11562,-9.5689c-1.98685,3.17184 -5.51226,5.28191 -9.5312,5.28191z" fill="#DDDDDD"/>
     <ellipse stroke="null" id="svg_302" ry="47.58572" rx="58.86882" cy="-10106.17792" cx="-10543.73548" fill="#FFFFFF" transform="matrix(0.13433236835992335,0.03619329929454625,-0.03619329929454625,0.13433236835992335,921.715372384471,1789.891298871069) "/>
    </g>
    <g stroke="null" id="svg_303" display="inline">
     <circle stroke="null" id="svg_304" r="11.23905" cy="78.0728" cx="-18.13502" fill="#EFEFEF"/>
     <path stroke="null" id="svg_305" d="m-16.5506,85.02506c-6.20727,0 -11.23933,-5.0322 -11.23933,-11.23953c0,-0.56736 0.04266,-1.12487 0.12336,-1.66995c-1.08174,1.72728 -1.70751,3.76888 -1.70751,5.95721c0,6.20713 5.03206,11.23926 11.23905,11.23926c5.63936,0 10.3084,-4.15391 11.11528,-9.5689c-1.98685,3.17184 -5.51206,5.28191 -9.53086,5.28191z" fill="#DDDDDD"/>
     <ellipse stroke="null" id="svg_306" ry="47.5849" rx="58.86813" cy="-9927.78014" cx="-9740.92495" fill="#FFFFFF" transform="matrix(0.13433163100932538,0.03619604001280666,-0.03619604001280666,0.13433163100932538,932.0186418959983,1761.678963707762) "/>
    </g>
    <g stroke="null" id="svg_307" display="inline">
     <path stroke="null" id="svg_308" d="m-90.73672,25.13876l-11.31262,0c-0.15624,-2.36515 -0.02228,-4.34548 0.40154,-5.94091c0.42403,-1.59543 0.99859,-2.92307 1.72375,-3.98273c0.72503,-1.05986 1.53945,-1.91892 2.44321,-2.57724c0.90369,-0.65825 1.78475,-1.22704 2.64394,-1.70697c0.85919,-0.47973 1.61771,-0.94268 2.27623,-1.38885c0.65798,-0.44631 1.10986,-1.00416 1.35522,-1.67348c0.15651,-0.40168 0.20094,-0.86456 0.13396,-1.38905c-0.06684,-0.52422 -0.29564,-1.02073 -0.6861,-1.48925c-0.39047,-0.46859 -0.97046,-0.86469 -1.74012,-1.18825c-0.7698,-0.32362 -1.76879,-0.48537 -2.99576,-0.48537c-0.80308,0 -1.7571,0.07269 -2.8616,0.21758c-1.10429,0.14496 -2.25891,0.36832 -3.46401,0.66946c-1.2051,0.30121 -2.39287,0.66933 -3.56461,1.10442c-1.17127,0.43503 -2.2259,0.93154 -3.163,1.48946l-1.47247,-13.11993c0.82557,-0.49094 1.75717,-0.99866 2.79468,-1.52295c1.03772,-0.52436 2.18093,-0.99288 3.43058,-1.40556c1.24959,-0.41295 2.61052,-0.75315 4.0832,-1.02094s3.0569,-0.40154 4.7528,-0.40154c2.74414,0 5.3387,0.37912 7.78164,1.13778c2.44334,0.75879 4.57991,1.87429 6.40956,3.34696c1.82938,1.47281 3.27958,3.28562 4.35071,5.43876c1.07114,2.15321 1.6067,4.62434 1.6067,7.41338c0,2.11979 -0.30134,3.82119 -0.90375,5.1042c-0.60241,1.28288 -1.37248,2.33724 -2.30965,3.1628c-0.93691,0.82557 -1.98549,1.51717 -3.14602,2.07509c-1.16026,0.55785 -2.29227,1.16583 -3.3971,1.82415c-1.10456,0.65812 -2.11972,1.4669 -3.04548,2.42636c-0.92631,0.95959 -1.63442,2.25375 -2.12543,3.8826z" fill="#DD0000"/>
     <g stroke="null" id="svg_309">
      <path stroke="null" id="svg_310" d="m-90.94201,38.36867c0,3.86399 -3.1323,6.99628 -6.99608,6.99628c-3.86419,0 -6.99696,-3.1323 -6.99696,-6.99628c0,-3.86419 3.13277,-6.99676 6.99696,-6.99676c3.86378,0 6.99608,3.13257 6.99608,6.99676z" fill="#DD0000"/>
      <path stroke="null" id="svg_311" d="m-96.952,42.69642c-3.86371,0 -6.99649,-3.13264 -6.99649,-6.99676c0,-0.35338 0.02649,-0.7003 0.07697,-1.03962c-0.67354,1.07521 -1.06353,2.34627 -1.06353,3.70842c0,3.86392 3.13277,6.99649 6.99696,6.99649c3.51054,0 6.41717,-2.58586 6.91973,-5.95667c-1.23689,1.97462 -3.43147,3.28813 -5.93364,3.28813z" fill="#C40000"/>
      <path stroke="null" id="svg_312" d="m-92.40212,38.08153c-0.59182,2.19777 -3.27618,3.38561 -5.99451,2.65298c-2.71914,-0.73257 -4.44296,-3.10805 -3.8504,-5.30575c0.59188,-2.19777 3.27591,-3.38561 5.99464,-2.65298c2.71894,0.73257 4.44289,3.10812 3.85026,5.30575z" fill="#FF2C2C"/>
     </g>
     <g stroke="null" id="svg_313">
      <path stroke="null" id="svg_314" d="m-97.77071,18.96893c-0.36146,-5.23945 12.64686,-7.16679 10.29821,-14.21294c-2.34851,-7.04615 -15.95958,-2.8906 -17.94738,-6.62457c-0.90634,-1.70466 -1.53809,-4.187 -1.95587,-6.38199c-0.29027,0.13124 -0.57341,0.26615 -0.84873,0.40528c-1.03751,0.52429 -1.96912,1.03201 -2.79448,1.52294l1.47227,13.11993c0.93711,-0.55805 1.99174,-1.05443 3.163,-1.48946c1.17174,-0.43517 2.35952,-0.80322 3.56461,-1.10449c1.2051,-0.30134 2.35972,-0.52443 3.46401,-0.66939c1.10449,-0.1451 2.05851,-0.21758 2.8616,-0.21758c1.22697,0 2.22596,0.16174 2.99576,0.48537c0.76966,0.32342 1.34965,0.71946 1.74012,1.18825c0.39047,0.46852 0.61926,0.96482 0.6861,1.48925c0.06712,0.52429 0.02255,0.98738 -0.13396,1.38892c-0.24537,0.66946 -0.69684,1.22731 -1.35522,1.67362c-0.65852,0.44617 -1.41704,0.90912 -2.27623,1.38885c-0.85878,0.47966 -1.74026,1.04872 -2.64394,1.70697c-0.90375,0.65832 -1.71818,1.51717 -2.44321,2.57703c-0.72516,1.05986 -1.29945,2.38751 -1.72375,3.98293c-0.42382,1.59543 -0.55778,3.57555 -0.40154,5.94077l11.31262,0c0.3421,-1.1354 0.79045,-2.10756 1.34354,-2.91771c-4.0169,0.01746 -8.19187,-0.56002 -8.37753,-3.25199z" fill="#C40000"/>
     </g>
     <path stroke="null" id="svg_315" d="m-99.10399,-2.47296c0,0 9.01044,0.13559 12.7711,5.55601c3.76066,5.42049 -3.11681,9.58751 -5.6236,11.65398c-2.50693,2.06667 -2.37161,3.7606 0.27104,4.26879c2.64265,0.50806 13.07659,-6.0642 13.14452,-13.3479c0.06766,-7.28391 -6.6764,-13.54864 -16.46472,-14.22877c-9.78825,-0.67999 -7.83394,5.63848 -4.09835,6.0979z" fill="#FF2C2C"/>
    </g>
    <g stroke="null" id="svg_316" display="inline">
     <path stroke="null" id="svg_317" d="m30.31176,66.35863l-11.0089,2.60366c-0.69643,-2.2655 -1.02209,-4.22354 -0.97685,-5.87366c0.04538,-1.65004 0.29917,-3.07422 0.76083,-4.27252c0.46207,-1.19824 1.05673,-2.22182 1.78468,-3.07035c0.72795,-0.84859 1.45454,-1.60507 2.18004,-2.26964c0.7255,-0.66464 1.35699,-1.28994 1.89527,-1.87558c0.53774,-0.58584 0.84887,-1.23261 0.93364,-1.94059c0.05991,-0.42667 -0.00353,-0.88765 -0.18939,-1.3824c-0.18613,-0.49495 -0.52253,-0.92542 -1.01027,-1.29144c-0.48829,-0.36622 -1.14369,-0.61817 -1.96755,-0.75573c-0.82305,-0.1377 -1.83237,-0.06535 -3.0266,0.21717c-0.78148,0.18484 -1.69298,0.47511 -2.7345,0.8704c-1.04179,0.39536 -2.11374,0.87828 -3.21721,1.44863c-1.10334,0.57062 -2.17461,1.20224 -3.2145,1.89548c-1.03989,0.69283 -1.95139,1.41874 -2.73518,2.17733l-4.45315,-12.4288c0.69059,-0.66776 1.48049,-1.37608 2.3693,-2.12509c0.88922,-0.74928 1.89405,-1.46833 3.01505,-2.15769c1.12113,-0.68936 2.36726,-1.33369 3.73838,-1.93332c1.37166,-0.59935 2.88272,-1.09451 4.5329,-1.4847c2.67105,-0.63176 5.28232,-0.85967 7.83435,-0.68373c2.5523,0.17587 4.88859,0.76986 7.00804,1.78176c2.11945,1.01204 3.94815,2.44239 5.48557,4.29127c1.53823,1.84895 2.62798,4.13027 3.26993,6.84459c0.48802,2.06286 0.58652,3.78783 0.29564,5.17505c-0.29115,1.38715 -0.79751,2.59041 -1.51948,3.60951c-0.72197,1.01917 -1.58306,1.93359 -2.5841,2.74339c-1.0009,0.81001 -1.96266,1.66241 -2.88585,2.55713c-0.92332,0.89492 -1.72504,1.91565 -2.40557,3.06253c-0.68053,1.14668 -1.07182,2.56915 -1.17453,4.26729z" fill="#DD0000"/>
     <g stroke="null" id="svg_318">
      <circle stroke="null" id="svg_319" r="6.99647" cy="80.89078" cx="26.34866" fill="#DD0000"/>
      <path stroke="null" id="svg_320" d="m28.3048,84.87534c-3.76039,0.88962 -7.52961,-1.43796 -8.41937,-5.19829c-0.08152,-0.3438 -0.13532,-0.68773 -0.16426,-1.02949c-0.40772,1.20143 -0.49481,2.52799 -0.1811,3.85352c0.88935,3.76032 4.65871,6.08778 8.4191,5.19842c3.41652,-0.80818 5.64942,-3.99346 5.36261,-7.3894c-0.74901,2.20599 -2.58274,3.98939 -5.01698,4.56524z" fill="#C40000"/>
      <path stroke="null" id="svg_321" d="m31.67065,79.33713c-0.07106,2.27501 -2.40938,4.04876 -5.22335,3.9616c-2.81452,-0.08702 -5.0394,-2.002 -4.96848,-4.27701c0.07038,-2.27501 2.40883,-4.04862 5.22335,-3.9616c2.81438,0.08715 5.03858,2.00213 4.96848,4.277z" fill="#FF2C2C"/>
     </g>
     <g stroke="null" id="svg_322">
      <path stroke="null" id="svg_323" d="m22.04591,61.97362c-1.55725,-5.01569 10.65811,-9.88539 6.75071,-16.20175c-3.90726,-6.31643 -16.19666,0.86055 -18.98998,-2.31597c-1.2752,-1.44985 -2.46019,-3.72031 -3.37237,-5.76035c-0.25243,0.19462 -0.49712,0.39108 -0.73243,0.58978c-0.88922,0.74921 -1.67912,1.45753 -2.36971,2.12529l4.45315,12.4288c0.78379,-0.75859 1.69529,-1.4845 2.73518,-2.17753s2.11116,-1.32465 3.2145,-1.89527c1.10347,-0.57035 2.17542,-1.05327 3.21667,-1.44863c1.04206,-0.39529 1.95356,-0.68556 2.73504,-0.8704c1.19423,-0.28225 2.203,-0.35487 3.0266,-0.21717c0.82387,0.13756 1.47927,0.38945 1.96755,0.75573c0.48774,0.36601 0.82414,0.79629 1.01027,1.29123c0.18586,0.49494 0.24931,0.95572 0.18939,1.3826c-0.08478,0.70798 -0.3959,1.35475 -0.93364,1.94045c-0.53829,0.58597 -1.16977,1.21114 -1.89527,1.87558c-0.7255,0.66471 -1.45209,1.42119 -2.18004,2.26978c-0.72795,0.84853 -1.32302,1.87211 -1.78441,3.07035c-0.46193,1.1983 -0.71572,2.62234 -0.7611,4.27266c-0.04524,1.64998 0.28042,3.60802 0.97685,5.87352l11.0089,-2.60386c0.0716,-1.1835 0.28395,-2.23283 0.63584,-3.14854c-3.90495,0.94166 -8.10118,1.34062 -8.90168,-1.23628z" fill="#C40000"/>
     </g>
     <path stroke="null" id="svg_324" d="m15.81378,41.41429c0,0 8.79951,-1.94222 13.70672,2.46732c4.90734,4.4092 -0.82618,10.04748 -2.79006,12.63544c-1.96402,2.5881 -1.44231,4.20534 1.2464,4.09169c2.6883,-0.11372 11.33008,-8.91126 9.71916,-16.01515c-1.61064,-7.10375 -9.61564,-11.64807 -19.29744,-10.05698c-9.68207,1.59122 -6.32655,7.29056 -2.58478,6.87768z" fill="#FF2C2C"/>
    </g>
    <path stroke="null" id="svg_325" d="m-154.05517,317.04948c0,0 10.82311,-1.65127 11.44692,-1.02739c0.62367,0.62388 -3.04521,5.17336 -6.16379,5.20977c-3.11858,0.03668 -8.07455,-3.78267 -5.28313,-4.18238z" fill="#FFA039"/>
    <path stroke="null" id="svg_326" d="m-100.17112,307.69021c0,0 8.3062,-3.21857 9.13496,-3.0982c0.82822,0.12037 -1.23159,5.71789 -3.80658,6.27764c-2.57465,0.55975 -7.41053,-2.38791 -5.32838,-3.17944z" fill="#FFA039"/>
    <path stroke="null" id="svg_327" d="m-78.72162,207.39303c0,0 23.67845,-1.95696 26.84879,0c3.16993,1.95723 -2.89441,15.49154 -14.22381,14.83016c-11.32913,-0.66165 -16.44108,-14.55056 -12.62498,-14.83016z" fill="#FFDA3E"/>
    <path stroke="null" id="svg_328" d="m-210.89103,229.27036c0.1273,-0.08179 16.73325,-11.46676 23.40068,-10.37742c6.6673,1.08989 7.05097,16.93684 -4.51395,19.56115c-10.41213,2.36264 -23.88686,-5.96326 -18.88673,-9.18373z" fill="#FFDA3E"/>
    <path stroke="null" id="svg_329" d="m-269.1533,150.55568c-1.09206,0.87645 -10.60118,7.92022 -11.39448,17.26576c-0.79323,9.34541 8.8705,17.20625 10.52917,16.62911c1.6586,-0.5766 -0.72122,-17.45216 15.86584,-51.20308c16.58699,-33.75092 47.59737,-42.33299 60.00158,-44.5686c12.40414,-2.23561 24.89149,0.03206 27.69861,-0.99363c2.80698,-1.02562 2.1579,-21.86747 -23.66004,-24.39159c-25.818,-2.52418 -36.99626,26.30201 -37.50099,29.44953c-0.50486,3.14758 -24.80841,4.01282 -39.37595,15.11907c-14.56781,11.10591 -1.00979,31.1546 0.14422,34.61609c1.15381,3.46177 -0.01671,6.23831 -2.30796,8.07734z" fill="#E22C14"/>
   </g>
  </g>
 </g>
</svg>